%
M48
M72
T01C0.01969
T02C0.13780
%
T01
X185646Y68976
X191551Y88661
X201394Y130984
X192535Y147717
X222063Y133937
X170882Y186102
X152181Y191024
X119701Y214646
X109858Y203819
X93126Y192992
X103953Y179213
X111827Y178228
X107890Y223504
X54740Y172323
X48835Y153622
X37024Y111299
X46866Y94567
X17339Y108346
X67535Y55197
X87220Y51260
X129543Y38465
X146276Y48307
X133480Y18780
T02
X225016Y15827
X14386Y226457
X14386Y15827
X225016Y226457
M30
