G75*
%MOIN*%
%OFA0B0*%
%FSLAX25Y25*%
%IPPOS*%
%LPD*%
%AMOC8*
5,1,8,0,0,1.08239X$1,22.5*
%
%ADD10C,0.01181*%
%ADD11C,0.00000*%
%ADD12R,0.06299X0.10630*%
%ADD13R,0.10630X0.06299*%
%ADD14C,0.03937*%
%ADD15R,0.05906X0.03543*%
%ADD16R,0.03543X0.05906*%
%ADD17R,0.03150X0.03937*%
%ADD18C,0.03937*%
%ADD19C,0.03169*%
%ADD20C,0.02953*%
%ADD21C,0.01200*%
%ADD22C,0.01969*%
D10*
X0009465Y0003031D02*
X0229937Y0003031D01*
X0229937Y0003032D02*
X0230127Y0003034D01*
X0230317Y0003041D01*
X0230507Y0003053D01*
X0230697Y0003069D01*
X0230886Y0003089D01*
X0231075Y0003115D01*
X0231263Y0003144D01*
X0231450Y0003179D01*
X0231636Y0003218D01*
X0231821Y0003261D01*
X0232006Y0003309D01*
X0232189Y0003361D01*
X0232370Y0003417D01*
X0232550Y0003478D01*
X0232729Y0003544D01*
X0232906Y0003613D01*
X0233082Y0003687D01*
X0233255Y0003765D01*
X0233427Y0003848D01*
X0233596Y0003934D01*
X0233764Y0004024D01*
X0233929Y0004119D01*
X0234092Y0004217D01*
X0234252Y0004320D01*
X0234410Y0004426D01*
X0234565Y0004536D01*
X0234718Y0004649D01*
X0234868Y0004767D01*
X0235014Y0004888D01*
X0235158Y0005012D01*
X0235299Y0005140D01*
X0235437Y0005271D01*
X0235572Y0005406D01*
X0235703Y0005544D01*
X0235831Y0005685D01*
X0235955Y0005829D01*
X0236076Y0005975D01*
X0236194Y0006125D01*
X0236307Y0006278D01*
X0236417Y0006433D01*
X0236523Y0006591D01*
X0236626Y0006751D01*
X0236724Y0006914D01*
X0236819Y0007079D01*
X0236909Y0007247D01*
X0236995Y0007416D01*
X0237078Y0007588D01*
X0237156Y0007761D01*
X0237230Y0007937D01*
X0237299Y0008114D01*
X0237365Y0008293D01*
X0237426Y0008473D01*
X0237482Y0008654D01*
X0237534Y0008837D01*
X0237582Y0009022D01*
X0237625Y0009207D01*
X0237664Y0009393D01*
X0237699Y0009580D01*
X0237728Y0009768D01*
X0237754Y0009957D01*
X0237774Y0010146D01*
X0237790Y0010336D01*
X0237802Y0010526D01*
X0237809Y0010716D01*
X0237811Y0010906D01*
X0237811Y0231378D01*
X0237809Y0231568D01*
X0237802Y0231758D01*
X0237790Y0231948D01*
X0237774Y0232138D01*
X0237754Y0232327D01*
X0237728Y0232516D01*
X0237699Y0232704D01*
X0237664Y0232891D01*
X0237625Y0233077D01*
X0237582Y0233262D01*
X0237534Y0233447D01*
X0237482Y0233630D01*
X0237426Y0233811D01*
X0237365Y0233991D01*
X0237299Y0234170D01*
X0237230Y0234347D01*
X0237156Y0234523D01*
X0237078Y0234696D01*
X0236995Y0234868D01*
X0236909Y0235037D01*
X0236819Y0235205D01*
X0236724Y0235370D01*
X0236626Y0235533D01*
X0236523Y0235693D01*
X0236417Y0235851D01*
X0236307Y0236006D01*
X0236194Y0236159D01*
X0236076Y0236309D01*
X0235955Y0236455D01*
X0235831Y0236599D01*
X0235703Y0236740D01*
X0235572Y0236878D01*
X0235437Y0237013D01*
X0235299Y0237144D01*
X0235158Y0237272D01*
X0235014Y0237396D01*
X0234868Y0237517D01*
X0234718Y0237635D01*
X0234565Y0237748D01*
X0234410Y0237858D01*
X0234252Y0237964D01*
X0234092Y0238067D01*
X0233929Y0238165D01*
X0233764Y0238260D01*
X0233596Y0238350D01*
X0233427Y0238436D01*
X0233255Y0238519D01*
X0233082Y0238597D01*
X0232906Y0238671D01*
X0232729Y0238740D01*
X0232550Y0238806D01*
X0232370Y0238867D01*
X0232189Y0238923D01*
X0232006Y0238975D01*
X0231821Y0239023D01*
X0231636Y0239066D01*
X0231450Y0239105D01*
X0231263Y0239140D01*
X0231075Y0239169D01*
X0230886Y0239195D01*
X0230697Y0239215D01*
X0230507Y0239231D01*
X0230317Y0239243D01*
X0230127Y0239250D01*
X0229937Y0239252D01*
X0009465Y0239252D01*
X0009275Y0239250D01*
X0009085Y0239243D01*
X0008895Y0239231D01*
X0008705Y0239215D01*
X0008516Y0239195D01*
X0008327Y0239169D01*
X0008139Y0239140D01*
X0007952Y0239105D01*
X0007766Y0239066D01*
X0007581Y0239023D01*
X0007396Y0238975D01*
X0007213Y0238923D01*
X0007032Y0238867D01*
X0006852Y0238806D01*
X0006673Y0238740D01*
X0006496Y0238671D01*
X0006320Y0238597D01*
X0006147Y0238519D01*
X0005975Y0238436D01*
X0005806Y0238350D01*
X0005638Y0238260D01*
X0005473Y0238165D01*
X0005310Y0238067D01*
X0005150Y0237964D01*
X0004992Y0237858D01*
X0004837Y0237748D01*
X0004684Y0237635D01*
X0004534Y0237517D01*
X0004388Y0237396D01*
X0004244Y0237272D01*
X0004103Y0237144D01*
X0003965Y0237013D01*
X0003830Y0236878D01*
X0003699Y0236740D01*
X0003571Y0236599D01*
X0003447Y0236455D01*
X0003326Y0236309D01*
X0003208Y0236159D01*
X0003095Y0236006D01*
X0002985Y0235851D01*
X0002879Y0235693D01*
X0002776Y0235533D01*
X0002678Y0235370D01*
X0002583Y0235205D01*
X0002493Y0235037D01*
X0002407Y0234868D01*
X0002324Y0234696D01*
X0002246Y0234523D01*
X0002172Y0234347D01*
X0002103Y0234170D01*
X0002037Y0233991D01*
X0001976Y0233811D01*
X0001920Y0233630D01*
X0001868Y0233447D01*
X0001820Y0233262D01*
X0001777Y0233077D01*
X0001738Y0232891D01*
X0001703Y0232704D01*
X0001674Y0232516D01*
X0001648Y0232327D01*
X0001628Y0232138D01*
X0001612Y0231948D01*
X0001600Y0231758D01*
X0001593Y0231568D01*
X0001591Y0231378D01*
X0001591Y0010906D01*
X0001593Y0010716D01*
X0001600Y0010526D01*
X0001612Y0010336D01*
X0001628Y0010146D01*
X0001648Y0009957D01*
X0001674Y0009768D01*
X0001703Y0009580D01*
X0001738Y0009393D01*
X0001777Y0009207D01*
X0001820Y0009022D01*
X0001868Y0008837D01*
X0001920Y0008654D01*
X0001976Y0008473D01*
X0002037Y0008293D01*
X0002103Y0008114D01*
X0002172Y0007937D01*
X0002246Y0007761D01*
X0002324Y0007588D01*
X0002407Y0007416D01*
X0002493Y0007247D01*
X0002583Y0007079D01*
X0002678Y0006914D01*
X0002776Y0006751D01*
X0002879Y0006591D01*
X0002985Y0006433D01*
X0003095Y0006278D01*
X0003208Y0006125D01*
X0003326Y0005975D01*
X0003447Y0005829D01*
X0003571Y0005685D01*
X0003699Y0005544D01*
X0003830Y0005406D01*
X0003965Y0005271D01*
X0004103Y0005140D01*
X0004244Y0005012D01*
X0004388Y0004888D01*
X0004534Y0004767D01*
X0004684Y0004649D01*
X0004837Y0004536D01*
X0004992Y0004426D01*
X0005150Y0004320D01*
X0005310Y0004217D01*
X0005473Y0004119D01*
X0005638Y0004024D01*
X0005806Y0003934D01*
X0005975Y0003848D01*
X0006147Y0003765D01*
X0006320Y0003687D01*
X0006496Y0003613D01*
X0006673Y0003544D01*
X0006852Y0003478D01*
X0007032Y0003417D01*
X0007213Y0003361D01*
X0007396Y0003309D01*
X0007581Y0003261D01*
X0007766Y0003218D01*
X0007952Y0003179D01*
X0008139Y0003144D01*
X0008327Y0003115D01*
X0008516Y0003089D01*
X0008705Y0003069D01*
X0008895Y0003053D01*
X0009085Y0003041D01*
X0009275Y0003034D01*
X0009465Y0003032D01*
X0059668Y0055083D02*
X0063600Y0055083D01*
X0063611Y0054351D02*
X0064234Y0052914D01*
X0065359Y0051824D01*
X0066815Y0051248D01*
X0068381Y0051273D01*
X0069818Y0051895D01*
X0072156Y0054308D01*
X0073468Y0054308D01*
X0077127Y0057967D01*
X0077127Y0059598D01*
X0075345Y0061380D01*
X0075119Y0061901D01*
X0073994Y0062990D01*
X0073564Y0063161D01*
X0071798Y0064927D01*
X0070167Y0064927D01*
X0066508Y0061268D01*
X0066508Y0059795D01*
X0064163Y0057374D01*
X0063586Y0055917D01*
X0063611Y0054351D01*
X0063805Y0053904D02*
X0061497Y0053904D01*
X0063325Y0052724D02*
X0064430Y0052724D01*
X0065154Y0051545D02*
X0066065Y0051545D01*
X0066982Y0050365D02*
X0083368Y0050365D01*
X0083239Y0050747D02*
X0083738Y0049263D01*
X0084768Y0048082D01*
X0086170Y0047386D01*
X0087733Y0047279D01*
X0089217Y0047778D01*
X0090398Y0048807D01*
X0092030Y0052093D01*
X0092209Y0051956D01*
X0093676Y0051348D01*
X0094962Y0054455D01*
X0095326Y0054304D01*
X0094040Y0051198D01*
X0095506Y0050590D01*
X0095921Y0050536D01*
X0096337Y0050590D01*
X0096723Y0050751D01*
X0097056Y0051006D01*
X0097311Y0051338D01*
X0098069Y0053168D01*
X0095326Y0054304D01*
X0095477Y0054668D01*
X0095113Y0054818D01*
X0096400Y0057925D01*
X0094933Y0058532D01*
X0094518Y0058587D01*
X0094103Y0058532D01*
X0094056Y0058513D01*
X0093660Y0059468D01*
X0091577Y0060332D01*
X0090996Y0060620D01*
X0090857Y0060630D01*
X0089244Y0061298D01*
X0087737Y0060674D01*
X0087329Y0059688D01*
X0086768Y0059199D01*
X0083346Y0052310D01*
X0083239Y0050747D01*
X0083294Y0051545D02*
X0069009Y0051545D01*
X0070621Y0052724D02*
X0083552Y0052724D01*
X0084138Y0053904D02*
X0071764Y0053904D01*
X0074243Y0055083D02*
X0084724Y0055083D01*
X0085310Y0056263D02*
X0075423Y0056263D01*
X0076602Y0057443D02*
X0085896Y0057443D01*
X0086482Y0058622D02*
X0077127Y0058622D01*
X0076923Y0059802D02*
X0087376Y0059802D01*
X0088480Y0060981D02*
X0075743Y0060981D01*
X0074850Y0062161D02*
X0089468Y0062161D01*
X0090008Y0060981D02*
X0092078Y0060981D01*
X0092856Y0059802D02*
X0094688Y0059802D01*
X0094011Y0058622D02*
X0096641Y0058622D01*
X0096341Y0059055D02*
X0097417Y0057504D01*
X0096764Y0057774D01*
X0095477Y0054668D01*
X0098219Y0053532D01*
X0098949Y0055293D01*
X0105135Y0046368D01*
X0105134Y0046367D01*
X0105134Y0041192D01*
X0106287Y0040039D01*
X0113823Y0040039D01*
X0114976Y0041192D01*
X0114976Y0046367D01*
X0113823Y0047520D01*
X0110588Y0047520D01*
X0106391Y0053574D01*
X0106488Y0053518D01*
X0106893Y0053409D01*
X0109760Y0053409D01*
X0109760Y0056476D01*
X0110350Y0056476D01*
X0110350Y0053409D01*
X0113217Y0053409D01*
X0113622Y0053518D01*
X0113984Y0053727D01*
X0114281Y0054023D01*
X0114490Y0054386D01*
X0114598Y0054791D01*
X0114598Y0056476D01*
X0110350Y0056476D01*
X0110350Y0057067D01*
X0109760Y0057067D01*
X0109760Y0060134D01*
X0106893Y0060134D01*
X0106488Y0060025D01*
X0106126Y0059816D01*
X0105830Y0059520D01*
X0105620Y0059157D01*
X0105512Y0058753D01*
X0105512Y0057067D01*
X0109760Y0057067D01*
X0109760Y0056476D01*
X0105512Y0056476D01*
X0105512Y0054842D01*
X0100338Y0062306D01*
X0100270Y0062487D01*
X0100050Y0062722D01*
X0099867Y0062986D01*
X0099704Y0063091D01*
X0099571Y0063233D01*
X0099278Y0063365D01*
X0099008Y0063539D01*
X0098817Y0063573D01*
X0085513Y0069586D01*
X0080985Y0074114D01*
X0079354Y0074114D01*
X0075695Y0070455D01*
X0075695Y0068824D01*
X0081024Y0063495D01*
X0082655Y0063495D01*
X0083857Y0064697D01*
X0096341Y0059055D01*
X0096200Y0057443D02*
X0096626Y0057443D01*
X0096138Y0056263D02*
X0095712Y0056263D01*
X0095649Y0055083D02*
X0095223Y0055083D01*
X0095160Y0053904D02*
X0094734Y0053904D01*
X0094672Y0052724D02*
X0094246Y0052724D01*
X0094183Y0051545D02*
X0093757Y0051545D01*
X0093202Y0051545D02*
X0091758Y0051545D01*
X0091172Y0050365D02*
X0102365Y0050365D01*
X0101547Y0051545D02*
X0097396Y0051545D01*
X0097885Y0052724D02*
X0100730Y0052724D01*
X0099912Y0053904D02*
X0098374Y0053904D01*
X0097321Y0053904D02*
X0096293Y0053904D01*
X0098862Y0055083D02*
X0099094Y0055083D01*
X0103709Y0057443D02*
X0105512Y0057443D01*
X0105512Y0058622D02*
X0102892Y0058622D01*
X0102074Y0059802D02*
X0106112Y0059802D01*
X0105512Y0056263D02*
X0104527Y0056263D01*
X0105345Y0055083D02*
X0105512Y0055083D01*
X0106980Y0052724D02*
X0140645Y0052724D01*
X0141040Y0051545D02*
X0107798Y0051545D01*
X0108615Y0050365D02*
X0141435Y0050365D01*
X0141830Y0049185D02*
X0109433Y0049185D01*
X0110251Y0048006D02*
X0142225Y0048006D01*
X0142620Y0046826D02*
X0133808Y0046826D01*
X0134268Y0046367D02*
X0133115Y0047520D01*
X0130584Y0047520D01*
X0129983Y0047743D01*
X0128418Y0047685D01*
X0128058Y0047520D01*
X0125578Y0047520D01*
X0124425Y0046367D01*
X0124425Y0041192D01*
X0125544Y0040074D01*
X0125638Y0037536D01*
X0126291Y0036112D01*
X0127438Y0035047D01*
X0128906Y0034501D01*
X0130472Y0034559D01*
X0131895Y0035212D01*
X0132961Y0036359D01*
X0133507Y0037828D01*
X0133414Y0040338D01*
X0134268Y0041192D01*
X0134268Y0046367D01*
X0134268Y0045646D02*
X0143372Y0045646D01*
X0143819Y0045133D02*
X0142791Y0046315D01*
X0140200Y0054054D01*
X0140251Y0054791D01*
X0139843Y0055777D01*
X0140467Y0057284D01*
X0142082Y0057953D01*
X0142189Y0058046D01*
X0142802Y0058251D01*
X0144883Y0059113D01*
X0145839Y0058717D01*
X0145858Y0058764D01*
X0146113Y0059096D01*
X0146446Y0059351D01*
X0147912Y0059959D01*
X0149199Y0056852D01*
X0149562Y0057003D01*
X0148276Y0060109D01*
X0148590Y0060240D01*
X0147485Y0060427D01*
X0134268Y0055780D01*
X0134268Y0054185D01*
X0133115Y0053031D01*
X0125578Y0053031D01*
X0124425Y0054185D01*
X0124425Y0059359D01*
X0125578Y0060512D01*
X0132240Y0060512D01*
X0146068Y0065374D01*
X0146190Y0065461D01*
X0146546Y0065542D01*
X0146890Y0065663D01*
X0147040Y0065655D01*
X0147186Y0065689D01*
X0147546Y0065628D01*
X0147910Y0065608D01*
X0148046Y0065543D01*
X0156829Y0064050D01*
X0156585Y0064191D01*
X0155393Y0065383D01*
X0158397Y0068387D01*
X0157979Y0068804D01*
X0154976Y0065801D01*
X0153784Y0066993D01*
X0153574Y0067355D01*
X0153466Y0067760D01*
X0153466Y0068179D01*
X0153574Y0068583D01*
X0153784Y0068946D01*
X0155811Y0070973D01*
X0157979Y0068804D01*
X0158397Y0069222D01*
X0156228Y0071391D01*
X0158256Y0073418D01*
X0158618Y0073627D01*
X0159023Y0073736D01*
X0159442Y0073736D01*
X0159846Y0073627D01*
X0160209Y0073418D01*
X0161401Y0072226D01*
X0158397Y0069222D01*
X0158815Y0068804D01*
X0160983Y0066636D01*
X0163010Y0068663D01*
X0163220Y0069026D01*
X0163328Y0069430D01*
X0163328Y0069849D01*
X0163220Y0070253D01*
X0163010Y0070616D01*
X0161818Y0071808D01*
X0158815Y0068804D01*
X0158397Y0068387D01*
X0160566Y0066218D01*
X0158539Y0064191D01*
X0158176Y0063982D01*
X0157810Y0063884D01*
X0165290Y0062613D01*
X0167604Y0064927D01*
X0169234Y0064927D01*
X0172893Y0061268D01*
X0172893Y0059637D01*
X0167564Y0054308D01*
X0165933Y0054308D01*
X0162338Y0057904D01*
X0151650Y0059720D01*
X0152305Y0058139D01*
X0149563Y0057003D01*
X0149713Y0056639D01*
X0151000Y0053533D01*
X0152466Y0054140D01*
X0152799Y0054395D01*
X0153054Y0054728D01*
X0153214Y0055115D01*
X0153268Y0055530D01*
X0153214Y0055945D01*
X0152456Y0057775D01*
X0149713Y0056639D01*
X0149349Y0056489D01*
X0150636Y0053382D01*
X0149170Y0052775D01*
X0148942Y0052745D01*
X0150258Y0048814D01*
X0150149Y0047252D01*
X0149450Y0045850D01*
X0148268Y0044822D01*
X0146783Y0044325D01*
X0145220Y0044434D01*
X0143819Y0045133D01*
X0145155Y0044467D02*
X0134268Y0044467D01*
X0134268Y0043287D02*
X0159699Y0043287D01*
X0157930Y0042108D02*
X0134268Y0042108D01*
X0134003Y0040928D02*
X0156161Y0040928D01*
X0154391Y0039748D02*
X0133435Y0039748D01*
X0133479Y0038569D02*
X0150742Y0038569D01*
X0153562Y0039196D02*
X0119647Y0031659D01*
X0085764Y0038247D01*
X0056590Y0057069D01*
X0036803Y0087221D01*
X0036049Y0091102D01*
X0036053Y0091341D01*
X0035952Y0091597D01*
X0030208Y0121142D01*
X0066154Y0121142D01*
X0066154Y0122321D02*
X0030437Y0122321D01*
X0030208Y0121142D02*
X0036803Y0155063D01*
X0056590Y0185214D01*
X0085764Y0204036D01*
X0119701Y0210635D01*
X0153592Y0204045D01*
X0182811Y0184252D01*
X0202604Y0155033D01*
X0209184Y0121195D01*
X0201650Y0087295D01*
X0189575Y0069470D01*
X0189570Y0069822D01*
X0188947Y0071259D01*
X0186534Y0073597D01*
X0186534Y0074909D01*
X0182875Y0078568D01*
X0181245Y0078568D01*
X0179463Y0076786D01*
X0178942Y0076560D01*
X0177852Y0075435D01*
X0177682Y0075005D01*
X0175916Y0073239D01*
X0175916Y0071608D01*
X0179574Y0067949D01*
X0181047Y0067949D01*
X0183469Y0065604D01*
X0184925Y0065027D01*
X0186491Y0065052D01*
X0186620Y0065108D01*
X0181835Y0058044D01*
X0153562Y0039196D01*
X0149216Y0045646D02*
X0163238Y0045646D01*
X0161469Y0044467D02*
X0147206Y0044467D01*
X0149936Y0046826D02*
X0165008Y0046826D01*
X0166777Y0048006D02*
X0150201Y0048006D01*
X0150133Y0049185D02*
X0168547Y0049185D01*
X0170316Y0050365D02*
X0149738Y0050365D01*
X0149344Y0051545D02*
X0172085Y0051545D01*
X0173855Y0052724D02*
X0148949Y0052724D01*
X0150420Y0053904D02*
X0150846Y0053904D01*
X0151895Y0053904D02*
X0175624Y0053904D01*
X0177394Y0055083D02*
X0168339Y0055083D01*
X0169519Y0056263D02*
X0179163Y0056263D01*
X0180933Y0057443D02*
X0170698Y0057443D01*
X0171878Y0058622D02*
X0182227Y0058622D01*
X0183026Y0059802D02*
X0172893Y0059802D01*
X0172893Y0060981D02*
X0183825Y0060981D01*
X0184624Y0062161D02*
X0172000Y0062161D01*
X0170820Y0063341D02*
X0185423Y0063341D01*
X0186222Y0064520D02*
X0169641Y0064520D01*
X0167197Y0064520D02*
X0158868Y0064520D01*
X0160047Y0065700D02*
X0183370Y0065700D01*
X0182152Y0066880D02*
X0161227Y0066880D01*
X0160740Y0066880D02*
X0159904Y0066880D01*
X0159560Y0068059D02*
X0158725Y0068059D01*
X0158069Y0068059D02*
X0157234Y0068059D01*
X0157545Y0069239D02*
X0158380Y0069239D01*
X0158414Y0069239D02*
X0159249Y0069239D01*
X0159593Y0070418D02*
X0160429Y0070418D01*
X0160773Y0071598D02*
X0161608Y0071598D01*
X0162029Y0071598D02*
X0175926Y0071598D01*
X0175916Y0072778D02*
X0160849Y0072778D01*
X0163125Y0070418D02*
X0177105Y0070418D01*
X0178285Y0069239D02*
X0163277Y0069239D01*
X0162407Y0068059D02*
X0179465Y0068059D01*
X0176634Y0073957D02*
X0145054Y0073957D01*
X0142715Y0072778D02*
X0157615Y0072778D01*
X0156436Y0071598D02*
X0140375Y0071598D01*
X0139738Y0071277D02*
X0147877Y0075380D01*
X0155206Y0080800D01*
X0155206Y0080800D01*
X0161513Y0087381D01*
X0166617Y0094933D01*
X0170371Y0103239D01*
X0172668Y0112060D01*
X0173441Y0121142D01*
X0209172Y0121142D01*
X0208965Y0122321D02*
X0173341Y0122321D01*
X0173441Y0121142D02*
X0172668Y0130224D01*
X0170371Y0139045D01*
X0166617Y0147351D01*
X0161513Y0154902D01*
X0155206Y0161483D01*
X0155206Y0161483D01*
X0147877Y0166903D01*
X0139738Y0171007D01*
X0131023Y0173676D01*
X0121982Y0174833D01*
X0112875Y0174447D01*
X0112875Y0174447D01*
X0103964Y0172526D01*
X0095507Y0169128D01*
X0095507Y0169128D01*
X0087745Y0164349D01*
X0080903Y0158327D01*
X0080903Y0158327D01*
X0075177Y0151235D01*
X0075177Y0151235D01*
X0070731Y0143277D01*
X0067695Y0134683D01*
X0066154Y0125699D01*
X0066154Y0116584D01*
X0067695Y0107600D01*
X0070731Y0099006D01*
X0075177Y0091049D01*
X0075177Y0091049D01*
X0080903Y0083957D01*
X0087745Y0077935D01*
X0087745Y0077935D01*
X0095507Y0073156D01*
X0103964Y0069757D01*
X0103964Y0069757D01*
X0112875Y0067837D01*
X0121982Y0067450D01*
X0131023Y0068608D01*
X0139738Y0071277D01*
X0139738Y0071277D01*
X0136935Y0070418D02*
X0155256Y0070418D01*
X0156365Y0070418D02*
X0157201Y0070418D01*
X0154077Y0069239D02*
X0133083Y0069239D01*
X0131023Y0068608D02*
X0131023Y0068608D01*
X0126738Y0068059D02*
X0153466Y0068059D01*
X0153897Y0066880D02*
X0091501Y0066880D01*
X0094111Y0065700D02*
X0155710Y0065700D01*
X0156055Y0066880D02*
X0156890Y0066880D01*
X0156256Y0064520D02*
X0154063Y0064520D01*
X0152105Y0058622D02*
X0158109Y0058622D01*
X0162799Y0057443D02*
X0152593Y0057443D01*
X0151652Y0057443D02*
X0150624Y0057443D01*
X0149380Y0057443D02*
X0148954Y0057443D01*
X0148892Y0058622D02*
X0148466Y0058622D01*
X0148403Y0059802D02*
X0147977Y0059802D01*
X0147534Y0059802D02*
X0145706Y0059802D01*
X0143698Y0058622D02*
X0142352Y0058622D01*
X0140850Y0057443D02*
X0138997Y0057443D01*
X0140044Y0056263D02*
X0135643Y0056263D01*
X0134268Y0055083D02*
X0140130Y0055083D01*
X0140250Y0053904D02*
X0133987Y0053904D01*
X0133575Y0060981D02*
X0101256Y0060981D01*
X0100439Y0062161D02*
X0136930Y0062161D01*
X0140284Y0063341D02*
X0099331Y0063341D01*
X0096721Y0064520D02*
X0143639Y0064520D01*
X0149443Y0056263D02*
X0149869Y0056263D01*
X0149931Y0055083D02*
X0150358Y0055083D01*
X0153201Y0055083D02*
X0165158Y0055083D01*
X0163979Y0056263D02*
X0153082Y0056263D01*
X0161005Y0063341D02*
X0166018Y0063341D01*
X0177734Y0075137D02*
X0147394Y0075137D01*
X0149143Y0076316D02*
X0178706Y0076316D01*
X0180173Y0077496D02*
X0172378Y0077496D01*
X0172018Y0077136D02*
X0177347Y0082465D01*
X0177347Y0084096D01*
X0176079Y0085365D01*
X0181790Y0098732D01*
X0194335Y0106716D01*
X0194476Y0106575D01*
X0199650Y0106575D01*
X0200803Y0107728D01*
X0200803Y0115264D01*
X0199650Y0116417D01*
X0194476Y0116417D01*
X0193323Y0115264D01*
X0193323Y0112160D01*
X0187433Y0108412D01*
X0187433Y0111201D01*
X0184366Y0111201D01*
X0184366Y0106953D01*
X0185139Y0106953D01*
X0178562Y0102767D01*
X0178309Y0102666D01*
X0178135Y0102496D01*
X0177930Y0102365D01*
X0177774Y0102142D01*
X0177579Y0101951D01*
X0177483Y0101728D01*
X0177344Y0101528D01*
X0177285Y0101262D01*
X0171107Y0086804D01*
X0166729Y0082426D01*
X0166729Y0080795D01*
X0170388Y0077136D01*
X0172018Y0077136D01*
X0170028Y0077496D02*
X0150738Y0077496D01*
X0152333Y0078676D02*
X0168848Y0078676D01*
X0167669Y0079855D02*
X0153928Y0079855D01*
X0155430Y0081035D02*
X0166729Y0081035D01*
X0166729Y0082214D02*
X0156561Y0082214D01*
X0157691Y0083394D02*
X0167697Y0083394D01*
X0168877Y0084574D02*
X0158822Y0084574D01*
X0159952Y0085753D02*
X0170057Y0085753D01*
X0171162Y0086933D02*
X0161083Y0086933D01*
X0162007Y0088113D02*
X0171666Y0088113D01*
X0172170Y0089292D02*
X0162804Y0089292D01*
X0163601Y0090472D02*
X0172674Y0090472D01*
X0173178Y0091651D02*
X0164399Y0091651D01*
X0165196Y0092831D02*
X0173682Y0092831D01*
X0174186Y0094011D02*
X0165993Y0094011D01*
X0166733Y0095190D02*
X0174690Y0095190D01*
X0175194Y0096370D02*
X0167266Y0096370D01*
X0167799Y0097549D02*
X0175698Y0097549D01*
X0176202Y0098729D02*
X0168333Y0098729D01*
X0168866Y0099909D02*
X0176706Y0099909D01*
X0177210Y0101088D02*
X0169399Y0101088D01*
X0169932Y0102268D02*
X0177862Y0102268D01*
X0179631Y0103448D02*
X0170426Y0103448D01*
X0170733Y0104627D02*
X0181485Y0104627D01*
X0183339Y0105807D02*
X0171040Y0105807D01*
X0171347Y0106986D02*
X0181964Y0106986D01*
X0182090Y0106953D02*
X0183776Y0106953D01*
X0183776Y0111201D01*
X0184366Y0111201D01*
X0184366Y0111791D01*
X0187433Y0111791D01*
X0187433Y0114658D01*
X0187325Y0115063D01*
X0187115Y0115425D01*
X0186819Y0115722D01*
X0186456Y0115931D01*
X0186052Y0116039D01*
X0184366Y0116039D01*
X0184366Y0111791D01*
X0183776Y0111791D01*
X0183776Y0111201D01*
X0180709Y0111201D01*
X0180709Y0108334D01*
X0180817Y0107929D01*
X0181026Y0107567D01*
X0181323Y0107271D01*
X0181685Y0107061D01*
X0182090Y0106953D01*
X0183776Y0106986D02*
X0184366Y0106986D01*
X0184366Y0108166D02*
X0183776Y0108166D01*
X0183776Y0109346D02*
X0184366Y0109346D01*
X0184366Y0110525D02*
X0183776Y0110525D01*
X0183776Y0111705D02*
X0172576Y0111705D01*
X0172668Y0112060D02*
X0172668Y0112060D01*
X0172738Y0112884D02*
X0180709Y0112884D01*
X0180709Y0111791D02*
X0183776Y0111791D01*
X0183776Y0116039D01*
X0182090Y0116039D01*
X0181685Y0115931D01*
X0181323Y0115722D01*
X0181026Y0115425D01*
X0180817Y0115063D01*
X0180709Y0114658D01*
X0180709Y0111791D01*
X0180709Y0110525D02*
X0172268Y0110525D01*
X0171961Y0109346D02*
X0180709Y0109346D01*
X0180754Y0108166D02*
X0171654Y0108166D01*
X0172839Y0114064D02*
X0180709Y0114064D01*
X0180922Y0115244D02*
X0172939Y0115244D01*
X0173039Y0116423D02*
X0208123Y0116423D01*
X0207861Y0115244D02*
X0200803Y0115244D01*
X0200803Y0114064D02*
X0207599Y0114064D01*
X0207337Y0112884D02*
X0200803Y0112884D01*
X0200803Y0111705D02*
X0207075Y0111705D01*
X0206812Y0110525D02*
X0200803Y0110525D01*
X0200803Y0109346D02*
X0206550Y0109346D01*
X0206288Y0108166D02*
X0200803Y0108166D01*
X0200062Y0106986D02*
X0206026Y0106986D01*
X0205764Y0105807D02*
X0192907Y0105807D01*
X0191053Y0104627D02*
X0205502Y0104627D01*
X0205240Y0103448D02*
X0189199Y0103448D01*
X0187346Y0102268D02*
X0204978Y0102268D01*
X0204715Y0101088D02*
X0185492Y0101088D01*
X0185480Y0100419D02*
X0185065Y0100473D01*
X0184650Y0100419D01*
X0184263Y0100258D01*
X0183931Y0100003D01*
X0183676Y0099671D01*
X0183068Y0098205D01*
X0186175Y0096918D01*
X0187311Y0099660D01*
X0185480Y0100419D01*
X0186711Y0099909D02*
X0204453Y0099909D01*
X0204191Y0098729D02*
X0189534Y0098729D01*
X0189505Y0098752D02*
X0189837Y0098497D01*
X0190092Y0098164D01*
X0190252Y0097778D01*
X0190307Y0097362D01*
X0190252Y0096947D01*
X0189645Y0095481D01*
X0186539Y0096767D01*
X0186388Y0096403D01*
X0189494Y0095117D01*
X0188950Y0093804D01*
X0193638Y0092090D01*
X0194792Y0091030D01*
X0195452Y0089610D01*
X0195518Y0088045D01*
X0194980Y0086574D01*
X0193920Y0085421D01*
X0192500Y0084761D01*
X0190935Y0084695D01*
X0182009Y0087958D01*
X0181102Y0088792D01*
X0180169Y0089178D01*
X0179545Y0090685D01*
X0180428Y0092816D01*
X0180668Y0093474D01*
X0180726Y0093537D01*
X0181374Y0095101D01*
X0182330Y0095497D01*
X0182310Y0095544D01*
X0182256Y0095959D01*
X0182310Y0096374D01*
X0182918Y0097841D01*
X0186024Y0096554D01*
X0186175Y0096918D01*
X0186538Y0096767D01*
X0187674Y0099510D01*
X0189505Y0098752D01*
X0190282Y0097549D02*
X0203929Y0097549D01*
X0203667Y0096370D02*
X0190013Y0096370D01*
X0189317Y0095190D02*
X0203405Y0095190D01*
X0203143Y0094011D02*
X0189036Y0094011D01*
X0187498Y0096370D02*
X0186469Y0096370D01*
X0186436Y0097549D02*
X0186862Y0097549D01*
X0186925Y0098729D02*
X0187351Y0098729D01*
X0184650Y0097549D02*
X0183621Y0097549D01*
X0182797Y0097549D02*
X0181284Y0097549D01*
X0180780Y0096370D02*
X0182310Y0096370D01*
X0181588Y0095190D02*
X0180276Y0095190D01*
X0179772Y0094011D02*
X0180922Y0094011D01*
X0180433Y0092831D02*
X0179268Y0092831D01*
X0178764Y0091651D02*
X0179945Y0091651D01*
X0179633Y0090472D02*
X0178260Y0090472D01*
X0177756Y0089292D02*
X0180122Y0089292D01*
X0181841Y0088113D02*
X0177252Y0088113D01*
X0176749Y0086933D02*
X0184813Y0086933D01*
X0188040Y0085753D02*
X0176245Y0085753D01*
X0176870Y0084574D02*
X0199807Y0084574D01*
X0200606Y0085753D02*
X0194226Y0085753D01*
X0195111Y0086933D02*
X0201405Y0086933D01*
X0201832Y0088113D02*
X0195515Y0088113D01*
X0195465Y0089292D02*
X0202094Y0089292D01*
X0202356Y0090472D02*
X0195051Y0090472D01*
X0194116Y0091651D02*
X0202618Y0091651D01*
X0202880Y0092831D02*
X0191612Y0092831D01*
X0183286Y0098729D02*
X0181788Y0098729D01*
X0183638Y0099909D02*
X0183858Y0099909D01*
X0187433Y0109346D02*
X0188900Y0109346D01*
X0187433Y0110525D02*
X0190753Y0110525D01*
X0192607Y0111705D02*
X0184366Y0111705D01*
X0184366Y0112884D02*
X0183776Y0112884D01*
X0183776Y0114064D02*
X0184366Y0114064D01*
X0184366Y0115244D02*
X0183776Y0115244D01*
X0187220Y0115244D02*
X0193323Y0115244D01*
X0193323Y0114064D02*
X0187433Y0114064D01*
X0187433Y0112884D02*
X0193323Y0112884D01*
X0194476Y0125866D02*
X0193323Y0127019D01*
X0193323Y0129491D01*
X0193166Y0129826D01*
X0193094Y0131391D01*
X0193323Y0132022D01*
X0193323Y0134556D01*
X0194476Y0135709D01*
X0199650Y0135709D01*
X0200475Y0134884D01*
X0201997Y0134953D01*
X0203470Y0134420D01*
X0204627Y0133364D01*
X0205291Y0131945D01*
X0205362Y0130381D01*
X0204829Y0128908D01*
X0203773Y0127751D01*
X0202355Y0127087D01*
X0200800Y0127016D01*
X0199650Y0125866D01*
X0194476Y0125866D01*
X0193323Y0127040D02*
X0187811Y0127040D01*
X0187811Y0127019D02*
X0187811Y0134556D01*
X0186658Y0135709D01*
X0185003Y0135709D01*
X0179467Y0150822D01*
X0182584Y0163716D01*
X0182875Y0163716D01*
X0186534Y0167374D01*
X0186534Y0169005D01*
X0181205Y0174334D01*
X0179574Y0174334D01*
X0175916Y0170675D01*
X0175916Y0169045D01*
X0178067Y0166893D01*
X0176446Y0160185D01*
X0174624Y0162007D01*
X0172456Y0159838D01*
X0175460Y0156834D01*
X0175691Y0157066D01*
X0174350Y0151520D01*
X0174242Y0151286D01*
X0174232Y0151028D01*
X0174171Y0150776D01*
X0174211Y0150522D01*
X0174200Y0150265D01*
X0174289Y0150022D01*
X0174329Y0149767D01*
X0174463Y0149547D01*
X0180331Y0133530D01*
X0180331Y0127019D01*
X0181484Y0125866D01*
X0186658Y0125866D01*
X0187811Y0127019D01*
X0187811Y0128219D02*
X0193323Y0128219D01*
X0193323Y0129399D02*
X0187811Y0129399D01*
X0187811Y0130579D02*
X0193131Y0130579D01*
X0193227Y0131758D02*
X0187811Y0131758D01*
X0187811Y0132938D02*
X0193323Y0132938D01*
X0193323Y0134117D02*
X0187811Y0134117D01*
X0187069Y0135297D02*
X0194064Y0135297D01*
X0200062Y0135297D02*
X0206442Y0135297D01*
X0206671Y0134117D02*
X0203801Y0134117D01*
X0204826Y0132938D02*
X0206900Y0132938D01*
X0207130Y0131758D02*
X0205300Y0131758D01*
X0205353Y0130579D02*
X0207359Y0130579D01*
X0207588Y0129399D02*
X0205007Y0129399D01*
X0204200Y0128219D02*
X0207818Y0128219D01*
X0208047Y0127040D02*
X0201319Y0127040D01*
X0208277Y0125860D02*
X0173039Y0125860D01*
X0173140Y0124681D02*
X0208506Y0124681D01*
X0208735Y0123501D02*
X0173240Y0123501D01*
X0173441Y0121142D02*
X0173441Y0121142D01*
X0173341Y0119962D02*
X0208910Y0119962D01*
X0208647Y0118783D02*
X0173240Y0118783D01*
X0173140Y0117603D02*
X0208385Y0117603D01*
X0206212Y0136477D02*
X0184722Y0136477D01*
X0184290Y0137656D02*
X0205983Y0137656D01*
X0205753Y0138836D02*
X0183858Y0138836D01*
X0183426Y0140016D02*
X0205524Y0140016D01*
X0205295Y0141195D02*
X0182994Y0141195D01*
X0183559Y0141908D02*
X0185065Y0141284D01*
X0186051Y0141692D01*
X0186789Y0141641D01*
X0194528Y0144232D01*
X0195710Y0145260D01*
X0196408Y0146661D01*
X0196517Y0148224D01*
X0196020Y0149709D01*
X0194992Y0150891D01*
X0193591Y0151589D01*
X0192028Y0151698D01*
X0188098Y0150383D01*
X0188068Y0150611D01*
X0187460Y0152077D01*
X0184354Y0150790D01*
X0184203Y0151154D01*
X0183839Y0151003D01*
X0183990Y0150640D01*
X0180884Y0149353D01*
X0181491Y0147887D01*
X0181746Y0147554D01*
X0182079Y0147299D01*
X0182125Y0147280D01*
X0181729Y0146324D01*
X0182591Y0144243D01*
X0182797Y0143630D01*
X0182889Y0143523D01*
X0183559Y0141908D01*
X0183365Y0142375D02*
X0182561Y0142375D01*
X0182863Y0143554D02*
X0182129Y0143554D01*
X0182388Y0144734D02*
X0181697Y0144734D01*
X0181899Y0145914D02*
X0181265Y0145914D01*
X0180833Y0147093D02*
X0182048Y0147093D01*
X0181331Y0148273D02*
X0180401Y0148273D01*
X0179969Y0149452D02*
X0181124Y0149452D01*
X0180733Y0149717D02*
X0183839Y0151003D01*
X0182703Y0153746D01*
X0180873Y0152988D01*
X0180541Y0152733D01*
X0180286Y0152401D01*
X0180126Y0152014D01*
X0180071Y0151599D01*
X0180126Y0151183D01*
X0180733Y0149717D01*
X0180354Y0150632D02*
X0179536Y0150632D01*
X0179706Y0151812D02*
X0180099Y0151812D01*
X0179991Y0152991D02*
X0180882Y0152991D01*
X0180276Y0154171D02*
X0183729Y0154171D01*
X0183067Y0153897D02*
X0184203Y0151154D01*
X0187309Y0152441D01*
X0186702Y0153907D01*
X0186447Y0154240D01*
X0186115Y0154494D01*
X0185728Y0154655D01*
X0185313Y0154709D01*
X0184897Y0154655D01*
X0183067Y0153897D01*
X0183016Y0152991D02*
X0183442Y0152991D01*
X0183505Y0151812D02*
X0183931Y0151812D01*
X0183972Y0150632D02*
X0182943Y0150632D01*
X0185791Y0151812D02*
X0186820Y0151812D01*
X0187570Y0151812D02*
X0203230Y0151812D01*
X0203001Y0152991D02*
X0187081Y0152991D01*
X0186500Y0154171D02*
X0202772Y0154171D01*
X0202389Y0155351D02*
X0180562Y0155351D01*
X0180847Y0156530D02*
X0201590Y0156530D01*
X0200791Y0157710D02*
X0181132Y0157710D01*
X0181417Y0158889D02*
X0199992Y0158889D01*
X0199193Y0160069D02*
X0181702Y0160069D01*
X0181987Y0161249D02*
X0198394Y0161249D01*
X0197594Y0162428D02*
X0182273Y0162428D01*
X0182558Y0163608D02*
X0196795Y0163608D01*
X0195996Y0164787D02*
X0183947Y0164787D01*
X0185127Y0165967D02*
X0195197Y0165967D01*
X0194398Y0167147D02*
X0186306Y0167147D01*
X0186534Y0168326D02*
X0193599Y0168326D01*
X0192800Y0169506D02*
X0186033Y0169506D01*
X0184854Y0170686D02*
X0192001Y0170686D01*
X0191202Y0171865D02*
X0183674Y0171865D01*
X0182494Y0173045D02*
X0190403Y0173045D01*
X0189604Y0174224D02*
X0181315Y0174224D01*
X0179465Y0174224D02*
X0162941Y0174224D01*
X0163706Y0173459D02*
X0158377Y0178788D01*
X0156747Y0178788D01*
X0155478Y0177519D01*
X0142110Y0183231D01*
X0134127Y0195776D01*
X0134268Y0195917D01*
X0134268Y0201091D01*
X0133115Y0202244D01*
X0125578Y0202244D01*
X0124425Y0201091D01*
X0124425Y0195917D01*
X0125578Y0194764D01*
X0128682Y0194764D01*
X0132430Y0188874D01*
X0129642Y0188874D01*
X0129642Y0185807D01*
X0133890Y0185807D01*
X0133890Y0186580D01*
X0138075Y0180003D01*
X0138177Y0179750D01*
X0138347Y0179576D01*
X0138477Y0179371D01*
X0138701Y0179215D01*
X0138891Y0179020D01*
X0139115Y0178924D01*
X0139314Y0178785D01*
X0139580Y0178725D01*
X0154039Y0172548D01*
X0158417Y0168170D01*
X0160048Y0168170D01*
X0163706Y0171829D01*
X0163706Y0173459D01*
X0163706Y0173045D02*
X0178285Y0173045D01*
X0177106Y0171865D02*
X0163706Y0171865D01*
X0162563Y0170686D02*
X0175926Y0170686D01*
X0175916Y0169506D02*
X0161384Y0169506D01*
X0160204Y0168326D02*
X0176634Y0168326D01*
X0177814Y0167147D02*
X0147394Y0167147D01*
X0147877Y0166903D02*
X0147877Y0166903D01*
X0149143Y0165967D02*
X0177843Y0165967D01*
X0177558Y0164787D02*
X0150738Y0164787D01*
X0152333Y0163608D02*
X0169383Y0163608D01*
X0169034Y0163259D02*
X0172038Y0160256D01*
X0171620Y0159838D01*
X0168617Y0162842D01*
X0167425Y0161650D01*
X0167215Y0161287D01*
X0167107Y0160883D01*
X0167107Y0160464D01*
X0167215Y0160059D01*
X0167425Y0159697D01*
X0169452Y0157669D01*
X0171620Y0159838D01*
X0172038Y0159420D01*
X0169869Y0157252D01*
X0171897Y0155225D01*
X0172259Y0155015D01*
X0172664Y0154907D01*
X0173083Y0154907D01*
X0173487Y0155015D01*
X0173850Y0155225D01*
X0175042Y0156417D01*
X0172038Y0159420D01*
X0172456Y0159838D01*
X0172038Y0160256D01*
X0174207Y0162424D01*
X0172180Y0164451D01*
X0171817Y0164661D01*
X0171412Y0164769D01*
X0170994Y0164769D01*
X0170589Y0164661D01*
X0170226Y0164451D01*
X0169034Y0163259D01*
X0169030Y0162428D02*
X0169866Y0162428D01*
X0170210Y0161249D02*
X0171045Y0161249D01*
X0171390Y0160069D02*
X0171851Y0160069D01*
X0172225Y0160069D02*
X0172687Y0160069D01*
X0172569Y0158889D02*
X0173404Y0158889D01*
X0173749Y0157710D02*
X0174584Y0157710D01*
X0174928Y0156530D02*
X0175562Y0156530D01*
X0175277Y0155351D02*
X0173976Y0155351D01*
X0174991Y0154171D02*
X0162007Y0154171D01*
X0161513Y0154902D02*
X0161513Y0154902D01*
X0161083Y0155351D02*
X0171771Y0155351D01*
X0170591Y0156530D02*
X0159952Y0156530D01*
X0158822Y0157710D02*
X0169412Y0157710D01*
X0169492Y0157710D02*
X0170327Y0157710D01*
X0170672Y0158889D02*
X0171507Y0158889D01*
X0173031Y0161249D02*
X0173866Y0161249D01*
X0174203Y0162428D02*
X0176988Y0162428D01*
X0176703Y0161249D02*
X0175382Y0161249D01*
X0177273Y0163608D02*
X0173023Y0163608D01*
X0168203Y0162428D02*
X0153927Y0162428D01*
X0155430Y0161249D02*
X0167205Y0161249D01*
X0167213Y0160069D02*
X0156561Y0160069D01*
X0157691Y0158889D02*
X0168232Y0158889D01*
X0162804Y0152991D02*
X0174706Y0152991D01*
X0174421Y0151812D02*
X0163601Y0151812D01*
X0164399Y0150632D02*
X0174193Y0150632D01*
X0174498Y0149452D02*
X0165196Y0149452D01*
X0165993Y0148273D02*
X0174930Y0148273D01*
X0175362Y0147093D02*
X0166733Y0147093D01*
X0166617Y0147351D02*
X0166617Y0147351D01*
X0167266Y0145914D02*
X0175794Y0145914D01*
X0176226Y0144734D02*
X0167799Y0144734D01*
X0168333Y0143554D02*
X0176658Y0143554D01*
X0177091Y0142375D02*
X0168866Y0142375D01*
X0169399Y0141195D02*
X0177523Y0141195D01*
X0177955Y0140016D02*
X0169932Y0140016D01*
X0170371Y0139045D02*
X0170371Y0139045D01*
X0170426Y0138836D02*
X0178387Y0138836D01*
X0178819Y0137656D02*
X0170733Y0137656D01*
X0171040Y0136477D02*
X0179251Y0136477D01*
X0179683Y0135297D02*
X0171347Y0135297D01*
X0171654Y0134117D02*
X0180116Y0134117D01*
X0180331Y0132938D02*
X0171961Y0132938D01*
X0172268Y0131758D02*
X0180331Y0131758D01*
X0180331Y0130579D02*
X0172576Y0130579D01*
X0172668Y0130224D02*
X0172668Y0130224D01*
X0172738Y0129399D02*
X0180331Y0129399D01*
X0180331Y0128219D02*
X0172839Y0128219D01*
X0172939Y0127040D02*
X0180331Y0127040D01*
X0188981Y0142375D02*
X0205065Y0142375D01*
X0204836Y0143554D02*
X0192504Y0143554D01*
X0195105Y0144734D02*
X0204607Y0144734D01*
X0204377Y0145914D02*
X0196036Y0145914D01*
X0196439Y0147093D02*
X0204148Y0147093D01*
X0203918Y0148273D02*
X0196501Y0148273D01*
X0196106Y0149452D02*
X0203689Y0149452D01*
X0203460Y0150632D02*
X0195217Y0150632D01*
X0188843Y0150632D02*
X0188059Y0150632D01*
X0188804Y0175404D02*
X0161762Y0175404D01*
X0160582Y0176584D02*
X0188005Y0176584D01*
X0187206Y0177763D02*
X0169641Y0177763D01*
X0169234Y0177357D02*
X0172893Y0181015D01*
X0172893Y0182512D01*
X0174265Y0183941D01*
X0174834Y0185400D01*
X0174802Y0186966D01*
X0174173Y0188401D01*
X0173043Y0189485D01*
X0171584Y0190055D01*
X0170018Y0190022D01*
X0168584Y0189393D01*
X0167222Y0187975D01*
X0165933Y0187975D01*
X0162275Y0184316D01*
X0162275Y0182686D01*
X0164059Y0180902D01*
X0164293Y0180368D01*
X0165423Y0179283D01*
X0165840Y0179120D01*
X0167604Y0177357D01*
X0169234Y0177357D01*
X0167197Y0177763D02*
X0159402Y0177763D01*
X0155722Y0177763D02*
X0154907Y0177763D01*
X0152146Y0178943D02*
X0166018Y0178943D01*
X0164548Y0180122D02*
X0149385Y0180122D01*
X0150158Y0180986D02*
X0151664Y0181610D01*
X0152073Y0182596D01*
X0152634Y0183085D01*
X0156055Y0189973D01*
X0156162Y0191536D01*
X0155663Y0193021D01*
X0154634Y0194201D01*
X0153231Y0194898D01*
X0151669Y0195005D01*
X0150184Y0194506D01*
X0149004Y0193476D01*
X0147371Y0190190D01*
X0147192Y0190328D01*
X0145726Y0190935D01*
X0144439Y0187829D01*
X0144075Y0187979D01*
X0143925Y0187616D01*
X0141182Y0188752D01*
X0140424Y0186921D01*
X0140369Y0186506D01*
X0140424Y0186091D01*
X0140584Y0185704D01*
X0140839Y0185372D01*
X0141171Y0185117D01*
X0142638Y0184509D01*
X0143925Y0187616D01*
X0144288Y0187465D01*
X0143002Y0184359D01*
X0144468Y0183751D01*
X0144883Y0183697D01*
X0145299Y0183751D01*
X0145345Y0183771D01*
X0145741Y0182815D01*
X0147825Y0181952D01*
X0148406Y0181663D01*
X0148544Y0181654D01*
X0150158Y0180986D01*
X0150921Y0181302D02*
X0163658Y0181302D01*
X0162479Y0182482D02*
X0152025Y0182482D01*
X0152920Y0183661D02*
X0162275Y0183661D01*
X0162799Y0184841D02*
X0153506Y0184841D01*
X0154092Y0186020D02*
X0163979Y0186020D01*
X0165158Y0187200D02*
X0154678Y0187200D01*
X0155264Y0188380D02*
X0167611Y0188380D01*
X0168962Y0189559D02*
X0155850Y0189559D01*
X0156108Y0190739D02*
X0173234Y0190739D01*
X0172853Y0189559D02*
X0174976Y0189559D01*
X0174182Y0188380D02*
X0176717Y0188380D01*
X0178458Y0187200D02*
X0174699Y0187200D01*
X0174821Y0186020D02*
X0180200Y0186020D01*
X0181941Y0184841D02*
X0174616Y0184841D01*
X0173996Y0183661D02*
X0183211Y0183661D01*
X0184010Y0182482D02*
X0172893Y0182482D01*
X0172893Y0181302D02*
X0184809Y0181302D01*
X0185608Y0180122D02*
X0172000Y0180122D01*
X0170821Y0178943D02*
X0186407Y0178943D01*
X0171493Y0191919D02*
X0156034Y0191919D01*
X0155596Y0193098D02*
X0169752Y0193098D01*
X0168010Y0194278D02*
X0154480Y0194278D01*
X0149923Y0194278D02*
X0135080Y0194278D01*
X0134330Y0195457D02*
X0166269Y0195457D01*
X0164528Y0196637D02*
X0134268Y0196637D01*
X0134268Y0197817D02*
X0162786Y0197817D01*
X0161045Y0198996D02*
X0134268Y0198996D01*
X0134268Y0200176D02*
X0159304Y0200176D01*
X0157562Y0201355D02*
X0134003Y0201355D01*
X0137091Y0207254D02*
X0111918Y0207254D01*
X0111963Y0207237D02*
X0110495Y0207782D01*
X0108930Y0207724D01*
X0107506Y0207072D01*
X0106440Y0205924D01*
X0105895Y0204456D01*
X0105988Y0201945D01*
X0105134Y0201091D01*
X0105134Y0195917D01*
X0106287Y0194764D01*
X0108818Y0194764D01*
X0109418Y0194541D01*
X0110983Y0194599D01*
X0111344Y0194764D01*
X0113823Y0194764D01*
X0114976Y0195917D01*
X0114976Y0201091D01*
X0113858Y0202210D01*
X0113764Y0204747D01*
X0113111Y0206171D01*
X0111963Y0207237D01*
X0113156Y0206074D02*
X0143157Y0206074D01*
X0149224Y0204894D02*
X0113696Y0204894D01*
X0113802Y0203715D02*
X0154080Y0203715D01*
X0155821Y0202535D02*
X0113846Y0202535D01*
X0114712Y0201355D02*
X0124690Y0201355D01*
X0124425Y0200176D02*
X0114976Y0200176D01*
X0114976Y0198996D02*
X0124425Y0198996D01*
X0124425Y0197817D02*
X0114976Y0197817D01*
X0114976Y0196637D02*
X0124425Y0196637D01*
X0124885Y0195457D02*
X0114517Y0195457D01*
X0113823Y0189252D02*
X0106287Y0189252D01*
X0105134Y0188099D01*
X0105134Y0182925D01*
X0106287Y0181772D01*
X0107487Y0181772D01*
X0107487Y0179489D01*
X0107878Y0178545D01*
X0108274Y0178149D01*
X0108274Y0177522D01*
X0108815Y0176216D01*
X0109814Y0175216D01*
X0111120Y0174676D01*
X0112533Y0174676D01*
X0113839Y0175216D01*
X0114839Y0176216D01*
X0115380Y0177522D01*
X0115380Y0178935D01*
X0114839Y0180241D01*
X0113839Y0181240D01*
X0112624Y0181744D01*
X0112624Y0181772D01*
X0113823Y0181772D01*
X0114976Y0182925D01*
X0114976Y0188099D01*
X0113823Y0189252D01*
X0114695Y0188380D02*
X0125241Y0188380D01*
X0125121Y0188260D02*
X0124912Y0187897D01*
X0124803Y0187493D01*
X0124803Y0185807D01*
X0129051Y0185807D01*
X0129051Y0185217D01*
X0124803Y0185217D01*
X0124803Y0183531D01*
X0124912Y0183126D01*
X0125121Y0182764D01*
X0125417Y0182467D01*
X0125780Y0182258D01*
X0126184Y0182150D01*
X0129051Y0182150D01*
X0129051Y0185216D01*
X0129642Y0185216D01*
X0129642Y0182150D01*
X0132509Y0182150D01*
X0132913Y0182258D01*
X0133276Y0182467D01*
X0133572Y0182764D01*
X0133781Y0183126D01*
X0133890Y0183531D01*
X0133890Y0185217D01*
X0129642Y0185217D01*
X0129642Y0185807D01*
X0129051Y0185807D01*
X0129051Y0188874D01*
X0126184Y0188874D01*
X0125780Y0188766D01*
X0125417Y0188556D01*
X0125121Y0188260D01*
X0124803Y0187200D02*
X0114976Y0187200D01*
X0114976Y0186020D02*
X0124803Y0186020D01*
X0124803Y0184841D02*
X0114976Y0184841D01*
X0114976Y0183661D02*
X0124803Y0183661D01*
X0125403Y0182482D02*
X0114533Y0182482D01*
X0113690Y0181302D02*
X0137249Y0181302D01*
X0137999Y0180122D02*
X0114888Y0180122D01*
X0115376Y0178943D02*
X0139072Y0178943D01*
X0141832Y0177763D02*
X0115380Y0177763D01*
X0114991Y0176584D02*
X0144593Y0176584D01*
X0147354Y0175404D02*
X0114027Y0175404D01*
X0111844Y0174224D02*
X0085936Y0174224D01*
X0085936Y0174105D02*
X0085936Y0174524D01*
X0085827Y0174928D01*
X0085618Y0175291D01*
X0084426Y0176483D01*
X0081422Y0173479D01*
X0083591Y0171310D01*
X0085618Y0173338D01*
X0085827Y0173700D01*
X0085936Y0174105D01*
X0085325Y0173045D02*
X0106370Y0173045D01*
X0103964Y0172526D02*
X0103964Y0172526D01*
X0102319Y0171865D02*
X0084145Y0171865D01*
X0083036Y0171865D02*
X0082201Y0171865D01*
X0081856Y0173045D02*
X0081021Y0173045D01*
X0081005Y0173061D02*
X0081422Y0173479D01*
X0081005Y0173897D01*
X0084008Y0176900D01*
X0082816Y0178092D01*
X0082454Y0178302D01*
X0082049Y0178410D01*
X0081630Y0178410D01*
X0081226Y0178302D01*
X0080863Y0178092D01*
X0078836Y0176065D01*
X0081004Y0173897D01*
X0080587Y0173479D01*
X0081004Y0173061D01*
X0078001Y0170058D01*
X0079193Y0168866D01*
X0079555Y0168656D01*
X0079960Y0168548D01*
X0080379Y0168548D01*
X0080783Y0168656D01*
X0081146Y0168866D01*
X0083173Y0170893D01*
X0081005Y0173061D01*
X0080988Y0173045D02*
X0080153Y0173045D01*
X0080587Y0173479D02*
X0077583Y0170475D01*
X0076391Y0171667D01*
X0076182Y0172030D01*
X0076073Y0172434D01*
X0076073Y0172853D01*
X0076182Y0173258D01*
X0076391Y0173621D01*
X0078418Y0175648D01*
X0080587Y0173479D01*
X0080677Y0174224D02*
X0079842Y0174224D01*
X0079497Y0175404D02*
X0078662Y0175404D01*
X0078174Y0175404D02*
X0057216Y0175404D01*
X0056901Y0175706D02*
X0055442Y0176275D01*
X0053876Y0176243D01*
X0052442Y0175614D01*
X0051357Y0174484D01*
X0050788Y0173025D01*
X0050820Y0171459D01*
X0051449Y0170025D01*
X0052867Y0168663D01*
X0052867Y0167374D01*
X0056526Y0163716D01*
X0058157Y0163716D01*
X0059941Y0165499D01*
X0060475Y0165734D01*
X0061559Y0166864D01*
X0061722Y0167281D01*
X0063486Y0169045D01*
X0063486Y0170675D01*
X0059827Y0174334D01*
X0058330Y0174334D01*
X0056901Y0175706D01*
X0059937Y0174224D02*
X0076995Y0174224D01*
X0076125Y0173045D02*
X0061116Y0173045D01*
X0062296Y0171865D02*
X0076277Y0171865D01*
X0077373Y0170686D02*
X0063476Y0170686D01*
X0063486Y0169506D02*
X0078552Y0169506D01*
X0078629Y0170686D02*
X0077793Y0170686D01*
X0078973Y0171865D02*
X0079808Y0171865D01*
X0081332Y0174224D02*
X0082167Y0174224D01*
X0082512Y0175404D02*
X0083347Y0175404D01*
X0083691Y0176584D02*
X0108663Y0176584D01*
X0108274Y0177763D02*
X0083146Y0177763D01*
X0080534Y0177763D02*
X0072204Y0177763D01*
X0071798Y0177357D02*
X0077127Y0182686D01*
X0077127Y0184316D01*
X0073468Y0187975D01*
X0071837Y0187975D01*
X0066508Y0182646D01*
X0066508Y0181015D01*
X0070167Y0177357D01*
X0071798Y0177357D01*
X0069761Y0177763D02*
X0051701Y0177763D01*
X0052475Y0178943D02*
X0068581Y0178943D01*
X0067401Y0180122D02*
X0053249Y0180122D01*
X0054023Y0181302D02*
X0066508Y0181302D01*
X0066508Y0182482D02*
X0054797Y0182482D01*
X0055571Y0183661D02*
X0067524Y0183661D01*
X0068703Y0184841D02*
X0056345Y0184841D01*
X0057840Y0186020D02*
X0069883Y0186020D01*
X0071062Y0187200D02*
X0059668Y0187200D01*
X0061497Y0188380D02*
X0087507Y0188380D01*
X0086935Y0188143D02*
X0086603Y0187888D01*
X0086348Y0187556D01*
X0086188Y0187169D01*
X0086133Y0186754D01*
X0086188Y0186338D01*
X0086946Y0184508D01*
X0089688Y0185644D01*
X0089839Y0185280D01*
X0090203Y0185431D01*
X0091489Y0182325D01*
X0092956Y0182932D01*
X0093288Y0183187D01*
X0093543Y0183519D01*
X0093562Y0183566D01*
X0094518Y0183170D01*
X0096700Y0184074D01*
X0097401Y0184353D01*
X0097422Y0184373D01*
X0098935Y0185000D01*
X0099559Y0186506D01*
X0099154Y0187484D01*
X0099168Y0188448D01*
X0096496Y0195174D01*
X0095404Y0196297D01*
X0093966Y0196917D01*
X0092400Y0196940D01*
X0090945Y0196362D01*
X0089821Y0195270D01*
X0089201Y0193832D01*
X0089178Y0192266D01*
X0090272Y0189514D01*
X0090232Y0189509D01*
X0088765Y0188901D01*
X0090052Y0185795D01*
X0089688Y0185644D01*
X0088402Y0188750D01*
X0086935Y0188143D01*
X0086201Y0187200D02*
X0074243Y0187200D01*
X0075423Y0186020D02*
X0086319Y0186020D01*
X0086808Y0184841D02*
X0076602Y0184841D01*
X0077127Y0183661D02*
X0087297Y0183661D01*
X0087097Y0184144D02*
X0087855Y0182314D01*
X0088110Y0181982D01*
X0088442Y0181727D01*
X0088829Y0181567D01*
X0089244Y0181512D01*
X0089659Y0181567D01*
X0091126Y0182174D01*
X0089839Y0185280D01*
X0087097Y0184144D01*
X0087749Y0184841D02*
X0088778Y0184841D01*
X0090021Y0184841D02*
X0090447Y0184841D01*
X0090510Y0183661D02*
X0090936Y0183661D01*
X0090998Y0182482D02*
X0091424Y0182482D01*
X0091868Y0182482D02*
X0105577Y0182482D01*
X0105134Y0183661D02*
X0095704Y0183661D01*
X0098551Y0184841D02*
X0105134Y0184841D01*
X0105134Y0186020D02*
X0099357Y0186020D01*
X0099271Y0187200D02*
X0105134Y0187200D01*
X0105415Y0188380D02*
X0099167Y0188380D01*
X0098726Y0189559D02*
X0131994Y0189559D01*
X0131243Y0190739D02*
X0098258Y0190739D01*
X0097789Y0191919D02*
X0130493Y0191919D01*
X0129742Y0193098D02*
X0097320Y0193098D01*
X0096852Y0194278D02*
X0128991Y0194278D01*
X0129051Y0188380D02*
X0129642Y0188380D01*
X0129642Y0187200D02*
X0129051Y0187200D01*
X0129051Y0186020D02*
X0129642Y0186020D01*
X0129642Y0184841D02*
X0129051Y0184841D01*
X0129051Y0183661D02*
X0129642Y0183661D01*
X0129642Y0182482D02*
X0129051Y0182482D01*
X0133290Y0182482D02*
X0136498Y0182482D01*
X0135747Y0183661D02*
X0133890Y0183661D01*
X0133890Y0184841D02*
X0134997Y0184841D01*
X0134246Y0186020D02*
X0133890Y0186020D01*
X0138834Y0188380D02*
X0141028Y0188380D01*
X0141333Y0189115D02*
X0142091Y0190946D01*
X0142346Y0191278D01*
X0142678Y0191533D01*
X0143065Y0191693D01*
X0143480Y0191748D01*
X0143895Y0191693D01*
X0145362Y0191086D01*
X0144075Y0187979D01*
X0141333Y0189115D01*
X0141517Y0189559D02*
X0138083Y0189559D01*
X0137332Y0190739D02*
X0142005Y0190739D01*
X0142080Y0188380D02*
X0143109Y0188380D01*
X0144241Y0188380D02*
X0144667Y0188380D01*
X0144730Y0189559D02*
X0145156Y0189559D01*
X0145218Y0190739D02*
X0145644Y0190739D01*
X0146199Y0190739D02*
X0147644Y0190739D01*
X0148230Y0191919D02*
X0136582Y0191919D01*
X0135831Y0193098D02*
X0148816Y0193098D01*
X0144179Y0187200D02*
X0143752Y0187200D01*
X0143690Y0186020D02*
X0143264Y0186020D01*
X0143201Y0184841D02*
X0142775Y0184841D01*
X0141838Y0184841D02*
X0141086Y0184841D01*
X0140453Y0186020D02*
X0140335Y0186020D01*
X0140539Y0187200D02*
X0139584Y0187200D01*
X0141836Y0183661D02*
X0145391Y0183661D01*
X0146546Y0182482D02*
X0143863Y0182482D01*
X0146624Y0181302D02*
X0149394Y0181302D01*
X0150115Y0174224D02*
X0126738Y0174224D01*
X0131023Y0173676D02*
X0131023Y0173676D01*
X0133083Y0173045D02*
X0152876Y0173045D01*
X0154722Y0171865D02*
X0136935Y0171865D01*
X0139738Y0171007D02*
X0139738Y0171007D01*
X0140375Y0170686D02*
X0155901Y0170686D01*
X0157081Y0169506D02*
X0142715Y0169506D01*
X0145054Y0168326D02*
X0158260Y0168326D01*
X0121982Y0174833D02*
X0121982Y0174833D01*
X0109627Y0175404D02*
X0085505Y0175404D01*
X0082966Y0170686D02*
X0099384Y0170686D01*
X0096448Y0169506D02*
X0081786Y0169506D01*
X0087745Y0164349D02*
X0087745Y0164349D01*
X0088458Y0164787D02*
X0069374Y0164787D01*
X0069014Y0165147D02*
X0067383Y0165147D01*
X0062054Y0159818D01*
X0062054Y0158187D01*
X0063323Y0156919D01*
X0057612Y0143551D01*
X0045066Y0135568D01*
X0044926Y0135709D01*
X0039752Y0135709D01*
X0038598Y0134556D01*
X0038598Y0127019D01*
X0039752Y0125866D01*
X0044926Y0125866D01*
X0046079Y0127019D01*
X0046079Y0130123D01*
X0051969Y0133871D01*
X0051969Y0131083D01*
X0055035Y0131083D01*
X0055035Y0135331D01*
X0054262Y0135331D01*
X0060839Y0139516D01*
X0061092Y0139618D01*
X0061266Y0139788D01*
X0061471Y0139918D01*
X0061628Y0140141D01*
X0061823Y0140332D01*
X0061918Y0140556D01*
X0062058Y0140755D01*
X0062117Y0141021D01*
X0068294Y0155480D01*
X0072673Y0159858D01*
X0072673Y0161489D01*
X0069014Y0165147D01*
X0067023Y0164787D02*
X0059229Y0164787D01*
X0060699Y0165967D02*
X0090374Y0165967D01*
X0092289Y0167147D02*
X0061670Y0167147D01*
X0062767Y0168326D02*
X0094205Y0168326D01*
X0086903Y0163608D02*
X0070553Y0163608D01*
X0071733Y0162428D02*
X0085563Y0162428D01*
X0084223Y0161249D02*
X0072673Y0161249D01*
X0072673Y0160069D02*
X0082882Y0160069D01*
X0081542Y0158889D02*
X0071704Y0158889D01*
X0070525Y0157710D02*
X0080405Y0157710D01*
X0079452Y0156530D02*
X0069345Y0156530D01*
X0068239Y0155351D02*
X0078500Y0155351D01*
X0077547Y0154171D02*
X0067735Y0154171D01*
X0067231Y0152991D02*
X0076595Y0152991D01*
X0075642Y0151812D02*
X0066727Y0151812D01*
X0066223Y0150632D02*
X0074840Y0150632D01*
X0074181Y0149452D02*
X0065719Y0149452D01*
X0065215Y0148273D02*
X0073522Y0148273D01*
X0072863Y0147093D02*
X0064711Y0147093D01*
X0064207Y0145914D02*
X0072204Y0145914D01*
X0071545Y0144734D02*
X0063703Y0144734D01*
X0063199Y0143554D02*
X0070886Y0143554D01*
X0070731Y0143277D02*
X0070731Y0143277D01*
X0070412Y0142375D02*
X0062695Y0142375D01*
X0062191Y0141195D02*
X0069996Y0141195D01*
X0069579Y0140016D02*
X0061540Y0140016D01*
X0059770Y0138836D02*
X0069162Y0138836D01*
X0068745Y0137656D02*
X0057917Y0137656D01*
X0056063Y0136477D02*
X0068328Y0136477D01*
X0067912Y0135297D02*
X0057437Y0135297D01*
X0057312Y0135331D02*
X0055626Y0135331D01*
X0055626Y0131083D01*
X0055035Y0131083D01*
X0055035Y0130492D01*
X0051969Y0130492D01*
X0051969Y0127625D01*
X0052077Y0127221D01*
X0052286Y0126858D01*
X0052582Y0126562D01*
X0052945Y0126352D01*
X0053350Y0126244D01*
X0055035Y0126244D01*
X0055035Y0130492D01*
X0055626Y0130492D01*
X0055626Y0126244D01*
X0057312Y0126244D01*
X0057716Y0126352D01*
X0058079Y0126562D01*
X0058375Y0126858D01*
X0058585Y0127221D01*
X0058693Y0127625D01*
X0058693Y0130492D01*
X0055626Y0130492D01*
X0055626Y0131083D01*
X0058693Y0131083D01*
X0058693Y0133950D01*
X0058585Y0134354D01*
X0058375Y0134717D01*
X0058079Y0135013D01*
X0057716Y0135222D01*
X0057312Y0135331D01*
X0055626Y0135297D02*
X0055035Y0135297D01*
X0055035Y0134117D02*
X0055626Y0134117D01*
X0055626Y0132938D02*
X0055035Y0132938D01*
X0055035Y0131758D02*
X0055626Y0131758D01*
X0055626Y0130579D02*
X0066991Y0130579D01*
X0067193Y0131758D02*
X0058693Y0131758D01*
X0058693Y0132938D02*
X0067395Y0132938D01*
X0067598Y0134117D02*
X0058648Y0134117D01*
X0058693Y0129399D02*
X0066789Y0129399D01*
X0066586Y0128219D02*
X0058693Y0128219D01*
X0058480Y0127040D02*
X0066384Y0127040D01*
X0066182Y0125860D02*
X0031125Y0125860D01*
X0030896Y0124681D02*
X0066154Y0124681D01*
X0066154Y0123501D02*
X0030666Y0123501D01*
X0031354Y0127040D02*
X0038598Y0127040D01*
X0038598Y0128219D02*
X0031584Y0128219D01*
X0031813Y0129399D02*
X0038598Y0129399D01*
X0038598Y0130579D02*
X0032043Y0130579D01*
X0032272Y0131758D02*
X0038598Y0131758D01*
X0038598Y0132938D02*
X0032501Y0132938D01*
X0032731Y0134117D02*
X0038598Y0134117D01*
X0039340Y0135297D02*
X0032960Y0135297D01*
X0033189Y0136477D02*
X0046495Y0136477D01*
X0048348Y0137656D02*
X0033419Y0137656D01*
X0033648Y0138836D02*
X0050202Y0138836D01*
X0052056Y0140016D02*
X0033877Y0140016D01*
X0034107Y0141195D02*
X0053909Y0141195D01*
X0053921Y0141865D02*
X0054336Y0141810D01*
X0054752Y0141865D01*
X0055138Y0142025D01*
X0055471Y0142280D01*
X0055726Y0142612D01*
X0056333Y0144079D01*
X0053227Y0145366D01*
X0053378Y0145729D01*
X0056484Y0144443D01*
X0057091Y0145909D01*
X0057146Y0146324D01*
X0057091Y0146740D01*
X0057072Y0146786D01*
X0058028Y0147182D01*
X0058937Y0149377D01*
X0059237Y0150090D01*
X0059237Y0150103D01*
X0059857Y0151598D01*
X0059233Y0153105D01*
X0058259Y0153508D01*
X0057555Y0154221D01*
X0049641Y0157554D01*
X0048075Y0157564D01*
X0046624Y0156973D01*
X0045510Y0155872D01*
X0044902Y0154429D01*
X0044893Y0152862D01*
X0045484Y0151412D01*
X0046585Y0150298D01*
X0050520Y0148640D01*
X0050515Y0148633D01*
X0049907Y0147167D01*
X0053014Y0145880D01*
X0052863Y0145516D01*
X0053227Y0145366D01*
X0052091Y0142623D01*
X0053921Y0141865D01*
X0052690Y0142375D02*
X0034336Y0142375D01*
X0034566Y0143554D02*
X0049867Y0143554D01*
X0049897Y0143532D02*
X0051727Y0142774D01*
X0052863Y0145516D01*
X0049757Y0146803D01*
X0049149Y0145336D01*
X0049095Y0144921D01*
X0049149Y0144506D01*
X0049310Y0144119D01*
X0049565Y0143787D01*
X0049897Y0143532D01*
X0049119Y0144734D02*
X0034795Y0144734D01*
X0035024Y0145914D02*
X0049388Y0145914D01*
X0050085Y0147093D02*
X0035254Y0147093D01*
X0035483Y0148273D02*
X0050366Y0148273D01*
X0048592Y0149452D02*
X0035712Y0149452D01*
X0035942Y0150632D02*
X0046254Y0150632D01*
X0045321Y0151812D02*
X0036171Y0151812D01*
X0036401Y0152991D02*
X0044894Y0152991D01*
X0044901Y0154171D02*
X0036630Y0154171D01*
X0036992Y0155351D02*
X0045291Y0155351D01*
X0046176Y0156530D02*
X0037766Y0156530D01*
X0038540Y0157710D02*
X0062532Y0157710D01*
X0062054Y0158889D02*
X0039315Y0158889D01*
X0040089Y0160069D02*
X0062305Y0160069D01*
X0063485Y0161249D02*
X0040863Y0161249D01*
X0041637Y0162428D02*
X0064664Y0162428D01*
X0065844Y0163608D02*
X0042411Y0163608D01*
X0043185Y0164787D02*
X0055454Y0164787D01*
X0054275Y0165967D02*
X0043959Y0165967D01*
X0044733Y0167147D02*
X0053095Y0167147D01*
X0052867Y0168326D02*
X0045508Y0168326D01*
X0046282Y0169506D02*
X0051990Y0169506D01*
X0051159Y0170686D02*
X0047056Y0170686D01*
X0047830Y0171865D02*
X0050812Y0171865D01*
X0050796Y0173045D02*
X0048604Y0173045D01*
X0049378Y0174224D02*
X0051256Y0174224D01*
X0052240Y0175404D02*
X0050152Y0175404D01*
X0050926Y0176584D02*
X0079354Y0176584D01*
X0075743Y0181302D02*
X0107487Y0181302D01*
X0107487Y0180122D02*
X0074564Y0180122D01*
X0073384Y0178943D02*
X0107713Y0178943D01*
X0105593Y0195457D02*
X0096220Y0195457D01*
X0094616Y0196637D02*
X0105134Y0196637D01*
X0105134Y0197817D02*
X0076124Y0197817D01*
X0077952Y0198996D02*
X0105134Y0198996D01*
X0105134Y0200176D02*
X0079781Y0200176D01*
X0081609Y0201355D02*
X0105398Y0201355D01*
X0105966Y0202535D02*
X0083438Y0202535D01*
X0085266Y0203715D02*
X0105922Y0203715D01*
X0106058Y0204894D02*
X0090178Y0204894D01*
X0096244Y0206074D02*
X0106580Y0206074D01*
X0107903Y0207254D02*
X0102311Y0207254D01*
X0108377Y0208433D02*
X0131024Y0208433D01*
X0124958Y0209613D02*
X0114444Y0209613D01*
X0091637Y0196637D02*
X0074296Y0196637D01*
X0072467Y0195457D02*
X0090014Y0195457D01*
X0089393Y0194278D02*
X0070639Y0194278D01*
X0068810Y0193098D02*
X0089190Y0193098D01*
X0089316Y0191919D02*
X0066982Y0191919D01*
X0065154Y0190739D02*
X0089785Y0190739D01*
X0090253Y0189559D02*
X0063325Y0189559D01*
X0076923Y0182482D02*
X0087785Y0182482D01*
X0089533Y0186020D02*
X0089959Y0186020D01*
X0089470Y0187200D02*
X0089044Y0187200D01*
X0088981Y0188380D02*
X0088555Y0188380D01*
X0063157Y0156530D02*
X0052073Y0156530D01*
X0054874Y0155351D02*
X0062653Y0155351D01*
X0062149Y0154171D02*
X0057605Y0154171D01*
X0059280Y0152991D02*
X0061645Y0152991D01*
X0061141Y0151812D02*
X0059769Y0151812D01*
X0059457Y0150632D02*
X0060637Y0150632D01*
X0060133Y0149452D02*
X0058968Y0149452D01*
X0058479Y0148273D02*
X0059629Y0148273D01*
X0059125Y0147093D02*
X0057813Y0147093D01*
X0057092Y0145914D02*
X0058621Y0145914D01*
X0058117Y0144734D02*
X0056604Y0144734D01*
X0055780Y0144734D02*
X0054752Y0144734D01*
X0052965Y0144734D02*
X0052539Y0144734D01*
X0052477Y0143554D02*
X0052050Y0143554D01*
X0051904Y0145914D02*
X0052933Y0145914D01*
X0056116Y0143554D02*
X0057613Y0143554D01*
X0055763Y0142375D02*
X0055543Y0142375D01*
X0051969Y0132938D02*
X0050502Y0132938D01*
X0051969Y0131758D02*
X0048648Y0131758D01*
X0046795Y0130579D02*
X0055035Y0130579D01*
X0055035Y0129399D02*
X0055626Y0129399D01*
X0055626Y0128219D02*
X0055035Y0128219D01*
X0055035Y0127040D02*
X0055626Y0127040D01*
X0052181Y0127040D02*
X0046079Y0127040D01*
X0046079Y0128219D02*
X0051969Y0128219D01*
X0051969Y0129399D02*
X0046079Y0129399D01*
X0044926Y0116417D02*
X0039752Y0116417D01*
X0038633Y0115298D01*
X0036095Y0115205D01*
X0034671Y0114552D01*
X0033606Y0113404D01*
X0033060Y0111936D01*
X0033118Y0110371D01*
X0033771Y0108947D01*
X0034919Y0107881D01*
X0036387Y0107336D01*
X0038897Y0107429D01*
X0039752Y0106575D01*
X0044926Y0106575D01*
X0046079Y0107728D01*
X0046079Y0110259D01*
X0046302Y0110859D01*
X0046244Y0112424D01*
X0046079Y0112785D01*
X0046079Y0115264D01*
X0044926Y0116417D01*
X0046079Y0115244D02*
X0051591Y0115244D01*
X0051591Y0115264D02*
X0051591Y0107728D01*
X0052744Y0106575D01*
X0054339Y0106575D01*
X0058986Y0093358D01*
X0058799Y0092252D01*
X0058668Y0092567D01*
X0055562Y0091280D01*
X0056698Y0088537D01*
X0058279Y0089192D01*
X0056463Y0078504D01*
X0052867Y0074909D01*
X0052867Y0073278D01*
X0058196Y0067949D01*
X0059827Y0067949D01*
X0063486Y0071608D01*
X0063486Y0073239D01*
X0061172Y0075553D01*
X0062443Y0083032D01*
X0062541Y0082667D01*
X0062750Y0082304D01*
X0064777Y0080277D01*
X0066946Y0082445D01*
X0067363Y0082028D01*
X0065195Y0079859D01*
X0067222Y0077832D01*
X0067585Y0077623D01*
X0067989Y0077514D01*
X0068408Y0077514D01*
X0068813Y0077623D01*
X0069175Y0077832D01*
X0070367Y0079024D01*
X0067363Y0082028D01*
X0067781Y0082445D01*
X0070785Y0079442D01*
X0071977Y0080634D01*
X0072186Y0080996D01*
X0072295Y0081401D01*
X0072295Y0081820D01*
X0072186Y0082224D01*
X0071977Y0082587D01*
X0069950Y0084614D01*
X0067781Y0082445D01*
X0067363Y0082863D01*
X0066946Y0082445D01*
X0063942Y0085449D01*
X0062750Y0084257D01*
X0062609Y0084013D01*
X0064102Y0092797D01*
X0064167Y0092932D01*
X0064187Y0093297D01*
X0064248Y0093656D01*
X0064214Y0093803D01*
X0064222Y0093953D01*
X0064101Y0094297D01*
X0064020Y0094652D01*
X0063933Y0094775D01*
X0059071Y0108603D01*
X0059071Y0115264D01*
X0057918Y0116417D01*
X0052744Y0116417D01*
X0051591Y0115264D01*
X0051591Y0114064D02*
X0046079Y0114064D01*
X0046079Y0112884D02*
X0051591Y0112884D01*
X0051591Y0111705D02*
X0046271Y0111705D01*
X0046178Y0110525D02*
X0051591Y0110525D01*
X0051591Y0109346D02*
X0046079Y0109346D01*
X0046079Y0108166D02*
X0051591Y0108166D01*
X0052332Y0106986D02*
X0045337Y0106986D01*
X0039340Y0106986D02*
X0032960Y0106986D01*
X0033189Y0105807D02*
X0054609Y0105807D01*
X0055023Y0104627D02*
X0033419Y0104627D01*
X0033648Y0103448D02*
X0055438Y0103448D01*
X0055853Y0102268D02*
X0033877Y0102268D01*
X0034107Y0101088D02*
X0056268Y0101088D01*
X0055843Y0100376D02*
X0054336Y0101000D01*
X0053350Y0100591D01*
X0052613Y0100643D01*
X0044874Y0098052D01*
X0043692Y0097024D01*
X0042993Y0095622D01*
X0042884Y0094060D01*
X0043381Y0092574D01*
X0044409Y0091393D01*
X0045811Y0090694D01*
X0047373Y0090585D01*
X0051304Y0091901D01*
X0051334Y0091673D01*
X0051941Y0090206D01*
X0055048Y0091493D01*
X0055198Y0091129D01*
X0052092Y0089843D01*
X0052700Y0088376D01*
X0052954Y0088044D01*
X0053287Y0087789D01*
X0053674Y0087629D01*
X0054089Y0087574D01*
X0054504Y0087629D01*
X0056334Y0088387D01*
X0055198Y0091129D01*
X0055562Y0091280D01*
X0055411Y0091644D01*
X0058518Y0092930D01*
X0057910Y0094397D01*
X0057655Y0094729D01*
X0057323Y0094984D01*
X0057276Y0095003D01*
X0057672Y0095959D01*
X0056810Y0098040D01*
X0056605Y0098653D01*
X0056512Y0098760D01*
X0055843Y0100376D01*
X0056036Y0099909D02*
X0056683Y0099909D01*
X0056539Y0098729D02*
X0057098Y0098729D01*
X0057014Y0097549D02*
X0057512Y0097549D01*
X0057502Y0096370D02*
X0057927Y0096370D01*
X0058342Y0095190D02*
X0057354Y0095190D01*
X0058070Y0094011D02*
X0058757Y0094011D01*
X0058897Y0092831D02*
X0058278Y0092831D01*
X0056459Y0091651D02*
X0055430Y0091651D01*
X0055471Y0090472D02*
X0055897Y0090472D01*
X0055959Y0089292D02*
X0056385Y0089292D01*
X0055672Y0088113D02*
X0058095Y0088113D01*
X0057895Y0086933D02*
X0036992Y0086933D01*
X0036630Y0088113D02*
X0052902Y0088113D01*
X0052320Y0089292D02*
X0036401Y0089292D01*
X0036171Y0090472D02*
X0051832Y0090472D01*
X0052582Y0090472D02*
X0053611Y0090472D01*
X0051343Y0091651D02*
X0050559Y0091651D01*
X0046897Y0098729D02*
X0034566Y0098729D01*
X0034795Y0097549D02*
X0044296Y0097549D01*
X0043366Y0096370D02*
X0035024Y0096370D01*
X0035254Y0095190D02*
X0042963Y0095190D01*
X0042901Y0094011D02*
X0035483Y0094011D01*
X0035712Y0092831D02*
X0043296Y0092831D01*
X0044184Y0091651D02*
X0035942Y0091651D01*
X0037766Y0085753D02*
X0057694Y0085753D01*
X0057494Y0084574D02*
X0038540Y0084574D01*
X0039315Y0083394D02*
X0057293Y0083394D01*
X0057093Y0082214D02*
X0040089Y0082214D01*
X0040863Y0081035D02*
X0056893Y0081035D01*
X0056692Y0079855D02*
X0041637Y0079855D01*
X0042411Y0078676D02*
X0056492Y0078676D01*
X0055454Y0077496D02*
X0043185Y0077496D01*
X0043959Y0076316D02*
X0054275Y0076316D01*
X0053095Y0075137D02*
X0044733Y0075137D01*
X0045508Y0073957D02*
X0052867Y0073957D01*
X0053368Y0072778D02*
X0046282Y0072778D01*
X0047056Y0071598D02*
X0054548Y0071598D01*
X0055727Y0070418D02*
X0047830Y0070418D01*
X0048604Y0069239D02*
X0056907Y0069239D01*
X0058087Y0068059D02*
X0049378Y0068059D01*
X0050152Y0066880D02*
X0077640Y0066880D01*
X0076460Y0068059D02*
X0059937Y0068059D01*
X0061116Y0069239D02*
X0075695Y0069239D01*
X0075695Y0070418D02*
X0062296Y0070418D01*
X0063476Y0071598D02*
X0076838Y0071598D01*
X0078018Y0072778D02*
X0063486Y0072778D01*
X0062767Y0073957D02*
X0079198Y0073957D01*
X0081141Y0073957D02*
X0094205Y0073957D01*
X0095507Y0073156D02*
X0095507Y0073156D01*
X0096448Y0072778D02*
X0082321Y0072778D01*
X0083500Y0071598D02*
X0099383Y0071598D01*
X0102319Y0070418D02*
X0084680Y0070418D01*
X0086280Y0069239D02*
X0106370Y0069239D01*
X0111843Y0068059D02*
X0088890Y0068059D01*
X0086858Y0063341D02*
X0073384Y0063341D01*
X0072204Y0064520D02*
X0079999Y0064520D01*
X0078820Y0065700D02*
X0050926Y0065700D01*
X0051701Y0064520D02*
X0069761Y0064520D01*
X0068581Y0063341D02*
X0052475Y0063341D01*
X0053249Y0062161D02*
X0067401Y0062161D01*
X0066508Y0060981D02*
X0054023Y0060981D01*
X0054797Y0059802D02*
X0066508Y0059802D01*
X0065372Y0058622D02*
X0055571Y0058622D01*
X0056345Y0057443D02*
X0064230Y0057443D01*
X0063723Y0056263D02*
X0057840Y0056263D01*
X0068810Y0049185D02*
X0083806Y0049185D01*
X0084922Y0048006D02*
X0070639Y0048006D01*
X0072467Y0046826D02*
X0104818Y0046826D01*
X0105134Y0045646D02*
X0074296Y0045646D01*
X0076124Y0044467D02*
X0105134Y0044467D01*
X0105134Y0043287D02*
X0077952Y0043287D01*
X0079781Y0042108D02*
X0105134Y0042108D01*
X0105398Y0040928D02*
X0081609Y0040928D01*
X0083438Y0039748D02*
X0125556Y0039748D01*
X0125600Y0038569D02*
X0085266Y0038569D01*
X0090178Y0037389D02*
X0125705Y0037389D01*
X0126246Y0036210D02*
X0096244Y0036210D01*
X0102311Y0035030D02*
X0127483Y0035030D01*
X0129509Y0033850D02*
X0108377Y0033850D01*
X0114444Y0032671D02*
X0124200Y0032671D01*
X0131499Y0035030D02*
X0134817Y0035030D01*
X0132822Y0036210D02*
X0140125Y0036210D01*
X0145433Y0037389D02*
X0133344Y0037389D01*
X0124690Y0040928D02*
X0114712Y0040928D01*
X0114976Y0042108D02*
X0124425Y0042108D01*
X0124425Y0043287D02*
X0114976Y0043287D01*
X0114976Y0044467D02*
X0124425Y0044467D01*
X0124425Y0045646D02*
X0114976Y0045646D01*
X0114517Y0046826D02*
X0124885Y0046826D01*
X0124706Y0053904D02*
X0114161Y0053904D01*
X0114598Y0055083D02*
X0124425Y0055083D01*
X0124425Y0056263D02*
X0114598Y0056263D01*
X0114598Y0057067D02*
X0114598Y0058753D01*
X0114490Y0059157D01*
X0114281Y0059520D01*
X0113984Y0059816D01*
X0113622Y0060025D01*
X0113217Y0060134D01*
X0110350Y0060134D01*
X0110350Y0057067D01*
X0114598Y0057067D01*
X0114598Y0057443D02*
X0124425Y0057443D01*
X0124425Y0058622D02*
X0114598Y0058622D01*
X0113999Y0059802D02*
X0124868Y0059802D01*
X0121982Y0067450D02*
X0121982Y0067450D01*
X0112875Y0067837D02*
X0112875Y0067837D01*
X0110350Y0059802D02*
X0109760Y0059802D01*
X0109760Y0058622D02*
X0110350Y0058622D01*
X0110350Y0057443D02*
X0109760Y0057443D01*
X0109760Y0056263D02*
X0110350Y0056263D01*
X0110350Y0055083D02*
X0109760Y0055083D01*
X0109760Y0053904D02*
X0110350Y0053904D01*
X0103183Y0049185D02*
X0090586Y0049185D01*
X0089479Y0048006D02*
X0104000Y0048006D01*
X0084247Y0064520D02*
X0083680Y0064520D01*
X0090374Y0076316D02*
X0061301Y0076316D01*
X0061502Y0077496D02*
X0088458Y0077496D01*
X0086903Y0078676D02*
X0070019Y0078676D01*
X0070371Y0079855D02*
X0069536Y0079855D01*
X0069192Y0081035D02*
X0068356Y0081035D01*
X0068012Y0082214D02*
X0067550Y0082214D01*
X0067177Y0082214D02*
X0066715Y0082214D01*
X0067363Y0082863D02*
X0064360Y0085867D01*
X0065552Y0087059D01*
X0065914Y0087268D01*
X0066319Y0087377D01*
X0066738Y0087377D01*
X0067142Y0087268D01*
X0067505Y0087059D01*
X0069532Y0085032D01*
X0067363Y0082863D01*
X0066832Y0083394D02*
X0065997Y0083394D01*
X0065653Y0084574D02*
X0064818Y0084574D01*
X0064473Y0085753D02*
X0062905Y0085753D01*
X0063067Y0084574D02*
X0062704Y0084574D01*
X0062839Y0082214D02*
X0062304Y0082214D01*
X0062103Y0081035D02*
X0064019Y0081035D01*
X0065535Y0081035D02*
X0066370Y0081035D01*
X0065199Y0079855D02*
X0061903Y0079855D01*
X0061702Y0078676D02*
X0066378Y0078676D01*
X0067895Y0083394D02*
X0068730Y0083394D01*
X0069074Y0084574D02*
X0069909Y0084574D01*
X0069990Y0084574D02*
X0080405Y0084574D01*
X0080903Y0083957D02*
X0080903Y0083957D01*
X0080903Y0083957D01*
X0081542Y0083394D02*
X0071170Y0083394D01*
X0072189Y0082214D02*
X0082882Y0082214D01*
X0084223Y0081035D02*
X0072197Y0081035D01*
X0071198Y0079855D02*
X0085563Y0079855D01*
X0079452Y0085753D02*
X0068810Y0085753D01*
X0067631Y0086933D02*
X0078500Y0086933D01*
X0077547Y0088113D02*
X0063306Y0088113D01*
X0063506Y0089292D02*
X0076595Y0089292D01*
X0075642Y0090472D02*
X0063707Y0090472D01*
X0063907Y0091651D02*
X0074840Y0091651D01*
X0074181Y0092831D02*
X0064118Y0092831D01*
X0064202Y0094011D02*
X0073522Y0094011D01*
X0072863Y0095190D02*
X0063787Y0095190D01*
X0063372Y0096370D02*
X0072204Y0096370D01*
X0071545Y0097549D02*
X0062958Y0097549D01*
X0062543Y0098729D02*
X0070886Y0098729D01*
X0070731Y0099006D02*
X0070731Y0099006D01*
X0070412Y0099909D02*
X0062128Y0099909D01*
X0061713Y0101088D02*
X0069996Y0101088D01*
X0069579Y0102268D02*
X0061298Y0102268D01*
X0060884Y0103448D02*
X0069162Y0103448D01*
X0068745Y0104627D02*
X0060469Y0104627D01*
X0060054Y0105807D02*
X0068328Y0105807D01*
X0067912Y0106986D02*
X0059639Y0106986D01*
X0059224Y0108166D02*
X0067598Y0108166D01*
X0067695Y0107600D02*
X0067695Y0107600D01*
X0067395Y0109346D02*
X0059071Y0109346D01*
X0059071Y0110525D02*
X0067193Y0110525D01*
X0066991Y0111705D02*
X0059071Y0111705D01*
X0059071Y0112884D02*
X0066789Y0112884D01*
X0066586Y0114064D02*
X0059071Y0114064D01*
X0059071Y0115244D02*
X0066384Y0115244D01*
X0066182Y0116423D02*
X0031125Y0116423D01*
X0031354Y0115244D02*
X0037152Y0115244D01*
X0034218Y0114064D02*
X0031584Y0114064D01*
X0031813Y0112884D02*
X0033413Y0112884D01*
X0033069Y0111705D02*
X0032043Y0111705D01*
X0032272Y0110525D02*
X0033113Y0110525D01*
X0033588Y0109346D02*
X0032501Y0109346D01*
X0032731Y0108166D02*
X0034612Y0108166D01*
X0034336Y0099909D02*
X0050421Y0099909D01*
X0063105Y0086933D02*
X0065426Y0086933D01*
X0061588Y0075137D02*
X0092289Y0075137D01*
X0066154Y0117603D02*
X0030896Y0117603D01*
X0030666Y0118783D02*
X0066154Y0118783D01*
X0066154Y0119962D02*
X0030437Y0119962D01*
X0067695Y0134683D02*
X0067695Y0134683D01*
X0068520Y0121142D02*
X0068535Y0122398D01*
X0068582Y0123653D01*
X0068659Y0124907D01*
X0068766Y0126159D01*
X0068905Y0127407D01*
X0069074Y0128652D01*
X0069274Y0129892D01*
X0069503Y0131127D01*
X0069764Y0132356D01*
X0070054Y0133578D01*
X0070374Y0134793D01*
X0070724Y0135999D01*
X0071103Y0137197D01*
X0071512Y0138384D01*
X0071949Y0139562D01*
X0072416Y0140728D01*
X0072911Y0141883D01*
X0073434Y0143025D01*
X0073985Y0144154D01*
X0074563Y0145269D01*
X0075169Y0146369D01*
X0075802Y0147454D01*
X0076461Y0148524D01*
X0077146Y0149577D01*
X0077856Y0150612D01*
X0078592Y0151630D01*
X0079353Y0152630D01*
X0080138Y0153611D01*
X0080946Y0154572D01*
X0081778Y0155513D01*
X0082633Y0156433D01*
X0083511Y0157332D01*
X0084410Y0158210D01*
X0085330Y0159065D01*
X0086271Y0159897D01*
X0087232Y0160705D01*
X0088213Y0161490D01*
X0089213Y0162251D01*
X0090231Y0162987D01*
X0091266Y0163697D01*
X0092319Y0164382D01*
X0093389Y0165041D01*
X0094474Y0165674D01*
X0095574Y0166280D01*
X0096689Y0166858D01*
X0097818Y0167409D01*
X0098960Y0167932D01*
X0100115Y0168427D01*
X0101281Y0168894D01*
X0102459Y0169331D01*
X0103646Y0169740D01*
X0104844Y0170119D01*
X0106050Y0170469D01*
X0107265Y0170789D01*
X0108487Y0171079D01*
X0109716Y0171340D01*
X0110951Y0171569D01*
X0112191Y0171769D01*
X0113436Y0171938D01*
X0114684Y0172077D01*
X0115936Y0172184D01*
X0117190Y0172261D01*
X0118445Y0172308D01*
X0119701Y0172323D01*
X0120957Y0172308D01*
X0122212Y0172261D01*
X0123466Y0172184D01*
X0124718Y0172077D01*
X0125966Y0171938D01*
X0127211Y0171769D01*
X0128451Y0171569D01*
X0129686Y0171340D01*
X0130915Y0171079D01*
X0132137Y0170789D01*
X0133352Y0170469D01*
X0134558Y0170119D01*
X0135756Y0169740D01*
X0136943Y0169331D01*
X0138121Y0168894D01*
X0139287Y0168427D01*
X0140442Y0167932D01*
X0141584Y0167409D01*
X0142713Y0166858D01*
X0143828Y0166280D01*
X0144928Y0165674D01*
X0146013Y0165041D01*
X0147083Y0164382D01*
X0148136Y0163697D01*
X0149171Y0162987D01*
X0150189Y0162251D01*
X0151189Y0161490D01*
X0152170Y0160705D01*
X0153131Y0159897D01*
X0154072Y0159065D01*
X0154992Y0158210D01*
X0155891Y0157332D01*
X0156769Y0156433D01*
X0157624Y0155513D01*
X0158456Y0154572D01*
X0159264Y0153611D01*
X0160049Y0152630D01*
X0160810Y0151630D01*
X0161546Y0150612D01*
X0162256Y0149577D01*
X0162941Y0148524D01*
X0163600Y0147454D01*
X0164233Y0146369D01*
X0164839Y0145269D01*
X0165417Y0144154D01*
X0165968Y0143025D01*
X0166491Y0141883D01*
X0166986Y0140728D01*
X0167453Y0139562D01*
X0167890Y0138384D01*
X0168299Y0137197D01*
X0168678Y0135999D01*
X0169028Y0134793D01*
X0169348Y0133578D01*
X0169638Y0132356D01*
X0169899Y0131127D01*
X0170128Y0129892D01*
X0170328Y0128652D01*
X0170497Y0127407D01*
X0170636Y0126159D01*
X0170743Y0124907D01*
X0170820Y0123653D01*
X0170867Y0122398D01*
X0170882Y0121142D01*
X0170867Y0119886D01*
X0170820Y0118631D01*
X0170743Y0117377D01*
X0170636Y0116125D01*
X0170497Y0114877D01*
X0170328Y0113632D01*
X0170128Y0112392D01*
X0169899Y0111157D01*
X0169638Y0109928D01*
X0169348Y0108706D01*
X0169028Y0107491D01*
X0168678Y0106285D01*
X0168299Y0105087D01*
X0167890Y0103900D01*
X0167453Y0102722D01*
X0166986Y0101556D01*
X0166491Y0100401D01*
X0165968Y0099259D01*
X0165417Y0098130D01*
X0164839Y0097015D01*
X0164233Y0095915D01*
X0163600Y0094830D01*
X0162941Y0093760D01*
X0162256Y0092707D01*
X0161546Y0091672D01*
X0160810Y0090654D01*
X0160049Y0089654D01*
X0159264Y0088673D01*
X0158456Y0087712D01*
X0157624Y0086771D01*
X0156769Y0085851D01*
X0155891Y0084952D01*
X0154992Y0084074D01*
X0154072Y0083219D01*
X0153131Y0082387D01*
X0152170Y0081579D01*
X0151189Y0080794D01*
X0150189Y0080033D01*
X0149171Y0079297D01*
X0148136Y0078587D01*
X0147083Y0077902D01*
X0146013Y0077243D01*
X0144928Y0076610D01*
X0143828Y0076004D01*
X0142713Y0075426D01*
X0141584Y0074875D01*
X0140442Y0074352D01*
X0139287Y0073857D01*
X0138121Y0073390D01*
X0136943Y0072953D01*
X0135756Y0072544D01*
X0134558Y0072165D01*
X0133352Y0071815D01*
X0132137Y0071495D01*
X0130915Y0071205D01*
X0129686Y0070944D01*
X0128451Y0070715D01*
X0127211Y0070515D01*
X0125966Y0070346D01*
X0124718Y0070207D01*
X0123466Y0070100D01*
X0122212Y0070023D01*
X0120957Y0069976D01*
X0119701Y0069961D01*
X0118445Y0069976D01*
X0117190Y0070023D01*
X0115936Y0070100D01*
X0114684Y0070207D01*
X0113436Y0070346D01*
X0112191Y0070515D01*
X0110951Y0070715D01*
X0109716Y0070944D01*
X0108487Y0071205D01*
X0107265Y0071495D01*
X0106050Y0071815D01*
X0104844Y0072165D01*
X0103646Y0072544D01*
X0102459Y0072953D01*
X0101281Y0073390D01*
X0100115Y0073857D01*
X0098960Y0074352D01*
X0097818Y0074875D01*
X0096689Y0075426D01*
X0095574Y0076004D01*
X0094474Y0076610D01*
X0093389Y0077243D01*
X0092319Y0077902D01*
X0091266Y0078587D01*
X0090231Y0079297D01*
X0089213Y0080033D01*
X0088213Y0080794D01*
X0087232Y0081579D01*
X0086271Y0082387D01*
X0085330Y0083219D01*
X0084410Y0084074D01*
X0083511Y0084952D01*
X0082633Y0085851D01*
X0081778Y0086771D01*
X0080946Y0087712D01*
X0080138Y0088673D01*
X0079353Y0089654D01*
X0078592Y0090654D01*
X0077856Y0091672D01*
X0077146Y0092707D01*
X0076461Y0093760D01*
X0075802Y0094830D01*
X0075169Y0095915D01*
X0074563Y0097015D01*
X0073985Y0098130D01*
X0073434Y0099259D01*
X0072911Y0100401D01*
X0072416Y0101556D01*
X0071949Y0102722D01*
X0071512Y0103900D01*
X0071103Y0105087D01*
X0070724Y0106285D01*
X0070374Y0107491D01*
X0070054Y0108706D01*
X0069764Y0109928D01*
X0069503Y0111157D01*
X0069274Y0112392D01*
X0069074Y0113632D01*
X0068905Y0114877D01*
X0068766Y0116125D01*
X0068659Y0117377D01*
X0068582Y0118631D01*
X0068535Y0119886D01*
X0068520Y0121142D01*
X0173558Y0078676D02*
X0195811Y0078676D01*
X0196610Y0079855D02*
X0174737Y0079855D01*
X0175917Y0081035D02*
X0197409Y0081035D01*
X0198208Y0082214D02*
X0177097Y0082214D01*
X0177347Y0083394D02*
X0199007Y0083394D01*
X0195012Y0077496D02*
X0183947Y0077496D01*
X0185127Y0076316D02*
X0194213Y0076316D01*
X0193414Y0075137D02*
X0186306Y0075137D01*
X0186534Y0073957D02*
X0192615Y0073957D01*
X0191816Y0072778D02*
X0187380Y0072778D01*
X0188598Y0071598D02*
X0191017Y0071598D01*
X0190217Y0070418D02*
X0189312Y0070418D01*
D11*
X0218126Y0015827D02*
X0218128Y0015996D01*
X0218134Y0016165D01*
X0218145Y0016334D01*
X0218159Y0016502D01*
X0218178Y0016670D01*
X0218201Y0016838D01*
X0218227Y0017005D01*
X0218258Y0017171D01*
X0218293Y0017337D01*
X0218332Y0017501D01*
X0218376Y0017665D01*
X0218423Y0017827D01*
X0218474Y0017988D01*
X0218529Y0018148D01*
X0218588Y0018307D01*
X0218650Y0018464D01*
X0218717Y0018619D01*
X0218788Y0018773D01*
X0218862Y0018925D01*
X0218940Y0019075D01*
X0219021Y0019223D01*
X0219106Y0019369D01*
X0219195Y0019513D01*
X0219287Y0019655D01*
X0219383Y0019794D01*
X0219482Y0019931D01*
X0219584Y0020066D01*
X0219690Y0020198D01*
X0219799Y0020327D01*
X0219911Y0020454D01*
X0220026Y0020578D01*
X0220144Y0020699D01*
X0220265Y0020817D01*
X0220389Y0020932D01*
X0220516Y0021044D01*
X0220645Y0021153D01*
X0220777Y0021259D01*
X0220912Y0021361D01*
X0221049Y0021460D01*
X0221188Y0021556D01*
X0221330Y0021648D01*
X0221474Y0021737D01*
X0221620Y0021822D01*
X0221768Y0021903D01*
X0221918Y0021981D01*
X0222070Y0022055D01*
X0222224Y0022126D01*
X0222379Y0022193D01*
X0222536Y0022255D01*
X0222695Y0022314D01*
X0222855Y0022369D01*
X0223016Y0022420D01*
X0223178Y0022467D01*
X0223342Y0022511D01*
X0223506Y0022550D01*
X0223672Y0022585D01*
X0223838Y0022616D01*
X0224005Y0022642D01*
X0224173Y0022665D01*
X0224341Y0022684D01*
X0224509Y0022698D01*
X0224678Y0022709D01*
X0224847Y0022715D01*
X0225016Y0022717D01*
X0225185Y0022715D01*
X0225354Y0022709D01*
X0225523Y0022698D01*
X0225691Y0022684D01*
X0225859Y0022665D01*
X0226027Y0022642D01*
X0226194Y0022616D01*
X0226360Y0022585D01*
X0226526Y0022550D01*
X0226690Y0022511D01*
X0226854Y0022467D01*
X0227016Y0022420D01*
X0227177Y0022369D01*
X0227337Y0022314D01*
X0227496Y0022255D01*
X0227653Y0022193D01*
X0227808Y0022126D01*
X0227962Y0022055D01*
X0228114Y0021981D01*
X0228264Y0021903D01*
X0228412Y0021822D01*
X0228558Y0021737D01*
X0228702Y0021648D01*
X0228844Y0021556D01*
X0228983Y0021460D01*
X0229120Y0021361D01*
X0229255Y0021259D01*
X0229387Y0021153D01*
X0229516Y0021044D01*
X0229643Y0020932D01*
X0229767Y0020817D01*
X0229888Y0020699D01*
X0230006Y0020578D01*
X0230121Y0020454D01*
X0230233Y0020327D01*
X0230342Y0020198D01*
X0230448Y0020066D01*
X0230550Y0019931D01*
X0230649Y0019794D01*
X0230745Y0019655D01*
X0230837Y0019513D01*
X0230926Y0019369D01*
X0231011Y0019223D01*
X0231092Y0019075D01*
X0231170Y0018925D01*
X0231244Y0018773D01*
X0231315Y0018619D01*
X0231382Y0018464D01*
X0231444Y0018307D01*
X0231503Y0018148D01*
X0231558Y0017988D01*
X0231609Y0017827D01*
X0231656Y0017665D01*
X0231700Y0017501D01*
X0231739Y0017337D01*
X0231774Y0017171D01*
X0231805Y0017005D01*
X0231831Y0016838D01*
X0231854Y0016670D01*
X0231873Y0016502D01*
X0231887Y0016334D01*
X0231898Y0016165D01*
X0231904Y0015996D01*
X0231906Y0015827D01*
X0231904Y0015658D01*
X0231898Y0015489D01*
X0231887Y0015320D01*
X0231873Y0015152D01*
X0231854Y0014984D01*
X0231831Y0014816D01*
X0231805Y0014649D01*
X0231774Y0014483D01*
X0231739Y0014317D01*
X0231700Y0014153D01*
X0231656Y0013989D01*
X0231609Y0013827D01*
X0231558Y0013666D01*
X0231503Y0013506D01*
X0231444Y0013347D01*
X0231382Y0013190D01*
X0231315Y0013035D01*
X0231244Y0012881D01*
X0231170Y0012729D01*
X0231092Y0012579D01*
X0231011Y0012431D01*
X0230926Y0012285D01*
X0230837Y0012141D01*
X0230745Y0011999D01*
X0230649Y0011860D01*
X0230550Y0011723D01*
X0230448Y0011588D01*
X0230342Y0011456D01*
X0230233Y0011327D01*
X0230121Y0011200D01*
X0230006Y0011076D01*
X0229888Y0010955D01*
X0229767Y0010837D01*
X0229643Y0010722D01*
X0229516Y0010610D01*
X0229387Y0010501D01*
X0229255Y0010395D01*
X0229120Y0010293D01*
X0228983Y0010194D01*
X0228844Y0010098D01*
X0228702Y0010006D01*
X0228558Y0009917D01*
X0228412Y0009832D01*
X0228264Y0009751D01*
X0228114Y0009673D01*
X0227962Y0009599D01*
X0227808Y0009528D01*
X0227653Y0009461D01*
X0227496Y0009399D01*
X0227337Y0009340D01*
X0227177Y0009285D01*
X0227016Y0009234D01*
X0226854Y0009187D01*
X0226690Y0009143D01*
X0226526Y0009104D01*
X0226360Y0009069D01*
X0226194Y0009038D01*
X0226027Y0009012D01*
X0225859Y0008989D01*
X0225691Y0008970D01*
X0225523Y0008956D01*
X0225354Y0008945D01*
X0225185Y0008939D01*
X0225016Y0008937D01*
X0224847Y0008939D01*
X0224678Y0008945D01*
X0224509Y0008956D01*
X0224341Y0008970D01*
X0224173Y0008989D01*
X0224005Y0009012D01*
X0223838Y0009038D01*
X0223672Y0009069D01*
X0223506Y0009104D01*
X0223342Y0009143D01*
X0223178Y0009187D01*
X0223016Y0009234D01*
X0222855Y0009285D01*
X0222695Y0009340D01*
X0222536Y0009399D01*
X0222379Y0009461D01*
X0222224Y0009528D01*
X0222070Y0009599D01*
X0221918Y0009673D01*
X0221768Y0009751D01*
X0221620Y0009832D01*
X0221474Y0009917D01*
X0221330Y0010006D01*
X0221188Y0010098D01*
X0221049Y0010194D01*
X0220912Y0010293D01*
X0220777Y0010395D01*
X0220645Y0010501D01*
X0220516Y0010610D01*
X0220389Y0010722D01*
X0220265Y0010837D01*
X0220144Y0010955D01*
X0220026Y0011076D01*
X0219911Y0011200D01*
X0219799Y0011327D01*
X0219690Y0011456D01*
X0219584Y0011588D01*
X0219482Y0011723D01*
X0219383Y0011860D01*
X0219287Y0011999D01*
X0219195Y0012141D01*
X0219106Y0012285D01*
X0219021Y0012431D01*
X0218940Y0012579D01*
X0218862Y0012729D01*
X0218788Y0012881D01*
X0218717Y0013035D01*
X0218650Y0013190D01*
X0218588Y0013347D01*
X0218529Y0013506D01*
X0218474Y0013666D01*
X0218423Y0013827D01*
X0218376Y0013989D01*
X0218332Y0014153D01*
X0218293Y0014317D01*
X0218258Y0014483D01*
X0218227Y0014649D01*
X0218201Y0014816D01*
X0218178Y0014984D01*
X0218159Y0015152D01*
X0218145Y0015320D01*
X0218134Y0015489D01*
X0218128Y0015658D01*
X0218126Y0015827D01*
X0007496Y0015827D02*
X0007498Y0015996D01*
X0007504Y0016165D01*
X0007515Y0016334D01*
X0007529Y0016502D01*
X0007548Y0016670D01*
X0007571Y0016838D01*
X0007597Y0017005D01*
X0007628Y0017171D01*
X0007663Y0017337D01*
X0007702Y0017501D01*
X0007746Y0017665D01*
X0007793Y0017827D01*
X0007844Y0017988D01*
X0007899Y0018148D01*
X0007958Y0018307D01*
X0008020Y0018464D01*
X0008087Y0018619D01*
X0008158Y0018773D01*
X0008232Y0018925D01*
X0008310Y0019075D01*
X0008391Y0019223D01*
X0008476Y0019369D01*
X0008565Y0019513D01*
X0008657Y0019655D01*
X0008753Y0019794D01*
X0008852Y0019931D01*
X0008954Y0020066D01*
X0009060Y0020198D01*
X0009169Y0020327D01*
X0009281Y0020454D01*
X0009396Y0020578D01*
X0009514Y0020699D01*
X0009635Y0020817D01*
X0009759Y0020932D01*
X0009886Y0021044D01*
X0010015Y0021153D01*
X0010147Y0021259D01*
X0010282Y0021361D01*
X0010419Y0021460D01*
X0010558Y0021556D01*
X0010700Y0021648D01*
X0010844Y0021737D01*
X0010990Y0021822D01*
X0011138Y0021903D01*
X0011288Y0021981D01*
X0011440Y0022055D01*
X0011594Y0022126D01*
X0011749Y0022193D01*
X0011906Y0022255D01*
X0012065Y0022314D01*
X0012225Y0022369D01*
X0012386Y0022420D01*
X0012548Y0022467D01*
X0012712Y0022511D01*
X0012876Y0022550D01*
X0013042Y0022585D01*
X0013208Y0022616D01*
X0013375Y0022642D01*
X0013543Y0022665D01*
X0013711Y0022684D01*
X0013879Y0022698D01*
X0014048Y0022709D01*
X0014217Y0022715D01*
X0014386Y0022717D01*
X0014555Y0022715D01*
X0014724Y0022709D01*
X0014893Y0022698D01*
X0015061Y0022684D01*
X0015229Y0022665D01*
X0015397Y0022642D01*
X0015564Y0022616D01*
X0015730Y0022585D01*
X0015896Y0022550D01*
X0016060Y0022511D01*
X0016224Y0022467D01*
X0016386Y0022420D01*
X0016547Y0022369D01*
X0016707Y0022314D01*
X0016866Y0022255D01*
X0017023Y0022193D01*
X0017178Y0022126D01*
X0017332Y0022055D01*
X0017484Y0021981D01*
X0017634Y0021903D01*
X0017782Y0021822D01*
X0017928Y0021737D01*
X0018072Y0021648D01*
X0018214Y0021556D01*
X0018353Y0021460D01*
X0018490Y0021361D01*
X0018625Y0021259D01*
X0018757Y0021153D01*
X0018886Y0021044D01*
X0019013Y0020932D01*
X0019137Y0020817D01*
X0019258Y0020699D01*
X0019376Y0020578D01*
X0019491Y0020454D01*
X0019603Y0020327D01*
X0019712Y0020198D01*
X0019818Y0020066D01*
X0019920Y0019931D01*
X0020019Y0019794D01*
X0020115Y0019655D01*
X0020207Y0019513D01*
X0020296Y0019369D01*
X0020381Y0019223D01*
X0020462Y0019075D01*
X0020540Y0018925D01*
X0020614Y0018773D01*
X0020685Y0018619D01*
X0020752Y0018464D01*
X0020814Y0018307D01*
X0020873Y0018148D01*
X0020928Y0017988D01*
X0020979Y0017827D01*
X0021026Y0017665D01*
X0021070Y0017501D01*
X0021109Y0017337D01*
X0021144Y0017171D01*
X0021175Y0017005D01*
X0021201Y0016838D01*
X0021224Y0016670D01*
X0021243Y0016502D01*
X0021257Y0016334D01*
X0021268Y0016165D01*
X0021274Y0015996D01*
X0021276Y0015827D01*
X0021274Y0015658D01*
X0021268Y0015489D01*
X0021257Y0015320D01*
X0021243Y0015152D01*
X0021224Y0014984D01*
X0021201Y0014816D01*
X0021175Y0014649D01*
X0021144Y0014483D01*
X0021109Y0014317D01*
X0021070Y0014153D01*
X0021026Y0013989D01*
X0020979Y0013827D01*
X0020928Y0013666D01*
X0020873Y0013506D01*
X0020814Y0013347D01*
X0020752Y0013190D01*
X0020685Y0013035D01*
X0020614Y0012881D01*
X0020540Y0012729D01*
X0020462Y0012579D01*
X0020381Y0012431D01*
X0020296Y0012285D01*
X0020207Y0012141D01*
X0020115Y0011999D01*
X0020019Y0011860D01*
X0019920Y0011723D01*
X0019818Y0011588D01*
X0019712Y0011456D01*
X0019603Y0011327D01*
X0019491Y0011200D01*
X0019376Y0011076D01*
X0019258Y0010955D01*
X0019137Y0010837D01*
X0019013Y0010722D01*
X0018886Y0010610D01*
X0018757Y0010501D01*
X0018625Y0010395D01*
X0018490Y0010293D01*
X0018353Y0010194D01*
X0018214Y0010098D01*
X0018072Y0010006D01*
X0017928Y0009917D01*
X0017782Y0009832D01*
X0017634Y0009751D01*
X0017484Y0009673D01*
X0017332Y0009599D01*
X0017178Y0009528D01*
X0017023Y0009461D01*
X0016866Y0009399D01*
X0016707Y0009340D01*
X0016547Y0009285D01*
X0016386Y0009234D01*
X0016224Y0009187D01*
X0016060Y0009143D01*
X0015896Y0009104D01*
X0015730Y0009069D01*
X0015564Y0009038D01*
X0015397Y0009012D01*
X0015229Y0008989D01*
X0015061Y0008970D01*
X0014893Y0008956D01*
X0014724Y0008945D01*
X0014555Y0008939D01*
X0014386Y0008937D01*
X0014217Y0008939D01*
X0014048Y0008945D01*
X0013879Y0008956D01*
X0013711Y0008970D01*
X0013543Y0008989D01*
X0013375Y0009012D01*
X0013208Y0009038D01*
X0013042Y0009069D01*
X0012876Y0009104D01*
X0012712Y0009143D01*
X0012548Y0009187D01*
X0012386Y0009234D01*
X0012225Y0009285D01*
X0012065Y0009340D01*
X0011906Y0009399D01*
X0011749Y0009461D01*
X0011594Y0009528D01*
X0011440Y0009599D01*
X0011288Y0009673D01*
X0011138Y0009751D01*
X0010990Y0009832D01*
X0010844Y0009917D01*
X0010700Y0010006D01*
X0010558Y0010098D01*
X0010419Y0010194D01*
X0010282Y0010293D01*
X0010147Y0010395D01*
X0010015Y0010501D01*
X0009886Y0010610D01*
X0009759Y0010722D01*
X0009635Y0010837D01*
X0009514Y0010955D01*
X0009396Y0011076D01*
X0009281Y0011200D01*
X0009169Y0011327D01*
X0009060Y0011456D01*
X0008954Y0011588D01*
X0008852Y0011723D01*
X0008753Y0011860D01*
X0008657Y0011999D01*
X0008565Y0012141D01*
X0008476Y0012285D01*
X0008391Y0012431D01*
X0008310Y0012579D01*
X0008232Y0012729D01*
X0008158Y0012881D01*
X0008087Y0013035D01*
X0008020Y0013190D01*
X0007958Y0013347D01*
X0007899Y0013506D01*
X0007844Y0013666D01*
X0007793Y0013827D01*
X0007746Y0013989D01*
X0007702Y0014153D01*
X0007663Y0014317D01*
X0007628Y0014483D01*
X0007597Y0014649D01*
X0007571Y0014816D01*
X0007548Y0014984D01*
X0007529Y0015152D01*
X0007515Y0015320D01*
X0007504Y0015489D01*
X0007498Y0015658D01*
X0007496Y0015827D01*
X0007496Y0226457D02*
X0007498Y0226626D01*
X0007504Y0226795D01*
X0007515Y0226964D01*
X0007529Y0227132D01*
X0007548Y0227300D01*
X0007571Y0227468D01*
X0007597Y0227635D01*
X0007628Y0227801D01*
X0007663Y0227967D01*
X0007702Y0228131D01*
X0007746Y0228295D01*
X0007793Y0228457D01*
X0007844Y0228618D01*
X0007899Y0228778D01*
X0007958Y0228937D01*
X0008020Y0229094D01*
X0008087Y0229249D01*
X0008158Y0229403D01*
X0008232Y0229555D01*
X0008310Y0229705D01*
X0008391Y0229853D01*
X0008476Y0229999D01*
X0008565Y0230143D01*
X0008657Y0230285D01*
X0008753Y0230424D01*
X0008852Y0230561D01*
X0008954Y0230696D01*
X0009060Y0230828D01*
X0009169Y0230957D01*
X0009281Y0231084D01*
X0009396Y0231208D01*
X0009514Y0231329D01*
X0009635Y0231447D01*
X0009759Y0231562D01*
X0009886Y0231674D01*
X0010015Y0231783D01*
X0010147Y0231889D01*
X0010282Y0231991D01*
X0010419Y0232090D01*
X0010558Y0232186D01*
X0010700Y0232278D01*
X0010844Y0232367D01*
X0010990Y0232452D01*
X0011138Y0232533D01*
X0011288Y0232611D01*
X0011440Y0232685D01*
X0011594Y0232756D01*
X0011749Y0232823D01*
X0011906Y0232885D01*
X0012065Y0232944D01*
X0012225Y0232999D01*
X0012386Y0233050D01*
X0012548Y0233097D01*
X0012712Y0233141D01*
X0012876Y0233180D01*
X0013042Y0233215D01*
X0013208Y0233246D01*
X0013375Y0233272D01*
X0013543Y0233295D01*
X0013711Y0233314D01*
X0013879Y0233328D01*
X0014048Y0233339D01*
X0014217Y0233345D01*
X0014386Y0233347D01*
X0014555Y0233345D01*
X0014724Y0233339D01*
X0014893Y0233328D01*
X0015061Y0233314D01*
X0015229Y0233295D01*
X0015397Y0233272D01*
X0015564Y0233246D01*
X0015730Y0233215D01*
X0015896Y0233180D01*
X0016060Y0233141D01*
X0016224Y0233097D01*
X0016386Y0233050D01*
X0016547Y0232999D01*
X0016707Y0232944D01*
X0016866Y0232885D01*
X0017023Y0232823D01*
X0017178Y0232756D01*
X0017332Y0232685D01*
X0017484Y0232611D01*
X0017634Y0232533D01*
X0017782Y0232452D01*
X0017928Y0232367D01*
X0018072Y0232278D01*
X0018214Y0232186D01*
X0018353Y0232090D01*
X0018490Y0231991D01*
X0018625Y0231889D01*
X0018757Y0231783D01*
X0018886Y0231674D01*
X0019013Y0231562D01*
X0019137Y0231447D01*
X0019258Y0231329D01*
X0019376Y0231208D01*
X0019491Y0231084D01*
X0019603Y0230957D01*
X0019712Y0230828D01*
X0019818Y0230696D01*
X0019920Y0230561D01*
X0020019Y0230424D01*
X0020115Y0230285D01*
X0020207Y0230143D01*
X0020296Y0229999D01*
X0020381Y0229853D01*
X0020462Y0229705D01*
X0020540Y0229555D01*
X0020614Y0229403D01*
X0020685Y0229249D01*
X0020752Y0229094D01*
X0020814Y0228937D01*
X0020873Y0228778D01*
X0020928Y0228618D01*
X0020979Y0228457D01*
X0021026Y0228295D01*
X0021070Y0228131D01*
X0021109Y0227967D01*
X0021144Y0227801D01*
X0021175Y0227635D01*
X0021201Y0227468D01*
X0021224Y0227300D01*
X0021243Y0227132D01*
X0021257Y0226964D01*
X0021268Y0226795D01*
X0021274Y0226626D01*
X0021276Y0226457D01*
X0021274Y0226288D01*
X0021268Y0226119D01*
X0021257Y0225950D01*
X0021243Y0225782D01*
X0021224Y0225614D01*
X0021201Y0225446D01*
X0021175Y0225279D01*
X0021144Y0225113D01*
X0021109Y0224947D01*
X0021070Y0224783D01*
X0021026Y0224619D01*
X0020979Y0224457D01*
X0020928Y0224296D01*
X0020873Y0224136D01*
X0020814Y0223977D01*
X0020752Y0223820D01*
X0020685Y0223665D01*
X0020614Y0223511D01*
X0020540Y0223359D01*
X0020462Y0223209D01*
X0020381Y0223061D01*
X0020296Y0222915D01*
X0020207Y0222771D01*
X0020115Y0222629D01*
X0020019Y0222490D01*
X0019920Y0222353D01*
X0019818Y0222218D01*
X0019712Y0222086D01*
X0019603Y0221957D01*
X0019491Y0221830D01*
X0019376Y0221706D01*
X0019258Y0221585D01*
X0019137Y0221467D01*
X0019013Y0221352D01*
X0018886Y0221240D01*
X0018757Y0221131D01*
X0018625Y0221025D01*
X0018490Y0220923D01*
X0018353Y0220824D01*
X0018214Y0220728D01*
X0018072Y0220636D01*
X0017928Y0220547D01*
X0017782Y0220462D01*
X0017634Y0220381D01*
X0017484Y0220303D01*
X0017332Y0220229D01*
X0017178Y0220158D01*
X0017023Y0220091D01*
X0016866Y0220029D01*
X0016707Y0219970D01*
X0016547Y0219915D01*
X0016386Y0219864D01*
X0016224Y0219817D01*
X0016060Y0219773D01*
X0015896Y0219734D01*
X0015730Y0219699D01*
X0015564Y0219668D01*
X0015397Y0219642D01*
X0015229Y0219619D01*
X0015061Y0219600D01*
X0014893Y0219586D01*
X0014724Y0219575D01*
X0014555Y0219569D01*
X0014386Y0219567D01*
X0014217Y0219569D01*
X0014048Y0219575D01*
X0013879Y0219586D01*
X0013711Y0219600D01*
X0013543Y0219619D01*
X0013375Y0219642D01*
X0013208Y0219668D01*
X0013042Y0219699D01*
X0012876Y0219734D01*
X0012712Y0219773D01*
X0012548Y0219817D01*
X0012386Y0219864D01*
X0012225Y0219915D01*
X0012065Y0219970D01*
X0011906Y0220029D01*
X0011749Y0220091D01*
X0011594Y0220158D01*
X0011440Y0220229D01*
X0011288Y0220303D01*
X0011138Y0220381D01*
X0010990Y0220462D01*
X0010844Y0220547D01*
X0010700Y0220636D01*
X0010558Y0220728D01*
X0010419Y0220824D01*
X0010282Y0220923D01*
X0010147Y0221025D01*
X0010015Y0221131D01*
X0009886Y0221240D01*
X0009759Y0221352D01*
X0009635Y0221467D01*
X0009514Y0221585D01*
X0009396Y0221706D01*
X0009281Y0221830D01*
X0009169Y0221957D01*
X0009060Y0222086D01*
X0008954Y0222218D01*
X0008852Y0222353D01*
X0008753Y0222490D01*
X0008657Y0222629D01*
X0008565Y0222771D01*
X0008476Y0222915D01*
X0008391Y0223061D01*
X0008310Y0223209D01*
X0008232Y0223359D01*
X0008158Y0223511D01*
X0008087Y0223665D01*
X0008020Y0223820D01*
X0007958Y0223977D01*
X0007899Y0224136D01*
X0007844Y0224296D01*
X0007793Y0224457D01*
X0007746Y0224619D01*
X0007702Y0224783D01*
X0007663Y0224947D01*
X0007628Y0225113D01*
X0007597Y0225279D01*
X0007571Y0225446D01*
X0007548Y0225614D01*
X0007529Y0225782D01*
X0007515Y0225950D01*
X0007504Y0226119D01*
X0007498Y0226288D01*
X0007496Y0226457D01*
X0218126Y0226457D02*
X0218128Y0226626D01*
X0218134Y0226795D01*
X0218145Y0226964D01*
X0218159Y0227132D01*
X0218178Y0227300D01*
X0218201Y0227468D01*
X0218227Y0227635D01*
X0218258Y0227801D01*
X0218293Y0227967D01*
X0218332Y0228131D01*
X0218376Y0228295D01*
X0218423Y0228457D01*
X0218474Y0228618D01*
X0218529Y0228778D01*
X0218588Y0228937D01*
X0218650Y0229094D01*
X0218717Y0229249D01*
X0218788Y0229403D01*
X0218862Y0229555D01*
X0218940Y0229705D01*
X0219021Y0229853D01*
X0219106Y0229999D01*
X0219195Y0230143D01*
X0219287Y0230285D01*
X0219383Y0230424D01*
X0219482Y0230561D01*
X0219584Y0230696D01*
X0219690Y0230828D01*
X0219799Y0230957D01*
X0219911Y0231084D01*
X0220026Y0231208D01*
X0220144Y0231329D01*
X0220265Y0231447D01*
X0220389Y0231562D01*
X0220516Y0231674D01*
X0220645Y0231783D01*
X0220777Y0231889D01*
X0220912Y0231991D01*
X0221049Y0232090D01*
X0221188Y0232186D01*
X0221330Y0232278D01*
X0221474Y0232367D01*
X0221620Y0232452D01*
X0221768Y0232533D01*
X0221918Y0232611D01*
X0222070Y0232685D01*
X0222224Y0232756D01*
X0222379Y0232823D01*
X0222536Y0232885D01*
X0222695Y0232944D01*
X0222855Y0232999D01*
X0223016Y0233050D01*
X0223178Y0233097D01*
X0223342Y0233141D01*
X0223506Y0233180D01*
X0223672Y0233215D01*
X0223838Y0233246D01*
X0224005Y0233272D01*
X0224173Y0233295D01*
X0224341Y0233314D01*
X0224509Y0233328D01*
X0224678Y0233339D01*
X0224847Y0233345D01*
X0225016Y0233347D01*
X0225185Y0233345D01*
X0225354Y0233339D01*
X0225523Y0233328D01*
X0225691Y0233314D01*
X0225859Y0233295D01*
X0226027Y0233272D01*
X0226194Y0233246D01*
X0226360Y0233215D01*
X0226526Y0233180D01*
X0226690Y0233141D01*
X0226854Y0233097D01*
X0227016Y0233050D01*
X0227177Y0232999D01*
X0227337Y0232944D01*
X0227496Y0232885D01*
X0227653Y0232823D01*
X0227808Y0232756D01*
X0227962Y0232685D01*
X0228114Y0232611D01*
X0228264Y0232533D01*
X0228412Y0232452D01*
X0228558Y0232367D01*
X0228702Y0232278D01*
X0228844Y0232186D01*
X0228983Y0232090D01*
X0229120Y0231991D01*
X0229255Y0231889D01*
X0229387Y0231783D01*
X0229516Y0231674D01*
X0229643Y0231562D01*
X0229767Y0231447D01*
X0229888Y0231329D01*
X0230006Y0231208D01*
X0230121Y0231084D01*
X0230233Y0230957D01*
X0230342Y0230828D01*
X0230448Y0230696D01*
X0230550Y0230561D01*
X0230649Y0230424D01*
X0230745Y0230285D01*
X0230837Y0230143D01*
X0230926Y0229999D01*
X0231011Y0229853D01*
X0231092Y0229705D01*
X0231170Y0229555D01*
X0231244Y0229403D01*
X0231315Y0229249D01*
X0231382Y0229094D01*
X0231444Y0228937D01*
X0231503Y0228778D01*
X0231558Y0228618D01*
X0231609Y0228457D01*
X0231656Y0228295D01*
X0231700Y0228131D01*
X0231739Y0227967D01*
X0231774Y0227801D01*
X0231805Y0227635D01*
X0231831Y0227468D01*
X0231854Y0227300D01*
X0231873Y0227132D01*
X0231887Y0226964D01*
X0231898Y0226795D01*
X0231904Y0226626D01*
X0231906Y0226457D01*
X0231904Y0226288D01*
X0231898Y0226119D01*
X0231887Y0225950D01*
X0231873Y0225782D01*
X0231854Y0225614D01*
X0231831Y0225446D01*
X0231805Y0225279D01*
X0231774Y0225113D01*
X0231739Y0224947D01*
X0231700Y0224783D01*
X0231656Y0224619D01*
X0231609Y0224457D01*
X0231558Y0224296D01*
X0231503Y0224136D01*
X0231444Y0223977D01*
X0231382Y0223820D01*
X0231315Y0223665D01*
X0231244Y0223511D01*
X0231170Y0223359D01*
X0231092Y0223209D01*
X0231011Y0223061D01*
X0230926Y0222915D01*
X0230837Y0222771D01*
X0230745Y0222629D01*
X0230649Y0222490D01*
X0230550Y0222353D01*
X0230448Y0222218D01*
X0230342Y0222086D01*
X0230233Y0221957D01*
X0230121Y0221830D01*
X0230006Y0221706D01*
X0229888Y0221585D01*
X0229767Y0221467D01*
X0229643Y0221352D01*
X0229516Y0221240D01*
X0229387Y0221131D01*
X0229255Y0221025D01*
X0229120Y0220923D01*
X0228983Y0220824D01*
X0228844Y0220728D01*
X0228702Y0220636D01*
X0228558Y0220547D01*
X0228412Y0220462D01*
X0228264Y0220381D01*
X0228114Y0220303D01*
X0227962Y0220229D01*
X0227808Y0220158D01*
X0227653Y0220091D01*
X0227496Y0220029D01*
X0227337Y0219970D01*
X0227177Y0219915D01*
X0227016Y0219864D01*
X0226854Y0219817D01*
X0226690Y0219773D01*
X0226526Y0219734D01*
X0226360Y0219699D01*
X0226194Y0219668D01*
X0226027Y0219642D01*
X0225859Y0219619D01*
X0225691Y0219600D01*
X0225523Y0219586D01*
X0225354Y0219575D01*
X0225185Y0219569D01*
X0225016Y0219567D01*
X0224847Y0219569D01*
X0224678Y0219575D01*
X0224509Y0219586D01*
X0224341Y0219600D01*
X0224173Y0219619D01*
X0224005Y0219642D01*
X0223838Y0219668D01*
X0223672Y0219699D01*
X0223506Y0219734D01*
X0223342Y0219773D01*
X0223178Y0219817D01*
X0223016Y0219864D01*
X0222855Y0219915D01*
X0222695Y0219970D01*
X0222536Y0220029D01*
X0222379Y0220091D01*
X0222224Y0220158D01*
X0222070Y0220229D01*
X0221918Y0220303D01*
X0221768Y0220381D01*
X0221620Y0220462D01*
X0221474Y0220547D01*
X0221330Y0220636D01*
X0221188Y0220728D01*
X0221049Y0220824D01*
X0220912Y0220923D01*
X0220777Y0221025D01*
X0220645Y0221131D01*
X0220516Y0221240D01*
X0220389Y0221352D01*
X0220265Y0221467D01*
X0220144Y0221585D01*
X0220026Y0221706D01*
X0219911Y0221830D01*
X0219799Y0221957D01*
X0219690Y0222086D01*
X0219584Y0222218D01*
X0219482Y0222353D01*
X0219383Y0222490D01*
X0219287Y0222629D01*
X0219195Y0222771D01*
X0219106Y0222915D01*
X0219021Y0223061D01*
X0218940Y0223209D01*
X0218862Y0223359D01*
X0218788Y0223511D01*
X0218717Y0223665D01*
X0218650Y0223820D01*
X0218588Y0223977D01*
X0218529Y0224136D01*
X0218474Y0224296D01*
X0218423Y0224457D01*
X0218376Y0224619D01*
X0218332Y0224783D01*
X0218293Y0224947D01*
X0218258Y0225113D01*
X0218227Y0225279D01*
X0218201Y0225446D01*
X0218178Y0225614D01*
X0218159Y0225782D01*
X0218145Y0225950D01*
X0218134Y0226119D01*
X0218128Y0226288D01*
X0218126Y0226457D01*
D12*
G36*
X0186654Y0191437D02*
X0182201Y0195890D01*
X0189716Y0203405D01*
X0194169Y0198952D01*
X0186654Y0191437D01*
G37*
G36*
X0194449Y0183642D02*
X0189996Y0188095D01*
X0197511Y0195610D01*
X0201964Y0191157D01*
X0194449Y0183642D01*
G37*
G36*
X0208457Y0160464D02*
X0206047Y0166282D01*
X0215867Y0170350D01*
X0218277Y0164532D01*
X0208457Y0160464D01*
G37*
G36*
X0212676Y0150280D02*
X0210266Y0156098D01*
X0220086Y0160166D01*
X0222496Y0154348D01*
X0212676Y0150280D01*
G37*
G36*
X0210266Y0086186D02*
X0212676Y0092004D01*
X0222496Y0087936D01*
X0220086Y0082118D01*
X0210266Y0086186D01*
G37*
G36*
X0206047Y0076001D02*
X0208457Y0081819D01*
X0218277Y0077751D01*
X0215867Y0071933D01*
X0206047Y0076001D01*
G37*
G36*
X0189996Y0054188D02*
X0194449Y0058641D01*
X0201964Y0051126D01*
X0197511Y0046673D01*
X0189996Y0054188D01*
G37*
G36*
X0182201Y0046393D02*
X0186654Y0050846D01*
X0194169Y0043331D01*
X0189716Y0038878D01*
X0182201Y0046393D01*
G37*
G36*
X0159023Y0032385D02*
X0164841Y0034795D01*
X0168909Y0024975D01*
X0163091Y0022565D01*
X0159023Y0032385D01*
G37*
G36*
X0148839Y0028167D02*
X0154657Y0030577D01*
X0158725Y0020757D01*
X0152907Y0018347D01*
X0148839Y0028167D01*
G37*
X0125213Y0018780D03*
X0114189Y0018780D03*
G36*
X0084745Y0030577D02*
X0090563Y0028167D01*
X0086495Y0018347D01*
X0080677Y0020757D01*
X0084745Y0030577D01*
G37*
G36*
X0074560Y0034795D02*
X0080378Y0032385D01*
X0076310Y0022565D01*
X0070492Y0024975D01*
X0074560Y0034795D01*
G37*
G36*
X0052747Y0050846D02*
X0057200Y0046393D01*
X0049685Y0038878D01*
X0045232Y0043331D01*
X0052747Y0050846D01*
G37*
G36*
X0044952Y0058641D02*
X0049405Y0054188D01*
X0041890Y0046673D01*
X0037437Y0051126D01*
X0044952Y0058641D01*
G37*
G36*
X0030944Y0081819D02*
X0033354Y0076001D01*
X0023534Y0071933D01*
X0021124Y0077751D01*
X0030944Y0081819D01*
G37*
G36*
X0026726Y0092004D02*
X0029136Y0086186D01*
X0019316Y0082118D01*
X0016906Y0087936D01*
X0026726Y0092004D01*
G37*
G36*
X0029136Y0156098D02*
X0026726Y0150280D01*
X0016906Y0154348D01*
X0019316Y0160166D01*
X0029136Y0156098D01*
G37*
G36*
X0033354Y0166282D02*
X0030944Y0160464D01*
X0021124Y0164532D01*
X0023534Y0170350D01*
X0033354Y0166282D01*
G37*
G36*
X0049405Y0188095D02*
X0044952Y0183642D01*
X0037437Y0191157D01*
X0041890Y0195610D01*
X0049405Y0188095D01*
G37*
G36*
X0057200Y0195890D02*
X0052747Y0191437D01*
X0045232Y0198952D01*
X0049685Y0203405D01*
X0057200Y0195890D01*
G37*
G36*
X0080378Y0209898D02*
X0074560Y0207488D01*
X0070492Y0217308D01*
X0076310Y0219718D01*
X0080378Y0209898D01*
G37*
G36*
X0090563Y0214117D02*
X0084745Y0211707D01*
X0080677Y0221527D01*
X0086495Y0223937D01*
X0090563Y0214117D01*
G37*
X0114189Y0223504D03*
X0125213Y0223504D03*
G36*
X0154657Y0211707D02*
X0148839Y0214117D01*
X0152907Y0223937D01*
X0158725Y0221527D01*
X0154657Y0211707D01*
G37*
G36*
X0164841Y0207488D02*
X0159023Y0209898D01*
X0163091Y0219718D01*
X0168909Y0217308D01*
X0164841Y0207488D01*
G37*
D13*
X0222063Y0126654D03*
X0222063Y0115630D03*
X0017339Y0115630D03*
X0017339Y0126654D03*
D14*
X0027181Y0213661D03*
X0027181Y0028622D03*
X0212220Y0028622D03*
X0212220Y0213661D03*
D15*
G36*
X0166749Y0186006D02*
X0170924Y0181831D01*
X0168419Y0179326D01*
X0164244Y0183501D01*
X0166749Y0186006D01*
G37*
G36*
X0157562Y0176819D02*
X0161737Y0172644D01*
X0159232Y0170139D01*
X0155057Y0174314D01*
X0157562Y0176819D01*
G37*
G36*
X0171203Y0163178D02*
X0175378Y0159003D01*
X0172873Y0156498D01*
X0168698Y0160673D01*
X0171203Y0163178D01*
G37*
G36*
X0180390Y0172365D02*
X0184565Y0168190D01*
X0182060Y0165685D01*
X0177885Y0169860D01*
X0180390Y0172365D01*
G37*
X0129346Y0185512D03*
X0129346Y0198504D03*
X0110055Y0198504D03*
X0110055Y0185512D03*
G36*
X0077664Y0172644D02*
X0081839Y0176819D01*
X0084344Y0174314D01*
X0080169Y0170139D01*
X0077664Y0172644D01*
G37*
G36*
X0068478Y0181831D02*
X0072653Y0186006D01*
X0075158Y0183501D01*
X0070983Y0179326D01*
X0068478Y0181831D01*
G37*
G36*
X0054837Y0168190D02*
X0059012Y0172365D01*
X0061517Y0169860D01*
X0057342Y0165685D01*
X0054837Y0168190D01*
G37*
G36*
X0064023Y0159003D02*
X0068198Y0163178D01*
X0070703Y0160673D01*
X0066528Y0156498D01*
X0064023Y0159003D01*
G37*
G36*
X0068198Y0079105D02*
X0064023Y0083280D01*
X0066528Y0085785D01*
X0070703Y0081610D01*
X0068198Y0079105D01*
G37*
G36*
X0059012Y0069919D02*
X0054837Y0074094D01*
X0057342Y0076599D01*
X0061517Y0072424D01*
X0059012Y0069919D01*
G37*
G36*
X0072653Y0056278D02*
X0068478Y0060453D01*
X0070983Y0062958D01*
X0075158Y0058783D01*
X0072653Y0056278D01*
G37*
G36*
X0081839Y0065464D02*
X0077664Y0069639D01*
X0080169Y0072144D01*
X0084344Y0067969D01*
X0081839Y0065464D01*
G37*
X0110055Y0056772D03*
X0110055Y0043780D03*
X0129346Y0043780D03*
X0129346Y0056772D03*
G36*
X0161737Y0069639D02*
X0157562Y0065464D01*
X0155057Y0067969D01*
X0159232Y0072144D01*
X0161737Y0069639D01*
G37*
G36*
X0170924Y0060453D02*
X0166749Y0056278D01*
X0164244Y0058783D01*
X0168419Y0062958D01*
X0170924Y0060453D01*
G37*
G36*
X0184565Y0074094D02*
X0180390Y0069919D01*
X0177885Y0072424D01*
X0182060Y0076599D01*
X0184565Y0074094D01*
G37*
G36*
X0175378Y0083280D02*
X0171203Y0079105D01*
X0168698Y0081610D01*
X0172873Y0085785D01*
X0175378Y0083280D01*
G37*
D16*
X0184071Y0111496D03*
X0197063Y0111496D03*
X0197063Y0130787D03*
X0184071Y0130787D03*
X0055331Y0130787D03*
X0042339Y0130787D03*
X0042339Y0111496D03*
X0055331Y0111496D03*
D17*
G36*
X0054335Y0098869D02*
X0055540Y0095960D01*
X0051905Y0094453D01*
X0050700Y0097362D01*
X0054335Y0098869D01*
G37*
G36*
X0056520Y0093595D02*
X0057725Y0090686D01*
X0054090Y0089179D01*
X0052885Y0092088D01*
X0056520Y0093595D01*
G37*
G36*
X0089245Y0059166D02*
X0092154Y0057961D01*
X0090647Y0054326D01*
X0087738Y0055531D01*
X0089245Y0059166D01*
G37*
G36*
X0094519Y0056981D02*
X0097428Y0055776D01*
X0095921Y0052141D01*
X0093012Y0053346D01*
X0094519Y0056981D01*
G37*
G36*
X0141974Y0055776D02*
X0144883Y0056981D01*
X0146390Y0053346D01*
X0143481Y0052141D01*
X0141974Y0055776D01*
G37*
G36*
X0147248Y0057961D02*
X0150157Y0059166D01*
X0151664Y0055531D01*
X0148755Y0054326D01*
X0147248Y0057961D01*
G37*
G36*
X0181677Y0090686D02*
X0182882Y0093595D01*
X0186517Y0092088D01*
X0185312Y0089179D01*
X0181677Y0090686D01*
G37*
G36*
X0183861Y0095960D02*
X0185066Y0098869D01*
X0188701Y0097362D01*
X0187496Y0094453D01*
X0183861Y0095960D01*
G37*
G36*
X0185066Y0143415D02*
X0183861Y0146324D01*
X0187496Y0147831D01*
X0188701Y0144922D01*
X0185066Y0143415D01*
G37*
G36*
X0182882Y0148689D02*
X0181677Y0151598D01*
X0185312Y0153105D01*
X0186517Y0150196D01*
X0182882Y0148689D01*
G37*
G36*
X0150157Y0183118D02*
X0147248Y0184323D01*
X0148755Y0187958D01*
X0151664Y0186753D01*
X0150157Y0183118D01*
G37*
G36*
X0144883Y0185302D02*
X0141974Y0186507D01*
X0143481Y0190142D01*
X0146390Y0188937D01*
X0144883Y0185302D01*
G37*
G36*
X0097428Y0186507D02*
X0094519Y0185302D01*
X0093012Y0188937D01*
X0095921Y0190142D01*
X0097428Y0186507D01*
G37*
G36*
X0092154Y0184323D02*
X0089245Y0183118D01*
X0087738Y0186753D01*
X0090647Y0187958D01*
X0092154Y0184323D01*
G37*
G36*
X0057725Y0151598D02*
X0056520Y0148689D01*
X0052885Y0150196D01*
X0054090Y0153105D01*
X0057725Y0151598D01*
G37*
G36*
X0055540Y0146324D02*
X0054335Y0143415D01*
X0050700Y0144922D01*
X0051905Y0147831D01*
X0055540Y0146324D01*
G37*
D18*
X0055305Y0150897D02*
X0048835Y0153622D01*
X0033087Y0156575D02*
X0026197Y0121142D01*
X0033087Y0085709D01*
X0032102Y0090630D01*
X0023021Y0087061D01*
X0033087Y0085709D02*
X0053756Y0054213D01*
X0084268Y0034528D01*
X0119701Y0027638D01*
X0155134Y0035512D01*
X0152181Y0034528D01*
X0153782Y0024462D01*
X0163966Y0028680D02*
X0188185Y0044862D01*
X0195980Y0052657D02*
X0212162Y0076876D01*
X0205331Y0085709D02*
X0213205Y0121142D01*
X0206315Y0156575D01*
X0207299Y0152638D01*
X0216381Y0155223D01*
X0206315Y0156575D02*
X0185646Y0187087D01*
X0155134Y0207756D01*
X0119701Y0214646D01*
X0084268Y0207756D01*
X0088205Y0208740D01*
X0085620Y0217822D01*
X0084268Y0207756D02*
X0053756Y0188071D01*
X0033087Y0156575D01*
X0027239Y0165407D02*
X0043421Y0189626D01*
X0051216Y0197421D02*
X0075435Y0213603D01*
X0093126Y0192992D02*
X0095220Y0187722D01*
X0110055Y0198504D02*
X0109858Y0203819D01*
X0125213Y0223504D02*
X0153782Y0217822D01*
X0163966Y0213603D02*
X0188185Y0197421D01*
X0195980Y0189626D02*
X0212162Y0165407D01*
X0192535Y0147717D02*
X0186281Y0145623D01*
X0197063Y0130787D02*
X0201394Y0130984D01*
X0222063Y0115630D02*
X0216381Y0087061D01*
X0205331Y0085709D02*
X0184661Y0055197D01*
X0155134Y0035512D01*
X0146276Y0048307D02*
X0144182Y0054561D01*
X0129346Y0043780D02*
X0129543Y0038465D01*
X0114189Y0018780D02*
X0085620Y0024462D01*
X0075435Y0028680D02*
X0051216Y0044862D01*
X0043421Y0052657D02*
X0027239Y0076876D01*
X0046866Y0094567D02*
X0053120Y0096661D01*
X0042339Y0111496D02*
X0037024Y0111299D01*
X0017339Y0126654D02*
X0023021Y0155223D01*
X0054740Y0172323D02*
X0058177Y0169025D01*
X0149456Y0185538D02*
X0152181Y0191024D01*
X0167584Y0182666D02*
X0170882Y0186102D01*
X0184097Y0091387D02*
X0191551Y0088661D01*
X0181225Y0073259D02*
X0185646Y0068976D01*
X0089946Y0056746D02*
X0087220Y0051260D01*
X0071818Y0059618D02*
X0067535Y0055197D01*
D19*
X0067535Y0055197D03*
X0087220Y0051260D03*
X0129543Y0038465D03*
X0146276Y0048307D03*
X0133480Y0018780D03*
X0185646Y0068976D03*
X0191551Y0088661D03*
X0201394Y0130984D03*
X0192535Y0147717D03*
X0222063Y0133937D03*
X0170882Y0186102D03*
X0152181Y0191024D03*
X0119701Y0214646D03*
X0109858Y0203819D03*
X0093126Y0192992D03*
X0103953Y0179213D03*
X0111827Y0178228D03*
X0107890Y0223504D03*
X0054740Y0172323D03*
X0048835Y0153622D03*
X0037024Y0111299D03*
X0046866Y0094567D03*
X0017339Y0108346D03*
D20*
X0017339Y0115630D01*
X0107890Y0223504D02*
X0114189Y0223504D01*
X0222063Y0133937D02*
X0222063Y0126654D01*
X0133480Y0018780D02*
X0125213Y0018780D01*
D21*
X0110055Y0043780D02*
X0098047Y0061102D01*
X0081004Y0068804D01*
X0058177Y0073259D02*
X0061630Y0093583D01*
X0055331Y0111496D01*
X0042339Y0130787D02*
X0059661Y0141811D01*
X0067363Y0159838D01*
X0110055Y0180000D02*
X0111827Y0178228D01*
X0110055Y0180000D02*
X0110055Y0185512D01*
X0129346Y0198504D02*
X0140370Y0181181D01*
X0158397Y0173479D01*
X0181225Y0169025D02*
X0176787Y0150669D01*
X0184071Y0130787D01*
X0197063Y0111496D02*
X0179740Y0100472D01*
X0172038Y0082445D01*
X0167584Y0059618D02*
X0147260Y0063071D01*
X0129346Y0056772D01*
D22*
X0103953Y0179213D02*
X0100016Y0179213D01*
M02*
