G75*
%MOIN*%
%OFA0B0*%
%FSLAX25Y25*%
%IPPOS*%
%LPD*%
%AMOC8*
5,1,8,0,0,1.08239X$1,22.5*
%
%ADD10C,0.01181*%
%ADD11C,0.00000*%
D10*
X0009465Y0003031D02*
X0229937Y0003031D01*
X0229937Y0003032D02*
X0230127Y0003034D01*
X0230317Y0003041D01*
X0230507Y0003053D01*
X0230697Y0003069D01*
X0230886Y0003089D01*
X0231075Y0003115D01*
X0231263Y0003144D01*
X0231450Y0003179D01*
X0231636Y0003218D01*
X0231821Y0003261D01*
X0232006Y0003309D01*
X0232189Y0003361D01*
X0232370Y0003417D01*
X0232550Y0003478D01*
X0232729Y0003544D01*
X0232906Y0003613D01*
X0233082Y0003687D01*
X0233255Y0003765D01*
X0233427Y0003848D01*
X0233596Y0003934D01*
X0233764Y0004024D01*
X0233929Y0004119D01*
X0234092Y0004217D01*
X0234252Y0004320D01*
X0234410Y0004426D01*
X0234565Y0004536D01*
X0234718Y0004649D01*
X0234868Y0004767D01*
X0235014Y0004888D01*
X0235158Y0005012D01*
X0235299Y0005140D01*
X0235437Y0005271D01*
X0235572Y0005406D01*
X0235703Y0005544D01*
X0235831Y0005685D01*
X0235955Y0005829D01*
X0236076Y0005975D01*
X0236194Y0006125D01*
X0236307Y0006278D01*
X0236417Y0006433D01*
X0236523Y0006591D01*
X0236626Y0006751D01*
X0236724Y0006914D01*
X0236819Y0007079D01*
X0236909Y0007247D01*
X0236995Y0007416D01*
X0237078Y0007588D01*
X0237156Y0007761D01*
X0237230Y0007937D01*
X0237299Y0008114D01*
X0237365Y0008293D01*
X0237426Y0008473D01*
X0237482Y0008654D01*
X0237534Y0008837D01*
X0237582Y0009022D01*
X0237625Y0009207D01*
X0237664Y0009393D01*
X0237699Y0009580D01*
X0237728Y0009768D01*
X0237754Y0009957D01*
X0237774Y0010146D01*
X0237790Y0010336D01*
X0237802Y0010526D01*
X0237809Y0010716D01*
X0237811Y0010906D01*
X0237811Y0231378D01*
X0237809Y0231568D01*
X0237802Y0231758D01*
X0237790Y0231948D01*
X0237774Y0232138D01*
X0237754Y0232327D01*
X0237728Y0232516D01*
X0237699Y0232704D01*
X0237664Y0232891D01*
X0237625Y0233077D01*
X0237582Y0233262D01*
X0237534Y0233447D01*
X0237482Y0233630D01*
X0237426Y0233811D01*
X0237365Y0233991D01*
X0237299Y0234170D01*
X0237230Y0234347D01*
X0237156Y0234523D01*
X0237078Y0234696D01*
X0236995Y0234868D01*
X0236909Y0235037D01*
X0236819Y0235205D01*
X0236724Y0235370D01*
X0236626Y0235533D01*
X0236523Y0235693D01*
X0236417Y0235851D01*
X0236307Y0236006D01*
X0236194Y0236159D01*
X0236076Y0236309D01*
X0235955Y0236455D01*
X0235831Y0236599D01*
X0235703Y0236740D01*
X0235572Y0236878D01*
X0235437Y0237013D01*
X0235299Y0237144D01*
X0235158Y0237272D01*
X0235014Y0237396D01*
X0234868Y0237517D01*
X0234718Y0237635D01*
X0234565Y0237748D01*
X0234410Y0237858D01*
X0234252Y0237964D01*
X0234092Y0238067D01*
X0233929Y0238165D01*
X0233764Y0238260D01*
X0233596Y0238350D01*
X0233427Y0238436D01*
X0233255Y0238519D01*
X0233082Y0238597D01*
X0232906Y0238671D01*
X0232729Y0238740D01*
X0232550Y0238806D01*
X0232370Y0238867D01*
X0232189Y0238923D01*
X0232006Y0238975D01*
X0231821Y0239023D01*
X0231636Y0239066D01*
X0231450Y0239105D01*
X0231263Y0239140D01*
X0231075Y0239169D01*
X0230886Y0239195D01*
X0230697Y0239215D01*
X0230507Y0239231D01*
X0230317Y0239243D01*
X0230127Y0239250D01*
X0229937Y0239252D01*
X0009465Y0239252D01*
X0009275Y0239250D01*
X0009085Y0239243D01*
X0008895Y0239231D01*
X0008705Y0239215D01*
X0008516Y0239195D01*
X0008327Y0239169D01*
X0008139Y0239140D01*
X0007952Y0239105D01*
X0007766Y0239066D01*
X0007581Y0239023D01*
X0007396Y0238975D01*
X0007213Y0238923D01*
X0007032Y0238867D01*
X0006852Y0238806D01*
X0006673Y0238740D01*
X0006496Y0238671D01*
X0006320Y0238597D01*
X0006147Y0238519D01*
X0005975Y0238436D01*
X0005806Y0238350D01*
X0005638Y0238260D01*
X0005473Y0238165D01*
X0005310Y0238067D01*
X0005150Y0237964D01*
X0004992Y0237858D01*
X0004837Y0237748D01*
X0004684Y0237635D01*
X0004534Y0237517D01*
X0004388Y0237396D01*
X0004244Y0237272D01*
X0004103Y0237144D01*
X0003965Y0237013D01*
X0003830Y0236878D01*
X0003699Y0236740D01*
X0003571Y0236599D01*
X0003447Y0236455D01*
X0003326Y0236309D01*
X0003208Y0236159D01*
X0003095Y0236006D01*
X0002985Y0235851D01*
X0002879Y0235693D01*
X0002776Y0235533D01*
X0002678Y0235370D01*
X0002583Y0235205D01*
X0002493Y0235037D01*
X0002407Y0234868D01*
X0002324Y0234696D01*
X0002246Y0234523D01*
X0002172Y0234347D01*
X0002103Y0234170D01*
X0002037Y0233991D01*
X0001976Y0233811D01*
X0001920Y0233630D01*
X0001868Y0233447D01*
X0001820Y0233262D01*
X0001777Y0233077D01*
X0001738Y0232891D01*
X0001703Y0232704D01*
X0001674Y0232516D01*
X0001648Y0232327D01*
X0001628Y0232138D01*
X0001612Y0231948D01*
X0001600Y0231758D01*
X0001593Y0231568D01*
X0001591Y0231378D01*
X0001591Y0010906D01*
X0001593Y0010716D01*
X0001600Y0010526D01*
X0001612Y0010336D01*
X0001628Y0010146D01*
X0001648Y0009957D01*
X0001674Y0009768D01*
X0001703Y0009580D01*
X0001738Y0009393D01*
X0001777Y0009207D01*
X0001820Y0009022D01*
X0001868Y0008837D01*
X0001920Y0008654D01*
X0001976Y0008473D01*
X0002037Y0008293D01*
X0002103Y0008114D01*
X0002172Y0007937D01*
X0002246Y0007761D01*
X0002324Y0007588D01*
X0002407Y0007416D01*
X0002493Y0007247D01*
X0002583Y0007079D01*
X0002678Y0006914D01*
X0002776Y0006751D01*
X0002879Y0006591D01*
X0002985Y0006433D01*
X0003095Y0006278D01*
X0003208Y0006125D01*
X0003326Y0005975D01*
X0003447Y0005829D01*
X0003571Y0005685D01*
X0003699Y0005544D01*
X0003830Y0005406D01*
X0003965Y0005271D01*
X0004103Y0005140D01*
X0004244Y0005012D01*
X0004388Y0004888D01*
X0004534Y0004767D01*
X0004684Y0004649D01*
X0004837Y0004536D01*
X0004992Y0004426D01*
X0005150Y0004320D01*
X0005310Y0004217D01*
X0005473Y0004119D01*
X0005638Y0004024D01*
X0005806Y0003934D01*
X0005975Y0003848D01*
X0006147Y0003765D01*
X0006320Y0003687D01*
X0006496Y0003613D01*
X0006673Y0003544D01*
X0006852Y0003478D01*
X0007032Y0003417D01*
X0007213Y0003361D01*
X0007396Y0003309D01*
X0007581Y0003261D01*
X0007766Y0003218D01*
X0007952Y0003179D01*
X0008139Y0003144D01*
X0008327Y0003115D01*
X0008516Y0003089D01*
X0008705Y0003069D01*
X0008895Y0003053D01*
X0009085Y0003041D01*
X0009275Y0003034D01*
X0009465Y0003032D01*
X0068520Y0121142D02*
X0068535Y0122398D01*
X0068582Y0123653D01*
X0068659Y0124907D01*
X0068766Y0126159D01*
X0068905Y0127407D01*
X0069074Y0128652D01*
X0069274Y0129892D01*
X0069503Y0131127D01*
X0069764Y0132356D01*
X0070054Y0133578D01*
X0070374Y0134793D01*
X0070724Y0135999D01*
X0071103Y0137197D01*
X0071512Y0138384D01*
X0071949Y0139562D01*
X0072416Y0140728D01*
X0072911Y0141883D01*
X0073434Y0143025D01*
X0073985Y0144154D01*
X0074563Y0145269D01*
X0075169Y0146369D01*
X0075802Y0147454D01*
X0076461Y0148524D01*
X0077146Y0149577D01*
X0077856Y0150612D01*
X0078592Y0151630D01*
X0079353Y0152630D01*
X0080138Y0153611D01*
X0080946Y0154572D01*
X0081778Y0155513D01*
X0082633Y0156433D01*
X0083511Y0157332D01*
X0084410Y0158210D01*
X0085330Y0159065D01*
X0086271Y0159897D01*
X0087232Y0160705D01*
X0088213Y0161490D01*
X0089213Y0162251D01*
X0090231Y0162987D01*
X0091266Y0163697D01*
X0092319Y0164382D01*
X0093389Y0165041D01*
X0094474Y0165674D01*
X0095574Y0166280D01*
X0096689Y0166858D01*
X0097818Y0167409D01*
X0098960Y0167932D01*
X0100115Y0168427D01*
X0101281Y0168894D01*
X0102459Y0169331D01*
X0103646Y0169740D01*
X0104844Y0170119D01*
X0106050Y0170469D01*
X0107265Y0170789D01*
X0108487Y0171079D01*
X0109716Y0171340D01*
X0110951Y0171569D01*
X0112191Y0171769D01*
X0113436Y0171938D01*
X0114684Y0172077D01*
X0115936Y0172184D01*
X0117190Y0172261D01*
X0118445Y0172308D01*
X0119701Y0172323D01*
X0120957Y0172308D01*
X0122212Y0172261D01*
X0123466Y0172184D01*
X0124718Y0172077D01*
X0125966Y0171938D01*
X0127211Y0171769D01*
X0128451Y0171569D01*
X0129686Y0171340D01*
X0130915Y0171079D01*
X0132137Y0170789D01*
X0133352Y0170469D01*
X0134558Y0170119D01*
X0135756Y0169740D01*
X0136943Y0169331D01*
X0138121Y0168894D01*
X0139287Y0168427D01*
X0140442Y0167932D01*
X0141584Y0167409D01*
X0142713Y0166858D01*
X0143828Y0166280D01*
X0144928Y0165674D01*
X0146013Y0165041D01*
X0147083Y0164382D01*
X0148136Y0163697D01*
X0149171Y0162987D01*
X0150189Y0162251D01*
X0151189Y0161490D01*
X0152170Y0160705D01*
X0153131Y0159897D01*
X0154072Y0159065D01*
X0154992Y0158210D01*
X0155891Y0157332D01*
X0156769Y0156433D01*
X0157624Y0155513D01*
X0158456Y0154572D01*
X0159264Y0153611D01*
X0160049Y0152630D01*
X0160810Y0151630D01*
X0161546Y0150612D01*
X0162256Y0149577D01*
X0162941Y0148524D01*
X0163600Y0147454D01*
X0164233Y0146369D01*
X0164839Y0145269D01*
X0165417Y0144154D01*
X0165968Y0143025D01*
X0166491Y0141883D01*
X0166986Y0140728D01*
X0167453Y0139562D01*
X0167890Y0138384D01*
X0168299Y0137197D01*
X0168678Y0135999D01*
X0169028Y0134793D01*
X0169348Y0133578D01*
X0169638Y0132356D01*
X0169899Y0131127D01*
X0170128Y0129892D01*
X0170328Y0128652D01*
X0170497Y0127407D01*
X0170636Y0126159D01*
X0170743Y0124907D01*
X0170820Y0123653D01*
X0170867Y0122398D01*
X0170882Y0121142D01*
X0170867Y0119886D01*
X0170820Y0118631D01*
X0170743Y0117377D01*
X0170636Y0116125D01*
X0170497Y0114877D01*
X0170328Y0113632D01*
X0170128Y0112392D01*
X0169899Y0111157D01*
X0169638Y0109928D01*
X0169348Y0108706D01*
X0169028Y0107491D01*
X0168678Y0106285D01*
X0168299Y0105087D01*
X0167890Y0103900D01*
X0167453Y0102722D01*
X0166986Y0101556D01*
X0166491Y0100401D01*
X0165968Y0099259D01*
X0165417Y0098130D01*
X0164839Y0097015D01*
X0164233Y0095915D01*
X0163600Y0094830D01*
X0162941Y0093760D01*
X0162256Y0092707D01*
X0161546Y0091672D01*
X0160810Y0090654D01*
X0160049Y0089654D01*
X0159264Y0088673D01*
X0158456Y0087712D01*
X0157624Y0086771D01*
X0156769Y0085851D01*
X0155891Y0084952D01*
X0154992Y0084074D01*
X0154072Y0083219D01*
X0153131Y0082387D01*
X0152170Y0081579D01*
X0151189Y0080794D01*
X0150189Y0080033D01*
X0149171Y0079297D01*
X0148136Y0078587D01*
X0147083Y0077902D01*
X0146013Y0077243D01*
X0144928Y0076610D01*
X0143828Y0076004D01*
X0142713Y0075426D01*
X0141584Y0074875D01*
X0140442Y0074352D01*
X0139287Y0073857D01*
X0138121Y0073390D01*
X0136943Y0072953D01*
X0135756Y0072544D01*
X0134558Y0072165D01*
X0133352Y0071815D01*
X0132137Y0071495D01*
X0130915Y0071205D01*
X0129686Y0070944D01*
X0128451Y0070715D01*
X0127211Y0070515D01*
X0125966Y0070346D01*
X0124718Y0070207D01*
X0123466Y0070100D01*
X0122212Y0070023D01*
X0120957Y0069976D01*
X0119701Y0069961D01*
X0118445Y0069976D01*
X0117190Y0070023D01*
X0115936Y0070100D01*
X0114684Y0070207D01*
X0113436Y0070346D01*
X0112191Y0070515D01*
X0110951Y0070715D01*
X0109716Y0070944D01*
X0108487Y0071205D01*
X0107265Y0071495D01*
X0106050Y0071815D01*
X0104844Y0072165D01*
X0103646Y0072544D01*
X0102459Y0072953D01*
X0101281Y0073390D01*
X0100115Y0073857D01*
X0098960Y0074352D01*
X0097818Y0074875D01*
X0096689Y0075426D01*
X0095574Y0076004D01*
X0094474Y0076610D01*
X0093389Y0077243D01*
X0092319Y0077902D01*
X0091266Y0078587D01*
X0090231Y0079297D01*
X0089213Y0080033D01*
X0088213Y0080794D01*
X0087232Y0081579D01*
X0086271Y0082387D01*
X0085330Y0083219D01*
X0084410Y0084074D01*
X0083511Y0084952D01*
X0082633Y0085851D01*
X0081778Y0086771D01*
X0080946Y0087712D01*
X0080138Y0088673D01*
X0079353Y0089654D01*
X0078592Y0090654D01*
X0077856Y0091672D01*
X0077146Y0092707D01*
X0076461Y0093760D01*
X0075802Y0094830D01*
X0075169Y0095915D01*
X0074563Y0097015D01*
X0073985Y0098130D01*
X0073434Y0099259D01*
X0072911Y0100401D01*
X0072416Y0101556D01*
X0071949Y0102722D01*
X0071512Y0103900D01*
X0071103Y0105087D01*
X0070724Y0106285D01*
X0070374Y0107491D01*
X0070054Y0108706D01*
X0069764Y0109928D01*
X0069503Y0111157D01*
X0069274Y0112392D01*
X0069074Y0113632D01*
X0068905Y0114877D01*
X0068766Y0116125D01*
X0068659Y0117377D01*
X0068582Y0118631D01*
X0068535Y0119886D01*
X0068520Y0121142D01*
D11*
X0007496Y0226457D02*
X0007498Y0226626D01*
X0007504Y0226795D01*
X0007515Y0226964D01*
X0007529Y0227132D01*
X0007548Y0227300D01*
X0007571Y0227468D01*
X0007597Y0227635D01*
X0007628Y0227801D01*
X0007663Y0227967D01*
X0007702Y0228131D01*
X0007746Y0228295D01*
X0007793Y0228457D01*
X0007844Y0228618D01*
X0007899Y0228778D01*
X0007958Y0228937D01*
X0008020Y0229094D01*
X0008087Y0229249D01*
X0008158Y0229403D01*
X0008232Y0229555D01*
X0008310Y0229705D01*
X0008391Y0229853D01*
X0008476Y0229999D01*
X0008565Y0230143D01*
X0008657Y0230285D01*
X0008753Y0230424D01*
X0008852Y0230561D01*
X0008954Y0230696D01*
X0009060Y0230828D01*
X0009169Y0230957D01*
X0009281Y0231084D01*
X0009396Y0231208D01*
X0009514Y0231329D01*
X0009635Y0231447D01*
X0009759Y0231562D01*
X0009886Y0231674D01*
X0010015Y0231783D01*
X0010147Y0231889D01*
X0010282Y0231991D01*
X0010419Y0232090D01*
X0010558Y0232186D01*
X0010700Y0232278D01*
X0010844Y0232367D01*
X0010990Y0232452D01*
X0011138Y0232533D01*
X0011288Y0232611D01*
X0011440Y0232685D01*
X0011594Y0232756D01*
X0011749Y0232823D01*
X0011906Y0232885D01*
X0012065Y0232944D01*
X0012225Y0232999D01*
X0012386Y0233050D01*
X0012548Y0233097D01*
X0012712Y0233141D01*
X0012876Y0233180D01*
X0013042Y0233215D01*
X0013208Y0233246D01*
X0013375Y0233272D01*
X0013543Y0233295D01*
X0013711Y0233314D01*
X0013879Y0233328D01*
X0014048Y0233339D01*
X0014217Y0233345D01*
X0014386Y0233347D01*
X0014555Y0233345D01*
X0014724Y0233339D01*
X0014893Y0233328D01*
X0015061Y0233314D01*
X0015229Y0233295D01*
X0015397Y0233272D01*
X0015564Y0233246D01*
X0015730Y0233215D01*
X0015896Y0233180D01*
X0016060Y0233141D01*
X0016224Y0233097D01*
X0016386Y0233050D01*
X0016547Y0232999D01*
X0016707Y0232944D01*
X0016866Y0232885D01*
X0017023Y0232823D01*
X0017178Y0232756D01*
X0017332Y0232685D01*
X0017484Y0232611D01*
X0017634Y0232533D01*
X0017782Y0232452D01*
X0017928Y0232367D01*
X0018072Y0232278D01*
X0018214Y0232186D01*
X0018353Y0232090D01*
X0018490Y0231991D01*
X0018625Y0231889D01*
X0018757Y0231783D01*
X0018886Y0231674D01*
X0019013Y0231562D01*
X0019137Y0231447D01*
X0019258Y0231329D01*
X0019376Y0231208D01*
X0019491Y0231084D01*
X0019603Y0230957D01*
X0019712Y0230828D01*
X0019818Y0230696D01*
X0019920Y0230561D01*
X0020019Y0230424D01*
X0020115Y0230285D01*
X0020207Y0230143D01*
X0020296Y0229999D01*
X0020381Y0229853D01*
X0020462Y0229705D01*
X0020540Y0229555D01*
X0020614Y0229403D01*
X0020685Y0229249D01*
X0020752Y0229094D01*
X0020814Y0228937D01*
X0020873Y0228778D01*
X0020928Y0228618D01*
X0020979Y0228457D01*
X0021026Y0228295D01*
X0021070Y0228131D01*
X0021109Y0227967D01*
X0021144Y0227801D01*
X0021175Y0227635D01*
X0021201Y0227468D01*
X0021224Y0227300D01*
X0021243Y0227132D01*
X0021257Y0226964D01*
X0021268Y0226795D01*
X0021274Y0226626D01*
X0021276Y0226457D01*
X0021274Y0226288D01*
X0021268Y0226119D01*
X0021257Y0225950D01*
X0021243Y0225782D01*
X0021224Y0225614D01*
X0021201Y0225446D01*
X0021175Y0225279D01*
X0021144Y0225113D01*
X0021109Y0224947D01*
X0021070Y0224783D01*
X0021026Y0224619D01*
X0020979Y0224457D01*
X0020928Y0224296D01*
X0020873Y0224136D01*
X0020814Y0223977D01*
X0020752Y0223820D01*
X0020685Y0223665D01*
X0020614Y0223511D01*
X0020540Y0223359D01*
X0020462Y0223209D01*
X0020381Y0223061D01*
X0020296Y0222915D01*
X0020207Y0222771D01*
X0020115Y0222629D01*
X0020019Y0222490D01*
X0019920Y0222353D01*
X0019818Y0222218D01*
X0019712Y0222086D01*
X0019603Y0221957D01*
X0019491Y0221830D01*
X0019376Y0221706D01*
X0019258Y0221585D01*
X0019137Y0221467D01*
X0019013Y0221352D01*
X0018886Y0221240D01*
X0018757Y0221131D01*
X0018625Y0221025D01*
X0018490Y0220923D01*
X0018353Y0220824D01*
X0018214Y0220728D01*
X0018072Y0220636D01*
X0017928Y0220547D01*
X0017782Y0220462D01*
X0017634Y0220381D01*
X0017484Y0220303D01*
X0017332Y0220229D01*
X0017178Y0220158D01*
X0017023Y0220091D01*
X0016866Y0220029D01*
X0016707Y0219970D01*
X0016547Y0219915D01*
X0016386Y0219864D01*
X0016224Y0219817D01*
X0016060Y0219773D01*
X0015896Y0219734D01*
X0015730Y0219699D01*
X0015564Y0219668D01*
X0015397Y0219642D01*
X0015229Y0219619D01*
X0015061Y0219600D01*
X0014893Y0219586D01*
X0014724Y0219575D01*
X0014555Y0219569D01*
X0014386Y0219567D01*
X0014217Y0219569D01*
X0014048Y0219575D01*
X0013879Y0219586D01*
X0013711Y0219600D01*
X0013543Y0219619D01*
X0013375Y0219642D01*
X0013208Y0219668D01*
X0013042Y0219699D01*
X0012876Y0219734D01*
X0012712Y0219773D01*
X0012548Y0219817D01*
X0012386Y0219864D01*
X0012225Y0219915D01*
X0012065Y0219970D01*
X0011906Y0220029D01*
X0011749Y0220091D01*
X0011594Y0220158D01*
X0011440Y0220229D01*
X0011288Y0220303D01*
X0011138Y0220381D01*
X0010990Y0220462D01*
X0010844Y0220547D01*
X0010700Y0220636D01*
X0010558Y0220728D01*
X0010419Y0220824D01*
X0010282Y0220923D01*
X0010147Y0221025D01*
X0010015Y0221131D01*
X0009886Y0221240D01*
X0009759Y0221352D01*
X0009635Y0221467D01*
X0009514Y0221585D01*
X0009396Y0221706D01*
X0009281Y0221830D01*
X0009169Y0221957D01*
X0009060Y0222086D01*
X0008954Y0222218D01*
X0008852Y0222353D01*
X0008753Y0222490D01*
X0008657Y0222629D01*
X0008565Y0222771D01*
X0008476Y0222915D01*
X0008391Y0223061D01*
X0008310Y0223209D01*
X0008232Y0223359D01*
X0008158Y0223511D01*
X0008087Y0223665D01*
X0008020Y0223820D01*
X0007958Y0223977D01*
X0007899Y0224136D01*
X0007844Y0224296D01*
X0007793Y0224457D01*
X0007746Y0224619D01*
X0007702Y0224783D01*
X0007663Y0224947D01*
X0007628Y0225113D01*
X0007597Y0225279D01*
X0007571Y0225446D01*
X0007548Y0225614D01*
X0007529Y0225782D01*
X0007515Y0225950D01*
X0007504Y0226119D01*
X0007498Y0226288D01*
X0007496Y0226457D01*
X0007496Y0015827D02*
X0007498Y0015996D01*
X0007504Y0016165D01*
X0007515Y0016334D01*
X0007529Y0016502D01*
X0007548Y0016670D01*
X0007571Y0016838D01*
X0007597Y0017005D01*
X0007628Y0017171D01*
X0007663Y0017337D01*
X0007702Y0017501D01*
X0007746Y0017665D01*
X0007793Y0017827D01*
X0007844Y0017988D01*
X0007899Y0018148D01*
X0007958Y0018307D01*
X0008020Y0018464D01*
X0008087Y0018619D01*
X0008158Y0018773D01*
X0008232Y0018925D01*
X0008310Y0019075D01*
X0008391Y0019223D01*
X0008476Y0019369D01*
X0008565Y0019513D01*
X0008657Y0019655D01*
X0008753Y0019794D01*
X0008852Y0019931D01*
X0008954Y0020066D01*
X0009060Y0020198D01*
X0009169Y0020327D01*
X0009281Y0020454D01*
X0009396Y0020578D01*
X0009514Y0020699D01*
X0009635Y0020817D01*
X0009759Y0020932D01*
X0009886Y0021044D01*
X0010015Y0021153D01*
X0010147Y0021259D01*
X0010282Y0021361D01*
X0010419Y0021460D01*
X0010558Y0021556D01*
X0010700Y0021648D01*
X0010844Y0021737D01*
X0010990Y0021822D01*
X0011138Y0021903D01*
X0011288Y0021981D01*
X0011440Y0022055D01*
X0011594Y0022126D01*
X0011749Y0022193D01*
X0011906Y0022255D01*
X0012065Y0022314D01*
X0012225Y0022369D01*
X0012386Y0022420D01*
X0012548Y0022467D01*
X0012712Y0022511D01*
X0012876Y0022550D01*
X0013042Y0022585D01*
X0013208Y0022616D01*
X0013375Y0022642D01*
X0013543Y0022665D01*
X0013711Y0022684D01*
X0013879Y0022698D01*
X0014048Y0022709D01*
X0014217Y0022715D01*
X0014386Y0022717D01*
X0014555Y0022715D01*
X0014724Y0022709D01*
X0014893Y0022698D01*
X0015061Y0022684D01*
X0015229Y0022665D01*
X0015397Y0022642D01*
X0015564Y0022616D01*
X0015730Y0022585D01*
X0015896Y0022550D01*
X0016060Y0022511D01*
X0016224Y0022467D01*
X0016386Y0022420D01*
X0016547Y0022369D01*
X0016707Y0022314D01*
X0016866Y0022255D01*
X0017023Y0022193D01*
X0017178Y0022126D01*
X0017332Y0022055D01*
X0017484Y0021981D01*
X0017634Y0021903D01*
X0017782Y0021822D01*
X0017928Y0021737D01*
X0018072Y0021648D01*
X0018214Y0021556D01*
X0018353Y0021460D01*
X0018490Y0021361D01*
X0018625Y0021259D01*
X0018757Y0021153D01*
X0018886Y0021044D01*
X0019013Y0020932D01*
X0019137Y0020817D01*
X0019258Y0020699D01*
X0019376Y0020578D01*
X0019491Y0020454D01*
X0019603Y0020327D01*
X0019712Y0020198D01*
X0019818Y0020066D01*
X0019920Y0019931D01*
X0020019Y0019794D01*
X0020115Y0019655D01*
X0020207Y0019513D01*
X0020296Y0019369D01*
X0020381Y0019223D01*
X0020462Y0019075D01*
X0020540Y0018925D01*
X0020614Y0018773D01*
X0020685Y0018619D01*
X0020752Y0018464D01*
X0020814Y0018307D01*
X0020873Y0018148D01*
X0020928Y0017988D01*
X0020979Y0017827D01*
X0021026Y0017665D01*
X0021070Y0017501D01*
X0021109Y0017337D01*
X0021144Y0017171D01*
X0021175Y0017005D01*
X0021201Y0016838D01*
X0021224Y0016670D01*
X0021243Y0016502D01*
X0021257Y0016334D01*
X0021268Y0016165D01*
X0021274Y0015996D01*
X0021276Y0015827D01*
X0021274Y0015658D01*
X0021268Y0015489D01*
X0021257Y0015320D01*
X0021243Y0015152D01*
X0021224Y0014984D01*
X0021201Y0014816D01*
X0021175Y0014649D01*
X0021144Y0014483D01*
X0021109Y0014317D01*
X0021070Y0014153D01*
X0021026Y0013989D01*
X0020979Y0013827D01*
X0020928Y0013666D01*
X0020873Y0013506D01*
X0020814Y0013347D01*
X0020752Y0013190D01*
X0020685Y0013035D01*
X0020614Y0012881D01*
X0020540Y0012729D01*
X0020462Y0012579D01*
X0020381Y0012431D01*
X0020296Y0012285D01*
X0020207Y0012141D01*
X0020115Y0011999D01*
X0020019Y0011860D01*
X0019920Y0011723D01*
X0019818Y0011588D01*
X0019712Y0011456D01*
X0019603Y0011327D01*
X0019491Y0011200D01*
X0019376Y0011076D01*
X0019258Y0010955D01*
X0019137Y0010837D01*
X0019013Y0010722D01*
X0018886Y0010610D01*
X0018757Y0010501D01*
X0018625Y0010395D01*
X0018490Y0010293D01*
X0018353Y0010194D01*
X0018214Y0010098D01*
X0018072Y0010006D01*
X0017928Y0009917D01*
X0017782Y0009832D01*
X0017634Y0009751D01*
X0017484Y0009673D01*
X0017332Y0009599D01*
X0017178Y0009528D01*
X0017023Y0009461D01*
X0016866Y0009399D01*
X0016707Y0009340D01*
X0016547Y0009285D01*
X0016386Y0009234D01*
X0016224Y0009187D01*
X0016060Y0009143D01*
X0015896Y0009104D01*
X0015730Y0009069D01*
X0015564Y0009038D01*
X0015397Y0009012D01*
X0015229Y0008989D01*
X0015061Y0008970D01*
X0014893Y0008956D01*
X0014724Y0008945D01*
X0014555Y0008939D01*
X0014386Y0008937D01*
X0014217Y0008939D01*
X0014048Y0008945D01*
X0013879Y0008956D01*
X0013711Y0008970D01*
X0013543Y0008989D01*
X0013375Y0009012D01*
X0013208Y0009038D01*
X0013042Y0009069D01*
X0012876Y0009104D01*
X0012712Y0009143D01*
X0012548Y0009187D01*
X0012386Y0009234D01*
X0012225Y0009285D01*
X0012065Y0009340D01*
X0011906Y0009399D01*
X0011749Y0009461D01*
X0011594Y0009528D01*
X0011440Y0009599D01*
X0011288Y0009673D01*
X0011138Y0009751D01*
X0010990Y0009832D01*
X0010844Y0009917D01*
X0010700Y0010006D01*
X0010558Y0010098D01*
X0010419Y0010194D01*
X0010282Y0010293D01*
X0010147Y0010395D01*
X0010015Y0010501D01*
X0009886Y0010610D01*
X0009759Y0010722D01*
X0009635Y0010837D01*
X0009514Y0010955D01*
X0009396Y0011076D01*
X0009281Y0011200D01*
X0009169Y0011327D01*
X0009060Y0011456D01*
X0008954Y0011588D01*
X0008852Y0011723D01*
X0008753Y0011860D01*
X0008657Y0011999D01*
X0008565Y0012141D01*
X0008476Y0012285D01*
X0008391Y0012431D01*
X0008310Y0012579D01*
X0008232Y0012729D01*
X0008158Y0012881D01*
X0008087Y0013035D01*
X0008020Y0013190D01*
X0007958Y0013347D01*
X0007899Y0013506D01*
X0007844Y0013666D01*
X0007793Y0013827D01*
X0007746Y0013989D01*
X0007702Y0014153D01*
X0007663Y0014317D01*
X0007628Y0014483D01*
X0007597Y0014649D01*
X0007571Y0014816D01*
X0007548Y0014984D01*
X0007529Y0015152D01*
X0007515Y0015320D01*
X0007504Y0015489D01*
X0007498Y0015658D01*
X0007496Y0015827D01*
X0218126Y0015827D02*
X0218128Y0015996D01*
X0218134Y0016165D01*
X0218145Y0016334D01*
X0218159Y0016502D01*
X0218178Y0016670D01*
X0218201Y0016838D01*
X0218227Y0017005D01*
X0218258Y0017171D01*
X0218293Y0017337D01*
X0218332Y0017501D01*
X0218376Y0017665D01*
X0218423Y0017827D01*
X0218474Y0017988D01*
X0218529Y0018148D01*
X0218588Y0018307D01*
X0218650Y0018464D01*
X0218717Y0018619D01*
X0218788Y0018773D01*
X0218862Y0018925D01*
X0218940Y0019075D01*
X0219021Y0019223D01*
X0219106Y0019369D01*
X0219195Y0019513D01*
X0219287Y0019655D01*
X0219383Y0019794D01*
X0219482Y0019931D01*
X0219584Y0020066D01*
X0219690Y0020198D01*
X0219799Y0020327D01*
X0219911Y0020454D01*
X0220026Y0020578D01*
X0220144Y0020699D01*
X0220265Y0020817D01*
X0220389Y0020932D01*
X0220516Y0021044D01*
X0220645Y0021153D01*
X0220777Y0021259D01*
X0220912Y0021361D01*
X0221049Y0021460D01*
X0221188Y0021556D01*
X0221330Y0021648D01*
X0221474Y0021737D01*
X0221620Y0021822D01*
X0221768Y0021903D01*
X0221918Y0021981D01*
X0222070Y0022055D01*
X0222224Y0022126D01*
X0222379Y0022193D01*
X0222536Y0022255D01*
X0222695Y0022314D01*
X0222855Y0022369D01*
X0223016Y0022420D01*
X0223178Y0022467D01*
X0223342Y0022511D01*
X0223506Y0022550D01*
X0223672Y0022585D01*
X0223838Y0022616D01*
X0224005Y0022642D01*
X0224173Y0022665D01*
X0224341Y0022684D01*
X0224509Y0022698D01*
X0224678Y0022709D01*
X0224847Y0022715D01*
X0225016Y0022717D01*
X0225185Y0022715D01*
X0225354Y0022709D01*
X0225523Y0022698D01*
X0225691Y0022684D01*
X0225859Y0022665D01*
X0226027Y0022642D01*
X0226194Y0022616D01*
X0226360Y0022585D01*
X0226526Y0022550D01*
X0226690Y0022511D01*
X0226854Y0022467D01*
X0227016Y0022420D01*
X0227177Y0022369D01*
X0227337Y0022314D01*
X0227496Y0022255D01*
X0227653Y0022193D01*
X0227808Y0022126D01*
X0227962Y0022055D01*
X0228114Y0021981D01*
X0228264Y0021903D01*
X0228412Y0021822D01*
X0228558Y0021737D01*
X0228702Y0021648D01*
X0228844Y0021556D01*
X0228983Y0021460D01*
X0229120Y0021361D01*
X0229255Y0021259D01*
X0229387Y0021153D01*
X0229516Y0021044D01*
X0229643Y0020932D01*
X0229767Y0020817D01*
X0229888Y0020699D01*
X0230006Y0020578D01*
X0230121Y0020454D01*
X0230233Y0020327D01*
X0230342Y0020198D01*
X0230448Y0020066D01*
X0230550Y0019931D01*
X0230649Y0019794D01*
X0230745Y0019655D01*
X0230837Y0019513D01*
X0230926Y0019369D01*
X0231011Y0019223D01*
X0231092Y0019075D01*
X0231170Y0018925D01*
X0231244Y0018773D01*
X0231315Y0018619D01*
X0231382Y0018464D01*
X0231444Y0018307D01*
X0231503Y0018148D01*
X0231558Y0017988D01*
X0231609Y0017827D01*
X0231656Y0017665D01*
X0231700Y0017501D01*
X0231739Y0017337D01*
X0231774Y0017171D01*
X0231805Y0017005D01*
X0231831Y0016838D01*
X0231854Y0016670D01*
X0231873Y0016502D01*
X0231887Y0016334D01*
X0231898Y0016165D01*
X0231904Y0015996D01*
X0231906Y0015827D01*
X0231904Y0015658D01*
X0231898Y0015489D01*
X0231887Y0015320D01*
X0231873Y0015152D01*
X0231854Y0014984D01*
X0231831Y0014816D01*
X0231805Y0014649D01*
X0231774Y0014483D01*
X0231739Y0014317D01*
X0231700Y0014153D01*
X0231656Y0013989D01*
X0231609Y0013827D01*
X0231558Y0013666D01*
X0231503Y0013506D01*
X0231444Y0013347D01*
X0231382Y0013190D01*
X0231315Y0013035D01*
X0231244Y0012881D01*
X0231170Y0012729D01*
X0231092Y0012579D01*
X0231011Y0012431D01*
X0230926Y0012285D01*
X0230837Y0012141D01*
X0230745Y0011999D01*
X0230649Y0011860D01*
X0230550Y0011723D01*
X0230448Y0011588D01*
X0230342Y0011456D01*
X0230233Y0011327D01*
X0230121Y0011200D01*
X0230006Y0011076D01*
X0229888Y0010955D01*
X0229767Y0010837D01*
X0229643Y0010722D01*
X0229516Y0010610D01*
X0229387Y0010501D01*
X0229255Y0010395D01*
X0229120Y0010293D01*
X0228983Y0010194D01*
X0228844Y0010098D01*
X0228702Y0010006D01*
X0228558Y0009917D01*
X0228412Y0009832D01*
X0228264Y0009751D01*
X0228114Y0009673D01*
X0227962Y0009599D01*
X0227808Y0009528D01*
X0227653Y0009461D01*
X0227496Y0009399D01*
X0227337Y0009340D01*
X0227177Y0009285D01*
X0227016Y0009234D01*
X0226854Y0009187D01*
X0226690Y0009143D01*
X0226526Y0009104D01*
X0226360Y0009069D01*
X0226194Y0009038D01*
X0226027Y0009012D01*
X0225859Y0008989D01*
X0225691Y0008970D01*
X0225523Y0008956D01*
X0225354Y0008945D01*
X0225185Y0008939D01*
X0225016Y0008937D01*
X0224847Y0008939D01*
X0224678Y0008945D01*
X0224509Y0008956D01*
X0224341Y0008970D01*
X0224173Y0008989D01*
X0224005Y0009012D01*
X0223838Y0009038D01*
X0223672Y0009069D01*
X0223506Y0009104D01*
X0223342Y0009143D01*
X0223178Y0009187D01*
X0223016Y0009234D01*
X0222855Y0009285D01*
X0222695Y0009340D01*
X0222536Y0009399D01*
X0222379Y0009461D01*
X0222224Y0009528D01*
X0222070Y0009599D01*
X0221918Y0009673D01*
X0221768Y0009751D01*
X0221620Y0009832D01*
X0221474Y0009917D01*
X0221330Y0010006D01*
X0221188Y0010098D01*
X0221049Y0010194D01*
X0220912Y0010293D01*
X0220777Y0010395D01*
X0220645Y0010501D01*
X0220516Y0010610D01*
X0220389Y0010722D01*
X0220265Y0010837D01*
X0220144Y0010955D01*
X0220026Y0011076D01*
X0219911Y0011200D01*
X0219799Y0011327D01*
X0219690Y0011456D01*
X0219584Y0011588D01*
X0219482Y0011723D01*
X0219383Y0011860D01*
X0219287Y0011999D01*
X0219195Y0012141D01*
X0219106Y0012285D01*
X0219021Y0012431D01*
X0218940Y0012579D01*
X0218862Y0012729D01*
X0218788Y0012881D01*
X0218717Y0013035D01*
X0218650Y0013190D01*
X0218588Y0013347D01*
X0218529Y0013506D01*
X0218474Y0013666D01*
X0218423Y0013827D01*
X0218376Y0013989D01*
X0218332Y0014153D01*
X0218293Y0014317D01*
X0218258Y0014483D01*
X0218227Y0014649D01*
X0218201Y0014816D01*
X0218178Y0014984D01*
X0218159Y0015152D01*
X0218145Y0015320D01*
X0218134Y0015489D01*
X0218128Y0015658D01*
X0218126Y0015827D01*
X0218126Y0226457D02*
X0218128Y0226626D01*
X0218134Y0226795D01*
X0218145Y0226964D01*
X0218159Y0227132D01*
X0218178Y0227300D01*
X0218201Y0227468D01*
X0218227Y0227635D01*
X0218258Y0227801D01*
X0218293Y0227967D01*
X0218332Y0228131D01*
X0218376Y0228295D01*
X0218423Y0228457D01*
X0218474Y0228618D01*
X0218529Y0228778D01*
X0218588Y0228937D01*
X0218650Y0229094D01*
X0218717Y0229249D01*
X0218788Y0229403D01*
X0218862Y0229555D01*
X0218940Y0229705D01*
X0219021Y0229853D01*
X0219106Y0229999D01*
X0219195Y0230143D01*
X0219287Y0230285D01*
X0219383Y0230424D01*
X0219482Y0230561D01*
X0219584Y0230696D01*
X0219690Y0230828D01*
X0219799Y0230957D01*
X0219911Y0231084D01*
X0220026Y0231208D01*
X0220144Y0231329D01*
X0220265Y0231447D01*
X0220389Y0231562D01*
X0220516Y0231674D01*
X0220645Y0231783D01*
X0220777Y0231889D01*
X0220912Y0231991D01*
X0221049Y0232090D01*
X0221188Y0232186D01*
X0221330Y0232278D01*
X0221474Y0232367D01*
X0221620Y0232452D01*
X0221768Y0232533D01*
X0221918Y0232611D01*
X0222070Y0232685D01*
X0222224Y0232756D01*
X0222379Y0232823D01*
X0222536Y0232885D01*
X0222695Y0232944D01*
X0222855Y0232999D01*
X0223016Y0233050D01*
X0223178Y0233097D01*
X0223342Y0233141D01*
X0223506Y0233180D01*
X0223672Y0233215D01*
X0223838Y0233246D01*
X0224005Y0233272D01*
X0224173Y0233295D01*
X0224341Y0233314D01*
X0224509Y0233328D01*
X0224678Y0233339D01*
X0224847Y0233345D01*
X0225016Y0233347D01*
X0225185Y0233345D01*
X0225354Y0233339D01*
X0225523Y0233328D01*
X0225691Y0233314D01*
X0225859Y0233295D01*
X0226027Y0233272D01*
X0226194Y0233246D01*
X0226360Y0233215D01*
X0226526Y0233180D01*
X0226690Y0233141D01*
X0226854Y0233097D01*
X0227016Y0233050D01*
X0227177Y0232999D01*
X0227337Y0232944D01*
X0227496Y0232885D01*
X0227653Y0232823D01*
X0227808Y0232756D01*
X0227962Y0232685D01*
X0228114Y0232611D01*
X0228264Y0232533D01*
X0228412Y0232452D01*
X0228558Y0232367D01*
X0228702Y0232278D01*
X0228844Y0232186D01*
X0228983Y0232090D01*
X0229120Y0231991D01*
X0229255Y0231889D01*
X0229387Y0231783D01*
X0229516Y0231674D01*
X0229643Y0231562D01*
X0229767Y0231447D01*
X0229888Y0231329D01*
X0230006Y0231208D01*
X0230121Y0231084D01*
X0230233Y0230957D01*
X0230342Y0230828D01*
X0230448Y0230696D01*
X0230550Y0230561D01*
X0230649Y0230424D01*
X0230745Y0230285D01*
X0230837Y0230143D01*
X0230926Y0229999D01*
X0231011Y0229853D01*
X0231092Y0229705D01*
X0231170Y0229555D01*
X0231244Y0229403D01*
X0231315Y0229249D01*
X0231382Y0229094D01*
X0231444Y0228937D01*
X0231503Y0228778D01*
X0231558Y0228618D01*
X0231609Y0228457D01*
X0231656Y0228295D01*
X0231700Y0228131D01*
X0231739Y0227967D01*
X0231774Y0227801D01*
X0231805Y0227635D01*
X0231831Y0227468D01*
X0231854Y0227300D01*
X0231873Y0227132D01*
X0231887Y0226964D01*
X0231898Y0226795D01*
X0231904Y0226626D01*
X0231906Y0226457D01*
X0231904Y0226288D01*
X0231898Y0226119D01*
X0231887Y0225950D01*
X0231873Y0225782D01*
X0231854Y0225614D01*
X0231831Y0225446D01*
X0231805Y0225279D01*
X0231774Y0225113D01*
X0231739Y0224947D01*
X0231700Y0224783D01*
X0231656Y0224619D01*
X0231609Y0224457D01*
X0231558Y0224296D01*
X0231503Y0224136D01*
X0231444Y0223977D01*
X0231382Y0223820D01*
X0231315Y0223665D01*
X0231244Y0223511D01*
X0231170Y0223359D01*
X0231092Y0223209D01*
X0231011Y0223061D01*
X0230926Y0222915D01*
X0230837Y0222771D01*
X0230745Y0222629D01*
X0230649Y0222490D01*
X0230550Y0222353D01*
X0230448Y0222218D01*
X0230342Y0222086D01*
X0230233Y0221957D01*
X0230121Y0221830D01*
X0230006Y0221706D01*
X0229888Y0221585D01*
X0229767Y0221467D01*
X0229643Y0221352D01*
X0229516Y0221240D01*
X0229387Y0221131D01*
X0229255Y0221025D01*
X0229120Y0220923D01*
X0228983Y0220824D01*
X0228844Y0220728D01*
X0228702Y0220636D01*
X0228558Y0220547D01*
X0228412Y0220462D01*
X0228264Y0220381D01*
X0228114Y0220303D01*
X0227962Y0220229D01*
X0227808Y0220158D01*
X0227653Y0220091D01*
X0227496Y0220029D01*
X0227337Y0219970D01*
X0227177Y0219915D01*
X0227016Y0219864D01*
X0226854Y0219817D01*
X0226690Y0219773D01*
X0226526Y0219734D01*
X0226360Y0219699D01*
X0226194Y0219668D01*
X0226027Y0219642D01*
X0225859Y0219619D01*
X0225691Y0219600D01*
X0225523Y0219586D01*
X0225354Y0219575D01*
X0225185Y0219569D01*
X0225016Y0219567D01*
X0224847Y0219569D01*
X0224678Y0219575D01*
X0224509Y0219586D01*
X0224341Y0219600D01*
X0224173Y0219619D01*
X0224005Y0219642D01*
X0223838Y0219668D01*
X0223672Y0219699D01*
X0223506Y0219734D01*
X0223342Y0219773D01*
X0223178Y0219817D01*
X0223016Y0219864D01*
X0222855Y0219915D01*
X0222695Y0219970D01*
X0222536Y0220029D01*
X0222379Y0220091D01*
X0222224Y0220158D01*
X0222070Y0220229D01*
X0221918Y0220303D01*
X0221768Y0220381D01*
X0221620Y0220462D01*
X0221474Y0220547D01*
X0221330Y0220636D01*
X0221188Y0220728D01*
X0221049Y0220824D01*
X0220912Y0220923D01*
X0220777Y0221025D01*
X0220645Y0221131D01*
X0220516Y0221240D01*
X0220389Y0221352D01*
X0220265Y0221467D01*
X0220144Y0221585D01*
X0220026Y0221706D01*
X0219911Y0221830D01*
X0219799Y0221957D01*
X0219690Y0222086D01*
X0219584Y0222218D01*
X0219482Y0222353D01*
X0219383Y0222490D01*
X0219287Y0222629D01*
X0219195Y0222771D01*
X0219106Y0222915D01*
X0219021Y0223061D01*
X0218940Y0223209D01*
X0218862Y0223359D01*
X0218788Y0223511D01*
X0218717Y0223665D01*
X0218650Y0223820D01*
X0218588Y0223977D01*
X0218529Y0224136D01*
X0218474Y0224296D01*
X0218423Y0224457D01*
X0218376Y0224619D01*
X0218332Y0224783D01*
X0218293Y0224947D01*
X0218258Y0225113D01*
X0218227Y0225279D01*
X0218201Y0225446D01*
X0218178Y0225614D01*
X0218159Y0225782D01*
X0218145Y0225950D01*
X0218134Y0226119D01*
X0218128Y0226288D01*
X0218126Y0226457D01*
M02*
