%
M48
M72
T01C0.01200
T02C0.02362
T03C0.03543
T04C0.04000
T05C0.04921
T06C0.05512
%
T01
X124245Y23900
X148045Y30700
X110645Y53900
X136045Y69500
X143045Y76700
X155995Y73250
X159045Y70300
X161045Y66700
X165245Y64700
X178645Y70900
X185645Y68300
X179645Y62300
X199445Y70900
X212445Y73300
X197995Y89750
X191745Y92750
X183245Y90900
X176445Y95300
X171445Y95500
X163045Y94300
X152245Y99700
X155995Y103000
X173445Y107500
X191045Y115100
X196995Y121000
X196615Y130484
X197095Y133437
X227845Y131900
X230445Y118500
X204245Y108650
X197045Y105100
X219055Y102110
X221035Y104090
X230645Y99100
X230645Y96300
X214795Y92650
X245645Y92700
X249245Y89700
X171445Y81500
X168445Y80500
X167445Y74700
X142045Y85300
X123845Y93900
X96245Y93100
X89645Y98700
X90845Y109200
X113445Y114100
X127445Y109500
X129645Y113900
X143745Y130500
X143745Y136750
X122845Y140700
X124245Y150300
X138045Y149300
X170245Y163300
X188245Y163000
X187995Y168000
X187495Y173250
X186745Y178250
X172645Y186500
X170995Y194750
X148495Y183250
X124245Y173300
X146445Y171100
X146445Y168300
X100845Y163500
X100445Y187700
X99245Y195100
X105445Y205300
X107245Y208500
X101795Y208300
X97645Y210100
X128495Y220750
X146995Y217000
X155245Y213300
X151045Y207100
X142845Y210900
X161245Y206900
X167845Y210900
X151245Y223750
X218245Y204250
X226245Y204250
X229045Y206900
X278645Y199500
X280495Y203750
X283045Y193700
X222745Y178750
X222995Y173250
X214495Y168000
X210495Y161750
X229645Y163100
X230845Y157900
X199645Y151700
X211855Y181310
X213835Y183290
X211045Y187500
X278845Y220700
X449445Y230500
X453845Y196100
X517045Y174100
X516045Y168100
X521445Y144700
X485001Y118673
X487953Y100957
X484195Y99100
X480195Y100850
X500749Y102925
X493859Y90130
X488938Y89146
X483032Y89146
X498780Y88161
X515512Y92098
X477126Y75366
X502717Y67492
X497645Y49700
X489922Y31075
X422993Y46823
X436245Y122300
X447945Y141834
X453504Y144264
X59845Y97500
T02
X197645Y21700
T03
X200795Y205400
X190795Y205400
T04
X164645Y35300
X163645Y45300
X164645Y55300
X189045Y55300
X188045Y45300
X189045Y35300
X213545Y35700
X212545Y45700
X213545Y55700
T05
X467445Y152300
X467445Y162339
X467445Y172339
X467445Y182339
X467445Y192457
X467445Y202457
X494245Y175100
X504245Y175100
X504245Y165100
X494245Y165100
X494245Y155100
X504245Y155100
T06
X71052Y49050
X90737Y49050
M30
