G75*
%MOIN*%
%OFA0B0*%
%FSLAX25Y25*%
%IPPOS*%
%LPD*%
%AMOC8*
5,1,8,0,0,1.08239X$1,22.5*
%
%ADD10C,0.00039*%
%ADD11C,0.00000*%
%ADD12R,0.79800X0.00200*%
%ADD13R,0.80200X0.00200*%
%ADD14R,0.80600X0.00200*%
%ADD15R,0.38200X0.00200*%
%ADD16R,0.03400X0.00200*%
%ADD17R,0.13400X0.00200*%
%ADD18R,0.01200X0.00200*%
%ADD19R,0.02400X0.00200*%
%ADD20R,0.15600X0.00200*%
%ADD21R,0.12800X0.00200*%
%ADD22R,0.00800X0.00200*%
%ADD23R,0.02200X0.00200*%
%ADD24R,0.15400X0.00200*%
%ADD25R,0.02000X0.00200*%
%ADD26R,0.12600X0.00200*%
%ADD27R,0.00400X0.00200*%
%ADD28R,0.12200X0.00200*%
%ADD29R,0.22400X0.00200*%
%ADD30R,0.01800X0.00200*%
%ADD31R,0.12400X0.00200*%
%ADD32R,0.11200X0.00200*%
%ADD33R,0.21400X0.00200*%
%ADD34R,0.10600X0.00200*%
%ADD35R,0.20600X0.00200*%
%ADD36R,0.01400X0.00200*%
%ADD37R,0.01600X0.00200*%
%ADD38R,0.15800X0.00200*%
%ADD39R,0.10000X0.00200*%
%ADD40R,0.20200X0.00200*%
%ADD41R,0.00600X0.00200*%
%ADD42R,0.09400X0.00200*%
%ADD43R,0.19600X0.00200*%
%ADD44R,0.12000X0.00200*%
%ADD45R,0.09000X0.00200*%
%ADD46R,0.19200X0.00200*%
%ADD47R,0.16000X0.00200*%
%ADD48R,0.08600X0.00200*%
%ADD49R,0.18800X0.00200*%
%ADD50R,0.14000X0.00200*%
%ADD51R,0.08200X0.00200*%
%ADD52R,0.18400X0.00200*%
%ADD53R,0.13200X0.00200*%
%ADD54R,0.16200X0.00200*%
%ADD55R,0.07800X0.00200*%
%ADD56R,0.18000X0.00200*%
%ADD57R,0.01000X0.00200*%
%ADD58R,0.07600X0.00200*%
%ADD59R,0.17600X0.00200*%
%ADD60R,0.07200X0.00200*%
%ADD61R,0.17400X0.00200*%
%ADD62R,0.11800X0.00200*%
%ADD63R,0.16400X0.00200*%
%ADD64R,0.07000X0.00200*%
%ADD65R,0.17200X0.00200*%
%ADD66R,0.11600X0.00200*%
%ADD67R,0.02600X0.00200*%
%ADD68R,0.00200X0.00200*%
%ADD69R,0.06600X0.00200*%
%ADD70R,0.16800X0.00200*%
%ADD71R,0.11400X0.00200*%
%ADD72R,0.06400X0.00200*%
%ADD73R,0.04800X0.00200*%
%ADD74R,0.16600X0.00200*%
%ADD75R,0.06200X0.00200*%
%ADD76R,0.06000X0.00200*%
%ADD77R,0.07400X0.00200*%
%ADD78R,0.11000X0.00200*%
%ADD79R,0.05800X0.00200*%
%ADD80R,0.08400X0.00200*%
%ADD81R,0.05600X0.00200*%
%ADD82R,0.09200X0.00200*%
%ADD83R,0.05400X0.00200*%
%ADD84R,0.17000X0.00200*%
%ADD85R,0.05200X0.00200*%
%ADD86R,0.05000X0.00200*%
%ADD87R,0.35000X0.00200*%
%ADD88R,0.21200X0.00200*%
%ADD89R,0.04600X0.00200*%
%ADD90R,0.57400X0.00200*%
%ADD91R,0.04000X0.00200*%
%ADD92R,0.57200X0.00200*%
%ADD93R,0.04400X0.00200*%
%ADD94R,0.03600X0.00200*%
%ADD95R,0.57000X0.00200*%
%ADD96R,0.03200X0.00200*%
%ADD97R,0.56800X0.00200*%
%ADD98R,0.04200X0.00200*%
%ADD99R,0.03000X0.00200*%
%ADD100R,0.02800X0.00200*%
%ADD101R,0.56600X0.00200*%
%ADD102R,0.03800X0.00200*%
%ADD103R,0.56400X0.00200*%
%ADD104R,0.56200X0.00200*%
%ADD105R,0.09800X0.00200*%
%ADD106R,0.06800X0.00200*%
%ADD107R,0.79400X0.00200*%
%ADD108R,0.79000X0.00200*%
%ADD109R,0.77800X0.00200*%
D10*
X0032245Y0014343D02*
X0032245Y0230878D01*
X0032244Y0230878D02*
X0032247Y0231116D01*
X0032255Y0231354D01*
X0032270Y0231591D01*
X0032290Y0231828D01*
X0032316Y0232064D01*
X0032347Y0232300D01*
X0032384Y0232535D01*
X0032427Y0232769D01*
X0032476Y0233002D01*
X0032530Y0233234D01*
X0032590Y0233464D01*
X0032655Y0233693D01*
X0032726Y0233920D01*
X0032802Y0234145D01*
X0032884Y0234368D01*
X0032971Y0234590D01*
X0033063Y0234809D01*
X0033161Y0235026D01*
X0033263Y0235240D01*
X0033371Y0235452D01*
X0033485Y0235662D01*
X0033603Y0235868D01*
X0033726Y0236072D01*
X0033854Y0236272D01*
X0033986Y0236469D01*
X0034124Y0236664D01*
X0034266Y0236854D01*
X0034413Y0237042D01*
X0034564Y0237225D01*
X0034719Y0237405D01*
X0034879Y0237581D01*
X0035043Y0237753D01*
X0035212Y0237922D01*
X0035384Y0238086D01*
X0035560Y0238246D01*
X0035740Y0238401D01*
X0035923Y0238552D01*
X0036111Y0238699D01*
X0036301Y0238841D01*
X0036496Y0238979D01*
X0036693Y0239111D01*
X0036893Y0239239D01*
X0037097Y0239362D01*
X0037303Y0239480D01*
X0037513Y0239594D01*
X0037725Y0239702D01*
X0037939Y0239804D01*
X0038156Y0239902D01*
X0038375Y0239994D01*
X0038597Y0240081D01*
X0038820Y0240163D01*
X0039045Y0240239D01*
X0039272Y0240310D01*
X0039501Y0240375D01*
X0039731Y0240435D01*
X0039963Y0240489D01*
X0040196Y0240538D01*
X0040430Y0240581D01*
X0040665Y0240618D01*
X0040901Y0240649D01*
X0041137Y0240675D01*
X0041374Y0240695D01*
X0041611Y0240710D01*
X0041849Y0240718D01*
X0042087Y0240721D01*
X0042087Y0240720D02*
X0652323Y0240720D01*
X0652323Y0240721D02*
X0652561Y0240718D01*
X0652799Y0240710D01*
X0653036Y0240695D01*
X0653273Y0240675D01*
X0653509Y0240649D01*
X0653745Y0240618D01*
X0653980Y0240581D01*
X0654214Y0240538D01*
X0654447Y0240489D01*
X0654679Y0240435D01*
X0654909Y0240375D01*
X0655138Y0240310D01*
X0655365Y0240239D01*
X0655590Y0240163D01*
X0655813Y0240081D01*
X0656035Y0239994D01*
X0656254Y0239902D01*
X0656471Y0239804D01*
X0656685Y0239702D01*
X0656897Y0239594D01*
X0657107Y0239480D01*
X0657313Y0239362D01*
X0657517Y0239239D01*
X0657717Y0239111D01*
X0657914Y0238979D01*
X0658109Y0238841D01*
X0658299Y0238699D01*
X0658487Y0238552D01*
X0658670Y0238401D01*
X0658850Y0238246D01*
X0659026Y0238086D01*
X0659198Y0237922D01*
X0659367Y0237753D01*
X0659531Y0237581D01*
X0659691Y0237405D01*
X0659846Y0237225D01*
X0659997Y0237042D01*
X0660144Y0236854D01*
X0660286Y0236664D01*
X0660424Y0236469D01*
X0660556Y0236272D01*
X0660684Y0236072D01*
X0660807Y0235868D01*
X0660925Y0235662D01*
X0661039Y0235452D01*
X0661147Y0235240D01*
X0661249Y0235026D01*
X0661347Y0234809D01*
X0661439Y0234590D01*
X0661526Y0234368D01*
X0661608Y0234145D01*
X0661684Y0233920D01*
X0661755Y0233693D01*
X0661820Y0233464D01*
X0661880Y0233234D01*
X0661934Y0233002D01*
X0661983Y0232769D01*
X0662026Y0232535D01*
X0662063Y0232300D01*
X0662094Y0232064D01*
X0662120Y0231828D01*
X0662140Y0231591D01*
X0662155Y0231354D01*
X0662163Y0231116D01*
X0662166Y0230878D01*
X0662166Y0014343D01*
X0662163Y0014105D01*
X0662155Y0013867D01*
X0662140Y0013630D01*
X0662120Y0013393D01*
X0662094Y0013157D01*
X0662063Y0012921D01*
X0662026Y0012686D01*
X0661983Y0012452D01*
X0661934Y0012219D01*
X0661880Y0011987D01*
X0661820Y0011757D01*
X0661755Y0011528D01*
X0661684Y0011301D01*
X0661608Y0011076D01*
X0661526Y0010853D01*
X0661439Y0010631D01*
X0661347Y0010412D01*
X0661249Y0010195D01*
X0661147Y0009981D01*
X0661039Y0009769D01*
X0660925Y0009559D01*
X0660807Y0009353D01*
X0660684Y0009149D01*
X0660556Y0008949D01*
X0660424Y0008752D01*
X0660286Y0008557D01*
X0660144Y0008367D01*
X0659997Y0008179D01*
X0659846Y0007996D01*
X0659691Y0007816D01*
X0659531Y0007640D01*
X0659367Y0007468D01*
X0659198Y0007299D01*
X0659026Y0007135D01*
X0658850Y0006975D01*
X0658670Y0006820D01*
X0658487Y0006669D01*
X0658299Y0006522D01*
X0658109Y0006380D01*
X0657914Y0006242D01*
X0657717Y0006110D01*
X0657517Y0005982D01*
X0657313Y0005859D01*
X0657107Y0005741D01*
X0656897Y0005627D01*
X0656685Y0005519D01*
X0656471Y0005417D01*
X0656254Y0005319D01*
X0656035Y0005227D01*
X0655813Y0005140D01*
X0655590Y0005058D01*
X0655365Y0004982D01*
X0655138Y0004911D01*
X0654909Y0004846D01*
X0654679Y0004786D01*
X0654447Y0004732D01*
X0654214Y0004683D01*
X0653980Y0004640D01*
X0653745Y0004603D01*
X0653509Y0004572D01*
X0653273Y0004546D01*
X0653036Y0004526D01*
X0652799Y0004511D01*
X0652561Y0004503D01*
X0652323Y0004500D01*
X0042087Y0004500D01*
X0041849Y0004503D01*
X0041611Y0004511D01*
X0041374Y0004526D01*
X0041137Y0004546D01*
X0040901Y0004572D01*
X0040665Y0004603D01*
X0040430Y0004640D01*
X0040196Y0004683D01*
X0039963Y0004732D01*
X0039731Y0004786D01*
X0039501Y0004846D01*
X0039272Y0004911D01*
X0039045Y0004982D01*
X0038820Y0005058D01*
X0038597Y0005140D01*
X0038375Y0005227D01*
X0038156Y0005319D01*
X0037939Y0005417D01*
X0037725Y0005519D01*
X0037513Y0005627D01*
X0037303Y0005741D01*
X0037097Y0005859D01*
X0036893Y0005982D01*
X0036693Y0006110D01*
X0036496Y0006242D01*
X0036301Y0006380D01*
X0036111Y0006522D01*
X0035923Y0006669D01*
X0035740Y0006820D01*
X0035560Y0006975D01*
X0035384Y0007135D01*
X0035212Y0007299D01*
X0035043Y0007468D01*
X0034879Y0007640D01*
X0034719Y0007816D01*
X0034564Y0007996D01*
X0034413Y0008179D01*
X0034266Y0008367D01*
X0034124Y0008557D01*
X0033986Y0008752D01*
X0033854Y0008949D01*
X0033726Y0009149D01*
X0033603Y0009353D01*
X0033485Y0009559D01*
X0033371Y0009769D01*
X0033263Y0009981D01*
X0033161Y0010195D01*
X0033063Y0010412D01*
X0032971Y0010631D01*
X0032884Y0010853D01*
X0032802Y0011076D01*
X0032726Y0011301D01*
X0032655Y0011528D01*
X0032590Y0011757D01*
X0032530Y0011987D01*
X0032476Y0012219D01*
X0032427Y0012452D01*
X0032384Y0012686D01*
X0032347Y0012921D01*
X0032316Y0013157D01*
X0032290Y0013393D01*
X0032270Y0013630D01*
X0032255Y0013867D01*
X0032247Y0014105D01*
X0032244Y0014343D01*
D11*
X0278308Y0057650D02*
X0278308Y0187571D01*
X0278310Y0187695D01*
X0278316Y0187818D01*
X0278325Y0187942D01*
X0278339Y0188064D01*
X0278356Y0188187D01*
X0278378Y0188309D01*
X0278403Y0188430D01*
X0278432Y0188550D01*
X0278464Y0188669D01*
X0278501Y0188788D01*
X0278541Y0188905D01*
X0278584Y0189020D01*
X0278632Y0189135D01*
X0278683Y0189247D01*
X0278737Y0189358D01*
X0278795Y0189468D01*
X0278856Y0189575D01*
X0278921Y0189681D01*
X0278989Y0189784D01*
X0279060Y0189885D01*
X0279134Y0189984D01*
X0279211Y0190081D01*
X0279292Y0190175D01*
X0279375Y0190266D01*
X0279461Y0190355D01*
X0279550Y0190441D01*
X0279641Y0190524D01*
X0279735Y0190605D01*
X0279832Y0190682D01*
X0279931Y0190756D01*
X0280032Y0190827D01*
X0280135Y0190895D01*
X0280241Y0190960D01*
X0280348Y0191021D01*
X0280458Y0191079D01*
X0280569Y0191133D01*
X0280681Y0191184D01*
X0280796Y0191232D01*
X0280911Y0191275D01*
X0281028Y0191315D01*
X0281147Y0191352D01*
X0281266Y0191384D01*
X0281386Y0191413D01*
X0281507Y0191438D01*
X0281629Y0191460D01*
X0281752Y0191477D01*
X0281874Y0191491D01*
X0281998Y0191500D01*
X0282121Y0191506D01*
X0282245Y0191508D01*
X0412166Y0191508D01*
X0412290Y0191506D01*
X0412413Y0191500D01*
X0412537Y0191491D01*
X0412659Y0191477D01*
X0412782Y0191460D01*
X0412904Y0191438D01*
X0413025Y0191413D01*
X0413145Y0191384D01*
X0413264Y0191352D01*
X0413383Y0191315D01*
X0413500Y0191275D01*
X0413615Y0191232D01*
X0413730Y0191184D01*
X0413842Y0191133D01*
X0413953Y0191079D01*
X0414063Y0191021D01*
X0414170Y0190960D01*
X0414276Y0190895D01*
X0414379Y0190827D01*
X0414480Y0190756D01*
X0414579Y0190682D01*
X0414676Y0190605D01*
X0414770Y0190524D01*
X0414861Y0190441D01*
X0414950Y0190355D01*
X0415036Y0190266D01*
X0415119Y0190175D01*
X0415200Y0190081D01*
X0415277Y0189984D01*
X0415351Y0189885D01*
X0415422Y0189784D01*
X0415490Y0189681D01*
X0415555Y0189575D01*
X0415616Y0189468D01*
X0415674Y0189358D01*
X0415728Y0189247D01*
X0415779Y0189135D01*
X0415827Y0189020D01*
X0415870Y0188905D01*
X0415910Y0188788D01*
X0415947Y0188669D01*
X0415979Y0188550D01*
X0416008Y0188430D01*
X0416033Y0188309D01*
X0416055Y0188187D01*
X0416072Y0188064D01*
X0416086Y0187942D01*
X0416095Y0187818D01*
X0416101Y0187695D01*
X0416103Y0187571D01*
X0416103Y0057650D01*
X0416101Y0057526D01*
X0416095Y0057403D01*
X0416086Y0057279D01*
X0416072Y0057157D01*
X0416055Y0057034D01*
X0416033Y0056912D01*
X0416008Y0056791D01*
X0415979Y0056671D01*
X0415947Y0056552D01*
X0415910Y0056433D01*
X0415870Y0056316D01*
X0415827Y0056201D01*
X0415779Y0056086D01*
X0415728Y0055974D01*
X0415674Y0055863D01*
X0415616Y0055753D01*
X0415555Y0055646D01*
X0415490Y0055540D01*
X0415422Y0055437D01*
X0415351Y0055336D01*
X0415277Y0055237D01*
X0415200Y0055140D01*
X0415119Y0055046D01*
X0415036Y0054955D01*
X0414950Y0054866D01*
X0414861Y0054780D01*
X0414770Y0054697D01*
X0414676Y0054616D01*
X0414579Y0054539D01*
X0414480Y0054465D01*
X0414379Y0054394D01*
X0414276Y0054326D01*
X0414170Y0054261D01*
X0414063Y0054200D01*
X0413953Y0054142D01*
X0413842Y0054088D01*
X0413730Y0054037D01*
X0413615Y0053989D01*
X0413500Y0053946D01*
X0413383Y0053906D01*
X0413264Y0053869D01*
X0413145Y0053837D01*
X0413025Y0053808D01*
X0412904Y0053783D01*
X0412782Y0053761D01*
X0412659Y0053744D01*
X0412537Y0053730D01*
X0412413Y0053721D01*
X0412290Y0053715D01*
X0412166Y0053713D01*
X0282245Y0053713D01*
X0282121Y0053715D01*
X0281998Y0053721D01*
X0281874Y0053730D01*
X0281752Y0053744D01*
X0281629Y0053761D01*
X0281507Y0053783D01*
X0281386Y0053808D01*
X0281266Y0053837D01*
X0281147Y0053869D01*
X0281028Y0053906D01*
X0280911Y0053946D01*
X0280796Y0053989D01*
X0280681Y0054037D01*
X0280569Y0054088D01*
X0280458Y0054142D01*
X0280348Y0054200D01*
X0280241Y0054261D01*
X0280135Y0054326D01*
X0280032Y0054394D01*
X0279931Y0054465D01*
X0279832Y0054539D01*
X0279735Y0054616D01*
X0279641Y0054697D01*
X0279550Y0054780D01*
X0279461Y0054866D01*
X0279375Y0054955D01*
X0279292Y0055046D01*
X0279211Y0055140D01*
X0279134Y0055237D01*
X0279060Y0055336D01*
X0278989Y0055437D01*
X0278921Y0055540D01*
X0278856Y0055646D01*
X0278795Y0055753D01*
X0278737Y0055863D01*
X0278683Y0055974D01*
X0278632Y0056086D01*
X0278584Y0056201D01*
X0278541Y0056316D01*
X0278501Y0056433D01*
X0278464Y0056552D01*
X0278432Y0056671D01*
X0278403Y0056791D01*
X0278378Y0056912D01*
X0278356Y0057034D01*
X0278339Y0057157D01*
X0278325Y0057279D01*
X0278316Y0057403D01*
X0278310Y0057526D01*
X0278308Y0057650D01*
D12*
X0610545Y0005000D03*
D13*
X0610545Y0005200D03*
D14*
X0610545Y0005400D03*
X0610545Y0005600D03*
X0610545Y0005800D03*
X0610545Y0006000D03*
X0610545Y0006200D03*
X0610545Y0006400D03*
D15*
X0631745Y0006600D03*
X0631745Y0006800D03*
X0631745Y0007000D03*
D16*
X0632145Y0011800D03*
X0631745Y0012000D03*
X0608745Y0006600D03*
X0590745Y0009600D03*
X0631745Y0028000D03*
X0641745Y0028000D03*
X0605545Y0029400D03*
D17*
X0599545Y0006600D03*
D18*
X0592045Y0007600D03*
X0590645Y0006600D03*
X0589645Y0009800D03*
X0592045Y0009800D03*
X0592045Y0010000D03*
X0606645Y0010600D03*
X0611045Y0010200D03*
X0631845Y0018400D03*
X0637845Y0018400D03*
X0615245Y0021600D03*
X0615245Y0021800D03*
X0615245Y0022000D03*
X0615245Y0022200D03*
X0615445Y0023000D03*
X0615445Y0023200D03*
X0615245Y0024000D03*
X0615245Y0024200D03*
X0615245Y0024400D03*
X0615245Y0024600D03*
X0615045Y0025200D03*
X0608245Y0026200D03*
X0608245Y0027800D03*
X0601645Y0025600D03*
X0601645Y0025400D03*
X0601445Y0024800D03*
X0601245Y0024200D03*
X0601245Y0024000D03*
X0601245Y0023800D03*
X0601245Y0023600D03*
X0601245Y0023400D03*
X0601245Y0023200D03*
X0601245Y0023000D03*
X0601245Y0022800D03*
X0601245Y0022600D03*
X0601245Y0022400D03*
X0601245Y0022200D03*
X0601245Y0022000D03*
X0601245Y0021800D03*
X0601445Y0021200D03*
X0601645Y0020600D03*
X0596245Y0021800D03*
X0596245Y0022000D03*
X0596245Y0022200D03*
X0596245Y0022400D03*
X0596245Y0022600D03*
X0596245Y0022800D03*
X0596245Y0023000D03*
X0596245Y0023200D03*
X0596245Y0023400D03*
X0596245Y0023600D03*
X0596245Y0023800D03*
X0596245Y0024000D03*
X0596245Y0024200D03*
X0596045Y0024800D03*
X0596045Y0025000D03*
X0595845Y0025400D03*
X0596045Y0021200D03*
X0595845Y0020600D03*
X0582645Y0020400D03*
X0582445Y0020800D03*
X0582445Y0021000D03*
X0582245Y0021600D03*
X0582245Y0021800D03*
X0582245Y0022000D03*
X0582245Y0022200D03*
X0582245Y0022400D03*
X0582245Y0023600D03*
X0582245Y0023800D03*
X0582245Y0024000D03*
X0582245Y0024200D03*
X0582245Y0024400D03*
X0582245Y0024600D03*
X0582445Y0025000D03*
X0582445Y0025200D03*
X0614845Y0020400D03*
X0615045Y0021000D03*
D19*
X0604445Y0017200D03*
X0593045Y0017200D03*
X0592645Y0017000D03*
X0591045Y0020400D03*
X0592845Y0029000D03*
X0585445Y0029000D03*
X0604645Y0029000D03*
X0612045Y0029000D03*
X0629245Y0025800D03*
X0629445Y0026000D03*
X0629645Y0026200D03*
X0629845Y0026400D03*
X0633645Y0017000D03*
X0629245Y0014200D03*
X0629045Y0014400D03*
X0639645Y0017000D03*
X0643645Y0013400D03*
X0643845Y0013600D03*
X0644045Y0013800D03*
X0644445Y0025600D03*
X0643845Y0026400D03*
X0608445Y0006800D03*
X0589645Y0011000D03*
X0587845Y0006600D03*
D20*
X0578045Y0006600D03*
X0578045Y0007000D03*
X0578045Y0007200D03*
X0578045Y0007400D03*
X0620445Y0010600D03*
D21*
X0599645Y0006800D03*
D22*
X0606645Y0010200D03*
X0608645Y0010200D03*
X0608645Y0010000D03*
X0608845Y0010600D03*
X0609045Y0010800D03*
X0609245Y0011000D03*
X0590445Y0006800D03*
X0589845Y0008400D03*
X0589845Y0008600D03*
X0587845Y0008600D03*
X0631845Y0018600D03*
X0632045Y0021400D03*
X0638045Y0021400D03*
X0650045Y0032400D03*
X0571045Y0032400D03*
D23*
X0585145Y0028800D03*
X0587145Y0025400D03*
X0586945Y0025200D03*
X0591145Y0025400D03*
X0591745Y0023800D03*
X0587145Y0020600D03*
X0586945Y0020800D03*
X0585145Y0017400D03*
X0585345Y0017200D03*
X0584745Y0017600D03*
X0593345Y0017400D03*
X0604145Y0017400D03*
X0608345Y0018200D03*
X0608345Y0018400D03*
X0608345Y0018600D03*
X0608345Y0018800D03*
X0608345Y0019000D03*
X0608345Y0019200D03*
X0608345Y0019400D03*
X0608345Y0019600D03*
X0608345Y0019800D03*
X0608345Y0020000D03*
X0608345Y0020200D03*
X0608345Y0020400D03*
X0608345Y0020600D03*
X0608345Y0020800D03*
X0608345Y0021000D03*
X0608345Y0021200D03*
X0608345Y0021400D03*
X0608345Y0021600D03*
X0608345Y0021800D03*
X0612145Y0017200D03*
X0628745Y0014800D03*
X0628945Y0014600D03*
X0629345Y0014000D03*
X0629545Y0013800D03*
X0635145Y0021800D03*
X0641145Y0021800D03*
X0645345Y0024200D03*
X0645145Y0024600D03*
X0644945Y0025000D03*
X0644745Y0025200D03*
X0644545Y0025400D03*
X0644345Y0025800D03*
X0644145Y0026000D03*
X0643945Y0026200D03*
X0629145Y0025600D03*
X0628945Y0025400D03*
X0628545Y0024800D03*
X0628345Y0024400D03*
X0612345Y0028800D03*
X0604345Y0028800D03*
X0603945Y0028600D03*
X0593545Y0028600D03*
X0593145Y0028800D03*
X0587945Y0006800D03*
X0644145Y0014000D03*
X0644345Y0014200D03*
X0644545Y0014400D03*
X0644745Y0014600D03*
X0644745Y0014800D03*
X0644945Y0015000D03*
D24*
X0620345Y0011000D03*
X0620345Y0010800D03*
X0577945Y0006800D03*
D25*
X0587845Y0007000D03*
X0589645Y0010800D03*
X0593645Y0017600D03*
X0593845Y0017800D03*
X0591245Y0020600D03*
X0591445Y0020800D03*
X0589245Y0019000D03*
X0586645Y0021200D03*
X0586445Y0021600D03*
X0586245Y0023000D03*
X0586645Y0024800D03*
X0584645Y0028400D03*
X0584845Y0028600D03*
X0591245Y0025200D03*
X0591445Y0025000D03*
X0593845Y0028400D03*
X0603645Y0028400D03*
X0608245Y0027200D03*
X0608245Y0027000D03*
X0608245Y0026800D03*
X0612645Y0028600D03*
X0612845Y0028400D03*
X0613045Y0028200D03*
X0627845Y0023400D03*
X0628045Y0023800D03*
X0628245Y0024200D03*
X0628445Y0024600D03*
X0628645Y0025000D03*
X0628845Y0025200D03*
X0627645Y0022600D03*
X0632045Y0021800D03*
X0633645Y0023000D03*
X0635245Y0021600D03*
X0638045Y0021800D03*
X0639645Y0023000D03*
X0645045Y0024800D03*
X0645245Y0024400D03*
X0645445Y0024000D03*
X0645645Y0023600D03*
X0645845Y0023000D03*
X0646045Y0022400D03*
X0646045Y0017600D03*
X0645845Y0016800D03*
X0645645Y0016400D03*
X0645645Y0016200D03*
X0645445Y0016000D03*
X0645445Y0015800D03*
X0645245Y0015600D03*
X0645245Y0015400D03*
X0645045Y0015200D03*
X0641445Y0018400D03*
X0641245Y0018200D03*
X0635245Y0018200D03*
X0628645Y0015000D03*
X0628445Y0015200D03*
X0628445Y0015400D03*
X0628245Y0015600D03*
X0628245Y0015800D03*
X0628045Y0016000D03*
X0628045Y0016200D03*
X0627845Y0016600D03*
X0627645Y0017200D03*
X0612645Y0017600D03*
X0612445Y0017400D03*
X0603845Y0017600D03*
X0603645Y0017800D03*
X0608245Y0007000D03*
X0636645Y0009600D03*
D26*
X0599745Y0007000D03*
X0599545Y0008800D03*
D27*
X0606645Y0009800D03*
X0590245Y0007200D03*
X0590245Y0007000D03*
X0590045Y0007400D03*
X0590045Y0007600D03*
X0589845Y0008000D03*
X0587845Y0009200D03*
X0632045Y0018800D03*
X0633645Y0016800D03*
X0638245Y0021200D03*
X0650445Y0031800D03*
X0570645Y0031800D03*
D28*
X0599545Y0009000D03*
X0599945Y0008200D03*
X0599945Y0007800D03*
X0599945Y0007600D03*
X0599945Y0007400D03*
X0644745Y0007200D03*
D29*
X0623845Y0007200D03*
D30*
X0608545Y0009000D03*
X0608545Y0009200D03*
X0608145Y0008600D03*
X0608145Y0007400D03*
X0608145Y0007200D03*
X0606545Y0011000D03*
X0603345Y0018000D03*
X0603145Y0018200D03*
X0602945Y0018400D03*
X0594345Y0018200D03*
X0594145Y0018000D03*
X0591545Y0021000D03*
X0591545Y0021200D03*
X0591745Y0021400D03*
X0591745Y0021600D03*
X0591745Y0023600D03*
X0591745Y0024200D03*
X0591545Y0024600D03*
X0591545Y0024800D03*
X0594345Y0027800D03*
X0594145Y0028000D03*
X0593945Y0028200D03*
X0594745Y0027400D03*
X0602745Y0027400D03*
X0603145Y0027800D03*
X0603345Y0028000D03*
X0603545Y0028200D03*
X0608345Y0027400D03*
X0608345Y0026600D03*
X0613345Y0028000D03*
X0627745Y0023200D03*
X0627745Y0023000D03*
X0627745Y0022800D03*
X0627545Y0022400D03*
X0627545Y0022200D03*
X0627545Y0022000D03*
X0627345Y0021600D03*
X0627345Y0021400D03*
X0627345Y0021200D03*
X0627345Y0021000D03*
X0627345Y0020800D03*
X0627345Y0020600D03*
X0627345Y0020400D03*
X0627345Y0020200D03*
X0627345Y0019600D03*
X0627345Y0019400D03*
X0627345Y0019200D03*
X0627345Y0019000D03*
X0627345Y0018800D03*
X0627345Y0018600D03*
X0627345Y0018400D03*
X0627545Y0017800D03*
X0627545Y0017600D03*
X0627545Y0017400D03*
X0627745Y0017000D03*
X0627745Y0016800D03*
X0627945Y0016400D03*
X0635345Y0018400D03*
X0635545Y0018600D03*
X0635545Y0018800D03*
X0635745Y0019200D03*
X0635745Y0019400D03*
X0635745Y0019600D03*
X0635745Y0019800D03*
X0635745Y0020000D03*
X0635745Y0020200D03*
X0635745Y0020400D03*
X0635745Y0020600D03*
X0635545Y0021200D03*
X0635545Y0021400D03*
X0641345Y0021600D03*
X0641545Y0021400D03*
X0641545Y0021200D03*
X0641745Y0021000D03*
X0641745Y0020800D03*
X0641745Y0020600D03*
X0641745Y0020400D03*
X0641745Y0019600D03*
X0641745Y0019400D03*
X0641745Y0019200D03*
X0641745Y0019000D03*
X0641545Y0018800D03*
X0641545Y0018600D03*
X0637945Y0018200D03*
X0645745Y0016600D03*
X0645945Y0017000D03*
X0645945Y0017200D03*
X0645945Y0017400D03*
X0646145Y0017800D03*
X0646145Y0018000D03*
X0646145Y0018200D03*
X0646345Y0019000D03*
X0646345Y0019200D03*
X0646345Y0019400D03*
X0646345Y0019600D03*
X0646345Y0019800D03*
X0646345Y0020000D03*
X0646345Y0020200D03*
X0646345Y0020400D03*
X0646345Y0020600D03*
X0646345Y0020800D03*
X0646145Y0021600D03*
X0646145Y0021800D03*
X0646145Y0022000D03*
X0646145Y0022200D03*
X0645945Y0022600D03*
X0645945Y0022800D03*
X0645745Y0023200D03*
X0645745Y0023400D03*
X0645545Y0023800D03*
X0628145Y0024000D03*
X0627945Y0023600D03*
X0613745Y0018600D03*
X0613545Y0018400D03*
X0613345Y0018200D03*
X0613145Y0018000D03*
X0612945Y0017800D03*
X0590145Y0009200D03*
X0589545Y0010600D03*
X0587945Y0007400D03*
X0587945Y0007200D03*
X0584545Y0017800D03*
X0584345Y0018000D03*
X0584145Y0018200D03*
X0583945Y0018400D03*
X0583545Y0018800D03*
X0586745Y0021000D03*
X0586545Y0021400D03*
X0586345Y0021800D03*
X0586345Y0022000D03*
X0586345Y0022200D03*
X0586345Y0022400D03*
X0586345Y0022600D03*
X0586345Y0022800D03*
X0586345Y0023200D03*
X0586345Y0023400D03*
X0586345Y0023600D03*
X0586345Y0023800D03*
X0586345Y0024000D03*
X0586345Y0024200D03*
X0586545Y0024400D03*
X0586545Y0024600D03*
X0586745Y0025000D03*
X0583945Y0027800D03*
X0584145Y0028000D03*
X0584345Y0028200D03*
D31*
X0599845Y0007200D03*
D32*
X0599445Y0010000D03*
X0599245Y0010400D03*
X0599045Y0010800D03*
X0598845Y0011000D03*
X0636845Y0028800D03*
X0645245Y0007400D03*
D33*
X0623345Y0007400D03*
D34*
X0636745Y0011000D03*
X0645545Y0007600D03*
X0636745Y0029000D03*
D35*
X0622945Y0007600D03*
D36*
X0610945Y0007600D03*
X0610945Y0009600D03*
X0610945Y0009800D03*
X0610945Y0010000D03*
X0608545Y0009600D03*
X0608545Y0009400D03*
X0589945Y0009000D03*
X0589545Y0010000D03*
X0595145Y0019200D03*
X0595345Y0019600D03*
X0595545Y0019800D03*
X0595545Y0020000D03*
X0595745Y0020200D03*
X0595745Y0020400D03*
X0595945Y0020800D03*
X0595945Y0021000D03*
X0596145Y0021400D03*
X0596145Y0021600D03*
X0596145Y0024400D03*
X0596145Y0024600D03*
X0595945Y0025200D03*
X0595745Y0025600D03*
X0595745Y0025800D03*
X0595545Y0026200D03*
X0595345Y0026400D03*
X0595345Y0026600D03*
X0595145Y0026800D03*
X0589345Y0027000D03*
X0583345Y0027000D03*
X0583145Y0026600D03*
X0582945Y0026400D03*
X0582745Y0026000D03*
X0582745Y0025800D03*
X0582545Y0025600D03*
X0582545Y0025400D03*
X0582345Y0024800D03*
X0582145Y0023400D03*
X0582145Y0023200D03*
X0582145Y0023000D03*
X0582145Y0022800D03*
X0582145Y0022600D03*
X0582345Y0021400D03*
X0582345Y0021200D03*
X0582545Y0020600D03*
X0582745Y0020200D03*
X0582745Y0020000D03*
X0582945Y0019800D03*
X0582945Y0019600D03*
X0583145Y0019400D03*
X0591745Y0023400D03*
X0601345Y0024400D03*
X0601345Y0024600D03*
X0601545Y0025000D03*
X0601545Y0025200D03*
X0601745Y0025800D03*
X0601945Y0026200D03*
X0602145Y0026600D03*
X0602345Y0026800D03*
X0601345Y0021600D03*
X0601345Y0021400D03*
X0601545Y0021000D03*
X0601545Y0020800D03*
X0601745Y0020400D03*
X0601745Y0020200D03*
X0601945Y0020000D03*
X0601945Y0019800D03*
X0602145Y0019600D03*
X0602345Y0019200D03*
X0614345Y0019400D03*
X0614545Y0019800D03*
X0614745Y0020000D03*
X0614745Y0020200D03*
X0614945Y0020600D03*
X0614945Y0020800D03*
X0615145Y0021200D03*
X0615145Y0021400D03*
X0615345Y0022400D03*
X0615345Y0022600D03*
X0615345Y0022800D03*
X0615345Y0023400D03*
X0615345Y0023600D03*
X0615345Y0023800D03*
X0615145Y0024800D03*
X0615145Y0025000D03*
X0614945Y0025400D03*
X0614945Y0025600D03*
X0614745Y0025800D03*
X0614745Y0026000D03*
X0614545Y0026200D03*
X0614545Y0026400D03*
X0614345Y0026600D03*
X0631945Y0021600D03*
X0637945Y0021600D03*
D37*
X0635645Y0021000D03*
X0635645Y0020800D03*
X0635645Y0019000D03*
X0631845Y0018200D03*
X0627445Y0018200D03*
X0627445Y0018000D03*
X0627245Y0019800D03*
X0627245Y0020000D03*
X0627445Y0021800D03*
X0614445Y0019600D03*
X0614245Y0019200D03*
X0614045Y0019000D03*
X0613845Y0018800D03*
X0608245Y0015400D03*
X0606645Y0010800D03*
X0608245Y0008800D03*
X0608045Y0008400D03*
X0608045Y0008200D03*
X0608045Y0008000D03*
X0608045Y0007800D03*
X0608045Y0007600D03*
X0610845Y0007800D03*
X0610845Y0008000D03*
X0610845Y0008200D03*
X0610845Y0008400D03*
X0592245Y0008200D03*
X0592045Y0008000D03*
X0592045Y0007800D03*
X0589645Y0010200D03*
X0589645Y0010400D03*
X0589245Y0015400D03*
X0594445Y0018400D03*
X0594645Y0018600D03*
X0594845Y0018800D03*
X0595045Y0019000D03*
X0595245Y0019400D03*
X0602245Y0019400D03*
X0602445Y0019000D03*
X0602645Y0018800D03*
X0602845Y0018600D03*
X0601845Y0026000D03*
X0602045Y0026400D03*
X0602445Y0027000D03*
X0602645Y0027200D03*
X0602845Y0027600D03*
X0608245Y0027600D03*
X0608245Y0026400D03*
X0613445Y0027800D03*
X0613645Y0027600D03*
X0613845Y0027400D03*
X0614045Y0027200D03*
X0614045Y0027000D03*
X0614245Y0026800D03*
X0595645Y0026000D03*
X0595045Y0027000D03*
X0594845Y0027200D03*
X0594645Y0027600D03*
X0591645Y0024400D03*
X0583845Y0027600D03*
X0583645Y0027400D03*
X0583445Y0027200D03*
X0583245Y0026800D03*
X0582845Y0026200D03*
X0583245Y0019200D03*
X0583445Y0019000D03*
X0583645Y0018600D03*
X0641845Y0019800D03*
X0641845Y0020000D03*
X0641845Y0020200D03*
X0646245Y0021000D03*
X0646245Y0021200D03*
X0646245Y0021400D03*
X0646245Y0018800D03*
X0646245Y0018600D03*
X0646245Y0018400D03*
D38*
X0578145Y0008000D03*
X0578145Y0007800D03*
X0578145Y0007600D03*
D39*
X0636845Y0010800D03*
X0645845Y0007800D03*
D40*
X0622745Y0007800D03*
D41*
X0608745Y0010400D03*
X0606545Y0010000D03*
X0589945Y0008200D03*
X0589945Y0007800D03*
X0587945Y0008800D03*
X0587945Y0009000D03*
X0570545Y0013400D03*
X0570545Y0013600D03*
X0570545Y0013800D03*
X0570545Y0014000D03*
X0570545Y0014200D03*
X0570545Y0014400D03*
X0570545Y0014600D03*
X0570545Y0014800D03*
X0570545Y0015000D03*
X0570545Y0015200D03*
X0570545Y0015400D03*
X0570545Y0015600D03*
X0570545Y0015800D03*
X0570545Y0016000D03*
X0570545Y0016200D03*
X0570545Y0016400D03*
X0570545Y0016600D03*
X0570545Y0016800D03*
X0570545Y0017000D03*
X0570545Y0017200D03*
X0570545Y0017400D03*
X0570545Y0017600D03*
X0570545Y0017800D03*
X0570545Y0018000D03*
X0570545Y0018200D03*
X0570545Y0018400D03*
X0570545Y0018600D03*
X0570545Y0018800D03*
X0570545Y0019000D03*
X0570545Y0019200D03*
X0570545Y0019400D03*
X0570545Y0019600D03*
X0570545Y0019800D03*
X0570545Y0020000D03*
X0570545Y0020200D03*
X0570545Y0020400D03*
X0570545Y0020600D03*
X0570545Y0020800D03*
X0570545Y0021000D03*
X0570545Y0021200D03*
X0570545Y0021400D03*
X0570545Y0021600D03*
X0570545Y0021800D03*
X0570545Y0022000D03*
X0570545Y0022200D03*
X0570545Y0022400D03*
X0570545Y0022600D03*
X0570545Y0022800D03*
X0570545Y0023000D03*
X0570545Y0023200D03*
X0570545Y0023400D03*
X0570545Y0023600D03*
X0570545Y0023800D03*
X0570545Y0024000D03*
X0570545Y0024200D03*
X0570545Y0024400D03*
X0570545Y0024600D03*
X0570545Y0024800D03*
X0570545Y0025000D03*
X0570545Y0025200D03*
X0570545Y0025400D03*
X0570545Y0025600D03*
X0570545Y0025800D03*
X0570545Y0026000D03*
X0570545Y0026200D03*
X0570545Y0026400D03*
X0570545Y0026600D03*
X0570545Y0026800D03*
X0570545Y0027000D03*
X0570545Y0027200D03*
X0570545Y0027400D03*
X0570545Y0027600D03*
X0570545Y0027800D03*
X0570545Y0028000D03*
X0570545Y0028200D03*
X0570545Y0028400D03*
X0570545Y0028600D03*
X0570545Y0028800D03*
X0570545Y0029000D03*
X0570545Y0029200D03*
X0570545Y0029400D03*
X0570545Y0029600D03*
X0570545Y0029800D03*
X0570545Y0030000D03*
X0570545Y0030200D03*
X0570545Y0030400D03*
X0570545Y0030600D03*
X0570545Y0030800D03*
X0570545Y0031000D03*
X0570545Y0031200D03*
X0570545Y0031400D03*
X0570545Y0031600D03*
X0570745Y0032000D03*
X0570745Y0032200D03*
X0591745Y0023000D03*
X0637945Y0018600D03*
X0639745Y0016800D03*
X0650545Y0016800D03*
X0650545Y0017000D03*
X0650545Y0017200D03*
X0650545Y0017400D03*
X0650545Y0017600D03*
X0650545Y0017800D03*
X0650545Y0018000D03*
X0650545Y0018200D03*
X0650545Y0018400D03*
X0650545Y0018600D03*
X0650545Y0018800D03*
X0650545Y0019000D03*
X0650545Y0019200D03*
X0650545Y0019400D03*
X0650545Y0019600D03*
X0650545Y0019800D03*
X0650545Y0020000D03*
X0650545Y0020200D03*
X0650545Y0020400D03*
X0650545Y0020600D03*
X0650545Y0020800D03*
X0650545Y0021000D03*
X0650545Y0021200D03*
X0650545Y0021400D03*
X0650545Y0021600D03*
X0650545Y0021800D03*
X0650545Y0022000D03*
X0650545Y0022200D03*
X0650545Y0022400D03*
X0650545Y0022600D03*
X0650545Y0022800D03*
X0650545Y0023000D03*
X0650545Y0023200D03*
X0650545Y0023400D03*
X0650545Y0023600D03*
X0650545Y0023800D03*
X0650545Y0024000D03*
X0650545Y0024200D03*
X0650545Y0024400D03*
X0650545Y0024600D03*
X0650545Y0024800D03*
X0650545Y0025000D03*
X0650545Y0025200D03*
X0650545Y0025400D03*
X0650545Y0025600D03*
X0650545Y0025800D03*
X0650545Y0026000D03*
X0650545Y0026200D03*
X0650545Y0026400D03*
X0650545Y0026600D03*
X0650545Y0026800D03*
X0650545Y0027000D03*
X0650545Y0027200D03*
X0650545Y0027400D03*
X0650545Y0027600D03*
X0650545Y0027800D03*
X0650545Y0028000D03*
X0650545Y0028200D03*
X0650545Y0028400D03*
X0650545Y0028600D03*
X0650545Y0028800D03*
X0650545Y0029000D03*
X0650545Y0029200D03*
X0650545Y0029400D03*
X0650545Y0029600D03*
X0650545Y0029800D03*
X0650545Y0030000D03*
X0650545Y0030200D03*
X0650545Y0030400D03*
X0650545Y0030600D03*
X0650545Y0030800D03*
X0650545Y0031000D03*
X0650545Y0031200D03*
X0650545Y0031400D03*
X0650545Y0031600D03*
X0650345Y0032000D03*
X0650345Y0032200D03*
X0650545Y0016600D03*
X0650545Y0016400D03*
X0650545Y0016200D03*
X0650545Y0016000D03*
X0650545Y0015800D03*
X0650545Y0015600D03*
X0650545Y0015400D03*
X0650545Y0015200D03*
X0650545Y0015000D03*
X0650545Y0014800D03*
X0650545Y0014600D03*
X0650545Y0014400D03*
X0650545Y0014200D03*
X0650545Y0014000D03*
X0650545Y0013800D03*
X0650545Y0013600D03*
X0650545Y0013400D03*
D42*
X0646145Y0008000D03*
D43*
X0622445Y0008000D03*
D44*
X0600045Y0008000D03*
D45*
X0646345Y0008200D03*
X0636745Y0029400D03*
D46*
X0622245Y0008200D03*
D47*
X0620645Y0010400D03*
X0578245Y0008400D03*
X0578245Y0008200D03*
D48*
X0646545Y0008400D03*
D49*
X0622045Y0008400D03*
D50*
X0599045Y0008400D03*
D51*
X0646745Y0008600D03*
X0636745Y0029600D03*
X0608345Y0029600D03*
X0589145Y0029600D03*
D52*
X0621845Y0008600D03*
D53*
X0599245Y0008600D03*
D54*
X0578345Y0008600D03*
X0578345Y0008800D03*
X0578345Y0009000D03*
X0620745Y0010200D03*
D55*
X0608345Y0016400D03*
X0589145Y0016400D03*
X0646945Y0008800D03*
D56*
X0621645Y0008800D03*
D57*
X0611145Y0009400D03*
X0608545Y0009800D03*
X0606545Y0010400D03*
X0592145Y0010200D03*
X0589945Y0008800D03*
X0591745Y0023200D03*
D58*
X0647045Y0009000D03*
D59*
X0621445Y0009000D03*
D60*
X0647245Y0009200D03*
X0636845Y0029800D03*
D61*
X0621345Y0009200D03*
D62*
X0599545Y0009200D03*
D63*
X0578445Y0009200D03*
X0578445Y0009400D03*
X0578445Y0009600D03*
X0620845Y0010000D03*
D64*
X0608345Y0016200D03*
X0589145Y0016200D03*
X0647345Y0009400D03*
D65*
X0621245Y0009400D03*
D66*
X0599645Y0009400D03*
D67*
X0590345Y0009400D03*
X0585745Y0017000D03*
X0587345Y0020400D03*
X0591745Y0024000D03*
X0585945Y0029200D03*
X0611545Y0029200D03*
X0629945Y0026600D03*
X0630145Y0026800D03*
X0630345Y0027000D03*
X0642945Y0027200D03*
X0643145Y0027000D03*
X0643345Y0026800D03*
X0643545Y0026600D03*
X0611745Y0017000D03*
X0604745Y0017000D03*
X0629745Y0013600D03*
X0629945Y0013400D03*
X0630145Y0013200D03*
X0630345Y0013000D03*
X0630545Y0012800D03*
X0642945Y0012800D03*
X0643145Y0013000D03*
X0643345Y0013200D03*
D68*
X0638145Y0018800D03*
X0632145Y0021200D03*
X0608345Y0026000D03*
X0591745Y0022800D03*
X0587945Y0009600D03*
X0587945Y0009400D03*
D69*
X0647545Y0009600D03*
D70*
X0621045Y0009600D03*
X0578645Y0010200D03*
X0578645Y0010400D03*
X0578645Y0010600D03*
D71*
X0599545Y0009800D03*
X0599545Y0009600D03*
X0636745Y0011200D03*
D72*
X0636845Y0010000D03*
X0647645Y0009800D03*
X0608245Y0016000D03*
X0589245Y0016000D03*
D73*
X0633245Y0011400D03*
X0636845Y0009800D03*
X0648445Y0011400D03*
X0633645Y0018000D03*
X0633645Y0022000D03*
X0639645Y0022000D03*
D74*
X0620945Y0009800D03*
X0578545Y0009800D03*
X0578545Y0010000D03*
D75*
X0647745Y0010000D03*
D76*
X0647845Y0010200D03*
X0608245Y0030200D03*
X0589245Y0030200D03*
D77*
X0589145Y0029800D03*
X0608345Y0029800D03*
X0636745Y0010200D03*
D78*
X0599345Y0010200D03*
X0599145Y0010600D03*
D79*
X0589145Y0020200D03*
X0589145Y0025600D03*
X0636745Y0030000D03*
X0647945Y0010400D03*
D80*
X0636845Y0010400D03*
X0589245Y0016600D03*
D81*
X0589045Y0025800D03*
X0648045Y0010600D03*
D82*
X0636845Y0010600D03*
D83*
X0648145Y0010800D03*
X0639945Y0028600D03*
X0633545Y0028600D03*
X0589145Y0026000D03*
X0589145Y0020000D03*
D84*
X0578745Y0011000D03*
X0578745Y0010800D03*
D85*
X0589245Y0015800D03*
X0608245Y0015800D03*
X0648245Y0011000D03*
D86*
X0648345Y0011200D03*
X0639745Y0018000D03*
X0589145Y0019800D03*
X0589145Y0026200D03*
D87*
X0610345Y0011200D03*
D88*
X0580845Y0011200D03*
D89*
X0589145Y0019600D03*
X0589145Y0030400D03*
X0608345Y0030400D03*
X0633545Y0022200D03*
X0633545Y0017800D03*
X0639745Y0017800D03*
X0640345Y0011400D03*
X0648545Y0011600D03*
D90*
X0598945Y0011400D03*
D91*
X0608245Y0015600D03*
X0610445Y0016600D03*
X0608245Y0022000D03*
X0608245Y0022200D03*
X0608245Y0022400D03*
X0608245Y0022600D03*
X0608245Y0022800D03*
X0608245Y0023000D03*
X0608245Y0023200D03*
X0608245Y0023400D03*
X0608245Y0023600D03*
X0608245Y0023800D03*
X0608245Y0024000D03*
X0608245Y0024200D03*
X0608245Y0024400D03*
X0608245Y0024600D03*
X0608245Y0024800D03*
X0608245Y0025000D03*
X0589245Y0019400D03*
X0589245Y0015600D03*
X0632645Y0011600D03*
X0641045Y0011600D03*
X0648845Y0012400D03*
X0648845Y0012600D03*
X0639645Y0022400D03*
X0633645Y0022400D03*
X0640845Y0028400D03*
X0636845Y0030200D03*
D92*
X0598845Y0011600D03*
D93*
X0633645Y0017600D03*
X0639645Y0022200D03*
X0648645Y0012000D03*
X0648645Y0011800D03*
D94*
X0649045Y0013000D03*
X0649045Y0013200D03*
X0641445Y0011800D03*
X0633645Y0017400D03*
X0633645Y0022600D03*
X0639645Y0022600D03*
X0632245Y0028200D03*
D95*
X0598745Y0011800D03*
D96*
X0589245Y0019200D03*
X0592045Y0029400D03*
X0589245Y0030600D03*
X0586445Y0029400D03*
X0608245Y0030600D03*
X0611045Y0029400D03*
X0631445Y0027800D03*
X0642045Y0027800D03*
X0639645Y0017200D03*
X0633645Y0017200D03*
X0631445Y0012200D03*
X0641845Y0012000D03*
D97*
X0598645Y0012000D03*
X0598645Y0012200D03*
D98*
X0606145Y0016600D03*
X0589145Y0026400D03*
X0632745Y0028400D03*
X0639745Y0017600D03*
X0648745Y0012200D03*
D99*
X0642745Y0012600D03*
X0642145Y0012200D03*
X0631145Y0012400D03*
X0611345Y0016800D03*
X0633545Y0022800D03*
X0631145Y0027600D03*
X0642345Y0027600D03*
X0586145Y0016800D03*
D100*
X0592245Y0016800D03*
X0605245Y0016800D03*
X0589245Y0026800D03*
X0592445Y0029200D03*
X0605045Y0029200D03*
X0630645Y0027200D03*
X0630845Y0027400D03*
X0642645Y0027400D03*
X0639645Y0022800D03*
X0642445Y0012400D03*
X0630845Y0012600D03*
D101*
X0598545Y0012600D03*
X0598545Y0012400D03*
D102*
X0608345Y0025200D03*
X0589145Y0026600D03*
X0639745Y0017400D03*
X0648945Y0012800D03*
X0641345Y0028200D03*
D103*
X0598445Y0012800D03*
D104*
X0598345Y0013000D03*
X0598345Y0013200D03*
D105*
X0636745Y0029200D03*
D106*
X0608245Y0030000D03*
X0589245Y0030000D03*
D107*
X0610545Y0032600D03*
D108*
X0610545Y0032800D03*
D109*
X0610545Y0033000D03*
M02*
