G75*
%MOIN*%
%OFA0B0*%
%FSLAX25Y25*%
%IPPOS*%
%LPD*%
%AMOC8*
5,1,8,0,0,1.08239X$1,22.5*
%
%ADD10C,0.00039*%
%ADD11C,0.00000*%
%ADD12R,0.04337X0.03550*%
%ADD13R,0.03550X0.04337*%
%ADD14R,0.07093X0.10262*%
%ADD15R,0.16148X0.05124*%
%ADD16R,0.14573X0.07093*%
%ADD17R,0.07800X0.07800*%
%ADD18C,0.07800*%
%ADD19R,0.04731X0.08274*%
%ADD20R,0.06699X0.12211*%
%ADD21R,0.04337X0.04337*%
%ADD22R,0.22054X0.06306*%
%ADD23R,0.03943X0.04337*%
%ADD24R,0.04337X0.03943*%
%ADD25C,0.08668*%
%ADD26R,0.09061X0.02762*%
%ADD27R,0.18117X0.18117*%
%ADD28R,0.02369X0.06699*%
%ADD29R,0.06699X0.02369*%
%ADD30R,0.02565X0.02959*%
%ADD31R,0.04337X0.05912*%
%ADD32R,0.04337X0.03156*%
%ADD33R,0.05715X0.05715*%
%ADD34C,0.05715*%
%ADD35R,0.05124X0.07487*%
%ADD36R,0.03156X0.04337*%
%ADD37R,0.07782X0.07782*%
%ADD38C,0.07782*%
%ADD39R,0.09100X0.00100*%
%ADD40R,0.45200X0.00100*%
%ADD41R,0.09200X0.00100*%
%ADD42R,0.09000X0.00100*%
%ADD43R,0.27200X0.00100*%
%ADD44R,0.27100X0.00100*%
D10*
X0032245Y0014343D02*
X0032245Y0230878D01*
X0032244Y0230878D02*
X0032247Y0231116D01*
X0032255Y0231354D01*
X0032270Y0231591D01*
X0032290Y0231828D01*
X0032316Y0232064D01*
X0032347Y0232300D01*
X0032384Y0232535D01*
X0032427Y0232769D01*
X0032476Y0233002D01*
X0032530Y0233234D01*
X0032590Y0233464D01*
X0032655Y0233693D01*
X0032726Y0233920D01*
X0032802Y0234145D01*
X0032884Y0234368D01*
X0032971Y0234590D01*
X0033063Y0234809D01*
X0033161Y0235026D01*
X0033263Y0235240D01*
X0033371Y0235452D01*
X0033485Y0235662D01*
X0033603Y0235868D01*
X0033726Y0236072D01*
X0033854Y0236272D01*
X0033986Y0236469D01*
X0034124Y0236664D01*
X0034266Y0236854D01*
X0034413Y0237042D01*
X0034564Y0237225D01*
X0034719Y0237405D01*
X0034879Y0237581D01*
X0035043Y0237753D01*
X0035212Y0237922D01*
X0035384Y0238086D01*
X0035560Y0238246D01*
X0035740Y0238401D01*
X0035923Y0238552D01*
X0036111Y0238699D01*
X0036301Y0238841D01*
X0036496Y0238979D01*
X0036693Y0239111D01*
X0036893Y0239239D01*
X0037097Y0239362D01*
X0037303Y0239480D01*
X0037513Y0239594D01*
X0037725Y0239702D01*
X0037939Y0239804D01*
X0038156Y0239902D01*
X0038375Y0239994D01*
X0038597Y0240081D01*
X0038820Y0240163D01*
X0039045Y0240239D01*
X0039272Y0240310D01*
X0039501Y0240375D01*
X0039731Y0240435D01*
X0039963Y0240489D01*
X0040196Y0240538D01*
X0040430Y0240581D01*
X0040665Y0240618D01*
X0040901Y0240649D01*
X0041137Y0240675D01*
X0041374Y0240695D01*
X0041611Y0240710D01*
X0041849Y0240718D01*
X0042087Y0240721D01*
X0042087Y0240720D02*
X0652323Y0240720D01*
X0652323Y0240721D02*
X0652561Y0240718D01*
X0652799Y0240710D01*
X0653036Y0240695D01*
X0653273Y0240675D01*
X0653509Y0240649D01*
X0653745Y0240618D01*
X0653980Y0240581D01*
X0654214Y0240538D01*
X0654447Y0240489D01*
X0654679Y0240435D01*
X0654909Y0240375D01*
X0655138Y0240310D01*
X0655365Y0240239D01*
X0655590Y0240163D01*
X0655813Y0240081D01*
X0656035Y0239994D01*
X0656254Y0239902D01*
X0656471Y0239804D01*
X0656685Y0239702D01*
X0656897Y0239594D01*
X0657107Y0239480D01*
X0657313Y0239362D01*
X0657517Y0239239D01*
X0657717Y0239111D01*
X0657914Y0238979D01*
X0658109Y0238841D01*
X0658299Y0238699D01*
X0658487Y0238552D01*
X0658670Y0238401D01*
X0658850Y0238246D01*
X0659026Y0238086D01*
X0659198Y0237922D01*
X0659367Y0237753D01*
X0659531Y0237581D01*
X0659691Y0237405D01*
X0659846Y0237225D01*
X0659997Y0237042D01*
X0660144Y0236854D01*
X0660286Y0236664D01*
X0660424Y0236469D01*
X0660556Y0236272D01*
X0660684Y0236072D01*
X0660807Y0235868D01*
X0660925Y0235662D01*
X0661039Y0235452D01*
X0661147Y0235240D01*
X0661249Y0235026D01*
X0661347Y0234809D01*
X0661439Y0234590D01*
X0661526Y0234368D01*
X0661608Y0234145D01*
X0661684Y0233920D01*
X0661755Y0233693D01*
X0661820Y0233464D01*
X0661880Y0233234D01*
X0661934Y0233002D01*
X0661983Y0232769D01*
X0662026Y0232535D01*
X0662063Y0232300D01*
X0662094Y0232064D01*
X0662120Y0231828D01*
X0662140Y0231591D01*
X0662155Y0231354D01*
X0662163Y0231116D01*
X0662166Y0230878D01*
X0662166Y0014343D01*
X0662163Y0014105D01*
X0662155Y0013867D01*
X0662140Y0013630D01*
X0662120Y0013393D01*
X0662094Y0013157D01*
X0662063Y0012921D01*
X0662026Y0012686D01*
X0661983Y0012452D01*
X0661934Y0012219D01*
X0661880Y0011987D01*
X0661820Y0011757D01*
X0661755Y0011528D01*
X0661684Y0011301D01*
X0661608Y0011076D01*
X0661526Y0010853D01*
X0661439Y0010631D01*
X0661347Y0010412D01*
X0661249Y0010195D01*
X0661147Y0009981D01*
X0661039Y0009769D01*
X0660925Y0009559D01*
X0660807Y0009353D01*
X0660684Y0009149D01*
X0660556Y0008949D01*
X0660424Y0008752D01*
X0660286Y0008557D01*
X0660144Y0008367D01*
X0659997Y0008179D01*
X0659846Y0007996D01*
X0659691Y0007816D01*
X0659531Y0007640D01*
X0659367Y0007468D01*
X0659198Y0007299D01*
X0659026Y0007135D01*
X0658850Y0006975D01*
X0658670Y0006820D01*
X0658487Y0006669D01*
X0658299Y0006522D01*
X0658109Y0006380D01*
X0657914Y0006242D01*
X0657717Y0006110D01*
X0657517Y0005982D01*
X0657313Y0005859D01*
X0657107Y0005741D01*
X0656897Y0005627D01*
X0656685Y0005519D01*
X0656471Y0005417D01*
X0656254Y0005319D01*
X0656035Y0005227D01*
X0655813Y0005140D01*
X0655590Y0005058D01*
X0655365Y0004982D01*
X0655138Y0004911D01*
X0654909Y0004846D01*
X0654679Y0004786D01*
X0654447Y0004732D01*
X0654214Y0004683D01*
X0653980Y0004640D01*
X0653745Y0004603D01*
X0653509Y0004572D01*
X0653273Y0004546D01*
X0653036Y0004526D01*
X0652799Y0004511D01*
X0652561Y0004503D01*
X0652323Y0004500D01*
X0042087Y0004500D01*
X0041849Y0004503D01*
X0041611Y0004511D01*
X0041374Y0004526D01*
X0041137Y0004546D01*
X0040901Y0004572D01*
X0040665Y0004603D01*
X0040430Y0004640D01*
X0040196Y0004683D01*
X0039963Y0004732D01*
X0039731Y0004786D01*
X0039501Y0004846D01*
X0039272Y0004911D01*
X0039045Y0004982D01*
X0038820Y0005058D01*
X0038597Y0005140D01*
X0038375Y0005227D01*
X0038156Y0005319D01*
X0037939Y0005417D01*
X0037725Y0005519D01*
X0037513Y0005627D01*
X0037303Y0005741D01*
X0037097Y0005859D01*
X0036893Y0005982D01*
X0036693Y0006110D01*
X0036496Y0006242D01*
X0036301Y0006380D01*
X0036111Y0006522D01*
X0035923Y0006669D01*
X0035740Y0006820D01*
X0035560Y0006975D01*
X0035384Y0007135D01*
X0035212Y0007299D01*
X0035043Y0007468D01*
X0034879Y0007640D01*
X0034719Y0007816D01*
X0034564Y0007996D01*
X0034413Y0008179D01*
X0034266Y0008367D01*
X0034124Y0008557D01*
X0033986Y0008752D01*
X0033854Y0008949D01*
X0033726Y0009149D01*
X0033603Y0009353D01*
X0033485Y0009559D01*
X0033371Y0009769D01*
X0033263Y0009981D01*
X0033161Y0010195D01*
X0033063Y0010412D01*
X0032971Y0010631D01*
X0032884Y0010853D01*
X0032802Y0011076D01*
X0032726Y0011301D01*
X0032655Y0011528D01*
X0032590Y0011757D01*
X0032530Y0011987D01*
X0032476Y0012219D01*
X0032427Y0012452D01*
X0032384Y0012686D01*
X0032347Y0012921D01*
X0032316Y0013157D01*
X0032290Y0013393D01*
X0032270Y0013630D01*
X0032255Y0013867D01*
X0032247Y0014105D01*
X0032244Y0014343D01*
D11*
X0278308Y0057650D02*
X0278308Y0187571D01*
X0278310Y0187695D01*
X0278316Y0187818D01*
X0278325Y0187942D01*
X0278339Y0188064D01*
X0278356Y0188187D01*
X0278378Y0188309D01*
X0278403Y0188430D01*
X0278432Y0188550D01*
X0278464Y0188669D01*
X0278501Y0188788D01*
X0278541Y0188905D01*
X0278584Y0189020D01*
X0278632Y0189135D01*
X0278683Y0189247D01*
X0278737Y0189358D01*
X0278795Y0189468D01*
X0278856Y0189575D01*
X0278921Y0189681D01*
X0278989Y0189784D01*
X0279060Y0189885D01*
X0279134Y0189984D01*
X0279211Y0190081D01*
X0279292Y0190175D01*
X0279375Y0190266D01*
X0279461Y0190355D01*
X0279550Y0190441D01*
X0279641Y0190524D01*
X0279735Y0190605D01*
X0279832Y0190682D01*
X0279931Y0190756D01*
X0280032Y0190827D01*
X0280135Y0190895D01*
X0280241Y0190960D01*
X0280348Y0191021D01*
X0280458Y0191079D01*
X0280569Y0191133D01*
X0280681Y0191184D01*
X0280796Y0191232D01*
X0280911Y0191275D01*
X0281028Y0191315D01*
X0281147Y0191352D01*
X0281266Y0191384D01*
X0281386Y0191413D01*
X0281507Y0191438D01*
X0281629Y0191460D01*
X0281752Y0191477D01*
X0281874Y0191491D01*
X0281998Y0191500D01*
X0282121Y0191506D01*
X0282245Y0191508D01*
X0412166Y0191508D01*
X0412290Y0191506D01*
X0412413Y0191500D01*
X0412537Y0191491D01*
X0412659Y0191477D01*
X0412782Y0191460D01*
X0412904Y0191438D01*
X0413025Y0191413D01*
X0413145Y0191384D01*
X0413264Y0191352D01*
X0413383Y0191315D01*
X0413500Y0191275D01*
X0413615Y0191232D01*
X0413730Y0191184D01*
X0413842Y0191133D01*
X0413953Y0191079D01*
X0414063Y0191021D01*
X0414170Y0190960D01*
X0414276Y0190895D01*
X0414379Y0190827D01*
X0414480Y0190756D01*
X0414579Y0190682D01*
X0414676Y0190605D01*
X0414770Y0190524D01*
X0414861Y0190441D01*
X0414950Y0190355D01*
X0415036Y0190266D01*
X0415119Y0190175D01*
X0415200Y0190081D01*
X0415277Y0189984D01*
X0415351Y0189885D01*
X0415422Y0189784D01*
X0415490Y0189681D01*
X0415555Y0189575D01*
X0415616Y0189468D01*
X0415674Y0189358D01*
X0415728Y0189247D01*
X0415779Y0189135D01*
X0415827Y0189020D01*
X0415870Y0188905D01*
X0415910Y0188788D01*
X0415947Y0188669D01*
X0415979Y0188550D01*
X0416008Y0188430D01*
X0416033Y0188309D01*
X0416055Y0188187D01*
X0416072Y0188064D01*
X0416086Y0187942D01*
X0416095Y0187818D01*
X0416101Y0187695D01*
X0416103Y0187571D01*
X0416103Y0057650D01*
X0416101Y0057526D01*
X0416095Y0057403D01*
X0416086Y0057279D01*
X0416072Y0057157D01*
X0416055Y0057034D01*
X0416033Y0056912D01*
X0416008Y0056791D01*
X0415979Y0056671D01*
X0415947Y0056552D01*
X0415910Y0056433D01*
X0415870Y0056316D01*
X0415827Y0056201D01*
X0415779Y0056086D01*
X0415728Y0055974D01*
X0415674Y0055863D01*
X0415616Y0055753D01*
X0415555Y0055646D01*
X0415490Y0055540D01*
X0415422Y0055437D01*
X0415351Y0055336D01*
X0415277Y0055237D01*
X0415200Y0055140D01*
X0415119Y0055046D01*
X0415036Y0054955D01*
X0414950Y0054866D01*
X0414861Y0054780D01*
X0414770Y0054697D01*
X0414676Y0054616D01*
X0414579Y0054539D01*
X0414480Y0054465D01*
X0414379Y0054394D01*
X0414276Y0054326D01*
X0414170Y0054261D01*
X0414063Y0054200D01*
X0413953Y0054142D01*
X0413842Y0054088D01*
X0413730Y0054037D01*
X0413615Y0053989D01*
X0413500Y0053946D01*
X0413383Y0053906D01*
X0413264Y0053869D01*
X0413145Y0053837D01*
X0413025Y0053808D01*
X0412904Y0053783D01*
X0412782Y0053761D01*
X0412659Y0053744D01*
X0412537Y0053730D01*
X0412413Y0053721D01*
X0412290Y0053715D01*
X0412166Y0053713D01*
X0282245Y0053713D01*
X0282121Y0053715D01*
X0281998Y0053721D01*
X0281874Y0053730D01*
X0281752Y0053744D01*
X0281629Y0053761D01*
X0281507Y0053783D01*
X0281386Y0053808D01*
X0281266Y0053837D01*
X0281147Y0053869D01*
X0281028Y0053906D01*
X0280911Y0053946D01*
X0280796Y0053989D01*
X0280681Y0054037D01*
X0280569Y0054088D01*
X0280458Y0054142D01*
X0280348Y0054200D01*
X0280241Y0054261D01*
X0280135Y0054326D01*
X0280032Y0054394D01*
X0279931Y0054465D01*
X0279832Y0054539D01*
X0279735Y0054616D01*
X0279641Y0054697D01*
X0279550Y0054780D01*
X0279461Y0054866D01*
X0279375Y0054955D01*
X0279292Y0055046D01*
X0279211Y0055140D01*
X0279134Y0055237D01*
X0279060Y0055336D01*
X0278989Y0055437D01*
X0278921Y0055540D01*
X0278856Y0055646D01*
X0278795Y0055753D01*
X0278737Y0055863D01*
X0278683Y0055974D01*
X0278632Y0056086D01*
X0278584Y0056201D01*
X0278541Y0056316D01*
X0278501Y0056433D01*
X0278464Y0056552D01*
X0278432Y0056671D01*
X0278403Y0056791D01*
X0278378Y0056912D01*
X0278356Y0057034D01*
X0278339Y0057157D01*
X0278325Y0057279D01*
X0278316Y0057403D01*
X0278310Y0057526D01*
X0278308Y0057650D01*
D12*
X0477763Y0086702D03*
X0477763Y0092411D03*
D13*
X0454699Y0205700D03*
X0448990Y0205700D03*
X0133699Y0104700D03*
X0127990Y0104700D03*
X0096699Y0104700D03*
X0090990Y0104700D03*
X0071699Y0090500D03*
X0065990Y0090500D03*
X0065490Y0119000D03*
X0071199Y0119000D03*
D14*
X0456345Y0080643D03*
X0456345Y0060957D03*
D15*
X0087545Y0148341D03*
X0087545Y0156215D03*
X0087545Y0164089D03*
X0087545Y0171963D03*
X0087545Y0179837D03*
X0087545Y0187711D03*
X0087545Y0195585D03*
X0087545Y0203459D03*
D16*
X0064513Y0212711D03*
X0064513Y0139089D03*
D17*
X0213545Y0055700D03*
X0189045Y0055300D03*
X0164645Y0055300D03*
D18*
X0163645Y0045300D03*
X0164645Y0035300D03*
X0189045Y0035300D03*
X0188045Y0045300D03*
X0212545Y0045700D03*
X0213545Y0035700D03*
D19*
X0236234Y0035550D03*
X0244108Y0035550D03*
X0251982Y0035550D03*
X0259856Y0035550D03*
X0474097Y0039300D03*
X0481971Y0039300D03*
X0489845Y0039300D03*
X0497719Y0039300D03*
X0505593Y0039300D03*
D20*
X0511892Y0055048D03*
X0467797Y0055048D03*
X0266155Y0051298D03*
X0229934Y0051298D03*
D21*
X0469324Y0082535D03*
X0469324Y0088835D03*
D22*
X0129577Y0121700D03*
X0096112Y0121700D03*
D23*
X0109195Y0104700D03*
X0115494Y0104700D03*
X0132595Y0143000D03*
X0138894Y0143000D03*
X0123394Y0182500D03*
X0117095Y0182500D03*
X0117095Y0208500D03*
X0123394Y0208500D03*
X0501695Y0185500D03*
X0507994Y0185500D03*
X0511113Y0092735D03*
X0504814Y0092735D03*
X0504541Y0083656D03*
X0510840Y0083656D03*
X0506552Y0073839D03*
X0500252Y0073839D03*
D24*
X0495345Y0106450D03*
X0495345Y0112750D03*
X0265545Y0085250D03*
X0257545Y0085250D03*
X0250045Y0085250D03*
X0242545Y0085250D03*
X0242545Y0078950D03*
X0250045Y0078950D03*
X0257545Y0078950D03*
X0265545Y0078950D03*
X0117245Y0192350D03*
X0117245Y0198650D03*
D25*
X0090737Y0049050D03*
X0071052Y0049050D03*
D26*
X0119108Y0048600D03*
X0119108Y0043600D03*
X0119108Y0038600D03*
X0139581Y0038600D03*
X0139581Y0043600D03*
X0139581Y0048600D03*
X0139581Y0053600D03*
X0119108Y0053600D03*
X0139008Y0188500D03*
X0139008Y0193500D03*
X0139008Y0198500D03*
X0139008Y0203500D03*
X0159481Y0203500D03*
X0159481Y0198500D03*
X0159481Y0193500D03*
X0159481Y0188500D03*
D27*
X0171795Y0132000D03*
D28*
X0173369Y0114283D03*
X0170220Y0114283D03*
X0166676Y0114283D03*
X0163921Y0114283D03*
X0160771Y0114283D03*
X0176519Y0114283D03*
X0179669Y0114283D03*
X0182818Y0114283D03*
X0182818Y0149323D03*
X0179669Y0149323D03*
X0176519Y0149323D03*
X0173369Y0149323D03*
X0170220Y0149323D03*
X0167070Y0149323D03*
X0163921Y0149323D03*
X0160771Y0149323D03*
D29*
X0154078Y0143024D03*
X0154078Y0139874D03*
X0154078Y0136724D03*
X0154078Y0133575D03*
X0154078Y0130425D03*
X0154078Y0127276D03*
X0154078Y0124126D03*
X0154078Y0120976D03*
X0189511Y0120976D03*
X0189511Y0124126D03*
X0189511Y0127276D03*
X0189511Y0130425D03*
X0189511Y0133575D03*
X0189511Y0136724D03*
X0189511Y0139874D03*
X0189511Y0143024D03*
D30*
X0480204Y0113726D03*
X0483945Y0113726D03*
X0487685Y0113726D03*
X0487685Y0104474D03*
X0483945Y0104474D03*
X0480204Y0104474D03*
X0485822Y0093679D03*
X0489562Y0093679D03*
X0493302Y0093679D03*
X0493302Y0084427D03*
X0489562Y0084427D03*
X0485822Y0084427D03*
D31*
X0133591Y0076169D03*
X0126898Y0076169D03*
X0130245Y0084831D03*
D32*
X0217020Y0188260D03*
X0217020Y0192000D03*
X0217020Y0195740D03*
X0226469Y0195740D03*
X0226469Y0188260D03*
D33*
X0200795Y0205400D03*
D34*
X0190795Y0205400D03*
D35*
X0482720Y0075306D03*
X0492169Y0075306D03*
D36*
X0072085Y0101276D03*
X0068345Y0101276D03*
X0064604Y0101276D03*
X0064604Y0110724D03*
X0072085Y0110724D03*
D37*
X0467445Y0152300D03*
X0504245Y0175100D03*
D38*
X0494245Y0175100D03*
X0494245Y0165100D03*
X0504245Y0165100D03*
X0504245Y0155100D03*
X0494245Y0155100D03*
X0467445Y0162339D03*
X0467445Y0172339D03*
X0467445Y0182339D03*
X0467445Y0192457D03*
X0467445Y0202457D03*
D39*
X0572345Y0187300D03*
X0572345Y0187200D03*
X0572345Y0187100D03*
X0572345Y0187000D03*
X0572345Y0186900D03*
X0572345Y0186800D03*
X0572345Y0186700D03*
X0572345Y0186600D03*
X0572345Y0186500D03*
X0572345Y0186400D03*
X0572345Y0186300D03*
X0572345Y0186200D03*
X0572345Y0186100D03*
X0572345Y0186000D03*
X0572345Y0185900D03*
X0572345Y0185800D03*
X0572345Y0185700D03*
X0572345Y0185600D03*
X0572345Y0185500D03*
X0572345Y0185400D03*
X0572345Y0185300D03*
X0572345Y0185200D03*
X0572345Y0185100D03*
X0572345Y0185000D03*
X0572345Y0184900D03*
X0572345Y0184800D03*
X0572345Y0184700D03*
X0572345Y0184600D03*
X0572345Y0184500D03*
X0572345Y0184400D03*
X0572345Y0184300D03*
X0572345Y0184200D03*
X0572345Y0184100D03*
X0572345Y0184000D03*
X0572345Y0183900D03*
X0572345Y0183800D03*
X0572345Y0183700D03*
X0572345Y0183600D03*
X0572345Y0183500D03*
X0572345Y0183400D03*
X0572345Y0183300D03*
X0572345Y0183200D03*
X0572345Y0183100D03*
X0572345Y0183000D03*
X0572345Y0182900D03*
X0572345Y0182800D03*
X0572345Y0182700D03*
X0572345Y0182600D03*
X0572345Y0182500D03*
X0572345Y0182400D03*
X0572345Y0182300D03*
X0572345Y0182200D03*
X0572345Y0182100D03*
X0572345Y0182000D03*
X0572345Y0181900D03*
X0572345Y0181800D03*
X0572345Y0181700D03*
X0572345Y0181600D03*
X0572345Y0181500D03*
X0572345Y0181400D03*
X0572345Y0181300D03*
X0572345Y0181200D03*
X0572345Y0181100D03*
X0572345Y0181000D03*
X0572345Y0180900D03*
X0572345Y0180800D03*
X0572345Y0180700D03*
X0572345Y0180600D03*
X0572345Y0180500D03*
X0572345Y0180400D03*
X0572345Y0180300D03*
X0572345Y0180200D03*
X0572345Y0180100D03*
X0572345Y0180000D03*
X0572345Y0179900D03*
X0572345Y0179800D03*
X0572345Y0179700D03*
X0572345Y0179600D03*
X0572345Y0179500D03*
X0572345Y0179400D03*
X0572345Y0179300D03*
X0572345Y0179200D03*
X0572345Y0179100D03*
X0572345Y0179000D03*
X0572345Y0178900D03*
X0572345Y0178800D03*
X0572345Y0178700D03*
X0572345Y0178600D03*
X0572345Y0178500D03*
X0572345Y0178400D03*
X0572345Y0178300D03*
X0572345Y0178200D03*
X0572345Y0178100D03*
X0572345Y0178000D03*
X0572345Y0177900D03*
X0572345Y0177800D03*
X0572345Y0177700D03*
X0572345Y0177600D03*
X0572345Y0177500D03*
X0572345Y0177400D03*
X0572345Y0177300D03*
X0572345Y0177200D03*
X0572345Y0177100D03*
X0572345Y0177000D03*
X0572345Y0176900D03*
X0572345Y0176800D03*
X0572345Y0176700D03*
X0572345Y0176600D03*
X0572345Y0176500D03*
X0572345Y0176400D03*
X0572345Y0176300D03*
X0572345Y0176200D03*
X0572345Y0176100D03*
X0572345Y0176000D03*
X0572345Y0175900D03*
X0572345Y0175800D03*
X0572345Y0175700D03*
X0572345Y0175600D03*
X0572345Y0175500D03*
X0572345Y0175400D03*
X0572345Y0175300D03*
X0572345Y0175200D03*
X0572345Y0175100D03*
X0572345Y0175000D03*
X0572345Y0174900D03*
X0572345Y0174800D03*
X0572345Y0174700D03*
X0572345Y0174600D03*
X0572345Y0174500D03*
X0572345Y0174400D03*
X0572345Y0174300D03*
X0572345Y0174200D03*
X0572345Y0174100D03*
X0572345Y0174000D03*
X0572345Y0173900D03*
X0572345Y0173800D03*
X0572345Y0173700D03*
X0572345Y0173600D03*
X0572345Y0173500D03*
X0572345Y0173400D03*
X0572345Y0173300D03*
X0572345Y0173200D03*
X0572345Y0173100D03*
X0572345Y0173000D03*
X0572345Y0172900D03*
X0572345Y0172800D03*
X0572345Y0172700D03*
X0572345Y0172600D03*
X0572345Y0172500D03*
X0572345Y0172400D03*
X0572345Y0172300D03*
X0572345Y0172200D03*
X0572345Y0172100D03*
X0572345Y0172000D03*
X0572345Y0171900D03*
X0572345Y0171800D03*
X0572345Y0171700D03*
X0572345Y0171600D03*
X0572345Y0171500D03*
X0572345Y0171400D03*
X0572345Y0171300D03*
X0572345Y0171200D03*
X0572345Y0171100D03*
X0572345Y0171000D03*
X0572345Y0170900D03*
X0572345Y0170800D03*
X0572345Y0170700D03*
X0572345Y0170600D03*
X0572345Y0170500D03*
X0572345Y0170400D03*
X0572345Y0170300D03*
X0572345Y0170200D03*
X0572345Y0170100D03*
X0572345Y0170000D03*
X0572345Y0169900D03*
X0572345Y0169800D03*
X0572345Y0169700D03*
X0572345Y0169600D03*
X0572345Y0169500D03*
X0572345Y0169400D03*
X0572345Y0169300D03*
X0572345Y0169200D03*
X0572345Y0169100D03*
X0572345Y0169000D03*
X0572345Y0168900D03*
X0572345Y0168800D03*
X0572345Y0168700D03*
X0572345Y0168600D03*
X0572345Y0168500D03*
X0572345Y0168400D03*
X0572345Y0168300D03*
X0572345Y0168200D03*
X0572345Y0168100D03*
X0572345Y0168000D03*
X0572345Y0167900D03*
X0572345Y0167800D03*
X0572345Y0167700D03*
X0572345Y0167600D03*
X0572345Y0167500D03*
X0572345Y0167400D03*
X0572345Y0167300D03*
X0572345Y0167200D03*
X0572345Y0167100D03*
X0572345Y0167000D03*
X0572345Y0166900D03*
X0572345Y0166800D03*
X0572345Y0166700D03*
X0572345Y0166600D03*
X0572345Y0166500D03*
X0572345Y0166400D03*
X0572345Y0166300D03*
X0572345Y0166200D03*
X0572345Y0166100D03*
X0572345Y0166000D03*
X0572345Y0165900D03*
X0572345Y0165800D03*
X0572345Y0165700D03*
X0572345Y0165600D03*
X0572345Y0165500D03*
X0572345Y0165400D03*
X0572345Y0165300D03*
X0572345Y0165200D03*
X0572345Y0165100D03*
X0572345Y0165000D03*
X0572345Y0164900D03*
X0572345Y0164800D03*
X0572345Y0164700D03*
X0572345Y0164600D03*
X0572345Y0164500D03*
X0572345Y0164400D03*
X0572345Y0164300D03*
X0572345Y0164200D03*
X0572345Y0164100D03*
X0572345Y0164000D03*
X0572345Y0163900D03*
X0572345Y0163800D03*
X0572345Y0163700D03*
X0572345Y0163600D03*
X0572345Y0163500D03*
X0572345Y0163400D03*
X0572345Y0163300D03*
X0572345Y0163200D03*
X0572345Y0163100D03*
X0572345Y0163000D03*
X0572345Y0162900D03*
X0572345Y0162800D03*
X0572345Y0162700D03*
X0572345Y0162600D03*
X0572345Y0162500D03*
X0572345Y0162400D03*
X0572345Y0162300D03*
X0572345Y0162200D03*
X0572345Y0162100D03*
X0572345Y0162000D03*
X0572345Y0161900D03*
X0572345Y0161800D03*
X0572345Y0161700D03*
X0572345Y0161600D03*
X0572345Y0161500D03*
X0572345Y0161400D03*
X0572345Y0161300D03*
X0572345Y0161200D03*
X0572345Y0161100D03*
X0572345Y0161000D03*
X0572345Y0160900D03*
X0572345Y0160800D03*
X0572345Y0160700D03*
X0572345Y0160600D03*
X0572345Y0160500D03*
X0572345Y0160400D03*
X0572345Y0160300D03*
D40*
X0608295Y0160300D03*
X0608295Y0160400D03*
X0608295Y0160500D03*
X0608295Y0160600D03*
X0608295Y0160700D03*
X0608295Y0160800D03*
X0608295Y0160900D03*
X0608295Y0161000D03*
X0608295Y0161100D03*
X0608295Y0161200D03*
X0608295Y0161300D03*
X0608295Y0161400D03*
X0608295Y0161500D03*
X0608295Y0161600D03*
X0608295Y0161700D03*
X0608295Y0161800D03*
X0608295Y0161900D03*
X0608295Y0162000D03*
X0608295Y0162100D03*
X0608295Y0162200D03*
X0608295Y0162300D03*
X0608295Y0162400D03*
X0608295Y0162500D03*
X0608295Y0162600D03*
X0608295Y0162700D03*
X0608295Y0162800D03*
X0608295Y0162900D03*
X0608295Y0163000D03*
X0608295Y0163100D03*
X0608295Y0163200D03*
X0608295Y0163300D03*
X0608295Y0163400D03*
X0608295Y0163500D03*
X0608295Y0163600D03*
X0608295Y0163700D03*
X0608295Y0163800D03*
X0608295Y0163900D03*
X0608295Y0164000D03*
X0608295Y0164100D03*
X0608295Y0164200D03*
X0608295Y0164300D03*
X0608295Y0164400D03*
X0608295Y0164500D03*
X0608295Y0164600D03*
X0608295Y0164700D03*
X0608295Y0164800D03*
X0608295Y0164900D03*
X0608295Y0165000D03*
X0608295Y0165100D03*
X0608295Y0165200D03*
X0608295Y0165300D03*
X0608295Y0165400D03*
X0608295Y0165500D03*
X0608295Y0165600D03*
X0608295Y0165700D03*
X0608295Y0165800D03*
X0608295Y0165900D03*
X0608295Y0166000D03*
X0608295Y0166100D03*
X0608295Y0166200D03*
X0608295Y0166300D03*
X0608295Y0166400D03*
X0608295Y0166500D03*
X0608295Y0166600D03*
X0608295Y0166700D03*
X0608295Y0166800D03*
X0608295Y0166900D03*
X0608295Y0167000D03*
X0608295Y0167100D03*
X0608295Y0167200D03*
X0608295Y0167300D03*
X0608295Y0167400D03*
X0608295Y0167500D03*
X0608295Y0167600D03*
X0608295Y0167700D03*
X0608295Y0167800D03*
X0608295Y0167900D03*
X0608295Y0168000D03*
X0608295Y0168100D03*
X0608295Y0168200D03*
X0608295Y0168300D03*
X0608295Y0168400D03*
X0608295Y0168500D03*
X0608295Y0168600D03*
X0608295Y0168700D03*
X0608295Y0168800D03*
X0608295Y0168900D03*
X0608295Y0169000D03*
X0608295Y0169100D03*
X0608295Y0169200D03*
X0608295Y0169300D03*
X0608295Y0169400D03*
D41*
X0608295Y0169500D03*
X0608295Y0169600D03*
X0608295Y0169700D03*
X0608295Y0169800D03*
X0608295Y0169900D03*
X0608295Y0170000D03*
X0608295Y0170100D03*
X0608295Y0170200D03*
X0608295Y0170300D03*
X0608295Y0170400D03*
X0608295Y0170500D03*
X0608295Y0170600D03*
X0608295Y0170700D03*
X0608295Y0170800D03*
X0608295Y0170900D03*
X0608295Y0171000D03*
X0608295Y0171100D03*
X0608295Y0171200D03*
X0608295Y0171300D03*
X0608295Y0171400D03*
X0608295Y0171500D03*
X0608295Y0171600D03*
X0608295Y0171700D03*
X0608295Y0171800D03*
X0608295Y0171900D03*
X0608295Y0172000D03*
X0608295Y0172100D03*
X0608295Y0172200D03*
X0608295Y0172300D03*
X0608295Y0172400D03*
X0608295Y0172500D03*
X0608295Y0172600D03*
X0608295Y0172700D03*
X0608295Y0172800D03*
X0608295Y0172900D03*
X0608295Y0173000D03*
X0608295Y0173100D03*
X0608295Y0173200D03*
X0608295Y0173300D03*
X0608295Y0173400D03*
X0608295Y0173500D03*
X0608295Y0173600D03*
X0608295Y0173700D03*
X0608295Y0173800D03*
X0608295Y0173900D03*
X0608295Y0174000D03*
X0608295Y0174100D03*
X0608295Y0174200D03*
X0608295Y0174300D03*
X0608295Y0174400D03*
X0608295Y0174500D03*
X0608295Y0174600D03*
X0608295Y0174700D03*
X0608295Y0174800D03*
X0608295Y0174900D03*
X0608295Y0175000D03*
X0608295Y0175100D03*
X0608295Y0175200D03*
X0608295Y0175300D03*
X0608295Y0175400D03*
X0608295Y0175500D03*
X0608295Y0175600D03*
X0608295Y0175700D03*
X0608295Y0175800D03*
X0608295Y0175900D03*
X0608295Y0176000D03*
X0608295Y0176100D03*
X0608295Y0176200D03*
X0608295Y0176300D03*
X0608295Y0176400D03*
X0608295Y0176500D03*
X0608295Y0176600D03*
X0608295Y0176700D03*
X0608295Y0176800D03*
X0608295Y0176900D03*
X0608295Y0177000D03*
X0608295Y0177100D03*
X0608295Y0177200D03*
X0608295Y0177300D03*
X0608295Y0177400D03*
X0608295Y0177500D03*
X0608295Y0177600D03*
X0608295Y0177700D03*
X0608295Y0177800D03*
X0608295Y0177900D03*
X0608295Y0178000D03*
X0608295Y0178100D03*
X0608295Y0178200D03*
X0608295Y0178300D03*
X0608295Y0178400D03*
X0608295Y0178500D03*
X0608295Y0178600D03*
X0608295Y0178700D03*
X0608295Y0178800D03*
X0608295Y0178900D03*
X0608295Y0179000D03*
X0608295Y0179100D03*
X0608295Y0179200D03*
X0608295Y0179300D03*
X0608295Y0179400D03*
X0608295Y0179500D03*
X0608295Y0179600D03*
X0608295Y0179700D03*
X0608295Y0179800D03*
X0608295Y0179900D03*
X0608295Y0180000D03*
X0608295Y0180100D03*
X0608295Y0180200D03*
X0608295Y0180300D03*
X0608295Y0180400D03*
X0608295Y0180500D03*
X0608295Y0180600D03*
X0608295Y0180700D03*
X0608295Y0180800D03*
X0608295Y0180900D03*
X0608295Y0181000D03*
X0608295Y0181100D03*
X0608295Y0181200D03*
X0608295Y0181300D03*
X0608295Y0181400D03*
X0608295Y0181500D03*
X0608295Y0181600D03*
X0608295Y0181700D03*
X0608295Y0181800D03*
X0608295Y0181900D03*
X0608295Y0182000D03*
X0608295Y0182100D03*
X0608295Y0182200D03*
X0608295Y0182300D03*
X0608295Y0182400D03*
X0608295Y0182500D03*
X0608295Y0182600D03*
X0608295Y0182700D03*
X0608295Y0182800D03*
X0608295Y0182900D03*
X0608295Y0183000D03*
X0608295Y0183100D03*
X0608295Y0183200D03*
X0608295Y0183300D03*
X0608295Y0183400D03*
X0608295Y0183500D03*
X0608295Y0183600D03*
X0608295Y0183700D03*
X0608295Y0183800D03*
X0608295Y0183900D03*
X0608295Y0184000D03*
X0608295Y0184100D03*
X0608295Y0184200D03*
X0608295Y0184300D03*
X0608295Y0184400D03*
X0608295Y0184500D03*
X0608295Y0184600D03*
X0608295Y0184700D03*
X0608295Y0184800D03*
X0608295Y0184900D03*
X0608295Y0185000D03*
X0608295Y0185100D03*
X0608295Y0185200D03*
X0608295Y0185300D03*
X0608295Y0185400D03*
X0608295Y0185500D03*
X0608295Y0185600D03*
X0608295Y0185700D03*
X0608295Y0185800D03*
X0608295Y0185900D03*
X0608295Y0186000D03*
X0608295Y0186100D03*
X0608295Y0186200D03*
X0608295Y0186300D03*
X0608295Y0186400D03*
X0608295Y0186500D03*
X0608295Y0186600D03*
X0608295Y0186700D03*
X0608295Y0186800D03*
X0608295Y0186900D03*
X0608295Y0187000D03*
X0608295Y0187100D03*
X0608295Y0187200D03*
X0608295Y0187300D03*
X0608295Y0187400D03*
X0608295Y0187500D03*
X0608295Y0187600D03*
X0608295Y0187700D03*
X0608295Y0187800D03*
X0608295Y0187900D03*
X0608295Y0188000D03*
X0608295Y0188100D03*
X0608295Y0188200D03*
X0608295Y0188300D03*
X0608295Y0188400D03*
X0608295Y0188500D03*
X0608295Y0188600D03*
X0608295Y0188700D03*
X0608295Y0188800D03*
X0608295Y0188900D03*
X0608295Y0189000D03*
X0608295Y0189100D03*
X0608295Y0189200D03*
X0608295Y0189300D03*
X0608295Y0189400D03*
X0608295Y0189500D03*
X0608295Y0189600D03*
X0608295Y0189700D03*
X0608295Y0189800D03*
X0608295Y0189900D03*
X0608295Y0190000D03*
X0608295Y0190100D03*
X0608295Y0190200D03*
X0608295Y0190300D03*
X0608295Y0190400D03*
X0608295Y0190500D03*
X0608295Y0190600D03*
X0608295Y0190700D03*
X0608295Y0190800D03*
X0608295Y0190900D03*
X0608295Y0191000D03*
X0608295Y0191100D03*
X0608295Y0191200D03*
X0608295Y0191300D03*
X0608295Y0191400D03*
X0608295Y0191500D03*
X0608295Y0191600D03*
X0608295Y0191700D03*
X0608295Y0191800D03*
X0608295Y0191900D03*
X0608295Y0192000D03*
X0608295Y0192100D03*
X0608295Y0192200D03*
X0608295Y0192300D03*
X0608295Y0192400D03*
X0608295Y0192500D03*
X0608295Y0192600D03*
X0608295Y0192700D03*
X0608295Y0192800D03*
X0608295Y0192900D03*
X0608295Y0193000D03*
X0608295Y0193100D03*
X0608295Y0193200D03*
X0608295Y0193300D03*
X0608295Y0193400D03*
X0608295Y0193500D03*
X0608295Y0193600D03*
X0608295Y0193700D03*
X0608295Y0193800D03*
X0608295Y0193900D03*
X0608295Y0194000D03*
X0608295Y0194100D03*
X0608295Y0194200D03*
X0608295Y0194300D03*
X0608295Y0194400D03*
X0608295Y0194500D03*
X0608295Y0194600D03*
X0608295Y0194700D03*
X0608295Y0194800D03*
X0608295Y0194900D03*
X0608295Y0195000D03*
X0608295Y0195100D03*
X0608295Y0195200D03*
X0608295Y0195300D03*
X0608295Y0195400D03*
X0608295Y0195500D03*
X0608295Y0195600D03*
X0608295Y0195700D03*
X0608295Y0195800D03*
X0608295Y0195900D03*
X0608295Y0196000D03*
X0608295Y0196100D03*
X0608295Y0196200D03*
X0608295Y0196300D03*
X0608295Y0196400D03*
X0608295Y0196500D03*
X0608295Y0196600D03*
X0608295Y0196700D03*
X0608295Y0196800D03*
X0608295Y0196900D03*
X0608295Y0197000D03*
X0608295Y0197100D03*
X0608295Y0197200D03*
X0608295Y0197300D03*
X0608295Y0197400D03*
X0608295Y0197500D03*
X0608295Y0197600D03*
X0608295Y0197700D03*
X0608295Y0197800D03*
X0608295Y0197900D03*
X0608295Y0198000D03*
X0608295Y0198100D03*
X0608295Y0198200D03*
X0608295Y0198300D03*
X0608295Y0198400D03*
X0608295Y0198500D03*
X0608295Y0198600D03*
X0608295Y0198700D03*
X0608295Y0198800D03*
X0608295Y0198900D03*
X0608295Y0199000D03*
X0608295Y0199100D03*
X0608295Y0199200D03*
X0608295Y0199300D03*
X0608295Y0199400D03*
X0608295Y0199500D03*
X0608295Y0199600D03*
X0608295Y0199700D03*
X0608295Y0199800D03*
X0608295Y0199900D03*
X0608295Y0200000D03*
X0608295Y0200100D03*
X0608295Y0200200D03*
X0608295Y0200300D03*
X0608295Y0200400D03*
X0608295Y0200500D03*
X0608295Y0200600D03*
X0608295Y0200700D03*
X0608295Y0200800D03*
X0608295Y0200900D03*
X0608295Y0201000D03*
X0608295Y0201100D03*
X0608295Y0201200D03*
X0608295Y0201300D03*
X0608295Y0201400D03*
X0608295Y0201500D03*
X0608295Y0201600D03*
X0608295Y0201700D03*
X0608295Y0201800D03*
X0608295Y0201900D03*
X0608295Y0202000D03*
X0608295Y0202100D03*
X0608295Y0202200D03*
X0608295Y0202300D03*
X0608295Y0202400D03*
X0608295Y0202500D03*
X0608295Y0202600D03*
X0608295Y0202700D03*
X0608295Y0202800D03*
X0608295Y0202900D03*
X0608295Y0203000D03*
X0608295Y0203100D03*
X0608295Y0203200D03*
X0608295Y0203300D03*
X0608295Y0203400D03*
X0608295Y0203500D03*
X0608295Y0203600D03*
X0608295Y0203700D03*
X0608295Y0203800D03*
X0608295Y0203900D03*
X0608295Y0204000D03*
X0608295Y0204100D03*
X0608295Y0204200D03*
X0608295Y0204300D03*
X0608295Y0204400D03*
X0608295Y0204500D03*
X0608295Y0204600D03*
X0608295Y0204700D03*
X0608295Y0204800D03*
X0608295Y0204900D03*
X0608295Y0205000D03*
X0608295Y0205100D03*
X0608295Y0205200D03*
X0590295Y0187300D03*
X0590295Y0187200D03*
X0590295Y0187100D03*
X0590295Y0187000D03*
X0590295Y0186900D03*
X0590295Y0186800D03*
X0590295Y0186700D03*
X0590295Y0186600D03*
X0590295Y0186500D03*
X0590295Y0186400D03*
X0590295Y0186300D03*
X0590295Y0186200D03*
X0590295Y0186100D03*
X0590295Y0186000D03*
X0590295Y0185900D03*
X0590295Y0185800D03*
X0590295Y0185700D03*
X0590295Y0185600D03*
X0590295Y0185500D03*
X0590295Y0185400D03*
X0590295Y0185300D03*
X0590295Y0185200D03*
X0590295Y0185100D03*
X0590295Y0185000D03*
X0590295Y0184900D03*
X0590295Y0184800D03*
X0590295Y0184700D03*
X0590295Y0184600D03*
X0590295Y0184500D03*
X0590295Y0184400D03*
X0590295Y0184300D03*
X0590295Y0184200D03*
X0590295Y0184100D03*
X0590295Y0184000D03*
X0590295Y0183900D03*
X0590295Y0183800D03*
X0590295Y0183700D03*
X0590295Y0183600D03*
X0590295Y0183500D03*
X0590295Y0183400D03*
X0590295Y0183300D03*
X0590295Y0183200D03*
X0590295Y0183100D03*
X0590295Y0183000D03*
X0590295Y0182900D03*
X0590295Y0182800D03*
X0590295Y0182700D03*
X0590295Y0182600D03*
X0590295Y0182500D03*
X0590295Y0182400D03*
X0590295Y0182300D03*
X0590295Y0182200D03*
X0590295Y0182100D03*
X0590295Y0182000D03*
X0590295Y0181900D03*
X0590295Y0181800D03*
X0590295Y0181700D03*
X0590295Y0181600D03*
X0590295Y0181500D03*
X0590295Y0181400D03*
X0590295Y0181300D03*
X0590295Y0181200D03*
X0590295Y0181100D03*
X0590295Y0181000D03*
X0590295Y0180900D03*
X0590295Y0180800D03*
X0590295Y0180700D03*
X0590295Y0180600D03*
X0590295Y0180500D03*
X0590295Y0180400D03*
X0590295Y0180300D03*
X0590295Y0180200D03*
X0590295Y0180100D03*
X0590295Y0180000D03*
X0590295Y0179900D03*
X0590295Y0179800D03*
X0590295Y0179700D03*
X0590295Y0179600D03*
X0590295Y0179500D03*
X0590295Y0179400D03*
X0590295Y0179300D03*
X0590295Y0179200D03*
X0590295Y0179100D03*
X0590295Y0179000D03*
X0590295Y0178900D03*
X0590295Y0178800D03*
X0590295Y0178700D03*
X0590295Y0178600D03*
X0590295Y0178500D03*
X0590295Y0178400D03*
X0590295Y0178300D03*
X0590295Y0178200D03*
X0590295Y0178100D03*
X0590295Y0178000D03*
X0590295Y0177900D03*
X0590295Y0177800D03*
X0590295Y0177700D03*
X0590295Y0177600D03*
X0590295Y0177500D03*
X0590295Y0177400D03*
X0590295Y0177300D03*
X0590295Y0177200D03*
X0590295Y0177100D03*
X0590295Y0177000D03*
X0590295Y0176900D03*
X0590295Y0176800D03*
X0590295Y0176700D03*
X0590295Y0176600D03*
X0590295Y0176500D03*
X0590295Y0176400D03*
X0590295Y0176300D03*
X0590295Y0176200D03*
X0590295Y0176100D03*
X0590295Y0176000D03*
X0590295Y0175900D03*
X0590295Y0175800D03*
X0590295Y0175700D03*
X0590295Y0175600D03*
X0590295Y0175500D03*
X0590295Y0175400D03*
X0590295Y0175300D03*
X0590295Y0175200D03*
X0590295Y0175100D03*
X0590295Y0175000D03*
X0590295Y0174900D03*
X0590295Y0174800D03*
X0590295Y0174700D03*
X0590295Y0174600D03*
X0590295Y0174500D03*
X0590295Y0174400D03*
X0590295Y0174300D03*
X0590295Y0174200D03*
X0590295Y0174100D03*
X0590295Y0174000D03*
X0590295Y0173900D03*
X0590295Y0173800D03*
X0590295Y0173700D03*
X0590295Y0173600D03*
X0590295Y0173500D03*
X0590295Y0173400D03*
X0590295Y0173300D03*
X0590295Y0173200D03*
X0590295Y0173100D03*
X0590295Y0173000D03*
X0590295Y0172900D03*
X0590295Y0172800D03*
X0590295Y0172700D03*
X0590295Y0172600D03*
X0590295Y0172500D03*
X0590295Y0172400D03*
X0590295Y0172300D03*
X0590295Y0172200D03*
X0590295Y0172100D03*
X0590295Y0172000D03*
X0590295Y0171900D03*
X0590295Y0171800D03*
X0590295Y0171700D03*
X0590295Y0171600D03*
X0590295Y0171500D03*
X0590295Y0171400D03*
X0590295Y0171300D03*
X0590295Y0171200D03*
X0590295Y0171100D03*
X0590295Y0171000D03*
X0590295Y0170900D03*
X0590295Y0170800D03*
X0590295Y0170700D03*
X0590295Y0170600D03*
X0590295Y0170500D03*
X0590295Y0170400D03*
X0590295Y0170300D03*
X0590295Y0170200D03*
X0590295Y0170100D03*
X0590295Y0170000D03*
X0590295Y0169900D03*
X0590295Y0169800D03*
X0590295Y0169700D03*
X0590295Y0169600D03*
X0590295Y0169500D03*
D42*
X0626395Y0169500D03*
X0626395Y0169600D03*
X0626395Y0169700D03*
X0626395Y0169800D03*
X0626395Y0169900D03*
X0626395Y0170000D03*
X0626395Y0170100D03*
X0626395Y0170200D03*
X0626395Y0170300D03*
X0626395Y0170400D03*
X0626395Y0170500D03*
X0626395Y0170600D03*
X0626395Y0170700D03*
X0626395Y0170800D03*
X0626395Y0170900D03*
X0626395Y0171000D03*
X0626395Y0171100D03*
X0626395Y0171200D03*
X0626395Y0171300D03*
X0626395Y0171400D03*
X0626395Y0171500D03*
X0626395Y0171600D03*
X0626395Y0171700D03*
X0626395Y0171800D03*
X0626395Y0171900D03*
X0626395Y0172000D03*
X0626395Y0172100D03*
X0626395Y0172200D03*
X0626395Y0172300D03*
X0626395Y0172400D03*
X0626395Y0172500D03*
X0626395Y0172600D03*
X0626395Y0172700D03*
X0626395Y0172800D03*
X0626395Y0172900D03*
X0626395Y0173000D03*
X0626395Y0173100D03*
X0626395Y0173200D03*
X0626395Y0173300D03*
X0626395Y0173400D03*
X0626395Y0173500D03*
X0626395Y0173600D03*
X0626395Y0173700D03*
X0626395Y0173800D03*
X0626395Y0173900D03*
X0626395Y0174000D03*
X0626395Y0174100D03*
X0626395Y0174200D03*
X0626395Y0174300D03*
X0626395Y0174400D03*
X0626395Y0174500D03*
X0626395Y0174600D03*
X0626395Y0174700D03*
X0626395Y0174800D03*
X0626395Y0174900D03*
X0626395Y0175000D03*
X0626395Y0175100D03*
X0626395Y0175200D03*
X0626395Y0175300D03*
X0626395Y0175400D03*
X0626395Y0175500D03*
X0626395Y0175600D03*
X0626395Y0175700D03*
X0626395Y0175800D03*
X0626395Y0175900D03*
X0626395Y0176000D03*
X0626395Y0176100D03*
X0626395Y0176200D03*
X0626395Y0176300D03*
X0626395Y0176400D03*
X0626395Y0176500D03*
X0626395Y0176600D03*
X0626395Y0176700D03*
X0626395Y0176800D03*
X0626395Y0176900D03*
X0626395Y0177000D03*
X0626395Y0177100D03*
X0626395Y0177200D03*
X0626395Y0177300D03*
X0626395Y0177400D03*
X0626395Y0177500D03*
X0626395Y0177600D03*
X0626395Y0177700D03*
X0626395Y0177800D03*
X0626395Y0177900D03*
X0626395Y0178000D03*
X0626395Y0178100D03*
X0626395Y0178200D03*
X0626395Y0178300D03*
X0626395Y0178400D03*
X0626395Y0178500D03*
X0626395Y0178600D03*
X0626395Y0178700D03*
X0626395Y0178800D03*
X0626395Y0178900D03*
X0626395Y0179000D03*
X0626395Y0179100D03*
X0626395Y0179200D03*
X0626395Y0179300D03*
X0626395Y0179400D03*
X0626395Y0179500D03*
X0626395Y0179600D03*
X0626395Y0179700D03*
X0626395Y0179800D03*
X0626395Y0179900D03*
X0626395Y0180000D03*
X0626395Y0180100D03*
X0626395Y0180200D03*
X0626395Y0180300D03*
X0626395Y0180400D03*
X0626395Y0180500D03*
X0626395Y0180600D03*
X0626395Y0180700D03*
X0626395Y0180800D03*
X0626395Y0180900D03*
X0626395Y0181000D03*
X0626395Y0181100D03*
X0626395Y0181200D03*
X0626395Y0181300D03*
X0626395Y0181400D03*
X0626395Y0181500D03*
X0626395Y0181600D03*
X0626395Y0181700D03*
X0626395Y0181800D03*
X0626395Y0181900D03*
X0626395Y0182000D03*
X0626395Y0182100D03*
X0626395Y0182200D03*
X0626395Y0182300D03*
X0626395Y0182400D03*
X0626395Y0182500D03*
X0626395Y0182600D03*
X0626395Y0182700D03*
X0626395Y0182800D03*
X0626395Y0182900D03*
X0626395Y0183000D03*
X0626395Y0183100D03*
X0626395Y0183200D03*
X0626395Y0183300D03*
X0626395Y0183400D03*
X0626395Y0183500D03*
X0626395Y0183600D03*
X0626395Y0183700D03*
X0626395Y0183800D03*
X0626395Y0183900D03*
X0626395Y0184000D03*
X0626395Y0184100D03*
X0626395Y0184200D03*
X0626395Y0184300D03*
X0626395Y0184400D03*
X0626395Y0184500D03*
X0626395Y0184600D03*
X0626395Y0184700D03*
X0626395Y0184800D03*
X0626395Y0184900D03*
X0626395Y0185000D03*
X0626395Y0185100D03*
X0626395Y0185200D03*
X0626395Y0185300D03*
X0626395Y0185400D03*
X0626395Y0185500D03*
X0626395Y0185600D03*
X0626395Y0185700D03*
X0626395Y0185800D03*
X0626395Y0185900D03*
X0626395Y0186000D03*
X0626395Y0186100D03*
X0626395Y0186200D03*
X0626395Y0186300D03*
X0626395Y0186400D03*
X0626395Y0186500D03*
X0626395Y0186600D03*
X0626395Y0186700D03*
X0626395Y0186800D03*
X0626395Y0186900D03*
X0626395Y0187000D03*
X0626395Y0187100D03*
X0626395Y0187200D03*
X0626395Y0187300D03*
X0626395Y0187400D03*
X0626395Y0187500D03*
X0626395Y0187600D03*
X0626395Y0187700D03*
X0626395Y0187800D03*
X0626395Y0187900D03*
X0626395Y0188000D03*
X0626395Y0188100D03*
X0626395Y0188200D03*
X0626395Y0188300D03*
X0626395Y0188400D03*
X0626395Y0188500D03*
X0626395Y0188600D03*
X0626395Y0188700D03*
X0626395Y0188800D03*
X0626395Y0188900D03*
X0626395Y0189000D03*
X0626395Y0189100D03*
X0626395Y0189200D03*
X0626395Y0189300D03*
X0626395Y0189400D03*
X0626395Y0189500D03*
X0626395Y0189600D03*
X0626395Y0189700D03*
X0626395Y0189800D03*
X0626395Y0189900D03*
X0626395Y0190000D03*
X0626395Y0190100D03*
X0626395Y0190200D03*
X0626395Y0190300D03*
X0626395Y0190400D03*
X0626395Y0190500D03*
X0626395Y0190600D03*
X0626395Y0190700D03*
X0626395Y0190800D03*
X0626395Y0190900D03*
X0626395Y0191000D03*
X0626395Y0191100D03*
X0626395Y0191200D03*
X0626395Y0191300D03*
X0626395Y0191400D03*
X0626395Y0191500D03*
X0626395Y0191600D03*
X0626395Y0191700D03*
X0626395Y0191800D03*
X0626395Y0191900D03*
X0626395Y0192000D03*
X0626395Y0192100D03*
X0626395Y0192200D03*
X0626395Y0192300D03*
X0626395Y0192400D03*
X0626395Y0192500D03*
X0626395Y0192600D03*
X0626395Y0192700D03*
X0626395Y0192800D03*
X0626395Y0192900D03*
X0626395Y0193000D03*
X0626395Y0193100D03*
X0626395Y0193200D03*
X0626395Y0193300D03*
X0626395Y0193400D03*
X0626395Y0193500D03*
X0626395Y0193600D03*
X0626395Y0193700D03*
X0626395Y0193800D03*
X0626395Y0193900D03*
X0626395Y0194000D03*
X0626395Y0194100D03*
X0626395Y0194200D03*
X0626395Y0194300D03*
X0626395Y0194400D03*
X0626395Y0194500D03*
X0626395Y0194600D03*
X0626395Y0194700D03*
X0626395Y0194800D03*
X0626395Y0194900D03*
X0626395Y0195000D03*
X0626395Y0195100D03*
X0626395Y0195200D03*
X0626395Y0195300D03*
X0626395Y0195400D03*
X0626395Y0195500D03*
X0626395Y0195600D03*
X0626395Y0195700D03*
X0626395Y0195800D03*
X0626395Y0195900D03*
X0626395Y0196000D03*
X0626395Y0196100D03*
X0626395Y0196200D03*
X0626395Y0196300D03*
X0626395Y0196400D03*
X0626395Y0196500D03*
X0626395Y0196600D03*
X0626395Y0196700D03*
X0626395Y0196800D03*
X0626395Y0196900D03*
X0626395Y0197000D03*
X0626395Y0197100D03*
X0626395Y0197200D03*
X0626395Y0197300D03*
X0626395Y0197400D03*
X0626395Y0197500D03*
X0626395Y0197600D03*
X0626395Y0197700D03*
X0626395Y0197800D03*
X0626395Y0197900D03*
X0626395Y0198000D03*
X0626395Y0198100D03*
X0626395Y0198200D03*
X0626395Y0198300D03*
X0626395Y0198400D03*
X0626395Y0198500D03*
X0626395Y0198600D03*
X0626395Y0198700D03*
X0626395Y0198800D03*
X0626395Y0198900D03*
X0626395Y0199000D03*
X0626395Y0199100D03*
X0626395Y0199200D03*
X0626395Y0199300D03*
X0626395Y0199400D03*
X0626395Y0199500D03*
X0626395Y0199600D03*
X0626395Y0199700D03*
X0626395Y0199800D03*
X0626395Y0199900D03*
X0626395Y0200000D03*
X0626395Y0200100D03*
X0626395Y0200200D03*
X0626395Y0200300D03*
X0626395Y0200400D03*
X0626395Y0200500D03*
X0626395Y0200600D03*
X0626395Y0200700D03*
X0626395Y0200800D03*
X0626395Y0200900D03*
X0626395Y0201000D03*
X0626395Y0201100D03*
X0626395Y0201200D03*
X0626395Y0201300D03*
X0626395Y0201400D03*
X0626395Y0201500D03*
X0626395Y0201600D03*
X0626395Y0201700D03*
X0626395Y0201800D03*
X0626395Y0201900D03*
X0626395Y0202000D03*
X0626395Y0202100D03*
X0626395Y0202200D03*
X0626395Y0202300D03*
X0626395Y0202400D03*
X0626395Y0202500D03*
X0626395Y0202600D03*
X0626395Y0202700D03*
X0626395Y0202800D03*
X0626395Y0202900D03*
X0626395Y0203000D03*
X0626395Y0203100D03*
X0626395Y0203200D03*
X0626395Y0203300D03*
X0626395Y0203400D03*
X0626395Y0203500D03*
X0626395Y0203600D03*
X0626395Y0203700D03*
X0626395Y0203800D03*
X0626395Y0203900D03*
X0626395Y0204000D03*
X0626395Y0204100D03*
X0626395Y0204200D03*
X0626395Y0204300D03*
X0626395Y0204400D03*
X0626395Y0204500D03*
X0626395Y0204600D03*
X0626395Y0204700D03*
X0626395Y0204800D03*
X0626395Y0204900D03*
X0626395Y0205000D03*
X0626395Y0205100D03*
X0626395Y0205200D03*
D43*
X0581295Y0196200D03*
D44*
X0581345Y0196300D03*
X0581345Y0196400D03*
X0581345Y0196500D03*
X0581345Y0196600D03*
X0581345Y0196700D03*
X0581345Y0196800D03*
X0581345Y0196900D03*
X0581345Y0197000D03*
X0581345Y0197100D03*
X0581345Y0197200D03*
X0581345Y0197300D03*
X0581345Y0197400D03*
X0581345Y0197500D03*
X0581345Y0197600D03*
X0581345Y0197700D03*
X0581345Y0197800D03*
X0581345Y0197900D03*
X0581345Y0198000D03*
X0581345Y0198100D03*
X0581345Y0198200D03*
X0581345Y0198300D03*
X0581345Y0198400D03*
X0581345Y0198500D03*
X0581345Y0198600D03*
X0581345Y0198700D03*
X0581345Y0198800D03*
X0581345Y0198900D03*
X0581345Y0199000D03*
X0581345Y0199100D03*
X0581345Y0199200D03*
X0581345Y0199300D03*
X0581345Y0199400D03*
X0581345Y0199500D03*
X0581345Y0199600D03*
X0581345Y0199700D03*
X0581345Y0199800D03*
X0581345Y0199900D03*
X0581345Y0200000D03*
X0581345Y0200100D03*
X0581345Y0200200D03*
X0581345Y0200300D03*
X0581345Y0200400D03*
X0581345Y0200500D03*
X0581345Y0200600D03*
X0581345Y0200700D03*
X0581345Y0200800D03*
X0581345Y0200900D03*
X0581345Y0201000D03*
X0581345Y0201100D03*
X0581345Y0201200D03*
X0581345Y0201300D03*
X0581345Y0201400D03*
X0581345Y0201500D03*
X0581345Y0201600D03*
X0581345Y0201700D03*
X0581345Y0201800D03*
X0581345Y0201900D03*
X0581345Y0202000D03*
X0581345Y0202100D03*
X0581345Y0202200D03*
X0581345Y0202300D03*
X0581345Y0202400D03*
X0581345Y0202500D03*
X0581345Y0202600D03*
X0581345Y0202700D03*
X0581345Y0202800D03*
X0581345Y0202900D03*
X0581345Y0203000D03*
X0581345Y0203100D03*
X0581345Y0203200D03*
X0581345Y0203300D03*
X0581345Y0203400D03*
X0581345Y0203500D03*
X0581345Y0203600D03*
X0581345Y0203700D03*
X0581345Y0203800D03*
X0581345Y0203900D03*
X0581345Y0204000D03*
X0581345Y0204100D03*
X0581345Y0204200D03*
X0581345Y0204300D03*
X0581345Y0204400D03*
X0581345Y0204500D03*
X0581345Y0204600D03*
X0581345Y0204700D03*
X0581345Y0204800D03*
X0581345Y0204900D03*
X0581345Y0205000D03*
X0581345Y0205100D03*
X0581345Y0205200D03*
M02*
