G75*
%MOIN*%
%OFA0B0*%
%FSLAX25Y25*%
%IPPOS*%
%LPD*%
%AMOC8*
5,1,8,0,0,1.08239X$1,22.5*
%
%ADD10C,0.00000*%
%ADD11C,0.14180*%
%ADD12C,0.07191*%
%ADD13C,0.07900*%
%ADD14C,0.18180*%
%ADD15C,0.07093*%
%ADD16C,0.08274*%
%ADD17C,0.08668*%
%ADD18C,0.07782*%
%ADD19R,0.07782X0.07782*%
%ADD20C,0.09455*%
%ADD21C,0.05715*%
D10*
X0005700Y0013890D02*
X0005700Y0269796D01*
X0793102Y0269796D01*
X0793102Y0013890D01*
X0005700Y0013890D01*
X0018495Y0033575D02*
X0018497Y0033744D01*
X0018503Y0033913D01*
X0018514Y0034082D01*
X0018528Y0034250D01*
X0018547Y0034418D01*
X0018570Y0034586D01*
X0018596Y0034753D01*
X0018627Y0034919D01*
X0018662Y0035085D01*
X0018701Y0035249D01*
X0018745Y0035413D01*
X0018792Y0035575D01*
X0018843Y0035736D01*
X0018898Y0035896D01*
X0018957Y0036055D01*
X0019019Y0036212D01*
X0019086Y0036367D01*
X0019157Y0036521D01*
X0019231Y0036673D01*
X0019309Y0036823D01*
X0019390Y0036971D01*
X0019475Y0037117D01*
X0019564Y0037261D01*
X0019656Y0037403D01*
X0019752Y0037542D01*
X0019851Y0037679D01*
X0019953Y0037814D01*
X0020059Y0037946D01*
X0020168Y0038075D01*
X0020280Y0038202D01*
X0020395Y0038326D01*
X0020513Y0038447D01*
X0020634Y0038565D01*
X0020758Y0038680D01*
X0020885Y0038792D01*
X0021014Y0038901D01*
X0021146Y0039007D01*
X0021281Y0039109D01*
X0021418Y0039208D01*
X0021557Y0039304D01*
X0021699Y0039396D01*
X0021843Y0039485D01*
X0021989Y0039570D01*
X0022137Y0039651D01*
X0022287Y0039729D01*
X0022439Y0039803D01*
X0022593Y0039874D01*
X0022748Y0039941D01*
X0022905Y0040003D01*
X0023064Y0040062D01*
X0023224Y0040117D01*
X0023385Y0040168D01*
X0023547Y0040215D01*
X0023711Y0040259D01*
X0023875Y0040298D01*
X0024041Y0040333D01*
X0024207Y0040364D01*
X0024374Y0040390D01*
X0024542Y0040413D01*
X0024710Y0040432D01*
X0024878Y0040446D01*
X0025047Y0040457D01*
X0025216Y0040463D01*
X0025385Y0040465D01*
X0025554Y0040463D01*
X0025723Y0040457D01*
X0025892Y0040446D01*
X0026060Y0040432D01*
X0026228Y0040413D01*
X0026396Y0040390D01*
X0026563Y0040364D01*
X0026729Y0040333D01*
X0026895Y0040298D01*
X0027059Y0040259D01*
X0027223Y0040215D01*
X0027385Y0040168D01*
X0027546Y0040117D01*
X0027706Y0040062D01*
X0027865Y0040003D01*
X0028022Y0039941D01*
X0028177Y0039874D01*
X0028331Y0039803D01*
X0028483Y0039729D01*
X0028633Y0039651D01*
X0028781Y0039570D01*
X0028927Y0039485D01*
X0029071Y0039396D01*
X0029213Y0039304D01*
X0029352Y0039208D01*
X0029489Y0039109D01*
X0029624Y0039007D01*
X0029756Y0038901D01*
X0029885Y0038792D01*
X0030012Y0038680D01*
X0030136Y0038565D01*
X0030257Y0038447D01*
X0030375Y0038326D01*
X0030490Y0038202D01*
X0030602Y0038075D01*
X0030711Y0037946D01*
X0030817Y0037814D01*
X0030919Y0037679D01*
X0031018Y0037542D01*
X0031114Y0037403D01*
X0031206Y0037261D01*
X0031295Y0037117D01*
X0031380Y0036971D01*
X0031461Y0036823D01*
X0031539Y0036673D01*
X0031613Y0036521D01*
X0031684Y0036367D01*
X0031751Y0036212D01*
X0031813Y0036055D01*
X0031872Y0035896D01*
X0031927Y0035736D01*
X0031978Y0035575D01*
X0032025Y0035413D01*
X0032069Y0035249D01*
X0032108Y0035085D01*
X0032143Y0034919D01*
X0032174Y0034753D01*
X0032200Y0034586D01*
X0032223Y0034418D01*
X0032242Y0034250D01*
X0032256Y0034082D01*
X0032267Y0033913D01*
X0032273Y0033744D01*
X0032275Y0033575D01*
X0032273Y0033406D01*
X0032267Y0033237D01*
X0032256Y0033068D01*
X0032242Y0032900D01*
X0032223Y0032732D01*
X0032200Y0032564D01*
X0032174Y0032397D01*
X0032143Y0032231D01*
X0032108Y0032065D01*
X0032069Y0031901D01*
X0032025Y0031737D01*
X0031978Y0031575D01*
X0031927Y0031414D01*
X0031872Y0031254D01*
X0031813Y0031095D01*
X0031751Y0030938D01*
X0031684Y0030783D01*
X0031613Y0030629D01*
X0031539Y0030477D01*
X0031461Y0030327D01*
X0031380Y0030179D01*
X0031295Y0030033D01*
X0031206Y0029889D01*
X0031114Y0029747D01*
X0031018Y0029608D01*
X0030919Y0029471D01*
X0030817Y0029336D01*
X0030711Y0029204D01*
X0030602Y0029075D01*
X0030490Y0028948D01*
X0030375Y0028824D01*
X0030257Y0028703D01*
X0030136Y0028585D01*
X0030012Y0028470D01*
X0029885Y0028358D01*
X0029756Y0028249D01*
X0029624Y0028143D01*
X0029489Y0028041D01*
X0029352Y0027942D01*
X0029213Y0027846D01*
X0029071Y0027754D01*
X0028927Y0027665D01*
X0028781Y0027580D01*
X0028633Y0027499D01*
X0028483Y0027421D01*
X0028331Y0027347D01*
X0028177Y0027276D01*
X0028022Y0027209D01*
X0027865Y0027147D01*
X0027706Y0027088D01*
X0027546Y0027033D01*
X0027385Y0026982D01*
X0027223Y0026935D01*
X0027059Y0026891D01*
X0026895Y0026852D01*
X0026729Y0026817D01*
X0026563Y0026786D01*
X0026396Y0026760D01*
X0026228Y0026737D01*
X0026060Y0026718D01*
X0025892Y0026704D01*
X0025723Y0026693D01*
X0025554Y0026687D01*
X0025385Y0026685D01*
X0025216Y0026687D01*
X0025047Y0026693D01*
X0024878Y0026704D01*
X0024710Y0026718D01*
X0024542Y0026737D01*
X0024374Y0026760D01*
X0024207Y0026786D01*
X0024041Y0026817D01*
X0023875Y0026852D01*
X0023711Y0026891D01*
X0023547Y0026935D01*
X0023385Y0026982D01*
X0023224Y0027033D01*
X0023064Y0027088D01*
X0022905Y0027147D01*
X0022748Y0027209D01*
X0022593Y0027276D01*
X0022439Y0027347D01*
X0022287Y0027421D01*
X0022137Y0027499D01*
X0021989Y0027580D01*
X0021843Y0027665D01*
X0021699Y0027754D01*
X0021557Y0027846D01*
X0021418Y0027942D01*
X0021281Y0028041D01*
X0021146Y0028143D01*
X0021014Y0028249D01*
X0020885Y0028358D01*
X0020758Y0028470D01*
X0020634Y0028585D01*
X0020513Y0028703D01*
X0020395Y0028824D01*
X0020280Y0028948D01*
X0020168Y0029075D01*
X0020059Y0029204D01*
X0019953Y0029336D01*
X0019851Y0029471D01*
X0019752Y0029608D01*
X0019656Y0029747D01*
X0019564Y0029889D01*
X0019475Y0030033D01*
X0019390Y0030179D01*
X0019309Y0030327D01*
X0019231Y0030477D01*
X0019157Y0030629D01*
X0019086Y0030783D01*
X0019019Y0030938D01*
X0018957Y0031095D01*
X0018898Y0031254D01*
X0018843Y0031414D01*
X0018792Y0031575D01*
X0018745Y0031737D01*
X0018701Y0031901D01*
X0018662Y0032065D01*
X0018627Y0032231D01*
X0018596Y0032397D01*
X0018570Y0032564D01*
X0018547Y0032732D01*
X0018528Y0032900D01*
X0018514Y0033068D01*
X0018503Y0033237D01*
X0018497Y0033406D01*
X0018495Y0033575D01*
X0231421Y0041882D02*
X0231423Y0041997D01*
X0231429Y0042113D01*
X0231439Y0042228D01*
X0231453Y0042343D01*
X0231471Y0042457D01*
X0231493Y0042570D01*
X0231518Y0042683D01*
X0231548Y0042794D01*
X0231581Y0042905D01*
X0231618Y0043014D01*
X0231659Y0043122D01*
X0231704Y0043229D01*
X0231752Y0043334D01*
X0231804Y0043437D01*
X0231860Y0043538D01*
X0231919Y0043638D01*
X0231981Y0043735D01*
X0232047Y0043830D01*
X0232115Y0043923D01*
X0232187Y0044013D01*
X0232262Y0044101D01*
X0232341Y0044186D01*
X0232422Y0044268D01*
X0232505Y0044348D01*
X0232592Y0044424D01*
X0232681Y0044498D01*
X0232772Y0044568D01*
X0232866Y0044636D01*
X0232962Y0044700D01*
X0233061Y0044760D01*
X0233161Y0044817D01*
X0233263Y0044871D01*
X0233367Y0044921D01*
X0233473Y0044968D01*
X0233580Y0045011D01*
X0233689Y0045050D01*
X0233799Y0045085D01*
X0233910Y0045116D01*
X0234022Y0045144D01*
X0234135Y0045168D01*
X0234249Y0045188D01*
X0234364Y0045204D01*
X0234479Y0045216D01*
X0234594Y0045224D01*
X0234709Y0045228D01*
X0234825Y0045228D01*
X0234940Y0045224D01*
X0235055Y0045216D01*
X0235170Y0045204D01*
X0235285Y0045188D01*
X0235399Y0045168D01*
X0235512Y0045144D01*
X0235624Y0045116D01*
X0235735Y0045085D01*
X0235845Y0045050D01*
X0235954Y0045011D01*
X0236061Y0044968D01*
X0236167Y0044921D01*
X0236271Y0044871D01*
X0236373Y0044817D01*
X0236473Y0044760D01*
X0236572Y0044700D01*
X0236668Y0044636D01*
X0236762Y0044568D01*
X0236853Y0044498D01*
X0236942Y0044424D01*
X0237029Y0044348D01*
X0237112Y0044268D01*
X0237193Y0044186D01*
X0237272Y0044101D01*
X0237347Y0044013D01*
X0237419Y0043923D01*
X0237487Y0043830D01*
X0237553Y0043735D01*
X0237615Y0043638D01*
X0237674Y0043538D01*
X0237730Y0043437D01*
X0237782Y0043334D01*
X0237830Y0043229D01*
X0237875Y0043122D01*
X0237916Y0043014D01*
X0237953Y0042905D01*
X0237986Y0042794D01*
X0238016Y0042683D01*
X0238041Y0042570D01*
X0238063Y0042457D01*
X0238081Y0042343D01*
X0238095Y0042228D01*
X0238105Y0042113D01*
X0238111Y0041997D01*
X0238113Y0041882D01*
X0238111Y0041767D01*
X0238105Y0041651D01*
X0238095Y0041536D01*
X0238081Y0041421D01*
X0238063Y0041307D01*
X0238041Y0041194D01*
X0238016Y0041081D01*
X0237986Y0040970D01*
X0237953Y0040859D01*
X0237916Y0040750D01*
X0237875Y0040642D01*
X0237830Y0040535D01*
X0237782Y0040430D01*
X0237730Y0040327D01*
X0237674Y0040226D01*
X0237615Y0040126D01*
X0237553Y0040029D01*
X0237487Y0039934D01*
X0237419Y0039841D01*
X0237347Y0039751D01*
X0237272Y0039663D01*
X0237193Y0039578D01*
X0237112Y0039496D01*
X0237029Y0039416D01*
X0236942Y0039340D01*
X0236853Y0039266D01*
X0236762Y0039196D01*
X0236668Y0039128D01*
X0236572Y0039064D01*
X0236473Y0039004D01*
X0236373Y0038947D01*
X0236271Y0038893D01*
X0236167Y0038843D01*
X0236061Y0038796D01*
X0235954Y0038753D01*
X0235845Y0038714D01*
X0235735Y0038679D01*
X0235624Y0038648D01*
X0235512Y0038620D01*
X0235399Y0038596D01*
X0235285Y0038576D01*
X0235170Y0038560D01*
X0235055Y0038548D01*
X0234940Y0038540D01*
X0234825Y0038536D01*
X0234709Y0038536D01*
X0234594Y0038540D01*
X0234479Y0038548D01*
X0234364Y0038560D01*
X0234249Y0038576D01*
X0234135Y0038596D01*
X0234022Y0038620D01*
X0233910Y0038648D01*
X0233799Y0038679D01*
X0233689Y0038714D01*
X0233580Y0038753D01*
X0233473Y0038796D01*
X0233367Y0038843D01*
X0233263Y0038893D01*
X0233161Y0038947D01*
X0233061Y0039004D01*
X0232962Y0039064D01*
X0232866Y0039128D01*
X0232772Y0039196D01*
X0232681Y0039266D01*
X0232592Y0039340D01*
X0232505Y0039416D01*
X0232422Y0039496D01*
X0232341Y0039578D01*
X0232262Y0039663D01*
X0232187Y0039751D01*
X0232115Y0039841D01*
X0232047Y0039934D01*
X0231981Y0040029D01*
X0231919Y0040126D01*
X0231860Y0040226D01*
X0231804Y0040327D01*
X0231752Y0040430D01*
X0231704Y0040535D01*
X0231659Y0040642D01*
X0231618Y0040750D01*
X0231581Y0040859D01*
X0231548Y0040970D01*
X0231518Y0041081D01*
X0231493Y0041194D01*
X0231471Y0041307D01*
X0231453Y0041421D01*
X0231439Y0041536D01*
X0231429Y0041651D01*
X0231423Y0041767D01*
X0231421Y0041882D01*
X0381108Y0087873D02*
X0381110Y0087998D01*
X0381116Y0088123D01*
X0381126Y0088247D01*
X0381140Y0088371D01*
X0381157Y0088495D01*
X0381179Y0088618D01*
X0381205Y0088740D01*
X0381234Y0088862D01*
X0381267Y0088982D01*
X0381305Y0089101D01*
X0381345Y0089220D01*
X0381390Y0089336D01*
X0381438Y0089451D01*
X0381490Y0089565D01*
X0381546Y0089677D01*
X0381605Y0089787D01*
X0381667Y0089895D01*
X0381733Y0090002D01*
X0381802Y0090106D01*
X0381875Y0090207D01*
X0381950Y0090307D01*
X0382029Y0090404D01*
X0382111Y0090498D01*
X0382196Y0090590D01*
X0382283Y0090679D01*
X0382374Y0090765D01*
X0382467Y0090848D01*
X0382563Y0090929D01*
X0382661Y0091006D01*
X0382761Y0091080D01*
X0382864Y0091151D01*
X0382969Y0091218D01*
X0383077Y0091283D01*
X0383186Y0091343D01*
X0383297Y0091401D01*
X0383410Y0091454D01*
X0383524Y0091504D01*
X0383640Y0091551D01*
X0383757Y0091593D01*
X0383876Y0091632D01*
X0383996Y0091668D01*
X0384117Y0091699D01*
X0384239Y0091727D01*
X0384361Y0091750D01*
X0384485Y0091770D01*
X0384609Y0091786D01*
X0384733Y0091798D01*
X0384858Y0091806D01*
X0384983Y0091810D01*
X0385107Y0091810D01*
X0385232Y0091806D01*
X0385357Y0091798D01*
X0385481Y0091786D01*
X0385605Y0091770D01*
X0385729Y0091750D01*
X0385851Y0091727D01*
X0385973Y0091699D01*
X0386094Y0091668D01*
X0386214Y0091632D01*
X0386333Y0091593D01*
X0386450Y0091551D01*
X0386566Y0091504D01*
X0386680Y0091454D01*
X0386793Y0091401D01*
X0386904Y0091343D01*
X0387014Y0091283D01*
X0387121Y0091218D01*
X0387226Y0091151D01*
X0387329Y0091080D01*
X0387429Y0091006D01*
X0387527Y0090929D01*
X0387623Y0090848D01*
X0387716Y0090765D01*
X0387807Y0090679D01*
X0387894Y0090590D01*
X0387979Y0090498D01*
X0388061Y0090404D01*
X0388140Y0090307D01*
X0388215Y0090207D01*
X0388288Y0090106D01*
X0388357Y0090002D01*
X0388423Y0089895D01*
X0388485Y0089787D01*
X0388544Y0089677D01*
X0388600Y0089565D01*
X0388652Y0089451D01*
X0388700Y0089336D01*
X0388745Y0089220D01*
X0388785Y0089101D01*
X0388823Y0088982D01*
X0388856Y0088862D01*
X0388885Y0088740D01*
X0388911Y0088618D01*
X0388933Y0088495D01*
X0388950Y0088371D01*
X0388964Y0088247D01*
X0388974Y0088123D01*
X0388980Y0087998D01*
X0388982Y0087873D01*
X0388980Y0087748D01*
X0388974Y0087623D01*
X0388964Y0087499D01*
X0388950Y0087375D01*
X0388933Y0087251D01*
X0388911Y0087128D01*
X0388885Y0087006D01*
X0388856Y0086884D01*
X0388823Y0086764D01*
X0388785Y0086645D01*
X0388745Y0086526D01*
X0388700Y0086410D01*
X0388652Y0086295D01*
X0388600Y0086181D01*
X0388544Y0086069D01*
X0388485Y0085959D01*
X0388423Y0085851D01*
X0388357Y0085744D01*
X0388288Y0085640D01*
X0388215Y0085539D01*
X0388140Y0085439D01*
X0388061Y0085342D01*
X0387979Y0085248D01*
X0387894Y0085156D01*
X0387807Y0085067D01*
X0387716Y0084981D01*
X0387623Y0084898D01*
X0387527Y0084817D01*
X0387429Y0084740D01*
X0387329Y0084666D01*
X0387226Y0084595D01*
X0387121Y0084528D01*
X0387013Y0084463D01*
X0386904Y0084403D01*
X0386793Y0084345D01*
X0386680Y0084292D01*
X0386566Y0084242D01*
X0386450Y0084195D01*
X0386333Y0084153D01*
X0386214Y0084114D01*
X0386094Y0084078D01*
X0385973Y0084047D01*
X0385851Y0084019D01*
X0385729Y0083996D01*
X0385605Y0083976D01*
X0385481Y0083960D01*
X0385357Y0083948D01*
X0385232Y0083940D01*
X0385107Y0083936D01*
X0384983Y0083936D01*
X0384858Y0083940D01*
X0384733Y0083948D01*
X0384609Y0083960D01*
X0384485Y0083976D01*
X0384361Y0083996D01*
X0384239Y0084019D01*
X0384117Y0084047D01*
X0383996Y0084078D01*
X0383876Y0084114D01*
X0383757Y0084153D01*
X0383640Y0084195D01*
X0383524Y0084242D01*
X0383410Y0084292D01*
X0383297Y0084345D01*
X0383186Y0084403D01*
X0383076Y0084463D01*
X0382969Y0084528D01*
X0382864Y0084595D01*
X0382761Y0084666D01*
X0382661Y0084740D01*
X0382563Y0084817D01*
X0382467Y0084898D01*
X0382374Y0084981D01*
X0382283Y0085067D01*
X0382196Y0085156D01*
X0382111Y0085248D01*
X0382029Y0085342D01*
X0381950Y0085439D01*
X0381875Y0085539D01*
X0381802Y0085640D01*
X0381733Y0085744D01*
X0381667Y0085851D01*
X0381605Y0085959D01*
X0381546Y0086069D01*
X0381490Y0086181D01*
X0381438Y0086295D01*
X0381390Y0086410D01*
X0381345Y0086526D01*
X0381305Y0086645D01*
X0381267Y0086764D01*
X0381234Y0086884D01*
X0381205Y0087006D01*
X0381179Y0087128D01*
X0381157Y0087251D01*
X0381140Y0087375D01*
X0381126Y0087499D01*
X0381116Y0087623D01*
X0381110Y0087748D01*
X0381108Y0087873D01*
X0564689Y0041882D02*
X0564691Y0041997D01*
X0564697Y0042113D01*
X0564707Y0042228D01*
X0564721Y0042343D01*
X0564739Y0042457D01*
X0564761Y0042570D01*
X0564786Y0042683D01*
X0564816Y0042794D01*
X0564849Y0042905D01*
X0564886Y0043014D01*
X0564927Y0043122D01*
X0564972Y0043229D01*
X0565020Y0043334D01*
X0565072Y0043437D01*
X0565128Y0043538D01*
X0565187Y0043638D01*
X0565249Y0043735D01*
X0565315Y0043830D01*
X0565383Y0043923D01*
X0565455Y0044013D01*
X0565530Y0044101D01*
X0565609Y0044186D01*
X0565690Y0044268D01*
X0565773Y0044348D01*
X0565860Y0044424D01*
X0565949Y0044498D01*
X0566040Y0044568D01*
X0566134Y0044636D01*
X0566230Y0044700D01*
X0566329Y0044760D01*
X0566429Y0044817D01*
X0566531Y0044871D01*
X0566635Y0044921D01*
X0566741Y0044968D01*
X0566848Y0045011D01*
X0566957Y0045050D01*
X0567067Y0045085D01*
X0567178Y0045116D01*
X0567290Y0045144D01*
X0567403Y0045168D01*
X0567517Y0045188D01*
X0567632Y0045204D01*
X0567747Y0045216D01*
X0567862Y0045224D01*
X0567977Y0045228D01*
X0568093Y0045228D01*
X0568208Y0045224D01*
X0568323Y0045216D01*
X0568438Y0045204D01*
X0568553Y0045188D01*
X0568667Y0045168D01*
X0568780Y0045144D01*
X0568892Y0045116D01*
X0569003Y0045085D01*
X0569113Y0045050D01*
X0569222Y0045011D01*
X0569329Y0044968D01*
X0569435Y0044921D01*
X0569539Y0044871D01*
X0569641Y0044817D01*
X0569741Y0044760D01*
X0569840Y0044700D01*
X0569936Y0044636D01*
X0570030Y0044568D01*
X0570121Y0044498D01*
X0570210Y0044424D01*
X0570297Y0044348D01*
X0570380Y0044268D01*
X0570461Y0044186D01*
X0570540Y0044101D01*
X0570615Y0044013D01*
X0570687Y0043923D01*
X0570755Y0043830D01*
X0570821Y0043735D01*
X0570883Y0043638D01*
X0570942Y0043538D01*
X0570998Y0043437D01*
X0571050Y0043334D01*
X0571098Y0043229D01*
X0571143Y0043122D01*
X0571184Y0043014D01*
X0571221Y0042905D01*
X0571254Y0042794D01*
X0571284Y0042683D01*
X0571309Y0042570D01*
X0571331Y0042457D01*
X0571349Y0042343D01*
X0571363Y0042228D01*
X0571373Y0042113D01*
X0571379Y0041997D01*
X0571381Y0041882D01*
X0571379Y0041767D01*
X0571373Y0041651D01*
X0571363Y0041536D01*
X0571349Y0041421D01*
X0571331Y0041307D01*
X0571309Y0041194D01*
X0571284Y0041081D01*
X0571254Y0040970D01*
X0571221Y0040859D01*
X0571184Y0040750D01*
X0571143Y0040642D01*
X0571098Y0040535D01*
X0571050Y0040430D01*
X0570998Y0040327D01*
X0570942Y0040226D01*
X0570883Y0040126D01*
X0570821Y0040029D01*
X0570755Y0039934D01*
X0570687Y0039841D01*
X0570615Y0039751D01*
X0570540Y0039663D01*
X0570461Y0039578D01*
X0570380Y0039496D01*
X0570297Y0039416D01*
X0570210Y0039340D01*
X0570121Y0039266D01*
X0570030Y0039196D01*
X0569936Y0039128D01*
X0569840Y0039064D01*
X0569741Y0039004D01*
X0569641Y0038947D01*
X0569539Y0038893D01*
X0569435Y0038843D01*
X0569329Y0038796D01*
X0569222Y0038753D01*
X0569113Y0038714D01*
X0569003Y0038679D01*
X0568892Y0038648D01*
X0568780Y0038620D01*
X0568667Y0038596D01*
X0568553Y0038576D01*
X0568438Y0038560D01*
X0568323Y0038548D01*
X0568208Y0038540D01*
X0568093Y0038536D01*
X0567977Y0038536D01*
X0567862Y0038540D01*
X0567747Y0038548D01*
X0567632Y0038560D01*
X0567517Y0038576D01*
X0567403Y0038596D01*
X0567290Y0038620D01*
X0567178Y0038648D01*
X0567067Y0038679D01*
X0566957Y0038714D01*
X0566848Y0038753D01*
X0566741Y0038796D01*
X0566635Y0038843D01*
X0566531Y0038893D01*
X0566429Y0038947D01*
X0566329Y0039004D01*
X0566230Y0039064D01*
X0566134Y0039128D01*
X0566040Y0039196D01*
X0565949Y0039266D01*
X0565860Y0039340D01*
X0565773Y0039416D01*
X0565690Y0039496D01*
X0565609Y0039578D01*
X0565530Y0039663D01*
X0565455Y0039751D01*
X0565383Y0039841D01*
X0565315Y0039934D01*
X0565249Y0040029D01*
X0565187Y0040126D01*
X0565128Y0040226D01*
X0565072Y0040327D01*
X0565020Y0040430D01*
X0564972Y0040535D01*
X0564927Y0040642D01*
X0564886Y0040750D01*
X0564849Y0040859D01*
X0564816Y0040970D01*
X0564786Y0041081D01*
X0564761Y0041194D01*
X0564739Y0041307D01*
X0564721Y0041421D01*
X0564707Y0041536D01*
X0564697Y0041651D01*
X0564691Y0041767D01*
X0564689Y0041882D01*
X0630963Y0069449D02*
X0630965Y0069564D01*
X0630971Y0069680D01*
X0630981Y0069795D01*
X0630995Y0069910D01*
X0631013Y0070024D01*
X0631035Y0070137D01*
X0631060Y0070250D01*
X0631090Y0070361D01*
X0631123Y0070472D01*
X0631160Y0070581D01*
X0631201Y0070689D01*
X0631246Y0070796D01*
X0631294Y0070901D01*
X0631346Y0071004D01*
X0631402Y0071105D01*
X0631461Y0071205D01*
X0631523Y0071302D01*
X0631589Y0071397D01*
X0631657Y0071490D01*
X0631729Y0071580D01*
X0631804Y0071668D01*
X0631883Y0071753D01*
X0631964Y0071835D01*
X0632047Y0071915D01*
X0632134Y0071991D01*
X0632223Y0072065D01*
X0632314Y0072135D01*
X0632408Y0072203D01*
X0632504Y0072267D01*
X0632603Y0072327D01*
X0632703Y0072384D01*
X0632805Y0072438D01*
X0632909Y0072488D01*
X0633015Y0072535D01*
X0633122Y0072578D01*
X0633231Y0072617D01*
X0633341Y0072652D01*
X0633452Y0072683D01*
X0633564Y0072711D01*
X0633677Y0072735D01*
X0633791Y0072755D01*
X0633906Y0072771D01*
X0634021Y0072783D01*
X0634136Y0072791D01*
X0634251Y0072795D01*
X0634367Y0072795D01*
X0634482Y0072791D01*
X0634597Y0072783D01*
X0634712Y0072771D01*
X0634827Y0072755D01*
X0634941Y0072735D01*
X0635054Y0072711D01*
X0635166Y0072683D01*
X0635277Y0072652D01*
X0635387Y0072617D01*
X0635496Y0072578D01*
X0635603Y0072535D01*
X0635709Y0072488D01*
X0635813Y0072438D01*
X0635915Y0072384D01*
X0636015Y0072327D01*
X0636114Y0072267D01*
X0636210Y0072203D01*
X0636304Y0072135D01*
X0636395Y0072065D01*
X0636484Y0071991D01*
X0636571Y0071915D01*
X0636654Y0071835D01*
X0636735Y0071753D01*
X0636814Y0071668D01*
X0636889Y0071580D01*
X0636961Y0071490D01*
X0637029Y0071397D01*
X0637095Y0071302D01*
X0637157Y0071205D01*
X0637216Y0071105D01*
X0637272Y0071004D01*
X0637324Y0070901D01*
X0637372Y0070796D01*
X0637417Y0070689D01*
X0637458Y0070581D01*
X0637495Y0070472D01*
X0637528Y0070361D01*
X0637558Y0070250D01*
X0637583Y0070137D01*
X0637605Y0070024D01*
X0637623Y0069910D01*
X0637637Y0069795D01*
X0637647Y0069680D01*
X0637653Y0069564D01*
X0637655Y0069449D01*
X0637653Y0069334D01*
X0637647Y0069218D01*
X0637637Y0069103D01*
X0637623Y0068988D01*
X0637605Y0068874D01*
X0637583Y0068761D01*
X0637558Y0068648D01*
X0637528Y0068537D01*
X0637495Y0068426D01*
X0637458Y0068317D01*
X0637417Y0068209D01*
X0637372Y0068102D01*
X0637324Y0067997D01*
X0637272Y0067894D01*
X0637216Y0067793D01*
X0637157Y0067693D01*
X0637095Y0067596D01*
X0637029Y0067501D01*
X0636961Y0067408D01*
X0636889Y0067318D01*
X0636814Y0067230D01*
X0636735Y0067145D01*
X0636654Y0067063D01*
X0636571Y0066983D01*
X0636484Y0066907D01*
X0636395Y0066833D01*
X0636304Y0066763D01*
X0636210Y0066695D01*
X0636114Y0066631D01*
X0636015Y0066571D01*
X0635915Y0066514D01*
X0635813Y0066460D01*
X0635709Y0066410D01*
X0635603Y0066363D01*
X0635496Y0066320D01*
X0635387Y0066281D01*
X0635277Y0066246D01*
X0635166Y0066215D01*
X0635054Y0066187D01*
X0634941Y0066163D01*
X0634827Y0066143D01*
X0634712Y0066127D01*
X0634597Y0066115D01*
X0634482Y0066107D01*
X0634367Y0066103D01*
X0634251Y0066103D01*
X0634136Y0066107D01*
X0634021Y0066115D01*
X0633906Y0066127D01*
X0633791Y0066143D01*
X0633677Y0066163D01*
X0633564Y0066187D01*
X0633452Y0066215D01*
X0633341Y0066246D01*
X0633231Y0066281D01*
X0633122Y0066320D01*
X0633015Y0066363D01*
X0632909Y0066410D01*
X0632805Y0066460D01*
X0632703Y0066514D01*
X0632603Y0066571D01*
X0632504Y0066631D01*
X0632408Y0066695D01*
X0632314Y0066763D01*
X0632223Y0066833D01*
X0632134Y0066907D01*
X0632047Y0066983D01*
X0631964Y0067063D01*
X0631883Y0067145D01*
X0631804Y0067230D01*
X0631729Y0067318D01*
X0631657Y0067408D01*
X0631589Y0067501D01*
X0631523Y0067596D01*
X0631461Y0067693D01*
X0631402Y0067793D01*
X0631346Y0067894D01*
X0631294Y0067997D01*
X0631246Y0068102D01*
X0631201Y0068209D01*
X0631160Y0068317D01*
X0631123Y0068426D01*
X0631090Y0068537D01*
X0631060Y0068648D01*
X0631035Y0068761D01*
X0631013Y0068874D01*
X0630995Y0068988D01*
X0630981Y0069103D01*
X0630971Y0069218D01*
X0630965Y0069334D01*
X0630963Y0069449D01*
X0691948Y0069449D02*
X0691950Y0069564D01*
X0691956Y0069680D01*
X0691966Y0069795D01*
X0691980Y0069910D01*
X0691998Y0070024D01*
X0692020Y0070137D01*
X0692045Y0070250D01*
X0692075Y0070361D01*
X0692108Y0070472D01*
X0692145Y0070581D01*
X0692186Y0070689D01*
X0692231Y0070796D01*
X0692279Y0070901D01*
X0692331Y0071004D01*
X0692387Y0071105D01*
X0692446Y0071205D01*
X0692508Y0071302D01*
X0692574Y0071397D01*
X0692642Y0071490D01*
X0692714Y0071580D01*
X0692789Y0071668D01*
X0692868Y0071753D01*
X0692949Y0071835D01*
X0693032Y0071915D01*
X0693119Y0071991D01*
X0693208Y0072065D01*
X0693299Y0072135D01*
X0693393Y0072203D01*
X0693489Y0072267D01*
X0693588Y0072327D01*
X0693688Y0072384D01*
X0693790Y0072438D01*
X0693894Y0072488D01*
X0694000Y0072535D01*
X0694107Y0072578D01*
X0694216Y0072617D01*
X0694326Y0072652D01*
X0694437Y0072683D01*
X0694549Y0072711D01*
X0694662Y0072735D01*
X0694776Y0072755D01*
X0694891Y0072771D01*
X0695006Y0072783D01*
X0695121Y0072791D01*
X0695236Y0072795D01*
X0695352Y0072795D01*
X0695467Y0072791D01*
X0695582Y0072783D01*
X0695697Y0072771D01*
X0695812Y0072755D01*
X0695926Y0072735D01*
X0696039Y0072711D01*
X0696151Y0072683D01*
X0696262Y0072652D01*
X0696372Y0072617D01*
X0696481Y0072578D01*
X0696588Y0072535D01*
X0696694Y0072488D01*
X0696798Y0072438D01*
X0696900Y0072384D01*
X0697000Y0072327D01*
X0697099Y0072267D01*
X0697195Y0072203D01*
X0697289Y0072135D01*
X0697380Y0072065D01*
X0697469Y0071991D01*
X0697556Y0071915D01*
X0697639Y0071835D01*
X0697720Y0071753D01*
X0697799Y0071668D01*
X0697874Y0071580D01*
X0697946Y0071490D01*
X0698014Y0071397D01*
X0698080Y0071302D01*
X0698142Y0071205D01*
X0698201Y0071105D01*
X0698257Y0071004D01*
X0698309Y0070901D01*
X0698357Y0070796D01*
X0698402Y0070689D01*
X0698443Y0070581D01*
X0698480Y0070472D01*
X0698513Y0070361D01*
X0698543Y0070250D01*
X0698568Y0070137D01*
X0698590Y0070024D01*
X0698608Y0069910D01*
X0698622Y0069795D01*
X0698632Y0069680D01*
X0698638Y0069564D01*
X0698640Y0069449D01*
X0698638Y0069334D01*
X0698632Y0069218D01*
X0698622Y0069103D01*
X0698608Y0068988D01*
X0698590Y0068874D01*
X0698568Y0068761D01*
X0698543Y0068648D01*
X0698513Y0068537D01*
X0698480Y0068426D01*
X0698443Y0068317D01*
X0698402Y0068209D01*
X0698357Y0068102D01*
X0698309Y0067997D01*
X0698257Y0067894D01*
X0698201Y0067793D01*
X0698142Y0067693D01*
X0698080Y0067596D01*
X0698014Y0067501D01*
X0697946Y0067408D01*
X0697874Y0067318D01*
X0697799Y0067230D01*
X0697720Y0067145D01*
X0697639Y0067063D01*
X0697556Y0066983D01*
X0697469Y0066907D01*
X0697380Y0066833D01*
X0697289Y0066763D01*
X0697195Y0066695D01*
X0697099Y0066631D01*
X0697000Y0066571D01*
X0696900Y0066514D01*
X0696798Y0066460D01*
X0696694Y0066410D01*
X0696588Y0066363D01*
X0696481Y0066320D01*
X0696372Y0066281D01*
X0696262Y0066246D01*
X0696151Y0066215D01*
X0696039Y0066187D01*
X0695926Y0066163D01*
X0695812Y0066143D01*
X0695697Y0066127D01*
X0695582Y0066115D01*
X0695467Y0066107D01*
X0695352Y0066103D01*
X0695236Y0066103D01*
X0695121Y0066107D01*
X0695006Y0066115D01*
X0694891Y0066127D01*
X0694776Y0066143D01*
X0694662Y0066163D01*
X0694549Y0066187D01*
X0694437Y0066215D01*
X0694326Y0066246D01*
X0694216Y0066281D01*
X0694107Y0066320D01*
X0694000Y0066363D01*
X0693894Y0066410D01*
X0693790Y0066460D01*
X0693688Y0066514D01*
X0693588Y0066571D01*
X0693489Y0066631D01*
X0693393Y0066695D01*
X0693299Y0066763D01*
X0693208Y0066833D01*
X0693119Y0066907D01*
X0693032Y0066983D01*
X0692949Y0067063D01*
X0692868Y0067145D01*
X0692789Y0067230D01*
X0692714Y0067318D01*
X0692642Y0067408D01*
X0692574Y0067501D01*
X0692508Y0067596D01*
X0692446Y0067693D01*
X0692387Y0067793D01*
X0692331Y0067894D01*
X0692279Y0067997D01*
X0692231Y0068102D01*
X0692186Y0068209D01*
X0692145Y0068317D01*
X0692108Y0068426D01*
X0692075Y0068537D01*
X0692045Y0068648D01*
X0692020Y0068761D01*
X0691998Y0068874D01*
X0691980Y0068988D01*
X0691966Y0069103D01*
X0691956Y0069218D01*
X0691950Y0069334D01*
X0691948Y0069449D01*
X0769072Y0056324D02*
X0769074Y0056458D01*
X0769080Y0056592D01*
X0769090Y0056726D01*
X0769104Y0056860D01*
X0769122Y0056993D01*
X0769143Y0057125D01*
X0769169Y0057257D01*
X0769199Y0057388D01*
X0769232Y0057518D01*
X0769269Y0057646D01*
X0769311Y0057774D01*
X0769355Y0057901D01*
X0769404Y0058026D01*
X0769456Y0058149D01*
X0769512Y0058271D01*
X0769572Y0058392D01*
X0769635Y0058510D01*
X0769701Y0058627D01*
X0769771Y0058741D01*
X0769844Y0058854D01*
X0769921Y0058964D01*
X0770001Y0059072D01*
X0770084Y0059177D01*
X0770170Y0059280D01*
X0770259Y0059380D01*
X0770351Y0059478D01*
X0770446Y0059573D01*
X0770544Y0059665D01*
X0770644Y0059754D01*
X0770747Y0059840D01*
X0770852Y0059923D01*
X0770960Y0060003D01*
X0771070Y0060080D01*
X0771183Y0060153D01*
X0771297Y0060223D01*
X0771414Y0060289D01*
X0771532Y0060352D01*
X0771653Y0060412D01*
X0771775Y0060468D01*
X0771898Y0060520D01*
X0772023Y0060569D01*
X0772150Y0060613D01*
X0772278Y0060655D01*
X0772406Y0060692D01*
X0772536Y0060725D01*
X0772667Y0060755D01*
X0772799Y0060781D01*
X0772931Y0060802D01*
X0773064Y0060820D01*
X0773198Y0060834D01*
X0773332Y0060844D01*
X0773466Y0060850D01*
X0773600Y0060852D01*
X0773734Y0060850D01*
X0773868Y0060844D01*
X0774002Y0060834D01*
X0774136Y0060820D01*
X0774269Y0060802D01*
X0774401Y0060781D01*
X0774533Y0060755D01*
X0774664Y0060725D01*
X0774794Y0060692D01*
X0774922Y0060655D01*
X0775050Y0060613D01*
X0775177Y0060569D01*
X0775302Y0060520D01*
X0775425Y0060468D01*
X0775547Y0060412D01*
X0775668Y0060352D01*
X0775786Y0060289D01*
X0775903Y0060223D01*
X0776017Y0060153D01*
X0776130Y0060080D01*
X0776240Y0060003D01*
X0776348Y0059923D01*
X0776453Y0059840D01*
X0776556Y0059754D01*
X0776656Y0059665D01*
X0776754Y0059573D01*
X0776849Y0059478D01*
X0776941Y0059380D01*
X0777030Y0059280D01*
X0777116Y0059177D01*
X0777199Y0059072D01*
X0777279Y0058964D01*
X0777356Y0058854D01*
X0777429Y0058741D01*
X0777499Y0058627D01*
X0777565Y0058510D01*
X0777628Y0058392D01*
X0777688Y0058271D01*
X0777744Y0058149D01*
X0777796Y0058026D01*
X0777845Y0057901D01*
X0777889Y0057774D01*
X0777931Y0057646D01*
X0777968Y0057518D01*
X0778001Y0057388D01*
X0778031Y0057257D01*
X0778057Y0057125D01*
X0778078Y0056993D01*
X0778096Y0056860D01*
X0778110Y0056726D01*
X0778120Y0056592D01*
X0778126Y0056458D01*
X0778128Y0056324D01*
X0778126Y0056190D01*
X0778120Y0056056D01*
X0778110Y0055922D01*
X0778096Y0055788D01*
X0778078Y0055655D01*
X0778057Y0055523D01*
X0778031Y0055391D01*
X0778001Y0055260D01*
X0777968Y0055130D01*
X0777931Y0055002D01*
X0777889Y0054874D01*
X0777845Y0054747D01*
X0777796Y0054622D01*
X0777744Y0054499D01*
X0777688Y0054377D01*
X0777628Y0054256D01*
X0777565Y0054138D01*
X0777499Y0054021D01*
X0777429Y0053907D01*
X0777356Y0053794D01*
X0777279Y0053684D01*
X0777199Y0053576D01*
X0777116Y0053471D01*
X0777030Y0053368D01*
X0776941Y0053268D01*
X0776849Y0053170D01*
X0776754Y0053075D01*
X0776656Y0052983D01*
X0776556Y0052894D01*
X0776453Y0052808D01*
X0776348Y0052725D01*
X0776240Y0052645D01*
X0776130Y0052568D01*
X0776017Y0052495D01*
X0775903Y0052425D01*
X0775786Y0052359D01*
X0775668Y0052296D01*
X0775547Y0052236D01*
X0775425Y0052180D01*
X0775302Y0052128D01*
X0775177Y0052079D01*
X0775050Y0052035D01*
X0774922Y0051993D01*
X0774794Y0051956D01*
X0774664Y0051923D01*
X0774533Y0051893D01*
X0774401Y0051867D01*
X0774269Y0051846D01*
X0774136Y0051828D01*
X0774002Y0051814D01*
X0773868Y0051804D01*
X0773734Y0051798D01*
X0773600Y0051796D01*
X0773466Y0051798D01*
X0773332Y0051804D01*
X0773198Y0051814D01*
X0773064Y0051828D01*
X0772931Y0051846D01*
X0772799Y0051867D01*
X0772667Y0051893D01*
X0772536Y0051923D01*
X0772406Y0051956D01*
X0772278Y0051993D01*
X0772150Y0052035D01*
X0772023Y0052079D01*
X0771898Y0052128D01*
X0771775Y0052180D01*
X0771653Y0052236D01*
X0771532Y0052296D01*
X0771414Y0052359D01*
X0771297Y0052425D01*
X0771183Y0052495D01*
X0771070Y0052568D01*
X0770960Y0052645D01*
X0770852Y0052725D01*
X0770747Y0052808D01*
X0770644Y0052894D01*
X0770544Y0052983D01*
X0770446Y0053075D01*
X0770351Y0053170D01*
X0770259Y0053268D01*
X0770170Y0053368D01*
X0770084Y0053471D01*
X0770001Y0053576D01*
X0769921Y0053684D01*
X0769844Y0053794D01*
X0769771Y0053907D01*
X0769701Y0054021D01*
X0769635Y0054138D01*
X0769572Y0054256D01*
X0769512Y0054377D01*
X0769456Y0054499D01*
X0769404Y0054622D01*
X0769355Y0054747D01*
X0769311Y0054874D01*
X0769269Y0055002D01*
X0769232Y0055130D01*
X0769199Y0055260D01*
X0769169Y0055391D01*
X0769143Y0055523D01*
X0769122Y0055655D01*
X0769104Y0055788D01*
X0769090Y0055922D01*
X0769080Y0056056D01*
X0769074Y0056190D01*
X0769072Y0056324D01*
X0766527Y0033575D02*
X0766529Y0033744D01*
X0766535Y0033913D01*
X0766546Y0034082D01*
X0766560Y0034250D01*
X0766579Y0034418D01*
X0766602Y0034586D01*
X0766628Y0034753D01*
X0766659Y0034919D01*
X0766694Y0035085D01*
X0766733Y0035249D01*
X0766777Y0035413D01*
X0766824Y0035575D01*
X0766875Y0035736D01*
X0766930Y0035896D01*
X0766989Y0036055D01*
X0767051Y0036212D01*
X0767118Y0036367D01*
X0767189Y0036521D01*
X0767263Y0036673D01*
X0767341Y0036823D01*
X0767422Y0036971D01*
X0767507Y0037117D01*
X0767596Y0037261D01*
X0767688Y0037403D01*
X0767784Y0037542D01*
X0767883Y0037679D01*
X0767985Y0037814D01*
X0768091Y0037946D01*
X0768200Y0038075D01*
X0768312Y0038202D01*
X0768427Y0038326D01*
X0768545Y0038447D01*
X0768666Y0038565D01*
X0768790Y0038680D01*
X0768917Y0038792D01*
X0769046Y0038901D01*
X0769178Y0039007D01*
X0769313Y0039109D01*
X0769450Y0039208D01*
X0769589Y0039304D01*
X0769731Y0039396D01*
X0769875Y0039485D01*
X0770021Y0039570D01*
X0770169Y0039651D01*
X0770319Y0039729D01*
X0770471Y0039803D01*
X0770625Y0039874D01*
X0770780Y0039941D01*
X0770937Y0040003D01*
X0771096Y0040062D01*
X0771256Y0040117D01*
X0771417Y0040168D01*
X0771579Y0040215D01*
X0771743Y0040259D01*
X0771907Y0040298D01*
X0772073Y0040333D01*
X0772239Y0040364D01*
X0772406Y0040390D01*
X0772574Y0040413D01*
X0772742Y0040432D01*
X0772910Y0040446D01*
X0773079Y0040457D01*
X0773248Y0040463D01*
X0773417Y0040465D01*
X0773586Y0040463D01*
X0773755Y0040457D01*
X0773924Y0040446D01*
X0774092Y0040432D01*
X0774260Y0040413D01*
X0774428Y0040390D01*
X0774595Y0040364D01*
X0774761Y0040333D01*
X0774927Y0040298D01*
X0775091Y0040259D01*
X0775255Y0040215D01*
X0775417Y0040168D01*
X0775578Y0040117D01*
X0775738Y0040062D01*
X0775897Y0040003D01*
X0776054Y0039941D01*
X0776209Y0039874D01*
X0776363Y0039803D01*
X0776515Y0039729D01*
X0776665Y0039651D01*
X0776813Y0039570D01*
X0776959Y0039485D01*
X0777103Y0039396D01*
X0777245Y0039304D01*
X0777384Y0039208D01*
X0777521Y0039109D01*
X0777656Y0039007D01*
X0777788Y0038901D01*
X0777917Y0038792D01*
X0778044Y0038680D01*
X0778168Y0038565D01*
X0778289Y0038447D01*
X0778407Y0038326D01*
X0778522Y0038202D01*
X0778634Y0038075D01*
X0778743Y0037946D01*
X0778849Y0037814D01*
X0778951Y0037679D01*
X0779050Y0037542D01*
X0779146Y0037403D01*
X0779238Y0037261D01*
X0779327Y0037117D01*
X0779412Y0036971D01*
X0779493Y0036823D01*
X0779571Y0036673D01*
X0779645Y0036521D01*
X0779716Y0036367D01*
X0779783Y0036212D01*
X0779845Y0036055D01*
X0779904Y0035896D01*
X0779959Y0035736D01*
X0780010Y0035575D01*
X0780057Y0035413D01*
X0780101Y0035249D01*
X0780140Y0035085D01*
X0780175Y0034919D01*
X0780206Y0034753D01*
X0780232Y0034586D01*
X0780255Y0034418D01*
X0780274Y0034250D01*
X0780288Y0034082D01*
X0780299Y0033913D01*
X0780305Y0033744D01*
X0780307Y0033575D01*
X0780305Y0033406D01*
X0780299Y0033237D01*
X0780288Y0033068D01*
X0780274Y0032900D01*
X0780255Y0032732D01*
X0780232Y0032564D01*
X0780206Y0032397D01*
X0780175Y0032231D01*
X0780140Y0032065D01*
X0780101Y0031901D01*
X0780057Y0031737D01*
X0780010Y0031575D01*
X0779959Y0031414D01*
X0779904Y0031254D01*
X0779845Y0031095D01*
X0779783Y0030938D01*
X0779716Y0030783D01*
X0779645Y0030629D01*
X0779571Y0030477D01*
X0779493Y0030327D01*
X0779412Y0030179D01*
X0779327Y0030033D01*
X0779238Y0029889D01*
X0779146Y0029747D01*
X0779050Y0029608D01*
X0778951Y0029471D01*
X0778849Y0029336D01*
X0778743Y0029204D01*
X0778634Y0029075D01*
X0778522Y0028948D01*
X0778407Y0028824D01*
X0778289Y0028703D01*
X0778168Y0028585D01*
X0778044Y0028470D01*
X0777917Y0028358D01*
X0777788Y0028249D01*
X0777656Y0028143D01*
X0777521Y0028041D01*
X0777384Y0027942D01*
X0777245Y0027846D01*
X0777103Y0027754D01*
X0776959Y0027665D01*
X0776813Y0027580D01*
X0776665Y0027499D01*
X0776515Y0027421D01*
X0776363Y0027347D01*
X0776209Y0027276D01*
X0776054Y0027209D01*
X0775897Y0027147D01*
X0775738Y0027088D01*
X0775578Y0027033D01*
X0775417Y0026982D01*
X0775255Y0026935D01*
X0775091Y0026891D01*
X0774927Y0026852D01*
X0774761Y0026817D01*
X0774595Y0026786D01*
X0774428Y0026760D01*
X0774260Y0026737D01*
X0774092Y0026718D01*
X0773924Y0026704D01*
X0773755Y0026693D01*
X0773586Y0026687D01*
X0773417Y0026685D01*
X0773248Y0026687D01*
X0773079Y0026693D01*
X0772910Y0026704D01*
X0772742Y0026718D01*
X0772574Y0026737D01*
X0772406Y0026760D01*
X0772239Y0026786D01*
X0772073Y0026817D01*
X0771907Y0026852D01*
X0771743Y0026891D01*
X0771579Y0026935D01*
X0771417Y0026982D01*
X0771256Y0027033D01*
X0771096Y0027088D01*
X0770937Y0027147D01*
X0770780Y0027209D01*
X0770625Y0027276D01*
X0770471Y0027347D01*
X0770319Y0027421D01*
X0770169Y0027499D01*
X0770021Y0027580D01*
X0769875Y0027665D01*
X0769731Y0027754D01*
X0769589Y0027846D01*
X0769450Y0027942D01*
X0769313Y0028041D01*
X0769178Y0028143D01*
X0769046Y0028249D01*
X0768917Y0028358D01*
X0768790Y0028470D01*
X0768666Y0028585D01*
X0768545Y0028703D01*
X0768427Y0028824D01*
X0768312Y0028948D01*
X0768200Y0029075D01*
X0768091Y0029204D01*
X0767985Y0029336D01*
X0767883Y0029471D01*
X0767784Y0029608D01*
X0767688Y0029747D01*
X0767596Y0029889D01*
X0767507Y0030033D01*
X0767422Y0030179D01*
X0767341Y0030327D01*
X0767263Y0030477D01*
X0767189Y0030629D01*
X0767118Y0030783D01*
X0767051Y0030938D01*
X0766989Y0031095D01*
X0766930Y0031254D01*
X0766875Y0031414D01*
X0766824Y0031575D01*
X0766777Y0031737D01*
X0766733Y0031901D01*
X0766694Y0032065D01*
X0766659Y0032231D01*
X0766628Y0032397D01*
X0766602Y0032564D01*
X0766579Y0032732D01*
X0766560Y0032900D01*
X0766546Y0033068D01*
X0766535Y0033237D01*
X0766529Y0033406D01*
X0766527Y0033575D01*
X0769072Y0108056D02*
X0769074Y0108190D01*
X0769080Y0108324D01*
X0769090Y0108458D01*
X0769104Y0108592D01*
X0769122Y0108725D01*
X0769143Y0108857D01*
X0769169Y0108989D01*
X0769199Y0109120D01*
X0769232Y0109250D01*
X0769269Y0109378D01*
X0769311Y0109506D01*
X0769355Y0109633D01*
X0769404Y0109758D01*
X0769456Y0109881D01*
X0769512Y0110003D01*
X0769572Y0110124D01*
X0769635Y0110242D01*
X0769701Y0110359D01*
X0769771Y0110473D01*
X0769844Y0110586D01*
X0769921Y0110696D01*
X0770001Y0110804D01*
X0770084Y0110909D01*
X0770170Y0111012D01*
X0770259Y0111112D01*
X0770351Y0111210D01*
X0770446Y0111305D01*
X0770544Y0111397D01*
X0770644Y0111486D01*
X0770747Y0111572D01*
X0770852Y0111655D01*
X0770960Y0111735D01*
X0771070Y0111812D01*
X0771183Y0111885D01*
X0771297Y0111955D01*
X0771414Y0112021D01*
X0771532Y0112084D01*
X0771653Y0112144D01*
X0771775Y0112200D01*
X0771898Y0112252D01*
X0772023Y0112301D01*
X0772150Y0112345D01*
X0772278Y0112387D01*
X0772406Y0112424D01*
X0772536Y0112457D01*
X0772667Y0112487D01*
X0772799Y0112513D01*
X0772931Y0112534D01*
X0773064Y0112552D01*
X0773198Y0112566D01*
X0773332Y0112576D01*
X0773466Y0112582D01*
X0773600Y0112584D01*
X0773734Y0112582D01*
X0773868Y0112576D01*
X0774002Y0112566D01*
X0774136Y0112552D01*
X0774269Y0112534D01*
X0774401Y0112513D01*
X0774533Y0112487D01*
X0774664Y0112457D01*
X0774794Y0112424D01*
X0774922Y0112387D01*
X0775050Y0112345D01*
X0775177Y0112301D01*
X0775302Y0112252D01*
X0775425Y0112200D01*
X0775547Y0112144D01*
X0775668Y0112084D01*
X0775786Y0112021D01*
X0775903Y0111955D01*
X0776017Y0111885D01*
X0776130Y0111812D01*
X0776240Y0111735D01*
X0776348Y0111655D01*
X0776453Y0111572D01*
X0776556Y0111486D01*
X0776656Y0111397D01*
X0776754Y0111305D01*
X0776849Y0111210D01*
X0776941Y0111112D01*
X0777030Y0111012D01*
X0777116Y0110909D01*
X0777199Y0110804D01*
X0777279Y0110696D01*
X0777356Y0110586D01*
X0777429Y0110473D01*
X0777499Y0110359D01*
X0777565Y0110242D01*
X0777628Y0110124D01*
X0777688Y0110003D01*
X0777744Y0109881D01*
X0777796Y0109758D01*
X0777845Y0109633D01*
X0777889Y0109506D01*
X0777931Y0109378D01*
X0777968Y0109250D01*
X0778001Y0109120D01*
X0778031Y0108989D01*
X0778057Y0108857D01*
X0778078Y0108725D01*
X0778096Y0108592D01*
X0778110Y0108458D01*
X0778120Y0108324D01*
X0778126Y0108190D01*
X0778128Y0108056D01*
X0778126Y0107922D01*
X0778120Y0107788D01*
X0778110Y0107654D01*
X0778096Y0107520D01*
X0778078Y0107387D01*
X0778057Y0107255D01*
X0778031Y0107123D01*
X0778001Y0106992D01*
X0777968Y0106862D01*
X0777931Y0106734D01*
X0777889Y0106606D01*
X0777845Y0106479D01*
X0777796Y0106354D01*
X0777744Y0106231D01*
X0777688Y0106109D01*
X0777628Y0105988D01*
X0777565Y0105870D01*
X0777499Y0105753D01*
X0777429Y0105639D01*
X0777356Y0105526D01*
X0777279Y0105416D01*
X0777199Y0105308D01*
X0777116Y0105203D01*
X0777030Y0105100D01*
X0776941Y0105000D01*
X0776849Y0104902D01*
X0776754Y0104807D01*
X0776656Y0104715D01*
X0776556Y0104626D01*
X0776453Y0104540D01*
X0776348Y0104457D01*
X0776240Y0104377D01*
X0776130Y0104300D01*
X0776017Y0104227D01*
X0775903Y0104157D01*
X0775786Y0104091D01*
X0775668Y0104028D01*
X0775547Y0103968D01*
X0775425Y0103912D01*
X0775302Y0103860D01*
X0775177Y0103811D01*
X0775050Y0103767D01*
X0774922Y0103725D01*
X0774794Y0103688D01*
X0774664Y0103655D01*
X0774533Y0103625D01*
X0774401Y0103599D01*
X0774269Y0103578D01*
X0774136Y0103560D01*
X0774002Y0103546D01*
X0773868Y0103536D01*
X0773734Y0103530D01*
X0773600Y0103528D01*
X0773466Y0103530D01*
X0773332Y0103536D01*
X0773198Y0103546D01*
X0773064Y0103560D01*
X0772931Y0103578D01*
X0772799Y0103599D01*
X0772667Y0103625D01*
X0772536Y0103655D01*
X0772406Y0103688D01*
X0772278Y0103725D01*
X0772150Y0103767D01*
X0772023Y0103811D01*
X0771898Y0103860D01*
X0771775Y0103912D01*
X0771653Y0103968D01*
X0771532Y0104028D01*
X0771414Y0104091D01*
X0771297Y0104157D01*
X0771183Y0104227D01*
X0771070Y0104300D01*
X0770960Y0104377D01*
X0770852Y0104457D01*
X0770747Y0104540D01*
X0770644Y0104626D01*
X0770544Y0104715D01*
X0770446Y0104807D01*
X0770351Y0104902D01*
X0770259Y0105000D01*
X0770170Y0105100D01*
X0770084Y0105203D01*
X0770001Y0105308D01*
X0769921Y0105416D01*
X0769844Y0105526D01*
X0769771Y0105639D01*
X0769701Y0105753D01*
X0769635Y0105870D01*
X0769572Y0105988D01*
X0769512Y0106109D01*
X0769456Y0106231D01*
X0769404Y0106354D01*
X0769355Y0106479D01*
X0769311Y0106606D01*
X0769269Y0106734D01*
X0769232Y0106862D01*
X0769199Y0106992D01*
X0769169Y0107123D01*
X0769143Y0107255D01*
X0769122Y0107387D01*
X0769104Y0107520D01*
X0769090Y0107654D01*
X0769080Y0107788D01*
X0769074Y0107922D01*
X0769072Y0108056D01*
X0564689Y0241803D02*
X0564691Y0241918D01*
X0564697Y0242034D01*
X0564707Y0242149D01*
X0564721Y0242264D01*
X0564739Y0242378D01*
X0564761Y0242491D01*
X0564786Y0242604D01*
X0564816Y0242715D01*
X0564849Y0242826D01*
X0564886Y0242935D01*
X0564927Y0243043D01*
X0564972Y0243150D01*
X0565020Y0243255D01*
X0565072Y0243358D01*
X0565128Y0243459D01*
X0565187Y0243559D01*
X0565249Y0243656D01*
X0565315Y0243751D01*
X0565383Y0243844D01*
X0565455Y0243934D01*
X0565530Y0244022D01*
X0565609Y0244107D01*
X0565690Y0244189D01*
X0565773Y0244269D01*
X0565860Y0244345D01*
X0565949Y0244419D01*
X0566040Y0244489D01*
X0566134Y0244557D01*
X0566230Y0244621D01*
X0566329Y0244681D01*
X0566429Y0244738D01*
X0566531Y0244792D01*
X0566635Y0244842D01*
X0566741Y0244889D01*
X0566848Y0244932D01*
X0566957Y0244971D01*
X0567067Y0245006D01*
X0567178Y0245037D01*
X0567290Y0245065D01*
X0567403Y0245089D01*
X0567517Y0245109D01*
X0567632Y0245125D01*
X0567747Y0245137D01*
X0567862Y0245145D01*
X0567977Y0245149D01*
X0568093Y0245149D01*
X0568208Y0245145D01*
X0568323Y0245137D01*
X0568438Y0245125D01*
X0568553Y0245109D01*
X0568667Y0245089D01*
X0568780Y0245065D01*
X0568892Y0245037D01*
X0569003Y0245006D01*
X0569113Y0244971D01*
X0569222Y0244932D01*
X0569329Y0244889D01*
X0569435Y0244842D01*
X0569539Y0244792D01*
X0569641Y0244738D01*
X0569741Y0244681D01*
X0569840Y0244621D01*
X0569936Y0244557D01*
X0570030Y0244489D01*
X0570121Y0244419D01*
X0570210Y0244345D01*
X0570297Y0244269D01*
X0570380Y0244189D01*
X0570461Y0244107D01*
X0570540Y0244022D01*
X0570615Y0243934D01*
X0570687Y0243844D01*
X0570755Y0243751D01*
X0570821Y0243656D01*
X0570883Y0243559D01*
X0570942Y0243459D01*
X0570998Y0243358D01*
X0571050Y0243255D01*
X0571098Y0243150D01*
X0571143Y0243043D01*
X0571184Y0242935D01*
X0571221Y0242826D01*
X0571254Y0242715D01*
X0571284Y0242604D01*
X0571309Y0242491D01*
X0571331Y0242378D01*
X0571349Y0242264D01*
X0571363Y0242149D01*
X0571373Y0242034D01*
X0571379Y0241918D01*
X0571381Y0241803D01*
X0571379Y0241688D01*
X0571373Y0241572D01*
X0571363Y0241457D01*
X0571349Y0241342D01*
X0571331Y0241228D01*
X0571309Y0241115D01*
X0571284Y0241002D01*
X0571254Y0240891D01*
X0571221Y0240780D01*
X0571184Y0240671D01*
X0571143Y0240563D01*
X0571098Y0240456D01*
X0571050Y0240351D01*
X0570998Y0240248D01*
X0570942Y0240147D01*
X0570883Y0240047D01*
X0570821Y0239950D01*
X0570755Y0239855D01*
X0570687Y0239762D01*
X0570615Y0239672D01*
X0570540Y0239584D01*
X0570461Y0239499D01*
X0570380Y0239417D01*
X0570297Y0239337D01*
X0570210Y0239261D01*
X0570121Y0239187D01*
X0570030Y0239117D01*
X0569936Y0239049D01*
X0569840Y0238985D01*
X0569741Y0238925D01*
X0569641Y0238868D01*
X0569539Y0238814D01*
X0569435Y0238764D01*
X0569329Y0238717D01*
X0569222Y0238674D01*
X0569113Y0238635D01*
X0569003Y0238600D01*
X0568892Y0238569D01*
X0568780Y0238541D01*
X0568667Y0238517D01*
X0568553Y0238497D01*
X0568438Y0238481D01*
X0568323Y0238469D01*
X0568208Y0238461D01*
X0568093Y0238457D01*
X0567977Y0238457D01*
X0567862Y0238461D01*
X0567747Y0238469D01*
X0567632Y0238481D01*
X0567517Y0238497D01*
X0567403Y0238517D01*
X0567290Y0238541D01*
X0567178Y0238569D01*
X0567067Y0238600D01*
X0566957Y0238635D01*
X0566848Y0238674D01*
X0566741Y0238717D01*
X0566635Y0238764D01*
X0566531Y0238814D01*
X0566429Y0238868D01*
X0566329Y0238925D01*
X0566230Y0238985D01*
X0566134Y0239049D01*
X0566040Y0239117D01*
X0565949Y0239187D01*
X0565860Y0239261D01*
X0565773Y0239337D01*
X0565690Y0239417D01*
X0565609Y0239499D01*
X0565530Y0239584D01*
X0565455Y0239672D01*
X0565383Y0239762D01*
X0565315Y0239855D01*
X0565249Y0239950D01*
X0565187Y0240047D01*
X0565128Y0240147D01*
X0565072Y0240248D01*
X0565020Y0240351D01*
X0564972Y0240456D01*
X0564927Y0240563D01*
X0564886Y0240671D01*
X0564849Y0240780D01*
X0564816Y0240891D01*
X0564786Y0241002D01*
X0564761Y0241115D01*
X0564739Y0241228D01*
X0564721Y0241342D01*
X0564707Y0241457D01*
X0564697Y0241572D01*
X0564691Y0241688D01*
X0564689Y0241803D01*
X0766527Y0250111D02*
X0766529Y0250280D01*
X0766535Y0250449D01*
X0766546Y0250618D01*
X0766560Y0250786D01*
X0766579Y0250954D01*
X0766602Y0251122D01*
X0766628Y0251289D01*
X0766659Y0251455D01*
X0766694Y0251621D01*
X0766733Y0251785D01*
X0766777Y0251949D01*
X0766824Y0252111D01*
X0766875Y0252272D01*
X0766930Y0252432D01*
X0766989Y0252591D01*
X0767051Y0252748D01*
X0767118Y0252903D01*
X0767189Y0253057D01*
X0767263Y0253209D01*
X0767341Y0253359D01*
X0767422Y0253507D01*
X0767507Y0253653D01*
X0767596Y0253797D01*
X0767688Y0253939D01*
X0767784Y0254078D01*
X0767883Y0254215D01*
X0767985Y0254350D01*
X0768091Y0254482D01*
X0768200Y0254611D01*
X0768312Y0254738D01*
X0768427Y0254862D01*
X0768545Y0254983D01*
X0768666Y0255101D01*
X0768790Y0255216D01*
X0768917Y0255328D01*
X0769046Y0255437D01*
X0769178Y0255543D01*
X0769313Y0255645D01*
X0769450Y0255744D01*
X0769589Y0255840D01*
X0769731Y0255932D01*
X0769875Y0256021D01*
X0770021Y0256106D01*
X0770169Y0256187D01*
X0770319Y0256265D01*
X0770471Y0256339D01*
X0770625Y0256410D01*
X0770780Y0256477D01*
X0770937Y0256539D01*
X0771096Y0256598D01*
X0771256Y0256653D01*
X0771417Y0256704D01*
X0771579Y0256751D01*
X0771743Y0256795D01*
X0771907Y0256834D01*
X0772073Y0256869D01*
X0772239Y0256900D01*
X0772406Y0256926D01*
X0772574Y0256949D01*
X0772742Y0256968D01*
X0772910Y0256982D01*
X0773079Y0256993D01*
X0773248Y0256999D01*
X0773417Y0257001D01*
X0773586Y0256999D01*
X0773755Y0256993D01*
X0773924Y0256982D01*
X0774092Y0256968D01*
X0774260Y0256949D01*
X0774428Y0256926D01*
X0774595Y0256900D01*
X0774761Y0256869D01*
X0774927Y0256834D01*
X0775091Y0256795D01*
X0775255Y0256751D01*
X0775417Y0256704D01*
X0775578Y0256653D01*
X0775738Y0256598D01*
X0775897Y0256539D01*
X0776054Y0256477D01*
X0776209Y0256410D01*
X0776363Y0256339D01*
X0776515Y0256265D01*
X0776665Y0256187D01*
X0776813Y0256106D01*
X0776959Y0256021D01*
X0777103Y0255932D01*
X0777245Y0255840D01*
X0777384Y0255744D01*
X0777521Y0255645D01*
X0777656Y0255543D01*
X0777788Y0255437D01*
X0777917Y0255328D01*
X0778044Y0255216D01*
X0778168Y0255101D01*
X0778289Y0254983D01*
X0778407Y0254862D01*
X0778522Y0254738D01*
X0778634Y0254611D01*
X0778743Y0254482D01*
X0778849Y0254350D01*
X0778951Y0254215D01*
X0779050Y0254078D01*
X0779146Y0253939D01*
X0779238Y0253797D01*
X0779327Y0253653D01*
X0779412Y0253507D01*
X0779493Y0253359D01*
X0779571Y0253209D01*
X0779645Y0253057D01*
X0779716Y0252903D01*
X0779783Y0252748D01*
X0779845Y0252591D01*
X0779904Y0252432D01*
X0779959Y0252272D01*
X0780010Y0252111D01*
X0780057Y0251949D01*
X0780101Y0251785D01*
X0780140Y0251621D01*
X0780175Y0251455D01*
X0780206Y0251289D01*
X0780232Y0251122D01*
X0780255Y0250954D01*
X0780274Y0250786D01*
X0780288Y0250618D01*
X0780299Y0250449D01*
X0780305Y0250280D01*
X0780307Y0250111D01*
X0780305Y0249942D01*
X0780299Y0249773D01*
X0780288Y0249604D01*
X0780274Y0249436D01*
X0780255Y0249268D01*
X0780232Y0249100D01*
X0780206Y0248933D01*
X0780175Y0248767D01*
X0780140Y0248601D01*
X0780101Y0248437D01*
X0780057Y0248273D01*
X0780010Y0248111D01*
X0779959Y0247950D01*
X0779904Y0247790D01*
X0779845Y0247631D01*
X0779783Y0247474D01*
X0779716Y0247319D01*
X0779645Y0247165D01*
X0779571Y0247013D01*
X0779493Y0246863D01*
X0779412Y0246715D01*
X0779327Y0246569D01*
X0779238Y0246425D01*
X0779146Y0246283D01*
X0779050Y0246144D01*
X0778951Y0246007D01*
X0778849Y0245872D01*
X0778743Y0245740D01*
X0778634Y0245611D01*
X0778522Y0245484D01*
X0778407Y0245360D01*
X0778289Y0245239D01*
X0778168Y0245121D01*
X0778044Y0245006D01*
X0777917Y0244894D01*
X0777788Y0244785D01*
X0777656Y0244679D01*
X0777521Y0244577D01*
X0777384Y0244478D01*
X0777245Y0244382D01*
X0777103Y0244290D01*
X0776959Y0244201D01*
X0776813Y0244116D01*
X0776665Y0244035D01*
X0776515Y0243957D01*
X0776363Y0243883D01*
X0776209Y0243812D01*
X0776054Y0243745D01*
X0775897Y0243683D01*
X0775738Y0243624D01*
X0775578Y0243569D01*
X0775417Y0243518D01*
X0775255Y0243471D01*
X0775091Y0243427D01*
X0774927Y0243388D01*
X0774761Y0243353D01*
X0774595Y0243322D01*
X0774428Y0243296D01*
X0774260Y0243273D01*
X0774092Y0243254D01*
X0773924Y0243240D01*
X0773755Y0243229D01*
X0773586Y0243223D01*
X0773417Y0243221D01*
X0773248Y0243223D01*
X0773079Y0243229D01*
X0772910Y0243240D01*
X0772742Y0243254D01*
X0772574Y0243273D01*
X0772406Y0243296D01*
X0772239Y0243322D01*
X0772073Y0243353D01*
X0771907Y0243388D01*
X0771743Y0243427D01*
X0771579Y0243471D01*
X0771417Y0243518D01*
X0771256Y0243569D01*
X0771096Y0243624D01*
X0770937Y0243683D01*
X0770780Y0243745D01*
X0770625Y0243812D01*
X0770471Y0243883D01*
X0770319Y0243957D01*
X0770169Y0244035D01*
X0770021Y0244116D01*
X0769875Y0244201D01*
X0769731Y0244290D01*
X0769589Y0244382D01*
X0769450Y0244478D01*
X0769313Y0244577D01*
X0769178Y0244679D01*
X0769046Y0244785D01*
X0768917Y0244894D01*
X0768790Y0245006D01*
X0768666Y0245121D01*
X0768545Y0245239D01*
X0768427Y0245360D01*
X0768312Y0245484D01*
X0768200Y0245611D01*
X0768091Y0245740D01*
X0767985Y0245872D01*
X0767883Y0246007D01*
X0767784Y0246144D01*
X0767688Y0246283D01*
X0767596Y0246425D01*
X0767507Y0246569D01*
X0767422Y0246715D01*
X0767341Y0246863D01*
X0767263Y0247013D01*
X0767189Y0247165D01*
X0767118Y0247319D01*
X0767051Y0247474D01*
X0766989Y0247631D01*
X0766930Y0247790D01*
X0766875Y0247950D01*
X0766824Y0248111D01*
X0766777Y0248273D01*
X0766733Y0248437D01*
X0766694Y0248601D01*
X0766659Y0248767D01*
X0766628Y0248933D01*
X0766602Y0249100D01*
X0766579Y0249268D01*
X0766560Y0249436D01*
X0766546Y0249604D01*
X0766535Y0249773D01*
X0766529Y0249942D01*
X0766527Y0250111D01*
X0300006Y0200826D02*
X0300008Y0200951D01*
X0300014Y0201076D01*
X0300024Y0201200D01*
X0300038Y0201324D01*
X0300055Y0201448D01*
X0300077Y0201571D01*
X0300103Y0201693D01*
X0300132Y0201815D01*
X0300165Y0201935D01*
X0300203Y0202054D01*
X0300243Y0202173D01*
X0300288Y0202289D01*
X0300336Y0202404D01*
X0300388Y0202518D01*
X0300444Y0202630D01*
X0300503Y0202740D01*
X0300565Y0202848D01*
X0300631Y0202955D01*
X0300700Y0203059D01*
X0300773Y0203160D01*
X0300848Y0203260D01*
X0300927Y0203357D01*
X0301009Y0203451D01*
X0301094Y0203543D01*
X0301181Y0203632D01*
X0301272Y0203718D01*
X0301365Y0203801D01*
X0301461Y0203882D01*
X0301559Y0203959D01*
X0301659Y0204033D01*
X0301762Y0204104D01*
X0301867Y0204171D01*
X0301975Y0204236D01*
X0302084Y0204296D01*
X0302195Y0204354D01*
X0302308Y0204407D01*
X0302422Y0204457D01*
X0302538Y0204504D01*
X0302655Y0204546D01*
X0302774Y0204585D01*
X0302894Y0204621D01*
X0303015Y0204652D01*
X0303137Y0204680D01*
X0303259Y0204703D01*
X0303383Y0204723D01*
X0303507Y0204739D01*
X0303631Y0204751D01*
X0303756Y0204759D01*
X0303881Y0204763D01*
X0304005Y0204763D01*
X0304130Y0204759D01*
X0304255Y0204751D01*
X0304379Y0204739D01*
X0304503Y0204723D01*
X0304627Y0204703D01*
X0304749Y0204680D01*
X0304871Y0204652D01*
X0304992Y0204621D01*
X0305112Y0204585D01*
X0305231Y0204546D01*
X0305348Y0204504D01*
X0305464Y0204457D01*
X0305578Y0204407D01*
X0305691Y0204354D01*
X0305802Y0204296D01*
X0305912Y0204236D01*
X0306019Y0204171D01*
X0306124Y0204104D01*
X0306227Y0204033D01*
X0306327Y0203959D01*
X0306425Y0203882D01*
X0306521Y0203801D01*
X0306614Y0203718D01*
X0306705Y0203632D01*
X0306792Y0203543D01*
X0306877Y0203451D01*
X0306959Y0203357D01*
X0307038Y0203260D01*
X0307113Y0203160D01*
X0307186Y0203059D01*
X0307255Y0202955D01*
X0307321Y0202848D01*
X0307383Y0202740D01*
X0307442Y0202630D01*
X0307498Y0202518D01*
X0307550Y0202404D01*
X0307598Y0202289D01*
X0307643Y0202173D01*
X0307683Y0202054D01*
X0307721Y0201935D01*
X0307754Y0201815D01*
X0307783Y0201693D01*
X0307809Y0201571D01*
X0307831Y0201448D01*
X0307848Y0201324D01*
X0307862Y0201200D01*
X0307872Y0201076D01*
X0307878Y0200951D01*
X0307880Y0200826D01*
X0307878Y0200701D01*
X0307872Y0200576D01*
X0307862Y0200452D01*
X0307848Y0200328D01*
X0307831Y0200204D01*
X0307809Y0200081D01*
X0307783Y0199959D01*
X0307754Y0199837D01*
X0307721Y0199717D01*
X0307683Y0199598D01*
X0307643Y0199479D01*
X0307598Y0199363D01*
X0307550Y0199248D01*
X0307498Y0199134D01*
X0307442Y0199022D01*
X0307383Y0198912D01*
X0307321Y0198804D01*
X0307255Y0198697D01*
X0307186Y0198593D01*
X0307113Y0198492D01*
X0307038Y0198392D01*
X0306959Y0198295D01*
X0306877Y0198201D01*
X0306792Y0198109D01*
X0306705Y0198020D01*
X0306614Y0197934D01*
X0306521Y0197851D01*
X0306425Y0197770D01*
X0306327Y0197693D01*
X0306227Y0197619D01*
X0306124Y0197548D01*
X0306019Y0197481D01*
X0305911Y0197416D01*
X0305802Y0197356D01*
X0305691Y0197298D01*
X0305578Y0197245D01*
X0305464Y0197195D01*
X0305348Y0197148D01*
X0305231Y0197106D01*
X0305112Y0197067D01*
X0304992Y0197031D01*
X0304871Y0197000D01*
X0304749Y0196972D01*
X0304627Y0196949D01*
X0304503Y0196929D01*
X0304379Y0196913D01*
X0304255Y0196901D01*
X0304130Y0196893D01*
X0304005Y0196889D01*
X0303881Y0196889D01*
X0303756Y0196893D01*
X0303631Y0196901D01*
X0303507Y0196913D01*
X0303383Y0196929D01*
X0303259Y0196949D01*
X0303137Y0196972D01*
X0303015Y0197000D01*
X0302894Y0197031D01*
X0302774Y0197067D01*
X0302655Y0197106D01*
X0302538Y0197148D01*
X0302422Y0197195D01*
X0302308Y0197245D01*
X0302195Y0197298D01*
X0302084Y0197356D01*
X0301974Y0197416D01*
X0301867Y0197481D01*
X0301762Y0197548D01*
X0301659Y0197619D01*
X0301559Y0197693D01*
X0301461Y0197770D01*
X0301365Y0197851D01*
X0301272Y0197934D01*
X0301181Y0198020D01*
X0301094Y0198109D01*
X0301009Y0198201D01*
X0300927Y0198295D01*
X0300848Y0198392D01*
X0300773Y0198492D01*
X0300700Y0198593D01*
X0300631Y0198697D01*
X0300565Y0198804D01*
X0300503Y0198912D01*
X0300444Y0199022D01*
X0300388Y0199134D01*
X0300336Y0199248D01*
X0300288Y0199363D01*
X0300243Y0199479D01*
X0300203Y0199598D01*
X0300165Y0199717D01*
X0300132Y0199837D01*
X0300103Y0199959D01*
X0300077Y0200081D01*
X0300055Y0200204D01*
X0300038Y0200328D01*
X0300024Y0200452D01*
X0300014Y0200576D01*
X0300008Y0200701D01*
X0300006Y0200826D01*
X0231421Y0241803D02*
X0231423Y0241918D01*
X0231429Y0242034D01*
X0231439Y0242149D01*
X0231453Y0242264D01*
X0231471Y0242378D01*
X0231493Y0242491D01*
X0231518Y0242604D01*
X0231548Y0242715D01*
X0231581Y0242826D01*
X0231618Y0242935D01*
X0231659Y0243043D01*
X0231704Y0243150D01*
X0231752Y0243255D01*
X0231804Y0243358D01*
X0231860Y0243459D01*
X0231919Y0243559D01*
X0231981Y0243656D01*
X0232047Y0243751D01*
X0232115Y0243844D01*
X0232187Y0243934D01*
X0232262Y0244022D01*
X0232341Y0244107D01*
X0232422Y0244189D01*
X0232505Y0244269D01*
X0232592Y0244345D01*
X0232681Y0244419D01*
X0232772Y0244489D01*
X0232866Y0244557D01*
X0232962Y0244621D01*
X0233061Y0244681D01*
X0233161Y0244738D01*
X0233263Y0244792D01*
X0233367Y0244842D01*
X0233473Y0244889D01*
X0233580Y0244932D01*
X0233689Y0244971D01*
X0233799Y0245006D01*
X0233910Y0245037D01*
X0234022Y0245065D01*
X0234135Y0245089D01*
X0234249Y0245109D01*
X0234364Y0245125D01*
X0234479Y0245137D01*
X0234594Y0245145D01*
X0234709Y0245149D01*
X0234825Y0245149D01*
X0234940Y0245145D01*
X0235055Y0245137D01*
X0235170Y0245125D01*
X0235285Y0245109D01*
X0235399Y0245089D01*
X0235512Y0245065D01*
X0235624Y0245037D01*
X0235735Y0245006D01*
X0235845Y0244971D01*
X0235954Y0244932D01*
X0236061Y0244889D01*
X0236167Y0244842D01*
X0236271Y0244792D01*
X0236373Y0244738D01*
X0236473Y0244681D01*
X0236572Y0244621D01*
X0236668Y0244557D01*
X0236762Y0244489D01*
X0236853Y0244419D01*
X0236942Y0244345D01*
X0237029Y0244269D01*
X0237112Y0244189D01*
X0237193Y0244107D01*
X0237272Y0244022D01*
X0237347Y0243934D01*
X0237419Y0243844D01*
X0237487Y0243751D01*
X0237553Y0243656D01*
X0237615Y0243559D01*
X0237674Y0243459D01*
X0237730Y0243358D01*
X0237782Y0243255D01*
X0237830Y0243150D01*
X0237875Y0243043D01*
X0237916Y0242935D01*
X0237953Y0242826D01*
X0237986Y0242715D01*
X0238016Y0242604D01*
X0238041Y0242491D01*
X0238063Y0242378D01*
X0238081Y0242264D01*
X0238095Y0242149D01*
X0238105Y0242034D01*
X0238111Y0241918D01*
X0238113Y0241803D01*
X0238111Y0241688D01*
X0238105Y0241572D01*
X0238095Y0241457D01*
X0238081Y0241342D01*
X0238063Y0241228D01*
X0238041Y0241115D01*
X0238016Y0241002D01*
X0237986Y0240891D01*
X0237953Y0240780D01*
X0237916Y0240671D01*
X0237875Y0240563D01*
X0237830Y0240456D01*
X0237782Y0240351D01*
X0237730Y0240248D01*
X0237674Y0240147D01*
X0237615Y0240047D01*
X0237553Y0239950D01*
X0237487Y0239855D01*
X0237419Y0239762D01*
X0237347Y0239672D01*
X0237272Y0239584D01*
X0237193Y0239499D01*
X0237112Y0239417D01*
X0237029Y0239337D01*
X0236942Y0239261D01*
X0236853Y0239187D01*
X0236762Y0239117D01*
X0236668Y0239049D01*
X0236572Y0238985D01*
X0236473Y0238925D01*
X0236373Y0238868D01*
X0236271Y0238814D01*
X0236167Y0238764D01*
X0236061Y0238717D01*
X0235954Y0238674D01*
X0235845Y0238635D01*
X0235735Y0238600D01*
X0235624Y0238569D01*
X0235512Y0238541D01*
X0235399Y0238517D01*
X0235285Y0238497D01*
X0235170Y0238481D01*
X0235055Y0238469D01*
X0234940Y0238461D01*
X0234825Y0238457D01*
X0234709Y0238457D01*
X0234594Y0238461D01*
X0234479Y0238469D01*
X0234364Y0238481D01*
X0234249Y0238497D01*
X0234135Y0238517D01*
X0234022Y0238541D01*
X0233910Y0238569D01*
X0233799Y0238600D01*
X0233689Y0238635D01*
X0233580Y0238674D01*
X0233473Y0238717D01*
X0233367Y0238764D01*
X0233263Y0238814D01*
X0233161Y0238868D01*
X0233061Y0238925D01*
X0232962Y0238985D01*
X0232866Y0239049D01*
X0232772Y0239117D01*
X0232681Y0239187D01*
X0232592Y0239261D01*
X0232505Y0239337D01*
X0232422Y0239417D01*
X0232341Y0239499D01*
X0232262Y0239584D01*
X0232187Y0239672D01*
X0232115Y0239762D01*
X0232047Y0239855D01*
X0231981Y0239950D01*
X0231919Y0240047D01*
X0231860Y0240147D01*
X0231804Y0240248D01*
X0231752Y0240351D01*
X0231704Y0240456D01*
X0231659Y0240563D01*
X0231618Y0240671D01*
X0231581Y0240780D01*
X0231548Y0240891D01*
X0231518Y0241002D01*
X0231493Y0241115D01*
X0231471Y0241228D01*
X0231453Y0241342D01*
X0231439Y0241457D01*
X0231429Y0241572D01*
X0231423Y0241688D01*
X0231421Y0241803D01*
X0018495Y0250111D02*
X0018497Y0250280D01*
X0018503Y0250449D01*
X0018514Y0250618D01*
X0018528Y0250786D01*
X0018547Y0250954D01*
X0018570Y0251122D01*
X0018596Y0251289D01*
X0018627Y0251455D01*
X0018662Y0251621D01*
X0018701Y0251785D01*
X0018745Y0251949D01*
X0018792Y0252111D01*
X0018843Y0252272D01*
X0018898Y0252432D01*
X0018957Y0252591D01*
X0019019Y0252748D01*
X0019086Y0252903D01*
X0019157Y0253057D01*
X0019231Y0253209D01*
X0019309Y0253359D01*
X0019390Y0253507D01*
X0019475Y0253653D01*
X0019564Y0253797D01*
X0019656Y0253939D01*
X0019752Y0254078D01*
X0019851Y0254215D01*
X0019953Y0254350D01*
X0020059Y0254482D01*
X0020168Y0254611D01*
X0020280Y0254738D01*
X0020395Y0254862D01*
X0020513Y0254983D01*
X0020634Y0255101D01*
X0020758Y0255216D01*
X0020885Y0255328D01*
X0021014Y0255437D01*
X0021146Y0255543D01*
X0021281Y0255645D01*
X0021418Y0255744D01*
X0021557Y0255840D01*
X0021699Y0255932D01*
X0021843Y0256021D01*
X0021989Y0256106D01*
X0022137Y0256187D01*
X0022287Y0256265D01*
X0022439Y0256339D01*
X0022593Y0256410D01*
X0022748Y0256477D01*
X0022905Y0256539D01*
X0023064Y0256598D01*
X0023224Y0256653D01*
X0023385Y0256704D01*
X0023547Y0256751D01*
X0023711Y0256795D01*
X0023875Y0256834D01*
X0024041Y0256869D01*
X0024207Y0256900D01*
X0024374Y0256926D01*
X0024542Y0256949D01*
X0024710Y0256968D01*
X0024878Y0256982D01*
X0025047Y0256993D01*
X0025216Y0256999D01*
X0025385Y0257001D01*
X0025554Y0256999D01*
X0025723Y0256993D01*
X0025892Y0256982D01*
X0026060Y0256968D01*
X0026228Y0256949D01*
X0026396Y0256926D01*
X0026563Y0256900D01*
X0026729Y0256869D01*
X0026895Y0256834D01*
X0027059Y0256795D01*
X0027223Y0256751D01*
X0027385Y0256704D01*
X0027546Y0256653D01*
X0027706Y0256598D01*
X0027865Y0256539D01*
X0028022Y0256477D01*
X0028177Y0256410D01*
X0028331Y0256339D01*
X0028483Y0256265D01*
X0028633Y0256187D01*
X0028781Y0256106D01*
X0028927Y0256021D01*
X0029071Y0255932D01*
X0029213Y0255840D01*
X0029352Y0255744D01*
X0029489Y0255645D01*
X0029624Y0255543D01*
X0029756Y0255437D01*
X0029885Y0255328D01*
X0030012Y0255216D01*
X0030136Y0255101D01*
X0030257Y0254983D01*
X0030375Y0254862D01*
X0030490Y0254738D01*
X0030602Y0254611D01*
X0030711Y0254482D01*
X0030817Y0254350D01*
X0030919Y0254215D01*
X0031018Y0254078D01*
X0031114Y0253939D01*
X0031206Y0253797D01*
X0031295Y0253653D01*
X0031380Y0253507D01*
X0031461Y0253359D01*
X0031539Y0253209D01*
X0031613Y0253057D01*
X0031684Y0252903D01*
X0031751Y0252748D01*
X0031813Y0252591D01*
X0031872Y0252432D01*
X0031927Y0252272D01*
X0031978Y0252111D01*
X0032025Y0251949D01*
X0032069Y0251785D01*
X0032108Y0251621D01*
X0032143Y0251455D01*
X0032174Y0251289D01*
X0032200Y0251122D01*
X0032223Y0250954D01*
X0032242Y0250786D01*
X0032256Y0250618D01*
X0032267Y0250449D01*
X0032273Y0250280D01*
X0032275Y0250111D01*
X0032273Y0249942D01*
X0032267Y0249773D01*
X0032256Y0249604D01*
X0032242Y0249436D01*
X0032223Y0249268D01*
X0032200Y0249100D01*
X0032174Y0248933D01*
X0032143Y0248767D01*
X0032108Y0248601D01*
X0032069Y0248437D01*
X0032025Y0248273D01*
X0031978Y0248111D01*
X0031927Y0247950D01*
X0031872Y0247790D01*
X0031813Y0247631D01*
X0031751Y0247474D01*
X0031684Y0247319D01*
X0031613Y0247165D01*
X0031539Y0247013D01*
X0031461Y0246863D01*
X0031380Y0246715D01*
X0031295Y0246569D01*
X0031206Y0246425D01*
X0031114Y0246283D01*
X0031018Y0246144D01*
X0030919Y0246007D01*
X0030817Y0245872D01*
X0030711Y0245740D01*
X0030602Y0245611D01*
X0030490Y0245484D01*
X0030375Y0245360D01*
X0030257Y0245239D01*
X0030136Y0245121D01*
X0030012Y0245006D01*
X0029885Y0244894D01*
X0029756Y0244785D01*
X0029624Y0244679D01*
X0029489Y0244577D01*
X0029352Y0244478D01*
X0029213Y0244382D01*
X0029071Y0244290D01*
X0028927Y0244201D01*
X0028781Y0244116D01*
X0028633Y0244035D01*
X0028483Y0243957D01*
X0028331Y0243883D01*
X0028177Y0243812D01*
X0028022Y0243745D01*
X0027865Y0243683D01*
X0027706Y0243624D01*
X0027546Y0243569D01*
X0027385Y0243518D01*
X0027223Y0243471D01*
X0027059Y0243427D01*
X0026895Y0243388D01*
X0026729Y0243353D01*
X0026563Y0243322D01*
X0026396Y0243296D01*
X0026228Y0243273D01*
X0026060Y0243254D01*
X0025892Y0243240D01*
X0025723Y0243229D01*
X0025554Y0243223D01*
X0025385Y0243221D01*
X0025216Y0243223D01*
X0025047Y0243229D01*
X0024878Y0243240D01*
X0024710Y0243254D01*
X0024542Y0243273D01*
X0024374Y0243296D01*
X0024207Y0243322D01*
X0024041Y0243353D01*
X0023875Y0243388D01*
X0023711Y0243427D01*
X0023547Y0243471D01*
X0023385Y0243518D01*
X0023224Y0243569D01*
X0023064Y0243624D01*
X0022905Y0243683D01*
X0022748Y0243745D01*
X0022593Y0243812D01*
X0022439Y0243883D01*
X0022287Y0243957D01*
X0022137Y0244035D01*
X0021989Y0244116D01*
X0021843Y0244201D01*
X0021699Y0244290D01*
X0021557Y0244382D01*
X0021418Y0244478D01*
X0021281Y0244577D01*
X0021146Y0244679D01*
X0021014Y0244785D01*
X0020885Y0244894D01*
X0020758Y0245006D01*
X0020634Y0245121D01*
X0020513Y0245239D01*
X0020395Y0245360D01*
X0020280Y0245484D01*
X0020168Y0245611D01*
X0020059Y0245740D01*
X0019953Y0245872D01*
X0019851Y0246007D01*
X0019752Y0246144D01*
X0019656Y0246283D01*
X0019564Y0246425D01*
X0019475Y0246569D01*
X0019390Y0246715D01*
X0019309Y0246863D01*
X0019231Y0247013D01*
X0019157Y0247165D01*
X0019086Y0247319D01*
X0019019Y0247474D01*
X0018957Y0247631D01*
X0018898Y0247790D01*
X0018843Y0247950D01*
X0018792Y0248111D01*
X0018745Y0248273D01*
X0018701Y0248437D01*
X0018662Y0248601D01*
X0018627Y0248767D01*
X0018596Y0248933D01*
X0018570Y0249100D01*
X0018547Y0249268D01*
X0018528Y0249436D01*
X0018514Y0249604D01*
X0018503Y0249773D01*
X0018497Y0249942D01*
X0018495Y0250111D01*
D11*
X0025385Y0250111D03*
X0025385Y0033575D03*
X0773417Y0033575D03*
X0773417Y0250111D03*
D12*
X0677321Y0092441D03*
X0667321Y0092441D03*
X0657321Y0092441D03*
X0647321Y0092441D03*
X0652282Y0082441D03*
X0662282Y0082441D03*
X0672282Y0082441D03*
X0682282Y0082441D03*
D13*
X0680884Y0038150D03*
X0690884Y0038150D03*
X0648719Y0038150D03*
X0638719Y0038150D03*
D14*
X0642302Y0057441D03*
X0687302Y0057441D03*
D15*
X0695294Y0069449D03*
X0634309Y0069449D03*
X0568035Y0041882D03*
X0234767Y0041882D03*
X0234767Y0241803D03*
X0568035Y0241803D03*
D16*
X0303943Y0200826D03*
X0385045Y0087873D03*
D17*
X0171085Y0040731D03*
X0151400Y0040731D03*
X0131715Y0040731D03*
D18*
X0228310Y0061843D03*
X0228310Y0071843D03*
X0238310Y0071843D03*
X0238310Y0081843D03*
X0228310Y0081843D03*
X0228310Y0091843D03*
X0238310Y0091843D03*
X0238310Y0101843D03*
X0228310Y0101843D03*
X0228310Y0111843D03*
X0238310Y0111843D03*
X0238310Y0121843D03*
X0228310Y0121843D03*
X0228310Y0131843D03*
X0238310Y0131843D03*
X0238310Y0141843D03*
X0228310Y0141843D03*
X0228310Y0151843D03*
X0238310Y0151843D03*
X0238310Y0161843D03*
X0228310Y0161843D03*
X0228310Y0171843D03*
X0238310Y0171843D03*
X0238310Y0181843D03*
X0228310Y0181843D03*
X0228310Y0191843D03*
X0238310Y0191843D03*
X0238310Y0201843D03*
X0228310Y0201843D03*
X0228310Y0211843D03*
X0238310Y0211843D03*
X0238310Y0221843D03*
X0228310Y0221843D03*
D19*
X0238310Y0061843D03*
D20*
X0773600Y0056324D03*
X0773600Y0108056D03*
D21*
X0785411Y0095970D03*
X0785411Y0086127D03*
X0785411Y0078253D03*
X0785411Y0068411D03*
M02*
