G75*
%MOIN*%
%OFA0B0*%
%FSLAX25Y25*%
%IPPOS*%
%LPD*%
%AMOC8*
5,1,8,0,0,1.08239X$1,22.5*
%
%ADD10C,0.00000*%
%ADD11C,0.00400*%
%ADD12C,0.00200*%
%ADD13C,0.00500*%
%ADD14C,0.00300*%
%ADD15R,0.00950X0.00050*%
%ADD16R,0.01050X0.00050*%
%ADD17R,0.02000X0.00050*%
%ADD18R,0.01900X0.00050*%
%ADD19R,0.02550X0.00050*%
%ADD20R,0.02500X0.00050*%
%ADD21R,0.02950X0.00050*%
%ADD22R,0.02900X0.00050*%
%ADD23R,0.03100X0.00050*%
%ADD24R,0.03300X0.00050*%
%ADD25R,0.03250X0.00050*%
%ADD26R,0.03200X0.00050*%
%ADD27R,0.03600X0.00050*%
%ADD28R,0.03500X0.00050*%
%ADD29R,0.03850X0.00050*%
%ADD30R,0.03750X0.00050*%
%ADD31R,0.04050X0.00050*%
%ADD32R,0.03950X0.00050*%
%ADD33R,0.04200X0.00050*%
%ADD34R,0.04400X0.00050*%
%ADD35R,0.04350X0.00050*%
%ADD36R,0.04550X0.00050*%
%ADD37R,0.04700X0.00050*%
%ADD38R,0.04850X0.00050*%
%ADD39R,0.05000X0.00050*%
%ADD40R,0.04950X0.00050*%
%ADD41R,0.03150X0.00050*%
%ADD42R,0.05100X0.00050*%
%ADD43R,0.05200X0.00050*%
%ADD44R,0.05300X0.00050*%
%ADD45R,0.05400X0.00050*%
%ADD46R,0.05450X0.00050*%
%ADD47R,0.05550X0.00050*%
%ADD48R,0.05600X0.00050*%
%ADD49R,0.05700X0.00050*%
%ADD50R,0.05750X0.00050*%
%ADD51R,0.05850X0.00050*%
%ADD52R,0.05900X0.00050*%
%ADD53R,0.03050X0.00050*%
%ADD54R,0.06000X0.00050*%
%ADD55R,0.06050X0.00050*%
%ADD56R,0.06100X0.00050*%
%ADD57R,0.06150X0.00050*%
%ADD58R,0.06200X0.00050*%
%ADD59R,0.06250X0.00050*%
%ADD60R,0.06300X0.00050*%
%ADD61R,0.06350X0.00050*%
%ADD62R,0.06400X0.00050*%
%ADD63R,0.06450X0.00050*%
%ADD64R,0.06500X0.00050*%
%ADD65R,0.06550X0.00050*%
%ADD66R,0.06650X0.00050*%
%ADD67R,0.06600X0.00050*%
%ADD68R,0.06700X0.00050*%
%ADD69R,0.02850X0.00050*%
%ADD70R,0.06750X0.00050*%
%ADD71R,0.02800X0.00050*%
%ADD72R,0.06800X0.00050*%
%ADD73R,0.02750X0.00050*%
%ADD74R,0.02700X0.00050*%
%ADD75R,0.03000X0.00050*%
%ADD76R,0.02650X0.00050*%
%ADD77R,0.03350X0.00050*%
%ADD78R,0.07350X0.00050*%
%ADD79R,0.05950X0.00050*%
%ADD80R,0.05800X0.00050*%
%ADD81R,0.05250X0.00050*%
%ADD82R,0.05500X0.00050*%
%ADD83R,0.07300X0.00050*%
%ADD84R,0.06900X0.00050*%
%ADD85R,0.05350X0.00050*%
%ADD86R,0.06950X0.00050*%
%ADD87R,0.07000X0.00050*%
%ADD88R,0.07050X0.00050*%
%ADD89R,0.07150X0.00050*%
%ADD90R,0.07250X0.00050*%
%ADD91R,0.07200X0.00050*%
%ADD92R,0.05650X0.00050*%
%ADD93R,0.07400X0.00050*%
%ADD94R,0.07450X0.00050*%
%ADD95R,0.07500X0.00050*%
%ADD96R,0.07550X0.00050*%
%ADD97R,0.03450X0.00050*%
%ADD98R,0.07600X0.00050*%
%ADD99R,0.07650X0.00050*%
%ADD100R,0.07700X0.00050*%
%ADD101R,0.04150X0.00050*%
%ADD102R,0.02600X0.00050*%
%ADD103R,0.07750X0.00050*%
%ADD104R,0.00200X0.00050*%
%ADD105R,0.07800X0.00050*%
%ADD106R,0.07850X0.00050*%
%ADD107R,0.07900X0.00050*%
%ADD108R,0.07950X0.00050*%
%ADD109R,0.03650X0.00050*%
%ADD110R,0.03400X0.00050*%
%ADD111R,0.02450X0.00050*%
%ADD112R,0.02400X0.00050*%
%ADD113R,0.02350X0.00050*%
%ADD114R,0.02300X0.00050*%
%ADD115R,0.02250X0.00050*%
%ADD116R,0.02200X0.00050*%
%ADD117R,0.02150X0.00050*%
%ADD118R,0.01100X0.00050*%
%ADD119R,0.00800X0.00050*%
%ADD120R,0.02100X0.00050*%
%ADD121R,0.00850X0.00050*%
%ADD122R,0.01000X0.00050*%
%ADD123R,0.05050X0.00050*%
%ADD124R,0.00900X0.00050*%
%ADD125R,0.01950X0.00050*%
%ADD126R,0.04900X0.00050*%
%ADD127R,0.04800X0.00050*%
%ADD128R,0.04650X0.00050*%
%ADD129R,0.01800X0.00050*%
%ADD130R,0.04450X0.00050*%
%ADD131R,0.01750X0.00050*%
%ADD132R,0.01700X0.00050*%
%ADD133R,0.01650X0.00050*%
%ADD134R,0.01550X0.00050*%
%ADD135R,0.04500X0.00050*%
%ADD136R,0.01500X0.00050*%
%ADD137R,0.01400X0.00050*%
%ADD138R,0.01300X0.00050*%
%ADD139R,0.01150X0.00050*%
%ADD140R,0.03700X0.00050*%
%ADD141R,0.00700X0.00050*%
%ADD142R,0.01200X0.00050*%
%ADD143R,0.01250X0.00050*%
%ADD144R,0.01350X0.00050*%
%ADD145R,0.01450X0.00050*%
%ADD146R,0.00750X0.00050*%
%ADD147R,0.07100X0.00050*%
%ADD148R,0.06850X0.00050*%
%ADD149R,0.01600X0.00050*%
%ADD150R,0.05150X0.00050*%
D10*
X0005700Y0013890D02*
X0005700Y0269796D01*
X0793102Y0269796D01*
X0793102Y0013890D01*
X0005700Y0013890D01*
X0018495Y0033575D02*
X0018497Y0033744D01*
X0018503Y0033913D01*
X0018514Y0034082D01*
X0018528Y0034250D01*
X0018547Y0034418D01*
X0018570Y0034586D01*
X0018596Y0034753D01*
X0018627Y0034919D01*
X0018662Y0035085D01*
X0018701Y0035249D01*
X0018745Y0035413D01*
X0018792Y0035575D01*
X0018843Y0035736D01*
X0018898Y0035896D01*
X0018957Y0036055D01*
X0019019Y0036212D01*
X0019086Y0036367D01*
X0019157Y0036521D01*
X0019231Y0036673D01*
X0019309Y0036823D01*
X0019390Y0036971D01*
X0019475Y0037117D01*
X0019564Y0037261D01*
X0019656Y0037403D01*
X0019752Y0037542D01*
X0019851Y0037679D01*
X0019953Y0037814D01*
X0020059Y0037946D01*
X0020168Y0038075D01*
X0020280Y0038202D01*
X0020395Y0038326D01*
X0020513Y0038447D01*
X0020634Y0038565D01*
X0020758Y0038680D01*
X0020885Y0038792D01*
X0021014Y0038901D01*
X0021146Y0039007D01*
X0021281Y0039109D01*
X0021418Y0039208D01*
X0021557Y0039304D01*
X0021699Y0039396D01*
X0021843Y0039485D01*
X0021989Y0039570D01*
X0022137Y0039651D01*
X0022287Y0039729D01*
X0022439Y0039803D01*
X0022593Y0039874D01*
X0022748Y0039941D01*
X0022905Y0040003D01*
X0023064Y0040062D01*
X0023224Y0040117D01*
X0023385Y0040168D01*
X0023547Y0040215D01*
X0023711Y0040259D01*
X0023875Y0040298D01*
X0024041Y0040333D01*
X0024207Y0040364D01*
X0024374Y0040390D01*
X0024542Y0040413D01*
X0024710Y0040432D01*
X0024878Y0040446D01*
X0025047Y0040457D01*
X0025216Y0040463D01*
X0025385Y0040465D01*
X0025554Y0040463D01*
X0025723Y0040457D01*
X0025892Y0040446D01*
X0026060Y0040432D01*
X0026228Y0040413D01*
X0026396Y0040390D01*
X0026563Y0040364D01*
X0026729Y0040333D01*
X0026895Y0040298D01*
X0027059Y0040259D01*
X0027223Y0040215D01*
X0027385Y0040168D01*
X0027546Y0040117D01*
X0027706Y0040062D01*
X0027865Y0040003D01*
X0028022Y0039941D01*
X0028177Y0039874D01*
X0028331Y0039803D01*
X0028483Y0039729D01*
X0028633Y0039651D01*
X0028781Y0039570D01*
X0028927Y0039485D01*
X0029071Y0039396D01*
X0029213Y0039304D01*
X0029352Y0039208D01*
X0029489Y0039109D01*
X0029624Y0039007D01*
X0029756Y0038901D01*
X0029885Y0038792D01*
X0030012Y0038680D01*
X0030136Y0038565D01*
X0030257Y0038447D01*
X0030375Y0038326D01*
X0030490Y0038202D01*
X0030602Y0038075D01*
X0030711Y0037946D01*
X0030817Y0037814D01*
X0030919Y0037679D01*
X0031018Y0037542D01*
X0031114Y0037403D01*
X0031206Y0037261D01*
X0031295Y0037117D01*
X0031380Y0036971D01*
X0031461Y0036823D01*
X0031539Y0036673D01*
X0031613Y0036521D01*
X0031684Y0036367D01*
X0031751Y0036212D01*
X0031813Y0036055D01*
X0031872Y0035896D01*
X0031927Y0035736D01*
X0031978Y0035575D01*
X0032025Y0035413D01*
X0032069Y0035249D01*
X0032108Y0035085D01*
X0032143Y0034919D01*
X0032174Y0034753D01*
X0032200Y0034586D01*
X0032223Y0034418D01*
X0032242Y0034250D01*
X0032256Y0034082D01*
X0032267Y0033913D01*
X0032273Y0033744D01*
X0032275Y0033575D01*
X0032273Y0033406D01*
X0032267Y0033237D01*
X0032256Y0033068D01*
X0032242Y0032900D01*
X0032223Y0032732D01*
X0032200Y0032564D01*
X0032174Y0032397D01*
X0032143Y0032231D01*
X0032108Y0032065D01*
X0032069Y0031901D01*
X0032025Y0031737D01*
X0031978Y0031575D01*
X0031927Y0031414D01*
X0031872Y0031254D01*
X0031813Y0031095D01*
X0031751Y0030938D01*
X0031684Y0030783D01*
X0031613Y0030629D01*
X0031539Y0030477D01*
X0031461Y0030327D01*
X0031380Y0030179D01*
X0031295Y0030033D01*
X0031206Y0029889D01*
X0031114Y0029747D01*
X0031018Y0029608D01*
X0030919Y0029471D01*
X0030817Y0029336D01*
X0030711Y0029204D01*
X0030602Y0029075D01*
X0030490Y0028948D01*
X0030375Y0028824D01*
X0030257Y0028703D01*
X0030136Y0028585D01*
X0030012Y0028470D01*
X0029885Y0028358D01*
X0029756Y0028249D01*
X0029624Y0028143D01*
X0029489Y0028041D01*
X0029352Y0027942D01*
X0029213Y0027846D01*
X0029071Y0027754D01*
X0028927Y0027665D01*
X0028781Y0027580D01*
X0028633Y0027499D01*
X0028483Y0027421D01*
X0028331Y0027347D01*
X0028177Y0027276D01*
X0028022Y0027209D01*
X0027865Y0027147D01*
X0027706Y0027088D01*
X0027546Y0027033D01*
X0027385Y0026982D01*
X0027223Y0026935D01*
X0027059Y0026891D01*
X0026895Y0026852D01*
X0026729Y0026817D01*
X0026563Y0026786D01*
X0026396Y0026760D01*
X0026228Y0026737D01*
X0026060Y0026718D01*
X0025892Y0026704D01*
X0025723Y0026693D01*
X0025554Y0026687D01*
X0025385Y0026685D01*
X0025216Y0026687D01*
X0025047Y0026693D01*
X0024878Y0026704D01*
X0024710Y0026718D01*
X0024542Y0026737D01*
X0024374Y0026760D01*
X0024207Y0026786D01*
X0024041Y0026817D01*
X0023875Y0026852D01*
X0023711Y0026891D01*
X0023547Y0026935D01*
X0023385Y0026982D01*
X0023224Y0027033D01*
X0023064Y0027088D01*
X0022905Y0027147D01*
X0022748Y0027209D01*
X0022593Y0027276D01*
X0022439Y0027347D01*
X0022287Y0027421D01*
X0022137Y0027499D01*
X0021989Y0027580D01*
X0021843Y0027665D01*
X0021699Y0027754D01*
X0021557Y0027846D01*
X0021418Y0027942D01*
X0021281Y0028041D01*
X0021146Y0028143D01*
X0021014Y0028249D01*
X0020885Y0028358D01*
X0020758Y0028470D01*
X0020634Y0028585D01*
X0020513Y0028703D01*
X0020395Y0028824D01*
X0020280Y0028948D01*
X0020168Y0029075D01*
X0020059Y0029204D01*
X0019953Y0029336D01*
X0019851Y0029471D01*
X0019752Y0029608D01*
X0019656Y0029747D01*
X0019564Y0029889D01*
X0019475Y0030033D01*
X0019390Y0030179D01*
X0019309Y0030327D01*
X0019231Y0030477D01*
X0019157Y0030629D01*
X0019086Y0030783D01*
X0019019Y0030938D01*
X0018957Y0031095D01*
X0018898Y0031254D01*
X0018843Y0031414D01*
X0018792Y0031575D01*
X0018745Y0031737D01*
X0018701Y0031901D01*
X0018662Y0032065D01*
X0018627Y0032231D01*
X0018596Y0032397D01*
X0018570Y0032564D01*
X0018547Y0032732D01*
X0018528Y0032900D01*
X0018514Y0033068D01*
X0018503Y0033237D01*
X0018497Y0033406D01*
X0018495Y0033575D01*
X0231421Y0041882D02*
X0231423Y0041997D01*
X0231429Y0042113D01*
X0231439Y0042228D01*
X0231453Y0042343D01*
X0231471Y0042457D01*
X0231493Y0042570D01*
X0231518Y0042683D01*
X0231548Y0042794D01*
X0231581Y0042905D01*
X0231618Y0043014D01*
X0231659Y0043122D01*
X0231704Y0043229D01*
X0231752Y0043334D01*
X0231804Y0043437D01*
X0231860Y0043538D01*
X0231919Y0043638D01*
X0231981Y0043735D01*
X0232047Y0043830D01*
X0232115Y0043923D01*
X0232187Y0044013D01*
X0232262Y0044101D01*
X0232341Y0044186D01*
X0232422Y0044268D01*
X0232505Y0044348D01*
X0232592Y0044424D01*
X0232681Y0044498D01*
X0232772Y0044568D01*
X0232866Y0044636D01*
X0232962Y0044700D01*
X0233061Y0044760D01*
X0233161Y0044817D01*
X0233263Y0044871D01*
X0233367Y0044921D01*
X0233473Y0044968D01*
X0233580Y0045011D01*
X0233689Y0045050D01*
X0233799Y0045085D01*
X0233910Y0045116D01*
X0234022Y0045144D01*
X0234135Y0045168D01*
X0234249Y0045188D01*
X0234364Y0045204D01*
X0234479Y0045216D01*
X0234594Y0045224D01*
X0234709Y0045228D01*
X0234825Y0045228D01*
X0234940Y0045224D01*
X0235055Y0045216D01*
X0235170Y0045204D01*
X0235285Y0045188D01*
X0235399Y0045168D01*
X0235512Y0045144D01*
X0235624Y0045116D01*
X0235735Y0045085D01*
X0235845Y0045050D01*
X0235954Y0045011D01*
X0236061Y0044968D01*
X0236167Y0044921D01*
X0236271Y0044871D01*
X0236373Y0044817D01*
X0236473Y0044760D01*
X0236572Y0044700D01*
X0236668Y0044636D01*
X0236762Y0044568D01*
X0236853Y0044498D01*
X0236942Y0044424D01*
X0237029Y0044348D01*
X0237112Y0044268D01*
X0237193Y0044186D01*
X0237272Y0044101D01*
X0237347Y0044013D01*
X0237419Y0043923D01*
X0237487Y0043830D01*
X0237553Y0043735D01*
X0237615Y0043638D01*
X0237674Y0043538D01*
X0237730Y0043437D01*
X0237782Y0043334D01*
X0237830Y0043229D01*
X0237875Y0043122D01*
X0237916Y0043014D01*
X0237953Y0042905D01*
X0237986Y0042794D01*
X0238016Y0042683D01*
X0238041Y0042570D01*
X0238063Y0042457D01*
X0238081Y0042343D01*
X0238095Y0042228D01*
X0238105Y0042113D01*
X0238111Y0041997D01*
X0238113Y0041882D01*
X0238111Y0041767D01*
X0238105Y0041651D01*
X0238095Y0041536D01*
X0238081Y0041421D01*
X0238063Y0041307D01*
X0238041Y0041194D01*
X0238016Y0041081D01*
X0237986Y0040970D01*
X0237953Y0040859D01*
X0237916Y0040750D01*
X0237875Y0040642D01*
X0237830Y0040535D01*
X0237782Y0040430D01*
X0237730Y0040327D01*
X0237674Y0040226D01*
X0237615Y0040126D01*
X0237553Y0040029D01*
X0237487Y0039934D01*
X0237419Y0039841D01*
X0237347Y0039751D01*
X0237272Y0039663D01*
X0237193Y0039578D01*
X0237112Y0039496D01*
X0237029Y0039416D01*
X0236942Y0039340D01*
X0236853Y0039266D01*
X0236762Y0039196D01*
X0236668Y0039128D01*
X0236572Y0039064D01*
X0236473Y0039004D01*
X0236373Y0038947D01*
X0236271Y0038893D01*
X0236167Y0038843D01*
X0236061Y0038796D01*
X0235954Y0038753D01*
X0235845Y0038714D01*
X0235735Y0038679D01*
X0235624Y0038648D01*
X0235512Y0038620D01*
X0235399Y0038596D01*
X0235285Y0038576D01*
X0235170Y0038560D01*
X0235055Y0038548D01*
X0234940Y0038540D01*
X0234825Y0038536D01*
X0234709Y0038536D01*
X0234594Y0038540D01*
X0234479Y0038548D01*
X0234364Y0038560D01*
X0234249Y0038576D01*
X0234135Y0038596D01*
X0234022Y0038620D01*
X0233910Y0038648D01*
X0233799Y0038679D01*
X0233689Y0038714D01*
X0233580Y0038753D01*
X0233473Y0038796D01*
X0233367Y0038843D01*
X0233263Y0038893D01*
X0233161Y0038947D01*
X0233061Y0039004D01*
X0232962Y0039064D01*
X0232866Y0039128D01*
X0232772Y0039196D01*
X0232681Y0039266D01*
X0232592Y0039340D01*
X0232505Y0039416D01*
X0232422Y0039496D01*
X0232341Y0039578D01*
X0232262Y0039663D01*
X0232187Y0039751D01*
X0232115Y0039841D01*
X0232047Y0039934D01*
X0231981Y0040029D01*
X0231919Y0040126D01*
X0231860Y0040226D01*
X0231804Y0040327D01*
X0231752Y0040430D01*
X0231704Y0040535D01*
X0231659Y0040642D01*
X0231618Y0040750D01*
X0231581Y0040859D01*
X0231548Y0040970D01*
X0231518Y0041081D01*
X0231493Y0041194D01*
X0231471Y0041307D01*
X0231453Y0041421D01*
X0231439Y0041536D01*
X0231429Y0041651D01*
X0231423Y0041767D01*
X0231421Y0041882D01*
X0381108Y0087873D02*
X0381110Y0087998D01*
X0381116Y0088123D01*
X0381126Y0088247D01*
X0381140Y0088371D01*
X0381157Y0088495D01*
X0381179Y0088618D01*
X0381205Y0088740D01*
X0381234Y0088862D01*
X0381267Y0088982D01*
X0381305Y0089101D01*
X0381345Y0089220D01*
X0381390Y0089336D01*
X0381438Y0089451D01*
X0381490Y0089565D01*
X0381546Y0089677D01*
X0381605Y0089787D01*
X0381667Y0089895D01*
X0381733Y0090002D01*
X0381802Y0090106D01*
X0381875Y0090207D01*
X0381950Y0090307D01*
X0382029Y0090404D01*
X0382111Y0090498D01*
X0382196Y0090590D01*
X0382283Y0090679D01*
X0382374Y0090765D01*
X0382467Y0090848D01*
X0382563Y0090929D01*
X0382661Y0091006D01*
X0382761Y0091080D01*
X0382864Y0091151D01*
X0382969Y0091218D01*
X0383077Y0091283D01*
X0383186Y0091343D01*
X0383297Y0091401D01*
X0383410Y0091454D01*
X0383524Y0091504D01*
X0383640Y0091551D01*
X0383757Y0091593D01*
X0383876Y0091632D01*
X0383996Y0091668D01*
X0384117Y0091699D01*
X0384239Y0091727D01*
X0384361Y0091750D01*
X0384485Y0091770D01*
X0384609Y0091786D01*
X0384733Y0091798D01*
X0384858Y0091806D01*
X0384983Y0091810D01*
X0385107Y0091810D01*
X0385232Y0091806D01*
X0385357Y0091798D01*
X0385481Y0091786D01*
X0385605Y0091770D01*
X0385729Y0091750D01*
X0385851Y0091727D01*
X0385973Y0091699D01*
X0386094Y0091668D01*
X0386214Y0091632D01*
X0386333Y0091593D01*
X0386450Y0091551D01*
X0386566Y0091504D01*
X0386680Y0091454D01*
X0386793Y0091401D01*
X0386904Y0091343D01*
X0387014Y0091283D01*
X0387121Y0091218D01*
X0387226Y0091151D01*
X0387329Y0091080D01*
X0387429Y0091006D01*
X0387527Y0090929D01*
X0387623Y0090848D01*
X0387716Y0090765D01*
X0387807Y0090679D01*
X0387894Y0090590D01*
X0387979Y0090498D01*
X0388061Y0090404D01*
X0388140Y0090307D01*
X0388215Y0090207D01*
X0388288Y0090106D01*
X0388357Y0090002D01*
X0388423Y0089895D01*
X0388485Y0089787D01*
X0388544Y0089677D01*
X0388600Y0089565D01*
X0388652Y0089451D01*
X0388700Y0089336D01*
X0388745Y0089220D01*
X0388785Y0089101D01*
X0388823Y0088982D01*
X0388856Y0088862D01*
X0388885Y0088740D01*
X0388911Y0088618D01*
X0388933Y0088495D01*
X0388950Y0088371D01*
X0388964Y0088247D01*
X0388974Y0088123D01*
X0388980Y0087998D01*
X0388982Y0087873D01*
X0388980Y0087748D01*
X0388974Y0087623D01*
X0388964Y0087499D01*
X0388950Y0087375D01*
X0388933Y0087251D01*
X0388911Y0087128D01*
X0388885Y0087006D01*
X0388856Y0086884D01*
X0388823Y0086764D01*
X0388785Y0086645D01*
X0388745Y0086526D01*
X0388700Y0086410D01*
X0388652Y0086295D01*
X0388600Y0086181D01*
X0388544Y0086069D01*
X0388485Y0085959D01*
X0388423Y0085851D01*
X0388357Y0085744D01*
X0388288Y0085640D01*
X0388215Y0085539D01*
X0388140Y0085439D01*
X0388061Y0085342D01*
X0387979Y0085248D01*
X0387894Y0085156D01*
X0387807Y0085067D01*
X0387716Y0084981D01*
X0387623Y0084898D01*
X0387527Y0084817D01*
X0387429Y0084740D01*
X0387329Y0084666D01*
X0387226Y0084595D01*
X0387121Y0084528D01*
X0387013Y0084463D01*
X0386904Y0084403D01*
X0386793Y0084345D01*
X0386680Y0084292D01*
X0386566Y0084242D01*
X0386450Y0084195D01*
X0386333Y0084153D01*
X0386214Y0084114D01*
X0386094Y0084078D01*
X0385973Y0084047D01*
X0385851Y0084019D01*
X0385729Y0083996D01*
X0385605Y0083976D01*
X0385481Y0083960D01*
X0385357Y0083948D01*
X0385232Y0083940D01*
X0385107Y0083936D01*
X0384983Y0083936D01*
X0384858Y0083940D01*
X0384733Y0083948D01*
X0384609Y0083960D01*
X0384485Y0083976D01*
X0384361Y0083996D01*
X0384239Y0084019D01*
X0384117Y0084047D01*
X0383996Y0084078D01*
X0383876Y0084114D01*
X0383757Y0084153D01*
X0383640Y0084195D01*
X0383524Y0084242D01*
X0383410Y0084292D01*
X0383297Y0084345D01*
X0383186Y0084403D01*
X0383076Y0084463D01*
X0382969Y0084528D01*
X0382864Y0084595D01*
X0382761Y0084666D01*
X0382661Y0084740D01*
X0382563Y0084817D01*
X0382467Y0084898D01*
X0382374Y0084981D01*
X0382283Y0085067D01*
X0382196Y0085156D01*
X0382111Y0085248D01*
X0382029Y0085342D01*
X0381950Y0085439D01*
X0381875Y0085539D01*
X0381802Y0085640D01*
X0381733Y0085744D01*
X0381667Y0085851D01*
X0381605Y0085959D01*
X0381546Y0086069D01*
X0381490Y0086181D01*
X0381438Y0086295D01*
X0381390Y0086410D01*
X0381345Y0086526D01*
X0381305Y0086645D01*
X0381267Y0086764D01*
X0381234Y0086884D01*
X0381205Y0087006D01*
X0381179Y0087128D01*
X0381157Y0087251D01*
X0381140Y0087375D01*
X0381126Y0087499D01*
X0381116Y0087623D01*
X0381110Y0087748D01*
X0381108Y0087873D01*
X0564689Y0041882D02*
X0564691Y0041997D01*
X0564697Y0042113D01*
X0564707Y0042228D01*
X0564721Y0042343D01*
X0564739Y0042457D01*
X0564761Y0042570D01*
X0564786Y0042683D01*
X0564816Y0042794D01*
X0564849Y0042905D01*
X0564886Y0043014D01*
X0564927Y0043122D01*
X0564972Y0043229D01*
X0565020Y0043334D01*
X0565072Y0043437D01*
X0565128Y0043538D01*
X0565187Y0043638D01*
X0565249Y0043735D01*
X0565315Y0043830D01*
X0565383Y0043923D01*
X0565455Y0044013D01*
X0565530Y0044101D01*
X0565609Y0044186D01*
X0565690Y0044268D01*
X0565773Y0044348D01*
X0565860Y0044424D01*
X0565949Y0044498D01*
X0566040Y0044568D01*
X0566134Y0044636D01*
X0566230Y0044700D01*
X0566329Y0044760D01*
X0566429Y0044817D01*
X0566531Y0044871D01*
X0566635Y0044921D01*
X0566741Y0044968D01*
X0566848Y0045011D01*
X0566957Y0045050D01*
X0567067Y0045085D01*
X0567178Y0045116D01*
X0567290Y0045144D01*
X0567403Y0045168D01*
X0567517Y0045188D01*
X0567632Y0045204D01*
X0567747Y0045216D01*
X0567862Y0045224D01*
X0567977Y0045228D01*
X0568093Y0045228D01*
X0568208Y0045224D01*
X0568323Y0045216D01*
X0568438Y0045204D01*
X0568553Y0045188D01*
X0568667Y0045168D01*
X0568780Y0045144D01*
X0568892Y0045116D01*
X0569003Y0045085D01*
X0569113Y0045050D01*
X0569222Y0045011D01*
X0569329Y0044968D01*
X0569435Y0044921D01*
X0569539Y0044871D01*
X0569641Y0044817D01*
X0569741Y0044760D01*
X0569840Y0044700D01*
X0569936Y0044636D01*
X0570030Y0044568D01*
X0570121Y0044498D01*
X0570210Y0044424D01*
X0570297Y0044348D01*
X0570380Y0044268D01*
X0570461Y0044186D01*
X0570540Y0044101D01*
X0570615Y0044013D01*
X0570687Y0043923D01*
X0570755Y0043830D01*
X0570821Y0043735D01*
X0570883Y0043638D01*
X0570942Y0043538D01*
X0570998Y0043437D01*
X0571050Y0043334D01*
X0571098Y0043229D01*
X0571143Y0043122D01*
X0571184Y0043014D01*
X0571221Y0042905D01*
X0571254Y0042794D01*
X0571284Y0042683D01*
X0571309Y0042570D01*
X0571331Y0042457D01*
X0571349Y0042343D01*
X0571363Y0042228D01*
X0571373Y0042113D01*
X0571379Y0041997D01*
X0571381Y0041882D01*
X0571379Y0041767D01*
X0571373Y0041651D01*
X0571363Y0041536D01*
X0571349Y0041421D01*
X0571331Y0041307D01*
X0571309Y0041194D01*
X0571284Y0041081D01*
X0571254Y0040970D01*
X0571221Y0040859D01*
X0571184Y0040750D01*
X0571143Y0040642D01*
X0571098Y0040535D01*
X0571050Y0040430D01*
X0570998Y0040327D01*
X0570942Y0040226D01*
X0570883Y0040126D01*
X0570821Y0040029D01*
X0570755Y0039934D01*
X0570687Y0039841D01*
X0570615Y0039751D01*
X0570540Y0039663D01*
X0570461Y0039578D01*
X0570380Y0039496D01*
X0570297Y0039416D01*
X0570210Y0039340D01*
X0570121Y0039266D01*
X0570030Y0039196D01*
X0569936Y0039128D01*
X0569840Y0039064D01*
X0569741Y0039004D01*
X0569641Y0038947D01*
X0569539Y0038893D01*
X0569435Y0038843D01*
X0569329Y0038796D01*
X0569222Y0038753D01*
X0569113Y0038714D01*
X0569003Y0038679D01*
X0568892Y0038648D01*
X0568780Y0038620D01*
X0568667Y0038596D01*
X0568553Y0038576D01*
X0568438Y0038560D01*
X0568323Y0038548D01*
X0568208Y0038540D01*
X0568093Y0038536D01*
X0567977Y0038536D01*
X0567862Y0038540D01*
X0567747Y0038548D01*
X0567632Y0038560D01*
X0567517Y0038576D01*
X0567403Y0038596D01*
X0567290Y0038620D01*
X0567178Y0038648D01*
X0567067Y0038679D01*
X0566957Y0038714D01*
X0566848Y0038753D01*
X0566741Y0038796D01*
X0566635Y0038843D01*
X0566531Y0038893D01*
X0566429Y0038947D01*
X0566329Y0039004D01*
X0566230Y0039064D01*
X0566134Y0039128D01*
X0566040Y0039196D01*
X0565949Y0039266D01*
X0565860Y0039340D01*
X0565773Y0039416D01*
X0565690Y0039496D01*
X0565609Y0039578D01*
X0565530Y0039663D01*
X0565455Y0039751D01*
X0565383Y0039841D01*
X0565315Y0039934D01*
X0565249Y0040029D01*
X0565187Y0040126D01*
X0565128Y0040226D01*
X0565072Y0040327D01*
X0565020Y0040430D01*
X0564972Y0040535D01*
X0564927Y0040642D01*
X0564886Y0040750D01*
X0564849Y0040859D01*
X0564816Y0040970D01*
X0564786Y0041081D01*
X0564761Y0041194D01*
X0564739Y0041307D01*
X0564721Y0041421D01*
X0564707Y0041536D01*
X0564697Y0041651D01*
X0564691Y0041767D01*
X0564689Y0041882D01*
X0630963Y0069449D02*
X0630965Y0069564D01*
X0630971Y0069680D01*
X0630981Y0069795D01*
X0630995Y0069910D01*
X0631013Y0070024D01*
X0631035Y0070137D01*
X0631060Y0070250D01*
X0631090Y0070361D01*
X0631123Y0070472D01*
X0631160Y0070581D01*
X0631201Y0070689D01*
X0631246Y0070796D01*
X0631294Y0070901D01*
X0631346Y0071004D01*
X0631402Y0071105D01*
X0631461Y0071205D01*
X0631523Y0071302D01*
X0631589Y0071397D01*
X0631657Y0071490D01*
X0631729Y0071580D01*
X0631804Y0071668D01*
X0631883Y0071753D01*
X0631964Y0071835D01*
X0632047Y0071915D01*
X0632134Y0071991D01*
X0632223Y0072065D01*
X0632314Y0072135D01*
X0632408Y0072203D01*
X0632504Y0072267D01*
X0632603Y0072327D01*
X0632703Y0072384D01*
X0632805Y0072438D01*
X0632909Y0072488D01*
X0633015Y0072535D01*
X0633122Y0072578D01*
X0633231Y0072617D01*
X0633341Y0072652D01*
X0633452Y0072683D01*
X0633564Y0072711D01*
X0633677Y0072735D01*
X0633791Y0072755D01*
X0633906Y0072771D01*
X0634021Y0072783D01*
X0634136Y0072791D01*
X0634251Y0072795D01*
X0634367Y0072795D01*
X0634482Y0072791D01*
X0634597Y0072783D01*
X0634712Y0072771D01*
X0634827Y0072755D01*
X0634941Y0072735D01*
X0635054Y0072711D01*
X0635166Y0072683D01*
X0635277Y0072652D01*
X0635387Y0072617D01*
X0635496Y0072578D01*
X0635603Y0072535D01*
X0635709Y0072488D01*
X0635813Y0072438D01*
X0635915Y0072384D01*
X0636015Y0072327D01*
X0636114Y0072267D01*
X0636210Y0072203D01*
X0636304Y0072135D01*
X0636395Y0072065D01*
X0636484Y0071991D01*
X0636571Y0071915D01*
X0636654Y0071835D01*
X0636735Y0071753D01*
X0636814Y0071668D01*
X0636889Y0071580D01*
X0636961Y0071490D01*
X0637029Y0071397D01*
X0637095Y0071302D01*
X0637157Y0071205D01*
X0637216Y0071105D01*
X0637272Y0071004D01*
X0637324Y0070901D01*
X0637372Y0070796D01*
X0637417Y0070689D01*
X0637458Y0070581D01*
X0637495Y0070472D01*
X0637528Y0070361D01*
X0637558Y0070250D01*
X0637583Y0070137D01*
X0637605Y0070024D01*
X0637623Y0069910D01*
X0637637Y0069795D01*
X0637647Y0069680D01*
X0637653Y0069564D01*
X0637655Y0069449D01*
X0637653Y0069334D01*
X0637647Y0069218D01*
X0637637Y0069103D01*
X0637623Y0068988D01*
X0637605Y0068874D01*
X0637583Y0068761D01*
X0637558Y0068648D01*
X0637528Y0068537D01*
X0637495Y0068426D01*
X0637458Y0068317D01*
X0637417Y0068209D01*
X0637372Y0068102D01*
X0637324Y0067997D01*
X0637272Y0067894D01*
X0637216Y0067793D01*
X0637157Y0067693D01*
X0637095Y0067596D01*
X0637029Y0067501D01*
X0636961Y0067408D01*
X0636889Y0067318D01*
X0636814Y0067230D01*
X0636735Y0067145D01*
X0636654Y0067063D01*
X0636571Y0066983D01*
X0636484Y0066907D01*
X0636395Y0066833D01*
X0636304Y0066763D01*
X0636210Y0066695D01*
X0636114Y0066631D01*
X0636015Y0066571D01*
X0635915Y0066514D01*
X0635813Y0066460D01*
X0635709Y0066410D01*
X0635603Y0066363D01*
X0635496Y0066320D01*
X0635387Y0066281D01*
X0635277Y0066246D01*
X0635166Y0066215D01*
X0635054Y0066187D01*
X0634941Y0066163D01*
X0634827Y0066143D01*
X0634712Y0066127D01*
X0634597Y0066115D01*
X0634482Y0066107D01*
X0634367Y0066103D01*
X0634251Y0066103D01*
X0634136Y0066107D01*
X0634021Y0066115D01*
X0633906Y0066127D01*
X0633791Y0066143D01*
X0633677Y0066163D01*
X0633564Y0066187D01*
X0633452Y0066215D01*
X0633341Y0066246D01*
X0633231Y0066281D01*
X0633122Y0066320D01*
X0633015Y0066363D01*
X0632909Y0066410D01*
X0632805Y0066460D01*
X0632703Y0066514D01*
X0632603Y0066571D01*
X0632504Y0066631D01*
X0632408Y0066695D01*
X0632314Y0066763D01*
X0632223Y0066833D01*
X0632134Y0066907D01*
X0632047Y0066983D01*
X0631964Y0067063D01*
X0631883Y0067145D01*
X0631804Y0067230D01*
X0631729Y0067318D01*
X0631657Y0067408D01*
X0631589Y0067501D01*
X0631523Y0067596D01*
X0631461Y0067693D01*
X0631402Y0067793D01*
X0631346Y0067894D01*
X0631294Y0067997D01*
X0631246Y0068102D01*
X0631201Y0068209D01*
X0631160Y0068317D01*
X0631123Y0068426D01*
X0631090Y0068537D01*
X0631060Y0068648D01*
X0631035Y0068761D01*
X0631013Y0068874D01*
X0630995Y0068988D01*
X0630981Y0069103D01*
X0630971Y0069218D01*
X0630965Y0069334D01*
X0630963Y0069449D01*
X0691948Y0069449D02*
X0691950Y0069564D01*
X0691956Y0069680D01*
X0691966Y0069795D01*
X0691980Y0069910D01*
X0691998Y0070024D01*
X0692020Y0070137D01*
X0692045Y0070250D01*
X0692075Y0070361D01*
X0692108Y0070472D01*
X0692145Y0070581D01*
X0692186Y0070689D01*
X0692231Y0070796D01*
X0692279Y0070901D01*
X0692331Y0071004D01*
X0692387Y0071105D01*
X0692446Y0071205D01*
X0692508Y0071302D01*
X0692574Y0071397D01*
X0692642Y0071490D01*
X0692714Y0071580D01*
X0692789Y0071668D01*
X0692868Y0071753D01*
X0692949Y0071835D01*
X0693032Y0071915D01*
X0693119Y0071991D01*
X0693208Y0072065D01*
X0693299Y0072135D01*
X0693393Y0072203D01*
X0693489Y0072267D01*
X0693588Y0072327D01*
X0693688Y0072384D01*
X0693790Y0072438D01*
X0693894Y0072488D01*
X0694000Y0072535D01*
X0694107Y0072578D01*
X0694216Y0072617D01*
X0694326Y0072652D01*
X0694437Y0072683D01*
X0694549Y0072711D01*
X0694662Y0072735D01*
X0694776Y0072755D01*
X0694891Y0072771D01*
X0695006Y0072783D01*
X0695121Y0072791D01*
X0695236Y0072795D01*
X0695352Y0072795D01*
X0695467Y0072791D01*
X0695582Y0072783D01*
X0695697Y0072771D01*
X0695812Y0072755D01*
X0695926Y0072735D01*
X0696039Y0072711D01*
X0696151Y0072683D01*
X0696262Y0072652D01*
X0696372Y0072617D01*
X0696481Y0072578D01*
X0696588Y0072535D01*
X0696694Y0072488D01*
X0696798Y0072438D01*
X0696900Y0072384D01*
X0697000Y0072327D01*
X0697099Y0072267D01*
X0697195Y0072203D01*
X0697289Y0072135D01*
X0697380Y0072065D01*
X0697469Y0071991D01*
X0697556Y0071915D01*
X0697639Y0071835D01*
X0697720Y0071753D01*
X0697799Y0071668D01*
X0697874Y0071580D01*
X0697946Y0071490D01*
X0698014Y0071397D01*
X0698080Y0071302D01*
X0698142Y0071205D01*
X0698201Y0071105D01*
X0698257Y0071004D01*
X0698309Y0070901D01*
X0698357Y0070796D01*
X0698402Y0070689D01*
X0698443Y0070581D01*
X0698480Y0070472D01*
X0698513Y0070361D01*
X0698543Y0070250D01*
X0698568Y0070137D01*
X0698590Y0070024D01*
X0698608Y0069910D01*
X0698622Y0069795D01*
X0698632Y0069680D01*
X0698638Y0069564D01*
X0698640Y0069449D01*
X0698638Y0069334D01*
X0698632Y0069218D01*
X0698622Y0069103D01*
X0698608Y0068988D01*
X0698590Y0068874D01*
X0698568Y0068761D01*
X0698543Y0068648D01*
X0698513Y0068537D01*
X0698480Y0068426D01*
X0698443Y0068317D01*
X0698402Y0068209D01*
X0698357Y0068102D01*
X0698309Y0067997D01*
X0698257Y0067894D01*
X0698201Y0067793D01*
X0698142Y0067693D01*
X0698080Y0067596D01*
X0698014Y0067501D01*
X0697946Y0067408D01*
X0697874Y0067318D01*
X0697799Y0067230D01*
X0697720Y0067145D01*
X0697639Y0067063D01*
X0697556Y0066983D01*
X0697469Y0066907D01*
X0697380Y0066833D01*
X0697289Y0066763D01*
X0697195Y0066695D01*
X0697099Y0066631D01*
X0697000Y0066571D01*
X0696900Y0066514D01*
X0696798Y0066460D01*
X0696694Y0066410D01*
X0696588Y0066363D01*
X0696481Y0066320D01*
X0696372Y0066281D01*
X0696262Y0066246D01*
X0696151Y0066215D01*
X0696039Y0066187D01*
X0695926Y0066163D01*
X0695812Y0066143D01*
X0695697Y0066127D01*
X0695582Y0066115D01*
X0695467Y0066107D01*
X0695352Y0066103D01*
X0695236Y0066103D01*
X0695121Y0066107D01*
X0695006Y0066115D01*
X0694891Y0066127D01*
X0694776Y0066143D01*
X0694662Y0066163D01*
X0694549Y0066187D01*
X0694437Y0066215D01*
X0694326Y0066246D01*
X0694216Y0066281D01*
X0694107Y0066320D01*
X0694000Y0066363D01*
X0693894Y0066410D01*
X0693790Y0066460D01*
X0693688Y0066514D01*
X0693588Y0066571D01*
X0693489Y0066631D01*
X0693393Y0066695D01*
X0693299Y0066763D01*
X0693208Y0066833D01*
X0693119Y0066907D01*
X0693032Y0066983D01*
X0692949Y0067063D01*
X0692868Y0067145D01*
X0692789Y0067230D01*
X0692714Y0067318D01*
X0692642Y0067408D01*
X0692574Y0067501D01*
X0692508Y0067596D01*
X0692446Y0067693D01*
X0692387Y0067793D01*
X0692331Y0067894D01*
X0692279Y0067997D01*
X0692231Y0068102D01*
X0692186Y0068209D01*
X0692145Y0068317D01*
X0692108Y0068426D01*
X0692075Y0068537D01*
X0692045Y0068648D01*
X0692020Y0068761D01*
X0691998Y0068874D01*
X0691980Y0068988D01*
X0691966Y0069103D01*
X0691956Y0069218D01*
X0691950Y0069334D01*
X0691948Y0069449D01*
X0769072Y0056324D02*
X0769074Y0056458D01*
X0769080Y0056592D01*
X0769090Y0056726D01*
X0769104Y0056860D01*
X0769122Y0056993D01*
X0769143Y0057125D01*
X0769169Y0057257D01*
X0769199Y0057388D01*
X0769232Y0057518D01*
X0769269Y0057646D01*
X0769311Y0057774D01*
X0769355Y0057901D01*
X0769404Y0058026D01*
X0769456Y0058149D01*
X0769512Y0058271D01*
X0769572Y0058392D01*
X0769635Y0058510D01*
X0769701Y0058627D01*
X0769771Y0058741D01*
X0769844Y0058854D01*
X0769921Y0058964D01*
X0770001Y0059072D01*
X0770084Y0059177D01*
X0770170Y0059280D01*
X0770259Y0059380D01*
X0770351Y0059478D01*
X0770446Y0059573D01*
X0770544Y0059665D01*
X0770644Y0059754D01*
X0770747Y0059840D01*
X0770852Y0059923D01*
X0770960Y0060003D01*
X0771070Y0060080D01*
X0771183Y0060153D01*
X0771297Y0060223D01*
X0771414Y0060289D01*
X0771532Y0060352D01*
X0771653Y0060412D01*
X0771775Y0060468D01*
X0771898Y0060520D01*
X0772023Y0060569D01*
X0772150Y0060613D01*
X0772278Y0060655D01*
X0772406Y0060692D01*
X0772536Y0060725D01*
X0772667Y0060755D01*
X0772799Y0060781D01*
X0772931Y0060802D01*
X0773064Y0060820D01*
X0773198Y0060834D01*
X0773332Y0060844D01*
X0773466Y0060850D01*
X0773600Y0060852D01*
X0773734Y0060850D01*
X0773868Y0060844D01*
X0774002Y0060834D01*
X0774136Y0060820D01*
X0774269Y0060802D01*
X0774401Y0060781D01*
X0774533Y0060755D01*
X0774664Y0060725D01*
X0774794Y0060692D01*
X0774922Y0060655D01*
X0775050Y0060613D01*
X0775177Y0060569D01*
X0775302Y0060520D01*
X0775425Y0060468D01*
X0775547Y0060412D01*
X0775668Y0060352D01*
X0775786Y0060289D01*
X0775903Y0060223D01*
X0776017Y0060153D01*
X0776130Y0060080D01*
X0776240Y0060003D01*
X0776348Y0059923D01*
X0776453Y0059840D01*
X0776556Y0059754D01*
X0776656Y0059665D01*
X0776754Y0059573D01*
X0776849Y0059478D01*
X0776941Y0059380D01*
X0777030Y0059280D01*
X0777116Y0059177D01*
X0777199Y0059072D01*
X0777279Y0058964D01*
X0777356Y0058854D01*
X0777429Y0058741D01*
X0777499Y0058627D01*
X0777565Y0058510D01*
X0777628Y0058392D01*
X0777688Y0058271D01*
X0777744Y0058149D01*
X0777796Y0058026D01*
X0777845Y0057901D01*
X0777889Y0057774D01*
X0777931Y0057646D01*
X0777968Y0057518D01*
X0778001Y0057388D01*
X0778031Y0057257D01*
X0778057Y0057125D01*
X0778078Y0056993D01*
X0778096Y0056860D01*
X0778110Y0056726D01*
X0778120Y0056592D01*
X0778126Y0056458D01*
X0778128Y0056324D01*
X0778126Y0056190D01*
X0778120Y0056056D01*
X0778110Y0055922D01*
X0778096Y0055788D01*
X0778078Y0055655D01*
X0778057Y0055523D01*
X0778031Y0055391D01*
X0778001Y0055260D01*
X0777968Y0055130D01*
X0777931Y0055002D01*
X0777889Y0054874D01*
X0777845Y0054747D01*
X0777796Y0054622D01*
X0777744Y0054499D01*
X0777688Y0054377D01*
X0777628Y0054256D01*
X0777565Y0054138D01*
X0777499Y0054021D01*
X0777429Y0053907D01*
X0777356Y0053794D01*
X0777279Y0053684D01*
X0777199Y0053576D01*
X0777116Y0053471D01*
X0777030Y0053368D01*
X0776941Y0053268D01*
X0776849Y0053170D01*
X0776754Y0053075D01*
X0776656Y0052983D01*
X0776556Y0052894D01*
X0776453Y0052808D01*
X0776348Y0052725D01*
X0776240Y0052645D01*
X0776130Y0052568D01*
X0776017Y0052495D01*
X0775903Y0052425D01*
X0775786Y0052359D01*
X0775668Y0052296D01*
X0775547Y0052236D01*
X0775425Y0052180D01*
X0775302Y0052128D01*
X0775177Y0052079D01*
X0775050Y0052035D01*
X0774922Y0051993D01*
X0774794Y0051956D01*
X0774664Y0051923D01*
X0774533Y0051893D01*
X0774401Y0051867D01*
X0774269Y0051846D01*
X0774136Y0051828D01*
X0774002Y0051814D01*
X0773868Y0051804D01*
X0773734Y0051798D01*
X0773600Y0051796D01*
X0773466Y0051798D01*
X0773332Y0051804D01*
X0773198Y0051814D01*
X0773064Y0051828D01*
X0772931Y0051846D01*
X0772799Y0051867D01*
X0772667Y0051893D01*
X0772536Y0051923D01*
X0772406Y0051956D01*
X0772278Y0051993D01*
X0772150Y0052035D01*
X0772023Y0052079D01*
X0771898Y0052128D01*
X0771775Y0052180D01*
X0771653Y0052236D01*
X0771532Y0052296D01*
X0771414Y0052359D01*
X0771297Y0052425D01*
X0771183Y0052495D01*
X0771070Y0052568D01*
X0770960Y0052645D01*
X0770852Y0052725D01*
X0770747Y0052808D01*
X0770644Y0052894D01*
X0770544Y0052983D01*
X0770446Y0053075D01*
X0770351Y0053170D01*
X0770259Y0053268D01*
X0770170Y0053368D01*
X0770084Y0053471D01*
X0770001Y0053576D01*
X0769921Y0053684D01*
X0769844Y0053794D01*
X0769771Y0053907D01*
X0769701Y0054021D01*
X0769635Y0054138D01*
X0769572Y0054256D01*
X0769512Y0054377D01*
X0769456Y0054499D01*
X0769404Y0054622D01*
X0769355Y0054747D01*
X0769311Y0054874D01*
X0769269Y0055002D01*
X0769232Y0055130D01*
X0769199Y0055260D01*
X0769169Y0055391D01*
X0769143Y0055523D01*
X0769122Y0055655D01*
X0769104Y0055788D01*
X0769090Y0055922D01*
X0769080Y0056056D01*
X0769074Y0056190D01*
X0769072Y0056324D01*
X0766527Y0033575D02*
X0766529Y0033744D01*
X0766535Y0033913D01*
X0766546Y0034082D01*
X0766560Y0034250D01*
X0766579Y0034418D01*
X0766602Y0034586D01*
X0766628Y0034753D01*
X0766659Y0034919D01*
X0766694Y0035085D01*
X0766733Y0035249D01*
X0766777Y0035413D01*
X0766824Y0035575D01*
X0766875Y0035736D01*
X0766930Y0035896D01*
X0766989Y0036055D01*
X0767051Y0036212D01*
X0767118Y0036367D01*
X0767189Y0036521D01*
X0767263Y0036673D01*
X0767341Y0036823D01*
X0767422Y0036971D01*
X0767507Y0037117D01*
X0767596Y0037261D01*
X0767688Y0037403D01*
X0767784Y0037542D01*
X0767883Y0037679D01*
X0767985Y0037814D01*
X0768091Y0037946D01*
X0768200Y0038075D01*
X0768312Y0038202D01*
X0768427Y0038326D01*
X0768545Y0038447D01*
X0768666Y0038565D01*
X0768790Y0038680D01*
X0768917Y0038792D01*
X0769046Y0038901D01*
X0769178Y0039007D01*
X0769313Y0039109D01*
X0769450Y0039208D01*
X0769589Y0039304D01*
X0769731Y0039396D01*
X0769875Y0039485D01*
X0770021Y0039570D01*
X0770169Y0039651D01*
X0770319Y0039729D01*
X0770471Y0039803D01*
X0770625Y0039874D01*
X0770780Y0039941D01*
X0770937Y0040003D01*
X0771096Y0040062D01*
X0771256Y0040117D01*
X0771417Y0040168D01*
X0771579Y0040215D01*
X0771743Y0040259D01*
X0771907Y0040298D01*
X0772073Y0040333D01*
X0772239Y0040364D01*
X0772406Y0040390D01*
X0772574Y0040413D01*
X0772742Y0040432D01*
X0772910Y0040446D01*
X0773079Y0040457D01*
X0773248Y0040463D01*
X0773417Y0040465D01*
X0773586Y0040463D01*
X0773755Y0040457D01*
X0773924Y0040446D01*
X0774092Y0040432D01*
X0774260Y0040413D01*
X0774428Y0040390D01*
X0774595Y0040364D01*
X0774761Y0040333D01*
X0774927Y0040298D01*
X0775091Y0040259D01*
X0775255Y0040215D01*
X0775417Y0040168D01*
X0775578Y0040117D01*
X0775738Y0040062D01*
X0775897Y0040003D01*
X0776054Y0039941D01*
X0776209Y0039874D01*
X0776363Y0039803D01*
X0776515Y0039729D01*
X0776665Y0039651D01*
X0776813Y0039570D01*
X0776959Y0039485D01*
X0777103Y0039396D01*
X0777245Y0039304D01*
X0777384Y0039208D01*
X0777521Y0039109D01*
X0777656Y0039007D01*
X0777788Y0038901D01*
X0777917Y0038792D01*
X0778044Y0038680D01*
X0778168Y0038565D01*
X0778289Y0038447D01*
X0778407Y0038326D01*
X0778522Y0038202D01*
X0778634Y0038075D01*
X0778743Y0037946D01*
X0778849Y0037814D01*
X0778951Y0037679D01*
X0779050Y0037542D01*
X0779146Y0037403D01*
X0779238Y0037261D01*
X0779327Y0037117D01*
X0779412Y0036971D01*
X0779493Y0036823D01*
X0779571Y0036673D01*
X0779645Y0036521D01*
X0779716Y0036367D01*
X0779783Y0036212D01*
X0779845Y0036055D01*
X0779904Y0035896D01*
X0779959Y0035736D01*
X0780010Y0035575D01*
X0780057Y0035413D01*
X0780101Y0035249D01*
X0780140Y0035085D01*
X0780175Y0034919D01*
X0780206Y0034753D01*
X0780232Y0034586D01*
X0780255Y0034418D01*
X0780274Y0034250D01*
X0780288Y0034082D01*
X0780299Y0033913D01*
X0780305Y0033744D01*
X0780307Y0033575D01*
X0780305Y0033406D01*
X0780299Y0033237D01*
X0780288Y0033068D01*
X0780274Y0032900D01*
X0780255Y0032732D01*
X0780232Y0032564D01*
X0780206Y0032397D01*
X0780175Y0032231D01*
X0780140Y0032065D01*
X0780101Y0031901D01*
X0780057Y0031737D01*
X0780010Y0031575D01*
X0779959Y0031414D01*
X0779904Y0031254D01*
X0779845Y0031095D01*
X0779783Y0030938D01*
X0779716Y0030783D01*
X0779645Y0030629D01*
X0779571Y0030477D01*
X0779493Y0030327D01*
X0779412Y0030179D01*
X0779327Y0030033D01*
X0779238Y0029889D01*
X0779146Y0029747D01*
X0779050Y0029608D01*
X0778951Y0029471D01*
X0778849Y0029336D01*
X0778743Y0029204D01*
X0778634Y0029075D01*
X0778522Y0028948D01*
X0778407Y0028824D01*
X0778289Y0028703D01*
X0778168Y0028585D01*
X0778044Y0028470D01*
X0777917Y0028358D01*
X0777788Y0028249D01*
X0777656Y0028143D01*
X0777521Y0028041D01*
X0777384Y0027942D01*
X0777245Y0027846D01*
X0777103Y0027754D01*
X0776959Y0027665D01*
X0776813Y0027580D01*
X0776665Y0027499D01*
X0776515Y0027421D01*
X0776363Y0027347D01*
X0776209Y0027276D01*
X0776054Y0027209D01*
X0775897Y0027147D01*
X0775738Y0027088D01*
X0775578Y0027033D01*
X0775417Y0026982D01*
X0775255Y0026935D01*
X0775091Y0026891D01*
X0774927Y0026852D01*
X0774761Y0026817D01*
X0774595Y0026786D01*
X0774428Y0026760D01*
X0774260Y0026737D01*
X0774092Y0026718D01*
X0773924Y0026704D01*
X0773755Y0026693D01*
X0773586Y0026687D01*
X0773417Y0026685D01*
X0773248Y0026687D01*
X0773079Y0026693D01*
X0772910Y0026704D01*
X0772742Y0026718D01*
X0772574Y0026737D01*
X0772406Y0026760D01*
X0772239Y0026786D01*
X0772073Y0026817D01*
X0771907Y0026852D01*
X0771743Y0026891D01*
X0771579Y0026935D01*
X0771417Y0026982D01*
X0771256Y0027033D01*
X0771096Y0027088D01*
X0770937Y0027147D01*
X0770780Y0027209D01*
X0770625Y0027276D01*
X0770471Y0027347D01*
X0770319Y0027421D01*
X0770169Y0027499D01*
X0770021Y0027580D01*
X0769875Y0027665D01*
X0769731Y0027754D01*
X0769589Y0027846D01*
X0769450Y0027942D01*
X0769313Y0028041D01*
X0769178Y0028143D01*
X0769046Y0028249D01*
X0768917Y0028358D01*
X0768790Y0028470D01*
X0768666Y0028585D01*
X0768545Y0028703D01*
X0768427Y0028824D01*
X0768312Y0028948D01*
X0768200Y0029075D01*
X0768091Y0029204D01*
X0767985Y0029336D01*
X0767883Y0029471D01*
X0767784Y0029608D01*
X0767688Y0029747D01*
X0767596Y0029889D01*
X0767507Y0030033D01*
X0767422Y0030179D01*
X0767341Y0030327D01*
X0767263Y0030477D01*
X0767189Y0030629D01*
X0767118Y0030783D01*
X0767051Y0030938D01*
X0766989Y0031095D01*
X0766930Y0031254D01*
X0766875Y0031414D01*
X0766824Y0031575D01*
X0766777Y0031737D01*
X0766733Y0031901D01*
X0766694Y0032065D01*
X0766659Y0032231D01*
X0766628Y0032397D01*
X0766602Y0032564D01*
X0766579Y0032732D01*
X0766560Y0032900D01*
X0766546Y0033068D01*
X0766535Y0033237D01*
X0766529Y0033406D01*
X0766527Y0033575D01*
X0769072Y0108056D02*
X0769074Y0108190D01*
X0769080Y0108324D01*
X0769090Y0108458D01*
X0769104Y0108592D01*
X0769122Y0108725D01*
X0769143Y0108857D01*
X0769169Y0108989D01*
X0769199Y0109120D01*
X0769232Y0109250D01*
X0769269Y0109378D01*
X0769311Y0109506D01*
X0769355Y0109633D01*
X0769404Y0109758D01*
X0769456Y0109881D01*
X0769512Y0110003D01*
X0769572Y0110124D01*
X0769635Y0110242D01*
X0769701Y0110359D01*
X0769771Y0110473D01*
X0769844Y0110586D01*
X0769921Y0110696D01*
X0770001Y0110804D01*
X0770084Y0110909D01*
X0770170Y0111012D01*
X0770259Y0111112D01*
X0770351Y0111210D01*
X0770446Y0111305D01*
X0770544Y0111397D01*
X0770644Y0111486D01*
X0770747Y0111572D01*
X0770852Y0111655D01*
X0770960Y0111735D01*
X0771070Y0111812D01*
X0771183Y0111885D01*
X0771297Y0111955D01*
X0771414Y0112021D01*
X0771532Y0112084D01*
X0771653Y0112144D01*
X0771775Y0112200D01*
X0771898Y0112252D01*
X0772023Y0112301D01*
X0772150Y0112345D01*
X0772278Y0112387D01*
X0772406Y0112424D01*
X0772536Y0112457D01*
X0772667Y0112487D01*
X0772799Y0112513D01*
X0772931Y0112534D01*
X0773064Y0112552D01*
X0773198Y0112566D01*
X0773332Y0112576D01*
X0773466Y0112582D01*
X0773600Y0112584D01*
X0773734Y0112582D01*
X0773868Y0112576D01*
X0774002Y0112566D01*
X0774136Y0112552D01*
X0774269Y0112534D01*
X0774401Y0112513D01*
X0774533Y0112487D01*
X0774664Y0112457D01*
X0774794Y0112424D01*
X0774922Y0112387D01*
X0775050Y0112345D01*
X0775177Y0112301D01*
X0775302Y0112252D01*
X0775425Y0112200D01*
X0775547Y0112144D01*
X0775668Y0112084D01*
X0775786Y0112021D01*
X0775903Y0111955D01*
X0776017Y0111885D01*
X0776130Y0111812D01*
X0776240Y0111735D01*
X0776348Y0111655D01*
X0776453Y0111572D01*
X0776556Y0111486D01*
X0776656Y0111397D01*
X0776754Y0111305D01*
X0776849Y0111210D01*
X0776941Y0111112D01*
X0777030Y0111012D01*
X0777116Y0110909D01*
X0777199Y0110804D01*
X0777279Y0110696D01*
X0777356Y0110586D01*
X0777429Y0110473D01*
X0777499Y0110359D01*
X0777565Y0110242D01*
X0777628Y0110124D01*
X0777688Y0110003D01*
X0777744Y0109881D01*
X0777796Y0109758D01*
X0777845Y0109633D01*
X0777889Y0109506D01*
X0777931Y0109378D01*
X0777968Y0109250D01*
X0778001Y0109120D01*
X0778031Y0108989D01*
X0778057Y0108857D01*
X0778078Y0108725D01*
X0778096Y0108592D01*
X0778110Y0108458D01*
X0778120Y0108324D01*
X0778126Y0108190D01*
X0778128Y0108056D01*
X0778126Y0107922D01*
X0778120Y0107788D01*
X0778110Y0107654D01*
X0778096Y0107520D01*
X0778078Y0107387D01*
X0778057Y0107255D01*
X0778031Y0107123D01*
X0778001Y0106992D01*
X0777968Y0106862D01*
X0777931Y0106734D01*
X0777889Y0106606D01*
X0777845Y0106479D01*
X0777796Y0106354D01*
X0777744Y0106231D01*
X0777688Y0106109D01*
X0777628Y0105988D01*
X0777565Y0105870D01*
X0777499Y0105753D01*
X0777429Y0105639D01*
X0777356Y0105526D01*
X0777279Y0105416D01*
X0777199Y0105308D01*
X0777116Y0105203D01*
X0777030Y0105100D01*
X0776941Y0105000D01*
X0776849Y0104902D01*
X0776754Y0104807D01*
X0776656Y0104715D01*
X0776556Y0104626D01*
X0776453Y0104540D01*
X0776348Y0104457D01*
X0776240Y0104377D01*
X0776130Y0104300D01*
X0776017Y0104227D01*
X0775903Y0104157D01*
X0775786Y0104091D01*
X0775668Y0104028D01*
X0775547Y0103968D01*
X0775425Y0103912D01*
X0775302Y0103860D01*
X0775177Y0103811D01*
X0775050Y0103767D01*
X0774922Y0103725D01*
X0774794Y0103688D01*
X0774664Y0103655D01*
X0774533Y0103625D01*
X0774401Y0103599D01*
X0774269Y0103578D01*
X0774136Y0103560D01*
X0774002Y0103546D01*
X0773868Y0103536D01*
X0773734Y0103530D01*
X0773600Y0103528D01*
X0773466Y0103530D01*
X0773332Y0103536D01*
X0773198Y0103546D01*
X0773064Y0103560D01*
X0772931Y0103578D01*
X0772799Y0103599D01*
X0772667Y0103625D01*
X0772536Y0103655D01*
X0772406Y0103688D01*
X0772278Y0103725D01*
X0772150Y0103767D01*
X0772023Y0103811D01*
X0771898Y0103860D01*
X0771775Y0103912D01*
X0771653Y0103968D01*
X0771532Y0104028D01*
X0771414Y0104091D01*
X0771297Y0104157D01*
X0771183Y0104227D01*
X0771070Y0104300D01*
X0770960Y0104377D01*
X0770852Y0104457D01*
X0770747Y0104540D01*
X0770644Y0104626D01*
X0770544Y0104715D01*
X0770446Y0104807D01*
X0770351Y0104902D01*
X0770259Y0105000D01*
X0770170Y0105100D01*
X0770084Y0105203D01*
X0770001Y0105308D01*
X0769921Y0105416D01*
X0769844Y0105526D01*
X0769771Y0105639D01*
X0769701Y0105753D01*
X0769635Y0105870D01*
X0769572Y0105988D01*
X0769512Y0106109D01*
X0769456Y0106231D01*
X0769404Y0106354D01*
X0769355Y0106479D01*
X0769311Y0106606D01*
X0769269Y0106734D01*
X0769232Y0106862D01*
X0769199Y0106992D01*
X0769169Y0107123D01*
X0769143Y0107255D01*
X0769122Y0107387D01*
X0769104Y0107520D01*
X0769090Y0107654D01*
X0769080Y0107788D01*
X0769074Y0107922D01*
X0769072Y0108056D01*
X0564689Y0241803D02*
X0564691Y0241918D01*
X0564697Y0242034D01*
X0564707Y0242149D01*
X0564721Y0242264D01*
X0564739Y0242378D01*
X0564761Y0242491D01*
X0564786Y0242604D01*
X0564816Y0242715D01*
X0564849Y0242826D01*
X0564886Y0242935D01*
X0564927Y0243043D01*
X0564972Y0243150D01*
X0565020Y0243255D01*
X0565072Y0243358D01*
X0565128Y0243459D01*
X0565187Y0243559D01*
X0565249Y0243656D01*
X0565315Y0243751D01*
X0565383Y0243844D01*
X0565455Y0243934D01*
X0565530Y0244022D01*
X0565609Y0244107D01*
X0565690Y0244189D01*
X0565773Y0244269D01*
X0565860Y0244345D01*
X0565949Y0244419D01*
X0566040Y0244489D01*
X0566134Y0244557D01*
X0566230Y0244621D01*
X0566329Y0244681D01*
X0566429Y0244738D01*
X0566531Y0244792D01*
X0566635Y0244842D01*
X0566741Y0244889D01*
X0566848Y0244932D01*
X0566957Y0244971D01*
X0567067Y0245006D01*
X0567178Y0245037D01*
X0567290Y0245065D01*
X0567403Y0245089D01*
X0567517Y0245109D01*
X0567632Y0245125D01*
X0567747Y0245137D01*
X0567862Y0245145D01*
X0567977Y0245149D01*
X0568093Y0245149D01*
X0568208Y0245145D01*
X0568323Y0245137D01*
X0568438Y0245125D01*
X0568553Y0245109D01*
X0568667Y0245089D01*
X0568780Y0245065D01*
X0568892Y0245037D01*
X0569003Y0245006D01*
X0569113Y0244971D01*
X0569222Y0244932D01*
X0569329Y0244889D01*
X0569435Y0244842D01*
X0569539Y0244792D01*
X0569641Y0244738D01*
X0569741Y0244681D01*
X0569840Y0244621D01*
X0569936Y0244557D01*
X0570030Y0244489D01*
X0570121Y0244419D01*
X0570210Y0244345D01*
X0570297Y0244269D01*
X0570380Y0244189D01*
X0570461Y0244107D01*
X0570540Y0244022D01*
X0570615Y0243934D01*
X0570687Y0243844D01*
X0570755Y0243751D01*
X0570821Y0243656D01*
X0570883Y0243559D01*
X0570942Y0243459D01*
X0570998Y0243358D01*
X0571050Y0243255D01*
X0571098Y0243150D01*
X0571143Y0243043D01*
X0571184Y0242935D01*
X0571221Y0242826D01*
X0571254Y0242715D01*
X0571284Y0242604D01*
X0571309Y0242491D01*
X0571331Y0242378D01*
X0571349Y0242264D01*
X0571363Y0242149D01*
X0571373Y0242034D01*
X0571379Y0241918D01*
X0571381Y0241803D01*
X0571379Y0241688D01*
X0571373Y0241572D01*
X0571363Y0241457D01*
X0571349Y0241342D01*
X0571331Y0241228D01*
X0571309Y0241115D01*
X0571284Y0241002D01*
X0571254Y0240891D01*
X0571221Y0240780D01*
X0571184Y0240671D01*
X0571143Y0240563D01*
X0571098Y0240456D01*
X0571050Y0240351D01*
X0570998Y0240248D01*
X0570942Y0240147D01*
X0570883Y0240047D01*
X0570821Y0239950D01*
X0570755Y0239855D01*
X0570687Y0239762D01*
X0570615Y0239672D01*
X0570540Y0239584D01*
X0570461Y0239499D01*
X0570380Y0239417D01*
X0570297Y0239337D01*
X0570210Y0239261D01*
X0570121Y0239187D01*
X0570030Y0239117D01*
X0569936Y0239049D01*
X0569840Y0238985D01*
X0569741Y0238925D01*
X0569641Y0238868D01*
X0569539Y0238814D01*
X0569435Y0238764D01*
X0569329Y0238717D01*
X0569222Y0238674D01*
X0569113Y0238635D01*
X0569003Y0238600D01*
X0568892Y0238569D01*
X0568780Y0238541D01*
X0568667Y0238517D01*
X0568553Y0238497D01*
X0568438Y0238481D01*
X0568323Y0238469D01*
X0568208Y0238461D01*
X0568093Y0238457D01*
X0567977Y0238457D01*
X0567862Y0238461D01*
X0567747Y0238469D01*
X0567632Y0238481D01*
X0567517Y0238497D01*
X0567403Y0238517D01*
X0567290Y0238541D01*
X0567178Y0238569D01*
X0567067Y0238600D01*
X0566957Y0238635D01*
X0566848Y0238674D01*
X0566741Y0238717D01*
X0566635Y0238764D01*
X0566531Y0238814D01*
X0566429Y0238868D01*
X0566329Y0238925D01*
X0566230Y0238985D01*
X0566134Y0239049D01*
X0566040Y0239117D01*
X0565949Y0239187D01*
X0565860Y0239261D01*
X0565773Y0239337D01*
X0565690Y0239417D01*
X0565609Y0239499D01*
X0565530Y0239584D01*
X0565455Y0239672D01*
X0565383Y0239762D01*
X0565315Y0239855D01*
X0565249Y0239950D01*
X0565187Y0240047D01*
X0565128Y0240147D01*
X0565072Y0240248D01*
X0565020Y0240351D01*
X0564972Y0240456D01*
X0564927Y0240563D01*
X0564886Y0240671D01*
X0564849Y0240780D01*
X0564816Y0240891D01*
X0564786Y0241002D01*
X0564761Y0241115D01*
X0564739Y0241228D01*
X0564721Y0241342D01*
X0564707Y0241457D01*
X0564697Y0241572D01*
X0564691Y0241688D01*
X0564689Y0241803D01*
X0766527Y0250111D02*
X0766529Y0250280D01*
X0766535Y0250449D01*
X0766546Y0250618D01*
X0766560Y0250786D01*
X0766579Y0250954D01*
X0766602Y0251122D01*
X0766628Y0251289D01*
X0766659Y0251455D01*
X0766694Y0251621D01*
X0766733Y0251785D01*
X0766777Y0251949D01*
X0766824Y0252111D01*
X0766875Y0252272D01*
X0766930Y0252432D01*
X0766989Y0252591D01*
X0767051Y0252748D01*
X0767118Y0252903D01*
X0767189Y0253057D01*
X0767263Y0253209D01*
X0767341Y0253359D01*
X0767422Y0253507D01*
X0767507Y0253653D01*
X0767596Y0253797D01*
X0767688Y0253939D01*
X0767784Y0254078D01*
X0767883Y0254215D01*
X0767985Y0254350D01*
X0768091Y0254482D01*
X0768200Y0254611D01*
X0768312Y0254738D01*
X0768427Y0254862D01*
X0768545Y0254983D01*
X0768666Y0255101D01*
X0768790Y0255216D01*
X0768917Y0255328D01*
X0769046Y0255437D01*
X0769178Y0255543D01*
X0769313Y0255645D01*
X0769450Y0255744D01*
X0769589Y0255840D01*
X0769731Y0255932D01*
X0769875Y0256021D01*
X0770021Y0256106D01*
X0770169Y0256187D01*
X0770319Y0256265D01*
X0770471Y0256339D01*
X0770625Y0256410D01*
X0770780Y0256477D01*
X0770937Y0256539D01*
X0771096Y0256598D01*
X0771256Y0256653D01*
X0771417Y0256704D01*
X0771579Y0256751D01*
X0771743Y0256795D01*
X0771907Y0256834D01*
X0772073Y0256869D01*
X0772239Y0256900D01*
X0772406Y0256926D01*
X0772574Y0256949D01*
X0772742Y0256968D01*
X0772910Y0256982D01*
X0773079Y0256993D01*
X0773248Y0256999D01*
X0773417Y0257001D01*
X0773586Y0256999D01*
X0773755Y0256993D01*
X0773924Y0256982D01*
X0774092Y0256968D01*
X0774260Y0256949D01*
X0774428Y0256926D01*
X0774595Y0256900D01*
X0774761Y0256869D01*
X0774927Y0256834D01*
X0775091Y0256795D01*
X0775255Y0256751D01*
X0775417Y0256704D01*
X0775578Y0256653D01*
X0775738Y0256598D01*
X0775897Y0256539D01*
X0776054Y0256477D01*
X0776209Y0256410D01*
X0776363Y0256339D01*
X0776515Y0256265D01*
X0776665Y0256187D01*
X0776813Y0256106D01*
X0776959Y0256021D01*
X0777103Y0255932D01*
X0777245Y0255840D01*
X0777384Y0255744D01*
X0777521Y0255645D01*
X0777656Y0255543D01*
X0777788Y0255437D01*
X0777917Y0255328D01*
X0778044Y0255216D01*
X0778168Y0255101D01*
X0778289Y0254983D01*
X0778407Y0254862D01*
X0778522Y0254738D01*
X0778634Y0254611D01*
X0778743Y0254482D01*
X0778849Y0254350D01*
X0778951Y0254215D01*
X0779050Y0254078D01*
X0779146Y0253939D01*
X0779238Y0253797D01*
X0779327Y0253653D01*
X0779412Y0253507D01*
X0779493Y0253359D01*
X0779571Y0253209D01*
X0779645Y0253057D01*
X0779716Y0252903D01*
X0779783Y0252748D01*
X0779845Y0252591D01*
X0779904Y0252432D01*
X0779959Y0252272D01*
X0780010Y0252111D01*
X0780057Y0251949D01*
X0780101Y0251785D01*
X0780140Y0251621D01*
X0780175Y0251455D01*
X0780206Y0251289D01*
X0780232Y0251122D01*
X0780255Y0250954D01*
X0780274Y0250786D01*
X0780288Y0250618D01*
X0780299Y0250449D01*
X0780305Y0250280D01*
X0780307Y0250111D01*
X0780305Y0249942D01*
X0780299Y0249773D01*
X0780288Y0249604D01*
X0780274Y0249436D01*
X0780255Y0249268D01*
X0780232Y0249100D01*
X0780206Y0248933D01*
X0780175Y0248767D01*
X0780140Y0248601D01*
X0780101Y0248437D01*
X0780057Y0248273D01*
X0780010Y0248111D01*
X0779959Y0247950D01*
X0779904Y0247790D01*
X0779845Y0247631D01*
X0779783Y0247474D01*
X0779716Y0247319D01*
X0779645Y0247165D01*
X0779571Y0247013D01*
X0779493Y0246863D01*
X0779412Y0246715D01*
X0779327Y0246569D01*
X0779238Y0246425D01*
X0779146Y0246283D01*
X0779050Y0246144D01*
X0778951Y0246007D01*
X0778849Y0245872D01*
X0778743Y0245740D01*
X0778634Y0245611D01*
X0778522Y0245484D01*
X0778407Y0245360D01*
X0778289Y0245239D01*
X0778168Y0245121D01*
X0778044Y0245006D01*
X0777917Y0244894D01*
X0777788Y0244785D01*
X0777656Y0244679D01*
X0777521Y0244577D01*
X0777384Y0244478D01*
X0777245Y0244382D01*
X0777103Y0244290D01*
X0776959Y0244201D01*
X0776813Y0244116D01*
X0776665Y0244035D01*
X0776515Y0243957D01*
X0776363Y0243883D01*
X0776209Y0243812D01*
X0776054Y0243745D01*
X0775897Y0243683D01*
X0775738Y0243624D01*
X0775578Y0243569D01*
X0775417Y0243518D01*
X0775255Y0243471D01*
X0775091Y0243427D01*
X0774927Y0243388D01*
X0774761Y0243353D01*
X0774595Y0243322D01*
X0774428Y0243296D01*
X0774260Y0243273D01*
X0774092Y0243254D01*
X0773924Y0243240D01*
X0773755Y0243229D01*
X0773586Y0243223D01*
X0773417Y0243221D01*
X0773248Y0243223D01*
X0773079Y0243229D01*
X0772910Y0243240D01*
X0772742Y0243254D01*
X0772574Y0243273D01*
X0772406Y0243296D01*
X0772239Y0243322D01*
X0772073Y0243353D01*
X0771907Y0243388D01*
X0771743Y0243427D01*
X0771579Y0243471D01*
X0771417Y0243518D01*
X0771256Y0243569D01*
X0771096Y0243624D01*
X0770937Y0243683D01*
X0770780Y0243745D01*
X0770625Y0243812D01*
X0770471Y0243883D01*
X0770319Y0243957D01*
X0770169Y0244035D01*
X0770021Y0244116D01*
X0769875Y0244201D01*
X0769731Y0244290D01*
X0769589Y0244382D01*
X0769450Y0244478D01*
X0769313Y0244577D01*
X0769178Y0244679D01*
X0769046Y0244785D01*
X0768917Y0244894D01*
X0768790Y0245006D01*
X0768666Y0245121D01*
X0768545Y0245239D01*
X0768427Y0245360D01*
X0768312Y0245484D01*
X0768200Y0245611D01*
X0768091Y0245740D01*
X0767985Y0245872D01*
X0767883Y0246007D01*
X0767784Y0246144D01*
X0767688Y0246283D01*
X0767596Y0246425D01*
X0767507Y0246569D01*
X0767422Y0246715D01*
X0767341Y0246863D01*
X0767263Y0247013D01*
X0767189Y0247165D01*
X0767118Y0247319D01*
X0767051Y0247474D01*
X0766989Y0247631D01*
X0766930Y0247790D01*
X0766875Y0247950D01*
X0766824Y0248111D01*
X0766777Y0248273D01*
X0766733Y0248437D01*
X0766694Y0248601D01*
X0766659Y0248767D01*
X0766628Y0248933D01*
X0766602Y0249100D01*
X0766579Y0249268D01*
X0766560Y0249436D01*
X0766546Y0249604D01*
X0766535Y0249773D01*
X0766529Y0249942D01*
X0766527Y0250111D01*
X0300006Y0200826D02*
X0300008Y0200951D01*
X0300014Y0201076D01*
X0300024Y0201200D01*
X0300038Y0201324D01*
X0300055Y0201448D01*
X0300077Y0201571D01*
X0300103Y0201693D01*
X0300132Y0201815D01*
X0300165Y0201935D01*
X0300203Y0202054D01*
X0300243Y0202173D01*
X0300288Y0202289D01*
X0300336Y0202404D01*
X0300388Y0202518D01*
X0300444Y0202630D01*
X0300503Y0202740D01*
X0300565Y0202848D01*
X0300631Y0202955D01*
X0300700Y0203059D01*
X0300773Y0203160D01*
X0300848Y0203260D01*
X0300927Y0203357D01*
X0301009Y0203451D01*
X0301094Y0203543D01*
X0301181Y0203632D01*
X0301272Y0203718D01*
X0301365Y0203801D01*
X0301461Y0203882D01*
X0301559Y0203959D01*
X0301659Y0204033D01*
X0301762Y0204104D01*
X0301867Y0204171D01*
X0301975Y0204236D01*
X0302084Y0204296D01*
X0302195Y0204354D01*
X0302308Y0204407D01*
X0302422Y0204457D01*
X0302538Y0204504D01*
X0302655Y0204546D01*
X0302774Y0204585D01*
X0302894Y0204621D01*
X0303015Y0204652D01*
X0303137Y0204680D01*
X0303259Y0204703D01*
X0303383Y0204723D01*
X0303507Y0204739D01*
X0303631Y0204751D01*
X0303756Y0204759D01*
X0303881Y0204763D01*
X0304005Y0204763D01*
X0304130Y0204759D01*
X0304255Y0204751D01*
X0304379Y0204739D01*
X0304503Y0204723D01*
X0304627Y0204703D01*
X0304749Y0204680D01*
X0304871Y0204652D01*
X0304992Y0204621D01*
X0305112Y0204585D01*
X0305231Y0204546D01*
X0305348Y0204504D01*
X0305464Y0204457D01*
X0305578Y0204407D01*
X0305691Y0204354D01*
X0305802Y0204296D01*
X0305912Y0204236D01*
X0306019Y0204171D01*
X0306124Y0204104D01*
X0306227Y0204033D01*
X0306327Y0203959D01*
X0306425Y0203882D01*
X0306521Y0203801D01*
X0306614Y0203718D01*
X0306705Y0203632D01*
X0306792Y0203543D01*
X0306877Y0203451D01*
X0306959Y0203357D01*
X0307038Y0203260D01*
X0307113Y0203160D01*
X0307186Y0203059D01*
X0307255Y0202955D01*
X0307321Y0202848D01*
X0307383Y0202740D01*
X0307442Y0202630D01*
X0307498Y0202518D01*
X0307550Y0202404D01*
X0307598Y0202289D01*
X0307643Y0202173D01*
X0307683Y0202054D01*
X0307721Y0201935D01*
X0307754Y0201815D01*
X0307783Y0201693D01*
X0307809Y0201571D01*
X0307831Y0201448D01*
X0307848Y0201324D01*
X0307862Y0201200D01*
X0307872Y0201076D01*
X0307878Y0200951D01*
X0307880Y0200826D01*
X0307878Y0200701D01*
X0307872Y0200576D01*
X0307862Y0200452D01*
X0307848Y0200328D01*
X0307831Y0200204D01*
X0307809Y0200081D01*
X0307783Y0199959D01*
X0307754Y0199837D01*
X0307721Y0199717D01*
X0307683Y0199598D01*
X0307643Y0199479D01*
X0307598Y0199363D01*
X0307550Y0199248D01*
X0307498Y0199134D01*
X0307442Y0199022D01*
X0307383Y0198912D01*
X0307321Y0198804D01*
X0307255Y0198697D01*
X0307186Y0198593D01*
X0307113Y0198492D01*
X0307038Y0198392D01*
X0306959Y0198295D01*
X0306877Y0198201D01*
X0306792Y0198109D01*
X0306705Y0198020D01*
X0306614Y0197934D01*
X0306521Y0197851D01*
X0306425Y0197770D01*
X0306327Y0197693D01*
X0306227Y0197619D01*
X0306124Y0197548D01*
X0306019Y0197481D01*
X0305911Y0197416D01*
X0305802Y0197356D01*
X0305691Y0197298D01*
X0305578Y0197245D01*
X0305464Y0197195D01*
X0305348Y0197148D01*
X0305231Y0197106D01*
X0305112Y0197067D01*
X0304992Y0197031D01*
X0304871Y0197000D01*
X0304749Y0196972D01*
X0304627Y0196949D01*
X0304503Y0196929D01*
X0304379Y0196913D01*
X0304255Y0196901D01*
X0304130Y0196893D01*
X0304005Y0196889D01*
X0303881Y0196889D01*
X0303756Y0196893D01*
X0303631Y0196901D01*
X0303507Y0196913D01*
X0303383Y0196929D01*
X0303259Y0196949D01*
X0303137Y0196972D01*
X0303015Y0197000D01*
X0302894Y0197031D01*
X0302774Y0197067D01*
X0302655Y0197106D01*
X0302538Y0197148D01*
X0302422Y0197195D01*
X0302308Y0197245D01*
X0302195Y0197298D01*
X0302084Y0197356D01*
X0301974Y0197416D01*
X0301867Y0197481D01*
X0301762Y0197548D01*
X0301659Y0197619D01*
X0301559Y0197693D01*
X0301461Y0197770D01*
X0301365Y0197851D01*
X0301272Y0197934D01*
X0301181Y0198020D01*
X0301094Y0198109D01*
X0301009Y0198201D01*
X0300927Y0198295D01*
X0300848Y0198392D01*
X0300773Y0198492D01*
X0300700Y0198593D01*
X0300631Y0198697D01*
X0300565Y0198804D01*
X0300503Y0198912D01*
X0300444Y0199022D01*
X0300388Y0199134D01*
X0300336Y0199248D01*
X0300288Y0199363D01*
X0300243Y0199479D01*
X0300203Y0199598D01*
X0300165Y0199717D01*
X0300132Y0199837D01*
X0300103Y0199959D01*
X0300077Y0200081D01*
X0300055Y0200204D01*
X0300038Y0200328D01*
X0300024Y0200452D01*
X0300014Y0200576D01*
X0300008Y0200701D01*
X0300006Y0200826D01*
X0231421Y0241803D02*
X0231423Y0241918D01*
X0231429Y0242034D01*
X0231439Y0242149D01*
X0231453Y0242264D01*
X0231471Y0242378D01*
X0231493Y0242491D01*
X0231518Y0242604D01*
X0231548Y0242715D01*
X0231581Y0242826D01*
X0231618Y0242935D01*
X0231659Y0243043D01*
X0231704Y0243150D01*
X0231752Y0243255D01*
X0231804Y0243358D01*
X0231860Y0243459D01*
X0231919Y0243559D01*
X0231981Y0243656D01*
X0232047Y0243751D01*
X0232115Y0243844D01*
X0232187Y0243934D01*
X0232262Y0244022D01*
X0232341Y0244107D01*
X0232422Y0244189D01*
X0232505Y0244269D01*
X0232592Y0244345D01*
X0232681Y0244419D01*
X0232772Y0244489D01*
X0232866Y0244557D01*
X0232962Y0244621D01*
X0233061Y0244681D01*
X0233161Y0244738D01*
X0233263Y0244792D01*
X0233367Y0244842D01*
X0233473Y0244889D01*
X0233580Y0244932D01*
X0233689Y0244971D01*
X0233799Y0245006D01*
X0233910Y0245037D01*
X0234022Y0245065D01*
X0234135Y0245089D01*
X0234249Y0245109D01*
X0234364Y0245125D01*
X0234479Y0245137D01*
X0234594Y0245145D01*
X0234709Y0245149D01*
X0234825Y0245149D01*
X0234940Y0245145D01*
X0235055Y0245137D01*
X0235170Y0245125D01*
X0235285Y0245109D01*
X0235399Y0245089D01*
X0235512Y0245065D01*
X0235624Y0245037D01*
X0235735Y0245006D01*
X0235845Y0244971D01*
X0235954Y0244932D01*
X0236061Y0244889D01*
X0236167Y0244842D01*
X0236271Y0244792D01*
X0236373Y0244738D01*
X0236473Y0244681D01*
X0236572Y0244621D01*
X0236668Y0244557D01*
X0236762Y0244489D01*
X0236853Y0244419D01*
X0236942Y0244345D01*
X0237029Y0244269D01*
X0237112Y0244189D01*
X0237193Y0244107D01*
X0237272Y0244022D01*
X0237347Y0243934D01*
X0237419Y0243844D01*
X0237487Y0243751D01*
X0237553Y0243656D01*
X0237615Y0243559D01*
X0237674Y0243459D01*
X0237730Y0243358D01*
X0237782Y0243255D01*
X0237830Y0243150D01*
X0237875Y0243043D01*
X0237916Y0242935D01*
X0237953Y0242826D01*
X0237986Y0242715D01*
X0238016Y0242604D01*
X0238041Y0242491D01*
X0238063Y0242378D01*
X0238081Y0242264D01*
X0238095Y0242149D01*
X0238105Y0242034D01*
X0238111Y0241918D01*
X0238113Y0241803D01*
X0238111Y0241688D01*
X0238105Y0241572D01*
X0238095Y0241457D01*
X0238081Y0241342D01*
X0238063Y0241228D01*
X0238041Y0241115D01*
X0238016Y0241002D01*
X0237986Y0240891D01*
X0237953Y0240780D01*
X0237916Y0240671D01*
X0237875Y0240563D01*
X0237830Y0240456D01*
X0237782Y0240351D01*
X0237730Y0240248D01*
X0237674Y0240147D01*
X0237615Y0240047D01*
X0237553Y0239950D01*
X0237487Y0239855D01*
X0237419Y0239762D01*
X0237347Y0239672D01*
X0237272Y0239584D01*
X0237193Y0239499D01*
X0237112Y0239417D01*
X0237029Y0239337D01*
X0236942Y0239261D01*
X0236853Y0239187D01*
X0236762Y0239117D01*
X0236668Y0239049D01*
X0236572Y0238985D01*
X0236473Y0238925D01*
X0236373Y0238868D01*
X0236271Y0238814D01*
X0236167Y0238764D01*
X0236061Y0238717D01*
X0235954Y0238674D01*
X0235845Y0238635D01*
X0235735Y0238600D01*
X0235624Y0238569D01*
X0235512Y0238541D01*
X0235399Y0238517D01*
X0235285Y0238497D01*
X0235170Y0238481D01*
X0235055Y0238469D01*
X0234940Y0238461D01*
X0234825Y0238457D01*
X0234709Y0238457D01*
X0234594Y0238461D01*
X0234479Y0238469D01*
X0234364Y0238481D01*
X0234249Y0238497D01*
X0234135Y0238517D01*
X0234022Y0238541D01*
X0233910Y0238569D01*
X0233799Y0238600D01*
X0233689Y0238635D01*
X0233580Y0238674D01*
X0233473Y0238717D01*
X0233367Y0238764D01*
X0233263Y0238814D01*
X0233161Y0238868D01*
X0233061Y0238925D01*
X0232962Y0238985D01*
X0232866Y0239049D01*
X0232772Y0239117D01*
X0232681Y0239187D01*
X0232592Y0239261D01*
X0232505Y0239337D01*
X0232422Y0239417D01*
X0232341Y0239499D01*
X0232262Y0239584D01*
X0232187Y0239672D01*
X0232115Y0239762D01*
X0232047Y0239855D01*
X0231981Y0239950D01*
X0231919Y0240047D01*
X0231860Y0240147D01*
X0231804Y0240248D01*
X0231752Y0240351D01*
X0231704Y0240456D01*
X0231659Y0240563D01*
X0231618Y0240671D01*
X0231581Y0240780D01*
X0231548Y0240891D01*
X0231518Y0241002D01*
X0231493Y0241115D01*
X0231471Y0241228D01*
X0231453Y0241342D01*
X0231439Y0241457D01*
X0231429Y0241572D01*
X0231423Y0241688D01*
X0231421Y0241803D01*
X0018495Y0250111D02*
X0018497Y0250280D01*
X0018503Y0250449D01*
X0018514Y0250618D01*
X0018528Y0250786D01*
X0018547Y0250954D01*
X0018570Y0251122D01*
X0018596Y0251289D01*
X0018627Y0251455D01*
X0018662Y0251621D01*
X0018701Y0251785D01*
X0018745Y0251949D01*
X0018792Y0252111D01*
X0018843Y0252272D01*
X0018898Y0252432D01*
X0018957Y0252591D01*
X0019019Y0252748D01*
X0019086Y0252903D01*
X0019157Y0253057D01*
X0019231Y0253209D01*
X0019309Y0253359D01*
X0019390Y0253507D01*
X0019475Y0253653D01*
X0019564Y0253797D01*
X0019656Y0253939D01*
X0019752Y0254078D01*
X0019851Y0254215D01*
X0019953Y0254350D01*
X0020059Y0254482D01*
X0020168Y0254611D01*
X0020280Y0254738D01*
X0020395Y0254862D01*
X0020513Y0254983D01*
X0020634Y0255101D01*
X0020758Y0255216D01*
X0020885Y0255328D01*
X0021014Y0255437D01*
X0021146Y0255543D01*
X0021281Y0255645D01*
X0021418Y0255744D01*
X0021557Y0255840D01*
X0021699Y0255932D01*
X0021843Y0256021D01*
X0021989Y0256106D01*
X0022137Y0256187D01*
X0022287Y0256265D01*
X0022439Y0256339D01*
X0022593Y0256410D01*
X0022748Y0256477D01*
X0022905Y0256539D01*
X0023064Y0256598D01*
X0023224Y0256653D01*
X0023385Y0256704D01*
X0023547Y0256751D01*
X0023711Y0256795D01*
X0023875Y0256834D01*
X0024041Y0256869D01*
X0024207Y0256900D01*
X0024374Y0256926D01*
X0024542Y0256949D01*
X0024710Y0256968D01*
X0024878Y0256982D01*
X0025047Y0256993D01*
X0025216Y0256999D01*
X0025385Y0257001D01*
X0025554Y0256999D01*
X0025723Y0256993D01*
X0025892Y0256982D01*
X0026060Y0256968D01*
X0026228Y0256949D01*
X0026396Y0256926D01*
X0026563Y0256900D01*
X0026729Y0256869D01*
X0026895Y0256834D01*
X0027059Y0256795D01*
X0027223Y0256751D01*
X0027385Y0256704D01*
X0027546Y0256653D01*
X0027706Y0256598D01*
X0027865Y0256539D01*
X0028022Y0256477D01*
X0028177Y0256410D01*
X0028331Y0256339D01*
X0028483Y0256265D01*
X0028633Y0256187D01*
X0028781Y0256106D01*
X0028927Y0256021D01*
X0029071Y0255932D01*
X0029213Y0255840D01*
X0029352Y0255744D01*
X0029489Y0255645D01*
X0029624Y0255543D01*
X0029756Y0255437D01*
X0029885Y0255328D01*
X0030012Y0255216D01*
X0030136Y0255101D01*
X0030257Y0254983D01*
X0030375Y0254862D01*
X0030490Y0254738D01*
X0030602Y0254611D01*
X0030711Y0254482D01*
X0030817Y0254350D01*
X0030919Y0254215D01*
X0031018Y0254078D01*
X0031114Y0253939D01*
X0031206Y0253797D01*
X0031295Y0253653D01*
X0031380Y0253507D01*
X0031461Y0253359D01*
X0031539Y0253209D01*
X0031613Y0253057D01*
X0031684Y0252903D01*
X0031751Y0252748D01*
X0031813Y0252591D01*
X0031872Y0252432D01*
X0031927Y0252272D01*
X0031978Y0252111D01*
X0032025Y0251949D01*
X0032069Y0251785D01*
X0032108Y0251621D01*
X0032143Y0251455D01*
X0032174Y0251289D01*
X0032200Y0251122D01*
X0032223Y0250954D01*
X0032242Y0250786D01*
X0032256Y0250618D01*
X0032267Y0250449D01*
X0032273Y0250280D01*
X0032275Y0250111D01*
X0032273Y0249942D01*
X0032267Y0249773D01*
X0032256Y0249604D01*
X0032242Y0249436D01*
X0032223Y0249268D01*
X0032200Y0249100D01*
X0032174Y0248933D01*
X0032143Y0248767D01*
X0032108Y0248601D01*
X0032069Y0248437D01*
X0032025Y0248273D01*
X0031978Y0248111D01*
X0031927Y0247950D01*
X0031872Y0247790D01*
X0031813Y0247631D01*
X0031751Y0247474D01*
X0031684Y0247319D01*
X0031613Y0247165D01*
X0031539Y0247013D01*
X0031461Y0246863D01*
X0031380Y0246715D01*
X0031295Y0246569D01*
X0031206Y0246425D01*
X0031114Y0246283D01*
X0031018Y0246144D01*
X0030919Y0246007D01*
X0030817Y0245872D01*
X0030711Y0245740D01*
X0030602Y0245611D01*
X0030490Y0245484D01*
X0030375Y0245360D01*
X0030257Y0245239D01*
X0030136Y0245121D01*
X0030012Y0245006D01*
X0029885Y0244894D01*
X0029756Y0244785D01*
X0029624Y0244679D01*
X0029489Y0244577D01*
X0029352Y0244478D01*
X0029213Y0244382D01*
X0029071Y0244290D01*
X0028927Y0244201D01*
X0028781Y0244116D01*
X0028633Y0244035D01*
X0028483Y0243957D01*
X0028331Y0243883D01*
X0028177Y0243812D01*
X0028022Y0243745D01*
X0027865Y0243683D01*
X0027706Y0243624D01*
X0027546Y0243569D01*
X0027385Y0243518D01*
X0027223Y0243471D01*
X0027059Y0243427D01*
X0026895Y0243388D01*
X0026729Y0243353D01*
X0026563Y0243322D01*
X0026396Y0243296D01*
X0026228Y0243273D01*
X0026060Y0243254D01*
X0025892Y0243240D01*
X0025723Y0243229D01*
X0025554Y0243223D01*
X0025385Y0243221D01*
X0025216Y0243223D01*
X0025047Y0243229D01*
X0024878Y0243240D01*
X0024710Y0243254D01*
X0024542Y0243273D01*
X0024374Y0243296D01*
X0024207Y0243322D01*
X0024041Y0243353D01*
X0023875Y0243388D01*
X0023711Y0243427D01*
X0023547Y0243471D01*
X0023385Y0243518D01*
X0023224Y0243569D01*
X0023064Y0243624D01*
X0022905Y0243683D01*
X0022748Y0243745D01*
X0022593Y0243812D01*
X0022439Y0243883D01*
X0022287Y0243957D01*
X0022137Y0244035D01*
X0021989Y0244116D01*
X0021843Y0244201D01*
X0021699Y0244290D01*
X0021557Y0244382D01*
X0021418Y0244478D01*
X0021281Y0244577D01*
X0021146Y0244679D01*
X0021014Y0244785D01*
X0020885Y0244894D01*
X0020758Y0245006D01*
X0020634Y0245121D01*
X0020513Y0245239D01*
X0020395Y0245360D01*
X0020280Y0245484D01*
X0020168Y0245611D01*
X0020059Y0245740D01*
X0019953Y0245872D01*
X0019851Y0246007D01*
X0019752Y0246144D01*
X0019656Y0246283D01*
X0019564Y0246425D01*
X0019475Y0246569D01*
X0019390Y0246715D01*
X0019309Y0246863D01*
X0019231Y0247013D01*
X0019157Y0247165D01*
X0019086Y0247319D01*
X0019019Y0247474D01*
X0018957Y0247631D01*
X0018898Y0247790D01*
X0018843Y0247950D01*
X0018792Y0248111D01*
X0018745Y0248273D01*
X0018701Y0248437D01*
X0018662Y0248601D01*
X0018627Y0248767D01*
X0018596Y0248933D01*
X0018570Y0249100D01*
X0018547Y0249268D01*
X0018528Y0249436D01*
X0018514Y0249604D01*
X0018503Y0249773D01*
X0018497Y0249942D01*
X0018495Y0250111D01*
D11*
X0214680Y0378625D02*
X0215270Y0378035D01*
X0216450Y0378035D01*
X0217040Y0378625D01*
X0217040Y0379215D01*
X0216450Y0379805D01*
X0215270Y0379805D01*
X0214680Y0380395D01*
X0214680Y0380985D01*
X0215270Y0381575D01*
X0216450Y0381575D01*
X0217040Y0380985D01*
X0218305Y0381575D02*
X0220075Y0381575D01*
X0220665Y0380985D01*
X0220665Y0379805D01*
X0220075Y0379215D01*
X0218305Y0379215D01*
X0218305Y0378035D02*
X0218305Y0381575D01*
X0221930Y0380395D02*
X0223110Y0381575D01*
X0224290Y0380395D01*
X0224290Y0378035D01*
X0225555Y0378035D02*
X0225555Y0381575D01*
X0227325Y0381575D01*
X0227915Y0380985D01*
X0227915Y0379805D01*
X0227325Y0379215D01*
X0225555Y0379215D01*
X0226735Y0379215D02*
X0227915Y0378035D01*
X0229180Y0378035D02*
X0231540Y0378035D01*
X0230360Y0379805D02*
X0229180Y0379805D01*
X0229180Y0381575D02*
X0229180Y0378035D01*
X0229180Y0381575D02*
X0231540Y0381575D01*
X0236430Y0381575D02*
X0237610Y0381575D01*
X0237020Y0381575D02*
X0237020Y0378035D01*
X0236430Y0378035D02*
X0237610Y0378035D01*
X0238847Y0378035D02*
X0241207Y0381575D01*
X0242472Y0380985D02*
X0242472Y0378625D01*
X0243062Y0378035D01*
X0244242Y0378035D01*
X0244832Y0378625D01*
X0244832Y0380985D01*
X0244242Y0381575D01*
X0243062Y0381575D01*
X0242472Y0380985D01*
X0224290Y0379805D02*
X0221930Y0379805D01*
X0221930Y0380395D02*
X0221930Y0378035D01*
D12*
X0237245Y0236033D02*
X0237245Y0233731D01*
X0238779Y0233731D01*
X0239547Y0234115D02*
X0239547Y0235650D01*
X0239930Y0236033D01*
X0240698Y0236033D01*
X0241081Y0235650D01*
X0241849Y0236033D02*
X0243000Y0236033D01*
X0243383Y0235650D01*
X0243383Y0234115D01*
X0243000Y0233731D01*
X0241849Y0233731D01*
X0241849Y0236033D01*
X0241081Y0234115D02*
X0240698Y0233731D01*
X0239930Y0233731D01*
X0239547Y0234115D01*
D13*
X0243310Y0226843D02*
X0243310Y0056843D01*
X0223310Y0056843D01*
X0223310Y0226843D01*
X0243310Y0226843D01*
X0246056Y0227447D02*
X0246056Y0228949D01*
X0246807Y0229699D01*
X0247558Y0229699D01*
X0248308Y0228949D01*
X0249059Y0229699D01*
X0249810Y0229699D01*
X0250560Y0228949D01*
X0250560Y0227447D01*
X0249810Y0226697D01*
X0249810Y0225095D02*
X0250560Y0224345D01*
X0250560Y0222843D01*
X0249810Y0222093D01*
X0248308Y0223594D02*
X0248308Y0224345D01*
X0249059Y0225095D01*
X0249810Y0225095D01*
X0248308Y0224345D02*
X0247558Y0225095D01*
X0246807Y0225095D01*
X0246056Y0224345D01*
X0246056Y0222843D01*
X0246807Y0222093D01*
X0246807Y0226697D02*
X0246056Y0227447D01*
X0248308Y0228198D02*
X0248308Y0228949D01*
X0220560Y0228949D02*
X0216056Y0228949D01*
X0218308Y0226697D01*
X0218308Y0229699D01*
X0217558Y0225095D02*
X0218308Y0224345D01*
X0219059Y0225095D01*
X0219810Y0225095D01*
X0220560Y0224345D01*
X0220560Y0222843D01*
X0219810Y0222093D01*
X0218308Y0223594D02*
X0218308Y0224345D01*
X0217558Y0225095D02*
X0216807Y0225095D01*
X0216056Y0224345D01*
X0216056Y0222843D01*
X0216807Y0222093D01*
X0222798Y0255229D02*
X0580003Y0255229D01*
X0580003Y0028457D01*
X0222798Y0028457D01*
X0222798Y0255229D01*
X0220560Y0060095D02*
X0220560Y0057093D01*
X0217558Y0060095D01*
X0216807Y0060095D01*
X0216056Y0059345D01*
X0216056Y0057843D01*
X0216807Y0057093D01*
X0246056Y0058594D02*
X0250560Y0058594D01*
X0250560Y0057093D02*
X0250560Y0060095D01*
X0247558Y0057093D02*
X0246056Y0058594D01*
D14*
X0227154Y0227593D02*
X0226420Y0227593D01*
X0226053Y0227960D01*
X0226053Y0228694D02*
X0226787Y0229061D01*
X0227154Y0229061D01*
X0227521Y0228694D01*
X0227521Y0227960D01*
X0227154Y0227593D01*
X0226053Y0228694D02*
X0226053Y0229795D01*
X0227521Y0229795D01*
X0225219Y0229795D02*
X0224485Y0229795D01*
X0224852Y0229795D02*
X0224852Y0227960D01*
X0224485Y0227593D01*
X0224118Y0227593D01*
X0223751Y0227960D01*
D15*
X0153700Y0230840D03*
X0153700Y0230890D03*
X0153700Y0230940D03*
X0153650Y0230740D03*
X0153650Y0230690D03*
X0153650Y0230640D03*
X0153600Y0230540D03*
X0153600Y0230490D03*
X0153600Y0230440D03*
X0153550Y0230340D03*
X0153550Y0230290D03*
X0153550Y0230240D03*
X0153500Y0230140D03*
X0153500Y0230090D03*
X0153500Y0230040D03*
X0153450Y0229940D03*
X0153450Y0229890D03*
X0153450Y0229840D03*
X0153450Y0229790D03*
X0153400Y0229740D03*
X0153400Y0229690D03*
X0153400Y0229640D03*
X0153400Y0229590D03*
X0153350Y0229540D03*
X0153350Y0229490D03*
X0153350Y0229440D03*
X0153350Y0229390D03*
X0153300Y0229340D03*
X0153300Y0229290D03*
X0153300Y0229240D03*
X0153300Y0229190D03*
X0153250Y0229140D03*
X0153250Y0229090D03*
X0153250Y0229040D03*
X0153250Y0228990D03*
X0153200Y0228940D03*
X0153200Y0228890D03*
X0153200Y0228840D03*
X0153200Y0228790D03*
X0153150Y0228740D03*
X0153150Y0228690D03*
X0153150Y0228640D03*
X0153150Y0228590D03*
X0153100Y0228490D03*
X0153100Y0228440D03*
X0153100Y0228390D03*
X0153050Y0228290D03*
X0153050Y0228240D03*
X0153050Y0228190D03*
X0153000Y0228090D03*
X0153000Y0228040D03*
X0153000Y0227990D03*
X0151550Y0228390D03*
X0151550Y0228440D03*
X0150100Y0228740D03*
X0150100Y0228790D03*
X0150100Y0228840D03*
X0150150Y0228940D03*
X0150150Y0228990D03*
X0150150Y0229040D03*
X0150200Y0229140D03*
X0150200Y0229190D03*
X0150200Y0229240D03*
X0150250Y0229340D03*
X0150250Y0229390D03*
X0150250Y0229440D03*
X0150300Y0229540D03*
X0150300Y0229590D03*
X0150300Y0229640D03*
X0150350Y0229740D03*
X0150350Y0229790D03*
X0150350Y0229840D03*
X0150400Y0229990D03*
X0150400Y0230040D03*
X0150450Y0230190D03*
X0150450Y0230240D03*
X0150500Y0230390D03*
X0150500Y0230440D03*
X0150550Y0230590D03*
X0150550Y0230640D03*
X0150600Y0230790D03*
X0150600Y0230840D03*
X0150650Y0230990D03*
X0150050Y0228640D03*
X0150050Y0228590D03*
X0150050Y0228540D03*
X0150000Y0228440D03*
X0150000Y0228390D03*
X0150000Y0228340D03*
X0149950Y0228240D03*
X0149950Y0228190D03*
X0149950Y0228140D03*
X0149900Y0228040D03*
X0149900Y0227990D03*
X0110600Y0219440D03*
D16*
X0113300Y0228840D03*
X0131850Y0219440D03*
X0147800Y0228040D03*
X0147800Y0228090D03*
X0147800Y0228140D03*
X0147850Y0228240D03*
X0147850Y0228290D03*
X0147850Y0228340D03*
X0147900Y0228440D03*
X0147900Y0228490D03*
X0147900Y0228540D03*
X0147950Y0228640D03*
X0147950Y0228690D03*
X0147950Y0228740D03*
X0148000Y0228840D03*
X0148000Y0228890D03*
X0148000Y0228940D03*
X0148050Y0229040D03*
X0148050Y0229090D03*
X0148050Y0229140D03*
X0148100Y0229240D03*
X0148100Y0229290D03*
X0148100Y0229340D03*
X0148150Y0229490D03*
X0148150Y0229540D03*
X0148200Y0229690D03*
X0148200Y0229740D03*
X0148250Y0229890D03*
X0148250Y0229940D03*
X0148300Y0230090D03*
X0148300Y0230140D03*
X0148350Y0230290D03*
X0148350Y0230340D03*
X0148400Y0230490D03*
X0148400Y0230540D03*
X0148450Y0230690D03*
X0148450Y0230740D03*
X0148500Y0230890D03*
X0148500Y0230940D03*
X0148550Y0231090D03*
X0148550Y0231140D03*
X0148600Y0231290D03*
X0148600Y0231340D03*
X0151600Y0228690D03*
X0151600Y0228640D03*
X0151600Y0228590D03*
D17*
X0134675Y0228940D03*
X0113225Y0228790D03*
X0107925Y0228140D03*
X0110725Y0219490D03*
D18*
X0107975Y0228240D03*
X0108025Y0228290D03*
X0131925Y0219490D03*
D19*
X0110800Y0219540D03*
X0107450Y0227390D03*
D20*
X0107475Y0227440D03*
X0107525Y0227490D03*
X0113175Y0228740D03*
X0131975Y0219540D03*
D21*
X0130550Y0221640D03*
X0130550Y0221690D03*
X0130550Y0221740D03*
X0130600Y0222940D03*
X0130600Y0222990D03*
X0130650Y0223190D03*
X0130650Y0223240D03*
X0130650Y0223290D03*
X0130700Y0223390D03*
X0130700Y0223440D03*
X0130700Y0223490D03*
X0130700Y0223540D03*
X0130750Y0223640D03*
X0130750Y0223690D03*
X0130750Y0223740D03*
X0130800Y0223840D03*
X0130800Y0223890D03*
X0130800Y0223940D03*
X0130800Y0223990D03*
X0130850Y0224040D03*
X0130850Y0224090D03*
X0130850Y0224140D03*
X0130850Y0224190D03*
X0130900Y0224240D03*
X0130900Y0224290D03*
X0130900Y0224340D03*
X0130950Y0224440D03*
X0130950Y0224490D03*
X0130950Y0224540D03*
X0131000Y0224590D03*
X0131000Y0224640D03*
X0131000Y0224690D03*
X0131050Y0224790D03*
X0131050Y0224840D03*
X0131100Y0224990D03*
X0131150Y0225140D03*
X0131800Y0226690D03*
X0131850Y0226740D03*
X0131900Y0226790D03*
X0127850Y0227890D03*
X0127850Y0227940D03*
X0127900Y0228090D03*
X0127900Y0228140D03*
X0127950Y0228290D03*
X0127950Y0228340D03*
X0128000Y0228490D03*
X0128000Y0228540D03*
X0127800Y0227740D03*
X0127800Y0227690D03*
X0127750Y0227540D03*
X0127750Y0227490D03*
X0127700Y0227340D03*
X0127700Y0227290D03*
X0127650Y0227140D03*
X0127650Y0227090D03*
X0127600Y0226940D03*
X0127600Y0226890D03*
X0127550Y0226740D03*
X0127550Y0226690D03*
X0127500Y0226540D03*
X0127500Y0226490D03*
X0127450Y0226340D03*
X0127450Y0226290D03*
X0127400Y0226140D03*
X0127400Y0226090D03*
X0127350Y0225940D03*
X0127350Y0225890D03*
X0127300Y0225740D03*
X0127300Y0225690D03*
X0127250Y0225540D03*
X0127250Y0225490D03*
X0127200Y0225340D03*
X0127200Y0225290D03*
X0127150Y0225140D03*
X0127150Y0225090D03*
X0127100Y0224940D03*
X0127100Y0224890D03*
X0127050Y0224740D03*
X0127050Y0224690D03*
X0127000Y0224540D03*
X0127000Y0224490D03*
X0126950Y0224340D03*
X0126950Y0224290D03*
X0126900Y0224140D03*
X0126900Y0224090D03*
X0126850Y0223940D03*
X0126850Y0223890D03*
X0126800Y0223740D03*
X0126800Y0223690D03*
X0126750Y0223540D03*
X0126750Y0223490D03*
X0126700Y0223340D03*
X0126700Y0223290D03*
X0126650Y0223140D03*
X0126650Y0223090D03*
X0126600Y0222940D03*
X0126600Y0222890D03*
X0126550Y0222740D03*
X0126550Y0222690D03*
X0126500Y0222540D03*
X0126500Y0222490D03*
X0126450Y0222340D03*
X0126450Y0222290D03*
X0126400Y0222140D03*
X0126400Y0222090D03*
X0126350Y0221940D03*
X0126350Y0221890D03*
X0126300Y0221740D03*
X0126300Y0221690D03*
X0126250Y0221540D03*
X0126250Y0221490D03*
X0126200Y0221340D03*
X0126200Y0221290D03*
X0126150Y0221140D03*
X0126150Y0221090D03*
X0126100Y0220940D03*
X0126100Y0220890D03*
X0126050Y0220740D03*
X0126050Y0220690D03*
X0126000Y0220540D03*
X0126000Y0220490D03*
X0125950Y0220340D03*
X0125950Y0220290D03*
X0125900Y0220140D03*
X0125900Y0220090D03*
X0125850Y0219940D03*
X0125850Y0219890D03*
X0125800Y0219740D03*
X0125800Y0219690D03*
X0113100Y0221290D03*
X0110800Y0219590D03*
X0109400Y0221290D03*
X0109350Y0221340D03*
X0109450Y0223190D03*
X0109500Y0223390D03*
X0109500Y0223440D03*
X0109550Y0223590D03*
X0109550Y0223640D03*
X0104200Y0224990D03*
X0104200Y0225040D03*
X0104150Y0224940D03*
X0104150Y0224890D03*
X0104150Y0224840D03*
X0104100Y0224740D03*
X0104100Y0224690D03*
X0104050Y0224540D03*
X0104050Y0224490D03*
X0104000Y0224340D03*
X0104000Y0224290D03*
X0103950Y0224140D03*
X0103950Y0224090D03*
X0103900Y0223940D03*
X0103900Y0223890D03*
X0103850Y0223740D03*
X0103850Y0223690D03*
X0103800Y0223540D03*
X0103800Y0223490D03*
X0103750Y0223340D03*
X0103750Y0223290D03*
X0103700Y0223140D03*
X0103700Y0223090D03*
X0103650Y0222940D03*
X0103650Y0222890D03*
X0103600Y0222740D03*
X0103600Y0222690D03*
X0103550Y0222540D03*
X0103550Y0222490D03*
X0103500Y0222340D03*
X0103500Y0222290D03*
X0103450Y0222140D03*
X0103450Y0222090D03*
X0103400Y0221940D03*
X0103400Y0221890D03*
X0103350Y0221740D03*
X0103350Y0221690D03*
X0103300Y0221540D03*
X0103300Y0221490D03*
X0103250Y0221340D03*
X0103250Y0221290D03*
X0103200Y0221140D03*
X0103200Y0221090D03*
X0103150Y0220940D03*
X0103150Y0220890D03*
X0103100Y0220740D03*
X0103100Y0220690D03*
X0103050Y0220540D03*
X0103050Y0220490D03*
X0103000Y0220340D03*
X0103000Y0220290D03*
X0102950Y0220140D03*
X0102950Y0220090D03*
X0102900Y0219940D03*
X0102900Y0219890D03*
X0102850Y0219740D03*
X0102850Y0219690D03*
X0098900Y0220690D03*
X0098900Y0220740D03*
X0098950Y0220890D03*
X0098950Y0220940D03*
X0099000Y0221090D03*
X0099000Y0221140D03*
X0099050Y0221290D03*
X0099050Y0221340D03*
X0099100Y0221490D03*
X0099100Y0221540D03*
X0099150Y0221690D03*
X0099150Y0221740D03*
X0099200Y0221890D03*
X0099200Y0221940D03*
X0099250Y0222090D03*
X0099250Y0222140D03*
X0099300Y0222290D03*
X0099300Y0222340D03*
X0099350Y0222490D03*
X0099350Y0222540D03*
X0099400Y0222690D03*
X0099400Y0222740D03*
X0099450Y0222890D03*
X0099450Y0222940D03*
X0099500Y0223090D03*
X0099500Y0223140D03*
X0099550Y0223290D03*
X0099550Y0223340D03*
X0099600Y0223490D03*
X0099600Y0223540D03*
X0099650Y0223690D03*
X0099650Y0223740D03*
X0099700Y0223890D03*
X0099700Y0223940D03*
X0099750Y0224090D03*
X0099750Y0224140D03*
X0099800Y0224290D03*
X0099800Y0224340D03*
X0099850Y0224490D03*
X0099850Y0224540D03*
X0099900Y0224690D03*
X0099900Y0224740D03*
X0099950Y0224890D03*
X0099950Y0224940D03*
X0100000Y0225090D03*
X0100000Y0225140D03*
X0100050Y0225290D03*
X0100050Y0225340D03*
X0100100Y0225490D03*
X0100100Y0225540D03*
X0100150Y0225690D03*
X0100150Y0225740D03*
X0100200Y0225890D03*
X0100200Y0225940D03*
X0100250Y0226090D03*
X0100250Y0226140D03*
X0100300Y0226290D03*
X0100300Y0226340D03*
X0100350Y0226490D03*
X0100350Y0226540D03*
X0100400Y0226690D03*
X0100400Y0226740D03*
X0100450Y0226890D03*
X0100450Y0226940D03*
X0100500Y0227090D03*
X0100500Y0227140D03*
X0100550Y0227290D03*
X0100550Y0227340D03*
X0100600Y0227490D03*
X0100600Y0227540D03*
X0100650Y0227690D03*
X0100650Y0227740D03*
X0100700Y0227890D03*
X0100700Y0227940D03*
X0100750Y0228090D03*
X0100750Y0228140D03*
X0100800Y0228290D03*
X0100800Y0228340D03*
X0100850Y0228490D03*
X0100850Y0228540D03*
X0101050Y0229340D03*
X0101050Y0229390D03*
X0101100Y0229540D03*
X0101100Y0229590D03*
X0101150Y0229740D03*
X0101150Y0229790D03*
X0101200Y0229940D03*
X0101200Y0229990D03*
X0101250Y0230140D03*
X0101250Y0230190D03*
X0101300Y0230340D03*
X0101300Y0230390D03*
X0101350Y0230540D03*
X0101350Y0230590D03*
X0101400Y0230740D03*
X0101400Y0230790D03*
X0101450Y0230990D03*
X0101500Y0231190D03*
X0101550Y0231390D03*
X0101600Y0231590D03*
X0113150Y0228690D03*
X0098850Y0220540D03*
X0098850Y0220490D03*
X0098800Y0220340D03*
X0098800Y0220290D03*
X0098750Y0220140D03*
X0098750Y0220090D03*
X0098700Y0219940D03*
X0098700Y0219890D03*
X0098650Y0219740D03*
X0098650Y0219690D03*
X0138150Y0219690D03*
X0138150Y0219740D03*
X0138200Y0219890D03*
X0138200Y0219940D03*
X0138250Y0220090D03*
X0138250Y0220140D03*
X0138300Y0220290D03*
X0138300Y0220340D03*
X0138350Y0220490D03*
X0138350Y0220540D03*
X0138400Y0220690D03*
X0138400Y0220740D03*
X0138450Y0220890D03*
X0138450Y0220940D03*
X0138500Y0221090D03*
X0138500Y0221140D03*
X0138550Y0221290D03*
X0138550Y0221340D03*
X0138600Y0221490D03*
X0138600Y0221540D03*
X0138650Y0221690D03*
X0138650Y0221740D03*
X0138700Y0221890D03*
X0138700Y0221940D03*
X0138750Y0222040D03*
X0139650Y0225740D03*
X0139650Y0225790D03*
X0139700Y0225940D03*
X0139700Y0225990D03*
X0139750Y0226140D03*
X0139750Y0226190D03*
X0139800Y0226340D03*
X0139800Y0226390D03*
X0139850Y0226540D03*
X0139850Y0226590D03*
X0139900Y0226740D03*
X0139900Y0226790D03*
X0139950Y0226940D03*
X0139950Y0226990D03*
X0140000Y0227140D03*
X0140000Y0227190D03*
X0140050Y0227340D03*
X0140050Y0227390D03*
X0140100Y0227540D03*
X0140100Y0227590D03*
X0140150Y0227740D03*
X0140150Y0227790D03*
X0140200Y0227940D03*
X0140200Y0227990D03*
X0140250Y0228140D03*
X0140250Y0228190D03*
X0140300Y0228340D03*
X0140300Y0228390D03*
X0140350Y0228540D03*
X0140350Y0228590D03*
X0140400Y0228740D03*
X0140400Y0228790D03*
X0140450Y0228940D03*
X0140450Y0228990D03*
X0140500Y0229140D03*
X0140500Y0229190D03*
X0140550Y0229340D03*
X0140550Y0229390D03*
X0140600Y0229540D03*
X0140600Y0229590D03*
X0140650Y0229740D03*
X0140650Y0229790D03*
X0140700Y0229990D03*
X0140750Y0230190D03*
X0140800Y0230390D03*
X0140850Y0230590D03*
X0140900Y0230790D03*
X0140950Y0230990D03*
X0141000Y0231190D03*
X0141050Y0231390D03*
X0141100Y0231590D03*
X0143800Y0227040D03*
X0143750Y0226990D03*
X0143700Y0226940D03*
X0143600Y0226790D03*
X0143550Y0226740D03*
X0143500Y0226690D03*
X0143450Y0226640D03*
X0143400Y0226590D03*
X0143350Y0226540D03*
X0143100Y0226240D03*
D22*
X0143075Y0226190D03*
X0143025Y0226140D03*
X0142975Y0226090D03*
X0142925Y0226040D03*
X0142875Y0225990D03*
X0143125Y0226290D03*
X0143175Y0226340D03*
X0143225Y0226390D03*
X0143275Y0226440D03*
X0143325Y0226490D03*
X0140025Y0227240D03*
X0140025Y0227290D03*
X0140075Y0227440D03*
X0140075Y0227490D03*
X0140125Y0227640D03*
X0140125Y0227690D03*
X0140175Y0227840D03*
X0140175Y0227890D03*
X0140225Y0228040D03*
X0140225Y0228090D03*
X0140275Y0228240D03*
X0140275Y0228290D03*
X0140325Y0228440D03*
X0140325Y0228490D03*
X0140375Y0228640D03*
X0140375Y0228690D03*
X0140425Y0228840D03*
X0140425Y0228890D03*
X0140475Y0229040D03*
X0140475Y0229090D03*
X0140525Y0229240D03*
X0140525Y0229290D03*
X0140575Y0229440D03*
X0140575Y0229490D03*
X0140625Y0229640D03*
X0140625Y0229690D03*
X0140675Y0229840D03*
X0140675Y0229890D03*
X0140675Y0229940D03*
X0140725Y0230040D03*
X0140725Y0230090D03*
X0140725Y0230140D03*
X0140775Y0230240D03*
X0140775Y0230290D03*
X0140775Y0230340D03*
X0140825Y0230440D03*
X0140825Y0230490D03*
X0140825Y0230540D03*
X0140875Y0230640D03*
X0140875Y0230690D03*
X0140875Y0230740D03*
X0140925Y0230840D03*
X0140925Y0230890D03*
X0140925Y0230940D03*
X0140975Y0231040D03*
X0140975Y0231090D03*
X0140975Y0231140D03*
X0141025Y0231240D03*
X0141025Y0231290D03*
X0141025Y0231340D03*
X0141075Y0231440D03*
X0141075Y0231490D03*
X0141075Y0231540D03*
X0139975Y0227090D03*
X0139975Y0227040D03*
X0139925Y0226890D03*
X0139925Y0226840D03*
X0139875Y0226690D03*
X0139875Y0226640D03*
X0139825Y0226490D03*
X0139825Y0226440D03*
X0139775Y0226290D03*
X0139775Y0226240D03*
X0139725Y0226090D03*
X0139725Y0226040D03*
X0139675Y0225890D03*
X0139675Y0225840D03*
X0139625Y0225690D03*
X0138725Y0221990D03*
X0138675Y0221840D03*
X0138675Y0221790D03*
X0138625Y0221640D03*
X0138625Y0221590D03*
X0138575Y0221440D03*
X0138575Y0221390D03*
X0138525Y0221240D03*
X0138525Y0221190D03*
X0138475Y0221040D03*
X0138475Y0220990D03*
X0138425Y0220840D03*
X0138425Y0220790D03*
X0138375Y0220640D03*
X0138375Y0220590D03*
X0138325Y0220440D03*
X0138325Y0220390D03*
X0138275Y0220240D03*
X0138275Y0220190D03*
X0138225Y0220040D03*
X0138225Y0219990D03*
X0138175Y0219840D03*
X0138175Y0219790D03*
X0138125Y0219640D03*
X0134575Y0221590D03*
X0134525Y0221540D03*
X0132025Y0219590D03*
X0130525Y0221790D03*
X0130525Y0221840D03*
X0130525Y0221890D03*
X0130525Y0221940D03*
X0130525Y0221990D03*
X0130525Y0222040D03*
X0130525Y0222090D03*
X0130525Y0222140D03*
X0130525Y0222190D03*
X0130525Y0222240D03*
X0130525Y0222290D03*
X0130525Y0222340D03*
X0130525Y0222390D03*
X0130525Y0222440D03*
X0130525Y0222490D03*
X0130525Y0222540D03*
X0130525Y0222590D03*
X0130575Y0222640D03*
X0130575Y0222690D03*
X0130575Y0222740D03*
X0130575Y0222790D03*
X0130575Y0222840D03*
X0130575Y0222890D03*
X0130625Y0223040D03*
X0130625Y0223090D03*
X0130625Y0223140D03*
X0130675Y0223340D03*
X0130725Y0223590D03*
X0130775Y0223790D03*
X0130925Y0224390D03*
X0131025Y0224740D03*
X0131075Y0224890D03*
X0131075Y0224940D03*
X0131125Y0225040D03*
X0131125Y0225090D03*
X0131175Y0225190D03*
X0131175Y0225240D03*
X0131175Y0225290D03*
X0131225Y0225340D03*
X0131225Y0225390D03*
X0131225Y0225440D03*
X0131275Y0225490D03*
X0131275Y0225540D03*
X0131275Y0225590D03*
X0131325Y0225640D03*
X0131325Y0225690D03*
X0131375Y0225790D03*
X0131375Y0225840D03*
X0131425Y0225940D03*
X0131475Y0226040D03*
X0131475Y0226090D03*
X0131525Y0226190D03*
X0131575Y0226290D03*
X0131625Y0226390D03*
X0131675Y0226490D03*
X0131725Y0226540D03*
X0131725Y0226590D03*
X0131775Y0226640D03*
X0127775Y0227590D03*
X0127775Y0227640D03*
X0127825Y0227790D03*
X0127825Y0227840D03*
X0127875Y0227990D03*
X0127875Y0228040D03*
X0127925Y0228190D03*
X0127925Y0228240D03*
X0127975Y0228390D03*
X0127975Y0228440D03*
X0128025Y0228590D03*
X0127725Y0227440D03*
X0127725Y0227390D03*
X0127675Y0227240D03*
X0127675Y0227190D03*
X0127625Y0227040D03*
X0127625Y0226990D03*
X0127575Y0226840D03*
X0127575Y0226790D03*
X0127525Y0226640D03*
X0127525Y0226590D03*
X0127475Y0226440D03*
X0127475Y0226390D03*
X0127425Y0226240D03*
X0127425Y0226190D03*
X0127375Y0226040D03*
X0127375Y0225990D03*
X0127325Y0225840D03*
X0127325Y0225790D03*
X0127275Y0225640D03*
X0127275Y0225590D03*
X0127225Y0225440D03*
X0127225Y0225390D03*
X0127175Y0225240D03*
X0127175Y0225190D03*
X0127125Y0225040D03*
X0127125Y0224990D03*
X0127075Y0224840D03*
X0127075Y0224790D03*
X0127025Y0224640D03*
X0127025Y0224590D03*
X0126975Y0224440D03*
X0126975Y0224390D03*
X0126925Y0224240D03*
X0126925Y0224190D03*
X0126875Y0224040D03*
X0126875Y0223990D03*
X0126825Y0223840D03*
X0126825Y0223790D03*
X0126775Y0223640D03*
X0126775Y0223590D03*
X0126725Y0223440D03*
X0126725Y0223390D03*
X0126675Y0223240D03*
X0126675Y0223190D03*
X0126625Y0223040D03*
X0126625Y0222990D03*
X0126575Y0222840D03*
X0126575Y0222790D03*
X0126525Y0222640D03*
X0126525Y0222590D03*
X0126475Y0222440D03*
X0126475Y0222390D03*
X0126425Y0222240D03*
X0126425Y0222190D03*
X0126375Y0222040D03*
X0126375Y0221990D03*
X0126325Y0221840D03*
X0126325Y0221790D03*
X0126275Y0221640D03*
X0126275Y0221590D03*
X0126225Y0221440D03*
X0126225Y0221390D03*
X0126175Y0221240D03*
X0126175Y0221190D03*
X0126125Y0221040D03*
X0126125Y0220990D03*
X0126075Y0220840D03*
X0126075Y0220790D03*
X0126025Y0220640D03*
X0126025Y0220590D03*
X0125975Y0220440D03*
X0125975Y0220390D03*
X0125925Y0220240D03*
X0125925Y0220190D03*
X0125875Y0220040D03*
X0125875Y0219990D03*
X0125825Y0219840D03*
X0125825Y0219790D03*
X0125775Y0219640D03*
X0135875Y0226990D03*
X0110775Y0226890D03*
X0110725Y0226840D03*
X0110025Y0225390D03*
X0109525Y0223540D03*
X0109525Y0223490D03*
X0109475Y0223340D03*
X0109475Y0223290D03*
X0109475Y0223240D03*
X0109425Y0223140D03*
X0109425Y0223090D03*
X0109425Y0223040D03*
X0109425Y0222990D03*
X0109375Y0222890D03*
X0109375Y0222840D03*
X0109375Y0222790D03*
X0109325Y0221390D03*
X0103625Y0222790D03*
X0103625Y0222840D03*
X0103675Y0222990D03*
X0103675Y0223040D03*
X0103725Y0223190D03*
X0103725Y0223240D03*
X0103775Y0223390D03*
X0103775Y0223440D03*
X0103825Y0223590D03*
X0103825Y0223640D03*
X0103875Y0223790D03*
X0103875Y0223840D03*
X0103925Y0223990D03*
X0103925Y0224040D03*
X0103975Y0224190D03*
X0103975Y0224240D03*
X0104025Y0224390D03*
X0104025Y0224440D03*
X0104075Y0224590D03*
X0104075Y0224640D03*
X0104125Y0224790D03*
X0103575Y0222640D03*
X0103575Y0222590D03*
X0103525Y0222440D03*
X0103525Y0222390D03*
X0103475Y0222240D03*
X0103475Y0222190D03*
X0103425Y0222040D03*
X0103425Y0221990D03*
X0103375Y0221840D03*
X0103375Y0221790D03*
X0103325Y0221640D03*
X0103325Y0221590D03*
X0103275Y0221440D03*
X0103275Y0221390D03*
X0103225Y0221240D03*
X0103225Y0221190D03*
X0103175Y0221040D03*
X0103175Y0220990D03*
X0103125Y0220840D03*
X0103125Y0220790D03*
X0103075Y0220640D03*
X0103075Y0220590D03*
X0103025Y0220440D03*
X0103025Y0220390D03*
X0102975Y0220240D03*
X0102975Y0220190D03*
X0102925Y0220040D03*
X0102925Y0219990D03*
X0102875Y0219840D03*
X0102875Y0219790D03*
X0102825Y0219640D03*
X0098875Y0220590D03*
X0098875Y0220640D03*
X0098925Y0220790D03*
X0098925Y0220840D03*
X0098975Y0220990D03*
X0098975Y0221040D03*
X0099025Y0221190D03*
X0099025Y0221240D03*
X0099075Y0221390D03*
X0099075Y0221440D03*
X0099125Y0221590D03*
X0099125Y0221640D03*
X0099175Y0221790D03*
X0099175Y0221840D03*
X0099225Y0221990D03*
X0099225Y0222040D03*
X0099275Y0222190D03*
X0099275Y0222240D03*
X0099325Y0222390D03*
X0099325Y0222440D03*
X0099375Y0222590D03*
X0099375Y0222640D03*
X0099425Y0222790D03*
X0099425Y0222840D03*
X0099475Y0222990D03*
X0099475Y0223040D03*
X0099525Y0223190D03*
X0099525Y0223240D03*
X0099575Y0223390D03*
X0099575Y0223440D03*
X0099625Y0223590D03*
X0099625Y0223640D03*
X0099675Y0223790D03*
X0099675Y0223840D03*
X0099725Y0223990D03*
X0099725Y0224040D03*
X0099775Y0224190D03*
X0099775Y0224240D03*
X0099825Y0224390D03*
X0099825Y0224440D03*
X0099875Y0224590D03*
X0099875Y0224640D03*
X0099925Y0224790D03*
X0099925Y0224840D03*
X0099975Y0224990D03*
X0099975Y0225040D03*
X0100025Y0225190D03*
X0100025Y0225240D03*
X0100075Y0225390D03*
X0100075Y0225440D03*
X0100125Y0225590D03*
X0100125Y0225640D03*
X0100175Y0225790D03*
X0100175Y0225840D03*
X0100225Y0225990D03*
X0100225Y0226040D03*
X0100275Y0226190D03*
X0100275Y0226240D03*
X0100325Y0226390D03*
X0100325Y0226440D03*
X0100375Y0226590D03*
X0100375Y0226640D03*
X0100425Y0226790D03*
X0100425Y0226840D03*
X0100475Y0226990D03*
X0100475Y0227040D03*
X0100525Y0227190D03*
X0100525Y0227240D03*
X0100575Y0227390D03*
X0100575Y0227440D03*
X0100625Y0227590D03*
X0100625Y0227640D03*
X0100675Y0227790D03*
X0100675Y0227840D03*
X0100725Y0227990D03*
X0100725Y0228040D03*
X0100775Y0228190D03*
X0100775Y0228240D03*
X0100825Y0228390D03*
X0100825Y0228440D03*
X0100875Y0228590D03*
X0101075Y0229440D03*
X0101075Y0229490D03*
X0101125Y0229640D03*
X0101125Y0229690D03*
X0101175Y0229840D03*
X0101175Y0229890D03*
X0101225Y0230040D03*
X0101225Y0230090D03*
X0101275Y0230240D03*
X0101275Y0230290D03*
X0101325Y0230440D03*
X0101325Y0230490D03*
X0101375Y0230640D03*
X0101375Y0230690D03*
X0101425Y0230840D03*
X0101425Y0230890D03*
X0101425Y0230940D03*
X0101475Y0231040D03*
X0101475Y0231090D03*
X0101475Y0231140D03*
X0101525Y0231240D03*
X0101525Y0231290D03*
X0101525Y0231340D03*
X0101575Y0231440D03*
X0101575Y0231490D03*
X0101575Y0231540D03*
X0098825Y0220440D03*
X0098825Y0220390D03*
X0098775Y0220240D03*
X0098775Y0220190D03*
X0098725Y0220040D03*
X0098725Y0219990D03*
X0098675Y0219840D03*
X0098675Y0219790D03*
X0098625Y0219640D03*
D23*
X0091475Y0221390D03*
X0091475Y0221440D03*
X0091475Y0221490D03*
X0091475Y0221540D03*
X0091525Y0221590D03*
X0091525Y0221640D03*
X0091525Y0221690D03*
X0091525Y0221740D03*
X0091575Y0221790D03*
X0091575Y0221840D03*
X0091575Y0221890D03*
X0091575Y0221940D03*
X0091625Y0221990D03*
X0091625Y0222040D03*
X0091625Y0222090D03*
X0091625Y0222140D03*
X0091675Y0222190D03*
X0091675Y0222240D03*
X0091675Y0222290D03*
X0091675Y0222340D03*
X0091725Y0222390D03*
X0091725Y0222440D03*
X0091725Y0222490D03*
X0091725Y0222540D03*
X0091775Y0222640D03*
X0091775Y0222690D03*
X0091775Y0222740D03*
X0091825Y0222840D03*
X0091825Y0222890D03*
X0091825Y0222940D03*
X0091875Y0223040D03*
X0091875Y0223090D03*
X0091875Y0223140D03*
X0091925Y0223240D03*
X0091925Y0223290D03*
X0091925Y0223340D03*
X0091975Y0223440D03*
X0091975Y0223490D03*
X0091975Y0223540D03*
X0092025Y0223640D03*
X0092025Y0223690D03*
X0092025Y0223740D03*
X0092075Y0223840D03*
X0092075Y0223890D03*
X0092075Y0223940D03*
X0092125Y0224040D03*
X0092125Y0224090D03*
X0092125Y0224140D03*
X0092175Y0224240D03*
X0092175Y0224290D03*
X0092175Y0224340D03*
X0092225Y0224440D03*
X0092225Y0224490D03*
X0092225Y0224540D03*
X0092875Y0227040D03*
X0092875Y0227090D03*
X0092875Y0227140D03*
X0092925Y0227240D03*
X0092925Y0227290D03*
X0092925Y0227340D03*
X0092975Y0227440D03*
X0092975Y0227490D03*
X0092975Y0227540D03*
X0093025Y0227640D03*
X0093025Y0227690D03*
X0093025Y0227740D03*
X0093075Y0227840D03*
X0093075Y0227890D03*
X0093075Y0227940D03*
X0093125Y0228040D03*
X0093125Y0228090D03*
X0093125Y0228140D03*
X0093175Y0228240D03*
X0093175Y0228290D03*
X0093175Y0228340D03*
X0093225Y0228440D03*
X0093225Y0228490D03*
X0093225Y0228540D03*
X0093275Y0228640D03*
X0093275Y0228690D03*
X0093275Y0228740D03*
X0093275Y0228790D03*
X0093325Y0228840D03*
X0093325Y0228890D03*
X0093325Y0228940D03*
X0093325Y0228990D03*
X0093375Y0229040D03*
X0093375Y0229090D03*
X0091425Y0221340D03*
X0091425Y0221290D03*
X0091425Y0221240D03*
X0091425Y0221190D03*
X0091375Y0221140D03*
X0091375Y0221090D03*
X0091375Y0221040D03*
X0091375Y0220990D03*
X0091325Y0220940D03*
X0091325Y0220890D03*
X0091325Y0220840D03*
X0091325Y0220790D03*
X0091275Y0220740D03*
X0091275Y0220690D03*
X0091275Y0220640D03*
X0091275Y0220590D03*
X0091225Y0220540D03*
X0091225Y0220490D03*
X0091225Y0220440D03*
X0091225Y0220390D03*
X0091175Y0220340D03*
X0091175Y0220290D03*
X0091175Y0220240D03*
X0091175Y0220190D03*
X0091125Y0220140D03*
X0091125Y0220090D03*
X0091125Y0220040D03*
X0091125Y0219990D03*
X0091075Y0219940D03*
X0091075Y0219890D03*
X0091075Y0219840D03*
X0091075Y0219790D03*
X0091025Y0219740D03*
X0091025Y0219690D03*
X0091025Y0219640D03*
X0104325Y0225340D03*
X0104375Y0225390D03*
X0109475Y0221240D03*
X0112975Y0221240D03*
X0117175Y0220140D03*
X0117175Y0220090D03*
X0117175Y0220040D03*
X0117175Y0219990D03*
X0117125Y0219940D03*
X0117125Y0219890D03*
X0117125Y0219840D03*
X0117125Y0219790D03*
X0117075Y0219740D03*
X0117075Y0219690D03*
X0117075Y0219640D03*
X0117225Y0220190D03*
X0117225Y0220240D03*
X0117225Y0220290D03*
X0117225Y0220340D03*
X0117275Y0220390D03*
X0117275Y0220440D03*
X0117275Y0220490D03*
X0117275Y0220540D03*
X0117325Y0220640D03*
X0117325Y0220690D03*
X0117325Y0220740D03*
X0117375Y0220840D03*
X0117375Y0220890D03*
X0117375Y0220940D03*
X0117425Y0221040D03*
X0117425Y0221090D03*
X0117425Y0221140D03*
X0117475Y0221240D03*
X0117475Y0221290D03*
X0117475Y0221340D03*
X0117525Y0221440D03*
X0117525Y0221490D03*
X0117525Y0221540D03*
X0117575Y0221640D03*
X0117575Y0221690D03*
X0117575Y0221740D03*
X0117625Y0221840D03*
X0117625Y0221890D03*
X0117625Y0221940D03*
X0117675Y0222040D03*
X0117675Y0222090D03*
X0117675Y0222140D03*
X0117675Y0222190D03*
X0117725Y0222240D03*
X0117725Y0222290D03*
X0117725Y0222340D03*
X0117725Y0222390D03*
X0117775Y0222440D03*
X0117775Y0222490D03*
X0117775Y0222540D03*
X0117775Y0222590D03*
X0117825Y0222640D03*
X0117825Y0222690D03*
X0117825Y0222740D03*
X0117825Y0222790D03*
X0117875Y0222840D03*
X0117875Y0222890D03*
X0117875Y0222940D03*
X0117875Y0222990D03*
X0117925Y0223040D03*
X0117925Y0223090D03*
X0117925Y0223140D03*
X0117925Y0223190D03*
X0117975Y0223240D03*
X0117975Y0223290D03*
X0117975Y0223340D03*
X0117975Y0223390D03*
X0118025Y0223490D03*
X0118025Y0223540D03*
X0118025Y0223590D03*
X0118075Y0223690D03*
X0118075Y0223740D03*
X0118075Y0223790D03*
X0118125Y0223890D03*
X0118125Y0223940D03*
X0118125Y0223990D03*
X0118175Y0224090D03*
X0118175Y0224140D03*
X0118175Y0224190D03*
X0118775Y0226540D03*
X0118825Y0226640D03*
X0118825Y0226690D03*
X0118825Y0226740D03*
X0118875Y0226890D03*
X0118875Y0226940D03*
X0118925Y0227090D03*
X0118925Y0227140D03*
X0118925Y0227190D03*
X0118975Y0227290D03*
X0118975Y0227340D03*
X0118975Y0227390D03*
X0119025Y0227490D03*
X0119025Y0227540D03*
X0119025Y0227590D03*
X0119075Y0227690D03*
X0119075Y0227740D03*
X0119075Y0227790D03*
X0119125Y0227890D03*
X0119125Y0227940D03*
X0119125Y0227990D03*
X0119175Y0228090D03*
X0119175Y0228140D03*
X0119175Y0228190D03*
X0119225Y0228290D03*
X0119225Y0228340D03*
X0119225Y0228390D03*
X0119275Y0228490D03*
X0119275Y0228540D03*
X0119275Y0228590D03*
X0119325Y0228690D03*
X0119325Y0228740D03*
X0119325Y0228790D03*
X0119375Y0228890D03*
X0119375Y0228940D03*
X0119375Y0228990D03*
X0119425Y0229090D03*
X0119425Y0229140D03*
X0119425Y0229190D03*
X0119475Y0229290D03*
X0110925Y0226990D03*
X0130625Y0221490D03*
X0134375Y0221440D03*
X0138875Y0222240D03*
X0138875Y0222290D03*
X0142425Y0222640D03*
X0142425Y0222690D03*
X0142475Y0222590D03*
X0142475Y0222540D03*
X0142475Y0222490D03*
X0142475Y0222440D03*
X0142525Y0222390D03*
X0142525Y0222340D03*
X0142525Y0222290D03*
X0142525Y0222240D03*
X0142575Y0222190D03*
X0142575Y0222140D03*
X0142575Y0222090D03*
X0142625Y0221990D03*
X0142625Y0221940D03*
X0142625Y0221890D03*
X0142675Y0221740D03*
X0142725Y0221540D03*
X0142775Y0221340D03*
X0144575Y0227940D03*
X0144625Y0227990D03*
X0144675Y0228040D03*
X0144725Y0228090D03*
X0144775Y0228140D03*
X0144925Y0228340D03*
X0144975Y0228390D03*
X0145025Y0228440D03*
X0134575Y0228840D03*
X0132075Y0226990D03*
D24*
X0124125Y0228990D03*
X0124125Y0229040D03*
X0123825Y0227140D03*
X0123775Y0227040D03*
X0123725Y0226990D03*
X0110825Y0219640D03*
X0104525Y0225640D03*
X0139025Y0222540D03*
X0139075Y0222640D03*
D25*
X0139050Y0222590D03*
X0139000Y0222490D03*
X0132050Y0219640D03*
X0130700Y0221440D03*
X0123800Y0227090D03*
X0123850Y0227190D03*
X0123900Y0227290D03*
X0124200Y0228690D03*
X0124200Y0228740D03*
X0124200Y0228790D03*
X0124200Y0228840D03*
X0124150Y0228890D03*
X0124150Y0228940D03*
X0113150Y0228640D03*
X0104500Y0225590D03*
X0104450Y0225540D03*
D26*
X0104425Y0225490D03*
X0123875Y0227240D03*
X0123925Y0227340D03*
X0123925Y0227390D03*
X0123975Y0227440D03*
X0123975Y0227490D03*
X0124025Y0227590D03*
X0124225Y0228590D03*
X0124225Y0228640D03*
X0135725Y0227090D03*
X0138975Y0222440D03*
X0142925Y0220790D03*
X0142975Y0220590D03*
X0143025Y0220440D03*
X0143025Y0220390D03*
X0143025Y0220340D03*
X0143075Y0220240D03*
X0143075Y0220190D03*
X0143075Y0220140D03*
X0143125Y0220040D03*
X0143125Y0219990D03*
X0143125Y0219940D03*
X0143175Y0219890D03*
X0143175Y0219840D03*
X0143175Y0219790D03*
X0143175Y0219740D03*
X0143225Y0219690D03*
X0143225Y0219640D03*
D27*
X0123475Y0226690D03*
X0124025Y0229240D03*
X0110825Y0219690D03*
X0104725Y0225840D03*
D28*
X0104675Y0225790D03*
X0113125Y0228590D03*
X0123525Y0226740D03*
X0123575Y0226790D03*
X0124075Y0229190D03*
X0132075Y0219690D03*
D29*
X0123250Y0226540D03*
X0110850Y0219740D03*
D30*
X0104800Y0225890D03*
X0113100Y0228540D03*
X0123350Y0226590D03*
X0123950Y0229290D03*
X0132100Y0219740D03*
D31*
X0110850Y0219790D03*
D32*
X0104900Y0225940D03*
X0113100Y0228490D03*
X0132100Y0219790D03*
X0134500Y0228690D03*
D33*
X0132125Y0219840D03*
X0113075Y0228440D03*
X0110875Y0219840D03*
D34*
X0110875Y0219890D03*
D35*
X0113050Y0228390D03*
X0132150Y0219890D03*
X0134450Y0228590D03*
D36*
X0132150Y0219940D03*
X0110900Y0219940D03*
X0105250Y0226040D03*
D37*
X0110925Y0219990D03*
X0132175Y0219990D03*
X0134425Y0228490D03*
D38*
X0134400Y0228440D03*
X0132200Y0220040D03*
X0119100Y0224240D03*
X0110900Y0220040D03*
D39*
X0110925Y0220090D03*
D40*
X0132200Y0220090D03*
X0134400Y0228390D03*
D41*
X0132150Y0227040D03*
X0124200Y0228240D03*
X0124200Y0228290D03*
X0124200Y0228340D03*
X0124200Y0228390D03*
X0124200Y0228440D03*
X0124200Y0228490D03*
X0124200Y0228540D03*
X0124150Y0228190D03*
X0124150Y0228140D03*
X0124150Y0228090D03*
X0124150Y0228040D03*
X0124150Y0227990D03*
X0124100Y0227940D03*
X0124100Y0227890D03*
X0124100Y0227840D03*
X0124100Y0227790D03*
X0124050Y0227740D03*
X0124050Y0227690D03*
X0124050Y0227640D03*
X0124000Y0227540D03*
X0119300Y0228640D03*
X0119250Y0228440D03*
X0119200Y0228240D03*
X0119150Y0228040D03*
X0119100Y0227840D03*
X0119050Y0227640D03*
X0119000Y0227440D03*
X0118950Y0227240D03*
X0118900Y0227040D03*
X0118900Y0226990D03*
X0118850Y0226840D03*
X0118850Y0226790D03*
X0118800Y0226590D03*
X0119350Y0228840D03*
X0119400Y0229040D03*
X0119450Y0229240D03*
X0104400Y0225440D03*
X0093150Y0228190D03*
X0093100Y0227990D03*
X0093050Y0227790D03*
X0093000Y0227590D03*
X0092950Y0227390D03*
X0092900Y0227190D03*
X0092850Y0226990D03*
X0093200Y0228390D03*
X0093250Y0228590D03*
X0092200Y0224390D03*
X0092150Y0224190D03*
X0092100Y0223990D03*
X0092050Y0223790D03*
X0092000Y0223590D03*
X0091950Y0223390D03*
X0091900Y0223190D03*
X0091850Y0222990D03*
X0091800Y0222790D03*
X0091750Y0222590D03*
X0138900Y0222340D03*
X0138950Y0222390D03*
X0142600Y0222040D03*
X0142650Y0221840D03*
X0142650Y0221790D03*
X0142700Y0221690D03*
X0142700Y0221640D03*
X0142700Y0221590D03*
X0142750Y0221490D03*
X0142750Y0221440D03*
X0142750Y0221390D03*
X0142800Y0221290D03*
X0142800Y0221240D03*
X0142800Y0221190D03*
X0142850Y0221140D03*
X0142850Y0221090D03*
X0142850Y0221040D03*
X0142850Y0220990D03*
X0142900Y0220940D03*
X0142900Y0220890D03*
X0142900Y0220840D03*
X0142950Y0220740D03*
X0142950Y0220690D03*
X0142950Y0220640D03*
X0143000Y0220540D03*
X0143000Y0220490D03*
X0143050Y0220290D03*
X0143100Y0220090D03*
X0144800Y0228190D03*
X0144850Y0228240D03*
X0144900Y0228290D03*
X0145050Y0228490D03*
X0145100Y0228540D03*
X0145150Y0228590D03*
D42*
X0134375Y0228340D03*
X0132225Y0220140D03*
X0112975Y0228090D03*
X0110925Y0220140D03*
D43*
X0110975Y0220190D03*
X0112975Y0228040D03*
X0132225Y0220190D03*
X0134325Y0228290D03*
D44*
X0134325Y0228240D03*
X0132225Y0220240D03*
X0110975Y0220240D03*
D45*
X0110975Y0220290D03*
X0105725Y0226190D03*
X0105775Y0226390D03*
X0105825Y0226590D03*
X0105875Y0226790D03*
X0105925Y0226990D03*
X0105975Y0227190D03*
X0105975Y0227240D03*
X0112925Y0227940D03*
X0134325Y0228190D03*
X0140675Y0224990D03*
X0140725Y0225040D03*
X0140675Y0224890D03*
X0140675Y0224840D03*
D46*
X0140650Y0224790D03*
X0140750Y0225090D03*
X0132250Y0220290D03*
X0105900Y0226840D03*
X0105900Y0226890D03*
X0105900Y0226940D03*
X0105950Y0227040D03*
X0105950Y0227090D03*
X0105950Y0227140D03*
X0106000Y0227290D03*
X0106000Y0227340D03*
X0105850Y0226740D03*
X0105850Y0226690D03*
X0105850Y0226640D03*
X0105800Y0226540D03*
X0105800Y0226490D03*
X0105800Y0226440D03*
X0105750Y0226340D03*
X0105750Y0226290D03*
X0105750Y0226240D03*
X0105700Y0226140D03*
X0105700Y0226090D03*
D47*
X0111000Y0220340D03*
X0132250Y0220340D03*
X0140650Y0224590D03*
X0140800Y0225190D03*
X0140850Y0225240D03*
D48*
X0140875Y0225290D03*
X0140675Y0224540D03*
X0140675Y0224490D03*
X0140675Y0224440D03*
X0134275Y0228090D03*
X0132275Y0220390D03*
X0112925Y0227840D03*
X0111025Y0220390D03*
D49*
X0111025Y0220440D03*
X0132275Y0220440D03*
X0140675Y0224240D03*
X0140675Y0224290D03*
X0140675Y0224340D03*
X0140675Y0224390D03*
X0140925Y0225390D03*
X0140975Y0225440D03*
X0134275Y0228040D03*
D50*
X0134250Y0227990D03*
X0141000Y0225490D03*
X0132300Y0220490D03*
X0119550Y0224390D03*
X0112900Y0227740D03*
X0121350Y0231490D03*
X0111050Y0220490D03*
D51*
X0111050Y0220540D03*
X0112850Y0227640D03*
X0119650Y0224440D03*
D52*
X0132325Y0220540D03*
X0140675Y0223890D03*
X0140675Y0223940D03*
X0140675Y0223990D03*
X0111075Y0220590D03*
D53*
X0117300Y0220590D03*
X0117350Y0220790D03*
X0117400Y0220990D03*
X0117450Y0221190D03*
X0117500Y0221390D03*
X0117550Y0221590D03*
X0117600Y0221790D03*
X0117650Y0221990D03*
X0118000Y0223440D03*
X0118050Y0223640D03*
X0118100Y0223840D03*
X0118150Y0224040D03*
X0104300Y0225240D03*
X0104300Y0225290D03*
X0132000Y0226940D03*
X0134450Y0221490D03*
X0138800Y0222140D03*
X0138850Y0222190D03*
X0144100Y0227390D03*
X0144150Y0227440D03*
X0144200Y0227490D03*
X0144250Y0227540D03*
X0144300Y0227590D03*
X0144300Y0227640D03*
X0144350Y0227690D03*
X0144400Y0227740D03*
X0144450Y0227790D03*
X0144500Y0227840D03*
X0144550Y0227890D03*
D54*
X0140675Y0223740D03*
X0140675Y0223690D03*
X0134175Y0227840D03*
X0132325Y0220640D03*
X0132325Y0220590D03*
X0112825Y0227540D03*
X0111075Y0220640D03*
D55*
X0111100Y0220690D03*
X0119750Y0224490D03*
X0140700Y0223640D03*
X0140700Y0223590D03*
D56*
X0140675Y0223540D03*
X0134175Y0227790D03*
X0121475Y0231390D03*
X0112825Y0227490D03*
X0132325Y0220690D03*
D57*
X0132350Y0220740D03*
X0140700Y0223390D03*
X0140700Y0223440D03*
X0140700Y0223490D03*
X0134150Y0227690D03*
X0134150Y0227740D03*
X0112800Y0227440D03*
X0111100Y0220740D03*
D58*
X0111125Y0220790D03*
X0112775Y0227390D03*
X0119825Y0224540D03*
X0132375Y0220790D03*
X0140675Y0223340D03*
X0121525Y0231340D03*
D59*
X0112750Y0227340D03*
X0111150Y0220840D03*
X0134150Y0227640D03*
X0140700Y0223290D03*
X0140700Y0223240D03*
X0140700Y0223190D03*
D60*
X0140675Y0223140D03*
X0134125Y0227590D03*
X0119875Y0224590D03*
X0112775Y0227290D03*
X0111125Y0220890D03*
X0132375Y0220840D03*
D61*
X0132400Y0220890D03*
X0140700Y0222990D03*
X0140700Y0223040D03*
X0140700Y0223090D03*
X0134100Y0227540D03*
X0121600Y0231290D03*
X0112750Y0227240D03*
X0119950Y0224640D03*
X0111150Y0220940D03*
D62*
X0111175Y0220990D03*
X0112725Y0227190D03*
X0132425Y0220940D03*
X0134075Y0227490D03*
D63*
X0134050Y0227440D03*
X0140700Y0222940D03*
X0140700Y0222890D03*
X0140700Y0222840D03*
X0140700Y0222790D03*
X0132400Y0220990D03*
X0112700Y0227090D03*
X0112700Y0227140D03*
X0121600Y0231240D03*
X0111200Y0221040D03*
D64*
X0111175Y0221090D03*
X0112675Y0227040D03*
X0120025Y0224690D03*
X0132425Y0221040D03*
D65*
X0132450Y0221090D03*
X0140700Y0222740D03*
X0134050Y0227340D03*
X0134050Y0227390D03*
X0121650Y0231190D03*
X0111200Y0221140D03*
D66*
X0121700Y0231140D03*
X0134000Y0227240D03*
X0134000Y0227190D03*
X0132450Y0221190D03*
X0132450Y0221140D03*
D67*
X0120075Y0224740D03*
X0134025Y0227290D03*
X0111225Y0221190D03*
D68*
X0120125Y0224790D03*
X0120175Y0224840D03*
X0132475Y0221290D03*
X0132475Y0221240D03*
X0133975Y0227140D03*
X0121725Y0231090D03*
D69*
X0114550Y0226940D03*
X0110700Y0226790D03*
X0110650Y0226740D03*
X0110600Y0226690D03*
X0110200Y0225890D03*
X0110150Y0225790D03*
X0110150Y0225740D03*
X0110100Y0225640D03*
X0110100Y0225590D03*
X0110050Y0225540D03*
X0110050Y0225490D03*
X0110050Y0225440D03*
X0110000Y0225340D03*
X0109400Y0222940D03*
X0109350Y0222740D03*
X0109350Y0222690D03*
X0109350Y0222640D03*
X0109350Y0222590D03*
X0109300Y0222490D03*
X0109300Y0222440D03*
X0109300Y0222390D03*
X0109300Y0221440D03*
X0113200Y0221340D03*
X0131350Y0225740D03*
X0131400Y0225890D03*
X0131450Y0225990D03*
X0131500Y0226140D03*
X0131550Y0226240D03*
X0131600Y0226340D03*
X0131650Y0226440D03*
X0135900Y0226940D03*
X0142600Y0225690D03*
X0142650Y0225740D03*
X0142700Y0225790D03*
X0142750Y0225840D03*
X0142800Y0225890D03*
X0142850Y0225940D03*
X0134650Y0221640D03*
D70*
X0132500Y0221340D03*
X0094650Y0226840D03*
X0094650Y0226890D03*
X0094600Y0226690D03*
X0094600Y0226640D03*
X0094550Y0226490D03*
X0094550Y0226440D03*
X0094500Y0226290D03*
X0094500Y0226240D03*
X0094450Y0226090D03*
X0094450Y0226040D03*
X0094400Y0225890D03*
X0094400Y0225840D03*
X0094350Y0225690D03*
X0094350Y0225640D03*
X0094300Y0225490D03*
X0094300Y0225440D03*
X0094250Y0225290D03*
X0094250Y0225240D03*
X0094200Y0225090D03*
X0094200Y0225040D03*
X0094150Y0224890D03*
X0094150Y0224840D03*
X0094100Y0224690D03*
X0094100Y0224640D03*
D71*
X0104725Y0227390D03*
X0104725Y0227440D03*
X0104725Y0227490D03*
X0104725Y0227540D03*
X0104775Y0227590D03*
X0104775Y0227640D03*
X0104775Y0227690D03*
X0104775Y0227740D03*
X0104825Y0227790D03*
X0104825Y0227840D03*
X0104825Y0227890D03*
X0104825Y0227940D03*
X0104875Y0227990D03*
X0104875Y0228040D03*
X0104875Y0228090D03*
X0104875Y0228140D03*
X0104925Y0228190D03*
X0104925Y0228240D03*
X0104925Y0228290D03*
X0104925Y0228340D03*
X0104975Y0228390D03*
X0104975Y0228440D03*
X0104975Y0228490D03*
X0104975Y0228540D03*
X0105025Y0228590D03*
X0110275Y0226140D03*
X0110275Y0226090D03*
X0110275Y0226040D03*
X0110225Y0225990D03*
X0110225Y0225940D03*
X0110175Y0225840D03*
X0110125Y0225690D03*
X0110325Y0226190D03*
X0110325Y0226240D03*
X0110375Y0226290D03*
X0110375Y0226340D03*
X0110425Y0226390D03*
X0110475Y0226490D03*
X0110525Y0226540D03*
X0110525Y0226590D03*
X0110575Y0226640D03*
X0114575Y0226890D03*
X0113225Y0221390D03*
X0109275Y0221490D03*
X0109275Y0221540D03*
X0109275Y0221590D03*
X0109275Y0221640D03*
X0109275Y0221690D03*
X0109275Y0222140D03*
X0109275Y0222190D03*
X0109275Y0222240D03*
X0109275Y0222290D03*
X0109275Y0222340D03*
X0109325Y0222540D03*
X0134675Y0221690D03*
X0134725Y0221740D03*
X0135925Y0226840D03*
X0135925Y0226890D03*
D72*
X0132525Y0221390D03*
X0120225Y0224890D03*
X0121725Y0231040D03*
X0094675Y0226940D03*
X0094625Y0226790D03*
X0094625Y0226740D03*
X0094575Y0226590D03*
X0094575Y0226540D03*
X0094525Y0226390D03*
X0094525Y0226340D03*
X0094475Y0226190D03*
X0094475Y0226140D03*
X0094425Y0225990D03*
X0094425Y0225940D03*
X0094375Y0225790D03*
X0094375Y0225740D03*
X0094325Y0225590D03*
X0094325Y0225540D03*
X0094275Y0225390D03*
X0094275Y0225340D03*
X0094225Y0225190D03*
X0094225Y0225140D03*
X0094175Y0224990D03*
X0094175Y0224940D03*
X0094125Y0224790D03*
X0094125Y0224740D03*
X0094075Y0224590D03*
D73*
X0109250Y0222090D03*
X0109250Y0222040D03*
X0109250Y0221990D03*
X0109250Y0221940D03*
X0109250Y0221890D03*
X0109250Y0221840D03*
X0109250Y0221790D03*
X0109250Y0221740D03*
X0113300Y0221440D03*
X0113800Y0222540D03*
X0113850Y0222740D03*
X0110450Y0226440D03*
X0114600Y0226840D03*
X0134750Y0221790D03*
X0134800Y0221840D03*
X0135950Y0226740D03*
X0135950Y0226790D03*
X0148600Y0231390D03*
X0148600Y0231440D03*
X0148600Y0231490D03*
X0148650Y0231540D03*
X0148650Y0231590D03*
X0148650Y0231640D03*
X0148650Y0231690D03*
X0148700Y0231740D03*
X0148700Y0231790D03*
X0148700Y0231840D03*
X0148700Y0231890D03*
X0148750Y0231940D03*
X0148750Y0231990D03*
X0148750Y0232040D03*
X0148750Y0232090D03*
X0148800Y0232140D03*
X0148800Y0232190D03*
X0148800Y0232240D03*
X0148800Y0232290D03*
D74*
X0135975Y0226690D03*
X0135975Y0226640D03*
X0135975Y0226590D03*
X0135975Y0226540D03*
X0135975Y0226490D03*
X0135975Y0226440D03*
X0135975Y0226390D03*
X0135975Y0226340D03*
X0135975Y0226290D03*
X0135975Y0226240D03*
X0135925Y0226040D03*
X0135925Y0225990D03*
X0135925Y0225940D03*
X0135925Y0225890D03*
X0135875Y0225740D03*
X0135875Y0225690D03*
X0135875Y0225640D03*
X0135825Y0225490D03*
X0135825Y0225440D03*
X0135325Y0223340D03*
X0135275Y0223140D03*
X0135225Y0222940D03*
X0135125Y0222590D03*
X0135075Y0222440D03*
X0134975Y0222190D03*
X0134925Y0222090D03*
X0134875Y0221990D03*
X0134825Y0221890D03*
X0114525Y0225490D03*
X0114625Y0226790D03*
X0113825Y0222690D03*
X0113825Y0222640D03*
X0113825Y0222590D03*
X0113775Y0222490D03*
X0113775Y0222440D03*
X0113775Y0222390D03*
X0113725Y0222340D03*
X0113725Y0222290D03*
X0113725Y0222240D03*
X0113675Y0222140D03*
X0113625Y0221990D03*
X0113575Y0221890D03*
X0113525Y0221790D03*
X0113475Y0221690D03*
X0113425Y0221590D03*
X0113375Y0221540D03*
X0113325Y0221490D03*
D75*
X0104275Y0225190D03*
X0104225Y0225140D03*
X0104225Y0225090D03*
X0110825Y0226940D03*
X0114475Y0226990D03*
X0130575Y0221590D03*
X0130575Y0221540D03*
X0138775Y0222090D03*
X0135825Y0227040D03*
X0131975Y0226890D03*
X0131925Y0226840D03*
X0143625Y0226840D03*
X0143675Y0226890D03*
X0143825Y0227090D03*
X0143875Y0227140D03*
X0143925Y0227190D03*
X0143975Y0227240D03*
X0144025Y0227290D03*
X0144075Y0227340D03*
D76*
X0135950Y0226190D03*
X0135950Y0226140D03*
X0135950Y0226090D03*
X0135900Y0225840D03*
X0135900Y0225790D03*
X0135850Y0225590D03*
X0135850Y0225540D03*
X0135800Y0225390D03*
X0135800Y0225340D03*
X0135350Y0223440D03*
X0135350Y0223390D03*
X0135300Y0223290D03*
X0135300Y0223240D03*
X0135300Y0223190D03*
X0135250Y0223090D03*
X0135250Y0223040D03*
X0135250Y0222990D03*
X0135200Y0222890D03*
X0135200Y0222840D03*
X0135200Y0222790D03*
X0135150Y0222740D03*
X0135150Y0222690D03*
X0135150Y0222640D03*
X0135100Y0222540D03*
X0135100Y0222490D03*
X0135050Y0222390D03*
X0135050Y0222340D03*
X0135000Y0222290D03*
X0135000Y0222240D03*
X0134950Y0222140D03*
X0134900Y0222040D03*
X0134850Y0221940D03*
X0134600Y0228890D03*
X0114650Y0226740D03*
X0114650Y0226690D03*
X0114650Y0226640D03*
X0114650Y0226190D03*
X0114650Y0226140D03*
X0114600Y0225940D03*
X0114600Y0225890D03*
X0114600Y0225840D03*
X0114600Y0225790D03*
X0114600Y0225740D03*
X0114550Y0225690D03*
X0114550Y0225640D03*
X0114550Y0225590D03*
X0114550Y0225540D03*
X0114500Y0225440D03*
X0114500Y0225390D03*
X0114500Y0225340D03*
X0113700Y0222190D03*
X0113650Y0222090D03*
X0113650Y0222040D03*
X0113600Y0221940D03*
X0113550Y0221840D03*
X0113500Y0221740D03*
X0113450Y0221640D03*
D77*
X0104550Y0225690D03*
X0123650Y0226890D03*
X0123700Y0226940D03*
X0124100Y0229090D03*
X0132250Y0227090D03*
X0139100Y0222690D03*
D78*
X0120600Y0225390D03*
X0112100Y0224990D03*
X0112050Y0224840D03*
X0112050Y0224790D03*
X0112050Y0224740D03*
X0112000Y0224640D03*
X0112000Y0224590D03*
X0112000Y0224540D03*
X0111950Y0224490D03*
X0111950Y0224440D03*
X0111950Y0224390D03*
X0111950Y0224340D03*
X0111900Y0224290D03*
X0111900Y0224240D03*
X0111900Y0224190D03*
X0111900Y0224140D03*
X0111850Y0224090D03*
X0111850Y0224040D03*
X0111850Y0223990D03*
X0111850Y0223940D03*
X0111800Y0223890D03*
X0111800Y0223840D03*
X0111800Y0223790D03*
X0111800Y0223740D03*
X0111750Y0223690D03*
D79*
X0112850Y0227590D03*
X0121400Y0231440D03*
X0134200Y0227890D03*
X0140700Y0223840D03*
X0140700Y0223790D03*
D80*
X0140675Y0224040D03*
X0140675Y0224090D03*
X0140675Y0224140D03*
X0140675Y0224190D03*
X0141025Y0225540D03*
X0141025Y0225590D03*
X0141075Y0225640D03*
X0134225Y0227940D03*
X0112875Y0227690D03*
D81*
X0119300Y0224290D03*
D82*
X0119425Y0224340D03*
X0112925Y0227890D03*
X0121225Y0231540D03*
X0134275Y0228140D03*
X0140775Y0225140D03*
X0140675Y0224740D03*
X0140675Y0224690D03*
X0140675Y0224640D03*
D83*
X0121875Y0230490D03*
X0121875Y0230540D03*
X0120575Y0225340D03*
X0112175Y0225290D03*
X0112175Y0225240D03*
X0112125Y0225140D03*
X0112125Y0225090D03*
X0112125Y0225040D03*
X0112075Y0224940D03*
X0112075Y0224890D03*
X0112025Y0224690D03*
D84*
X0120275Y0224940D03*
X0121775Y0230940D03*
D85*
X0112950Y0227990D03*
X0140650Y0224940D03*
D86*
X0121800Y0230890D03*
X0120300Y0224990D03*
D87*
X0120375Y0225040D03*
X0095825Y0231090D03*
X0095775Y0230890D03*
X0095725Y0230690D03*
X0095675Y0230490D03*
X0095625Y0230290D03*
X0095575Y0230090D03*
X0095575Y0230040D03*
X0095525Y0229840D03*
X0095475Y0229640D03*
X0095425Y0229440D03*
X0095375Y0229240D03*
X0095875Y0231290D03*
X0095925Y0231490D03*
D88*
X0095900Y0231440D03*
X0095900Y0231390D03*
X0095900Y0231340D03*
X0095850Y0231240D03*
X0095850Y0231190D03*
X0095850Y0231140D03*
X0095800Y0231040D03*
X0095800Y0230990D03*
X0095800Y0230940D03*
X0095750Y0230840D03*
X0095750Y0230790D03*
X0095750Y0230740D03*
X0095700Y0230640D03*
X0095700Y0230590D03*
X0095700Y0230540D03*
X0095650Y0230440D03*
X0095650Y0230390D03*
X0095650Y0230340D03*
X0095600Y0230240D03*
X0095600Y0230190D03*
X0095600Y0230140D03*
X0095550Y0229990D03*
X0095550Y0229940D03*
X0095550Y0229890D03*
X0095500Y0229790D03*
X0095500Y0229740D03*
X0095500Y0229690D03*
X0095450Y0229590D03*
X0095450Y0229540D03*
X0095450Y0229490D03*
X0095400Y0229390D03*
X0095400Y0229340D03*
X0095400Y0229290D03*
X0095350Y0229190D03*
X0095350Y0229140D03*
X0095950Y0231540D03*
X0095950Y0231590D03*
X0120400Y0225090D03*
X0121800Y0230840D03*
D89*
X0121850Y0230690D03*
X0120450Y0225140D03*
D90*
X0120550Y0225290D03*
X0112150Y0225190D03*
X0121850Y0230590D03*
X0121850Y0230640D03*
D91*
X0120525Y0225240D03*
X0120475Y0225190D03*
D92*
X0112900Y0227790D03*
X0140900Y0225340D03*
D93*
X0121875Y0230390D03*
X0121875Y0230440D03*
X0120675Y0225440D03*
D94*
X0120700Y0225490D03*
X0121900Y0230290D03*
X0121900Y0230340D03*
D95*
X0121875Y0230240D03*
X0120775Y0225640D03*
X0120725Y0225540D03*
D96*
X0120750Y0225590D03*
X0120800Y0225690D03*
X0121900Y0230090D03*
X0121900Y0230140D03*
X0121900Y0230190D03*
D97*
X0104600Y0225740D03*
D98*
X0120825Y0225740D03*
D99*
X0120850Y0225790D03*
X0120900Y0225840D03*
X0121900Y0229890D03*
X0121900Y0229940D03*
X0121900Y0229990D03*
X0121900Y0230040D03*
D100*
X0121875Y0229840D03*
X0120925Y0225940D03*
X0120925Y0225890D03*
D101*
X0134500Y0228640D03*
X0105050Y0225990D03*
D102*
X0114625Y0225990D03*
X0114625Y0226040D03*
X0114625Y0226090D03*
X0114675Y0226240D03*
X0114675Y0226290D03*
X0114675Y0226340D03*
X0114675Y0226390D03*
X0114675Y0226440D03*
X0114675Y0226490D03*
X0114675Y0226540D03*
X0114675Y0226590D03*
D103*
X0120950Y0225990D03*
X0121000Y0226040D03*
X0121900Y0229690D03*
X0121900Y0229740D03*
X0121900Y0229790D03*
D104*
X0108325Y0226040D03*
D105*
X0121025Y0226090D03*
X0121025Y0226140D03*
X0121875Y0229490D03*
X0121875Y0229540D03*
X0121875Y0229590D03*
X0121875Y0229640D03*
D106*
X0121850Y0229440D03*
X0121850Y0229390D03*
X0121850Y0229340D03*
X0121100Y0226290D03*
X0121100Y0226240D03*
X0121050Y0226190D03*
D107*
X0121125Y0226340D03*
X0121125Y0226390D03*
X0121175Y0226440D03*
D108*
X0121200Y0226490D03*
D109*
X0123400Y0226640D03*
D110*
X0123625Y0226840D03*
X0124075Y0229140D03*
X0134525Y0228790D03*
D111*
X0107550Y0227540D03*
D112*
X0107575Y0227590D03*
D113*
X0107600Y0227640D03*
X0107650Y0227690D03*
X0107650Y0227740D03*
D114*
X0107675Y0227790D03*
D115*
X0107700Y0227840D03*
X0107750Y0227890D03*
D116*
X0107775Y0227940D03*
D117*
X0107800Y0227990D03*
D118*
X0134775Y0228990D03*
X0147775Y0227990D03*
X0147825Y0228190D03*
X0147875Y0228390D03*
X0147925Y0228590D03*
X0147975Y0228790D03*
X0148025Y0228990D03*
X0148075Y0229190D03*
X0148125Y0229390D03*
X0148125Y0229440D03*
X0148175Y0229590D03*
X0148175Y0229640D03*
X0148225Y0229790D03*
X0148225Y0229840D03*
X0148275Y0229990D03*
X0148275Y0230040D03*
X0148325Y0230190D03*
X0148325Y0230240D03*
X0148375Y0230390D03*
X0148375Y0230440D03*
X0148425Y0230590D03*
X0148425Y0230640D03*
X0148475Y0230790D03*
X0148475Y0230840D03*
X0148525Y0230990D03*
X0148525Y0231040D03*
X0148575Y0231190D03*
X0148575Y0231240D03*
X0151625Y0228790D03*
X0151625Y0228740D03*
D119*
X0151425Y0227990D03*
D120*
X0107875Y0228090D03*
X0107825Y0228040D03*
D121*
X0151450Y0228040D03*
X0151450Y0228090D03*
X0151500Y0228190D03*
X0151500Y0228240D03*
D122*
X0151575Y0228490D03*
X0151575Y0228540D03*
X0150125Y0228890D03*
X0150075Y0228690D03*
X0150025Y0228490D03*
X0149975Y0228290D03*
X0149925Y0228090D03*
X0150175Y0229090D03*
X0150225Y0229290D03*
X0150275Y0229490D03*
X0150325Y0229690D03*
X0150375Y0229890D03*
X0150375Y0229940D03*
X0150425Y0230090D03*
X0150425Y0230140D03*
X0150475Y0230290D03*
X0150475Y0230340D03*
X0150525Y0230490D03*
X0150525Y0230540D03*
X0150575Y0230690D03*
X0150575Y0230740D03*
X0150625Y0230890D03*
X0150625Y0230940D03*
X0153525Y0230190D03*
X0153475Y0229990D03*
X0153575Y0230390D03*
X0153625Y0230590D03*
X0153675Y0230790D03*
X0153125Y0228540D03*
X0153075Y0228340D03*
X0153025Y0228140D03*
X0108575Y0228790D03*
D123*
X0113000Y0228140D03*
D124*
X0151475Y0228140D03*
X0151525Y0228290D03*
X0151525Y0228340D03*
D125*
X0107950Y0228190D03*
D126*
X0113025Y0228190D03*
D127*
X0113025Y0228240D03*
D128*
X0113050Y0228290D03*
D129*
X0108075Y0228340D03*
D130*
X0113050Y0228340D03*
D131*
X0108100Y0228390D03*
X0151050Y0231040D03*
X0151050Y0231090D03*
X0151050Y0231140D03*
X0153350Y0231040D03*
X0153350Y0230990D03*
X0153400Y0231190D03*
D132*
X0153375Y0231140D03*
X0153375Y0231090D03*
X0153425Y0231240D03*
X0153425Y0231290D03*
X0153475Y0231390D03*
X0151075Y0231340D03*
X0151075Y0231290D03*
X0151075Y0231240D03*
X0151075Y0231190D03*
X0108125Y0228440D03*
D133*
X0108200Y0228490D03*
X0151100Y0231390D03*
X0151100Y0231440D03*
X0151100Y0231490D03*
X0151100Y0231540D03*
X0151150Y0231590D03*
X0151150Y0231640D03*
X0151150Y0231690D03*
X0151150Y0231740D03*
X0153450Y0231340D03*
X0153500Y0231440D03*
X0153500Y0231490D03*
X0153550Y0231590D03*
X0153550Y0231640D03*
D134*
X0153650Y0231890D03*
X0153650Y0231940D03*
X0153700Y0231990D03*
X0153700Y0232040D03*
X0153700Y0232090D03*
X0153750Y0232190D03*
X0151200Y0232140D03*
X0151200Y0232090D03*
X0151200Y0232040D03*
X0151200Y0231990D03*
X0108250Y0228540D03*
D135*
X0134425Y0228540D03*
D136*
X0151225Y0232190D03*
X0151225Y0232240D03*
X0151225Y0232290D03*
X0153725Y0232140D03*
X0153775Y0232240D03*
X0153775Y0232290D03*
X0151875Y0229740D03*
X0108275Y0228590D03*
D137*
X0108325Y0228640D03*
X0151825Y0229490D03*
X0151825Y0229540D03*
X0151825Y0229590D03*
D138*
X0151775Y0229340D03*
X0151775Y0229290D03*
X0108425Y0228690D03*
D139*
X0108500Y0228740D03*
X0151650Y0228840D03*
X0151650Y0228890D03*
D140*
X0134525Y0228740D03*
D141*
X0151475Y0229790D03*
X0151475Y0229840D03*
X0151475Y0229890D03*
X0151475Y0229940D03*
X0151525Y0229990D03*
X0151525Y0230040D03*
X0151525Y0230090D03*
X0151525Y0230140D03*
X0151525Y0230190D03*
X0151525Y0230240D03*
X0151525Y0230290D03*
X0151525Y0230340D03*
X0151525Y0230390D03*
X0151525Y0230440D03*
X0151525Y0230490D03*
X0151525Y0230540D03*
X0151525Y0230590D03*
X0151525Y0230640D03*
X0151525Y0230690D03*
X0151525Y0230740D03*
X0151575Y0230840D03*
X0151575Y0230890D03*
X0151575Y0230940D03*
X0151575Y0230990D03*
X0152575Y0230490D03*
X0152575Y0230440D03*
X0152525Y0230340D03*
X0152525Y0230290D03*
X0152475Y0230240D03*
X0152475Y0230190D03*
X0152425Y0230140D03*
X0152425Y0230090D03*
X0152375Y0230040D03*
X0152375Y0229990D03*
X0152325Y0229890D03*
X0152325Y0229840D03*
X0152275Y0229790D03*
X0152625Y0230540D03*
X0152625Y0230590D03*
X0152675Y0230640D03*
X0152675Y0230690D03*
X0152725Y0230790D03*
X0152775Y0230890D03*
X0152775Y0230940D03*
X0108725Y0228840D03*
D142*
X0151675Y0228940D03*
X0151675Y0228990D03*
X0151725Y0229090D03*
X0151725Y0229140D03*
D143*
X0151750Y0229190D03*
X0151750Y0229240D03*
X0151700Y0229040D03*
D144*
X0151800Y0229390D03*
X0151800Y0229440D03*
D145*
X0151850Y0229640D03*
X0151850Y0229690D03*
D146*
X0152350Y0229940D03*
X0152550Y0230390D03*
X0152700Y0230740D03*
X0152750Y0230840D03*
X0151550Y0230790D03*
D147*
X0121825Y0230790D03*
X0121825Y0230740D03*
D148*
X0121750Y0230990D03*
D149*
X0151175Y0231790D03*
X0151175Y0231840D03*
X0151175Y0231890D03*
X0151175Y0231940D03*
X0153525Y0231540D03*
X0153575Y0231690D03*
X0153575Y0231740D03*
X0153625Y0231790D03*
X0153625Y0231840D03*
D150*
X0121050Y0231590D03*
M02*
