%
M48
M72
T01C0.00800
T02C0.01200
T03C0.02362
T04C0.03543
T05C0.04528
T06C0.04921
T07C0.05000
T08C0.05512
T09C0.06693
T10C0.07874
T11C0.09055
T12C0.13780
%
T01
X690900Y233490
X696500Y226690
X733900Y203290
X747500Y146090
X771100Y144290
X757300Y132090
T02
X750700Y141290
X734700Y131890
X722300Y130890
X718300Y131490
X713690Y124480
X711710Y122500
X705100Y119690
X705100Y116890
X705500Y126490
X696700Y126490
X707900Y132090
X686880Y139490
X683210Y139490
X682300Y136490
X670900Y140290
X673500Y145690
X663050Y145840
X658750Y144890
X656100Y146890
X658750Y141490
X657700Y133990
X667500Y126890
X670300Y131690
X673100Y126090
X657700Y124490
X653100Y121890
X647500Y113690
X647500Y110890
X635300Y117290
X615300Y113690
X615300Y110890
X609100Y102490
X630600Y106890
X610900Y126890
X608300Y129090
X607500Y132490
X623300Y142890
X626900Y148690
X630900Y152690
X639700Y154490
X649300Y154290
X649300Y158490
X649300Y163090
X649300Y167090
X649300Y170690
X649300Y174890
X649300Y179890
X655500Y179890
X655500Y174890
X655500Y170690
X655500Y167090
X655700Y163290
X655500Y158690
X655300Y154290
X662100Y154290
X662100Y158890
X662100Y163490
X662100Y167090
X662100Y170890
X662100Y175290
X662100Y179890
X668300Y179890
X668300Y175090
X668300Y170890
X668300Y167290
X668300Y163490
X668500Y158890
X668700Y154290
X674900Y154290
X674700Y159090
X674700Y163490
X674500Y167290
X674500Y171290
X674500Y175090
X674300Y179890
X682050Y173990
X684500Y169890
X686895Y172285
X688662Y175348
X688700Y178490
X688300Y182790
X695500Y178690
X704900Y183690
X707500Y187690
X691500Y198890
X687700Y206490
X676700Y203690
X676500Y200890
X675300Y197690
X661900Y199490
X655647Y204848
X652900Y203710
X650700Y200890
X646300Y207290
X640100Y200890
X635500Y201690
X621100Y207690
X632700Y215490
X649700Y215870
X652447Y214732
X658500Y207090
X666500Y214690
X663905Y217285
X670100Y218310
X672847Y219448
X691300Y218890
X720900Y203490
X739500Y200890
X751700Y191690
X747500Y179090
X740500Y173090
X730500Y172490
X723300Y172490
X715900Y170490
X708900Y166690
X699100Y164690
X702300Y159490
X699700Y156690
X702300Y150090
X707300Y152290
X707700Y155690
X689300Y148890
X686700Y147690
X681700Y154240
X682150Y158490
X683700Y160890
X682700Y164090
X688700Y166090
X691300Y168290
X691100Y171690
X676700Y187290
X685100Y188290
X669300Y191490
X663300Y187490
X657300Y186990
X658300Y191690
X651173Y187090
X649100Y189490
X646700Y187090
X640300Y178090
X640500Y173690
X639100Y165290
X624250Y173240
X619700Y172090
X611100Y177890
X611100Y184290
X599700Y184090
X621100Y194490
X633350Y190390
X631700Y180690
X597500Y203890
X594900Y209090
X591100Y209090
X549500Y187090
X540100Y181490
X526300Y178290
X536500Y173090
X539300Y176490
X539900Y169290
X533900Y166890
X531100Y165890
X539100Y164090
X520300Y164290
X517900Y168690
X518100Y173690
X517300Y181890
X523900Y187690
X515290Y191300
X513310Y193280
X496700Y186890
X486300Y193290
X482700Y196090
X478500Y196290
X475300Y193690
X464300Y202290
X451900Y196690
X434900Y188290
X434500Y182090
X434900Y174290
X434700Y167490
X445500Y158890
X459100Y154290
X459100Y151490
X461100Y146290
X443490Y146280
X441510Y144300
X415500Y152990
X408500Y160290
X397300Y150490
X398700Y146780
X398700Y143110
X397300Y138690
X404300Y149290
X410700Y137890
X397500Y127290
X397100Y123490
X414700Y113290
X415300Y107690
X434100Y104890
X433700Y97090
X445300Y97090
X445100Y92490
X448700Y89690
X451900Y90290
X457100Y90090
X459900Y91690
X445700Y87890
X445300Y83890
X441100Y81090
X449500Y78490
X451700Y76490
X457500Y78690
X468500Y79690
X473700Y80090
X485100Y87690
X479500Y92890
X479300Y98290
X484500Y104490
X486700Y110090
X476900Y117690
X480690Y126500
X478710Y128480
X487100Y129290
X506500Y137290
X503500Y139690
X501500Y141690
X490300Y145690
X487500Y145690
X481150Y145740
X496300Y152690
X503205Y156995
X505595Y159385
X514300Y149490
X517500Y149690
X520700Y139490
X541700Y146890
X484500Y164490
X476900Y158890
X462700Y169490
X484700Y176890
X475100Y182890
X477100Y210890
X490500Y207690
X491100Y225290
X457700Y225290
X446100Y215490
X427300Y225290
X407500Y218290
X402700Y224690
X394700Y240290
X380900Y249890
X377300Y249690
X377100Y253290
X380900Y253890
X373700Y250090
X346900Y224890
X347100Y219290
X349100Y216090
X350300Y212290
X345500Y212890
X344100Y216890
X331100Y224690
X316100Y213290
X289300Y213090
X268900Y212890
X263900Y223290
X256900Y240890
X251500Y242890
X253500Y246690
X250700Y250690
X254500Y255090
X258300Y251490
X259100Y246490
X251300Y238290
X279700Y259490
X362900Y208890
X368900Y200490
X322700Y179090
X297900Y176090
X259700Y155690
X257500Y145890
X254500Y139390
X258500Y133090
X253500Y131490
X257500Y126290
X260500Y126090
X261500Y119090
X257300Y119090
X252300Y121090
X251700Y116890
X257300Y112290
X262100Y112290
X265300Y115290
X272700Y112490
X276300Y114890
X286100Y115090
X271700Y122290
X271900Y129490
X273100Y139690
X264700Y139490
X266100Y145190
X290700Y139690
X300900Y149290
X316500Y134490
X315300Y131890
X325100Y133490
X328700Y131490
X325500Y128690
X324900Y125890
X329500Y123290
X329300Y117890
X333100Y116490
X337900Y107890
X343700Y113290
X346700Y118590
X364400Y116190
X366100Y113890
X369700Y112490
X367300Y118290
X369500Y120490
X371100Y123290
X373100Y127690
X363900Y126090
X363500Y129090
X363500Y132490
X360300Y133890
X360700Y137690
X363700Y140290
X369900Y141890
X369900Y144690
X365100Y148190
X358700Y150090
X361900Y161490
X403100Y175890
X405900Y175890
X332700Y135490
X329700Y137890
X318100Y125890
X313700Y125690
X304500Y127690
X305300Y132290
X314500Y112290
X318500Y113290
X305900Y110890
X303900Y108090
X290900Y95490
X290500Y88890
X270900Y96890
X262100Y98090
X257700Y94890
X255500Y98890
X248700Y102890
X253500Y105490
X249500Y111290
X266100Y109290
X265900Y105290
X262100Y91090
X257300Y88690
X251500Y90890
X252300Y82890
X256300Y74890
X260700Y75090
X264700Y75490
X274300Y74490
X265500Y81290
X254100Y70690
X259700Y60290
X263500Y60490
X270100Y54490
X300100Y45090
X314100Y46690
X327100Y57490
X335100Y57090
X338500Y51690
X350500Y57290
X358500Y56490
X354500Y45490
X371500Y45490
X376100Y40890
X373100Y35490
X373700Y32090
X376300Y33890
X369300Y36490
X339100Y22290
X338100Y18690
X333900Y19090
X332900Y22890
X335900Y24290
X398110Y56680
X400090Y54700
X409700Y57690
X418700Y58290
X422900Y61290
X427700Y61090
X434500Y55890
X443500Y60090
X433258Y65543
X432120Y68290
X412750Y69790
X425100Y81890
X423700Y88490
X427500Y90890
X420500Y93090
X416900Y96690
X413500Y99290
X396300Y102290
X396900Y105290
X351500Y128090
X444505Y123495
X447100Y126090
X462500Y128690
X457500Y110690
X496110Y86080
X498090Y84100
X500300Y77090
X508700Y79490
X510500Y69690
X513500Y68690
X505300Y67490
X490900Y62890
X491900Y59890
X501900Y55890
X518100Y57490
X525700Y57690
X524900Y68690
X554300Y68690
X557300Y70890
X567100Y70890
X560900Y84290
X608500Y83490
X538500Y44290
X539900Y41490
X539100Y38090
X533900Y46290
X490295Y69695
X487700Y72290
X464700Y50690
X459300Y44290
X455100Y43490
X452500Y46090
X448900Y45890
X402500Y46290
X388300Y72290
X349500Y68090
X336700Y71490
X336700Y74290
X328500Y75890
X325100Y69690
X320500Y70290
X319500Y65490
X323710Y63680
X325690Y61700
X318900Y80090
X326900Y81090
X288700Y74690
X215700Y106890
X209700Y103290
X199300Y105490
X191900Y108890
X199100Y112090
X202300Y116090
X212700Y113890
X217700Y118290
X212700Y125090
X212300Y129090
X199400Y132090
X199100Y127090
X192500Y132890
X198700Y139290
X212300Y139090
X171700Y132490
X137100Y108090
X131100Y108090
X172100Y107290
X198900Y99490
X203300Y91090
X200100Y89490
X212700Y86290
X202900Y78890
X199700Y76490
X212100Y74690
X195300Y80890
X190900Y80690
X177100Y82490
X204500Y63290
X188900Y50690
X206350Y43140
X31850Y84090
X21300Y78690
X443500Y260490
X455100Y234690
X532500Y209290
X538100Y205290
X538100Y202490
X533700Y195290
X552700Y179290
X550500Y176890
X633300Y137470
X636050Y135490
X640700Y149490
X713500Y144290
X733700Y115890
X743500Y107090
X725300Y95690
X725300Y85890
X707900Y79890
X700900Y75690
X704100Y65490
X709100Y64490
X721100Y55690
X700900Y48290
X712900Y41290
X743500Y47140
X724500Y69690
X707500Y94290
X708100Y101090
X698200Y109990
X771900Y115890
X771900Y133490
X770890Y89480
X769500Y86690
X777300Y75922
X696100Y21490
X599300Y28090
X728700Y213090
X732890Y222700
X730910Y224680
X738900Y243090
X741495Y245685
X725500Y248890
X697100Y256490
X697100Y260490
X683900Y260090
X680900Y264090
X659500Y260890
X659100Y255890
X653500Y251090
X650300Y246490
X644100Y252490
X643500Y255690
X643300Y260690
X645900Y266690
X634900Y267490
X623300Y257690
X619700Y257490
X619500Y253890
X628100Y257290
X607900Y254580
X607900Y250910
X588700Y265090
X651300Y237690
X724900Y265090
T03
X103700Y99240
X30300Y101340
T04
X785411Y95970
X785411Y86127
X785411Y78253
X785411Y68411
T05
X682282Y82441
X672282Y82441
X662282Y82441
X652282Y82441
X647321Y92441
X657321Y92441
X667321Y92441
X677321Y92441
T06
X238310Y91843
X228310Y91843
X228310Y81843
X238310Y81843
X238310Y71843
X228310Y71843
X228310Y61843
X238310Y61843
X238310Y101843
X228310Y101843
X228310Y111843
X238310Y111843
X238310Y121843
X228310Y121843
X228310Y131843
X238310Y131843
X238310Y141843
X228310Y141843
X228310Y151843
X238310Y151843
X238310Y161843
X228310Y161843
X228310Y171843
X238310Y171843
X238310Y181843
X228310Y181843
X228310Y191843
X238310Y191843
X238310Y201843
X228310Y201843
X228310Y211843
X238310Y211843
X238310Y221843
X228310Y221843
T07
X638719Y38150
X648719Y38150
X680884Y38150
X690884Y38150
T08
X171085Y40731
X151400Y40731
X131715Y40731
T09
X234767Y41882
X568035Y41882
X634309Y69449
X695294Y69449
X568035Y241803
X234767Y241803
T10
X303943Y200826
X385045Y87873
T11
X773600Y108056
X773600Y56324
T12
X25385Y33575
X25385Y250111
X642302Y57441
X687302Y57441
X773417Y33575
X773417Y250111
M30
