G75*
%MOIN*%
%OFA0B0*%
%FSLAX25Y25*%
%IPPOS*%
%LPD*%
%AMOC8*
5,1,8,0,0,1.08239X$1,22.5*
%
%ADD10C,0.00000*%
%ADD11R,0.03150X0.04724*%
%ADD12C,0.00787*%
D10*
X0020779Y0001800D02*
X0020779Y0789202D01*
X0808180Y0789202D01*
X0808180Y0001800D01*
X0020779Y0001800D01*
D11*
X0095976Y0041170D03*
X0103062Y0041170D03*
X0135346Y0041170D03*
X0142432Y0041170D03*
X0174716Y0041170D03*
X0181803Y0041170D03*
X0214086Y0041170D03*
X0221173Y0041170D03*
X0253456Y0041170D03*
X0260543Y0041170D03*
X0292826Y0041170D03*
X0299913Y0041170D03*
X0332196Y0041170D03*
X0339283Y0041170D03*
X0371566Y0041170D03*
X0378653Y0041170D03*
X0410936Y0041170D03*
X0418023Y0041170D03*
X0450306Y0041170D03*
X0457393Y0041170D03*
X0489677Y0041170D03*
X0496763Y0041170D03*
X0529047Y0041170D03*
X0536133Y0041170D03*
X0568417Y0041170D03*
X0575503Y0041170D03*
X0607787Y0041170D03*
X0614873Y0041170D03*
X0647157Y0041170D03*
X0654243Y0041170D03*
X0686527Y0041170D03*
X0693614Y0041170D03*
X0725897Y0041170D03*
X0732984Y0041170D03*
X0732984Y0080540D03*
X0725897Y0080540D03*
X0693614Y0080540D03*
X0686527Y0080540D03*
X0654243Y0080540D03*
X0647157Y0080540D03*
X0614873Y0080540D03*
X0607787Y0080540D03*
X0575503Y0080540D03*
X0568417Y0080540D03*
X0536133Y0080540D03*
X0529047Y0080540D03*
X0496763Y0080540D03*
X0489677Y0080540D03*
X0457393Y0080540D03*
X0450306Y0080540D03*
X0418023Y0080540D03*
X0410936Y0080540D03*
X0378653Y0080540D03*
X0371566Y0080540D03*
X0339283Y0080540D03*
X0332196Y0080540D03*
X0299913Y0080540D03*
X0292826Y0080540D03*
X0260543Y0080540D03*
X0253456Y0080540D03*
X0221173Y0080540D03*
X0214086Y0080540D03*
X0181803Y0080540D03*
X0174716Y0080540D03*
X0142432Y0080540D03*
X0135346Y0080540D03*
X0103062Y0080540D03*
X0095976Y0080540D03*
X0063692Y0080540D03*
X0056606Y0080540D03*
X0056606Y0119910D03*
X0063692Y0119910D03*
X0095976Y0119910D03*
X0103062Y0119910D03*
X0135346Y0119910D03*
X0142432Y0119910D03*
X0174716Y0119910D03*
X0181803Y0119910D03*
X0214086Y0119910D03*
X0221173Y0119910D03*
X0253456Y0119910D03*
X0260543Y0119910D03*
X0292826Y0119910D03*
X0299913Y0119910D03*
X0332196Y0119910D03*
X0339283Y0119910D03*
X0371566Y0119910D03*
X0378653Y0119910D03*
X0410936Y0119910D03*
X0418023Y0119910D03*
X0450306Y0119910D03*
X0457393Y0119910D03*
X0489677Y0119910D03*
X0496763Y0119910D03*
X0529047Y0119910D03*
X0536133Y0119910D03*
X0568417Y0119910D03*
X0575503Y0119910D03*
X0607787Y0119910D03*
X0614873Y0119910D03*
X0647157Y0119910D03*
X0654243Y0119910D03*
X0686527Y0119910D03*
X0693614Y0119910D03*
X0725897Y0119910D03*
X0732984Y0119910D03*
X0765267Y0119910D03*
X0772354Y0119910D03*
X0772354Y0080540D03*
X0765267Y0080540D03*
X0765267Y0159280D03*
X0772354Y0159280D03*
X0732984Y0159280D03*
X0725897Y0159280D03*
X0693614Y0159280D03*
X0686527Y0159280D03*
X0654243Y0159280D03*
X0647157Y0159280D03*
X0614873Y0159280D03*
X0607787Y0159280D03*
X0575503Y0159280D03*
X0568417Y0159280D03*
X0536133Y0159280D03*
X0529047Y0159280D03*
X0496763Y0159280D03*
X0489677Y0159280D03*
X0457393Y0159280D03*
X0450306Y0159280D03*
X0418023Y0159280D03*
X0410936Y0159280D03*
X0378653Y0159280D03*
X0371566Y0159280D03*
X0339283Y0159280D03*
X0332196Y0159280D03*
X0299913Y0159280D03*
X0292826Y0159280D03*
X0260543Y0159280D03*
X0253456Y0159280D03*
X0221173Y0159280D03*
X0214086Y0159280D03*
X0181803Y0159280D03*
X0174716Y0159280D03*
X0142432Y0159280D03*
X0135346Y0159280D03*
X0103062Y0159280D03*
X0095976Y0159280D03*
X0063692Y0159280D03*
X0056606Y0159280D03*
X0056606Y0198650D03*
X0063692Y0198650D03*
X0095976Y0198650D03*
X0103062Y0198650D03*
X0135346Y0198650D03*
X0142432Y0198650D03*
X0174716Y0198650D03*
X0181803Y0198650D03*
X0214086Y0198650D03*
X0221173Y0198650D03*
X0253456Y0198650D03*
X0260543Y0198650D03*
X0292826Y0198650D03*
X0299913Y0198650D03*
X0332196Y0198650D03*
X0339283Y0198650D03*
X0371566Y0198650D03*
X0378653Y0198650D03*
X0410936Y0198650D03*
X0418023Y0198650D03*
X0450306Y0198650D03*
X0457393Y0198650D03*
X0489677Y0198650D03*
X0496763Y0198650D03*
X0529047Y0198650D03*
X0536133Y0198650D03*
X0568417Y0198650D03*
X0575503Y0198650D03*
X0607787Y0198650D03*
X0614873Y0198650D03*
X0647157Y0198650D03*
X0654243Y0198650D03*
X0686527Y0198650D03*
X0693614Y0198650D03*
X0725897Y0198650D03*
X0732984Y0198650D03*
X0765267Y0198650D03*
X0772354Y0198650D03*
X0772354Y0238020D03*
X0765267Y0238020D03*
X0732984Y0238020D03*
X0725897Y0238020D03*
X0693614Y0238020D03*
X0686527Y0238020D03*
X0654243Y0238020D03*
X0647157Y0238020D03*
X0614873Y0238020D03*
X0607787Y0238020D03*
X0575503Y0238020D03*
X0568417Y0238020D03*
X0536133Y0238020D03*
X0529047Y0238020D03*
X0496763Y0238020D03*
X0489677Y0238020D03*
X0457393Y0238020D03*
X0450306Y0238020D03*
X0418023Y0238020D03*
X0410936Y0238020D03*
X0378653Y0238020D03*
X0371566Y0238020D03*
X0339283Y0238020D03*
X0332196Y0238020D03*
X0299913Y0238020D03*
X0292826Y0238020D03*
X0260543Y0238020D03*
X0253456Y0238020D03*
X0221173Y0238020D03*
X0214086Y0238020D03*
X0181803Y0238020D03*
X0174716Y0238020D03*
X0142432Y0238020D03*
X0135346Y0238020D03*
X0103062Y0238020D03*
X0095976Y0238020D03*
X0063692Y0238020D03*
X0056606Y0238020D03*
X0056606Y0277391D03*
X0063692Y0277391D03*
X0095976Y0277391D03*
X0103062Y0277391D03*
X0135346Y0277391D03*
X0142432Y0277391D03*
X0174716Y0277391D03*
X0181803Y0277391D03*
X0214086Y0277391D03*
X0221173Y0277391D03*
X0253456Y0277391D03*
X0260543Y0277391D03*
X0292826Y0277391D03*
X0299913Y0277391D03*
X0332196Y0277391D03*
X0339283Y0277391D03*
X0371566Y0277391D03*
X0378653Y0277391D03*
X0410936Y0277391D03*
X0418023Y0277391D03*
X0450306Y0277391D03*
X0457393Y0277391D03*
X0489677Y0277391D03*
X0496763Y0277391D03*
X0529047Y0277391D03*
X0536133Y0277391D03*
X0568417Y0277391D03*
X0575503Y0277391D03*
X0607787Y0277391D03*
X0614873Y0277391D03*
X0647157Y0277391D03*
X0654243Y0277391D03*
X0686527Y0277391D03*
X0693614Y0277391D03*
X0725897Y0277391D03*
X0732984Y0277391D03*
X0765267Y0277391D03*
X0772354Y0277391D03*
X0772354Y0316761D03*
X0765267Y0316761D03*
X0732984Y0316761D03*
X0725897Y0316761D03*
X0693614Y0316761D03*
X0686527Y0316761D03*
X0654243Y0316761D03*
X0647157Y0316761D03*
X0614873Y0316761D03*
X0607787Y0316761D03*
X0575503Y0316761D03*
X0568417Y0316761D03*
X0536133Y0316761D03*
X0529047Y0316761D03*
X0496763Y0316761D03*
X0489677Y0316761D03*
X0457393Y0316761D03*
X0450306Y0316761D03*
X0418023Y0316761D03*
X0410936Y0316761D03*
X0378653Y0316761D03*
X0371566Y0316761D03*
X0339283Y0316761D03*
X0332196Y0316761D03*
X0299913Y0316761D03*
X0292826Y0316761D03*
X0260543Y0316761D03*
X0253456Y0316761D03*
X0221173Y0316761D03*
X0214086Y0316761D03*
X0181803Y0316761D03*
X0174716Y0316761D03*
X0142432Y0316761D03*
X0135346Y0316761D03*
X0103062Y0316761D03*
X0095976Y0316761D03*
X0063692Y0316761D03*
X0056606Y0316761D03*
X0056606Y0356131D03*
X0063692Y0356131D03*
X0095976Y0356131D03*
X0103062Y0356131D03*
X0135346Y0356131D03*
X0142432Y0356131D03*
X0174716Y0356131D03*
X0181803Y0356131D03*
X0214086Y0356131D03*
X0221173Y0356131D03*
X0253456Y0356131D03*
X0260543Y0356131D03*
X0292826Y0356131D03*
X0299913Y0356131D03*
X0332196Y0356131D03*
X0339283Y0356131D03*
X0371566Y0356131D03*
X0378653Y0356131D03*
X0410936Y0356131D03*
X0418023Y0356131D03*
X0450306Y0356131D03*
X0457393Y0356131D03*
X0489677Y0356131D03*
X0496763Y0356131D03*
X0529047Y0356131D03*
X0536133Y0356131D03*
X0568417Y0356131D03*
X0575503Y0356131D03*
X0607787Y0356131D03*
X0614873Y0356131D03*
X0647157Y0356131D03*
X0654243Y0356131D03*
X0686527Y0356131D03*
X0693614Y0356131D03*
X0725897Y0356131D03*
X0732984Y0356131D03*
X0765267Y0356131D03*
X0772354Y0356131D03*
X0772354Y0395501D03*
X0765267Y0395501D03*
X0732984Y0395501D03*
X0725897Y0395501D03*
X0693614Y0395501D03*
X0686527Y0395501D03*
X0654243Y0395501D03*
X0647157Y0395501D03*
X0614873Y0395501D03*
X0607787Y0395501D03*
X0575503Y0395501D03*
X0568417Y0395501D03*
X0536133Y0395501D03*
X0529047Y0395501D03*
X0496763Y0395501D03*
X0489677Y0395501D03*
X0457393Y0395501D03*
X0450306Y0395501D03*
X0450306Y0434871D03*
X0457393Y0434871D03*
X0489677Y0434871D03*
X0496763Y0434871D03*
X0529047Y0434871D03*
X0536133Y0434871D03*
X0568417Y0434871D03*
X0575503Y0434871D03*
X0607787Y0434871D03*
X0614873Y0434871D03*
X0647157Y0434871D03*
X0654243Y0434871D03*
X0686527Y0434871D03*
X0693614Y0434871D03*
X0725897Y0434871D03*
X0732984Y0434871D03*
X0765267Y0434871D03*
X0772354Y0434871D03*
X0772354Y0474241D03*
X0765267Y0474241D03*
X0732984Y0474241D03*
X0725897Y0474241D03*
X0693614Y0474241D03*
X0686527Y0474241D03*
X0654243Y0474241D03*
X0647157Y0474241D03*
X0614873Y0474241D03*
X0607787Y0474241D03*
X0575503Y0474241D03*
X0568417Y0474241D03*
X0536133Y0474241D03*
X0529047Y0474241D03*
X0496763Y0474241D03*
X0489677Y0474241D03*
X0457393Y0474241D03*
X0450306Y0474241D03*
X0418023Y0474241D03*
X0410936Y0474241D03*
X0378653Y0474241D03*
X0371566Y0474241D03*
X0339283Y0474241D03*
X0332196Y0474241D03*
X0299913Y0474241D03*
X0292826Y0474241D03*
X0260543Y0474241D03*
X0253456Y0474241D03*
X0221173Y0474241D03*
X0214086Y0474241D03*
X0181803Y0474241D03*
X0174716Y0474241D03*
X0142432Y0474241D03*
X0135346Y0474241D03*
X0103062Y0474241D03*
X0095976Y0474241D03*
X0063692Y0474241D03*
X0056606Y0474241D03*
X0056606Y0513611D03*
X0063692Y0513611D03*
X0095976Y0513611D03*
X0103062Y0513611D03*
X0135346Y0513611D03*
X0142432Y0513611D03*
X0174716Y0513611D03*
X0181803Y0513611D03*
X0214086Y0513611D03*
X0221173Y0513611D03*
X0253456Y0513611D03*
X0260543Y0513611D03*
X0292826Y0513611D03*
X0299913Y0513611D03*
X0332196Y0513611D03*
X0339283Y0513611D03*
X0371566Y0513611D03*
X0378653Y0513611D03*
X0410936Y0513611D03*
X0418023Y0513611D03*
X0450306Y0513611D03*
X0457393Y0513611D03*
X0489677Y0513611D03*
X0496763Y0513611D03*
X0529047Y0513611D03*
X0536133Y0513611D03*
X0568417Y0513611D03*
X0575503Y0513611D03*
X0607787Y0513611D03*
X0614873Y0513611D03*
X0647157Y0513611D03*
X0654243Y0513611D03*
X0686527Y0513611D03*
X0693614Y0513611D03*
X0725897Y0513611D03*
X0732984Y0513611D03*
X0765267Y0513611D03*
X0772354Y0513611D03*
X0772354Y0552981D03*
X0765267Y0552981D03*
X0732984Y0552981D03*
X0725897Y0552981D03*
X0693614Y0552981D03*
X0686527Y0552981D03*
X0654243Y0552981D03*
X0647157Y0552981D03*
X0614873Y0552981D03*
X0607787Y0552981D03*
X0575503Y0552981D03*
X0568417Y0552981D03*
X0536133Y0552981D03*
X0529047Y0552981D03*
X0496763Y0552981D03*
X0489677Y0552981D03*
X0457393Y0552981D03*
X0450306Y0552981D03*
X0418023Y0552981D03*
X0410936Y0552981D03*
X0378653Y0552981D03*
X0371566Y0552981D03*
X0339283Y0552981D03*
X0332196Y0552981D03*
X0299913Y0552981D03*
X0292826Y0552981D03*
X0260543Y0552981D03*
X0253456Y0552981D03*
X0221173Y0552981D03*
X0214086Y0552981D03*
X0181803Y0552981D03*
X0174716Y0552981D03*
X0142432Y0552981D03*
X0135346Y0552981D03*
X0103062Y0552981D03*
X0095976Y0552981D03*
X0063692Y0552981D03*
X0056606Y0552981D03*
X0056606Y0592351D03*
X0063692Y0592351D03*
X0095976Y0592351D03*
X0103062Y0592351D03*
X0135346Y0592351D03*
X0142432Y0592351D03*
X0174716Y0592351D03*
X0181803Y0592351D03*
X0214086Y0592351D03*
X0221173Y0592351D03*
X0253456Y0592351D03*
X0260543Y0592351D03*
X0292826Y0592351D03*
X0299913Y0592351D03*
X0332196Y0592351D03*
X0339283Y0592351D03*
X0371566Y0592351D03*
X0378653Y0592351D03*
X0410936Y0592351D03*
X0418023Y0592351D03*
X0450306Y0592351D03*
X0457393Y0592351D03*
X0489677Y0592351D03*
X0496763Y0592351D03*
X0529047Y0592351D03*
X0536133Y0592351D03*
X0568417Y0592351D03*
X0575503Y0592351D03*
X0607787Y0592351D03*
X0614873Y0592351D03*
X0647157Y0592351D03*
X0654243Y0592351D03*
X0686527Y0592351D03*
X0693614Y0592351D03*
X0725897Y0592351D03*
X0732984Y0592351D03*
X0765267Y0592351D03*
X0772354Y0592351D03*
X0772354Y0631721D03*
X0765267Y0631721D03*
X0732984Y0631721D03*
X0725897Y0631721D03*
X0693614Y0631721D03*
X0686527Y0631721D03*
X0654243Y0631721D03*
X0647157Y0631721D03*
X0614873Y0631721D03*
X0607787Y0631721D03*
X0575503Y0631721D03*
X0568417Y0631721D03*
X0536133Y0631721D03*
X0529047Y0631721D03*
X0496763Y0631721D03*
X0489677Y0631721D03*
X0457393Y0631721D03*
X0450306Y0631721D03*
X0418023Y0631721D03*
X0410936Y0631721D03*
X0378653Y0631721D03*
X0371566Y0631721D03*
X0339283Y0631721D03*
X0332196Y0631721D03*
X0299913Y0631721D03*
X0292826Y0631721D03*
X0260543Y0631721D03*
X0253456Y0631721D03*
X0221173Y0631721D03*
X0214086Y0631721D03*
X0181803Y0631721D03*
X0174716Y0631721D03*
X0142432Y0631721D03*
X0135346Y0631721D03*
X0103062Y0631721D03*
X0095976Y0631721D03*
X0063692Y0631721D03*
X0056606Y0631721D03*
X0056606Y0671091D03*
X0063692Y0671091D03*
X0095976Y0671091D03*
X0103062Y0671091D03*
X0135346Y0671091D03*
X0142432Y0671091D03*
X0174716Y0671091D03*
X0181803Y0671091D03*
X0214086Y0671091D03*
X0221173Y0671091D03*
X0253456Y0671091D03*
X0260543Y0671091D03*
X0292826Y0671091D03*
X0299913Y0671091D03*
X0332196Y0671091D03*
X0339283Y0671091D03*
X0371566Y0671091D03*
X0378653Y0671091D03*
X0410936Y0671091D03*
X0418023Y0671091D03*
X0450306Y0671091D03*
X0457393Y0671091D03*
X0489677Y0671091D03*
X0496763Y0671091D03*
X0529047Y0671091D03*
X0536133Y0671091D03*
X0568417Y0671091D03*
X0575503Y0671091D03*
X0607787Y0671091D03*
X0614873Y0671091D03*
X0647157Y0671091D03*
X0654243Y0671091D03*
X0686527Y0671091D03*
X0693614Y0671091D03*
X0725897Y0671091D03*
X0732984Y0671091D03*
X0765267Y0671091D03*
X0772354Y0671091D03*
X0772354Y0710461D03*
X0765267Y0710461D03*
X0732984Y0710461D03*
X0725897Y0710461D03*
X0693614Y0710461D03*
X0686527Y0710461D03*
X0654243Y0710461D03*
X0647157Y0710461D03*
X0614873Y0710461D03*
X0607787Y0710461D03*
X0575503Y0710461D03*
X0568417Y0710461D03*
X0536133Y0710461D03*
X0529047Y0710461D03*
X0496763Y0710461D03*
X0489677Y0710461D03*
X0457393Y0710461D03*
X0450306Y0710461D03*
X0418023Y0710461D03*
X0410936Y0710461D03*
X0378653Y0710461D03*
X0371566Y0710461D03*
X0339283Y0710461D03*
X0332196Y0710461D03*
X0299913Y0710461D03*
X0292826Y0710461D03*
X0260543Y0710461D03*
X0253456Y0710461D03*
X0221173Y0710461D03*
X0214086Y0710461D03*
X0181803Y0710461D03*
X0174716Y0710461D03*
X0142432Y0710461D03*
X0135346Y0710461D03*
X0103062Y0710461D03*
X0095976Y0710461D03*
X0063692Y0710461D03*
X0056606Y0710461D03*
X0095976Y0749831D03*
X0103062Y0749831D03*
X0135346Y0749831D03*
X0142432Y0749831D03*
X0174716Y0749831D03*
X0181803Y0749831D03*
X0214086Y0749831D03*
X0221173Y0749831D03*
X0253456Y0749831D03*
X0260543Y0749831D03*
X0292826Y0749831D03*
X0299913Y0749831D03*
X0332196Y0749831D03*
X0339283Y0749831D03*
X0371566Y0749831D03*
X0378653Y0749831D03*
X0410936Y0749831D03*
X0418023Y0749831D03*
X0450306Y0749831D03*
X0457393Y0749831D03*
X0489677Y0749831D03*
X0496763Y0749831D03*
X0529047Y0749831D03*
X0536133Y0749831D03*
X0568417Y0749831D03*
X0575503Y0749831D03*
X0607787Y0749831D03*
X0614873Y0749831D03*
X0647157Y0749831D03*
X0654243Y0749831D03*
X0686527Y0749831D03*
X0693614Y0749831D03*
X0725897Y0749831D03*
X0732984Y0749831D03*
X0418023Y0434871D03*
X0410936Y0434871D03*
X0378653Y0434871D03*
X0371566Y0434871D03*
X0339283Y0434871D03*
X0332196Y0434871D03*
X0299913Y0434871D03*
X0292826Y0434871D03*
X0260543Y0434871D03*
X0253456Y0434871D03*
X0221173Y0434871D03*
X0214086Y0434871D03*
X0181803Y0434871D03*
X0174716Y0434871D03*
X0142432Y0434871D03*
X0135346Y0434871D03*
X0103062Y0434871D03*
X0095976Y0434871D03*
X0063692Y0434871D03*
X0056606Y0434871D03*
X0056606Y0395501D03*
X0063692Y0395501D03*
X0095976Y0395501D03*
X0103062Y0395501D03*
X0135346Y0395501D03*
X0142432Y0395501D03*
X0174716Y0395501D03*
X0181803Y0395501D03*
X0214086Y0395501D03*
X0221173Y0395501D03*
X0253456Y0395501D03*
X0260543Y0395501D03*
X0292826Y0395501D03*
X0299913Y0395501D03*
X0332196Y0395501D03*
X0339283Y0395501D03*
X0371566Y0395501D03*
X0378653Y0395501D03*
D12*
X0375110Y0395501D03*
X0375110Y0434871D03*
X0414480Y0434871D03*
X0453850Y0434871D03*
X0493220Y0434871D03*
X0493220Y0395501D03*
X0453850Y0395501D03*
X0453850Y0356131D03*
X0493220Y0356131D03*
X0532590Y0356131D03*
X0532590Y0395501D03*
X0532590Y0434871D03*
X0532590Y0474241D03*
X0571960Y0474241D03*
X0571960Y0513611D03*
X0611330Y0513611D03*
X0611330Y0474241D03*
X0611330Y0434871D03*
X0611330Y0395501D03*
X0571960Y0395501D03*
X0571960Y0434871D03*
X0571960Y0356131D03*
X0611330Y0356131D03*
X0650700Y0356131D03*
X0650700Y0395501D03*
X0650700Y0434871D03*
X0650700Y0474241D03*
X0650700Y0513611D03*
X0650700Y0552981D03*
X0611330Y0552981D03*
X0571960Y0552981D03*
X0532590Y0552981D03*
X0532590Y0513611D03*
X0493220Y0513611D03*
X0453850Y0513611D03*
X0453850Y0474241D03*
X0493220Y0474241D03*
X0414480Y0474241D03*
X0414480Y0513611D03*
X0414480Y0552981D03*
X0453850Y0552981D03*
X0493220Y0552981D03*
X0493220Y0592351D03*
X0453850Y0592351D03*
X0453850Y0631721D03*
X0493220Y0631721D03*
X0532590Y0631721D03*
X0532590Y0592351D03*
X0571960Y0592351D03*
X0611330Y0592351D03*
X0650700Y0592351D03*
X0690070Y0592351D03*
X0690070Y0552981D03*
X0690070Y0513611D03*
X0690070Y0474241D03*
X0690070Y0434871D03*
X0690070Y0395501D03*
X0690070Y0356131D03*
X0729440Y0356131D03*
X0768810Y0356131D03*
X0768810Y0395501D03*
X0729440Y0395501D03*
X0729440Y0434871D03*
X0768810Y0434871D03*
X0768810Y0474241D03*
X0729440Y0474241D03*
X0729440Y0513611D03*
X0768810Y0513611D03*
X0768810Y0552981D03*
X0729440Y0552981D03*
X0729440Y0592351D03*
X0768810Y0592351D03*
X0768810Y0631721D03*
X0729440Y0631721D03*
X0690070Y0631721D03*
X0650700Y0631721D03*
X0611330Y0631721D03*
X0571960Y0631721D03*
X0571960Y0671091D03*
X0611330Y0671091D03*
X0650700Y0671091D03*
X0690070Y0671091D03*
X0729440Y0671091D03*
X0768810Y0671091D03*
X0768810Y0710461D03*
X0729440Y0710461D03*
X0690070Y0710461D03*
X0650700Y0710461D03*
X0611330Y0710461D03*
X0571960Y0710461D03*
X0532590Y0710461D03*
X0532590Y0671091D03*
X0493220Y0671091D03*
X0453850Y0671091D03*
X0414480Y0671091D03*
X0414480Y0631721D03*
X0414480Y0592351D03*
X0375110Y0592351D03*
X0375110Y0552981D03*
X0375110Y0513611D03*
X0375110Y0474241D03*
X0335740Y0474241D03*
X0335740Y0513611D03*
X0335740Y0552981D03*
X0335740Y0592351D03*
X0335740Y0631721D03*
X0375110Y0631721D03*
X0375110Y0671091D03*
X0375110Y0710461D03*
X0414480Y0710461D03*
X0453850Y0710461D03*
X0493220Y0710461D03*
X0493220Y0749831D03*
X0453850Y0749831D03*
X0414480Y0749831D03*
X0375110Y0749831D03*
X0335740Y0749831D03*
X0335740Y0710461D03*
X0335740Y0671091D03*
X0296369Y0671091D03*
X0256999Y0671091D03*
X0217629Y0671091D03*
X0178259Y0671091D03*
X0178259Y0631721D03*
X0217629Y0631721D03*
X0217629Y0592351D03*
X0178259Y0592351D03*
X0138889Y0592351D03*
X0138889Y0552981D03*
X0099519Y0552981D03*
X0099519Y0513611D03*
X0060149Y0513611D03*
X0060149Y0474241D03*
X0099519Y0474241D03*
X0099519Y0434871D03*
X0099519Y0395501D03*
X0060149Y0395501D03*
X0060149Y0434871D03*
X0060149Y0356131D03*
X0099519Y0356131D03*
X0138889Y0356131D03*
X0138889Y0395501D03*
X0138889Y0434871D03*
X0138889Y0474241D03*
X0138889Y0513611D03*
X0178259Y0513611D03*
X0217629Y0513611D03*
X0217629Y0474241D03*
X0178259Y0474241D03*
X0178259Y0434871D03*
X0178259Y0395501D03*
X0217629Y0395501D03*
X0217629Y0434871D03*
X0256999Y0434871D03*
X0256999Y0395501D03*
X0256999Y0356131D03*
X0217629Y0356131D03*
X0178259Y0356131D03*
X0178259Y0316761D03*
X0217629Y0316761D03*
X0256999Y0316761D03*
X0296369Y0316761D03*
X0296369Y0356131D03*
X0296369Y0395501D03*
X0296369Y0434871D03*
X0296369Y0474241D03*
X0256999Y0474241D03*
X0256999Y0513611D03*
X0256999Y0552981D03*
X0217629Y0552981D03*
X0178259Y0552981D03*
X0256999Y0592351D03*
X0256999Y0631721D03*
X0296369Y0631721D03*
X0296369Y0592351D03*
X0296369Y0552981D03*
X0296369Y0513611D03*
X0335740Y0434871D03*
X0335740Y0395501D03*
X0335740Y0356131D03*
X0375110Y0356131D03*
X0414480Y0356131D03*
X0414480Y0316761D03*
X0453850Y0316761D03*
X0493220Y0316761D03*
X0532590Y0316761D03*
X0571960Y0316761D03*
X0611330Y0316761D03*
X0650700Y0316761D03*
X0690070Y0316761D03*
X0729440Y0316761D03*
X0768810Y0316761D03*
X0768810Y0277391D03*
X0729440Y0277391D03*
X0690070Y0277391D03*
X0650700Y0277391D03*
X0611330Y0277391D03*
X0571960Y0277391D03*
X0532590Y0277391D03*
X0493220Y0277391D03*
X0453850Y0277391D03*
X0414480Y0277391D03*
X0375110Y0277391D03*
X0375110Y0316761D03*
X0335740Y0316761D03*
X0335740Y0277391D03*
X0335740Y0238020D03*
X0375110Y0238020D03*
X0375110Y0198650D03*
X0414480Y0198650D03*
X0414480Y0159280D03*
X0414480Y0119910D03*
X0453850Y0119910D03*
X0493220Y0119910D03*
X0493220Y0080540D03*
X0453850Y0080540D03*
X0453850Y0041170D03*
X0493220Y0041170D03*
X0532590Y0041170D03*
X0571960Y0041170D03*
X0611330Y0041170D03*
X0611330Y0080540D03*
X0571960Y0080540D03*
X0532590Y0080540D03*
X0532590Y0119910D03*
X0571960Y0119910D03*
X0611330Y0119910D03*
X0650700Y0119910D03*
X0650700Y0080540D03*
X0650700Y0041170D03*
X0690070Y0041170D03*
X0690070Y0080540D03*
X0690070Y0119910D03*
X0729440Y0119910D03*
X0768810Y0119910D03*
X0768810Y0080540D03*
X0729440Y0080540D03*
X0729440Y0041170D03*
X0729440Y0159280D03*
X0768810Y0159280D03*
X0768810Y0198650D03*
X0729440Y0198650D03*
X0690070Y0198650D03*
X0690070Y0159280D03*
X0650700Y0159280D03*
X0611330Y0159280D03*
X0571960Y0159280D03*
X0532590Y0159280D03*
X0493220Y0159280D03*
X0453850Y0159280D03*
X0453850Y0198650D03*
X0493220Y0198650D03*
X0532590Y0198650D03*
X0571960Y0198650D03*
X0611330Y0198650D03*
X0650700Y0198650D03*
X0650700Y0238020D03*
X0611330Y0238020D03*
X0571960Y0238020D03*
X0532590Y0238020D03*
X0493220Y0238020D03*
X0453850Y0238020D03*
X0414480Y0238020D03*
X0375110Y0159280D03*
X0375110Y0119910D03*
X0375110Y0080540D03*
X0414480Y0080540D03*
X0414480Y0041170D03*
X0375110Y0041170D03*
X0335740Y0041170D03*
X0335740Y0080540D03*
X0335740Y0119910D03*
X0335740Y0159280D03*
X0335740Y0198650D03*
X0296369Y0198650D03*
X0256999Y0198650D03*
X0256999Y0159280D03*
X0217629Y0159280D03*
X0178259Y0159280D03*
X0178259Y0119910D03*
X0217629Y0119910D03*
X0217629Y0080540D03*
X0178259Y0080540D03*
X0138889Y0080540D03*
X0138889Y0041170D03*
X0099519Y0041170D03*
X0099519Y0080540D03*
X0060149Y0080540D03*
X0060149Y0119910D03*
X0099519Y0119910D03*
X0138889Y0119910D03*
X0138889Y0159280D03*
X0099519Y0159280D03*
X0060149Y0159280D03*
X0060149Y0198650D03*
X0099519Y0198650D03*
X0138889Y0198650D03*
X0178259Y0198650D03*
X0217629Y0198650D03*
X0217629Y0238020D03*
X0178259Y0238020D03*
X0138889Y0238020D03*
X0099519Y0238020D03*
X0060149Y0238020D03*
X0060149Y0277391D03*
X0060149Y0316761D03*
X0099519Y0316761D03*
X0138889Y0316761D03*
X0138889Y0277391D03*
X0099519Y0277391D03*
X0178259Y0277391D03*
X0217629Y0277391D03*
X0256999Y0277391D03*
X0296369Y0277391D03*
X0296369Y0238020D03*
X0256999Y0238020D03*
X0296369Y0159280D03*
X0296369Y0119910D03*
X0256999Y0119910D03*
X0256999Y0080540D03*
X0256999Y0041170D03*
X0217629Y0041170D03*
X0178259Y0041170D03*
X0296369Y0041170D03*
X0296369Y0080540D03*
X0690070Y0238020D03*
X0729440Y0238020D03*
X0768810Y0238020D03*
X0296369Y0710461D03*
X0256999Y0710461D03*
X0217629Y0710461D03*
X0178259Y0710461D03*
X0138889Y0710461D03*
X0138889Y0671091D03*
X0138889Y0631721D03*
X0099519Y0631721D03*
X0099519Y0592351D03*
X0060149Y0592351D03*
X0060149Y0552981D03*
X0060149Y0631721D03*
X0060149Y0671091D03*
X0099519Y0671091D03*
X0099519Y0710461D03*
X0060149Y0710461D03*
X0099519Y0749831D03*
X0138889Y0749831D03*
X0178259Y0749831D03*
X0217629Y0749831D03*
X0256999Y0749831D03*
X0296369Y0749831D03*
X0532590Y0749831D03*
X0571960Y0749831D03*
X0611330Y0749831D03*
X0650700Y0749831D03*
X0690070Y0749831D03*
X0729440Y0749831D03*
M02*
