%
M48
M72
T01C0.04000
%
T01
X56212Y60855
X79834Y41170
X56212Y100225
X56212Y139595
X56212Y178965
X56212Y218335
X56212Y257706
X56212Y297076
X56212Y336446
X56212Y375816
X56212Y415186
X56212Y454556
X56212Y493926
X56212Y533296
X56212Y572666
X56212Y612036
X56212Y651406
X56212Y690776
X60149Y730146
X79834Y749831
X749125Y749831
X768810Y730146
X768810Y690776
X768810Y651406
X768810Y612036
X768810Y572666
X768810Y533296
X768810Y493926
X768810Y454556
X768810Y415186
X768810Y375816
X768810Y336446
X768810Y297076
X768810Y257706
X768810Y218335
X768810Y178965
X768810Y139595
X768810Y100225
X768810Y60855
X749125Y41170
M30
