G75*
%MOIN*%
%OFA0B0*%
%FSLAX25Y25*%
%IPPOS*%
%LPD*%
%AMOC8*
5,1,8,0,0,1.08239X$1,22.5*
%
%ADD10C,0.00000*%
%ADD11R,0.03543X0.03937*%
%ADD12C,0.00787*%
D10*
X0020779Y0001800D02*
X0020779Y0789202D01*
X0808180Y0789202D01*
X0808180Y0001800D01*
X0020779Y0001800D01*
D11*
X0096369Y0041170D03*
X0102669Y0041170D03*
X0135740Y0041170D03*
X0142039Y0041170D03*
X0175110Y0041170D03*
X0181409Y0041170D03*
X0214480Y0041170D03*
X0220779Y0041170D03*
X0253850Y0041170D03*
X0260149Y0041170D03*
X0293220Y0041170D03*
X0299519Y0041170D03*
X0332590Y0041170D03*
X0338889Y0041170D03*
X0371960Y0041170D03*
X0378259Y0041170D03*
X0411330Y0041170D03*
X0417629Y0041170D03*
X0450700Y0041170D03*
X0456999Y0041170D03*
X0490070Y0041170D03*
X0496369Y0041170D03*
X0529440Y0041170D03*
X0535740Y0041170D03*
X0568810Y0041170D03*
X0575110Y0041170D03*
X0608180Y0041170D03*
X0614480Y0041170D03*
X0647551Y0041170D03*
X0653850Y0041170D03*
X0686921Y0041170D03*
X0693220Y0041170D03*
X0726291Y0041170D03*
X0732590Y0041170D03*
X0732590Y0080540D03*
X0726291Y0080540D03*
X0693220Y0080540D03*
X0686921Y0080540D03*
X0653850Y0080540D03*
X0647551Y0080540D03*
X0614480Y0080540D03*
X0608180Y0080540D03*
X0575110Y0080540D03*
X0568810Y0080540D03*
X0535740Y0080540D03*
X0529440Y0080540D03*
X0496369Y0080540D03*
X0490070Y0080540D03*
X0456999Y0080540D03*
X0450700Y0080540D03*
X0417629Y0080540D03*
X0411330Y0080540D03*
X0378259Y0080540D03*
X0371960Y0080540D03*
X0338889Y0080540D03*
X0332590Y0080540D03*
X0299519Y0080540D03*
X0293220Y0080540D03*
X0260149Y0080540D03*
X0253850Y0080540D03*
X0220779Y0080540D03*
X0214480Y0080540D03*
X0181409Y0080540D03*
X0175110Y0080540D03*
X0142039Y0080540D03*
X0135740Y0080540D03*
X0102669Y0080540D03*
X0096369Y0080540D03*
X0063299Y0080540D03*
X0056999Y0080540D03*
X0056999Y0119910D03*
X0063299Y0119910D03*
X0096369Y0119910D03*
X0102669Y0119910D03*
X0135740Y0119910D03*
X0142039Y0119910D03*
X0175110Y0119910D03*
X0181409Y0119910D03*
X0214480Y0119910D03*
X0220779Y0119910D03*
X0253850Y0119910D03*
X0260149Y0119910D03*
X0293220Y0119910D03*
X0299519Y0119910D03*
X0332590Y0119910D03*
X0338889Y0119910D03*
X0371960Y0119910D03*
X0378259Y0119910D03*
X0411330Y0119910D03*
X0417629Y0119910D03*
X0450700Y0119910D03*
X0456999Y0119910D03*
X0490070Y0119910D03*
X0496369Y0119910D03*
X0529440Y0119910D03*
X0535740Y0119910D03*
X0568810Y0119910D03*
X0575110Y0119910D03*
X0608180Y0119910D03*
X0614480Y0119910D03*
X0647551Y0119910D03*
X0653850Y0119910D03*
X0686921Y0119910D03*
X0693220Y0119910D03*
X0726291Y0119910D03*
X0732590Y0119910D03*
X0765661Y0119910D03*
X0771960Y0119910D03*
X0771960Y0080540D03*
X0765661Y0080540D03*
X0765661Y0159280D03*
X0771960Y0159280D03*
X0732590Y0159280D03*
X0726291Y0159280D03*
X0693220Y0159280D03*
X0686921Y0159280D03*
X0653850Y0159280D03*
X0647551Y0159280D03*
X0614480Y0159280D03*
X0608180Y0159280D03*
X0575110Y0159280D03*
X0568810Y0159280D03*
X0535740Y0159280D03*
X0529440Y0159280D03*
X0496369Y0159280D03*
X0490070Y0159280D03*
X0456999Y0159280D03*
X0450700Y0159280D03*
X0417629Y0159280D03*
X0411330Y0159280D03*
X0378259Y0159280D03*
X0371960Y0159280D03*
X0338889Y0159280D03*
X0332590Y0159280D03*
X0299519Y0159280D03*
X0293220Y0159280D03*
X0260149Y0159280D03*
X0253850Y0159280D03*
X0220779Y0159280D03*
X0214480Y0159280D03*
X0181409Y0159280D03*
X0175110Y0159280D03*
X0142039Y0159280D03*
X0135740Y0159280D03*
X0102669Y0159280D03*
X0096369Y0159280D03*
X0063299Y0159280D03*
X0056999Y0159280D03*
X0056999Y0198650D03*
X0063299Y0198650D03*
X0096369Y0198650D03*
X0102669Y0198650D03*
X0135740Y0198650D03*
X0142039Y0198650D03*
X0175110Y0198650D03*
X0181409Y0198650D03*
X0214480Y0198650D03*
X0220779Y0198650D03*
X0253850Y0198650D03*
X0260149Y0198650D03*
X0293220Y0198650D03*
X0299519Y0198650D03*
X0332590Y0198650D03*
X0338889Y0198650D03*
X0371960Y0198650D03*
X0378259Y0198650D03*
X0411330Y0198650D03*
X0417629Y0198650D03*
X0450700Y0198650D03*
X0456999Y0198650D03*
X0490070Y0198650D03*
X0496369Y0198650D03*
X0529440Y0198650D03*
X0535740Y0198650D03*
X0568810Y0198650D03*
X0575110Y0198650D03*
X0608180Y0198650D03*
X0614480Y0198650D03*
X0647551Y0198650D03*
X0653850Y0198650D03*
X0686921Y0198650D03*
X0693220Y0198650D03*
X0726291Y0198650D03*
X0732590Y0198650D03*
X0765661Y0198650D03*
X0771960Y0198650D03*
X0771960Y0238020D03*
X0765661Y0238020D03*
X0732590Y0238020D03*
X0726291Y0238020D03*
X0693220Y0238020D03*
X0686921Y0238020D03*
X0653850Y0238020D03*
X0647551Y0238020D03*
X0614480Y0238020D03*
X0608180Y0238020D03*
X0575110Y0238020D03*
X0568810Y0238020D03*
X0535740Y0238020D03*
X0529440Y0238020D03*
X0496369Y0238020D03*
X0490070Y0238020D03*
X0456999Y0238020D03*
X0450700Y0238020D03*
X0417629Y0238020D03*
X0411330Y0238020D03*
X0378259Y0238020D03*
X0371960Y0238020D03*
X0338889Y0238020D03*
X0332590Y0238020D03*
X0299519Y0238020D03*
X0293220Y0238020D03*
X0260149Y0238020D03*
X0253850Y0238020D03*
X0220779Y0238020D03*
X0214480Y0238020D03*
X0181409Y0238020D03*
X0175110Y0238020D03*
X0142039Y0238020D03*
X0135740Y0238020D03*
X0102669Y0238020D03*
X0096369Y0238020D03*
X0063299Y0238020D03*
X0056999Y0238020D03*
X0056999Y0277391D03*
X0063299Y0277391D03*
X0096369Y0277391D03*
X0102669Y0277391D03*
X0135740Y0277391D03*
X0142039Y0277391D03*
X0175110Y0277391D03*
X0181409Y0277391D03*
X0214480Y0277391D03*
X0220779Y0277391D03*
X0253850Y0277391D03*
X0260149Y0277391D03*
X0293220Y0277391D03*
X0299519Y0277391D03*
X0332590Y0277391D03*
X0338889Y0277391D03*
X0371960Y0277391D03*
X0378259Y0277391D03*
X0411330Y0277391D03*
X0417629Y0277391D03*
X0450700Y0277391D03*
X0456999Y0277391D03*
X0490070Y0277391D03*
X0496369Y0277391D03*
X0529440Y0277391D03*
X0535740Y0277391D03*
X0568810Y0277391D03*
X0575110Y0277391D03*
X0608180Y0277391D03*
X0614480Y0277391D03*
X0647551Y0277391D03*
X0653850Y0277391D03*
X0686921Y0277391D03*
X0693220Y0277391D03*
X0726291Y0277391D03*
X0732590Y0277391D03*
X0765661Y0277391D03*
X0771960Y0277391D03*
X0771960Y0316761D03*
X0765661Y0316761D03*
X0732590Y0316761D03*
X0726291Y0316761D03*
X0693220Y0316761D03*
X0686921Y0316761D03*
X0653850Y0316761D03*
X0647551Y0316761D03*
X0614480Y0316761D03*
X0608180Y0316761D03*
X0575110Y0316761D03*
X0568810Y0316761D03*
X0535740Y0316761D03*
X0529440Y0316761D03*
X0496369Y0316761D03*
X0490070Y0316761D03*
X0456999Y0316761D03*
X0450700Y0316761D03*
X0417629Y0316761D03*
X0411330Y0316761D03*
X0378259Y0316761D03*
X0371960Y0316761D03*
X0338889Y0316761D03*
X0332590Y0316761D03*
X0299519Y0316761D03*
X0293220Y0316761D03*
X0260149Y0316761D03*
X0253850Y0316761D03*
X0220779Y0316761D03*
X0214480Y0316761D03*
X0181409Y0316761D03*
X0175110Y0316761D03*
X0142039Y0316761D03*
X0135740Y0316761D03*
X0102669Y0316761D03*
X0096369Y0316761D03*
X0063299Y0316761D03*
X0056999Y0316761D03*
X0056999Y0356131D03*
X0063299Y0356131D03*
X0096369Y0356131D03*
X0102669Y0356131D03*
X0135740Y0356131D03*
X0142039Y0356131D03*
X0175110Y0356131D03*
X0181409Y0356131D03*
X0214480Y0356131D03*
X0220779Y0356131D03*
X0253850Y0356131D03*
X0260149Y0356131D03*
X0293220Y0356131D03*
X0299519Y0356131D03*
X0332590Y0356131D03*
X0338889Y0356131D03*
X0371960Y0356131D03*
X0378259Y0356131D03*
X0411330Y0356131D03*
X0417629Y0356131D03*
X0450700Y0356131D03*
X0456999Y0356131D03*
X0490070Y0356131D03*
X0496369Y0356131D03*
X0529440Y0356131D03*
X0535740Y0356131D03*
X0568810Y0356131D03*
X0575110Y0356131D03*
X0608180Y0356131D03*
X0614480Y0356131D03*
X0647551Y0356131D03*
X0653850Y0356131D03*
X0686921Y0356131D03*
X0693220Y0356131D03*
X0726291Y0356131D03*
X0732590Y0356131D03*
X0765661Y0356131D03*
X0771960Y0356131D03*
X0771960Y0395501D03*
X0765661Y0395501D03*
X0732590Y0395501D03*
X0726291Y0395501D03*
X0693220Y0395501D03*
X0686921Y0395501D03*
X0653850Y0395501D03*
X0647551Y0395501D03*
X0614480Y0395501D03*
X0608180Y0395501D03*
X0575110Y0395501D03*
X0568810Y0395501D03*
X0535740Y0395501D03*
X0529440Y0395501D03*
X0496369Y0395501D03*
X0490070Y0395501D03*
X0456999Y0395501D03*
X0450700Y0395501D03*
X0450700Y0434871D03*
X0456999Y0434871D03*
X0490070Y0434871D03*
X0496369Y0434871D03*
X0529440Y0434871D03*
X0535740Y0434871D03*
X0568810Y0434871D03*
X0575110Y0434871D03*
X0608180Y0434871D03*
X0614480Y0434871D03*
X0647551Y0434871D03*
X0653850Y0434871D03*
X0686921Y0434871D03*
X0693220Y0434871D03*
X0726291Y0434871D03*
X0732590Y0434871D03*
X0765661Y0434871D03*
X0771960Y0434871D03*
X0771960Y0474241D03*
X0765661Y0474241D03*
X0732590Y0474241D03*
X0726291Y0474241D03*
X0693220Y0474241D03*
X0686921Y0474241D03*
X0653850Y0474241D03*
X0647551Y0474241D03*
X0614480Y0474241D03*
X0608180Y0474241D03*
X0575110Y0474241D03*
X0568810Y0474241D03*
X0535740Y0474241D03*
X0529440Y0474241D03*
X0496369Y0474241D03*
X0490070Y0474241D03*
X0456999Y0474241D03*
X0450700Y0474241D03*
X0417629Y0474241D03*
X0411330Y0474241D03*
X0378259Y0474241D03*
X0371960Y0474241D03*
X0338889Y0474241D03*
X0332590Y0474241D03*
X0299519Y0474241D03*
X0293220Y0474241D03*
X0260149Y0474241D03*
X0253850Y0474241D03*
X0220779Y0474241D03*
X0214480Y0474241D03*
X0181409Y0474241D03*
X0175110Y0474241D03*
X0142039Y0474241D03*
X0135740Y0474241D03*
X0102669Y0474241D03*
X0096369Y0474241D03*
X0063299Y0474241D03*
X0056999Y0474241D03*
X0056999Y0513611D03*
X0063299Y0513611D03*
X0096369Y0513611D03*
X0102669Y0513611D03*
X0135740Y0513611D03*
X0142039Y0513611D03*
X0175110Y0513611D03*
X0181409Y0513611D03*
X0214480Y0513611D03*
X0220779Y0513611D03*
X0253850Y0513611D03*
X0260149Y0513611D03*
X0293220Y0513611D03*
X0299519Y0513611D03*
X0332590Y0513611D03*
X0338889Y0513611D03*
X0371960Y0513611D03*
X0378259Y0513611D03*
X0411330Y0513611D03*
X0417629Y0513611D03*
X0450700Y0513611D03*
X0456999Y0513611D03*
X0490070Y0513611D03*
X0496369Y0513611D03*
X0529440Y0513611D03*
X0535740Y0513611D03*
X0568810Y0513611D03*
X0575110Y0513611D03*
X0608180Y0513611D03*
X0614480Y0513611D03*
X0647551Y0513611D03*
X0653850Y0513611D03*
X0686921Y0513611D03*
X0693220Y0513611D03*
X0726291Y0513611D03*
X0732590Y0513611D03*
X0765661Y0513611D03*
X0771960Y0513611D03*
X0771960Y0552981D03*
X0765661Y0552981D03*
X0732590Y0552981D03*
X0726291Y0552981D03*
X0693220Y0552981D03*
X0686921Y0552981D03*
X0653850Y0552981D03*
X0647551Y0552981D03*
X0614480Y0552981D03*
X0608180Y0552981D03*
X0575110Y0552981D03*
X0568810Y0552981D03*
X0535740Y0552981D03*
X0529440Y0552981D03*
X0496369Y0552981D03*
X0490070Y0552981D03*
X0456999Y0552981D03*
X0450700Y0552981D03*
X0417629Y0552981D03*
X0411330Y0552981D03*
X0378259Y0552981D03*
X0371960Y0552981D03*
X0338889Y0552981D03*
X0332590Y0552981D03*
X0299519Y0552981D03*
X0293220Y0552981D03*
X0260149Y0552981D03*
X0253850Y0552981D03*
X0220779Y0552981D03*
X0214480Y0552981D03*
X0181409Y0552981D03*
X0175110Y0552981D03*
X0142039Y0552981D03*
X0135740Y0552981D03*
X0102669Y0552981D03*
X0096369Y0552981D03*
X0063299Y0552981D03*
X0056999Y0552981D03*
X0056999Y0592351D03*
X0063299Y0592351D03*
X0096369Y0592351D03*
X0102669Y0592351D03*
X0135740Y0592351D03*
X0142039Y0592351D03*
X0175110Y0592351D03*
X0181409Y0592351D03*
X0214480Y0592351D03*
X0220779Y0592351D03*
X0253850Y0592351D03*
X0260149Y0592351D03*
X0293220Y0592351D03*
X0299519Y0592351D03*
X0332590Y0592351D03*
X0338889Y0592351D03*
X0371960Y0592351D03*
X0378259Y0592351D03*
X0411330Y0592351D03*
X0417629Y0592351D03*
X0450700Y0592351D03*
X0456999Y0592351D03*
X0490070Y0592351D03*
X0496369Y0592351D03*
X0529440Y0592351D03*
X0535740Y0592351D03*
X0568810Y0592351D03*
X0575110Y0592351D03*
X0608180Y0592351D03*
X0614480Y0592351D03*
X0647551Y0592351D03*
X0653850Y0592351D03*
X0686921Y0592351D03*
X0693220Y0592351D03*
X0726291Y0592351D03*
X0732590Y0592351D03*
X0765661Y0592351D03*
X0771960Y0592351D03*
X0771960Y0631721D03*
X0765661Y0631721D03*
X0732590Y0631721D03*
X0726291Y0631721D03*
X0693220Y0631721D03*
X0686921Y0631721D03*
X0653850Y0631721D03*
X0647551Y0631721D03*
X0614480Y0631721D03*
X0608180Y0631721D03*
X0575110Y0631721D03*
X0568810Y0631721D03*
X0535740Y0631721D03*
X0529440Y0631721D03*
X0496369Y0631721D03*
X0490070Y0631721D03*
X0456999Y0631721D03*
X0450700Y0631721D03*
X0417629Y0631721D03*
X0411330Y0631721D03*
X0378259Y0631721D03*
X0371960Y0631721D03*
X0338889Y0631721D03*
X0332590Y0631721D03*
X0299519Y0631721D03*
X0293220Y0631721D03*
X0260149Y0631721D03*
X0253850Y0631721D03*
X0220779Y0631721D03*
X0214480Y0631721D03*
X0181409Y0631721D03*
X0175110Y0631721D03*
X0142039Y0631721D03*
X0135740Y0631721D03*
X0102669Y0631721D03*
X0096369Y0631721D03*
X0063299Y0631721D03*
X0056999Y0631721D03*
X0056999Y0671091D03*
X0063299Y0671091D03*
X0096369Y0671091D03*
X0102669Y0671091D03*
X0135740Y0671091D03*
X0142039Y0671091D03*
X0175110Y0671091D03*
X0181409Y0671091D03*
X0214480Y0671091D03*
X0220779Y0671091D03*
X0253850Y0671091D03*
X0260149Y0671091D03*
X0293220Y0671091D03*
X0299519Y0671091D03*
X0332590Y0671091D03*
X0338889Y0671091D03*
X0371960Y0671091D03*
X0378259Y0671091D03*
X0411330Y0671091D03*
X0417629Y0671091D03*
X0450700Y0671091D03*
X0456999Y0671091D03*
X0490070Y0671091D03*
X0496369Y0671091D03*
X0529440Y0671091D03*
X0535740Y0671091D03*
X0568810Y0671091D03*
X0575110Y0671091D03*
X0608180Y0671091D03*
X0614480Y0671091D03*
X0647551Y0671091D03*
X0653850Y0671091D03*
X0686921Y0671091D03*
X0693220Y0671091D03*
X0726291Y0671091D03*
X0732590Y0671091D03*
X0765661Y0671091D03*
X0771960Y0671091D03*
X0771960Y0710461D03*
X0765661Y0710461D03*
X0732590Y0710461D03*
X0726291Y0710461D03*
X0693220Y0710461D03*
X0686921Y0710461D03*
X0653850Y0710461D03*
X0647551Y0710461D03*
X0614480Y0710461D03*
X0608180Y0710461D03*
X0575110Y0710461D03*
X0568810Y0710461D03*
X0535740Y0710461D03*
X0529440Y0710461D03*
X0496369Y0710461D03*
X0490070Y0710461D03*
X0456999Y0710461D03*
X0450700Y0710461D03*
X0417629Y0710461D03*
X0411330Y0710461D03*
X0378259Y0710461D03*
X0371960Y0710461D03*
X0338889Y0710461D03*
X0332590Y0710461D03*
X0299519Y0710461D03*
X0293220Y0710461D03*
X0260149Y0710461D03*
X0253850Y0710461D03*
X0220779Y0710461D03*
X0214480Y0710461D03*
X0181409Y0710461D03*
X0175110Y0710461D03*
X0142039Y0710461D03*
X0135740Y0710461D03*
X0102669Y0710461D03*
X0096369Y0710461D03*
X0063299Y0710461D03*
X0056999Y0710461D03*
X0096369Y0749831D03*
X0102669Y0749831D03*
X0135740Y0749831D03*
X0142039Y0749831D03*
X0175110Y0749831D03*
X0181409Y0749831D03*
X0214480Y0749831D03*
X0220779Y0749831D03*
X0253850Y0749831D03*
X0260149Y0749831D03*
X0293220Y0749831D03*
X0299519Y0749831D03*
X0332590Y0749831D03*
X0338889Y0749831D03*
X0371960Y0749831D03*
X0378259Y0749831D03*
X0411330Y0749831D03*
X0417629Y0749831D03*
X0450700Y0749831D03*
X0456999Y0749831D03*
X0490070Y0749831D03*
X0496369Y0749831D03*
X0529440Y0749831D03*
X0535740Y0749831D03*
X0568810Y0749831D03*
X0575110Y0749831D03*
X0608180Y0749831D03*
X0614480Y0749831D03*
X0647551Y0749831D03*
X0653850Y0749831D03*
X0686921Y0749831D03*
X0693220Y0749831D03*
X0726291Y0749831D03*
X0732590Y0749831D03*
X0417629Y0434871D03*
X0411330Y0434871D03*
X0378259Y0434871D03*
X0371960Y0434871D03*
X0338889Y0434871D03*
X0332590Y0434871D03*
X0332590Y0395501D03*
X0338889Y0395501D03*
X0371960Y0395501D03*
X0378259Y0395501D03*
X0299519Y0395501D03*
X0293220Y0395501D03*
X0260149Y0395501D03*
X0253850Y0395501D03*
X0220779Y0395501D03*
X0214480Y0395501D03*
X0181409Y0395501D03*
X0175110Y0395501D03*
X0142039Y0395501D03*
X0135740Y0395501D03*
X0102669Y0395501D03*
X0096369Y0395501D03*
X0063299Y0395501D03*
X0056999Y0395501D03*
X0056999Y0434871D03*
X0063299Y0434871D03*
X0096369Y0434871D03*
X0102669Y0434871D03*
X0135740Y0434871D03*
X0142039Y0434871D03*
X0175110Y0434871D03*
X0181409Y0434871D03*
X0214480Y0434871D03*
X0220779Y0434871D03*
X0253850Y0434871D03*
X0260149Y0434871D03*
X0293220Y0434871D03*
X0299519Y0434871D03*
D12*
X0296369Y0434871D03*
X0296369Y0395501D03*
X0256999Y0395501D03*
X0256999Y0434871D03*
X0217629Y0434871D03*
X0178259Y0434871D03*
X0178259Y0395501D03*
X0217629Y0395501D03*
X0217629Y0356131D03*
X0178259Y0356131D03*
X0138889Y0356131D03*
X0138889Y0395501D03*
X0138889Y0434871D03*
X0138889Y0474241D03*
X0099519Y0474241D03*
X0099519Y0513611D03*
X0060149Y0513611D03*
X0060149Y0474241D03*
X0060149Y0434871D03*
X0060149Y0395501D03*
X0099519Y0395501D03*
X0099519Y0434871D03*
X0099519Y0356131D03*
X0060149Y0356131D03*
X0060149Y0316761D03*
X0099519Y0316761D03*
X0138889Y0316761D03*
X0178259Y0316761D03*
X0217629Y0316761D03*
X0256999Y0316761D03*
X0256999Y0356131D03*
X0296369Y0356131D03*
X0296369Y0316761D03*
X0296369Y0277391D03*
X0256999Y0277391D03*
X0217629Y0277391D03*
X0178259Y0277391D03*
X0138889Y0277391D03*
X0099519Y0277391D03*
X0060149Y0277391D03*
X0060149Y0238020D03*
X0060149Y0198650D03*
X0060149Y0159280D03*
X0060149Y0119910D03*
X0060149Y0080540D03*
X0099519Y0080540D03*
X0099519Y0041170D03*
X0138889Y0041170D03*
X0138889Y0080540D03*
X0178259Y0080540D03*
X0217629Y0080540D03*
X0217629Y0041170D03*
X0178259Y0041170D03*
X0256999Y0041170D03*
X0256999Y0080540D03*
X0256999Y0119910D03*
X0217629Y0119910D03*
X0178259Y0119910D03*
X0138889Y0119910D03*
X0099519Y0119910D03*
X0099519Y0159280D03*
X0138889Y0159280D03*
X0178259Y0159280D03*
X0217629Y0159280D03*
X0256999Y0159280D03*
X0256999Y0198650D03*
X0217629Y0198650D03*
X0178259Y0198650D03*
X0138889Y0198650D03*
X0099519Y0198650D03*
X0099519Y0238020D03*
X0138889Y0238020D03*
X0178259Y0238020D03*
X0217629Y0238020D03*
X0256999Y0238020D03*
X0296369Y0238020D03*
X0296369Y0198650D03*
X0296369Y0159280D03*
X0296369Y0119910D03*
X0296369Y0080540D03*
X0296369Y0041170D03*
X0335740Y0041170D03*
X0375110Y0041170D03*
X0414480Y0041170D03*
X0453850Y0041170D03*
X0493220Y0041170D03*
X0532590Y0041170D03*
X0571960Y0041170D03*
X0611330Y0041170D03*
X0611330Y0080540D03*
X0571960Y0080540D03*
X0532590Y0080540D03*
X0532590Y0119910D03*
X0571960Y0119910D03*
X0611330Y0119910D03*
X0650700Y0119910D03*
X0650700Y0080540D03*
X0650700Y0041170D03*
X0690070Y0041170D03*
X0690070Y0080540D03*
X0690070Y0119910D03*
X0729440Y0119910D03*
X0768810Y0119910D03*
X0768810Y0080540D03*
X0729440Y0080540D03*
X0729440Y0041170D03*
X0729440Y0159280D03*
X0768810Y0159280D03*
X0768810Y0198650D03*
X0729440Y0198650D03*
X0690070Y0198650D03*
X0690070Y0159280D03*
X0650700Y0159280D03*
X0611330Y0159280D03*
X0571960Y0159280D03*
X0532590Y0159280D03*
X0493220Y0159280D03*
X0453850Y0159280D03*
X0453850Y0119910D03*
X0493220Y0119910D03*
X0453850Y0080540D03*
X0414480Y0080540D03*
X0414480Y0119910D03*
X0414480Y0159280D03*
X0414480Y0198650D03*
X0453850Y0198650D03*
X0493220Y0198650D03*
X0532590Y0198650D03*
X0571960Y0198650D03*
X0611330Y0198650D03*
X0650700Y0198650D03*
X0650700Y0238020D03*
X0611330Y0238020D03*
X0571960Y0238020D03*
X0532590Y0238020D03*
X0493220Y0238020D03*
X0453850Y0238020D03*
X0414480Y0238020D03*
X0375110Y0238020D03*
X0375110Y0198650D03*
X0375110Y0159280D03*
X0375110Y0119910D03*
X0375110Y0080540D03*
X0335740Y0080540D03*
X0335740Y0119910D03*
X0335740Y0159280D03*
X0335740Y0198650D03*
X0335740Y0238020D03*
X0335740Y0277391D03*
X0375110Y0277391D03*
X0375110Y0316761D03*
X0414480Y0316761D03*
X0414480Y0356131D03*
X0453850Y0356131D03*
X0493220Y0356131D03*
X0493220Y0395501D03*
X0493220Y0434871D03*
X0453850Y0434871D03*
X0453850Y0395501D03*
X0414480Y0434871D03*
X0414480Y0474241D03*
X0453850Y0474241D03*
X0493220Y0474241D03*
X0532590Y0474241D03*
X0571960Y0474241D03*
X0571960Y0513611D03*
X0611330Y0513611D03*
X0611330Y0474241D03*
X0611330Y0434871D03*
X0611330Y0395501D03*
X0571960Y0395501D03*
X0571960Y0434871D03*
X0532590Y0434871D03*
X0532590Y0395501D03*
X0532590Y0356131D03*
X0571960Y0356131D03*
X0611330Y0356131D03*
X0650700Y0356131D03*
X0650700Y0395501D03*
X0650700Y0434871D03*
X0650700Y0474241D03*
X0650700Y0513611D03*
X0650700Y0552981D03*
X0611330Y0552981D03*
X0571960Y0552981D03*
X0532590Y0552981D03*
X0532590Y0513611D03*
X0493220Y0513611D03*
X0453850Y0513611D03*
X0453850Y0552981D03*
X0493220Y0552981D03*
X0493220Y0592351D03*
X0453850Y0592351D03*
X0453850Y0631721D03*
X0493220Y0631721D03*
X0532590Y0631721D03*
X0532590Y0592351D03*
X0571960Y0592351D03*
X0611330Y0592351D03*
X0650700Y0592351D03*
X0690070Y0592351D03*
X0690070Y0552981D03*
X0690070Y0513611D03*
X0690070Y0474241D03*
X0690070Y0434871D03*
X0690070Y0395501D03*
X0690070Y0356131D03*
X0729440Y0356131D03*
X0768810Y0356131D03*
X0768810Y0395501D03*
X0729440Y0395501D03*
X0729440Y0434871D03*
X0768810Y0434871D03*
X0768810Y0474241D03*
X0729440Y0474241D03*
X0729440Y0513611D03*
X0768810Y0513611D03*
X0768810Y0552981D03*
X0729440Y0552981D03*
X0729440Y0592351D03*
X0768810Y0592351D03*
X0768810Y0631721D03*
X0729440Y0631721D03*
X0690070Y0631721D03*
X0650700Y0631721D03*
X0611330Y0631721D03*
X0571960Y0631721D03*
X0571960Y0671091D03*
X0611330Y0671091D03*
X0650700Y0671091D03*
X0690070Y0671091D03*
X0729440Y0671091D03*
X0768810Y0671091D03*
X0768810Y0710461D03*
X0729440Y0710461D03*
X0690070Y0710461D03*
X0650700Y0710461D03*
X0611330Y0710461D03*
X0571960Y0710461D03*
X0532590Y0710461D03*
X0532590Y0671091D03*
X0493220Y0671091D03*
X0453850Y0671091D03*
X0414480Y0671091D03*
X0414480Y0631721D03*
X0414480Y0592351D03*
X0414480Y0552981D03*
X0414480Y0513611D03*
X0375110Y0513611D03*
X0375110Y0474241D03*
X0375110Y0434871D03*
X0375110Y0395501D03*
X0375110Y0356131D03*
X0335740Y0356131D03*
X0335740Y0395501D03*
X0335740Y0434871D03*
X0335740Y0474241D03*
X0335740Y0513611D03*
X0335740Y0552981D03*
X0375110Y0552981D03*
X0375110Y0592351D03*
X0375110Y0631721D03*
X0375110Y0671091D03*
X0375110Y0710461D03*
X0414480Y0710461D03*
X0453850Y0710461D03*
X0493220Y0710461D03*
X0493220Y0749831D03*
X0453850Y0749831D03*
X0414480Y0749831D03*
X0375110Y0749831D03*
X0335740Y0749831D03*
X0335740Y0710461D03*
X0335740Y0671091D03*
X0335740Y0631721D03*
X0335740Y0592351D03*
X0296369Y0592351D03*
X0256999Y0592351D03*
X0217629Y0592351D03*
X0178259Y0592351D03*
X0138889Y0592351D03*
X0138889Y0552981D03*
X0099519Y0552981D03*
X0060149Y0552981D03*
X0060149Y0592351D03*
X0099519Y0592351D03*
X0099519Y0631721D03*
X0060149Y0631721D03*
X0060149Y0671091D03*
X0099519Y0671091D03*
X0138889Y0671091D03*
X0138889Y0631721D03*
X0178259Y0631721D03*
X0217629Y0631721D03*
X0217629Y0671091D03*
X0178259Y0671091D03*
X0178259Y0710461D03*
X0217629Y0710461D03*
X0256999Y0710461D03*
X0256999Y0671091D03*
X0256999Y0631721D03*
X0296369Y0631721D03*
X0296369Y0671091D03*
X0296369Y0710461D03*
X0296369Y0749831D03*
X0256999Y0749831D03*
X0217629Y0749831D03*
X0178259Y0749831D03*
X0138889Y0749831D03*
X0138889Y0710461D03*
X0099519Y0710461D03*
X0060149Y0710461D03*
X0099519Y0749831D03*
X0178259Y0552981D03*
X0217629Y0552981D03*
X0217629Y0513611D03*
X0178259Y0513611D03*
X0138889Y0513611D03*
X0178259Y0474241D03*
X0217629Y0474241D03*
X0256999Y0474241D03*
X0256999Y0513611D03*
X0256999Y0552981D03*
X0296369Y0552981D03*
X0296369Y0513611D03*
X0296369Y0474241D03*
X0335740Y0316761D03*
X0414480Y0277391D03*
X0453850Y0277391D03*
X0493220Y0277391D03*
X0493220Y0316761D03*
X0453850Y0316761D03*
X0532590Y0316761D03*
X0571960Y0316761D03*
X0611330Y0316761D03*
X0650700Y0316761D03*
X0690070Y0316761D03*
X0729440Y0316761D03*
X0768810Y0316761D03*
X0768810Y0277391D03*
X0729440Y0277391D03*
X0690070Y0277391D03*
X0650700Y0277391D03*
X0611330Y0277391D03*
X0571960Y0277391D03*
X0532590Y0277391D03*
X0690070Y0238020D03*
X0729440Y0238020D03*
X0768810Y0238020D03*
X0729440Y0749831D03*
X0690070Y0749831D03*
X0650700Y0749831D03*
X0611330Y0749831D03*
X0571960Y0749831D03*
X0532590Y0749831D03*
M02*
