G75*
%MOIN*%
%OFA0B0*%
%FSLAX25Y25*%
%IPPOS*%
%LPD*%
%AMOC8*
5,1,8,0,0,1.08239X$1,22.5*
%
%ADD10C,0.00000*%
%ADD11C,0.06800*%
%ADD12R,0.03950X0.05524*%
%ADD13C,0.01587*%
%ADD14C,0.00500*%
D10*
X0020779Y0001800D02*
X0020779Y0789202D01*
X0808180Y0789202D01*
X0808180Y0001800D01*
X0020779Y0001800D01*
D11*
X0056212Y0060855D03*
X0079834Y0041170D03*
X0056212Y0100225D03*
X0056212Y0139595D03*
X0056212Y0178965D03*
X0056212Y0218335D03*
X0056212Y0257706D03*
X0056212Y0297076D03*
X0056212Y0336446D03*
X0056212Y0375816D03*
X0056212Y0415186D03*
X0056212Y0454556D03*
X0056212Y0493926D03*
X0056212Y0533296D03*
X0056212Y0572666D03*
X0056212Y0612036D03*
X0056212Y0651406D03*
X0056212Y0690776D03*
X0060149Y0730146D03*
X0079834Y0749831D03*
X0749125Y0749831D03*
X0768810Y0730146D03*
X0768810Y0690776D03*
X0768810Y0651406D03*
X0768810Y0612036D03*
X0768810Y0572666D03*
X0768810Y0533296D03*
X0768810Y0493926D03*
X0768810Y0454556D03*
X0768810Y0415186D03*
X0768810Y0375816D03*
X0768810Y0336446D03*
X0768810Y0297076D03*
X0768810Y0257706D03*
X0768810Y0218335D03*
X0768810Y0178965D03*
X0768810Y0139595D03*
X0768810Y0100225D03*
X0768810Y0060855D03*
X0749125Y0041170D03*
D12*
X0732984Y0041170D03*
X0725897Y0041170D03*
X0693614Y0041170D03*
X0686527Y0041170D03*
X0654243Y0041170D03*
X0647157Y0041170D03*
X0614873Y0041170D03*
X0607787Y0041170D03*
X0575503Y0041170D03*
X0568417Y0041170D03*
X0536133Y0041170D03*
X0529047Y0041170D03*
X0496763Y0041170D03*
X0489677Y0041170D03*
X0457393Y0041170D03*
X0450306Y0041170D03*
X0418023Y0041170D03*
X0410936Y0041170D03*
X0378653Y0041170D03*
X0371566Y0041170D03*
X0339283Y0041170D03*
X0332196Y0041170D03*
X0299913Y0041170D03*
X0292826Y0041170D03*
X0260543Y0041170D03*
X0253456Y0041170D03*
X0221173Y0041170D03*
X0214086Y0041170D03*
X0181803Y0041170D03*
X0174716Y0041170D03*
X0142432Y0041170D03*
X0135346Y0041170D03*
X0103062Y0041170D03*
X0095976Y0041170D03*
X0095976Y0080540D03*
X0103062Y0080540D03*
X0135346Y0080540D03*
X0142432Y0080540D03*
X0174716Y0080540D03*
X0181803Y0080540D03*
X0214086Y0080540D03*
X0221173Y0080540D03*
X0253456Y0080540D03*
X0260543Y0080540D03*
X0292826Y0080540D03*
X0299913Y0080540D03*
X0332196Y0080540D03*
X0339283Y0080540D03*
X0371566Y0080540D03*
X0378653Y0080540D03*
X0410936Y0080540D03*
X0418023Y0080540D03*
X0450306Y0080540D03*
X0457393Y0080540D03*
X0489677Y0080540D03*
X0496763Y0080540D03*
X0529047Y0080540D03*
X0536133Y0080540D03*
X0568417Y0080540D03*
X0575503Y0080540D03*
X0607787Y0080540D03*
X0614873Y0080540D03*
X0647157Y0080540D03*
X0654243Y0080540D03*
X0686527Y0080540D03*
X0693614Y0080540D03*
X0725897Y0080540D03*
X0732984Y0080540D03*
X0765267Y0080540D03*
X0772354Y0080540D03*
X0772354Y0119910D03*
X0765267Y0119910D03*
X0732984Y0119910D03*
X0725897Y0119910D03*
X0693614Y0119910D03*
X0686527Y0119910D03*
X0654243Y0119910D03*
X0647157Y0119910D03*
X0614873Y0119910D03*
X0607787Y0119910D03*
X0575503Y0119910D03*
X0568417Y0119910D03*
X0536133Y0119910D03*
X0529047Y0119910D03*
X0496763Y0119910D03*
X0489677Y0119910D03*
X0457393Y0119910D03*
X0450306Y0119910D03*
X0418023Y0119910D03*
X0410936Y0119910D03*
X0378653Y0119910D03*
X0371566Y0119910D03*
X0339283Y0119910D03*
X0332196Y0119910D03*
X0299913Y0119910D03*
X0292826Y0119910D03*
X0260543Y0119910D03*
X0253456Y0119910D03*
X0221173Y0119910D03*
X0214086Y0119910D03*
X0181803Y0119910D03*
X0174716Y0119910D03*
X0142432Y0119910D03*
X0135346Y0119910D03*
X0103062Y0119910D03*
X0095976Y0119910D03*
X0063692Y0119910D03*
X0056606Y0119910D03*
X0056606Y0080540D03*
X0063692Y0080540D03*
X0063692Y0159280D03*
X0056606Y0159280D03*
X0095976Y0159280D03*
X0103062Y0159280D03*
X0135346Y0159280D03*
X0142432Y0159280D03*
X0174716Y0159280D03*
X0181803Y0159280D03*
X0214086Y0159280D03*
X0221173Y0159280D03*
X0253456Y0159280D03*
X0260543Y0159280D03*
X0292826Y0159280D03*
X0299913Y0159280D03*
X0332196Y0159280D03*
X0339283Y0159280D03*
X0371566Y0159280D03*
X0378653Y0159280D03*
X0410936Y0159280D03*
X0418023Y0159280D03*
X0450306Y0159280D03*
X0457393Y0159280D03*
X0489677Y0159280D03*
X0496763Y0159280D03*
X0529047Y0159280D03*
X0536133Y0159280D03*
X0568417Y0159280D03*
X0575503Y0159280D03*
X0607787Y0159280D03*
X0614873Y0159280D03*
X0647157Y0159280D03*
X0654243Y0159280D03*
X0686527Y0159280D03*
X0693614Y0159280D03*
X0725897Y0159280D03*
X0732984Y0159280D03*
X0765267Y0159280D03*
X0772354Y0159280D03*
X0772354Y0198650D03*
X0765267Y0198650D03*
X0732984Y0198650D03*
X0725897Y0198650D03*
X0693614Y0198650D03*
X0686527Y0198650D03*
X0654243Y0198650D03*
X0647157Y0198650D03*
X0614873Y0198650D03*
X0607787Y0198650D03*
X0575503Y0198650D03*
X0568417Y0198650D03*
X0536133Y0198650D03*
X0529047Y0198650D03*
X0496763Y0198650D03*
X0489677Y0198650D03*
X0457393Y0198650D03*
X0450306Y0198650D03*
X0418023Y0198650D03*
X0410936Y0198650D03*
X0378653Y0198650D03*
X0371566Y0198650D03*
X0339283Y0198650D03*
X0332196Y0198650D03*
X0299913Y0198650D03*
X0292826Y0198650D03*
X0260543Y0198650D03*
X0253456Y0198650D03*
X0221173Y0198650D03*
X0214086Y0198650D03*
X0181803Y0198650D03*
X0174716Y0198650D03*
X0142432Y0198650D03*
X0135346Y0198650D03*
X0103062Y0198650D03*
X0095976Y0198650D03*
X0063692Y0198650D03*
X0056606Y0198650D03*
X0056606Y0238020D03*
X0063692Y0238020D03*
X0095976Y0238020D03*
X0103062Y0238020D03*
X0135346Y0238020D03*
X0142432Y0238020D03*
X0174716Y0238020D03*
X0181803Y0238020D03*
X0214086Y0238020D03*
X0221173Y0238020D03*
X0253456Y0238020D03*
X0260543Y0238020D03*
X0292826Y0238020D03*
X0299913Y0238020D03*
X0332196Y0238020D03*
X0339283Y0238020D03*
X0371566Y0238020D03*
X0378653Y0238020D03*
X0410936Y0238020D03*
X0418023Y0238020D03*
X0450306Y0238020D03*
X0457393Y0238020D03*
X0489677Y0238020D03*
X0496763Y0238020D03*
X0529047Y0238020D03*
X0536133Y0238020D03*
X0568417Y0238020D03*
X0575503Y0238020D03*
X0607787Y0238020D03*
X0614873Y0238020D03*
X0647157Y0238020D03*
X0654243Y0238020D03*
X0686527Y0238020D03*
X0693614Y0238020D03*
X0725897Y0238020D03*
X0732984Y0238020D03*
X0765267Y0238020D03*
X0772354Y0238020D03*
X0772354Y0277391D03*
X0765267Y0277391D03*
X0732984Y0277391D03*
X0725897Y0277391D03*
X0693614Y0277391D03*
X0686527Y0277391D03*
X0654243Y0277391D03*
X0647157Y0277391D03*
X0614873Y0277391D03*
X0607787Y0277391D03*
X0575503Y0277391D03*
X0568417Y0277391D03*
X0536133Y0277391D03*
X0529047Y0277391D03*
X0496763Y0277391D03*
X0489677Y0277391D03*
X0457393Y0277391D03*
X0450306Y0277391D03*
X0418023Y0277391D03*
X0410936Y0277391D03*
X0378653Y0277391D03*
X0371566Y0277391D03*
X0339283Y0277391D03*
X0332196Y0277391D03*
X0299913Y0277391D03*
X0292826Y0277391D03*
X0260543Y0277391D03*
X0253456Y0277391D03*
X0221173Y0277391D03*
X0214086Y0277391D03*
X0181803Y0277391D03*
X0174716Y0277391D03*
X0142432Y0277391D03*
X0135346Y0277391D03*
X0103062Y0277391D03*
X0095976Y0277391D03*
X0063692Y0277391D03*
X0056606Y0277391D03*
X0056606Y0316761D03*
X0063692Y0316761D03*
X0095976Y0316761D03*
X0103062Y0316761D03*
X0135346Y0316761D03*
X0142432Y0316761D03*
X0174716Y0316761D03*
X0181803Y0316761D03*
X0214086Y0316761D03*
X0221173Y0316761D03*
X0253456Y0316761D03*
X0260543Y0316761D03*
X0292826Y0316761D03*
X0299913Y0316761D03*
X0332196Y0316761D03*
X0339283Y0316761D03*
X0371566Y0316761D03*
X0378653Y0316761D03*
X0410936Y0316761D03*
X0418023Y0316761D03*
X0450306Y0316761D03*
X0457393Y0316761D03*
X0489677Y0316761D03*
X0496763Y0316761D03*
X0529047Y0316761D03*
X0536133Y0316761D03*
X0568417Y0316761D03*
X0575503Y0316761D03*
X0607787Y0316761D03*
X0614873Y0316761D03*
X0647157Y0316761D03*
X0654243Y0316761D03*
X0686527Y0316761D03*
X0693614Y0316761D03*
X0725897Y0316761D03*
X0732984Y0316761D03*
X0765267Y0316761D03*
X0772354Y0316761D03*
X0772354Y0356131D03*
X0765267Y0356131D03*
X0732984Y0356131D03*
X0725897Y0356131D03*
X0693614Y0356131D03*
X0686527Y0356131D03*
X0654243Y0356131D03*
X0647157Y0356131D03*
X0614873Y0356131D03*
X0607787Y0356131D03*
X0575503Y0356131D03*
X0568417Y0356131D03*
X0536133Y0356131D03*
X0529047Y0356131D03*
X0496763Y0356131D03*
X0489677Y0356131D03*
X0457393Y0356131D03*
X0450306Y0356131D03*
X0418023Y0356131D03*
X0410936Y0356131D03*
X0378653Y0356131D03*
X0371566Y0356131D03*
X0339283Y0356131D03*
X0332196Y0356131D03*
X0299913Y0356131D03*
X0292826Y0356131D03*
X0260543Y0356131D03*
X0253456Y0356131D03*
X0221173Y0356131D03*
X0214086Y0356131D03*
X0181803Y0356131D03*
X0174716Y0356131D03*
X0142432Y0356131D03*
X0135346Y0356131D03*
X0103062Y0356131D03*
X0095976Y0356131D03*
X0063692Y0356131D03*
X0056606Y0356131D03*
X0056606Y0395501D03*
X0063692Y0395501D03*
X0095976Y0395501D03*
X0103062Y0395501D03*
X0135346Y0395501D03*
X0142432Y0395501D03*
X0174716Y0395501D03*
X0181803Y0395501D03*
X0214086Y0395501D03*
X0221173Y0395501D03*
X0253456Y0395501D03*
X0260543Y0395501D03*
X0292826Y0395501D03*
X0299913Y0395501D03*
X0332196Y0395501D03*
X0339283Y0395501D03*
X0371566Y0395501D03*
X0378653Y0395501D03*
X0378653Y0434871D03*
X0371566Y0434871D03*
X0339283Y0434871D03*
X0332196Y0434871D03*
X0299913Y0434871D03*
X0292826Y0434871D03*
X0260543Y0434871D03*
X0253456Y0434871D03*
X0221173Y0434871D03*
X0214086Y0434871D03*
X0181803Y0434871D03*
X0174716Y0434871D03*
X0142432Y0434871D03*
X0135346Y0434871D03*
X0103062Y0434871D03*
X0095976Y0434871D03*
X0063692Y0434871D03*
X0056606Y0434871D03*
X0056606Y0474241D03*
X0063692Y0474241D03*
X0095976Y0474241D03*
X0103062Y0474241D03*
X0135346Y0474241D03*
X0142432Y0474241D03*
X0174716Y0474241D03*
X0181803Y0474241D03*
X0214086Y0474241D03*
X0221173Y0474241D03*
X0253456Y0474241D03*
X0260543Y0474241D03*
X0292826Y0474241D03*
X0299913Y0474241D03*
X0332196Y0474241D03*
X0339283Y0474241D03*
X0371566Y0474241D03*
X0378653Y0474241D03*
X0410936Y0474241D03*
X0418023Y0474241D03*
X0450306Y0474241D03*
X0457393Y0474241D03*
X0489677Y0474241D03*
X0496763Y0474241D03*
X0529047Y0474241D03*
X0536133Y0474241D03*
X0568417Y0474241D03*
X0575503Y0474241D03*
X0607787Y0474241D03*
X0614873Y0474241D03*
X0647157Y0474241D03*
X0654243Y0474241D03*
X0686527Y0474241D03*
X0693614Y0474241D03*
X0725897Y0474241D03*
X0732984Y0474241D03*
X0765267Y0474241D03*
X0772354Y0474241D03*
X0772354Y0513611D03*
X0765267Y0513611D03*
X0732984Y0513611D03*
X0725897Y0513611D03*
X0693614Y0513611D03*
X0686527Y0513611D03*
X0654243Y0513611D03*
X0647157Y0513611D03*
X0614873Y0513611D03*
X0607787Y0513611D03*
X0575503Y0513611D03*
X0568417Y0513611D03*
X0536133Y0513611D03*
X0529047Y0513611D03*
X0496763Y0513611D03*
X0489677Y0513611D03*
X0457393Y0513611D03*
X0450306Y0513611D03*
X0418023Y0513611D03*
X0410936Y0513611D03*
X0378653Y0513611D03*
X0371566Y0513611D03*
X0339283Y0513611D03*
X0332196Y0513611D03*
X0299913Y0513611D03*
X0292826Y0513611D03*
X0260543Y0513611D03*
X0253456Y0513611D03*
X0221173Y0513611D03*
X0214086Y0513611D03*
X0181803Y0513611D03*
X0174716Y0513611D03*
X0142432Y0513611D03*
X0135346Y0513611D03*
X0103062Y0513611D03*
X0095976Y0513611D03*
X0063692Y0513611D03*
X0056606Y0513611D03*
X0056606Y0552981D03*
X0063692Y0552981D03*
X0095976Y0552981D03*
X0103062Y0552981D03*
X0135346Y0552981D03*
X0142432Y0552981D03*
X0174716Y0552981D03*
X0181803Y0552981D03*
X0214086Y0552981D03*
X0221173Y0552981D03*
X0253456Y0552981D03*
X0260543Y0552981D03*
X0292826Y0552981D03*
X0299913Y0552981D03*
X0332196Y0552981D03*
X0339283Y0552981D03*
X0371566Y0552981D03*
X0378653Y0552981D03*
X0410936Y0552981D03*
X0418023Y0552981D03*
X0450306Y0552981D03*
X0457393Y0552981D03*
X0489677Y0552981D03*
X0496763Y0552981D03*
X0529047Y0552981D03*
X0536133Y0552981D03*
X0568417Y0552981D03*
X0575503Y0552981D03*
X0607787Y0552981D03*
X0614873Y0552981D03*
X0647157Y0552981D03*
X0654243Y0552981D03*
X0686527Y0552981D03*
X0693614Y0552981D03*
X0725897Y0552981D03*
X0732984Y0552981D03*
X0765267Y0552981D03*
X0772354Y0552981D03*
X0772354Y0592351D03*
X0765267Y0592351D03*
X0732984Y0592351D03*
X0725897Y0592351D03*
X0693614Y0592351D03*
X0686527Y0592351D03*
X0654243Y0592351D03*
X0647157Y0592351D03*
X0614873Y0592351D03*
X0607787Y0592351D03*
X0575503Y0592351D03*
X0568417Y0592351D03*
X0536133Y0592351D03*
X0529047Y0592351D03*
X0496763Y0592351D03*
X0489677Y0592351D03*
X0457393Y0592351D03*
X0450306Y0592351D03*
X0418023Y0592351D03*
X0410936Y0592351D03*
X0378653Y0592351D03*
X0371566Y0592351D03*
X0339283Y0592351D03*
X0332196Y0592351D03*
X0299913Y0592351D03*
X0292826Y0592351D03*
X0260543Y0592351D03*
X0253456Y0592351D03*
X0221173Y0592351D03*
X0214086Y0592351D03*
X0181803Y0592351D03*
X0174716Y0592351D03*
X0142432Y0592351D03*
X0135346Y0592351D03*
X0103062Y0592351D03*
X0095976Y0592351D03*
X0063692Y0592351D03*
X0056606Y0592351D03*
X0056606Y0631721D03*
X0063692Y0631721D03*
X0095976Y0631721D03*
X0103062Y0631721D03*
X0135346Y0631721D03*
X0142432Y0631721D03*
X0174716Y0631721D03*
X0181803Y0631721D03*
X0214086Y0631721D03*
X0221173Y0631721D03*
X0253456Y0631721D03*
X0260543Y0631721D03*
X0292826Y0631721D03*
X0299913Y0631721D03*
X0332196Y0631721D03*
X0339283Y0631721D03*
X0371566Y0631721D03*
X0378653Y0631721D03*
X0410936Y0631721D03*
X0418023Y0631721D03*
X0450306Y0631721D03*
X0457393Y0631721D03*
X0489677Y0631721D03*
X0496763Y0631721D03*
X0529047Y0631721D03*
X0536133Y0631721D03*
X0568417Y0631721D03*
X0575503Y0631721D03*
X0607787Y0631721D03*
X0614873Y0631721D03*
X0647157Y0631721D03*
X0654243Y0631721D03*
X0686527Y0631721D03*
X0693614Y0631721D03*
X0725897Y0631721D03*
X0732984Y0631721D03*
X0765267Y0631721D03*
X0772354Y0631721D03*
X0772354Y0671091D03*
X0765267Y0671091D03*
X0732984Y0671091D03*
X0725897Y0671091D03*
X0693614Y0671091D03*
X0686527Y0671091D03*
X0654243Y0671091D03*
X0647157Y0671091D03*
X0614873Y0671091D03*
X0607787Y0671091D03*
X0575503Y0671091D03*
X0568417Y0671091D03*
X0536133Y0671091D03*
X0529047Y0671091D03*
X0496763Y0671091D03*
X0489677Y0671091D03*
X0457393Y0671091D03*
X0450306Y0671091D03*
X0418023Y0671091D03*
X0410936Y0671091D03*
X0378653Y0671091D03*
X0371566Y0671091D03*
X0339283Y0671091D03*
X0332196Y0671091D03*
X0299913Y0671091D03*
X0292826Y0671091D03*
X0260543Y0671091D03*
X0253456Y0671091D03*
X0221173Y0671091D03*
X0214086Y0671091D03*
X0181803Y0671091D03*
X0174716Y0671091D03*
X0142432Y0671091D03*
X0135346Y0671091D03*
X0103062Y0671091D03*
X0095976Y0671091D03*
X0063692Y0671091D03*
X0056606Y0671091D03*
X0056606Y0710461D03*
X0063692Y0710461D03*
X0095976Y0710461D03*
X0103062Y0710461D03*
X0135346Y0710461D03*
X0142432Y0710461D03*
X0174716Y0710461D03*
X0181803Y0710461D03*
X0214086Y0710461D03*
X0221173Y0710461D03*
X0253456Y0710461D03*
X0260543Y0710461D03*
X0292826Y0710461D03*
X0299913Y0710461D03*
X0332196Y0710461D03*
X0339283Y0710461D03*
X0371566Y0710461D03*
X0378653Y0710461D03*
X0410936Y0710461D03*
X0418023Y0710461D03*
X0450306Y0710461D03*
X0457393Y0710461D03*
X0489677Y0710461D03*
X0496763Y0710461D03*
X0529047Y0710461D03*
X0536133Y0710461D03*
X0568417Y0710461D03*
X0575503Y0710461D03*
X0607787Y0710461D03*
X0614873Y0710461D03*
X0647157Y0710461D03*
X0654243Y0710461D03*
X0686527Y0710461D03*
X0693614Y0710461D03*
X0725897Y0710461D03*
X0732984Y0710461D03*
X0765267Y0710461D03*
X0772354Y0710461D03*
X0732984Y0749831D03*
X0725897Y0749831D03*
X0693614Y0749831D03*
X0686527Y0749831D03*
X0654243Y0749831D03*
X0647157Y0749831D03*
X0614873Y0749831D03*
X0607787Y0749831D03*
X0575503Y0749831D03*
X0568417Y0749831D03*
X0536133Y0749831D03*
X0529047Y0749831D03*
X0496763Y0749831D03*
X0489677Y0749831D03*
X0457393Y0749831D03*
X0450306Y0749831D03*
X0418023Y0749831D03*
X0410936Y0749831D03*
X0378653Y0749831D03*
X0371566Y0749831D03*
X0339283Y0749831D03*
X0332196Y0749831D03*
X0299913Y0749831D03*
X0292826Y0749831D03*
X0260543Y0749831D03*
X0253456Y0749831D03*
X0221173Y0749831D03*
X0214086Y0749831D03*
X0181803Y0749831D03*
X0174716Y0749831D03*
X0142432Y0749831D03*
X0135346Y0749831D03*
X0103062Y0749831D03*
X0095976Y0749831D03*
X0410936Y0434871D03*
X0418023Y0434871D03*
X0450306Y0434871D03*
X0457393Y0434871D03*
X0489677Y0434871D03*
X0496763Y0434871D03*
X0529047Y0434871D03*
X0536133Y0434871D03*
X0568417Y0434871D03*
X0575503Y0434871D03*
X0607787Y0434871D03*
X0614873Y0434871D03*
X0647157Y0434871D03*
X0654243Y0434871D03*
X0686527Y0434871D03*
X0693614Y0434871D03*
X0725897Y0434871D03*
X0732984Y0434871D03*
X0765267Y0434871D03*
X0772354Y0434871D03*
X0772354Y0395501D03*
X0765267Y0395501D03*
X0732984Y0395501D03*
X0725897Y0395501D03*
X0693614Y0395501D03*
X0686527Y0395501D03*
X0654243Y0395501D03*
X0647157Y0395501D03*
X0614873Y0395501D03*
X0607787Y0395501D03*
X0575503Y0395501D03*
X0568417Y0395501D03*
X0536133Y0395501D03*
X0529047Y0395501D03*
X0496763Y0395501D03*
X0489677Y0395501D03*
X0457393Y0395501D03*
X0450306Y0395501D03*
D13*
X0453850Y0395501D03*
X0493220Y0395501D03*
X0493220Y0434871D03*
X0453850Y0434871D03*
X0453850Y0474241D03*
X0493220Y0474241D03*
X0532590Y0474241D03*
X0571960Y0474241D03*
X0571960Y0513611D03*
X0611330Y0513611D03*
X0611330Y0474241D03*
X0611330Y0434871D03*
X0611330Y0395501D03*
X0571960Y0395501D03*
X0571960Y0434871D03*
X0532590Y0434871D03*
X0532590Y0395501D03*
X0532590Y0356131D03*
X0571960Y0356131D03*
X0611330Y0356131D03*
X0650700Y0356131D03*
X0650700Y0395501D03*
X0650700Y0434871D03*
X0650700Y0474241D03*
X0650700Y0513611D03*
X0650700Y0552981D03*
X0611330Y0552981D03*
X0571960Y0552981D03*
X0532590Y0552981D03*
X0532590Y0513611D03*
X0493220Y0513611D03*
X0453850Y0513611D03*
X0453850Y0552981D03*
X0493220Y0552981D03*
X0493220Y0592351D03*
X0453850Y0592351D03*
X0453850Y0631721D03*
X0493220Y0631721D03*
X0532590Y0631721D03*
X0532590Y0592351D03*
X0571960Y0592351D03*
X0611330Y0592351D03*
X0650700Y0592351D03*
X0690070Y0592351D03*
X0690070Y0552981D03*
X0690070Y0513611D03*
X0690070Y0474241D03*
X0690070Y0434871D03*
X0690070Y0395501D03*
X0690070Y0356131D03*
X0729440Y0356131D03*
X0768810Y0356131D03*
X0768810Y0395501D03*
X0729440Y0395501D03*
X0729440Y0434871D03*
X0768810Y0434871D03*
X0768810Y0474241D03*
X0729440Y0474241D03*
X0729440Y0513611D03*
X0768810Y0513611D03*
X0768810Y0552981D03*
X0729440Y0552981D03*
X0729440Y0592351D03*
X0768810Y0592351D03*
X0768810Y0631721D03*
X0729440Y0631721D03*
X0690070Y0631721D03*
X0650700Y0631721D03*
X0611330Y0631721D03*
X0571960Y0631721D03*
X0571960Y0671091D03*
X0611330Y0671091D03*
X0650700Y0671091D03*
X0690070Y0671091D03*
X0729440Y0671091D03*
X0768810Y0671091D03*
X0768810Y0710461D03*
X0729440Y0710461D03*
X0690070Y0710461D03*
X0650700Y0710461D03*
X0611330Y0710461D03*
X0571960Y0710461D03*
X0532590Y0710461D03*
X0532590Y0671091D03*
X0493220Y0671091D03*
X0453850Y0671091D03*
X0414480Y0671091D03*
X0414480Y0631721D03*
X0414480Y0592351D03*
X0414480Y0552981D03*
X0414480Y0513611D03*
X0414480Y0474241D03*
X0414480Y0434871D03*
X0375110Y0434871D03*
X0375110Y0395501D03*
X0375110Y0356131D03*
X0414480Y0356131D03*
X0453850Y0356131D03*
X0493220Y0356131D03*
X0493220Y0316761D03*
X0453850Y0316761D03*
X0414480Y0316761D03*
X0375110Y0316761D03*
X0375110Y0277391D03*
X0414480Y0277391D03*
X0453850Y0277391D03*
X0493220Y0277391D03*
X0532590Y0277391D03*
X0532590Y0316761D03*
X0571960Y0316761D03*
X0611330Y0316761D03*
X0650700Y0316761D03*
X0690070Y0316761D03*
X0729440Y0316761D03*
X0768810Y0316761D03*
X0768810Y0277391D03*
X0729440Y0277391D03*
X0690070Y0277391D03*
X0650700Y0277391D03*
X0611330Y0277391D03*
X0571960Y0277391D03*
X0571960Y0238020D03*
X0571960Y0198650D03*
X0571960Y0159280D03*
X0571960Y0119910D03*
X0571960Y0080540D03*
X0571960Y0041170D03*
X0611330Y0041170D03*
X0611330Y0080540D03*
X0650700Y0080540D03*
X0650700Y0041170D03*
X0690070Y0041170D03*
X0690070Y0080540D03*
X0690070Y0119910D03*
X0650700Y0119910D03*
X0611330Y0119910D03*
X0611330Y0159280D03*
X0650700Y0159280D03*
X0690070Y0159280D03*
X0729440Y0159280D03*
X0768810Y0159280D03*
X0768810Y0119910D03*
X0729440Y0119910D03*
X0729440Y0080540D03*
X0768810Y0080540D03*
X0729440Y0041170D03*
X0729440Y0198650D03*
X0768810Y0198650D03*
X0768810Y0238020D03*
X0729440Y0238020D03*
X0690070Y0238020D03*
X0690070Y0198650D03*
X0650700Y0198650D03*
X0611330Y0198650D03*
X0611330Y0238020D03*
X0650700Y0238020D03*
X0532590Y0238020D03*
X0532590Y0198650D03*
X0532590Y0159280D03*
X0532590Y0119910D03*
X0532590Y0080540D03*
X0532590Y0041170D03*
X0493220Y0041170D03*
X0453850Y0041170D03*
X0453850Y0080540D03*
X0493220Y0080540D03*
X0493220Y0119910D03*
X0453850Y0119910D03*
X0453850Y0159280D03*
X0493220Y0159280D03*
X0493220Y0198650D03*
X0453850Y0198650D03*
X0414480Y0198650D03*
X0414480Y0159280D03*
X0414480Y0119910D03*
X0414480Y0080540D03*
X0414480Y0041170D03*
X0375110Y0041170D03*
X0375110Y0080540D03*
X0375110Y0119910D03*
X0375110Y0159280D03*
X0375110Y0198650D03*
X0375110Y0238020D03*
X0414480Y0238020D03*
X0453850Y0238020D03*
X0493220Y0238020D03*
X0335740Y0238020D03*
X0335740Y0198650D03*
X0335740Y0159280D03*
X0335740Y0119910D03*
X0335740Y0080540D03*
X0335740Y0041170D03*
X0296369Y0041170D03*
X0256999Y0041170D03*
X0217629Y0041170D03*
X0178259Y0041170D03*
X0138889Y0041170D03*
X0099519Y0041170D03*
X0099519Y0080540D03*
X0060149Y0080540D03*
X0060149Y0119910D03*
X0099519Y0119910D03*
X0138889Y0119910D03*
X0138889Y0080540D03*
X0178259Y0080540D03*
X0217629Y0080540D03*
X0217629Y0119910D03*
X0178259Y0119910D03*
X0178259Y0159280D03*
X0217629Y0159280D03*
X0256999Y0159280D03*
X0256999Y0119910D03*
X0256999Y0080540D03*
X0296369Y0080540D03*
X0296369Y0119910D03*
X0296369Y0159280D03*
X0296369Y0198650D03*
X0256999Y0198650D03*
X0217629Y0198650D03*
X0178259Y0198650D03*
X0138889Y0198650D03*
X0138889Y0159280D03*
X0099519Y0159280D03*
X0060149Y0159280D03*
X0060149Y0198650D03*
X0099519Y0198650D03*
X0099519Y0238020D03*
X0060149Y0238020D03*
X0060149Y0277391D03*
X0060149Y0316761D03*
X0060149Y0356131D03*
X0060149Y0395501D03*
X0060149Y0434871D03*
X0060149Y0474241D03*
X0060149Y0513611D03*
X0099519Y0513611D03*
X0099519Y0474241D03*
X0099519Y0434871D03*
X0099519Y0395501D03*
X0138889Y0395501D03*
X0138889Y0434871D03*
X0138889Y0474241D03*
X0138889Y0513611D03*
X0138889Y0552981D03*
X0099519Y0552981D03*
X0060149Y0552981D03*
X0060149Y0592351D03*
X0099519Y0592351D03*
X0138889Y0592351D03*
X0178259Y0592351D03*
X0217629Y0592351D03*
X0217629Y0552981D03*
X0178259Y0552981D03*
X0178259Y0513611D03*
X0217629Y0513611D03*
X0217629Y0474241D03*
X0178259Y0474241D03*
X0178259Y0434871D03*
X0178259Y0395501D03*
X0217629Y0395501D03*
X0217629Y0434871D03*
X0256999Y0434871D03*
X0256999Y0395501D03*
X0256999Y0356131D03*
X0217629Y0356131D03*
X0178259Y0356131D03*
X0138889Y0356131D03*
X0099519Y0356131D03*
X0099519Y0316761D03*
X0138889Y0316761D03*
X0178259Y0316761D03*
X0217629Y0316761D03*
X0256999Y0316761D03*
X0296369Y0316761D03*
X0296369Y0356131D03*
X0296369Y0395501D03*
X0296369Y0434871D03*
X0296369Y0474241D03*
X0256999Y0474241D03*
X0256999Y0513611D03*
X0256999Y0552981D03*
X0256999Y0592351D03*
X0256999Y0631721D03*
X0217629Y0631721D03*
X0178259Y0631721D03*
X0138889Y0631721D03*
X0099519Y0631721D03*
X0060149Y0631721D03*
X0060149Y0671091D03*
X0099519Y0671091D03*
X0138889Y0671091D03*
X0178259Y0671091D03*
X0217629Y0671091D03*
X0256999Y0671091D03*
X0256999Y0710461D03*
X0217629Y0710461D03*
X0178259Y0710461D03*
X0138889Y0710461D03*
X0099519Y0710461D03*
X0060149Y0710461D03*
X0099519Y0749831D03*
X0138889Y0749831D03*
X0178259Y0749831D03*
X0217629Y0749831D03*
X0256999Y0749831D03*
X0296369Y0749831D03*
X0296369Y0710461D03*
X0296369Y0671091D03*
X0296369Y0631721D03*
X0296369Y0592351D03*
X0296369Y0552981D03*
X0296369Y0513611D03*
X0335740Y0513611D03*
X0375110Y0513611D03*
X0375110Y0474241D03*
X0335740Y0474241D03*
X0335740Y0434871D03*
X0335740Y0395501D03*
X0335740Y0356131D03*
X0335740Y0316761D03*
X0335740Y0277391D03*
X0296369Y0277391D03*
X0256999Y0277391D03*
X0217629Y0277391D03*
X0178259Y0277391D03*
X0138889Y0277391D03*
X0099519Y0277391D03*
X0138889Y0238020D03*
X0178259Y0238020D03*
X0217629Y0238020D03*
X0256999Y0238020D03*
X0296369Y0238020D03*
X0335740Y0552981D03*
X0375110Y0552981D03*
X0375110Y0592351D03*
X0375110Y0631721D03*
X0375110Y0671091D03*
X0375110Y0710461D03*
X0414480Y0710461D03*
X0453850Y0710461D03*
X0493220Y0710461D03*
X0493220Y0749831D03*
X0453850Y0749831D03*
X0414480Y0749831D03*
X0375110Y0749831D03*
X0335740Y0749831D03*
X0335740Y0710461D03*
X0335740Y0671091D03*
X0335740Y0631721D03*
X0335740Y0592351D03*
X0532590Y0749831D03*
X0571960Y0749831D03*
X0611330Y0749831D03*
X0650700Y0749831D03*
X0690070Y0749831D03*
X0729440Y0749831D03*
D14*
X0764873Y0749831D02*
X0764933Y0750515D01*
X0765111Y0751178D01*
X0765401Y0751800D01*
X0765794Y0752362D01*
X0766280Y0752847D01*
X0766842Y0753241D01*
X0767464Y0753531D01*
X0768127Y0753709D01*
X0768810Y0753769D01*
X0769494Y0753709D01*
X0770157Y0753531D01*
X0770779Y0753241D01*
X0771341Y0752847D01*
X0771826Y0752362D01*
X0772220Y0751800D01*
X0772510Y0751178D01*
X0772688Y0750515D01*
X0772747Y0749831D01*
X0772688Y0749148D01*
X0772510Y0748485D01*
X0772220Y0747863D01*
X0771826Y0747301D01*
X0771341Y0746816D01*
X0770779Y0746422D01*
X0770157Y0746132D01*
X0769494Y0745954D01*
X0768810Y0745894D01*
X0768127Y0745954D01*
X0767464Y0746132D01*
X0766842Y0746422D01*
X0766280Y0746816D01*
X0765794Y0747301D01*
X0765401Y0747863D01*
X0765111Y0748485D01*
X0764933Y0749148D01*
X0764873Y0749831D01*
X0764883Y0749942D02*
X0772738Y0749942D01*
X0772713Y0749444D02*
X0764907Y0749444D01*
X0764987Y0748945D02*
X0772633Y0748945D01*
X0772492Y0748447D02*
X0765129Y0748447D01*
X0765361Y0747948D02*
X0772260Y0747948D01*
X0771931Y0747450D02*
X0765690Y0747450D01*
X0766144Y0746951D02*
X0771477Y0746951D01*
X0770823Y0746453D02*
X0766798Y0746453D01*
X0768127Y0745954D02*
X0769493Y0745954D01*
X0772694Y0750441D02*
X0764927Y0750441D01*
X0765047Y0750939D02*
X0772574Y0750939D01*
X0772389Y0751438D02*
X0765232Y0751438D01*
X0765496Y0751936D02*
X0772124Y0751936D01*
X0771754Y0752435D02*
X0765867Y0752435D01*
X0766403Y0752933D02*
X0771218Y0752933D01*
X0770370Y0753432D02*
X0767251Y0753432D01*
X0417010Y0398517D02*
X0417496Y0398031D01*
X0417889Y0397469D01*
X0418179Y0396847D01*
X0418357Y0396184D01*
X0418417Y0395501D01*
X0410543Y0395501D01*
X0410602Y0396184D01*
X0410780Y0396847D01*
X0411070Y0397469D01*
X0411464Y0398031D01*
X0411949Y0398517D01*
X0412511Y0398910D01*
X0413133Y0399200D01*
X0413796Y0399378D01*
X0414480Y0399438D01*
X0415163Y0399378D01*
X0415826Y0399200D01*
X0416448Y0398910D01*
X0417010Y0398517D01*
X0417035Y0398492D02*
X0411924Y0398492D01*
X0411437Y0397993D02*
X0417522Y0397993D01*
X0417871Y0397495D02*
X0411088Y0397495D01*
X0410850Y0396996D02*
X0418110Y0396996D01*
X0418273Y0396498D02*
X0410686Y0396498D01*
X0410586Y0395999D02*
X0418373Y0395999D01*
X0418417Y0395501D02*
X0418357Y0394817D01*
X0418179Y0394154D01*
X0417889Y0393532D01*
X0417496Y0392970D01*
X0417010Y0392485D01*
X0416448Y0392091D01*
X0415826Y0391801D01*
X0415163Y0391624D01*
X0414480Y0391564D01*
X0413796Y0391624D01*
X0413133Y0391801D01*
X0412511Y0392091D01*
X0411949Y0392485D01*
X0411464Y0392970D01*
X0411070Y0393532D01*
X0410780Y0394154D01*
X0410602Y0394817D01*
X0410543Y0395501D01*
X0410586Y0395002D02*
X0418373Y0395002D01*
X0418273Y0394504D02*
X0410686Y0394504D01*
X0410850Y0394005D02*
X0418110Y0394005D01*
X0417871Y0393507D02*
X0411088Y0393507D01*
X0411437Y0393008D02*
X0417522Y0393008D01*
X0417035Y0392510D02*
X0411924Y0392510D01*
X0412683Y0392011D02*
X0416277Y0392011D01*
X0416277Y0398990D02*
X0412683Y0398990D01*
X0063165Y0747301D02*
X0062680Y0746816D01*
X0062117Y0746422D01*
X0061495Y0746132D01*
X0060833Y0745954D01*
X0060149Y0745894D01*
X0059465Y0745954D01*
X0058802Y0746132D01*
X0058180Y0746422D01*
X0057618Y0746816D01*
X0057133Y0747301D01*
X0056739Y0747863D01*
X0056449Y0748485D01*
X0056272Y0749148D01*
X0056212Y0749831D01*
X0056272Y0750515D01*
X0056449Y0751178D01*
X0056739Y0751800D01*
X0057133Y0752362D01*
X0057618Y0752847D01*
X0058180Y0753241D01*
X0058802Y0753531D01*
X0059465Y0753709D01*
X0060149Y0753769D01*
X0060833Y0753709D01*
X0061495Y0753531D01*
X0062117Y0753241D01*
X0062680Y0752847D01*
X0063165Y0752362D01*
X0063559Y0751800D01*
X0063849Y0751178D01*
X0064026Y0750515D01*
X0064086Y0749831D01*
X0064026Y0749148D01*
X0063849Y0748485D01*
X0063559Y0747863D01*
X0063165Y0747301D01*
X0063269Y0747450D02*
X0057029Y0747450D01*
X0056700Y0747948D02*
X0063598Y0747948D01*
X0063831Y0748447D02*
X0056467Y0748447D01*
X0056326Y0748945D02*
X0063972Y0748945D01*
X0064052Y0749444D02*
X0056246Y0749444D01*
X0056222Y0749942D02*
X0064076Y0749942D01*
X0064033Y0750441D02*
X0056265Y0750441D01*
X0056385Y0750939D02*
X0063912Y0750939D01*
X0063727Y0751438D02*
X0056571Y0751438D01*
X0056835Y0751936D02*
X0063463Y0751936D01*
X0063092Y0752435D02*
X0057206Y0752435D01*
X0057741Y0752933D02*
X0062557Y0752933D01*
X0061708Y0753432D02*
X0058590Y0753432D01*
X0057483Y0746951D02*
X0062815Y0746951D01*
X0062161Y0746453D02*
X0058136Y0746453D01*
X0059466Y0745954D02*
X0060832Y0745954D01*
X0056212Y0045107D02*
X0056896Y0045047D01*
X0057558Y0044870D01*
X0058180Y0044580D01*
X0058743Y0044186D01*
X0059228Y0043701D01*
X0059622Y0043139D01*
X0059912Y0042517D01*
X0060089Y0041854D01*
X0060149Y0041170D01*
X0060089Y0040486D01*
X0059912Y0039824D01*
X0059622Y0039202D01*
X0059228Y0038639D01*
X0058743Y0038154D01*
X0058180Y0037761D01*
X0057558Y0037470D01*
X0056896Y0037293D01*
X0056212Y0037233D01*
X0055528Y0037293D01*
X0054865Y0037470D01*
X0054243Y0037761D01*
X0053681Y0038154D01*
X0053196Y0038639D01*
X0052802Y0039202D01*
X0052512Y0039824D01*
X0052335Y0040486D01*
X0052275Y0041170D01*
X0052335Y0041854D01*
X0052512Y0042517D01*
X0052802Y0043139D01*
X0053196Y0043701D01*
X0053681Y0044186D01*
X0054243Y0044580D01*
X0054865Y0044870D01*
X0055528Y0045047D01*
X0056212Y0045107D01*
X0055529Y0045047D02*
X0056895Y0045047D01*
X0058224Y0044549D02*
X0054199Y0044549D01*
X0053546Y0044050D02*
X0058878Y0044050D01*
X0059332Y0043552D02*
X0053092Y0043552D01*
X0052763Y0043053D02*
X0059661Y0043053D01*
X0059894Y0042555D02*
X0052530Y0042555D01*
X0052389Y0042056D02*
X0060035Y0042056D01*
X0060115Y0041558D02*
X0052309Y0041558D01*
X0052285Y0041059D02*
X0060139Y0041059D01*
X0060096Y0040561D02*
X0052328Y0040561D01*
X0052448Y0040062D02*
X0059975Y0040062D01*
X0059790Y0039564D02*
X0052634Y0039564D01*
X0052898Y0039065D02*
X0059526Y0039065D01*
X0059155Y0038567D02*
X0053269Y0038567D01*
X0053804Y0038068D02*
X0058620Y0038068D01*
X0057771Y0037570D02*
X0054653Y0037570D01*
X0764873Y0041170D02*
X0764933Y0041854D01*
X0765111Y0042517D01*
X0765401Y0043139D01*
X0765794Y0043701D01*
X0766280Y0044186D01*
X0766842Y0044580D01*
X0767464Y0044870D01*
X0768127Y0045047D01*
X0768810Y0045107D01*
X0769494Y0045047D01*
X0770157Y0044870D01*
X0770779Y0044580D01*
X0771341Y0044186D01*
X0771826Y0043701D01*
X0772220Y0043139D01*
X0772510Y0042517D01*
X0772688Y0041854D01*
X0772747Y0041170D01*
X0772688Y0040486D01*
X0772510Y0039824D01*
X0772220Y0039202D01*
X0771826Y0038639D01*
X0771341Y0038154D01*
X0770779Y0037761D01*
X0770157Y0037470D01*
X0769494Y0037293D01*
X0768810Y0037233D01*
X0768127Y0037293D01*
X0767464Y0037470D01*
X0766842Y0037761D01*
X0766280Y0038154D01*
X0765794Y0038639D01*
X0765401Y0039202D01*
X0765111Y0039824D01*
X0764933Y0040486D01*
X0764873Y0041170D01*
X0764883Y0041059D02*
X0772738Y0041059D01*
X0772713Y0041558D02*
X0764907Y0041558D01*
X0764987Y0042056D02*
X0772633Y0042056D01*
X0772492Y0042555D02*
X0765129Y0042555D01*
X0765361Y0043053D02*
X0772260Y0043053D01*
X0771931Y0043552D02*
X0765690Y0043552D01*
X0766144Y0044050D02*
X0771477Y0044050D01*
X0770823Y0044549D02*
X0766798Y0044549D01*
X0768127Y0045047D02*
X0769493Y0045047D01*
X0772694Y0040561D02*
X0764927Y0040561D01*
X0765047Y0040062D02*
X0772574Y0040062D01*
X0772389Y0039564D02*
X0765232Y0039564D01*
X0765496Y0039065D02*
X0772124Y0039065D01*
X0771754Y0038567D02*
X0765867Y0038567D01*
X0766403Y0038068D02*
X0771218Y0038068D01*
X0770370Y0037570D02*
X0767251Y0037570D01*
M02*
