%
M48
M72
T01C0.02362
T02C0.03937
T03C0.04000
%
T01
X33480Y27575
X13205Y55724
X45882Y74228
X58480Y55724
X89976Y55724
X95094Y74228
X141157Y55724
X172654Y55724
X204150Y55724
X209268Y74228
X264386Y74228
X314386Y55724
X345882Y55724
X377378Y55724
X382496Y74228
X428559Y55724
X460055Y55724
X491551Y55724
X516748Y47260
X520685Y49228
X525606Y49228
X515764Y41354
X511630Y33677
X490173Y25606
X517732Y14780
X496669Y74228
X433677Y74228
X428559Y118717
X460055Y118717
X491551Y118717
X496669Y137220
X433677Y137220
X382496Y137220
X377378Y118717
X347850Y118717
X314386Y118717
X319504Y137220
X264386Y137220
X209268Y137220
X204150Y118717
X172654Y118717
X141157Y118717
X146276Y137220
X95094Y137220
X89976Y118717
X58480Y118717
X26984Y118717
X12417Y105724
X13205Y137220
X32102Y137220
X58480Y181709
X89976Y181709
X126000Y198835
X141157Y181709
X172654Y181709
X204150Y181709
X260843Y166728
X314386Y181709
X345882Y181709
X379346Y181709
X428559Y181709
X460055Y181709
X493520Y181709
X319504Y74228
X146276Y74228
X19898Y186827
T02
X242220Y15921
X252220Y15921
X262220Y15921
X272220Y15921
X282220Y15921
X292220Y15921
X312220Y15921
X322220Y15921
X332220Y15921
X342220Y15921
X352220Y15921
X362220Y15921
X362220Y205921
X352220Y205921
X342220Y205921
X332220Y205921
X322220Y205921
X312220Y205921
X302220Y205921
X292220Y205921
X276220Y205921
X266220Y205921
X256220Y205921
X246220Y205921
X236220Y205921
X226220Y205921
X216220Y205921
X206220Y205921
T03
X394543Y205724
X404543Y205724
X414543Y205724
M30
