G75*
%MOIN*%
%OFA0B0*%
%FSLAX25Y25*%
%IPPOS*%
%LPD*%
%AMOC8*
5,1,8,0,0,1.08239X$1,22.5*
%
%ADD10C,0.01600*%
%ADD11OC8,0.06600*%
%ADD12R,0.06000X0.06000*%
%ADD13C,0.06000*%
%ADD14C,0.01969*%
%ADD15C,0.03562*%
D10*
X0001984Y0001984D02*
X0001984Y0218520D01*
X0533480Y0218520D01*
X0533480Y0001984D01*
X0001984Y0001984D01*
X0033480Y0027575D02*
X0039386Y0027575D01*
X0045882Y0074228D02*
X0045291Y0076787D01*
X0092535Y0078756D02*
X0095094Y0074228D01*
X0143717Y0078756D02*
X0146276Y0074228D01*
X0206709Y0078756D02*
X0209268Y0074228D01*
X0261827Y0078756D02*
X0264386Y0074228D01*
X0318913Y0078756D02*
X0319504Y0074228D01*
X0379937Y0078756D02*
X0382496Y0074228D01*
X0431118Y0078756D02*
X0433677Y0074228D01*
X0494110Y0078756D02*
X0496669Y0074228D01*
X0517732Y0049228D02*
X0515764Y0041354D01*
X0490173Y0025606D02*
X0486236Y0025606D01*
X0269701Y0102378D02*
X0261827Y0102378D01*
X0257890Y0102378D02*
X0253953Y0102378D01*
X0264386Y0137220D02*
X0259858Y0141748D01*
X0260843Y0163402D02*
X0260843Y0166728D01*
X0316945Y0141748D02*
X0319504Y0137220D01*
X0379937Y0139780D02*
X0382496Y0137220D01*
X0431118Y0139780D02*
X0433677Y0137220D01*
X0494110Y0139780D02*
X0496669Y0137220D01*
X0226220Y0202598D02*
X0222457Y0198835D01*
X0126000Y0198835D01*
X0226220Y0202598D02*
X0226220Y0205921D01*
X0206709Y0139780D02*
X0209268Y0137220D01*
X0146276Y0137220D02*
X0143717Y0139780D01*
X0095094Y0137220D02*
X0092535Y0139780D01*
X0032102Y0137220D02*
X0029543Y0139780D01*
X0013205Y0137220D02*
X0011827Y0133874D01*
X0011827Y0108283D01*
X0012417Y0105724D01*
X0019898Y0186827D02*
X0015764Y0190961D01*
D11*
X0206220Y0205921D03*
X0216220Y0205921D03*
X0226220Y0205921D03*
X0236220Y0205921D03*
X0246220Y0205921D03*
X0256220Y0205921D03*
X0266220Y0205921D03*
X0276220Y0205921D03*
X0292220Y0205921D03*
X0302220Y0205921D03*
X0312220Y0205921D03*
X0322220Y0205921D03*
X0332220Y0205921D03*
X0342220Y0205921D03*
X0352220Y0205921D03*
X0362220Y0205921D03*
X0362220Y0015921D03*
X0352220Y0015921D03*
X0342220Y0015921D03*
X0332220Y0015921D03*
X0322220Y0015921D03*
X0312220Y0015921D03*
X0292220Y0015921D03*
X0282220Y0015921D03*
X0272220Y0015921D03*
X0262220Y0015921D03*
X0252220Y0015921D03*
X0242220Y0015921D03*
D12*
X0394543Y0205724D03*
D13*
X0404543Y0205724D03*
X0414543Y0205724D03*
D14*
X0414528Y0205709D02*
X0414559Y0205709D01*
X0414559Y0205740D01*
X0419528Y0205740D01*
X0419528Y0206117D01*
X0419405Y0206892D01*
X0419162Y0207638D01*
X0418806Y0208337D01*
X0418345Y0208971D01*
X0417790Y0209526D01*
X0417156Y0209987D01*
X0416457Y0210343D01*
X0415710Y0210586D01*
X0414936Y0210709D01*
X0414559Y0210709D01*
X0414559Y0205740D01*
X0414528Y0205740D01*
X0414528Y0210709D01*
X0414151Y0210709D01*
X0413376Y0210586D01*
X0412630Y0210343D01*
X0411931Y0209987D01*
X0411296Y0209526D01*
X0410742Y0208971D01*
X0410280Y0208337D01*
X0410073Y0207930D01*
X0409590Y0209096D01*
X0407915Y0210771D01*
X0405727Y0211677D01*
X0403359Y0211677D01*
X0401171Y0210771D01*
X0400266Y0209866D01*
X0400047Y0210397D01*
X0399216Y0211228D01*
X0398131Y0211677D01*
X0390956Y0211677D01*
X0389871Y0211228D01*
X0389040Y0210397D01*
X0388591Y0209312D01*
X0388591Y0202137D01*
X0389040Y0201052D01*
X0389871Y0200221D01*
X0390956Y0199772D01*
X0398131Y0199772D01*
X0399216Y0200221D01*
X0400047Y0201052D01*
X0400266Y0201583D01*
X0401171Y0200678D01*
X0403359Y0199772D01*
X0405727Y0199772D01*
X0407915Y0200678D01*
X0409590Y0202352D01*
X0410073Y0203519D01*
X0410280Y0203112D01*
X0410742Y0202477D01*
X0411296Y0201923D01*
X0411931Y0201461D01*
X0412630Y0201105D01*
X0413376Y0200863D01*
X0414151Y0200740D01*
X0414528Y0200740D01*
X0414528Y0205709D01*
X0414559Y0205709D02*
X0414559Y0200740D01*
X0414936Y0200740D01*
X0415710Y0200863D01*
X0416457Y0201105D01*
X0417156Y0201461D01*
X0417790Y0201923D01*
X0418345Y0202477D01*
X0418806Y0203112D01*
X0419162Y0203811D01*
X0419405Y0204557D01*
X0419528Y0205332D01*
X0419528Y0205709D01*
X0414559Y0205709D01*
X0414528Y0206554D02*
X0414559Y0206554D01*
X0414528Y0208521D02*
X0414559Y0208521D01*
X0414528Y0210488D02*
X0414559Y0210488D01*
X0416012Y0210488D02*
X0529728Y0210488D01*
X0529728Y0212455D02*
X0005737Y0212455D01*
X0005737Y0214422D02*
X0529728Y0214422D01*
X0529728Y0214767D02*
X0529728Y0005737D01*
X0005737Y0005737D01*
X0005737Y0214767D01*
X0529728Y0214767D01*
X0529728Y0208521D02*
X0418672Y0208521D01*
X0419458Y0206554D02*
X0529728Y0206554D01*
X0529728Y0204587D02*
X0419409Y0204587D01*
X0418449Y0202620D02*
X0529728Y0202620D01*
X0529728Y0200653D02*
X0407855Y0200653D01*
X0409701Y0202620D02*
X0410638Y0202620D01*
X0414528Y0202620D02*
X0414559Y0202620D01*
X0414528Y0204587D02*
X0414559Y0204587D01*
X0410414Y0208521D02*
X0409828Y0208521D01*
X0408198Y0210488D02*
X0413074Y0210488D01*
X0400888Y0210488D02*
X0399956Y0210488D01*
X0389131Y0210488D02*
X0366497Y0210488D01*
X0364810Y0212174D02*
X0359630Y0212174D01*
X0357220Y0209764D01*
X0354810Y0212174D01*
X0349630Y0212174D01*
X0347220Y0209764D01*
X0344810Y0212174D01*
X0339630Y0212174D01*
X0337220Y0209764D01*
X0334810Y0212174D01*
X0329630Y0212174D01*
X0327220Y0209764D01*
X0324810Y0212174D01*
X0319630Y0212174D01*
X0317220Y0209764D01*
X0314810Y0212174D01*
X0309630Y0212174D01*
X0307220Y0209764D01*
X0304810Y0212174D01*
X0299630Y0212174D01*
X0297220Y0209764D01*
X0294810Y0212174D01*
X0289630Y0212174D01*
X0285968Y0208511D01*
X0285968Y0203331D01*
X0289630Y0199669D01*
X0294810Y0199669D01*
X0297220Y0202079D01*
X0299630Y0199669D01*
X0304810Y0199669D01*
X0307220Y0202079D01*
X0309630Y0199669D01*
X0314810Y0199669D01*
X0317220Y0202079D01*
X0319630Y0199669D01*
X0324810Y0199669D01*
X0327220Y0202079D01*
X0329630Y0199669D01*
X0334810Y0199669D01*
X0337220Y0202079D01*
X0339630Y0199669D01*
X0344810Y0199669D01*
X0347220Y0202079D01*
X0349630Y0199669D01*
X0354810Y0199669D01*
X0357220Y0202079D01*
X0359630Y0199669D01*
X0364810Y0199669D01*
X0368473Y0203331D01*
X0368473Y0208511D01*
X0364810Y0212174D01*
X0357944Y0210488D02*
X0356497Y0210488D01*
X0347944Y0210488D02*
X0346497Y0210488D01*
X0337944Y0210488D02*
X0336497Y0210488D01*
X0327944Y0210488D02*
X0326497Y0210488D01*
X0317944Y0210488D02*
X0316497Y0210488D01*
X0307944Y0210488D02*
X0306497Y0210488D01*
X0297944Y0210488D02*
X0296497Y0210488D01*
X0287944Y0210488D02*
X0280497Y0210488D01*
X0278810Y0212174D02*
X0273630Y0212174D01*
X0271220Y0209764D01*
X0268810Y0212174D01*
X0263630Y0212174D01*
X0261220Y0209764D01*
X0258810Y0212174D01*
X0253630Y0212174D01*
X0251220Y0209764D01*
X0248810Y0212174D01*
X0243630Y0212174D01*
X0241220Y0209764D01*
X0238810Y0212174D01*
X0233630Y0212174D01*
X0231220Y0209764D01*
X0228810Y0212174D01*
X0223630Y0212174D01*
X0220536Y0209079D01*
X0218409Y0211205D01*
X0216221Y0211205D01*
X0216221Y0205921D01*
X0216220Y0205921D01*
X0216220Y0211205D01*
X0214032Y0211205D01*
X0211905Y0209079D01*
X0208810Y0212174D01*
X0203630Y0212174D01*
X0199968Y0208511D01*
X0199968Y0203331D01*
X0200712Y0202587D01*
X0128942Y0202587D01*
X0128682Y0202848D01*
X0126942Y0203568D01*
X0125058Y0203568D01*
X0123318Y0202848D01*
X0121987Y0201516D01*
X0121266Y0199776D01*
X0121266Y0197893D01*
X0121987Y0196153D01*
X0123318Y0194821D01*
X0125058Y0194101D01*
X0126942Y0194101D01*
X0128682Y0194821D01*
X0128942Y0195082D01*
X0223203Y0195082D01*
X0224582Y0195653D01*
X0228346Y0199417D01*
X0228598Y0199669D01*
X0228810Y0199669D01*
X0231220Y0202079D01*
X0233630Y0199669D01*
X0238810Y0199669D01*
X0241220Y0202079D01*
X0243630Y0199669D01*
X0248810Y0199669D01*
X0251220Y0202079D01*
X0253630Y0199669D01*
X0258810Y0199669D01*
X0261220Y0202079D01*
X0263630Y0199669D01*
X0268810Y0199669D01*
X0271220Y0202079D01*
X0273630Y0199669D01*
X0278810Y0199669D01*
X0282473Y0203331D01*
X0282473Y0208511D01*
X0278810Y0212174D01*
X0271944Y0210488D02*
X0270497Y0210488D01*
X0261944Y0210488D02*
X0260497Y0210488D01*
X0251944Y0210488D02*
X0250497Y0210488D01*
X0241944Y0210488D02*
X0240497Y0210488D01*
X0231944Y0210488D02*
X0230497Y0210488D01*
X0221944Y0210488D02*
X0219127Y0210488D01*
X0216221Y0210488D02*
X0216220Y0210488D01*
X0216220Y0208521D02*
X0216221Y0208521D01*
X0216220Y0206554D02*
X0216221Y0206554D01*
X0213314Y0210488D02*
X0210497Y0210488D01*
X0201944Y0210488D02*
X0005737Y0210488D01*
X0005737Y0208521D02*
X0199977Y0208521D01*
X0199968Y0206554D02*
X0005737Y0206554D01*
X0005737Y0204587D02*
X0199968Y0204587D01*
X0200679Y0202620D02*
X0128910Y0202620D01*
X0123090Y0202620D02*
X0005737Y0202620D01*
X0005737Y0200653D02*
X0121629Y0200653D01*
X0121266Y0198686D02*
X0005737Y0198686D01*
X0005737Y0196719D02*
X0121753Y0196719D01*
X0123487Y0194752D02*
X0005737Y0194752D01*
X0005737Y0192785D02*
X0529728Y0192785D01*
X0529728Y0194752D02*
X0128513Y0194752D01*
X0225648Y0196719D02*
X0529728Y0196719D01*
X0529728Y0198686D02*
X0227615Y0198686D01*
X0229795Y0200653D02*
X0232646Y0200653D01*
X0239795Y0200653D02*
X0242646Y0200653D01*
X0249795Y0200653D02*
X0252646Y0200653D01*
X0259795Y0200653D02*
X0262646Y0200653D01*
X0269795Y0200653D02*
X0272646Y0200653D01*
X0279795Y0200653D02*
X0288646Y0200653D01*
X0286679Y0202620D02*
X0281762Y0202620D01*
X0282473Y0204587D02*
X0285968Y0204587D01*
X0285968Y0206554D02*
X0282473Y0206554D01*
X0282464Y0208521D02*
X0285977Y0208521D01*
X0295795Y0200653D02*
X0298646Y0200653D01*
X0305795Y0200653D02*
X0308646Y0200653D01*
X0315795Y0200653D02*
X0318646Y0200653D01*
X0325795Y0200653D02*
X0328646Y0200653D01*
X0335795Y0200653D02*
X0338646Y0200653D01*
X0345795Y0200653D02*
X0348646Y0200653D01*
X0355795Y0200653D02*
X0358646Y0200653D01*
X0365795Y0200653D02*
X0389439Y0200653D01*
X0388591Y0202620D02*
X0367762Y0202620D01*
X0368473Y0204587D02*
X0388591Y0204587D01*
X0388591Y0206554D02*
X0368473Y0206554D01*
X0368464Y0208521D02*
X0388591Y0208521D01*
X0399648Y0200653D02*
X0401232Y0200653D01*
X0529728Y0190818D02*
X0005737Y0190818D01*
X0005737Y0188851D02*
X0529728Y0188851D01*
X0529728Y0186884D02*
X0005737Y0186884D01*
X0005737Y0184917D02*
X0529728Y0184917D01*
X0529728Y0182950D02*
X0005737Y0182950D01*
X0005737Y0180983D02*
X0529728Y0180983D01*
X0529728Y0179016D02*
X0005737Y0179016D01*
X0005737Y0177049D02*
X0529728Y0177049D01*
X0529728Y0175082D02*
X0005737Y0175082D01*
X0005737Y0173115D02*
X0529728Y0173115D01*
X0529728Y0171148D02*
X0005737Y0171148D01*
X0005737Y0169181D02*
X0529728Y0169181D01*
X0529728Y0167214D02*
X0005737Y0167214D01*
X0005737Y0165247D02*
X0529728Y0165247D01*
X0529728Y0163280D02*
X0005737Y0163280D01*
X0005737Y0161312D02*
X0529728Y0161312D01*
X0529728Y0159345D02*
X0005737Y0159345D01*
X0005737Y0157378D02*
X0529728Y0157378D01*
X0529728Y0155411D02*
X0005737Y0155411D01*
X0005737Y0153444D02*
X0529728Y0153444D01*
X0529728Y0151477D02*
X0005737Y0151477D01*
X0005737Y0149510D02*
X0529728Y0149510D01*
X0529728Y0147543D02*
X0005737Y0147543D01*
X0005737Y0145576D02*
X0529728Y0145576D01*
X0529728Y0143609D02*
X0005737Y0143609D01*
X0005737Y0141642D02*
X0011510Y0141642D01*
X0012263Y0141954D02*
X0010523Y0141234D01*
X0009192Y0139902D01*
X0008471Y0138162D01*
X0008471Y0136279D01*
X0008615Y0135931D01*
X0008359Y0135307D01*
X0008074Y0134620D01*
X0008074Y0134616D01*
X0008072Y0134613D01*
X0008074Y0133872D01*
X0008074Y0108595D01*
X0008002Y0108167D01*
X0008074Y0107856D01*
X0008074Y0107609D01*
X0007683Y0106666D01*
X0007683Y0104783D01*
X0008404Y0103043D01*
X0009736Y0101711D01*
X0011476Y0100991D01*
X0013359Y0100991D01*
X0015099Y0101711D01*
X0016430Y0103043D01*
X0017151Y0104783D01*
X0017151Y0106666D01*
X0016430Y0108406D01*
X0015580Y0109257D01*
X0015580Y0133080D01*
X0015886Y0133207D01*
X0017218Y0134539D01*
X0017939Y0136279D01*
X0017939Y0138162D01*
X0017218Y0139902D01*
X0015886Y0141234D01*
X0014146Y0141954D01*
X0012263Y0141954D01*
X0014900Y0141642D02*
X0529728Y0141642D01*
X0529728Y0139675D02*
X0017312Y0139675D01*
X0017939Y0137708D02*
X0529728Y0137708D01*
X0529728Y0135741D02*
X0017716Y0135741D01*
X0016453Y0133774D02*
X0529728Y0133774D01*
X0529728Y0131807D02*
X0015580Y0131807D01*
X0015580Y0129840D02*
X0529728Y0129840D01*
X0529728Y0127873D02*
X0015580Y0127873D01*
X0015580Y0125906D02*
X0529728Y0125906D01*
X0529728Y0123939D02*
X0015580Y0123939D01*
X0015580Y0121972D02*
X0529728Y0121972D01*
X0529728Y0120005D02*
X0015580Y0120005D01*
X0015580Y0118038D02*
X0529728Y0118038D01*
X0529728Y0116071D02*
X0015580Y0116071D01*
X0015580Y0114104D02*
X0529728Y0114104D01*
X0529728Y0112137D02*
X0015580Y0112137D01*
X0015580Y0110170D02*
X0529728Y0110170D01*
X0529728Y0108203D02*
X0016515Y0108203D01*
X0017151Y0106236D02*
X0529728Y0106236D01*
X0529728Y0104269D02*
X0016938Y0104269D01*
X0015690Y0102302D02*
X0529728Y0102302D01*
X0529728Y0100335D02*
X0005737Y0100335D01*
X0005737Y0098368D02*
X0529728Y0098368D01*
X0529728Y0096401D02*
X0005737Y0096401D01*
X0005737Y0094434D02*
X0529728Y0094434D01*
X0529728Y0092467D02*
X0005737Y0092467D01*
X0005737Y0090500D02*
X0529728Y0090500D01*
X0529728Y0088533D02*
X0005737Y0088533D01*
X0005737Y0086566D02*
X0529728Y0086566D01*
X0529728Y0084599D02*
X0005737Y0084599D01*
X0005737Y0082632D02*
X0529728Y0082632D01*
X0529728Y0080665D02*
X0005737Y0080665D01*
X0005737Y0078698D02*
X0529728Y0078698D01*
X0529728Y0076731D02*
X0005737Y0076731D01*
X0005737Y0074764D02*
X0529728Y0074764D01*
X0529728Y0072797D02*
X0005737Y0072797D01*
X0005737Y0070830D02*
X0529728Y0070830D01*
X0529728Y0068863D02*
X0005737Y0068863D01*
X0005737Y0066896D02*
X0529728Y0066896D01*
X0529728Y0064929D02*
X0005737Y0064929D01*
X0005737Y0062962D02*
X0529728Y0062962D01*
X0529728Y0060995D02*
X0005737Y0060995D01*
X0005737Y0059028D02*
X0529728Y0059028D01*
X0529728Y0057061D02*
X0005737Y0057061D01*
X0005737Y0055094D02*
X0529728Y0055094D01*
X0529728Y0053127D02*
X0005737Y0053127D01*
X0005737Y0051160D02*
X0529728Y0051160D01*
X0529728Y0049193D02*
X0005737Y0049193D01*
X0005737Y0047226D02*
X0529728Y0047226D01*
X0529728Y0045259D02*
X0005737Y0045259D01*
X0005737Y0043292D02*
X0529728Y0043292D01*
X0529728Y0041325D02*
X0005737Y0041325D01*
X0005737Y0039358D02*
X0529728Y0039358D01*
X0529728Y0037391D02*
X0005737Y0037391D01*
X0005737Y0035424D02*
X0529728Y0035424D01*
X0529728Y0033456D02*
X0005737Y0033456D01*
X0005737Y0031489D02*
X0529728Y0031489D01*
X0529728Y0029522D02*
X0005737Y0029522D01*
X0005737Y0027555D02*
X0529728Y0027555D01*
X0529728Y0025588D02*
X0005737Y0025588D01*
X0005737Y0023621D02*
X0529728Y0023621D01*
X0529728Y0021654D02*
X0365330Y0021654D01*
X0364810Y0022174D02*
X0359630Y0022174D01*
X0357220Y0019764D01*
X0354810Y0022174D01*
X0349630Y0022174D01*
X0347220Y0019764D01*
X0344810Y0022174D01*
X0339630Y0022174D01*
X0337220Y0019764D01*
X0334810Y0022174D01*
X0329630Y0022174D01*
X0327220Y0019764D01*
X0324810Y0022174D01*
X0319630Y0022174D01*
X0317220Y0019764D01*
X0314810Y0022174D01*
X0309630Y0022174D01*
X0305968Y0018511D01*
X0305968Y0013331D01*
X0309630Y0009669D01*
X0314810Y0009669D01*
X0317220Y0012079D01*
X0319630Y0009669D01*
X0324810Y0009669D01*
X0327220Y0012079D01*
X0329630Y0009669D01*
X0334810Y0009669D01*
X0337220Y0012079D01*
X0339630Y0009669D01*
X0344810Y0009669D01*
X0347220Y0012079D01*
X0349630Y0009669D01*
X0354810Y0009669D01*
X0357220Y0012079D01*
X0359630Y0009669D01*
X0364810Y0009669D01*
X0368473Y0013331D01*
X0368473Y0018511D01*
X0364810Y0022174D01*
X0359111Y0021654D02*
X0355330Y0021654D01*
X0349111Y0021654D02*
X0345330Y0021654D01*
X0339111Y0021654D02*
X0335330Y0021654D01*
X0329111Y0021654D02*
X0325330Y0021654D01*
X0319111Y0021654D02*
X0315330Y0021654D01*
X0309111Y0021654D02*
X0295330Y0021654D01*
X0294810Y0022174D02*
X0289630Y0022174D01*
X0286536Y0019079D01*
X0284409Y0021205D01*
X0282221Y0021205D01*
X0282221Y0015921D01*
X0282221Y0010637D01*
X0284409Y0010637D01*
X0286536Y0012763D01*
X0289630Y0009669D01*
X0294810Y0009669D01*
X0298473Y0013331D01*
X0298473Y0018511D01*
X0294810Y0022174D01*
X0289111Y0021654D02*
X0265330Y0021654D01*
X0264810Y0022174D02*
X0259630Y0022174D01*
X0257220Y0019764D01*
X0254810Y0022174D01*
X0249630Y0022174D01*
X0247220Y0019764D01*
X0244810Y0022174D01*
X0239630Y0022174D01*
X0235968Y0018511D01*
X0235968Y0013331D01*
X0239630Y0009669D01*
X0244810Y0009669D01*
X0247220Y0012079D01*
X0249630Y0009669D01*
X0254810Y0009669D01*
X0257220Y0012079D01*
X0259630Y0009669D01*
X0264810Y0009669D01*
X0267905Y0012763D01*
X0270032Y0010637D01*
X0272220Y0010637D01*
X0272220Y0015921D01*
X0272221Y0015921D01*
X0272221Y0015921D01*
X0282220Y0015921D01*
X0282220Y0015921D01*
X0282221Y0015921D01*
X0282220Y0015921D01*
X0282220Y0010637D01*
X0280032Y0010637D01*
X0277220Y0013448D01*
X0274409Y0010637D01*
X0272221Y0010637D01*
X0272221Y0015921D01*
X0276936Y0015921D01*
X0282220Y0015921D01*
X0282220Y0021205D01*
X0280032Y0021205D01*
X0277220Y0018394D01*
X0274409Y0021205D01*
X0272221Y0021205D01*
X0272221Y0015921D01*
X0272220Y0015921D01*
X0272220Y0021205D01*
X0270032Y0021205D01*
X0267905Y0019079D01*
X0264810Y0022174D01*
X0259111Y0021654D02*
X0255330Y0021654D01*
X0249111Y0021654D02*
X0245330Y0021654D01*
X0239111Y0021654D02*
X0005737Y0021654D01*
X0005737Y0019687D02*
X0237144Y0019687D01*
X0235968Y0017720D02*
X0005737Y0017720D01*
X0005737Y0015753D02*
X0235968Y0015753D01*
X0235968Y0013786D02*
X0005737Y0013786D01*
X0005737Y0011819D02*
X0237480Y0011819D01*
X0239447Y0009852D02*
X0005737Y0009852D01*
X0005737Y0007885D02*
X0529728Y0007885D01*
X0529728Y0005918D02*
X0005737Y0005918D01*
X0005737Y0102302D02*
X0009145Y0102302D01*
X0007896Y0104269D02*
X0005737Y0104269D01*
X0005737Y0106236D02*
X0007683Y0106236D01*
X0008008Y0108203D02*
X0005737Y0108203D01*
X0005737Y0110170D02*
X0008074Y0110170D01*
X0008074Y0112137D02*
X0005737Y0112137D01*
X0005737Y0114104D02*
X0008074Y0114104D01*
X0008074Y0116071D02*
X0005737Y0116071D01*
X0005737Y0118038D02*
X0008074Y0118038D01*
X0008074Y0120005D02*
X0005737Y0120005D01*
X0005737Y0121972D02*
X0008074Y0121972D01*
X0008074Y0123939D02*
X0005737Y0123939D01*
X0005737Y0125906D02*
X0008074Y0125906D01*
X0008074Y0127873D02*
X0005737Y0127873D01*
X0005737Y0129840D02*
X0008074Y0129840D01*
X0008074Y0131807D02*
X0005737Y0131807D01*
X0005737Y0133774D02*
X0008074Y0133774D01*
X0008537Y0135741D02*
X0005737Y0135741D01*
X0005737Y0137708D02*
X0008471Y0137708D01*
X0009098Y0139675D02*
X0005737Y0139675D01*
X0267297Y0019687D02*
X0268514Y0019687D01*
X0272220Y0019687D02*
X0272221Y0019687D01*
X0272220Y0017720D02*
X0272221Y0017720D01*
X0272220Y0015753D02*
X0272221Y0015753D01*
X0272220Y0013786D02*
X0272221Y0013786D01*
X0272220Y0011819D02*
X0272221Y0011819D01*
X0275592Y0011819D02*
X0278849Y0011819D01*
X0282220Y0011819D02*
X0282221Y0011819D01*
X0282220Y0013786D02*
X0282221Y0013786D01*
X0282220Y0015753D02*
X0282221Y0015753D01*
X0282220Y0017720D02*
X0282221Y0017720D01*
X0282220Y0019687D02*
X0282221Y0019687D01*
X0285927Y0019687D02*
X0287144Y0019687D01*
X0297297Y0019687D02*
X0307144Y0019687D01*
X0305968Y0017720D02*
X0298473Y0017720D01*
X0298473Y0015753D02*
X0305968Y0015753D01*
X0305968Y0013786D02*
X0298473Y0013786D01*
X0296961Y0011819D02*
X0307480Y0011819D01*
X0309447Y0009852D02*
X0294994Y0009852D01*
X0289447Y0009852D02*
X0264994Y0009852D01*
X0266961Y0011819D02*
X0268849Y0011819D01*
X0259447Y0009852D02*
X0254994Y0009852D01*
X0256961Y0011819D02*
X0257480Y0011819D01*
X0249447Y0009852D02*
X0244994Y0009852D01*
X0246961Y0011819D02*
X0247480Y0011819D01*
X0275927Y0019687D02*
X0278514Y0019687D01*
X0285592Y0011819D02*
X0287480Y0011819D01*
X0314994Y0009852D02*
X0319447Y0009852D01*
X0317480Y0011819D02*
X0316961Y0011819D01*
X0324994Y0009852D02*
X0329447Y0009852D01*
X0327480Y0011819D02*
X0326961Y0011819D01*
X0334994Y0009852D02*
X0339447Y0009852D01*
X0337480Y0011819D02*
X0336961Y0011819D01*
X0344994Y0009852D02*
X0349447Y0009852D01*
X0347480Y0011819D02*
X0346961Y0011819D01*
X0354994Y0009852D02*
X0359447Y0009852D01*
X0357480Y0011819D02*
X0356961Y0011819D01*
X0364994Y0009852D02*
X0529728Y0009852D01*
X0529728Y0011819D02*
X0366961Y0011819D01*
X0368473Y0013786D02*
X0529728Y0013786D01*
X0529728Y0015753D02*
X0368473Y0015753D01*
X0368473Y0017720D02*
X0529728Y0017720D01*
X0529728Y0019687D02*
X0367297Y0019687D01*
D15*
X0377378Y0055724D03*
X0345882Y0055724D03*
X0314386Y0055724D03*
X0319504Y0074228D03*
X0264386Y0074228D03*
X0209268Y0074228D03*
X0204150Y0055724D03*
X0172654Y0055724D03*
X0141157Y0055724D03*
X0146276Y0074228D03*
X0095094Y0074228D03*
X0089976Y0055724D03*
X0058480Y0055724D03*
X0045882Y0074228D03*
X0013205Y0055724D03*
X0033480Y0027575D03*
X0012417Y0105724D03*
X0026984Y0118717D03*
X0058480Y0118717D03*
X0089976Y0118717D03*
X0095094Y0137220D03*
X0141157Y0118717D03*
X0172654Y0118717D03*
X0204150Y0118717D03*
X0209268Y0137220D03*
X0264386Y0137220D03*
X0314386Y0118717D03*
X0347850Y0118717D03*
X0377378Y0118717D03*
X0382496Y0137220D03*
X0428559Y0118717D03*
X0460055Y0118717D03*
X0491551Y0118717D03*
X0496669Y0137220D03*
X0433677Y0137220D03*
X0428559Y0181709D03*
X0460055Y0181709D03*
X0493520Y0181709D03*
X0379346Y0181709D03*
X0345882Y0181709D03*
X0314386Y0181709D03*
X0260843Y0166728D03*
X0204150Y0181709D03*
X0172654Y0181709D03*
X0141157Y0181709D03*
X0126000Y0198835D03*
X0089976Y0181709D03*
X0058480Y0181709D03*
X0019898Y0186827D03*
X0013205Y0137220D03*
X0032102Y0137220D03*
X0146276Y0137220D03*
X0319504Y0137220D03*
X0382496Y0074228D03*
X0428559Y0055724D03*
X0460055Y0055724D03*
X0491551Y0055724D03*
X0516748Y0047260D03*
X0520685Y0049228D03*
X0525606Y0049228D03*
X0515764Y0041354D03*
X0511630Y0033677D03*
X0490173Y0025606D03*
X0517732Y0014780D03*
X0496669Y0074228D03*
X0433677Y0074228D03*
M02*
