%
M48
M72
T01C0.03937
T02C0.06299
T03C0.11800
T04C0.12598
%
T01
X206603Y15000
X216603Y15000
X226603Y15000
X236603Y15000
X246603Y15000
X256603Y15000
X276603Y15000
X286603Y15000
X296603Y15000
X306603Y15000
X316603Y15000
X326603Y15000
X326603Y205000
X316603Y205000
X306603Y205000
X296603Y205000
X286603Y205000
X276603Y205000
X266603Y205000
X256603Y205000
X240603Y205000
X230603Y205000
X220603Y205000
X210603Y205000
X200603Y205000
X190603Y205000
X180603Y205000
X170603Y205000
T02
X49359Y95551
X29359Y95551
T03
X51485Y87047
X39674Y105551
X63296Y105551
T04
X131603Y15000
X136603Y205000
X336603Y145000
M30
