G75*
%MOIN*%
%OFA0B0*%
%FSLAX25Y25*%
%IPPOS*%
%LPD*%
%AMOC8*
5,1,8,0,0,1.08239X$1,22.5*
%
%ADD10C,0.01600*%
%ADD11C,0.00500*%
%ADD12C,0.00300*%
%ADD13C,0.00600*%
%ADD14C,0.00000*%
%ADD15C,0.00400*%
%ADD16C,0.00040*%
D10*
X0001800Y0005000D02*
X0001800Y0217598D01*
X0395501Y0217598D01*
X0395501Y0005000D01*
X0001800Y0005000D01*
D11*
X0094753Y0071890D02*
X0094753Y0088031D01*
X0098296Y0091575D01*
X0099477Y0092756D01*
X0097902Y0094331D01*
X0094753Y0091575D01*
X0098296Y0091575D01*
X0114438Y0091575D01*
X0114438Y0071890D01*
X0094753Y0071890D01*
X0097822Y0081732D02*
X0097824Y0081898D01*
X0097830Y0082064D01*
X0097840Y0082230D01*
X0097855Y0082396D01*
X0097873Y0082561D01*
X0097895Y0082726D01*
X0097922Y0082890D01*
X0097952Y0083053D01*
X0097987Y0083216D01*
X0098025Y0083378D01*
X0098067Y0083538D01*
X0098114Y0083698D01*
X0098164Y0083857D01*
X0098218Y0084014D01*
X0098276Y0084170D01*
X0098338Y0084324D01*
X0098403Y0084477D01*
X0098472Y0084628D01*
X0098545Y0084777D01*
X0098622Y0084925D01*
X0098702Y0085070D01*
X0098786Y0085214D01*
X0098873Y0085356D01*
X0098963Y0085495D01*
X0099057Y0085632D01*
X0099155Y0085767D01*
X0099256Y0085899D01*
X0099359Y0086029D01*
X0099466Y0086156D01*
X0099577Y0086280D01*
X0099690Y0086402D01*
X0099806Y0086521D01*
X0099925Y0086637D01*
X0100047Y0086750D01*
X0100171Y0086861D01*
X0100298Y0086968D01*
X0100428Y0087071D01*
X0100560Y0087172D01*
X0100695Y0087270D01*
X0100832Y0087364D01*
X0100971Y0087454D01*
X0101113Y0087541D01*
X0101257Y0087625D01*
X0101402Y0087705D01*
X0101550Y0087782D01*
X0101699Y0087855D01*
X0101850Y0087924D01*
X0102003Y0087989D01*
X0102157Y0088051D01*
X0102313Y0088109D01*
X0102470Y0088163D01*
X0102629Y0088213D01*
X0102789Y0088260D01*
X0102949Y0088302D01*
X0103111Y0088340D01*
X0103274Y0088375D01*
X0103437Y0088405D01*
X0103601Y0088432D01*
X0103766Y0088454D01*
X0103931Y0088472D01*
X0104097Y0088487D01*
X0104263Y0088497D01*
X0104429Y0088503D01*
X0104595Y0088505D01*
X0104761Y0088503D01*
X0104927Y0088497D01*
X0105093Y0088487D01*
X0105259Y0088472D01*
X0105424Y0088454D01*
X0105589Y0088432D01*
X0105753Y0088405D01*
X0105916Y0088375D01*
X0106079Y0088340D01*
X0106241Y0088302D01*
X0106401Y0088260D01*
X0106561Y0088213D01*
X0106720Y0088163D01*
X0106877Y0088109D01*
X0107033Y0088051D01*
X0107187Y0087989D01*
X0107340Y0087924D01*
X0107491Y0087855D01*
X0107640Y0087782D01*
X0107788Y0087705D01*
X0107933Y0087625D01*
X0108077Y0087541D01*
X0108219Y0087454D01*
X0108358Y0087364D01*
X0108495Y0087270D01*
X0108630Y0087172D01*
X0108762Y0087071D01*
X0108892Y0086968D01*
X0109019Y0086861D01*
X0109143Y0086750D01*
X0109265Y0086637D01*
X0109384Y0086521D01*
X0109500Y0086402D01*
X0109613Y0086280D01*
X0109724Y0086156D01*
X0109831Y0086029D01*
X0109934Y0085899D01*
X0110035Y0085767D01*
X0110133Y0085632D01*
X0110227Y0085495D01*
X0110317Y0085356D01*
X0110404Y0085214D01*
X0110488Y0085070D01*
X0110568Y0084925D01*
X0110645Y0084777D01*
X0110718Y0084628D01*
X0110787Y0084477D01*
X0110852Y0084324D01*
X0110914Y0084170D01*
X0110972Y0084014D01*
X0111026Y0083857D01*
X0111076Y0083698D01*
X0111123Y0083538D01*
X0111165Y0083378D01*
X0111203Y0083216D01*
X0111238Y0083053D01*
X0111268Y0082890D01*
X0111295Y0082726D01*
X0111317Y0082561D01*
X0111335Y0082396D01*
X0111350Y0082230D01*
X0111360Y0082064D01*
X0111366Y0081898D01*
X0111368Y0081732D01*
X0111366Y0081566D01*
X0111360Y0081400D01*
X0111350Y0081234D01*
X0111335Y0081068D01*
X0111317Y0080903D01*
X0111295Y0080738D01*
X0111268Y0080574D01*
X0111238Y0080411D01*
X0111203Y0080248D01*
X0111165Y0080086D01*
X0111123Y0079926D01*
X0111076Y0079766D01*
X0111026Y0079607D01*
X0110972Y0079450D01*
X0110914Y0079294D01*
X0110852Y0079140D01*
X0110787Y0078987D01*
X0110718Y0078836D01*
X0110645Y0078687D01*
X0110568Y0078539D01*
X0110488Y0078394D01*
X0110404Y0078250D01*
X0110317Y0078108D01*
X0110227Y0077969D01*
X0110133Y0077832D01*
X0110035Y0077697D01*
X0109934Y0077565D01*
X0109831Y0077435D01*
X0109724Y0077308D01*
X0109613Y0077184D01*
X0109500Y0077062D01*
X0109384Y0076943D01*
X0109265Y0076827D01*
X0109143Y0076714D01*
X0109019Y0076603D01*
X0108892Y0076496D01*
X0108762Y0076393D01*
X0108630Y0076292D01*
X0108495Y0076194D01*
X0108358Y0076100D01*
X0108219Y0076010D01*
X0108077Y0075923D01*
X0107933Y0075839D01*
X0107788Y0075759D01*
X0107640Y0075682D01*
X0107491Y0075609D01*
X0107340Y0075540D01*
X0107187Y0075475D01*
X0107033Y0075413D01*
X0106877Y0075355D01*
X0106720Y0075301D01*
X0106561Y0075251D01*
X0106401Y0075204D01*
X0106241Y0075162D01*
X0106079Y0075124D01*
X0105916Y0075089D01*
X0105753Y0075059D01*
X0105589Y0075032D01*
X0105424Y0075010D01*
X0105259Y0074992D01*
X0105093Y0074977D01*
X0104927Y0074967D01*
X0104761Y0074961D01*
X0104595Y0074959D01*
X0104429Y0074961D01*
X0104263Y0074967D01*
X0104097Y0074977D01*
X0103931Y0074992D01*
X0103766Y0075010D01*
X0103601Y0075032D01*
X0103437Y0075059D01*
X0103274Y0075089D01*
X0103111Y0075124D01*
X0102949Y0075162D01*
X0102789Y0075204D01*
X0102629Y0075251D01*
X0102470Y0075301D01*
X0102313Y0075355D01*
X0102157Y0075413D01*
X0102003Y0075475D01*
X0101850Y0075540D01*
X0101699Y0075609D01*
X0101550Y0075682D01*
X0101402Y0075759D01*
X0101257Y0075839D01*
X0101113Y0075923D01*
X0100971Y0076010D01*
X0100832Y0076100D01*
X0100695Y0076194D01*
X0100560Y0076292D01*
X0100428Y0076393D01*
X0100298Y0076496D01*
X0100171Y0076603D01*
X0100047Y0076714D01*
X0099925Y0076827D01*
X0099806Y0076943D01*
X0099690Y0077062D01*
X0099577Y0077184D01*
X0099466Y0077308D01*
X0099359Y0077435D01*
X0099256Y0077565D01*
X0099155Y0077697D01*
X0099057Y0077832D01*
X0098963Y0077969D01*
X0098873Y0078108D01*
X0098786Y0078250D01*
X0098702Y0078394D01*
X0098622Y0078539D01*
X0098545Y0078687D01*
X0098472Y0078836D01*
X0098403Y0078987D01*
X0098338Y0079140D01*
X0098276Y0079294D01*
X0098218Y0079450D01*
X0098164Y0079607D01*
X0098114Y0079766D01*
X0098067Y0079926D01*
X0098025Y0080086D01*
X0097987Y0080248D01*
X0097952Y0080411D01*
X0097922Y0080574D01*
X0097895Y0080738D01*
X0097873Y0080903D01*
X0097855Y0081068D01*
X0097840Y0081234D01*
X0097830Y0081400D01*
X0097824Y0081566D01*
X0097822Y0081732D01*
X0094753Y0088031D02*
X0094753Y0091575D01*
X0141997Y0090591D02*
X0141997Y0074449D01*
X0161682Y0074449D01*
X0161682Y0094134D01*
X0145540Y0094134D01*
X0146721Y0095315D01*
X0145146Y0096890D01*
X0141997Y0094134D01*
X0145540Y0094134D01*
X0141997Y0090591D01*
X0141997Y0094134D01*
X0145066Y0084291D02*
X0145068Y0084457D01*
X0145074Y0084623D01*
X0145084Y0084789D01*
X0145099Y0084955D01*
X0145117Y0085120D01*
X0145139Y0085285D01*
X0145166Y0085449D01*
X0145196Y0085612D01*
X0145231Y0085775D01*
X0145269Y0085937D01*
X0145311Y0086097D01*
X0145358Y0086257D01*
X0145408Y0086416D01*
X0145462Y0086573D01*
X0145520Y0086729D01*
X0145582Y0086883D01*
X0145647Y0087036D01*
X0145716Y0087187D01*
X0145789Y0087336D01*
X0145866Y0087484D01*
X0145946Y0087629D01*
X0146030Y0087773D01*
X0146117Y0087915D01*
X0146207Y0088054D01*
X0146301Y0088191D01*
X0146399Y0088326D01*
X0146500Y0088458D01*
X0146603Y0088588D01*
X0146710Y0088715D01*
X0146821Y0088839D01*
X0146934Y0088961D01*
X0147050Y0089080D01*
X0147169Y0089196D01*
X0147291Y0089309D01*
X0147415Y0089420D01*
X0147542Y0089527D01*
X0147672Y0089630D01*
X0147804Y0089731D01*
X0147939Y0089829D01*
X0148076Y0089923D01*
X0148215Y0090013D01*
X0148357Y0090100D01*
X0148501Y0090184D01*
X0148646Y0090264D01*
X0148794Y0090341D01*
X0148943Y0090414D01*
X0149094Y0090483D01*
X0149247Y0090548D01*
X0149401Y0090610D01*
X0149557Y0090668D01*
X0149714Y0090722D01*
X0149873Y0090772D01*
X0150033Y0090819D01*
X0150193Y0090861D01*
X0150355Y0090899D01*
X0150518Y0090934D01*
X0150681Y0090964D01*
X0150845Y0090991D01*
X0151010Y0091013D01*
X0151175Y0091031D01*
X0151341Y0091046D01*
X0151507Y0091056D01*
X0151673Y0091062D01*
X0151839Y0091064D01*
X0152005Y0091062D01*
X0152171Y0091056D01*
X0152337Y0091046D01*
X0152503Y0091031D01*
X0152668Y0091013D01*
X0152833Y0090991D01*
X0152997Y0090964D01*
X0153160Y0090934D01*
X0153323Y0090899D01*
X0153485Y0090861D01*
X0153645Y0090819D01*
X0153805Y0090772D01*
X0153964Y0090722D01*
X0154121Y0090668D01*
X0154277Y0090610D01*
X0154431Y0090548D01*
X0154584Y0090483D01*
X0154735Y0090414D01*
X0154884Y0090341D01*
X0155032Y0090264D01*
X0155177Y0090184D01*
X0155321Y0090100D01*
X0155463Y0090013D01*
X0155602Y0089923D01*
X0155739Y0089829D01*
X0155874Y0089731D01*
X0156006Y0089630D01*
X0156136Y0089527D01*
X0156263Y0089420D01*
X0156387Y0089309D01*
X0156509Y0089196D01*
X0156628Y0089080D01*
X0156744Y0088961D01*
X0156857Y0088839D01*
X0156968Y0088715D01*
X0157075Y0088588D01*
X0157178Y0088458D01*
X0157279Y0088326D01*
X0157377Y0088191D01*
X0157471Y0088054D01*
X0157561Y0087915D01*
X0157648Y0087773D01*
X0157732Y0087629D01*
X0157812Y0087484D01*
X0157889Y0087336D01*
X0157962Y0087187D01*
X0158031Y0087036D01*
X0158096Y0086883D01*
X0158158Y0086729D01*
X0158216Y0086573D01*
X0158270Y0086416D01*
X0158320Y0086257D01*
X0158367Y0086097D01*
X0158409Y0085937D01*
X0158447Y0085775D01*
X0158482Y0085612D01*
X0158512Y0085449D01*
X0158539Y0085285D01*
X0158561Y0085120D01*
X0158579Y0084955D01*
X0158594Y0084789D01*
X0158604Y0084623D01*
X0158610Y0084457D01*
X0158612Y0084291D01*
X0158610Y0084125D01*
X0158604Y0083959D01*
X0158594Y0083793D01*
X0158579Y0083627D01*
X0158561Y0083462D01*
X0158539Y0083297D01*
X0158512Y0083133D01*
X0158482Y0082970D01*
X0158447Y0082807D01*
X0158409Y0082645D01*
X0158367Y0082485D01*
X0158320Y0082325D01*
X0158270Y0082166D01*
X0158216Y0082009D01*
X0158158Y0081853D01*
X0158096Y0081699D01*
X0158031Y0081546D01*
X0157962Y0081395D01*
X0157889Y0081246D01*
X0157812Y0081098D01*
X0157732Y0080953D01*
X0157648Y0080809D01*
X0157561Y0080667D01*
X0157471Y0080528D01*
X0157377Y0080391D01*
X0157279Y0080256D01*
X0157178Y0080124D01*
X0157075Y0079994D01*
X0156968Y0079867D01*
X0156857Y0079743D01*
X0156744Y0079621D01*
X0156628Y0079502D01*
X0156509Y0079386D01*
X0156387Y0079273D01*
X0156263Y0079162D01*
X0156136Y0079055D01*
X0156006Y0078952D01*
X0155874Y0078851D01*
X0155739Y0078753D01*
X0155602Y0078659D01*
X0155463Y0078569D01*
X0155321Y0078482D01*
X0155177Y0078398D01*
X0155032Y0078318D01*
X0154884Y0078241D01*
X0154735Y0078168D01*
X0154584Y0078099D01*
X0154431Y0078034D01*
X0154277Y0077972D01*
X0154121Y0077914D01*
X0153964Y0077860D01*
X0153805Y0077810D01*
X0153645Y0077763D01*
X0153485Y0077721D01*
X0153323Y0077683D01*
X0153160Y0077648D01*
X0152997Y0077618D01*
X0152833Y0077591D01*
X0152668Y0077569D01*
X0152503Y0077551D01*
X0152337Y0077536D01*
X0152171Y0077526D01*
X0152005Y0077520D01*
X0151839Y0077518D01*
X0151673Y0077520D01*
X0151507Y0077526D01*
X0151341Y0077536D01*
X0151175Y0077551D01*
X0151010Y0077569D01*
X0150845Y0077591D01*
X0150681Y0077618D01*
X0150518Y0077648D01*
X0150355Y0077683D01*
X0150193Y0077721D01*
X0150033Y0077763D01*
X0149873Y0077810D01*
X0149714Y0077860D01*
X0149557Y0077914D01*
X0149401Y0077972D01*
X0149247Y0078034D01*
X0149094Y0078099D01*
X0148943Y0078168D01*
X0148794Y0078241D01*
X0148646Y0078318D01*
X0148501Y0078398D01*
X0148357Y0078482D01*
X0148215Y0078569D01*
X0148076Y0078659D01*
X0147939Y0078753D01*
X0147804Y0078851D01*
X0147672Y0078952D01*
X0147542Y0079055D01*
X0147415Y0079162D01*
X0147291Y0079273D01*
X0147169Y0079386D01*
X0147050Y0079502D01*
X0146934Y0079621D01*
X0146821Y0079743D01*
X0146710Y0079867D01*
X0146603Y0079994D01*
X0146500Y0080124D01*
X0146399Y0080256D01*
X0146301Y0080391D01*
X0146207Y0080528D01*
X0146117Y0080667D01*
X0146030Y0080809D01*
X0145946Y0080953D01*
X0145866Y0081098D01*
X0145789Y0081246D01*
X0145716Y0081395D01*
X0145647Y0081546D01*
X0145582Y0081699D01*
X0145520Y0081853D01*
X0145462Y0082009D01*
X0145408Y0082166D01*
X0145358Y0082325D01*
X0145311Y0082485D01*
X0145269Y0082645D01*
X0145231Y0082807D01*
X0145196Y0082970D01*
X0145166Y0083133D01*
X0145139Y0083297D01*
X0145117Y0083462D01*
X0145099Y0083627D01*
X0145084Y0083793D01*
X0145074Y0083959D01*
X0145068Y0084125D01*
X0145066Y0084291D01*
X0185304Y0077008D02*
X0185304Y0093150D01*
X0188847Y0096693D01*
X0190028Y0097874D01*
X0188454Y0099449D01*
X0185304Y0096693D01*
X0188847Y0096693D01*
X0204989Y0096693D01*
X0204989Y0077008D01*
X0185304Y0077008D01*
X0188373Y0086850D02*
X0188375Y0087016D01*
X0188381Y0087182D01*
X0188391Y0087348D01*
X0188406Y0087514D01*
X0188424Y0087679D01*
X0188446Y0087844D01*
X0188473Y0088008D01*
X0188503Y0088171D01*
X0188538Y0088334D01*
X0188576Y0088496D01*
X0188618Y0088656D01*
X0188665Y0088816D01*
X0188715Y0088975D01*
X0188769Y0089132D01*
X0188827Y0089288D01*
X0188889Y0089442D01*
X0188954Y0089595D01*
X0189023Y0089746D01*
X0189096Y0089895D01*
X0189173Y0090043D01*
X0189253Y0090188D01*
X0189337Y0090332D01*
X0189424Y0090474D01*
X0189514Y0090613D01*
X0189608Y0090750D01*
X0189706Y0090885D01*
X0189807Y0091017D01*
X0189910Y0091147D01*
X0190017Y0091274D01*
X0190128Y0091398D01*
X0190241Y0091520D01*
X0190357Y0091639D01*
X0190476Y0091755D01*
X0190598Y0091868D01*
X0190722Y0091979D01*
X0190849Y0092086D01*
X0190979Y0092189D01*
X0191111Y0092290D01*
X0191246Y0092388D01*
X0191383Y0092482D01*
X0191522Y0092572D01*
X0191664Y0092659D01*
X0191808Y0092743D01*
X0191953Y0092823D01*
X0192101Y0092900D01*
X0192250Y0092973D01*
X0192401Y0093042D01*
X0192554Y0093107D01*
X0192708Y0093169D01*
X0192864Y0093227D01*
X0193021Y0093281D01*
X0193180Y0093331D01*
X0193340Y0093378D01*
X0193500Y0093420D01*
X0193662Y0093458D01*
X0193825Y0093493D01*
X0193988Y0093523D01*
X0194152Y0093550D01*
X0194317Y0093572D01*
X0194482Y0093590D01*
X0194648Y0093605D01*
X0194814Y0093615D01*
X0194980Y0093621D01*
X0195146Y0093623D01*
X0195312Y0093621D01*
X0195478Y0093615D01*
X0195644Y0093605D01*
X0195810Y0093590D01*
X0195975Y0093572D01*
X0196140Y0093550D01*
X0196304Y0093523D01*
X0196467Y0093493D01*
X0196630Y0093458D01*
X0196792Y0093420D01*
X0196952Y0093378D01*
X0197112Y0093331D01*
X0197271Y0093281D01*
X0197428Y0093227D01*
X0197584Y0093169D01*
X0197738Y0093107D01*
X0197891Y0093042D01*
X0198042Y0092973D01*
X0198191Y0092900D01*
X0198339Y0092823D01*
X0198484Y0092743D01*
X0198628Y0092659D01*
X0198770Y0092572D01*
X0198909Y0092482D01*
X0199046Y0092388D01*
X0199181Y0092290D01*
X0199313Y0092189D01*
X0199443Y0092086D01*
X0199570Y0091979D01*
X0199694Y0091868D01*
X0199816Y0091755D01*
X0199935Y0091639D01*
X0200051Y0091520D01*
X0200164Y0091398D01*
X0200275Y0091274D01*
X0200382Y0091147D01*
X0200485Y0091017D01*
X0200586Y0090885D01*
X0200684Y0090750D01*
X0200778Y0090613D01*
X0200868Y0090474D01*
X0200955Y0090332D01*
X0201039Y0090188D01*
X0201119Y0090043D01*
X0201196Y0089895D01*
X0201269Y0089746D01*
X0201338Y0089595D01*
X0201403Y0089442D01*
X0201465Y0089288D01*
X0201523Y0089132D01*
X0201577Y0088975D01*
X0201627Y0088816D01*
X0201674Y0088656D01*
X0201716Y0088496D01*
X0201754Y0088334D01*
X0201789Y0088171D01*
X0201819Y0088008D01*
X0201846Y0087844D01*
X0201868Y0087679D01*
X0201886Y0087514D01*
X0201901Y0087348D01*
X0201911Y0087182D01*
X0201917Y0087016D01*
X0201919Y0086850D01*
X0201917Y0086684D01*
X0201911Y0086518D01*
X0201901Y0086352D01*
X0201886Y0086186D01*
X0201868Y0086021D01*
X0201846Y0085856D01*
X0201819Y0085692D01*
X0201789Y0085529D01*
X0201754Y0085366D01*
X0201716Y0085204D01*
X0201674Y0085044D01*
X0201627Y0084884D01*
X0201577Y0084725D01*
X0201523Y0084568D01*
X0201465Y0084412D01*
X0201403Y0084258D01*
X0201338Y0084105D01*
X0201269Y0083954D01*
X0201196Y0083805D01*
X0201119Y0083657D01*
X0201039Y0083512D01*
X0200955Y0083368D01*
X0200868Y0083226D01*
X0200778Y0083087D01*
X0200684Y0082950D01*
X0200586Y0082815D01*
X0200485Y0082683D01*
X0200382Y0082553D01*
X0200275Y0082426D01*
X0200164Y0082302D01*
X0200051Y0082180D01*
X0199935Y0082061D01*
X0199816Y0081945D01*
X0199694Y0081832D01*
X0199570Y0081721D01*
X0199443Y0081614D01*
X0199313Y0081511D01*
X0199181Y0081410D01*
X0199046Y0081312D01*
X0198909Y0081218D01*
X0198770Y0081128D01*
X0198628Y0081041D01*
X0198484Y0080957D01*
X0198339Y0080877D01*
X0198191Y0080800D01*
X0198042Y0080727D01*
X0197891Y0080658D01*
X0197738Y0080593D01*
X0197584Y0080531D01*
X0197428Y0080473D01*
X0197271Y0080419D01*
X0197112Y0080369D01*
X0196952Y0080322D01*
X0196792Y0080280D01*
X0196630Y0080242D01*
X0196467Y0080207D01*
X0196304Y0080177D01*
X0196140Y0080150D01*
X0195975Y0080128D01*
X0195810Y0080110D01*
X0195644Y0080095D01*
X0195478Y0080085D01*
X0195312Y0080079D01*
X0195146Y0080077D01*
X0194980Y0080079D01*
X0194814Y0080085D01*
X0194648Y0080095D01*
X0194482Y0080110D01*
X0194317Y0080128D01*
X0194152Y0080150D01*
X0193988Y0080177D01*
X0193825Y0080207D01*
X0193662Y0080242D01*
X0193500Y0080280D01*
X0193340Y0080322D01*
X0193180Y0080369D01*
X0193021Y0080419D01*
X0192864Y0080473D01*
X0192708Y0080531D01*
X0192554Y0080593D01*
X0192401Y0080658D01*
X0192250Y0080727D01*
X0192101Y0080800D01*
X0191953Y0080877D01*
X0191808Y0080957D01*
X0191664Y0081041D01*
X0191522Y0081128D01*
X0191383Y0081218D01*
X0191246Y0081312D01*
X0191111Y0081410D01*
X0190979Y0081511D01*
X0190849Y0081614D01*
X0190722Y0081721D01*
X0190598Y0081832D01*
X0190476Y0081945D01*
X0190357Y0082061D01*
X0190241Y0082180D01*
X0190128Y0082302D01*
X0190017Y0082426D01*
X0189910Y0082553D01*
X0189807Y0082683D01*
X0189706Y0082815D01*
X0189608Y0082950D01*
X0189514Y0083087D01*
X0189424Y0083226D01*
X0189337Y0083368D01*
X0189253Y0083512D01*
X0189173Y0083657D01*
X0189096Y0083805D01*
X0189023Y0083954D01*
X0188954Y0084105D01*
X0188889Y0084258D01*
X0188827Y0084412D01*
X0188769Y0084568D01*
X0188715Y0084725D01*
X0188665Y0084884D01*
X0188618Y0085044D01*
X0188576Y0085204D01*
X0188538Y0085366D01*
X0188503Y0085529D01*
X0188473Y0085692D01*
X0188446Y0085856D01*
X0188424Y0086021D01*
X0188406Y0086186D01*
X0188391Y0086352D01*
X0188381Y0086518D01*
X0188375Y0086684D01*
X0188373Y0086850D01*
X0185304Y0093150D02*
X0185304Y0096693D01*
X0244359Y0083504D02*
X0244359Y0079961D01*
X0247902Y0083504D01*
X0249083Y0084685D01*
X0247509Y0086260D01*
X0244359Y0083504D01*
X0247902Y0083504D01*
X0264044Y0083504D01*
X0264044Y0063819D01*
X0244359Y0063819D01*
X0244359Y0079961D01*
X0247429Y0073661D02*
X0247431Y0073827D01*
X0247437Y0073993D01*
X0247447Y0074159D01*
X0247462Y0074325D01*
X0247480Y0074490D01*
X0247502Y0074655D01*
X0247529Y0074819D01*
X0247559Y0074982D01*
X0247594Y0075145D01*
X0247632Y0075307D01*
X0247674Y0075467D01*
X0247721Y0075627D01*
X0247771Y0075786D01*
X0247825Y0075943D01*
X0247883Y0076099D01*
X0247945Y0076253D01*
X0248010Y0076406D01*
X0248079Y0076557D01*
X0248152Y0076706D01*
X0248229Y0076854D01*
X0248309Y0076999D01*
X0248393Y0077143D01*
X0248480Y0077285D01*
X0248570Y0077424D01*
X0248664Y0077561D01*
X0248762Y0077696D01*
X0248863Y0077828D01*
X0248966Y0077958D01*
X0249073Y0078085D01*
X0249184Y0078209D01*
X0249297Y0078331D01*
X0249413Y0078450D01*
X0249532Y0078566D01*
X0249654Y0078679D01*
X0249778Y0078790D01*
X0249905Y0078897D01*
X0250035Y0079000D01*
X0250167Y0079101D01*
X0250302Y0079199D01*
X0250439Y0079293D01*
X0250578Y0079383D01*
X0250720Y0079470D01*
X0250864Y0079554D01*
X0251009Y0079634D01*
X0251157Y0079711D01*
X0251306Y0079784D01*
X0251457Y0079853D01*
X0251610Y0079918D01*
X0251764Y0079980D01*
X0251920Y0080038D01*
X0252077Y0080092D01*
X0252236Y0080142D01*
X0252396Y0080189D01*
X0252556Y0080231D01*
X0252718Y0080269D01*
X0252881Y0080304D01*
X0253044Y0080334D01*
X0253208Y0080361D01*
X0253373Y0080383D01*
X0253538Y0080401D01*
X0253704Y0080416D01*
X0253870Y0080426D01*
X0254036Y0080432D01*
X0254202Y0080434D01*
X0254368Y0080432D01*
X0254534Y0080426D01*
X0254700Y0080416D01*
X0254866Y0080401D01*
X0255031Y0080383D01*
X0255196Y0080361D01*
X0255360Y0080334D01*
X0255523Y0080304D01*
X0255686Y0080269D01*
X0255848Y0080231D01*
X0256008Y0080189D01*
X0256168Y0080142D01*
X0256327Y0080092D01*
X0256484Y0080038D01*
X0256640Y0079980D01*
X0256794Y0079918D01*
X0256947Y0079853D01*
X0257098Y0079784D01*
X0257247Y0079711D01*
X0257395Y0079634D01*
X0257540Y0079554D01*
X0257684Y0079470D01*
X0257826Y0079383D01*
X0257965Y0079293D01*
X0258102Y0079199D01*
X0258237Y0079101D01*
X0258369Y0079000D01*
X0258499Y0078897D01*
X0258626Y0078790D01*
X0258750Y0078679D01*
X0258872Y0078566D01*
X0258991Y0078450D01*
X0259107Y0078331D01*
X0259220Y0078209D01*
X0259331Y0078085D01*
X0259438Y0077958D01*
X0259541Y0077828D01*
X0259642Y0077696D01*
X0259740Y0077561D01*
X0259834Y0077424D01*
X0259924Y0077285D01*
X0260011Y0077143D01*
X0260095Y0076999D01*
X0260175Y0076854D01*
X0260252Y0076706D01*
X0260325Y0076557D01*
X0260394Y0076406D01*
X0260459Y0076253D01*
X0260521Y0076099D01*
X0260579Y0075943D01*
X0260633Y0075786D01*
X0260683Y0075627D01*
X0260730Y0075467D01*
X0260772Y0075307D01*
X0260810Y0075145D01*
X0260845Y0074982D01*
X0260875Y0074819D01*
X0260902Y0074655D01*
X0260924Y0074490D01*
X0260942Y0074325D01*
X0260957Y0074159D01*
X0260967Y0073993D01*
X0260973Y0073827D01*
X0260975Y0073661D01*
X0260973Y0073495D01*
X0260967Y0073329D01*
X0260957Y0073163D01*
X0260942Y0072997D01*
X0260924Y0072832D01*
X0260902Y0072667D01*
X0260875Y0072503D01*
X0260845Y0072340D01*
X0260810Y0072177D01*
X0260772Y0072015D01*
X0260730Y0071855D01*
X0260683Y0071695D01*
X0260633Y0071536D01*
X0260579Y0071379D01*
X0260521Y0071223D01*
X0260459Y0071069D01*
X0260394Y0070916D01*
X0260325Y0070765D01*
X0260252Y0070616D01*
X0260175Y0070468D01*
X0260095Y0070323D01*
X0260011Y0070179D01*
X0259924Y0070037D01*
X0259834Y0069898D01*
X0259740Y0069761D01*
X0259642Y0069626D01*
X0259541Y0069494D01*
X0259438Y0069364D01*
X0259331Y0069237D01*
X0259220Y0069113D01*
X0259107Y0068991D01*
X0258991Y0068872D01*
X0258872Y0068756D01*
X0258750Y0068643D01*
X0258626Y0068532D01*
X0258499Y0068425D01*
X0258369Y0068322D01*
X0258237Y0068221D01*
X0258102Y0068123D01*
X0257965Y0068029D01*
X0257826Y0067939D01*
X0257684Y0067852D01*
X0257540Y0067768D01*
X0257395Y0067688D01*
X0257247Y0067611D01*
X0257098Y0067538D01*
X0256947Y0067469D01*
X0256794Y0067404D01*
X0256640Y0067342D01*
X0256484Y0067284D01*
X0256327Y0067230D01*
X0256168Y0067180D01*
X0256008Y0067133D01*
X0255848Y0067091D01*
X0255686Y0067053D01*
X0255523Y0067018D01*
X0255360Y0066988D01*
X0255196Y0066961D01*
X0255031Y0066939D01*
X0254866Y0066921D01*
X0254700Y0066906D01*
X0254534Y0066896D01*
X0254368Y0066890D01*
X0254202Y0066888D01*
X0254036Y0066890D01*
X0253870Y0066896D01*
X0253704Y0066906D01*
X0253538Y0066921D01*
X0253373Y0066939D01*
X0253208Y0066961D01*
X0253044Y0066988D01*
X0252881Y0067018D01*
X0252718Y0067053D01*
X0252556Y0067091D01*
X0252396Y0067133D01*
X0252236Y0067180D01*
X0252077Y0067230D01*
X0251920Y0067284D01*
X0251764Y0067342D01*
X0251610Y0067404D01*
X0251457Y0067469D01*
X0251306Y0067538D01*
X0251157Y0067611D01*
X0251009Y0067688D01*
X0250864Y0067768D01*
X0250720Y0067852D01*
X0250578Y0067939D01*
X0250439Y0068029D01*
X0250302Y0068123D01*
X0250167Y0068221D01*
X0250035Y0068322D01*
X0249905Y0068425D01*
X0249778Y0068532D01*
X0249654Y0068643D01*
X0249532Y0068756D01*
X0249413Y0068872D01*
X0249297Y0068991D01*
X0249184Y0069113D01*
X0249073Y0069237D01*
X0248966Y0069364D01*
X0248863Y0069494D01*
X0248762Y0069626D01*
X0248664Y0069761D01*
X0248570Y0069898D01*
X0248480Y0070037D01*
X0248393Y0070179D01*
X0248309Y0070323D01*
X0248229Y0070468D01*
X0248152Y0070616D01*
X0248079Y0070765D01*
X0248010Y0070916D01*
X0247945Y0071069D01*
X0247883Y0071223D01*
X0247825Y0071379D01*
X0247771Y0071536D01*
X0247721Y0071695D01*
X0247674Y0071855D01*
X0247632Y0072015D01*
X0247594Y0072177D01*
X0247559Y0072340D01*
X0247529Y0072503D01*
X0247502Y0072667D01*
X0247480Y0072832D01*
X0247462Y0072997D01*
X0247447Y0073163D01*
X0247437Y0073329D01*
X0247431Y0073495D01*
X0247429Y0073661D01*
D12*
X0268099Y0074168D02*
X0271002Y0074168D01*
X0271002Y0076103D01*
X0269550Y0077115D02*
X0269550Y0079050D01*
X0268099Y0078566D02*
X0269550Y0077115D01*
X0271002Y0078566D02*
X0268099Y0078566D01*
X0211946Y0087357D02*
X0211946Y0089292D01*
X0211463Y0090304D02*
X0211946Y0090788D01*
X0211946Y0091755D01*
X0211463Y0092239D01*
X0210979Y0092239D01*
X0210495Y0091755D01*
X0210495Y0091271D01*
X0210495Y0091755D02*
X0210011Y0092239D01*
X0209528Y0092239D01*
X0209044Y0091755D01*
X0209044Y0090788D01*
X0209528Y0090304D01*
X0209044Y0087357D02*
X0211946Y0087357D01*
X0168639Y0087745D02*
X0166704Y0089680D01*
X0166221Y0089680D01*
X0165737Y0089196D01*
X0165737Y0088229D01*
X0166221Y0087745D01*
X0168639Y0087745D02*
X0168639Y0089680D01*
X0168639Y0086733D02*
X0168639Y0084798D01*
X0165737Y0084798D01*
X0121395Y0085186D02*
X0121395Y0087121D01*
X0121395Y0086153D02*
X0118493Y0086153D01*
X0119460Y0085186D01*
X0121395Y0084174D02*
X0121395Y0082239D01*
X0118493Y0082239D01*
X0199713Y0023853D02*
X0201565Y0023853D01*
X0202182Y0023236D01*
X0202182Y0022002D01*
X0201565Y0021384D01*
X0199713Y0021384D01*
X0199713Y0020150D02*
X0199713Y0023853D01*
X0200948Y0021384D02*
X0202182Y0020150D01*
X0203397Y0020767D02*
X0204014Y0020150D01*
X0205248Y0020150D01*
X0205865Y0020767D01*
X0205865Y0021384D01*
X0205248Y0022002D01*
X0204014Y0022002D01*
X0203397Y0022619D01*
X0203397Y0023236D01*
X0204014Y0023853D01*
X0205248Y0023853D01*
X0205865Y0023236D01*
X0207080Y0023853D02*
X0209548Y0023853D01*
X0208314Y0023853D02*
X0208314Y0020150D01*
X0213573Y0020767D02*
X0214190Y0020150D01*
X0215425Y0020150D01*
X0216042Y0020767D01*
X0216042Y0021384D01*
X0215425Y0022002D01*
X0214808Y0022002D01*
X0215425Y0022002D02*
X0216042Y0022619D01*
X0216042Y0023236D01*
X0215425Y0023853D01*
X0214190Y0023853D01*
X0213573Y0023236D01*
X0217256Y0022619D02*
X0218491Y0020150D01*
X0219725Y0022619D01*
X0224573Y0022002D02*
X0225808Y0022619D01*
X0226425Y0022619D01*
X0227042Y0022002D01*
X0227042Y0020767D01*
X0226425Y0020150D01*
X0225190Y0020150D01*
X0224573Y0020767D01*
X0224573Y0022002D02*
X0224573Y0023853D01*
X0227042Y0023853D01*
X0228256Y0022619D02*
X0229491Y0020150D01*
X0230725Y0022619D01*
X0237293Y0023236D02*
X0237293Y0020767D01*
X0237910Y0020150D01*
X0239144Y0020150D01*
X0239762Y0020767D01*
X0239762Y0022002D01*
X0238527Y0022002D01*
X0237293Y0023236D02*
X0237910Y0023853D01*
X0239144Y0023853D01*
X0239762Y0023236D01*
X0240976Y0022619D02*
X0242828Y0022619D01*
X0243445Y0022002D01*
X0243445Y0020150D01*
X0244659Y0020767D02*
X0244659Y0022002D01*
X0245276Y0022619D01*
X0247128Y0022619D01*
X0247128Y0023853D02*
X0247128Y0020150D01*
X0245276Y0020150D01*
X0244659Y0020767D01*
X0240976Y0020150D02*
X0240976Y0022619D01*
X0253073Y0023853D02*
X0253073Y0021384D01*
X0254308Y0020150D01*
X0255542Y0021384D01*
X0255542Y0023853D01*
X0256756Y0022619D02*
X0257374Y0022619D01*
X0257374Y0020150D01*
X0257991Y0020150D02*
X0256756Y0020150D01*
X0259212Y0020150D02*
X0259212Y0022619D01*
X0261063Y0022619D01*
X0261681Y0022002D01*
X0261681Y0020150D01*
X0257374Y0023853D02*
X0257374Y0024470D01*
X0275253Y0023236D02*
X0275253Y0020767D01*
X0277722Y0023236D01*
X0277722Y0020767D01*
X0277105Y0020150D01*
X0275870Y0020150D01*
X0275253Y0020767D01*
X0275253Y0023236D02*
X0275870Y0023853D01*
X0277105Y0023853D01*
X0277722Y0023236D01*
X0285253Y0022619D02*
X0286488Y0023853D01*
X0286488Y0020150D01*
X0287722Y0020150D02*
X0285253Y0020150D01*
X0295253Y0020150D02*
X0297722Y0022619D01*
X0297722Y0023236D01*
X0297105Y0023853D01*
X0295870Y0023853D01*
X0295253Y0023236D01*
X0295253Y0020150D02*
X0297722Y0020150D01*
X0305253Y0020767D02*
X0305870Y0020150D01*
X0307105Y0020150D01*
X0307722Y0020767D01*
X0307722Y0021384D01*
X0307105Y0022002D01*
X0306488Y0022002D01*
X0307105Y0022002D02*
X0307722Y0022619D01*
X0307722Y0023236D01*
X0307105Y0023853D01*
X0305870Y0023853D01*
X0305253Y0023236D01*
X0315253Y0022002D02*
X0317722Y0022002D01*
X0317105Y0023853D02*
X0315253Y0022002D01*
X0317105Y0023853D02*
X0317105Y0020150D01*
X0325253Y0020767D02*
X0325870Y0020150D01*
X0327105Y0020150D01*
X0327722Y0020767D01*
X0327722Y0022002D01*
X0327105Y0022619D01*
X0326488Y0022619D01*
X0325253Y0022002D01*
X0325253Y0023853D01*
X0327722Y0023853D01*
X0318654Y0009439D02*
X0316803Y0009439D01*
X0316803Y0006970D01*
X0315582Y0006970D02*
X0314347Y0006970D01*
X0314964Y0006970D02*
X0314964Y0010673D01*
X0314347Y0010673D02*
X0315582Y0010673D01*
X0318654Y0009439D02*
X0319271Y0008822D01*
X0319271Y0006970D01*
X0309450Y0006970D02*
X0307598Y0006970D01*
X0306981Y0007587D01*
X0306981Y0008822D01*
X0307598Y0009439D01*
X0309450Y0009439D01*
X0309450Y0006353D01*
X0308832Y0005736D01*
X0308215Y0005736D01*
X0305767Y0007587D02*
X0305767Y0008822D01*
X0305149Y0009439D01*
X0303915Y0009439D01*
X0303298Y0008822D01*
X0303298Y0007587D01*
X0303915Y0006970D01*
X0305149Y0006970D01*
X0305767Y0007587D01*
X0302077Y0006970D02*
X0300842Y0006970D01*
X0301460Y0006970D02*
X0301460Y0010673D01*
X0300842Y0010673D01*
X0299011Y0009439D02*
X0299628Y0008822D01*
X0299628Y0006970D01*
X0297776Y0006970D01*
X0297159Y0007587D01*
X0297776Y0008204D01*
X0299628Y0008204D01*
X0299011Y0009439D02*
X0297776Y0009439D01*
X0295945Y0008822D02*
X0295945Y0006970D01*
X0295945Y0008822D02*
X0295328Y0009439D01*
X0293476Y0009439D01*
X0293476Y0006970D01*
X0292262Y0006970D02*
X0292262Y0009439D01*
X0291027Y0010673D01*
X0289793Y0009439D01*
X0289793Y0006970D01*
X0289793Y0008822D02*
X0292262Y0008822D01*
X0345257Y0062066D02*
X0345874Y0061449D01*
X0347109Y0061449D01*
X0347726Y0062066D01*
X0348940Y0063301D02*
X0351409Y0063301D01*
X0350792Y0065152D02*
X0350792Y0061449D01*
X0348940Y0063301D02*
X0350792Y0065152D01*
X0347726Y0064535D02*
X0347109Y0065152D01*
X0345874Y0065152D01*
X0345257Y0064535D01*
X0345257Y0062066D01*
X0279926Y0163811D02*
X0278691Y0163811D01*
X0278074Y0164429D01*
X0276860Y0164429D02*
X0276243Y0163811D01*
X0275008Y0163811D01*
X0274391Y0164429D01*
X0274391Y0166897D01*
X0275008Y0167515D01*
X0276243Y0167515D01*
X0276860Y0166897D01*
X0278074Y0167515D02*
X0278074Y0165663D01*
X0279308Y0166280D01*
X0279926Y0166280D01*
X0280543Y0165663D01*
X0280543Y0164429D01*
X0279926Y0163811D01*
X0280543Y0167515D02*
X0278074Y0167515D01*
X0277422Y0196150D02*
X0276187Y0196150D01*
X0275570Y0196767D01*
X0275570Y0198002D02*
X0276804Y0198619D01*
X0277422Y0198619D01*
X0278039Y0198002D01*
X0278039Y0196767D01*
X0277422Y0196150D01*
X0275570Y0198002D02*
X0275570Y0199853D01*
X0278039Y0199853D01*
X0285570Y0198002D02*
X0288039Y0198002D01*
X0287422Y0199853D02*
X0287422Y0196150D01*
X0285570Y0198002D02*
X0287422Y0199853D01*
X0295570Y0199236D02*
X0296187Y0199853D01*
X0297422Y0199853D01*
X0298039Y0199236D01*
X0298039Y0198619D01*
X0297422Y0198002D01*
X0298039Y0197384D01*
X0298039Y0196767D01*
X0297422Y0196150D01*
X0296187Y0196150D01*
X0295570Y0196767D01*
X0296804Y0198002D02*
X0297422Y0198002D01*
X0305570Y0199236D02*
X0306187Y0199853D01*
X0307422Y0199853D01*
X0308039Y0199236D01*
X0308039Y0198619D01*
X0305570Y0196150D01*
X0308039Y0196150D01*
X0315570Y0196150D02*
X0318039Y0196150D01*
X0316804Y0196150D02*
X0316804Y0199853D01*
X0315570Y0198619D01*
X0325570Y0199236D02*
X0325570Y0196767D01*
X0328039Y0199236D01*
X0328039Y0196767D01*
X0327422Y0196150D01*
X0326187Y0196150D01*
X0325570Y0196767D01*
X0325570Y0199236D02*
X0326187Y0199853D01*
X0327422Y0199853D01*
X0328039Y0199236D01*
X0310415Y0210767D02*
X0309798Y0210150D01*
X0308563Y0210150D01*
X0307946Y0210767D01*
X0307946Y0213236D01*
X0308563Y0213853D01*
X0309798Y0213853D01*
X0310415Y0213236D01*
X0310415Y0210767D01*
X0306732Y0213853D02*
X0304263Y0210150D01*
X0303042Y0210150D02*
X0301807Y0210150D01*
X0302425Y0210150D02*
X0302425Y0213853D01*
X0303042Y0213853D02*
X0301807Y0213853D01*
X0296286Y0213853D02*
X0296286Y0210150D01*
X0295669Y0210150D02*
X0296903Y0210150D01*
X0294454Y0210150D02*
X0292603Y0210150D01*
X0291986Y0210767D01*
X0292603Y0211384D01*
X0294454Y0211384D01*
X0294454Y0212002D02*
X0294454Y0210150D01*
X0294454Y0212002D02*
X0293837Y0212619D01*
X0292603Y0212619D01*
X0290765Y0212619D02*
X0289530Y0212619D01*
X0290147Y0213236D02*
X0290147Y0210767D01*
X0290765Y0210150D01*
X0288309Y0210150D02*
X0287075Y0210150D01*
X0287692Y0210150D02*
X0287692Y0212619D01*
X0287075Y0212619D01*
X0285860Y0212619D02*
X0285860Y0209533D01*
X0285243Y0208916D01*
X0284626Y0208916D01*
X0284009Y0210150D02*
X0285860Y0210150D01*
X0284009Y0210150D02*
X0283392Y0210767D01*
X0283392Y0212002D01*
X0284009Y0212619D01*
X0285860Y0212619D01*
X0287692Y0213853D02*
X0287692Y0214470D01*
X0281553Y0214470D02*
X0281553Y0213853D01*
X0281553Y0212619D02*
X0281553Y0210150D01*
X0280936Y0210150D02*
X0282171Y0210150D01*
X0279722Y0210767D02*
X0279722Y0213236D01*
X0279105Y0213853D01*
X0277253Y0213853D01*
X0277253Y0210150D01*
X0279105Y0210150D01*
X0279722Y0210767D01*
X0280936Y0212619D02*
X0281553Y0212619D01*
X0295669Y0213853D02*
X0296286Y0213853D01*
X0268039Y0199853D02*
X0266804Y0199236D01*
X0265570Y0198002D01*
X0267422Y0198002D01*
X0268039Y0197384D01*
X0268039Y0196767D01*
X0267422Y0196150D01*
X0266187Y0196150D01*
X0265570Y0196767D01*
X0265570Y0198002D01*
X0258039Y0199236D02*
X0255570Y0196767D01*
X0255570Y0196150D01*
X0258039Y0199236D02*
X0258039Y0199853D01*
X0255570Y0199853D01*
X0242039Y0199236D02*
X0242039Y0198619D01*
X0241422Y0198002D01*
X0240187Y0198002D01*
X0239570Y0198619D01*
X0239570Y0199236D01*
X0240187Y0199853D01*
X0241422Y0199853D01*
X0242039Y0199236D01*
X0241422Y0198002D02*
X0242039Y0197384D01*
X0242039Y0196767D01*
X0241422Y0196150D01*
X0240187Y0196150D01*
X0239570Y0196767D01*
X0239570Y0197384D01*
X0240187Y0198002D01*
X0232039Y0198002D02*
X0230187Y0198002D01*
X0229570Y0198619D01*
X0229570Y0199236D01*
X0230187Y0199853D01*
X0231422Y0199853D01*
X0232039Y0199236D01*
X0232039Y0196767D01*
X0231422Y0196150D01*
X0230187Y0196150D01*
X0229570Y0196767D01*
X0224039Y0196767D02*
X0224039Y0199236D01*
X0221570Y0196767D01*
X0222187Y0196150D01*
X0223422Y0196150D01*
X0224039Y0196767D01*
X0224039Y0199236D02*
X0223422Y0199853D01*
X0222187Y0199853D01*
X0221570Y0199236D01*
X0221570Y0196767D01*
X0220356Y0196150D02*
X0217887Y0196150D01*
X0219121Y0196150D02*
X0219121Y0199853D01*
X0217887Y0198619D01*
X0214039Y0196150D02*
X0211570Y0196150D01*
X0210356Y0196150D02*
X0207887Y0196150D01*
X0209121Y0196150D02*
X0209121Y0199853D01*
X0207887Y0198619D01*
X0211570Y0198619D02*
X0212804Y0199853D01*
X0212804Y0196150D01*
X0204039Y0196150D02*
X0201570Y0196150D01*
X0204039Y0198619D01*
X0204039Y0199236D01*
X0203422Y0199853D01*
X0202187Y0199853D01*
X0201570Y0199236D01*
X0199121Y0199853D02*
X0199121Y0196150D01*
X0197887Y0196150D02*
X0200356Y0196150D01*
X0197887Y0198619D02*
X0199121Y0199853D01*
X0194039Y0199236D02*
X0194039Y0198619D01*
X0193422Y0198002D01*
X0194039Y0197384D01*
X0194039Y0196767D01*
X0193422Y0196150D01*
X0192187Y0196150D01*
X0191570Y0196767D01*
X0190356Y0196150D02*
X0187887Y0196150D01*
X0189121Y0196150D02*
X0189121Y0199853D01*
X0187887Y0198619D01*
X0185539Y0198619D02*
X0183687Y0198619D01*
X0183070Y0198002D01*
X0183070Y0196767D01*
X0183687Y0196150D01*
X0185539Y0196150D01*
X0185539Y0199853D01*
X0181856Y0198002D02*
X0181856Y0196150D01*
X0181856Y0198002D02*
X0181238Y0198619D01*
X0179387Y0198619D01*
X0179387Y0196150D01*
X0178172Y0196150D02*
X0176321Y0196150D01*
X0175704Y0196767D01*
X0175704Y0198002D01*
X0176321Y0198619D01*
X0178172Y0198619D01*
X0178172Y0195533D01*
X0177555Y0194916D01*
X0176938Y0194916D01*
X0172415Y0196150D02*
X0172415Y0199236D01*
X0173032Y0199853D01*
X0173032Y0198002D02*
X0171798Y0198002D01*
X0170583Y0198002D02*
X0170583Y0197384D01*
X0168115Y0197384D01*
X0168115Y0196767D02*
X0168115Y0198002D01*
X0168732Y0198619D01*
X0169966Y0198619D01*
X0170583Y0198002D01*
X0169966Y0196150D02*
X0168732Y0196150D01*
X0168115Y0196767D01*
X0166900Y0196150D02*
X0165666Y0197384D01*
X0166283Y0197384D02*
X0164431Y0197384D01*
X0164431Y0196150D02*
X0164431Y0199853D01*
X0166283Y0199853D01*
X0166900Y0199236D01*
X0166900Y0198002D01*
X0166283Y0197384D01*
X0163217Y0198002D02*
X0160748Y0198002D01*
X0160748Y0198619D02*
X0161983Y0199853D01*
X0163217Y0198619D01*
X0163217Y0196150D01*
X0160748Y0196150D02*
X0160748Y0198619D01*
X0191570Y0199236D02*
X0192187Y0199853D01*
X0193422Y0199853D01*
X0194039Y0199236D01*
X0193422Y0198002D02*
X0192804Y0198002D01*
X0201253Y0210150D02*
X0203105Y0210150D01*
X0203722Y0210767D01*
X0203722Y0213236D01*
X0203105Y0213853D01*
X0201253Y0213853D01*
X0201253Y0210150D01*
X0204936Y0210150D02*
X0206171Y0210150D01*
X0205553Y0210150D02*
X0205553Y0212619D01*
X0204936Y0212619D01*
X0205553Y0213853D02*
X0205553Y0214470D01*
X0208009Y0212619D02*
X0207392Y0212002D01*
X0207392Y0210767D01*
X0208009Y0210150D01*
X0209860Y0210150D01*
X0209860Y0209533D02*
X0209860Y0212619D01*
X0208009Y0212619D01*
X0211075Y0212619D02*
X0211692Y0212619D01*
X0211692Y0210150D01*
X0211075Y0210150D02*
X0212309Y0210150D01*
X0214147Y0210767D02*
X0214765Y0210150D01*
X0214147Y0210767D02*
X0214147Y0213236D01*
X0213530Y0212619D02*
X0214765Y0212619D01*
X0216603Y0212619D02*
X0217837Y0212619D01*
X0218454Y0212002D01*
X0218454Y0210150D01*
X0216603Y0210150D01*
X0215986Y0210767D01*
X0216603Y0211384D01*
X0218454Y0211384D01*
X0219669Y0210150D02*
X0220903Y0210150D01*
X0220286Y0210150D02*
X0220286Y0213853D01*
X0219669Y0213853D01*
X0225807Y0213853D02*
X0227042Y0213853D01*
X0226425Y0213853D02*
X0226425Y0210150D01*
X0227042Y0210150D02*
X0225807Y0210150D01*
X0228263Y0210150D02*
X0230732Y0213853D01*
X0231946Y0213236D02*
X0231946Y0210767D01*
X0232563Y0210150D01*
X0233798Y0210150D01*
X0234415Y0210767D01*
X0234415Y0213236D01*
X0233798Y0213853D01*
X0232563Y0213853D01*
X0231946Y0213236D01*
X0211692Y0213853D02*
X0211692Y0214470D01*
X0209860Y0209533D02*
X0209243Y0208916D01*
X0208626Y0208916D01*
D13*
X0155613Y0163641D02*
X0155613Y0159237D01*
X0154145Y0159237D02*
X0157081Y0159237D01*
X0156524Y0156969D02*
X0154162Y0156969D01*
X0151743Y0159237D02*
X0150275Y0159237D01*
X0149541Y0159971D01*
X0149541Y0162907D01*
X0150275Y0163641D01*
X0151743Y0163641D01*
X0152477Y0162907D01*
X0154145Y0162173D02*
X0155613Y0163641D01*
X0152477Y0159971D02*
X0151743Y0159237D01*
X0154162Y0152244D02*
X0156524Y0152244D01*
X0139865Y0136082D02*
X0139865Y0131678D01*
X0138397Y0131678D02*
X0141333Y0131678D01*
X0138397Y0134614D02*
X0139865Y0136082D01*
X0136729Y0135348D02*
X0136729Y0133880D01*
X0135995Y0133146D01*
X0133793Y0133146D01*
X0135261Y0133146D02*
X0136729Y0131678D01*
X0133793Y0131678D02*
X0133793Y0136082D01*
X0135995Y0136082D01*
X0136729Y0135348D01*
X0138414Y0129409D02*
X0140776Y0129409D01*
X0140776Y0124685D02*
X0138414Y0124685D01*
X0117711Y0128475D02*
X0116977Y0127741D01*
X0115509Y0127741D01*
X0114775Y0128475D01*
X0113107Y0128475D02*
X0112373Y0127741D01*
X0110905Y0127741D01*
X0110171Y0128475D01*
X0110171Y0131411D01*
X0110905Y0132145D01*
X0112373Y0132145D01*
X0113107Y0131411D01*
X0114775Y0131411D02*
X0115509Y0132145D01*
X0116977Y0132145D01*
X0117711Y0131411D01*
X0117711Y0130677D01*
X0116977Y0129943D01*
X0117711Y0129209D01*
X0117711Y0128475D01*
X0116977Y0129943D02*
X0116243Y0129943D01*
X0117154Y0125472D02*
X0114792Y0125472D01*
X0114792Y0120748D02*
X0117154Y0120748D01*
X0090152Y0123804D02*
X0087216Y0123804D01*
X0090152Y0126740D01*
X0090152Y0127474D01*
X0089418Y0128208D01*
X0087950Y0128208D01*
X0087216Y0127474D01*
X0085548Y0127474D02*
X0084814Y0128208D01*
X0083346Y0128208D01*
X0082612Y0127474D01*
X0082612Y0124538D01*
X0083346Y0123804D01*
X0084814Y0123804D01*
X0085548Y0124538D01*
X0087233Y0121535D02*
X0089595Y0121535D01*
X0089595Y0116811D02*
X0087233Y0116811D01*
X0026820Y0125851D02*
X0022550Y0125851D01*
X0024685Y0125851D02*
X0024685Y0132257D01*
X0022550Y0130121D01*
X0020375Y0129054D02*
X0020375Y0131189D01*
X0019307Y0132257D01*
X0016105Y0132257D01*
X0016105Y0125851D01*
X0016105Y0127986D02*
X0019307Y0127986D01*
X0020375Y0129054D01*
X0013929Y0132257D02*
X0011794Y0132257D01*
X0012862Y0132257D02*
X0012862Y0126919D01*
X0011794Y0125851D01*
X0010727Y0125851D01*
X0009659Y0126919D01*
D14*
X0026209Y0095551D02*
X0026211Y0095663D01*
X0026217Y0095774D01*
X0026227Y0095886D01*
X0026241Y0095997D01*
X0026258Y0096107D01*
X0026280Y0096217D01*
X0026306Y0096326D01*
X0026335Y0096434D01*
X0026368Y0096540D01*
X0026405Y0096646D01*
X0026446Y0096750D01*
X0026491Y0096853D01*
X0026539Y0096954D01*
X0026590Y0097053D01*
X0026645Y0097150D01*
X0026704Y0097245D01*
X0026765Y0097339D01*
X0026830Y0097430D01*
X0026899Y0097518D01*
X0026970Y0097604D01*
X0027044Y0097688D01*
X0027122Y0097768D01*
X0027202Y0097846D01*
X0027285Y0097922D01*
X0027370Y0097994D01*
X0027458Y0098063D01*
X0027548Y0098129D01*
X0027641Y0098191D01*
X0027736Y0098251D01*
X0027833Y0098307D01*
X0027931Y0098359D01*
X0028032Y0098408D01*
X0028134Y0098453D01*
X0028238Y0098495D01*
X0028343Y0098533D01*
X0028450Y0098567D01*
X0028557Y0098597D01*
X0028666Y0098624D01*
X0028775Y0098646D01*
X0028886Y0098665D01*
X0028996Y0098680D01*
X0029108Y0098691D01*
X0029219Y0098698D01*
X0029331Y0098701D01*
X0029443Y0098700D01*
X0029555Y0098695D01*
X0029666Y0098686D01*
X0029777Y0098673D01*
X0029888Y0098656D01*
X0029998Y0098636D01*
X0030107Y0098611D01*
X0030215Y0098583D01*
X0030322Y0098550D01*
X0030428Y0098514D01*
X0030532Y0098474D01*
X0030635Y0098431D01*
X0030737Y0098384D01*
X0030836Y0098333D01*
X0030934Y0098279D01*
X0031030Y0098221D01*
X0031124Y0098160D01*
X0031215Y0098096D01*
X0031304Y0098029D01*
X0031391Y0097958D01*
X0031475Y0097884D01*
X0031557Y0097808D01*
X0031635Y0097728D01*
X0031711Y0097646D01*
X0031784Y0097561D01*
X0031854Y0097474D01*
X0031920Y0097384D01*
X0031984Y0097292D01*
X0032044Y0097198D01*
X0032101Y0097102D01*
X0032154Y0097003D01*
X0032204Y0096903D01*
X0032250Y0096802D01*
X0032293Y0096698D01*
X0032332Y0096593D01*
X0032367Y0096487D01*
X0032398Y0096380D01*
X0032426Y0096271D01*
X0032449Y0096162D01*
X0032469Y0096052D01*
X0032485Y0095941D01*
X0032497Y0095830D01*
X0032505Y0095719D01*
X0032509Y0095607D01*
X0032509Y0095495D01*
X0032505Y0095383D01*
X0032497Y0095272D01*
X0032485Y0095161D01*
X0032469Y0095050D01*
X0032449Y0094940D01*
X0032426Y0094831D01*
X0032398Y0094722D01*
X0032367Y0094615D01*
X0032332Y0094509D01*
X0032293Y0094404D01*
X0032250Y0094300D01*
X0032204Y0094199D01*
X0032154Y0094099D01*
X0032101Y0094000D01*
X0032044Y0093904D01*
X0031984Y0093810D01*
X0031920Y0093718D01*
X0031854Y0093628D01*
X0031784Y0093541D01*
X0031711Y0093456D01*
X0031635Y0093374D01*
X0031557Y0093294D01*
X0031475Y0093218D01*
X0031391Y0093144D01*
X0031304Y0093073D01*
X0031215Y0093006D01*
X0031124Y0092942D01*
X0031030Y0092881D01*
X0030934Y0092823D01*
X0030836Y0092769D01*
X0030737Y0092718D01*
X0030635Y0092671D01*
X0030532Y0092628D01*
X0030428Y0092588D01*
X0030322Y0092552D01*
X0030215Y0092519D01*
X0030107Y0092491D01*
X0029998Y0092466D01*
X0029888Y0092446D01*
X0029777Y0092429D01*
X0029666Y0092416D01*
X0029555Y0092407D01*
X0029443Y0092402D01*
X0029331Y0092401D01*
X0029219Y0092404D01*
X0029108Y0092411D01*
X0028996Y0092422D01*
X0028886Y0092437D01*
X0028775Y0092456D01*
X0028666Y0092478D01*
X0028557Y0092505D01*
X0028450Y0092535D01*
X0028343Y0092569D01*
X0028238Y0092607D01*
X0028134Y0092649D01*
X0028032Y0092694D01*
X0027931Y0092743D01*
X0027833Y0092795D01*
X0027736Y0092851D01*
X0027641Y0092911D01*
X0027548Y0092973D01*
X0027458Y0093039D01*
X0027370Y0093108D01*
X0027285Y0093180D01*
X0027202Y0093256D01*
X0027122Y0093334D01*
X0027044Y0093414D01*
X0026970Y0093498D01*
X0026899Y0093584D01*
X0026830Y0093672D01*
X0026765Y0093763D01*
X0026704Y0093857D01*
X0026645Y0093952D01*
X0026590Y0094049D01*
X0026539Y0094148D01*
X0026491Y0094249D01*
X0026446Y0094352D01*
X0026405Y0094456D01*
X0026368Y0094562D01*
X0026335Y0094668D01*
X0026306Y0094776D01*
X0026280Y0094885D01*
X0026258Y0094995D01*
X0026241Y0095105D01*
X0026227Y0095216D01*
X0026217Y0095328D01*
X0026211Y0095439D01*
X0026209Y0095551D01*
X0046209Y0095551D02*
X0046211Y0095663D01*
X0046217Y0095774D01*
X0046227Y0095886D01*
X0046241Y0095997D01*
X0046258Y0096107D01*
X0046280Y0096217D01*
X0046306Y0096326D01*
X0046335Y0096434D01*
X0046368Y0096540D01*
X0046405Y0096646D01*
X0046446Y0096750D01*
X0046491Y0096853D01*
X0046539Y0096954D01*
X0046590Y0097053D01*
X0046645Y0097150D01*
X0046704Y0097245D01*
X0046765Y0097339D01*
X0046830Y0097430D01*
X0046899Y0097518D01*
X0046970Y0097604D01*
X0047044Y0097688D01*
X0047122Y0097768D01*
X0047202Y0097846D01*
X0047285Y0097922D01*
X0047370Y0097994D01*
X0047458Y0098063D01*
X0047548Y0098129D01*
X0047641Y0098191D01*
X0047736Y0098251D01*
X0047833Y0098307D01*
X0047931Y0098359D01*
X0048032Y0098408D01*
X0048134Y0098453D01*
X0048238Y0098495D01*
X0048343Y0098533D01*
X0048450Y0098567D01*
X0048557Y0098597D01*
X0048666Y0098624D01*
X0048775Y0098646D01*
X0048886Y0098665D01*
X0048996Y0098680D01*
X0049108Y0098691D01*
X0049219Y0098698D01*
X0049331Y0098701D01*
X0049443Y0098700D01*
X0049555Y0098695D01*
X0049666Y0098686D01*
X0049777Y0098673D01*
X0049888Y0098656D01*
X0049998Y0098636D01*
X0050107Y0098611D01*
X0050215Y0098583D01*
X0050322Y0098550D01*
X0050428Y0098514D01*
X0050532Y0098474D01*
X0050635Y0098431D01*
X0050737Y0098384D01*
X0050836Y0098333D01*
X0050934Y0098279D01*
X0051030Y0098221D01*
X0051124Y0098160D01*
X0051215Y0098096D01*
X0051304Y0098029D01*
X0051391Y0097958D01*
X0051475Y0097884D01*
X0051557Y0097808D01*
X0051635Y0097728D01*
X0051711Y0097646D01*
X0051784Y0097561D01*
X0051854Y0097474D01*
X0051920Y0097384D01*
X0051984Y0097292D01*
X0052044Y0097198D01*
X0052101Y0097102D01*
X0052154Y0097003D01*
X0052204Y0096903D01*
X0052250Y0096802D01*
X0052293Y0096698D01*
X0052332Y0096593D01*
X0052367Y0096487D01*
X0052398Y0096380D01*
X0052426Y0096271D01*
X0052449Y0096162D01*
X0052469Y0096052D01*
X0052485Y0095941D01*
X0052497Y0095830D01*
X0052505Y0095719D01*
X0052509Y0095607D01*
X0052509Y0095495D01*
X0052505Y0095383D01*
X0052497Y0095272D01*
X0052485Y0095161D01*
X0052469Y0095050D01*
X0052449Y0094940D01*
X0052426Y0094831D01*
X0052398Y0094722D01*
X0052367Y0094615D01*
X0052332Y0094509D01*
X0052293Y0094404D01*
X0052250Y0094300D01*
X0052204Y0094199D01*
X0052154Y0094099D01*
X0052101Y0094000D01*
X0052044Y0093904D01*
X0051984Y0093810D01*
X0051920Y0093718D01*
X0051854Y0093628D01*
X0051784Y0093541D01*
X0051711Y0093456D01*
X0051635Y0093374D01*
X0051557Y0093294D01*
X0051475Y0093218D01*
X0051391Y0093144D01*
X0051304Y0093073D01*
X0051215Y0093006D01*
X0051124Y0092942D01*
X0051030Y0092881D01*
X0050934Y0092823D01*
X0050836Y0092769D01*
X0050737Y0092718D01*
X0050635Y0092671D01*
X0050532Y0092628D01*
X0050428Y0092588D01*
X0050322Y0092552D01*
X0050215Y0092519D01*
X0050107Y0092491D01*
X0049998Y0092466D01*
X0049888Y0092446D01*
X0049777Y0092429D01*
X0049666Y0092416D01*
X0049555Y0092407D01*
X0049443Y0092402D01*
X0049331Y0092401D01*
X0049219Y0092404D01*
X0049108Y0092411D01*
X0048996Y0092422D01*
X0048886Y0092437D01*
X0048775Y0092456D01*
X0048666Y0092478D01*
X0048557Y0092505D01*
X0048450Y0092535D01*
X0048343Y0092569D01*
X0048238Y0092607D01*
X0048134Y0092649D01*
X0048032Y0092694D01*
X0047931Y0092743D01*
X0047833Y0092795D01*
X0047736Y0092851D01*
X0047641Y0092911D01*
X0047548Y0092973D01*
X0047458Y0093039D01*
X0047370Y0093108D01*
X0047285Y0093180D01*
X0047202Y0093256D01*
X0047122Y0093334D01*
X0047044Y0093414D01*
X0046970Y0093498D01*
X0046899Y0093584D01*
X0046830Y0093672D01*
X0046765Y0093763D01*
X0046704Y0093857D01*
X0046645Y0093952D01*
X0046590Y0094049D01*
X0046539Y0094148D01*
X0046491Y0094249D01*
X0046446Y0094352D01*
X0046405Y0094456D01*
X0046368Y0094562D01*
X0046335Y0094668D01*
X0046306Y0094776D01*
X0046280Y0094885D01*
X0046258Y0094995D01*
X0046241Y0095105D01*
X0046227Y0095216D01*
X0046217Y0095328D01*
X0046211Y0095439D01*
X0046209Y0095551D01*
X0125304Y0015000D02*
X0125306Y0015158D01*
X0125312Y0015316D01*
X0125322Y0015474D01*
X0125336Y0015632D01*
X0125354Y0015789D01*
X0125375Y0015946D01*
X0125401Y0016102D01*
X0125431Y0016258D01*
X0125464Y0016413D01*
X0125502Y0016566D01*
X0125543Y0016719D01*
X0125588Y0016871D01*
X0125637Y0017022D01*
X0125690Y0017171D01*
X0125746Y0017319D01*
X0125806Y0017465D01*
X0125870Y0017610D01*
X0125938Y0017753D01*
X0126009Y0017895D01*
X0126083Y0018035D01*
X0126161Y0018172D01*
X0126243Y0018308D01*
X0126327Y0018442D01*
X0126416Y0018573D01*
X0126507Y0018702D01*
X0126602Y0018829D01*
X0126699Y0018954D01*
X0126800Y0019076D01*
X0126904Y0019195D01*
X0127011Y0019312D01*
X0127121Y0019426D01*
X0127234Y0019537D01*
X0127349Y0019646D01*
X0127467Y0019751D01*
X0127588Y0019853D01*
X0127711Y0019953D01*
X0127837Y0020049D01*
X0127965Y0020142D01*
X0128095Y0020232D01*
X0128228Y0020318D01*
X0128363Y0020402D01*
X0128499Y0020481D01*
X0128638Y0020558D01*
X0128779Y0020630D01*
X0128921Y0020700D01*
X0129065Y0020765D01*
X0129211Y0020827D01*
X0129358Y0020885D01*
X0129507Y0020940D01*
X0129657Y0020991D01*
X0129808Y0021038D01*
X0129960Y0021081D01*
X0130113Y0021120D01*
X0130268Y0021156D01*
X0130423Y0021187D01*
X0130579Y0021215D01*
X0130735Y0021239D01*
X0130892Y0021259D01*
X0131050Y0021275D01*
X0131207Y0021287D01*
X0131366Y0021295D01*
X0131524Y0021299D01*
X0131682Y0021299D01*
X0131840Y0021295D01*
X0131999Y0021287D01*
X0132156Y0021275D01*
X0132314Y0021259D01*
X0132471Y0021239D01*
X0132627Y0021215D01*
X0132783Y0021187D01*
X0132938Y0021156D01*
X0133093Y0021120D01*
X0133246Y0021081D01*
X0133398Y0021038D01*
X0133549Y0020991D01*
X0133699Y0020940D01*
X0133848Y0020885D01*
X0133995Y0020827D01*
X0134141Y0020765D01*
X0134285Y0020700D01*
X0134427Y0020630D01*
X0134568Y0020558D01*
X0134707Y0020481D01*
X0134843Y0020402D01*
X0134978Y0020318D01*
X0135111Y0020232D01*
X0135241Y0020142D01*
X0135369Y0020049D01*
X0135495Y0019953D01*
X0135618Y0019853D01*
X0135739Y0019751D01*
X0135857Y0019646D01*
X0135972Y0019537D01*
X0136085Y0019426D01*
X0136195Y0019312D01*
X0136302Y0019195D01*
X0136406Y0019076D01*
X0136507Y0018954D01*
X0136604Y0018829D01*
X0136699Y0018702D01*
X0136790Y0018573D01*
X0136879Y0018442D01*
X0136963Y0018308D01*
X0137045Y0018172D01*
X0137123Y0018035D01*
X0137197Y0017895D01*
X0137268Y0017753D01*
X0137336Y0017610D01*
X0137400Y0017465D01*
X0137460Y0017319D01*
X0137516Y0017171D01*
X0137569Y0017022D01*
X0137618Y0016871D01*
X0137663Y0016719D01*
X0137704Y0016566D01*
X0137742Y0016413D01*
X0137775Y0016258D01*
X0137805Y0016102D01*
X0137831Y0015946D01*
X0137852Y0015789D01*
X0137870Y0015632D01*
X0137884Y0015474D01*
X0137894Y0015316D01*
X0137900Y0015158D01*
X0137902Y0015000D01*
X0137900Y0014842D01*
X0137894Y0014684D01*
X0137884Y0014526D01*
X0137870Y0014368D01*
X0137852Y0014211D01*
X0137831Y0014054D01*
X0137805Y0013898D01*
X0137775Y0013742D01*
X0137742Y0013587D01*
X0137704Y0013434D01*
X0137663Y0013281D01*
X0137618Y0013129D01*
X0137569Y0012978D01*
X0137516Y0012829D01*
X0137460Y0012681D01*
X0137400Y0012535D01*
X0137336Y0012390D01*
X0137268Y0012247D01*
X0137197Y0012105D01*
X0137123Y0011965D01*
X0137045Y0011828D01*
X0136963Y0011692D01*
X0136879Y0011558D01*
X0136790Y0011427D01*
X0136699Y0011298D01*
X0136604Y0011171D01*
X0136507Y0011046D01*
X0136406Y0010924D01*
X0136302Y0010805D01*
X0136195Y0010688D01*
X0136085Y0010574D01*
X0135972Y0010463D01*
X0135857Y0010354D01*
X0135739Y0010249D01*
X0135618Y0010147D01*
X0135495Y0010047D01*
X0135369Y0009951D01*
X0135241Y0009858D01*
X0135111Y0009768D01*
X0134978Y0009682D01*
X0134843Y0009598D01*
X0134707Y0009519D01*
X0134568Y0009442D01*
X0134427Y0009370D01*
X0134285Y0009300D01*
X0134141Y0009235D01*
X0133995Y0009173D01*
X0133848Y0009115D01*
X0133699Y0009060D01*
X0133549Y0009009D01*
X0133398Y0008962D01*
X0133246Y0008919D01*
X0133093Y0008880D01*
X0132938Y0008844D01*
X0132783Y0008813D01*
X0132627Y0008785D01*
X0132471Y0008761D01*
X0132314Y0008741D01*
X0132156Y0008725D01*
X0131999Y0008713D01*
X0131840Y0008705D01*
X0131682Y0008701D01*
X0131524Y0008701D01*
X0131366Y0008705D01*
X0131207Y0008713D01*
X0131050Y0008725D01*
X0130892Y0008741D01*
X0130735Y0008761D01*
X0130579Y0008785D01*
X0130423Y0008813D01*
X0130268Y0008844D01*
X0130113Y0008880D01*
X0129960Y0008919D01*
X0129808Y0008962D01*
X0129657Y0009009D01*
X0129507Y0009060D01*
X0129358Y0009115D01*
X0129211Y0009173D01*
X0129065Y0009235D01*
X0128921Y0009300D01*
X0128779Y0009370D01*
X0128638Y0009442D01*
X0128499Y0009519D01*
X0128363Y0009598D01*
X0128228Y0009682D01*
X0128095Y0009768D01*
X0127965Y0009858D01*
X0127837Y0009951D01*
X0127711Y0010047D01*
X0127588Y0010147D01*
X0127467Y0010249D01*
X0127349Y0010354D01*
X0127234Y0010463D01*
X0127121Y0010574D01*
X0127011Y0010688D01*
X0126904Y0010805D01*
X0126800Y0010924D01*
X0126699Y0011046D01*
X0126602Y0011171D01*
X0126507Y0011298D01*
X0126416Y0011427D01*
X0126327Y0011558D01*
X0126243Y0011692D01*
X0126161Y0011828D01*
X0126083Y0011965D01*
X0126009Y0012105D01*
X0125938Y0012247D01*
X0125870Y0012390D01*
X0125806Y0012535D01*
X0125746Y0012681D01*
X0125690Y0012829D01*
X0125637Y0012978D01*
X0125588Y0013129D01*
X0125543Y0013281D01*
X0125502Y0013434D01*
X0125464Y0013587D01*
X0125431Y0013742D01*
X0125401Y0013898D01*
X0125375Y0014054D01*
X0125354Y0014211D01*
X0125336Y0014368D01*
X0125322Y0014526D01*
X0125312Y0014684D01*
X0125306Y0014842D01*
X0125304Y0015000D01*
X0076603Y0005000D02*
X0076603Y0215000D01*
X0330603Y0215000D01*
X0336603Y0209000D01*
X0336603Y0164000D01*
X0346603Y0154000D01*
X0346603Y0025000D01*
X0336603Y0015000D01*
X0336603Y0005000D01*
X0076603Y0005000D01*
X0330304Y0145000D02*
X0330306Y0145158D01*
X0330312Y0145316D01*
X0330322Y0145474D01*
X0330336Y0145632D01*
X0330354Y0145789D01*
X0330375Y0145946D01*
X0330401Y0146102D01*
X0330431Y0146258D01*
X0330464Y0146413D01*
X0330502Y0146566D01*
X0330543Y0146719D01*
X0330588Y0146871D01*
X0330637Y0147022D01*
X0330690Y0147171D01*
X0330746Y0147319D01*
X0330806Y0147465D01*
X0330870Y0147610D01*
X0330938Y0147753D01*
X0331009Y0147895D01*
X0331083Y0148035D01*
X0331161Y0148172D01*
X0331243Y0148308D01*
X0331327Y0148442D01*
X0331416Y0148573D01*
X0331507Y0148702D01*
X0331602Y0148829D01*
X0331699Y0148954D01*
X0331800Y0149076D01*
X0331904Y0149195D01*
X0332011Y0149312D01*
X0332121Y0149426D01*
X0332234Y0149537D01*
X0332349Y0149646D01*
X0332467Y0149751D01*
X0332588Y0149853D01*
X0332711Y0149953D01*
X0332837Y0150049D01*
X0332965Y0150142D01*
X0333095Y0150232D01*
X0333228Y0150318D01*
X0333363Y0150402D01*
X0333499Y0150481D01*
X0333638Y0150558D01*
X0333779Y0150630D01*
X0333921Y0150700D01*
X0334065Y0150765D01*
X0334211Y0150827D01*
X0334358Y0150885D01*
X0334507Y0150940D01*
X0334657Y0150991D01*
X0334808Y0151038D01*
X0334960Y0151081D01*
X0335113Y0151120D01*
X0335268Y0151156D01*
X0335423Y0151187D01*
X0335579Y0151215D01*
X0335735Y0151239D01*
X0335892Y0151259D01*
X0336050Y0151275D01*
X0336207Y0151287D01*
X0336366Y0151295D01*
X0336524Y0151299D01*
X0336682Y0151299D01*
X0336840Y0151295D01*
X0336999Y0151287D01*
X0337156Y0151275D01*
X0337314Y0151259D01*
X0337471Y0151239D01*
X0337627Y0151215D01*
X0337783Y0151187D01*
X0337938Y0151156D01*
X0338093Y0151120D01*
X0338246Y0151081D01*
X0338398Y0151038D01*
X0338549Y0150991D01*
X0338699Y0150940D01*
X0338848Y0150885D01*
X0338995Y0150827D01*
X0339141Y0150765D01*
X0339285Y0150700D01*
X0339427Y0150630D01*
X0339568Y0150558D01*
X0339707Y0150481D01*
X0339843Y0150402D01*
X0339978Y0150318D01*
X0340111Y0150232D01*
X0340241Y0150142D01*
X0340369Y0150049D01*
X0340495Y0149953D01*
X0340618Y0149853D01*
X0340739Y0149751D01*
X0340857Y0149646D01*
X0340972Y0149537D01*
X0341085Y0149426D01*
X0341195Y0149312D01*
X0341302Y0149195D01*
X0341406Y0149076D01*
X0341507Y0148954D01*
X0341604Y0148829D01*
X0341699Y0148702D01*
X0341790Y0148573D01*
X0341879Y0148442D01*
X0341963Y0148308D01*
X0342045Y0148172D01*
X0342123Y0148035D01*
X0342197Y0147895D01*
X0342268Y0147753D01*
X0342336Y0147610D01*
X0342400Y0147465D01*
X0342460Y0147319D01*
X0342516Y0147171D01*
X0342569Y0147022D01*
X0342618Y0146871D01*
X0342663Y0146719D01*
X0342704Y0146566D01*
X0342742Y0146413D01*
X0342775Y0146258D01*
X0342805Y0146102D01*
X0342831Y0145946D01*
X0342852Y0145789D01*
X0342870Y0145632D01*
X0342884Y0145474D01*
X0342894Y0145316D01*
X0342900Y0145158D01*
X0342902Y0145000D01*
X0342900Y0144842D01*
X0342894Y0144684D01*
X0342884Y0144526D01*
X0342870Y0144368D01*
X0342852Y0144211D01*
X0342831Y0144054D01*
X0342805Y0143898D01*
X0342775Y0143742D01*
X0342742Y0143587D01*
X0342704Y0143434D01*
X0342663Y0143281D01*
X0342618Y0143129D01*
X0342569Y0142978D01*
X0342516Y0142829D01*
X0342460Y0142681D01*
X0342400Y0142535D01*
X0342336Y0142390D01*
X0342268Y0142247D01*
X0342197Y0142105D01*
X0342123Y0141965D01*
X0342045Y0141828D01*
X0341963Y0141692D01*
X0341879Y0141558D01*
X0341790Y0141427D01*
X0341699Y0141298D01*
X0341604Y0141171D01*
X0341507Y0141046D01*
X0341406Y0140924D01*
X0341302Y0140805D01*
X0341195Y0140688D01*
X0341085Y0140574D01*
X0340972Y0140463D01*
X0340857Y0140354D01*
X0340739Y0140249D01*
X0340618Y0140147D01*
X0340495Y0140047D01*
X0340369Y0139951D01*
X0340241Y0139858D01*
X0340111Y0139768D01*
X0339978Y0139682D01*
X0339843Y0139598D01*
X0339707Y0139519D01*
X0339568Y0139442D01*
X0339427Y0139370D01*
X0339285Y0139300D01*
X0339141Y0139235D01*
X0338995Y0139173D01*
X0338848Y0139115D01*
X0338699Y0139060D01*
X0338549Y0139009D01*
X0338398Y0138962D01*
X0338246Y0138919D01*
X0338093Y0138880D01*
X0337938Y0138844D01*
X0337783Y0138813D01*
X0337627Y0138785D01*
X0337471Y0138761D01*
X0337314Y0138741D01*
X0337156Y0138725D01*
X0336999Y0138713D01*
X0336840Y0138705D01*
X0336682Y0138701D01*
X0336524Y0138701D01*
X0336366Y0138705D01*
X0336207Y0138713D01*
X0336050Y0138725D01*
X0335892Y0138741D01*
X0335735Y0138761D01*
X0335579Y0138785D01*
X0335423Y0138813D01*
X0335268Y0138844D01*
X0335113Y0138880D01*
X0334960Y0138919D01*
X0334808Y0138962D01*
X0334657Y0139009D01*
X0334507Y0139060D01*
X0334358Y0139115D01*
X0334211Y0139173D01*
X0334065Y0139235D01*
X0333921Y0139300D01*
X0333779Y0139370D01*
X0333638Y0139442D01*
X0333499Y0139519D01*
X0333363Y0139598D01*
X0333228Y0139682D01*
X0333095Y0139768D01*
X0332965Y0139858D01*
X0332837Y0139951D01*
X0332711Y0140047D01*
X0332588Y0140147D01*
X0332467Y0140249D01*
X0332349Y0140354D01*
X0332234Y0140463D01*
X0332121Y0140574D01*
X0332011Y0140688D01*
X0331904Y0140805D01*
X0331800Y0140924D01*
X0331699Y0141046D01*
X0331602Y0141171D01*
X0331507Y0141298D01*
X0331416Y0141427D01*
X0331327Y0141558D01*
X0331243Y0141692D01*
X0331161Y0141828D01*
X0331083Y0141965D01*
X0331009Y0142105D01*
X0330938Y0142247D01*
X0330870Y0142390D01*
X0330806Y0142535D01*
X0330746Y0142681D01*
X0330690Y0142829D01*
X0330637Y0142978D01*
X0330588Y0143129D01*
X0330543Y0143281D01*
X0330502Y0143434D01*
X0330464Y0143587D01*
X0330431Y0143742D01*
X0330401Y0143898D01*
X0330375Y0144054D01*
X0330354Y0144211D01*
X0330336Y0144368D01*
X0330322Y0144526D01*
X0330312Y0144684D01*
X0330306Y0144842D01*
X0330304Y0145000D01*
X0130304Y0205000D02*
X0130306Y0205158D01*
X0130312Y0205316D01*
X0130322Y0205474D01*
X0130336Y0205632D01*
X0130354Y0205789D01*
X0130375Y0205946D01*
X0130401Y0206102D01*
X0130431Y0206258D01*
X0130464Y0206413D01*
X0130502Y0206566D01*
X0130543Y0206719D01*
X0130588Y0206871D01*
X0130637Y0207022D01*
X0130690Y0207171D01*
X0130746Y0207319D01*
X0130806Y0207465D01*
X0130870Y0207610D01*
X0130938Y0207753D01*
X0131009Y0207895D01*
X0131083Y0208035D01*
X0131161Y0208172D01*
X0131243Y0208308D01*
X0131327Y0208442D01*
X0131416Y0208573D01*
X0131507Y0208702D01*
X0131602Y0208829D01*
X0131699Y0208954D01*
X0131800Y0209076D01*
X0131904Y0209195D01*
X0132011Y0209312D01*
X0132121Y0209426D01*
X0132234Y0209537D01*
X0132349Y0209646D01*
X0132467Y0209751D01*
X0132588Y0209853D01*
X0132711Y0209953D01*
X0132837Y0210049D01*
X0132965Y0210142D01*
X0133095Y0210232D01*
X0133228Y0210318D01*
X0133363Y0210402D01*
X0133499Y0210481D01*
X0133638Y0210558D01*
X0133779Y0210630D01*
X0133921Y0210700D01*
X0134065Y0210765D01*
X0134211Y0210827D01*
X0134358Y0210885D01*
X0134507Y0210940D01*
X0134657Y0210991D01*
X0134808Y0211038D01*
X0134960Y0211081D01*
X0135113Y0211120D01*
X0135268Y0211156D01*
X0135423Y0211187D01*
X0135579Y0211215D01*
X0135735Y0211239D01*
X0135892Y0211259D01*
X0136050Y0211275D01*
X0136207Y0211287D01*
X0136366Y0211295D01*
X0136524Y0211299D01*
X0136682Y0211299D01*
X0136840Y0211295D01*
X0136999Y0211287D01*
X0137156Y0211275D01*
X0137314Y0211259D01*
X0137471Y0211239D01*
X0137627Y0211215D01*
X0137783Y0211187D01*
X0137938Y0211156D01*
X0138093Y0211120D01*
X0138246Y0211081D01*
X0138398Y0211038D01*
X0138549Y0210991D01*
X0138699Y0210940D01*
X0138848Y0210885D01*
X0138995Y0210827D01*
X0139141Y0210765D01*
X0139285Y0210700D01*
X0139427Y0210630D01*
X0139568Y0210558D01*
X0139707Y0210481D01*
X0139843Y0210402D01*
X0139978Y0210318D01*
X0140111Y0210232D01*
X0140241Y0210142D01*
X0140369Y0210049D01*
X0140495Y0209953D01*
X0140618Y0209853D01*
X0140739Y0209751D01*
X0140857Y0209646D01*
X0140972Y0209537D01*
X0141085Y0209426D01*
X0141195Y0209312D01*
X0141302Y0209195D01*
X0141406Y0209076D01*
X0141507Y0208954D01*
X0141604Y0208829D01*
X0141699Y0208702D01*
X0141790Y0208573D01*
X0141879Y0208442D01*
X0141963Y0208308D01*
X0142045Y0208172D01*
X0142123Y0208035D01*
X0142197Y0207895D01*
X0142268Y0207753D01*
X0142336Y0207610D01*
X0142400Y0207465D01*
X0142460Y0207319D01*
X0142516Y0207171D01*
X0142569Y0207022D01*
X0142618Y0206871D01*
X0142663Y0206719D01*
X0142704Y0206566D01*
X0142742Y0206413D01*
X0142775Y0206258D01*
X0142805Y0206102D01*
X0142831Y0205946D01*
X0142852Y0205789D01*
X0142870Y0205632D01*
X0142884Y0205474D01*
X0142894Y0205316D01*
X0142900Y0205158D01*
X0142902Y0205000D01*
X0142900Y0204842D01*
X0142894Y0204684D01*
X0142884Y0204526D01*
X0142870Y0204368D01*
X0142852Y0204211D01*
X0142831Y0204054D01*
X0142805Y0203898D01*
X0142775Y0203742D01*
X0142742Y0203587D01*
X0142704Y0203434D01*
X0142663Y0203281D01*
X0142618Y0203129D01*
X0142569Y0202978D01*
X0142516Y0202829D01*
X0142460Y0202681D01*
X0142400Y0202535D01*
X0142336Y0202390D01*
X0142268Y0202247D01*
X0142197Y0202105D01*
X0142123Y0201965D01*
X0142045Y0201828D01*
X0141963Y0201692D01*
X0141879Y0201558D01*
X0141790Y0201427D01*
X0141699Y0201298D01*
X0141604Y0201171D01*
X0141507Y0201046D01*
X0141406Y0200924D01*
X0141302Y0200805D01*
X0141195Y0200688D01*
X0141085Y0200574D01*
X0140972Y0200463D01*
X0140857Y0200354D01*
X0140739Y0200249D01*
X0140618Y0200147D01*
X0140495Y0200047D01*
X0140369Y0199951D01*
X0140241Y0199858D01*
X0140111Y0199768D01*
X0139978Y0199682D01*
X0139843Y0199598D01*
X0139707Y0199519D01*
X0139568Y0199442D01*
X0139427Y0199370D01*
X0139285Y0199300D01*
X0139141Y0199235D01*
X0138995Y0199173D01*
X0138848Y0199115D01*
X0138699Y0199060D01*
X0138549Y0199009D01*
X0138398Y0198962D01*
X0138246Y0198919D01*
X0138093Y0198880D01*
X0137938Y0198844D01*
X0137783Y0198813D01*
X0137627Y0198785D01*
X0137471Y0198761D01*
X0137314Y0198741D01*
X0137156Y0198725D01*
X0136999Y0198713D01*
X0136840Y0198705D01*
X0136682Y0198701D01*
X0136524Y0198701D01*
X0136366Y0198705D01*
X0136207Y0198713D01*
X0136050Y0198725D01*
X0135892Y0198741D01*
X0135735Y0198761D01*
X0135579Y0198785D01*
X0135423Y0198813D01*
X0135268Y0198844D01*
X0135113Y0198880D01*
X0134960Y0198919D01*
X0134808Y0198962D01*
X0134657Y0199009D01*
X0134507Y0199060D01*
X0134358Y0199115D01*
X0134211Y0199173D01*
X0134065Y0199235D01*
X0133921Y0199300D01*
X0133779Y0199370D01*
X0133638Y0199442D01*
X0133499Y0199519D01*
X0133363Y0199598D01*
X0133228Y0199682D01*
X0133095Y0199768D01*
X0132965Y0199858D01*
X0132837Y0199951D01*
X0132711Y0200047D01*
X0132588Y0200147D01*
X0132467Y0200249D01*
X0132349Y0200354D01*
X0132234Y0200463D01*
X0132121Y0200574D01*
X0132011Y0200688D01*
X0131904Y0200805D01*
X0131800Y0200924D01*
X0131699Y0201046D01*
X0131602Y0201171D01*
X0131507Y0201298D01*
X0131416Y0201427D01*
X0131327Y0201558D01*
X0131243Y0201692D01*
X0131161Y0201828D01*
X0131083Y0201965D01*
X0131009Y0202105D01*
X0130938Y0202247D01*
X0130870Y0202390D01*
X0130806Y0202535D01*
X0130746Y0202681D01*
X0130690Y0202829D01*
X0130637Y0202978D01*
X0130588Y0203129D01*
X0130543Y0203281D01*
X0130502Y0203434D01*
X0130464Y0203587D01*
X0130431Y0203742D01*
X0130401Y0203898D01*
X0130375Y0204054D01*
X0130354Y0204211D01*
X0130336Y0204368D01*
X0130322Y0204526D01*
X0130312Y0204684D01*
X0130306Y0204842D01*
X0130304Y0205000D01*
D15*
X0265186Y0174685D02*
X0265186Y0162087D01*
X0265186Y0155000D02*
X0265186Y0142402D01*
X0288414Y0142402D01*
X0297469Y0151457D01*
X0297469Y0155000D01*
X0297469Y0162087D02*
X0297469Y0165630D01*
X0288414Y0174685D01*
X0265186Y0174685D01*
X0336052Y0072323D02*
X0359280Y0072323D01*
X0368335Y0063268D01*
X0368335Y0059724D01*
X0368335Y0052638D02*
X0368335Y0049094D01*
X0359280Y0040039D01*
X0336052Y0040039D01*
X0336052Y0052638D01*
X0336052Y0059724D02*
X0336052Y0072323D01*
D16*
X0336866Y0052578D02*
X0337217Y0052660D01*
X0337216Y0052659D02*
X0337307Y0052295D01*
X0337406Y0051934D01*
X0337514Y0051575D01*
X0337630Y0051219D01*
X0337755Y0050865D01*
X0337889Y0050515D01*
X0338031Y0050169D01*
X0338182Y0049825D01*
X0338341Y0049486D01*
X0338508Y0049151D01*
X0338684Y0048819D01*
X0338867Y0048492D01*
X0339058Y0048170D01*
X0339257Y0047852D01*
X0339464Y0047540D01*
X0339678Y0047232D01*
X0339900Y0046930D01*
X0340129Y0046633D01*
X0340365Y0046342D01*
X0340608Y0046057D01*
X0340858Y0045778D01*
X0341115Y0045505D01*
X0341378Y0045238D01*
X0341648Y0044978D01*
X0341924Y0044724D01*
X0342206Y0044477D01*
X0342494Y0044238D01*
X0342788Y0044005D01*
X0343087Y0043779D01*
X0343392Y0043561D01*
X0343702Y0043351D01*
X0344017Y0043148D01*
X0344337Y0042952D01*
X0344662Y0042765D01*
X0344991Y0042585D01*
X0345324Y0042414D01*
X0345661Y0042251D01*
X0346003Y0042096D01*
X0346348Y0041949D01*
X0346696Y0041811D01*
X0347048Y0041681D01*
X0347402Y0041560D01*
X0347760Y0041448D01*
X0348120Y0041344D01*
X0348483Y0041249D01*
X0348848Y0041163D01*
X0349214Y0041086D01*
X0349583Y0041018D01*
X0349953Y0040959D01*
X0350325Y0040909D01*
X0350697Y0040868D01*
X0351071Y0040836D01*
X0351445Y0040813D01*
X0351819Y0040800D01*
X0352194Y0040795D01*
X0352569Y0040800D01*
X0352943Y0040813D01*
X0353317Y0040836D01*
X0353691Y0040868D01*
X0354063Y0040909D01*
X0354435Y0040959D01*
X0354805Y0041018D01*
X0355174Y0041086D01*
X0355540Y0041163D01*
X0355905Y0041249D01*
X0356268Y0041344D01*
X0356628Y0041448D01*
X0356986Y0041560D01*
X0357340Y0041681D01*
X0357692Y0041811D01*
X0358040Y0041949D01*
X0358385Y0042096D01*
X0358727Y0042251D01*
X0359064Y0042414D01*
X0359397Y0042585D01*
X0359726Y0042765D01*
X0360051Y0042952D01*
X0360371Y0043148D01*
X0360686Y0043351D01*
X0360996Y0043561D01*
X0361301Y0043779D01*
X0361600Y0044005D01*
X0361894Y0044238D01*
X0362182Y0044477D01*
X0362464Y0044724D01*
X0362740Y0044978D01*
X0363010Y0045238D01*
X0363273Y0045505D01*
X0363530Y0045778D01*
X0363780Y0046057D01*
X0364023Y0046342D01*
X0364259Y0046633D01*
X0364488Y0046930D01*
X0364710Y0047232D01*
X0364924Y0047540D01*
X0365131Y0047852D01*
X0365330Y0048170D01*
X0365521Y0048492D01*
X0365704Y0048819D01*
X0365880Y0049151D01*
X0366047Y0049486D01*
X0366206Y0049825D01*
X0366357Y0050169D01*
X0366499Y0050515D01*
X0366633Y0050865D01*
X0366758Y0051219D01*
X0366874Y0051575D01*
X0366982Y0051934D01*
X0367081Y0052295D01*
X0367172Y0052659D01*
X0367522Y0052578D01*
X0367522Y0052577D01*
X0367430Y0052205D01*
X0367328Y0051835D01*
X0367218Y0051468D01*
X0367099Y0051103D01*
X0366971Y0050742D01*
X0366834Y0050383D01*
X0366688Y0050028D01*
X0366534Y0049677D01*
X0366371Y0049330D01*
X0366200Y0048986D01*
X0366021Y0048647D01*
X0365833Y0048313D01*
X0365637Y0047983D01*
X0365434Y0047658D01*
X0365222Y0047338D01*
X0365003Y0047023D01*
X0364776Y0046714D01*
X0364542Y0046410D01*
X0364300Y0046112D01*
X0364051Y0045820D01*
X0363795Y0045535D01*
X0363533Y0045255D01*
X0363263Y0044982D01*
X0362987Y0044716D01*
X0362704Y0044456D01*
X0362416Y0044204D01*
X0362121Y0043958D01*
X0361820Y0043720D01*
X0361514Y0043489D01*
X0361202Y0043266D01*
X0360885Y0043051D01*
X0360562Y0042843D01*
X0360235Y0042643D01*
X0359903Y0042451D01*
X0359566Y0042267D01*
X0359225Y0042092D01*
X0358880Y0041925D01*
X0358530Y0041766D01*
X0358177Y0041616D01*
X0357821Y0041475D01*
X0357461Y0041342D01*
X0357098Y0041218D01*
X0356732Y0041103D01*
X0356363Y0040997D01*
X0355992Y0040900D01*
X0355619Y0040812D01*
X0355243Y0040733D01*
X0354866Y0040663D01*
X0354487Y0040603D01*
X0354107Y0040552D01*
X0353726Y0040510D01*
X0353344Y0040477D01*
X0352961Y0040454D01*
X0352578Y0040440D01*
X0352194Y0040435D01*
X0351810Y0040440D01*
X0351427Y0040454D01*
X0351044Y0040477D01*
X0350662Y0040510D01*
X0350281Y0040552D01*
X0349901Y0040603D01*
X0349522Y0040663D01*
X0349145Y0040733D01*
X0348769Y0040812D01*
X0348396Y0040900D01*
X0348025Y0040997D01*
X0347656Y0041103D01*
X0347290Y0041218D01*
X0346927Y0041342D01*
X0346567Y0041475D01*
X0346211Y0041616D01*
X0345858Y0041766D01*
X0345508Y0041925D01*
X0345163Y0042092D01*
X0344822Y0042267D01*
X0344485Y0042451D01*
X0344153Y0042643D01*
X0343826Y0042843D01*
X0343503Y0043051D01*
X0343186Y0043266D01*
X0342874Y0043489D01*
X0342568Y0043720D01*
X0342267Y0043958D01*
X0341972Y0044204D01*
X0341684Y0044456D01*
X0341401Y0044716D01*
X0341125Y0044982D01*
X0340855Y0045255D01*
X0340593Y0045535D01*
X0340337Y0045820D01*
X0340088Y0046112D01*
X0339846Y0046410D01*
X0339612Y0046714D01*
X0339385Y0047023D01*
X0339166Y0047338D01*
X0338954Y0047658D01*
X0338751Y0047983D01*
X0338555Y0048313D01*
X0338367Y0048647D01*
X0338188Y0048986D01*
X0338017Y0049330D01*
X0337854Y0049677D01*
X0337700Y0050028D01*
X0337554Y0050383D01*
X0337417Y0050742D01*
X0337289Y0051103D01*
X0337170Y0051468D01*
X0337060Y0051835D01*
X0336958Y0052205D01*
X0336866Y0052577D01*
X0336902Y0052586D01*
X0336994Y0052214D01*
X0337095Y0051845D01*
X0337205Y0051479D01*
X0337324Y0051115D01*
X0337452Y0050754D01*
X0337589Y0050397D01*
X0337734Y0050043D01*
X0337888Y0049692D01*
X0338050Y0049346D01*
X0338221Y0049003D01*
X0338400Y0048665D01*
X0338587Y0048331D01*
X0338782Y0048002D01*
X0338985Y0047678D01*
X0339196Y0047359D01*
X0339415Y0047045D01*
X0339642Y0046736D01*
X0339875Y0046433D01*
X0340116Y0046136D01*
X0340365Y0045845D01*
X0340620Y0045560D01*
X0340882Y0045281D01*
X0341151Y0045008D01*
X0341426Y0044743D01*
X0341708Y0044484D01*
X0341996Y0044232D01*
X0342290Y0043987D01*
X0342590Y0043749D01*
X0342896Y0043519D01*
X0343207Y0043296D01*
X0343524Y0043081D01*
X0343845Y0042874D01*
X0344172Y0042675D01*
X0344503Y0042483D01*
X0344839Y0042300D01*
X0345180Y0042125D01*
X0345524Y0041958D01*
X0345873Y0041800D01*
X0346225Y0041650D01*
X0346580Y0041509D01*
X0346940Y0041377D01*
X0347302Y0041253D01*
X0347667Y0041138D01*
X0348035Y0041033D01*
X0348405Y0040936D01*
X0348777Y0040848D01*
X0349152Y0040769D01*
X0349528Y0040700D01*
X0349906Y0040640D01*
X0350285Y0040588D01*
X0350666Y0040547D01*
X0351047Y0040514D01*
X0351429Y0040491D01*
X0351811Y0040477D01*
X0352194Y0040472D01*
X0352577Y0040477D01*
X0352959Y0040491D01*
X0353341Y0040514D01*
X0353722Y0040547D01*
X0354103Y0040588D01*
X0354482Y0040640D01*
X0354860Y0040700D01*
X0355236Y0040769D01*
X0355611Y0040848D01*
X0355983Y0040936D01*
X0356353Y0041033D01*
X0356721Y0041138D01*
X0357086Y0041253D01*
X0357448Y0041377D01*
X0357808Y0041509D01*
X0358163Y0041650D01*
X0358515Y0041800D01*
X0358864Y0041958D01*
X0359208Y0042125D01*
X0359549Y0042300D01*
X0359885Y0042483D01*
X0360216Y0042675D01*
X0360543Y0042874D01*
X0360864Y0043081D01*
X0361181Y0043296D01*
X0361492Y0043519D01*
X0361798Y0043749D01*
X0362098Y0043987D01*
X0362392Y0044232D01*
X0362680Y0044484D01*
X0362962Y0044743D01*
X0363237Y0045008D01*
X0363506Y0045281D01*
X0363768Y0045560D01*
X0364023Y0045845D01*
X0364272Y0046136D01*
X0364513Y0046433D01*
X0364746Y0046736D01*
X0364973Y0047045D01*
X0365192Y0047359D01*
X0365403Y0047678D01*
X0365606Y0048002D01*
X0365801Y0048331D01*
X0365988Y0048665D01*
X0366167Y0049003D01*
X0366338Y0049346D01*
X0366500Y0049692D01*
X0366654Y0050043D01*
X0366799Y0050397D01*
X0366936Y0050754D01*
X0367064Y0051115D01*
X0367183Y0051479D01*
X0367293Y0051845D01*
X0367394Y0052214D01*
X0367486Y0052586D01*
X0367450Y0052594D01*
X0367358Y0052224D01*
X0367257Y0051855D01*
X0367147Y0051490D01*
X0367029Y0051127D01*
X0366901Y0050767D01*
X0366765Y0050410D01*
X0366620Y0050057D01*
X0366467Y0049708D01*
X0366305Y0049362D01*
X0366134Y0049020D01*
X0365956Y0048683D01*
X0365769Y0048350D01*
X0365574Y0048021D01*
X0365372Y0047698D01*
X0365161Y0047379D01*
X0364943Y0047066D01*
X0364717Y0046758D01*
X0364484Y0046456D01*
X0364243Y0046160D01*
X0363995Y0045869D01*
X0363741Y0045585D01*
X0363479Y0045306D01*
X0363211Y0045035D01*
X0362936Y0044770D01*
X0362655Y0044511D01*
X0362368Y0044260D01*
X0362074Y0044016D01*
X0361775Y0043779D01*
X0361470Y0043549D01*
X0361160Y0043327D01*
X0360844Y0043112D01*
X0360523Y0042905D01*
X0360197Y0042706D01*
X0359866Y0042516D01*
X0359531Y0042333D01*
X0359192Y0042158D01*
X0358848Y0041992D01*
X0358501Y0041834D01*
X0358149Y0041685D01*
X0357794Y0041544D01*
X0357436Y0041412D01*
X0357075Y0041288D01*
X0356711Y0041174D01*
X0356344Y0041068D01*
X0355974Y0040972D01*
X0355603Y0040884D01*
X0355229Y0040806D01*
X0354854Y0040736D01*
X0354477Y0040676D01*
X0354098Y0040625D01*
X0353719Y0040583D01*
X0353338Y0040551D01*
X0352957Y0040528D01*
X0352576Y0040514D01*
X0352194Y0040509D01*
X0351812Y0040514D01*
X0351431Y0040528D01*
X0351050Y0040551D01*
X0350669Y0040583D01*
X0350290Y0040625D01*
X0349911Y0040676D01*
X0349534Y0040736D01*
X0349159Y0040806D01*
X0348785Y0040884D01*
X0348414Y0040972D01*
X0348044Y0041068D01*
X0347677Y0041174D01*
X0347313Y0041288D01*
X0346952Y0041412D01*
X0346594Y0041544D01*
X0346239Y0041685D01*
X0345887Y0041834D01*
X0345540Y0041992D01*
X0345196Y0042158D01*
X0344857Y0042333D01*
X0344522Y0042516D01*
X0344191Y0042706D01*
X0343865Y0042905D01*
X0343544Y0043112D01*
X0343228Y0043327D01*
X0342918Y0043549D01*
X0342613Y0043779D01*
X0342314Y0044016D01*
X0342020Y0044260D01*
X0341733Y0044511D01*
X0341452Y0044770D01*
X0341177Y0045035D01*
X0340909Y0045306D01*
X0340647Y0045585D01*
X0340393Y0045869D01*
X0340145Y0046160D01*
X0339904Y0046456D01*
X0339671Y0046758D01*
X0339445Y0047066D01*
X0339227Y0047379D01*
X0339016Y0047698D01*
X0338814Y0048021D01*
X0338619Y0048350D01*
X0338432Y0048683D01*
X0338254Y0049020D01*
X0338083Y0049362D01*
X0337921Y0049708D01*
X0337768Y0050057D01*
X0337623Y0050410D01*
X0337487Y0050767D01*
X0337359Y0051127D01*
X0337241Y0051490D01*
X0337131Y0051855D01*
X0337030Y0052224D01*
X0336938Y0052594D01*
X0336974Y0052603D01*
X0337066Y0052233D01*
X0337166Y0051866D01*
X0337276Y0051501D01*
X0337394Y0051139D01*
X0337522Y0050780D01*
X0337658Y0050424D01*
X0337802Y0050072D01*
X0337955Y0049723D01*
X0338117Y0049378D01*
X0338287Y0049037D01*
X0338465Y0048700D01*
X0338651Y0048368D01*
X0338845Y0048041D01*
X0339048Y0047718D01*
X0339258Y0047400D01*
X0339475Y0047088D01*
X0339701Y0046780D01*
X0339933Y0046479D01*
X0340173Y0046183D01*
X0340420Y0045893D01*
X0340675Y0045610D01*
X0340935Y0045332D01*
X0341203Y0045061D01*
X0341477Y0044797D01*
X0341758Y0044539D01*
X0342044Y0044288D01*
X0342337Y0044045D01*
X0342636Y0043808D01*
X0342940Y0043579D01*
X0343250Y0043357D01*
X0343565Y0043143D01*
X0343885Y0042937D01*
X0344210Y0042738D01*
X0344540Y0042548D01*
X0344874Y0042365D01*
X0345213Y0042191D01*
X0345556Y0042025D01*
X0345902Y0041868D01*
X0346253Y0041719D01*
X0346607Y0041578D01*
X0346964Y0041447D01*
X0347325Y0041324D01*
X0347688Y0041209D01*
X0348054Y0041104D01*
X0348423Y0041008D01*
X0348793Y0040920D01*
X0349166Y0040842D01*
X0349541Y0040773D01*
X0349917Y0040713D01*
X0350294Y0040662D01*
X0350673Y0040620D01*
X0351052Y0040588D01*
X0351433Y0040565D01*
X0351813Y0040551D01*
X0352194Y0040546D01*
X0352575Y0040551D01*
X0352955Y0040565D01*
X0353336Y0040588D01*
X0353715Y0040620D01*
X0354094Y0040662D01*
X0354471Y0040713D01*
X0354847Y0040773D01*
X0355222Y0040842D01*
X0355595Y0040920D01*
X0355965Y0041008D01*
X0356334Y0041104D01*
X0356700Y0041209D01*
X0357063Y0041324D01*
X0357424Y0041447D01*
X0357781Y0041578D01*
X0358135Y0041719D01*
X0358486Y0041868D01*
X0358832Y0042025D01*
X0359175Y0042191D01*
X0359514Y0042365D01*
X0359848Y0042548D01*
X0360178Y0042738D01*
X0360503Y0042937D01*
X0360823Y0043143D01*
X0361138Y0043357D01*
X0361448Y0043579D01*
X0361752Y0043808D01*
X0362051Y0044045D01*
X0362344Y0044288D01*
X0362630Y0044539D01*
X0362911Y0044797D01*
X0363185Y0045061D01*
X0363453Y0045332D01*
X0363713Y0045610D01*
X0363968Y0045893D01*
X0364215Y0046183D01*
X0364455Y0046479D01*
X0364687Y0046780D01*
X0364913Y0047088D01*
X0365130Y0047400D01*
X0365340Y0047718D01*
X0365543Y0048041D01*
X0365737Y0048368D01*
X0365923Y0048700D01*
X0366101Y0049037D01*
X0366271Y0049378D01*
X0366433Y0049723D01*
X0366586Y0050072D01*
X0366730Y0050424D01*
X0366866Y0050780D01*
X0366994Y0051139D01*
X0367112Y0051501D01*
X0367222Y0051866D01*
X0367322Y0052233D01*
X0367414Y0052603D01*
X0367378Y0052611D01*
X0367286Y0052242D01*
X0367186Y0051876D01*
X0367077Y0051512D01*
X0366959Y0051151D01*
X0366832Y0050792D01*
X0366696Y0050438D01*
X0366552Y0050086D01*
X0366399Y0049738D01*
X0366238Y0049394D01*
X0366068Y0049054D01*
X0365891Y0048718D01*
X0365705Y0048387D01*
X0365511Y0048060D01*
X0365309Y0047738D01*
X0365100Y0047421D01*
X0364882Y0047109D01*
X0364658Y0046803D01*
X0364426Y0046502D01*
X0364186Y0046207D01*
X0363940Y0045918D01*
X0363686Y0045635D01*
X0363426Y0045358D01*
X0363159Y0045087D01*
X0362885Y0044824D01*
X0362606Y0044567D01*
X0362320Y0044316D01*
X0362028Y0044073D01*
X0361730Y0043837D01*
X0361426Y0043609D01*
X0361117Y0043387D01*
X0360803Y0043174D01*
X0360484Y0042968D01*
X0360159Y0042770D01*
X0359830Y0042580D01*
X0359497Y0042398D01*
X0359159Y0042224D01*
X0358817Y0042059D01*
X0358471Y0041902D01*
X0358121Y0041753D01*
X0357768Y0041613D01*
X0357411Y0041481D01*
X0357052Y0041359D01*
X0356689Y0041245D01*
X0356324Y0041140D01*
X0355956Y0041044D01*
X0355587Y0040956D01*
X0355215Y0040878D01*
X0354841Y0040809D01*
X0354466Y0040749D01*
X0354089Y0040699D01*
X0353712Y0040657D01*
X0353333Y0040625D01*
X0352954Y0040602D01*
X0352574Y0040588D01*
X0352194Y0040583D01*
X0351814Y0040588D01*
X0351434Y0040602D01*
X0351055Y0040625D01*
X0350676Y0040657D01*
X0350299Y0040699D01*
X0349922Y0040749D01*
X0349547Y0040809D01*
X0349173Y0040878D01*
X0348801Y0040956D01*
X0348432Y0041044D01*
X0348064Y0041140D01*
X0347699Y0041245D01*
X0347336Y0041359D01*
X0346977Y0041481D01*
X0346620Y0041613D01*
X0346267Y0041753D01*
X0345917Y0041902D01*
X0345571Y0042059D01*
X0345229Y0042224D01*
X0344891Y0042398D01*
X0344558Y0042580D01*
X0344229Y0042770D01*
X0343904Y0042968D01*
X0343585Y0043174D01*
X0343271Y0043387D01*
X0342962Y0043609D01*
X0342658Y0043837D01*
X0342360Y0044073D01*
X0342068Y0044316D01*
X0341782Y0044567D01*
X0341503Y0044824D01*
X0341229Y0045087D01*
X0340962Y0045358D01*
X0340702Y0045635D01*
X0340448Y0045918D01*
X0340202Y0046207D01*
X0339962Y0046502D01*
X0339730Y0046803D01*
X0339506Y0047109D01*
X0339288Y0047421D01*
X0339079Y0047738D01*
X0338877Y0048060D01*
X0338683Y0048387D01*
X0338497Y0048718D01*
X0338320Y0049054D01*
X0338150Y0049394D01*
X0337989Y0049738D01*
X0337836Y0050086D01*
X0337692Y0050438D01*
X0337556Y0050792D01*
X0337429Y0051151D01*
X0337311Y0051512D01*
X0337202Y0051876D01*
X0337102Y0052242D01*
X0337010Y0052611D01*
X0337046Y0052619D01*
X0337137Y0052251D01*
X0337238Y0051886D01*
X0337347Y0051523D01*
X0337464Y0051163D01*
X0337591Y0050805D01*
X0337726Y0050451D01*
X0337870Y0050100D01*
X0338023Y0049753D01*
X0338183Y0049410D01*
X0338352Y0049071D01*
X0338530Y0048736D01*
X0338715Y0048405D01*
X0338909Y0048079D01*
X0339110Y0047758D01*
X0339319Y0047442D01*
X0339536Y0047131D01*
X0339760Y0046825D01*
X0339991Y0046525D01*
X0340230Y0046230D01*
X0340476Y0045942D01*
X0340729Y0045660D01*
X0340989Y0045383D01*
X0341255Y0045114D01*
X0341528Y0044850D01*
X0341807Y0044594D01*
X0342092Y0044344D01*
X0342384Y0044102D01*
X0342681Y0043867D01*
X0342984Y0043638D01*
X0343292Y0043418D01*
X0343606Y0043205D01*
X0343924Y0042999D01*
X0344248Y0042802D01*
X0344576Y0042612D01*
X0344909Y0042431D01*
X0345246Y0042257D01*
X0345587Y0042092D01*
X0345932Y0041935D01*
X0346281Y0041787D01*
X0346633Y0041647D01*
X0346989Y0041516D01*
X0347348Y0041394D01*
X0347709Y0041280D01*
X0348074Y0041175D01*
X0348441Y0041079D01*
X0348810Y0040993D01*
X0349180Y0040915D01*
X0349553Y0040846D01*
X0349928Y0040786D01*
X0350303Y0040735D01*
X0350680Y0040694D01*
X0351058Y0040662D01*
X0351436Y0040638D01*
X0351815Y0040625D01*
X0352194Y0040620D01*
X0352573Y0040625D01*
X0352952Y0040638D01*
X0353330Y0040662D01*
X0353708Y0040694D01*
X0354085Y0040735D01*
X0354460Y0040786D01*
X0354835Y0040846D01*
X0355208Y0040915D01*
X0355578Y0040993D01*
X0355947Y0041079D01*
X0356314Y0041175D01*
X0356679Y0041280D01*
X0357040Y0041394D01*
X0357399Y0041516D01*
X0357755Y0041647D01*
X0358107Y0041787D01*
X0358456Y0041935D01*
X0358801Y0042092D01*
X0359142Y0042257D01*
X0359479Y0042431D01*
X0359812Y0042612D01*
X0360140Y0042802D01*
X0360464Y0042999D01*
X0360782Y0043205D01*
X0361096Y0043418D01*
X0361404Y0043638D01*
X0361707Y0043867D01*
X0362004Y0044102D01*
X0362296Y0044344D01*
X0362581Y0044594D01*
X0362860Y0044850D01*
X0363133Y0045114D01*
X0363399Y0045383D01*
X0363659Y0045660D01*
X0363912Y0045942D01*
X0364158Y0046230D01*
X0364397Y0046525D01*
X0364628Y0046825D01*
X0364852Y0047131D01*
X0365069Y0047442D01*
X0365278Y0047758D01*
X0365479Y0048079D01*
X0365673Y0048405D01*
X0365858Y0048736D01*
X0366036Y0049071D01*
X0366205Y0049410D01*
X0366365Y0049753D01*
X0366518Y0050100D01*
X0366662Y0050451D01*
X0366797Y0050805D01*
X0366924Y0051163D01*
X0367041Y0051523D01*
X0367150Y0051886D01*
X0367251Y0052251D01*
X0367342Y0052619D01*
X0367306Y0052628D01*
X0367215Y0052261D01*
X0367115Y0051896D01*
X0367006Y0051534D01*
X0366889Y0051174D01*
X0366762Y0050818D01*
X0366627Y0050465D01*
X0366484Y0050115D01*
X0366332Y0049769D01*
X0366171Y0049426D01*
X0366003Y0049088D01*
X0365826Y0048753D01*
X0365641Y0048423D01*
X0365448Y0048098D01*
X0365247Y0047778D01*
X0365038Y0047462D01*
X0364822Y0047152D01*
X0364599Y0046847D01*
X0364368Y0046548D01*
X0364129Y0046254D01*
X0363884Y0045966D01*
X0363632Y0045685D01*
X0363373Y0045409D01*
X0363107Y0045140D01*
X0362835Y0044877D01*
X0362556Y0044622D01*
X0362272Y0044373D01*
X0361981Y0044131D01*
X0361684Y0043896D01*
X0361382Y0043668D01*
X0361075Y0043448D01*
X0360762Y0043236D01*
X0360444Y0043031D01*
X0360121Y0042834D01*
X0359794Y0042645D01*
X0359462Y0042463D01*
X0359126Y0042290D01*
X0358785Y0042126D01*
X0358441Y0041969D01*
X0358093Y0041821D01*
X0357741Y0041682D01*
X0357387Y0041551D01*
X0357029Y0041429D01*
X0356668Y0041316D01*
X0356304Y0041211D01*
X0355939Y0041115D01*
X0355570Y0041029D01*
X0355200Y0040951D01*
X0354828Y0040882D01*
X0354455Y0040823D01*
X0354080Y0040772D01*
X0353704Y0040731D01*
X0353328Y0040698D01*
X0352950Y0040675D01*
X0352572Y0040662D01*
X0352194Y0040657D01*
X0351816Y0040662D01*
X0351438Y0040675D01*
X0351060Y0040698D01*
X0350684Y0040731D01*
X0350308Y0040772D01*
X0349933Y0040823D01*
X0349560Y0040882D01*
X0349188Y0040951D01*
X0348818Y0041029D01*
X0348449Y0041115D01*
X0348084Y0041211D01*
X0347720Y0041316D01*
X0347359Y0041429D01*
X0347001Y0041551D01*
X0346647Y0041682D01*
X0346295Y0041821D01*
X0345947Y0041969D01*
X0345603Y0042126D01*
X0345262Y0042290D01*
X0344926Y0042463D01*
X0344594Y0042645D01*
X0344267Y0042834D01*
X0343944Y0043031D01*
X0343626Y0043236D01*
X0343313Y0043448D01*
X0343006Y0043668D01*
X0342704Y0043896D01*
X0342407Y0044131D01*
X0342116Y0044373D01*
X0341832Y0044622D01*
X0341553Y0044877D01*
X0341281Y0045140D01*
X0341015Y0045409D01*
X0340756Y0045685D01*
X0340504Y0045966D01*
X0340259Y0046254D01*
X0340020Y0046548D01*
X0339789Y0046847D01*
X0339566Y0047152D01*
X0339350Y0047462D01*
X0339141Y0047778D01*
X0338940Y0048098D01*
X0338747Y0048423D01*
X0338562Y0048753D01*
X0338385Y0049088D01*
X0338217Y0049426D01*
X0338056Y0049769D01*
X0337904Y0050115D01*
X0337761Y0050465D01*
X0337626Y0050818D01*
X0337499Y0051174D01*
X0337382Y0051534D01*
X0337273Y0051896D01*
X0337173Y0052261D01*
X0337082Y0052628D01*
X0337118Y0052636D01*
X0337209Y0052270D01*
X0337309Y0051906D01*
X0337417Y0051545D01*
X0337535Y0051186D01*
X0337661Y0050831D01*
X0337795Y0050478D01*
X0337938Y0050129D01*
X0338090Y0049784D01*
X0338250Y0049442D01*
X0338418Y0049104D01*
X0338595Y0048771D01*
X0338779Y0048442D01*
X0338972Y0048117D01*
X0339172Y0047798D01*
X0339380Y0047483D01*
X0339596Y0047174D01*
X0339819Y0046869D01*
X0340050Y0046571D01*
X0340287Y0046278D01*
X0340532Y0045991D01*
X0340784Y0045710D01*
X0341042Y0045435D01*
X0341307Y0045166D01*
X0341579Y0044904D01*
X0341857Y0044649D01*
X0342141Y0044401D01*
X0342430Y0044159D01*
X0342726Y0043925D01*
X0343028Y0043698D01*
X0343334Y0043478D01*
X0343646Y0043266D01*
X0343964Y0043062D01*
X0344286Y0042865D01*
X0344612Y0042677D01*
X0344943Y0042496D01*
X0345279Y0042324D01*
X0345618Y0042159D01*
X0345962Y0042003D01*
X0346309Y0041856D01*
X0346660Y0041717D01*
X0347014Y0041586D01*
X0347371Y0041464D01*
X0347731Y0041351D01*
X0348093Y0041247D01*
X0348458Y0041151D01*
X0348826Y0041065D01*
X0349195Y0040987D01*
X0349566Y0040919D01*
X0349938Y0040859D01*
X0350312Y0040809D01*
X0350687Y0040767D01*
X0351063Y0040735D01*
X0351440Y0040712D01*
X0351817Y0040699D01*
X0352194Y0040694D01*
X0352571Y0040699D01*
X0352948Y0040712D01*
X0353325Y0040735D01*
X0353701Y0040767D01*
X0354076Y0040809D01*
X0354450Y0040859D01*
X0354822Y0040919D01*
X0355193Y0040987D01*
X0355562Y0041065D01*
X0355930Y0041151D01*
X0356295Y0041247D01*
X0356657Y0041351D01*
X0357017Y0041464D01*
X0357374Y0041586D01*
X0357728Y0041717D01*
X0358079Y0041856D01*
X0358426Y0042003D01*
X0358770Y0042159D01*
X0359109Y0042324D01*
X0359445Y0042496D01*
X0359776Y0042677D01*
X0360102Y0042865D01*
X0360424Y0043062D01*
X0360742Y0043266D01*
X0361054Y0043478D01*
X0361360Y0043698D01*
X0361662Y0043925D01*
X0361958Y0044159D01*
X0362247Y0044401D01*
X0362531Y0044649D01*
X0362809Y0044904D01*
X0363081Y0045166D01*
X0363346Y0045435D01*
X0363604Y0045710D01*
X0363856Y0045991D01*
X0364101Y0046278D01*
X0364338Y0046571D01*
X0364569Y0046869D01*
X0364792Y0047174D01*
X0365008Y0047483D01*
X0365216Y0047798D01*
X0365416Y0048117D01*
X0365609Y0048442D01*
X0365793Y0048771D01*
X0365970Y0049104D01*
X0366138Y0049442D01*
X0366298Y0049784D01*
X0366450Y0050129D01*
X0366593Y0050478D01*
X0366727Y0050831D01*
X0366853Y0051186D01*
X0366971Y0051545D01*
X0367079Y0051906D01*
X0367179Y0052270D01*
X0367270Y0052636D01*
X0367234Y0052645D01*
X0367143Y0052279D01*
X0367044Y0051916D01*
X0366935Y0051556D01*
X0366818Y0051198D01*
X0366693Y0050843D01*
X0366558Y0050492D01*
X0366416Y0050144D01*
X0366264Y0049799D01*
X0366105Y0049458D01*
X0365937Y0049121D01*
X0365761Y0048789D01*
X0365577Y0048460D01*
X0365385Y0048137D01*
X0365185Y0047818D01*
X0364977Y0047504D01*
X0364762Y0047195D01*
X0364539Y0046892D01*
X0364309Y0046594D01*
X0364072Y0046301D01*
X0363828Y0046015D01*
X0363577Y0045735D01*
X0363319Y0045460D01*
X0363055Y0045193D01*
X0362784Y0044931D01*
X0362507Y0044677D01*
X0362223Y0044429D01*
X0361934Y0044188D01*
X0361639Y0043954D01*
X0361339Y0043728D01*
X0361032Y0043509D01*
X0360721Y0043297D01*
X0360405Y0043093D01*
X0360084Y0042897D01*
X0359758Y0042709D01*
X0359427Y0042529D01*
X0359093Y0042357D01*
X0358754Y0042193D01*
X0358411Y0042037D01*
X0358065Y0041890D01*
X0357715Y0041751D01*
X0357362Y0041621D01*
X0357006Y0041499D01*
X0356646Y0041386D01*
X0356285Y0041282D01*
X0355921Y0041187D01*
X0355554Y0041101D01*
X0355186Y0041023D01*
X0354816Y0040955D01*
X0354444Y0040896D01*
X0354071Y0040845D01*
X0353697Y0040804D01*
X0353322Y0040772D01*
X0352946Y0040749D01*
X0352570Y0040736D01*
X0352194Y0040731D01*
X0351818Y0040736D01*
X0351442Y0040749D01*
X0351066Y0040772D01*
X0350691Y0040804D01*
X0350317Y0040845D01*
X0349944Y0040896D01*
X0349572Y0040955D01*
X0349202Y0041023D01*
X0348834Y0041101D01*
X0348467Y0041187D01*
X0348103Y0041282D01*
X0347742Y0041386D01*
X0347382Y0041499D01*
X0347026Y0041621D01*
X0346673Y0041751D01*
X0346323Y0041890D01*
X0345977Y0042037D01*
X0345634Y0042193D01*
X0345295Y0042357D01*
X0344961Y0042529D01*
X0344630Y0042709D01*
X0344304Y0042897D01*
X0343983Y0043093D01*
X0343667Y0043297D01*
X0343356Y0043509D01*
X0343049Y0043728D01*
X0342749Y0043954D01*
X0342454Y0044188D01*
X0342165Y0044429D01*
X0341881Y0044677D01*
X0341604Y0044931D01*
X0341333Y0045193D01*
X0341069Y0045460D01*
X0340811Y0045735D01*
X0340560Y0046015D01*
X0340316Y0046301D01*
X0340079Y0046594D01*
X0339849Y0046892D01*
X0339626Y0047195D01*
X0339411Y0047504D01*
X0339203Y0047818D01*
X0339003Y0048137D01*
X0338811Y0048460D01*
X0338627Y0048789D01*
X0338451Y0049121D01*
X0338283Y0049458D01*
X0338124Y0049799D01*
X0337972Y0050144D01*
X0337830Y0050492D01*
X0337695Y0050843D01*
X0337570Y0051198D01*
X0337453Y0051556D01*
X0337344Y0051916D01*
X0337245Y0052279D01*
X0337154Y0052645D01*
X0337190Y0052653D01*
X0337281Y0052289D01*
X0337380Y0051927D01*
X0337488Y0051567D01*
X0337605Y0051210D01*
X0337730Y0050856D01*
X0337864Y0050505D01*
X0338007Y0050158D01*
X0338157Y0049814D01*
X0338317Y0049474D01*
X0338484Y0049138D01*
X0338660Y0048806D01*
X0338843Y0048479D01*
X0339035Y0048156D01*
X0339234Y0047838D01*
X0339441Y0047525D01*
X0339656Y0047217D01*
X0339878Y0046914D01*
X0340108Y0046617D01*
X0340344Y0046325D01*
X0340588Y0046039D01*
X0340838Y0045760D01*
X0341095Y0045486D01*
X0341359Y0045219D01*
X0341629Y0044958D01*
X0341906Y0044704D01*
X0342189Y0044457D01*
X0342477Y0044217D01*
X0342771Y0043984D01*
X0343071Y0043758D01*
X0343377Y0043539D01*
X0343687Y0043328D01*
X0344003Y0043125D01*
X0344323Y0042929D01*
X0344648Y0042741D01*
X0344978Y0042561D01*
X0345312Y0042390D01*
X0345650Y0042226D01*
X0345992Y0042071D01*
X0346337Y0041924D01*
X0346686Y0041786D01*
X0347039Y0041656D01*
X0347394Y0041534D01*
X0347752Y0041422D01*
X0348113Y0041318D01*
X0348476Y0041223D01*
X0348842Y0041137D01*
X0349209Y0041060D01*
X0349578Y0040992D01*
X0349949Y0040932D01*
X0350321Y0040882D01*
X0350694Y0040841D01*
X0351069Y0040809D01*
X0351443Y0040786D01*
X0351819Y0040773D01*
X0352194Y0040768D01*
X0352569Y0040773D01*
X0352945Y0040786D01*
X0353319Y0040809D01*
X0353694Y0040841D01*
X0354067Y0040882D01*
X0354439Y0040932D01*
X0354810Y0040992D01*
X0355179Y0041060D01*
X0355546Y0041137D01*
X0355912Y0041223D01*
X0356275Y0041318D01*
X0356636Y0041422D01*
X0356994Y0041534D01*
X0357349Y0041656D01*
X0357702Y0041786D01*
X0358051Y0041924D01*
X0358396Y0042071D01*
X0358738Y0042226D01*
X0359076Y0042390D01*
X0359410Y0042561D01*
X0359740Y0042741D01*
X0360065Y0042929D01*
X0360385Y0043125D01*
X0360701Y0043328D01*
X0361011Y0043539D01*
X0361317Y0043758D01*
X0361617Y0043984D01*
X0361911Y0044217D01*
X0362199Y0044457D01*
X0362482Y0044704D01*
X0362759Y0044958D01*
X0363029Y0045219D01*
X0363293Y0045486D01*
X0363550Y0045760D01*
X0363800Y0046039D01*
X0364044Y0046325D01*
X0364280Y0046617D01*
X0364510Y0046914D01*
X0364732Y0047217D01*
X0364947Y0047525D01*
X0365154Y0047838D01*
X0365353Y0048156D01*
X0365545Y0048479D01*
X0365728Y0048806D01*
X0365904Y0049138D01*
X0366071Y0049474D01*
X0366231Y0049814D01*
X0366381Y0050158D01*
X0366524Y0050505D01*
X0366658Y0050856D01*
X0366783Y0051210D01*
X0366900Y0051567D01*
X0367008Y0051927D01*
X0367107Y0052289D01*
X0367198Y0052653D01*
X0367522Y0059784D02*
X0367171Y0059702D01*
X0367172Y0059703D02*
X0367081Y0060067D01*
X0366982Y0060428D01*
X0366874Y0060787D01*
X0366758Y0061143D01*
X0366633Y0061497D01*
X0366499Y0061847D01*
X0366357Y0062193D01*
X0366206Y0062537D01*
X0366047Y0062876D01*
X0365880Y0063211D01*
X0365704Y0063543D01*
X0365521Y0063870D01*
X0365330Y0064192D01*
X0365131Y0064510D01*
X0364924Y0064822D01*
X0364710Y0065130D01*
X0364488Y0065432D01*
X0364259Y0065729D01*
X0364023Y0066020D01*
X0363780Y0066305D01*
X0363530Y0066584D01*
X0363273Y0066857D01*
X0363010Y0067124D01*
X0362740Y0067384D01*
X0362464Y0067638D01*
X0362182Y0067885D01*
X0361894Y0068124D01*
X0361600Y0068357D01*
X0361301Y0068583D01*
X0360996Y0068801D01*
X0360686Y0069011D01*
X0360371Y0069214D01*
X0360051Y0069410D01*
X0359726Y0069597D01*
X0359397Y0069777D01*
X0359064Y0069948D01*
X0358727Y0070111D01*
X0358385Y0070266D01*
X0358040Y0070413D01*
X0357692Y0070551D01*
X0357340Y0070681D01*
X0356986Y0070802D01*
X0356628Y0070914D01*
X0356268Y0071018D01*
X0355905Y0071113D01*
X0355540Y0071199D01*
X0355174Y0071276D01*
X0354805Y0071344D01*
X0354435Y0071403D01*
X0354063Y0071453D01*
X0353691Y0071494D01*
X0353317Y0071526D01*
X0352943Y0071549D01*
X0352569Y0071562D01*
X0352194Y0071567D01*
X0351819Y0071562D01*
X0351445Y0071549D01*
X0351071Y0071526D01*
X0350697Y0071494D01*
X0350325Y0071453D01*
X0349953Y0071403D01*
X0349583Y0071344D01*
X0349214Y0071276D01*
X0348848Y0071199D01*
X0348483Y0071113D01*
X0348120Y0071018D01*
X0347760Y0070914D01*
X0347402Y0070802D01*
X0347048Y0070681D01*
X0346696Y0070551D01*
X0346348Y0070413D01*
X0346003Y0070266D01*
X0345661Y0070111D01*
X0345324Y0069948D01*
X0344991Y0069777D01*
X0344662Y0069597D01*
X0344337Y0069410D01*
X0344017Y0069214D01*
X0343702Y0069011D01*
X0343392Y0068801D01*
X0343087Y0068583D01*
X0342788Y0068357D01*
X0342494Y0068124D01*
X0342206Y0067885D01*
X0341924Y0067638D01*
X0341648Y0067384D01*
X0341378Y0067124D01*
X0341115Y0066857D01*
X0340858Y0066584D01*
X0340608Y0066305D01*
X0340365Y0066020D01*
X0340129Y0065729D01*
X0339900Y0065432D01*
X0339678Y0065130D01*
X0339464Y0064822D01*
X0339257Y0064510D01*
X0339058Y0064192D01*
X0338867Y0063870D01*
X0338684Y0063543D01*
X0338508Y0063211D01*
X0338341Y0062876D01*
X0338182Y0062537D01*
X0338031Y0062193D01*
X0337889Y0061847D01*
X0337755Y0061497D01*
X0337630Y0061143D01*
X0337514Y0060787D01*
X0337406Y0060428D01*
X0337307Y0060067D01*
X0337216Y0059703D01*
X0336866Y0059784D01*
X0336866Y0059785D01*
X0336958Y0060157D01*
X0337060Y0060527D01*
X0337170Y0060894D01*
X0337289Y0061259D01*
X0337417Y0061620D01*
X0337554Y0061979D01*
X0337700Y0062334D01*
X0337854Y0062685D01*
X0338017Y0063032D01*
X0338188Y0063376D01*
X0338367Y0063715D01*
X0338555Y0064049D01*
X0338751Y0064379D01*
X0338954Y0064704D01*
X0339166Y0065024D01*
X0339385Y0065339D01*
X0339612Y0065648D01*
X0339846Y0065952D01*
X0340088Y0066250D01*
X0340337Y0066542D01*
X0340593Y0066827D01*
X0340855Y0067107D01*
X0341125Y0067380D01*
X0341401Y0067646D01*
X0341684Y0067906D01*
X0341972Y0068158D01*
X0342267Y0068404D01*
X0342568Y0068642D01*
X0342874Y0068873D01*
X0343186Y0069096D01*
X0343503Y0069311D01*
X0343826Y0069519D01*
X0344153Y0069719D01*
X0344485Y0069911D01*
X0344822Y0070095D01*
X0345163Y0070270D01*
X0345508Y0070437D01*
X0345858Y0070596D01*
X0346211Y0070746D01*
X0346567Y0070887D01*
X0346927Y0071020D01*
X0347290Y0071144D01*
X0347656Y0071259D01*
X0348025Y0071365D01*
X0348396Y0071462D01*
X0348769Y0071550D01*
X0349145Y0071629D01*
X0349522Y0071699D01*
X0349901Y0071759D01*
X0350281Y0071810D01*
X0350662Y0071852D01*
X0351044Y0071885D01*
X0351427Y0071908D01*
X0351810Y0071922D01*
X0352194Y0071927D01*
X0352578Y0071922D01*
X0352961Y0071908D01*
X0353344Y0071885D01*
X0353726Y0071852D01*
X0354107Y0071810D01*
X0354487Y0071759D01*
X0354866Y0071699D01*
X0355243Y0071629D01*
X0355619Y0071550D01*
X0355992Y0071462D01*
X0356363Y0071365D01*
X0356732Y0071259D01*
X0357098Y0071144D01*
X0357461Y0071020D01*
X0357821Y0070887D01*
X0358177Y0070746D01*
X0358530Y0070596D01*
X0358880Y0070437D01*
X0359225Y0070270D01*
X0359566Y0070095D01*
X0359903Y0069911D01*
X0360235Y0069719D01*
X0360562Y0069519D01*
X0360885Y0069311D01*
X0361202Y0069096D01*
X0361514Y0068873D01*
X0361820Y0068642D01*
X0362121Y0068404D01*
X0362416Y0068158D01*
X0362704Y0067906D01*
X0362987Y0067646D01*
X0363263Y0067380D01*
X0363533Y0067107D01*
X0363795Y0066827D01*
X0364051Y0066542D01*
X0364300Y0066250D01*
X0364542Y0065952D01*
X0364776Y0065648D01*
X0365003Y0065339D01*
X0365222Y0065024D01*
X0365434Y0064704D01*
X0365637Y0064379D01*
X0365833Y0064049D01*
X0366021Y0063715D01*
X0366200Y0063376D01*
X0366371Y0063032D01*
X0366534Y0062685D01*
X0366688Y0062334D01*
X0366834Y0061979D01*
X0366971Y0061620D01*
X0367099Y0061259D01*
X0367218Y0060894D01*
X0367328Y0060527D01*
X0367430Y0060157D01*
X0367522Y0059785D01*
X0367486Y0059776D01*
X0367394Y0060148D01*
X0367293Y0060517D01*
X0367183Y0060883D01*
X0367064Y0061247D01*
X0366936Y0061608D01*
X0366799Y0061965D01*
X0366654Y0062319D01*
X0366500Y0062670D01*
X0366338Y0063016D01*
X0366167Y0063359D01*
X0365988Y0063697D01*
X0365801Y0064031D01*
X0365606Y0064360D01*
X0365403Y0064684D01*
X0365192Y0065003D01*
X0364973Y0065317D01*
X0364746Y0065626D01*
X0364513Y0065929D01*
X0364272Y0066226D01*
X0364023Y0066517D01*
X0363768Y0066802D01*
X0363506Y0067081D01*
X0363237Y0067354D01*
X0362962Y0067619D01*
X0362680Y0067878D01*
X0362392Y0068130D01*
X0362098Y0068375D01*
X0361798Y0068613D01*
X0361492Y0068843D01*
X0361181Y0069066D01*
X0360864Y0069281D01*
X0360543Y0069488D01*
X0360216Y0069687D01*
X0359885Y0069879D01*
X0359549Y0070062D01*
X0359208Y0070237D01*
X0358864Y0070404D01*
X0358515Y0070562D01*
X0358163Y0070712D01*
X0357808Y0070853D01*
X0357448Y0070985D01*
X0357086Y0071109D01*
X0356721Y0071224D01*
X0356353Y0071329D01*
X0355983Y0071426D01*
X0355611Y0071514D01*
X0355236Y0071593D01*
X0354860Y0071662D01*
X0354482Y0071722D01*
X0354103Y0071774D01*
X0353722Y0071815D01*
X0353341Y0071848D01*
X0352959Y0071871D01*
X0352577Y0071885D01*
X0352194Y0071890D01*
X0351811Y0071885D01*
X0351429Y0071871D01*
X0351047Y0071848D01*
X0350666Y0071815D01*
X0350285Y0071774D01*
X0349906Y0071722D01*
X0349528Y0071662D01*
X0349152Y0071593D01*
X0348777Y0071514D01*
X0348405Y0071426D01*
X0348035Y0071329D01*
X0347667Y0071224D01*
X0347302Y0071109D01*
X0346940Y0070985D01*
X0346580Y0070853D01*
X0346225Y0070712D01*
X0345873Y0070562D01*
X0345524Y0070404D01*
X0345180Y0070237D01*
X0344839Y0070062D01*
X0344503Y0069879D01*
X0344172Y0069687D01*
X0343845Y0069488D01*
X0343524Y0069281D01*
X0343207Y0069066D01*
X0342896Y0068843D01*
X0342590Y0068613D01*
X0342290Y0068375D01*
X0341996Y0068130D01*
X0341708Y0067878D01*
X0341426Y0067619D01*
X0341151Y0067354D01*
X0340882Y0067081D01*
X0340620Y0066802D01*
X0340365Y0066517D01*
X0340116Y0066226D01*
X0339875Y0065929D01*
X0339642Y0065626D01*
X0339415Y0065317D01*
X0339196Y0065003D01*
X0338985Y0064684D01*
X0338782Y0064360D01*
X0338587Y0064031D01*
X0338400Y0063697D01*
X0338221Y0063359D01*
X0338050Y0063016D01*
X0337888Y0062670D01*
X0337734Y0062319D01*
X0337589Y0061965D01*
X0337452Y0061608D01*
X0337324Y0061247D01*
X0337205Y0060883D01*
X0337095Y0060517D01*
X0336994Y0060148D01*
X0336902Y0059776D01*
X0336938Y0059768D01*
X0337030Y0060138D01*
X0337131Y0060507D01*
X0337241Y0060872D01*
X0337359Y0061235D01*
X0337487Y0061595D01*
X0337623Y0061952D01*
X0337768Y0062305D01*
X0337921Y0062654D01*
X0338083Y0063000D01*
X0338254Y0063342D01*
X0338432Y0063679D01*
X0338619Y0064012D01*
X0338814Y0064341D01*
X0339016Y0064664D01*
X0339227Y0064983D01*
X0339445Y0065296D01*
X0339671Y0065604D01*
X0339904Y0065906D01*
X0340145Y0066202D01*
X0340393Y0066493D01*
X0340647Y0066777D01*
X0340909Y0067056D01*
X0341177Y0067327D01*
X0341452Y0067592D01*
X0341733Y0067851D01*
X0342020Y0068102D01*
X0342314Y0068346D01*
X0342613Y0068583D01*
X0342918Y0068813D01*
X0343228Y0069035D01*
X0343544Y0069250D01*
X0343865Y0069457D01*
X0344191Y0069656D01*
X0344522Y0069846D01*
X0344857Y0070029D01*
X0345196Y0070204D01*
X0345540Y0070370D01*
X0345887Y0070528D01*
X0346239Y0070677D01*
X0346594Y0070818D01*
X0346952Y0070950D01*
X0347313Y0071074D01*
X0347677Y0071188D01*
X0348044Y0071294D01*
X0348414Y0071390D01*
X0348785Y0071478D01*
X0349159Y0071556D01*
X0349534Y0071626D01*
X0349911Y0071686D01*
X0350290Y0071737D01*
X0350669Y0071779D01*
X0351050Y0071811D01*
X0351431Y0071834D01*
X0351812Y0071848D01*
X0352194Y0071853D01*
X0352576Y0071848D01*
X0352957Y0071834D01*
X0353338Y0071811D01*
X0353719Y0071779D01*
X0354098Y0071737D01*
X0354477Y0071686D01*
X0354854Y0071626D01*
X0355229Y0071556D01*
X0355603Y0071478D01*
X0355974Y0071390D01*
X0356344Y0071294D01*
X0356711Y0071188D01*
X0357075Y0071074D01*
X0357436Y0070950D01*
X0357794Y0070818D01*
X0358149Y0070677D01*
X0358501Y0070528D01*
X0358848Y0070370D01*
X0359192Y0070204D01*
X0359531Y0070029D01*
X0359866Y0069846D01*
X0360197Y0069656D01*
X0360523Y0069457D01*
X0360844Y0069250D01*
X0361160Y0069035D01*
X0361470Y0068813D01*
X0361775Y0068583D01*
X0362074Y0068346D01*
X0362368Y0068102D01*
X0362655Y0067851D01*
X0362936Y0067592D01*
X0363211Y0067327D01*
X0363479Y0067056D01*
X0363741Y0066777D01*
X0363995Y0066493D01*
X0364243Y0066202D01*
X0364484Y0065906D01*
X0364717Y0065604D01*
X0364943Y0065296D01*
X0365161Y0064983D01*
X0365372Y0064664D01*
X0365574Y0064341D01*
X0365769Y0064012D01*
X0365956Y0063679D01*
X0366134Y0063342D01*
X0366305Y0063000D01*
X0366467Y0062654D01*
X0366620Y0062305D01*
X0366765Y0061952D01*
X0366901Y0061595D01*
X0367029Y0061235D01*
X0367147Y0060872D01*
X0367257Y0060507D01*
X0367358Y0060138D01*
X0367450Y0059768D01*
X0367414Y0059759D01*
X0367322Y0060129D01*
X0367222Y0060496D01*
X0367112Y0060861D01*
X0366994Y0061223D01*
X0366866Y0061582D01*
X0366730Y0061938D01*
X0366586Y0062290D01*
X0366433Y0062639D01*
X0366271Y0062984D01*
X0366101Y0063325D01*
X0365923Y0063662D01*
X0365737Y0063994D01*
X0365543Y0064321D01*
X0365340Y0064644D01*
X0365130Y0064962D01*
X0364913Y0065274D01*
X0364687Y0065582D01*
X0364455Y0065883D01*
X0364215Y0066179D01*
X0363968Y0066469D01*
X0363713Y0066752D01*
X0363453Y0067030D01*
X0363185Y0067301D01*
X0362911Y0067565D01*
X0362630Y0067823D01*
X0362344Y0068074D01*
X0362051Y0068317D01*
X0361752Y0068554D01*
X0361448Y0068783D01*
X0361138Y0069005D01*
X0360823Y0069219D01*
X0360503Y0069425D01*
X0360178Y0069624D01*
X0359848Y0069814D01*
X0359514Y0069997D01*
X0359175Y0070171D01*
X0358832Y0070337D01*
X0358486Y0070494D01*
X0358135Y0070643D01*
X0357781Y0070784D01*
X0357424Y0070915D01*
X0357063Y0071038D01*
X0356700Y0071153D01*
X0356334Y0071258D01*
X0355965Y0071354D01*
X0355595Y0071442D01*
X0355222Y0071520D01*
X0354847Y0071589D01*
X0354471Y0071649D01*
X0354094Y0071700D01*
X0353715Y0071742D01*
X0353336Y0071774D01*
X0352955Y0071797D01*
X0352575Y0071811D01*
X0352194Y0071816D01*
X0351813Y0071811D01*
X0351433Y0071797D01*
X0351052Y0071774D01*
X0350673Y0071742D01*
X0350294Y0071700D01*
X0349917Y0071649D01*
X0349541Y0071589D01*
X0349166Y0071520D01*
X0348793Y0071442D01*
X0348423Y0071354D01*
X0348054Y0071258D01*
X0347688Y0071153D01*
X0347325Y0071038D01*
X0346964Y0070915D01*
X0346607Y0070784D01*
X0346253Y0070643D01*
X0345902Y0070494D01*
X0345556Y0070337D01*
X0345213Y0070171D01*
X0344874Y0069997D01*
X0344540Y0069814D01*
X0344210Y0069624D01*
X0343885Y0069425D01*
X0343565Y0069219D01*
X0343250Y0069005D01*
X0342940Y0068783D01*
X0342636Y0068554D01*
X0342337Y0068317D01*
X0342044Y0068074D01*
X0341758Y0067823D01*
X0341477Y0067565D01*
X0341203Y0067301D01*
X0340935Y0067030D01*
X0340675Y0066752D01*
X0340420Y0066469D01*
X0340173Y0066179D01*
X0339933Y0065883D01*
X0339701Y0065582D01*
X0339475Y0065274D01*
X0339258Y0064962D01*
X0339048Y0064644D01*
X0338845Y0064321D01*
X0338651Y0063994D01*
X0338465Y0063662D01*
X0338287Y0063325D01*
X0338117Y0062984D01*
X0337955Y0062639D01*
X0337802Y0062290D01*
X0337658Y0061938D01*
X0337522Y0061582D01*
X0337394Y0061223D01*
X0337276Y0060861D01*
X0337166Y0060496D01*
X0337066Y0060129D01*
X0336974Y0059759D01*
X0337010Y0059751D01*
X0337102Y0060120D01*
X0337202Y0060486D01*
X0337311Y0060850D01*
X0337429Y0061211D01*
X0337556Y0061570D01*
X0337692Y0061924D01*
X0337836Y0062276D01*
X0337989Y0062624D01*
X0338150Y0062968D01*
X0338320Y0063308D01*
X0338497Y0063644D01*
X0338683Y0063975D01*
X0338877Y0064302D01*
X0339079Y0064624D01*
X0339288Y0064941D01*
X0339506Y0065253D01*
X0339730Y0065559D01*
X0339962Y0065860D01*
X0340202Y0066155D01*
X0340448Y0066444D01*
X0340702Y0066727D01*
X0340962Y0067004D01*
X0341229Y0067275D01*
X0341503Y0067538D01*
X0341782Y0067795D01*
X0342068Y0068046D01*
X0342360Y0068289D01*
X0342658Y0068525D01*
X0342962Y0068753D01*
X0343271Y0068975D01*
X0343585Y0069188D01*
X0343904Y0069394D01*
X0344229Y0069592D01*
X0344558Y0069782D01*
X0344891Y0069964D01*
X0345229Y0070138D01*
X0345571Y0070303D01*
X0345917Y0070460D01*
X0346267Y0070609D01*
X0346620Y0070749D01*
X0346977Y0070881D01*
X0347336Y0071003D01*
X0347699Y0071117D01*
X0348064Y0071222D01*
X0348432Y0071318D01*
X0348801Y0071406D01*
X0349173Y0071484D01*
X0349547Y0071553D01*
X0349922Y0071613D01*
X0350299Y0071663D01*
X0350676Y0071705D01*
X0351055Y0071737D01*
X0351434Y0071760D01*
X0351814Y0071774D01*
X0352194Y0071779D01*
X0352574Y0071774D01*
X0352954Y0071760D01*
X0353333Y0071737D01*
X0353712Y0071705D01*
X0354089Y0071663D01*
X0354466Y0071613D01*
X0354841Y0071553D01*
X0355215Y0071484D01*
X0355587Y0071406D01*
X0355956Y0071318D01*
X0356324Y0071222D01*
X0356689Y0071117D01*
X0357052Y0071003D01*
X0357411Y0070881D01*
X0357768Y0070749D01*
X0358121Y0070609D01*
X0358471Y0070460D01*
X0358817Y0070303D01*
X0359159Y0070138D01*
X0359497Y0069964D01*
X0359830Y0069782D01*
X0360159Y0069592D01*
X0360484Y0069394D01*
X0360803Y0069188D01*
X0361117Y0068975D01*
X0361426Y0068753D01*
X0361730Y0068525D01*
X0362028Y0068289D01*
X0362320Y0068046D01*
X0362606Y0067795D01*
X0362885Y0067538D01*
X0363159Y0067275D01*
X0363426Y0067004D01*
X0363686Y0066727D01*
X0363940Y0066444D01*
X0364186Y0066155D01*
X0364426Y0065860D01*
X0364658Y0065559D01*
X0364882Y0065253D01*
X0365100Y0064941D01*
X0365309Y0064624D01*
X0365511Y0064302D01*
X0365705Y0063975D01*
X0365891Y0063644D01*
X0366068Y0063308D01*
X0366238Y0062968D01*
X0366399Y0062624D01*
X0366552Y0062276D01*
X0366696Y0061924D01*
X0366832Y0061570D01*
X0366959Y0061211D01*
X0367077Y0060850D01*
X0367186Y0060486D01*
X0367286Y0060120D01*
X0367378Y0059751D01*
X0367342Y0059743D01*
X0367251Y0060111D01*
X0367150Y0060476D01*
X0367041Y0060839D01*
X0366924Y0061199D01*
X0366797Y0061557D01*
X0366662Y0061911D01*
X0366518Y0062262D01*
X0366365Y0062609D01*
X0366205Y0062952D01*
X0366036Y0063291D01*
X0365858Y0063626D01*
X0365673Y0063957D01*
X0365479Y0064283D01*
X0365278Y0064604D01*
X0365069Y0064920D01*
X0364852Y0065231D01*
X0364628Y0065537D01*
X0364397Y0065837D01*
X0364158Y0066132D01*
X0363912Y0066420D01*
X0363659Y0066702D01*
X0363399Y0066979D01*
X0363133Y0067248D01*
X0362860Y0067512D01*
X0362581Y0067768D01*
X0362296Y0068018D01*
X0362004Y0068260D01*
X0361707Y0068495D01*
X0361404Y0068724D01*
X0361096Y0068944D01*
X0360782Y0069157D01*
X0360464Y0069363D01*
X0360140Y0069560D01*
X0359812Y0069750D01*
X0359479Y0069931D01*
X0359142Y0070105D01*
X0358801Y0070270D01*
X0358456Y0070427D01*
X0358107Y0070575D01*
X0357755Y0070715D01*
X0357399Y0070846D01*
X0357040Y0070968D01*
X0356679Y0071082D01*
X0356314Y0071187D01*
X0355947Y0071283D01*
X0355578Y0071369D01*
X0355208Y0071447D01*
X0354835Y0071516D01*
X0354460Y0071576D01*
X0354085Y0071627D01*
X0353708Y0071668D01*
X0353330Y0071700D01*
X0352952Y0071724D01*
X0352573Y0071737D01*
X0352194Y0071742D01*
X0351815Y0071737D01*
X0351436Y0071724D01*
X0351058Y0071700D01*
X0350680Y0071668D01*
X0350303Y0071627D01*
X0349928Y0071576D01*
X0349553Y0071516D01*
X0349180Y0071447D01*
X0348810Y0071369D01*
X0348441Y0071283D01*
X0348074Y0071187D01*
X0347709Y0071082D01*
X0347348Y0070968D01*
X0346989Y0070846D01*
X0346633Y0070715D01*
X0346281Y0070575D01*
X0345932Y0070427D01*
X0345587Y0070270D01*
X0345246Y0070105D01*
X0344909Y0069931D01*
X0344576Y0069750D01*
X0344248Y0069560D01*
X0343924Y0069363D01*
X0343606Y0069157D01*
X0343292Y0068944D01*
X0342984Y0068724D01*
X0342681Y0068495D01*
X0342384Y0068260D01*
X0342092Y0068018D01*
X0341807Y0067768D01*
X0341528Y0067512D01*
X0341255Y0067248D01*
X0340989Y0066979D01*
X0340729Y0066702D01*
X0340476Y0066420D01*
X0340230Y0066132D01*
X0339991Y0065837D01*
X0339760Y0065537D01*
X0339536Y0065231D01*
X0339319Y0064920D01*
X0339110Y0064604D01*
X0338909Y0064283D01*
X0338715Y0063957D01*
X0338530Y0063626D01*
X0338352Y0063291D01*
X0338183Y0062952D01*
X0338023Y0062609D01*
X0337870Y0062262D01*
X0337726Y0061911D01*
X0337591Y0061557D01*
X0337464Y0061199D01*
X0337347Y0060839D01*
X0337238Y0060476D01*
X0337137Y0060111D01*
X0337046Y0059743D01*
X0337082Y0059734D01*
X0337173Y0060101D01*
X0337273Y0060466D01*
X0337382Y0060828D01*
X0337499Y0061188D01*
X0337626Y0061544D01*
X0337761Y0061897D01*
X0337904Y0062247D01*
X0338056Y0062593D01*
X0338217Y0062936D01*
X0338385Y0063274D01*
X0338562Y0063609D01*
X0338747Y0063939D01*
X0338940Y0064264D01*
X0339141Y0064584D01*
X0339350Y0064900D01*
X0339566Y0065210D01*
X0339789Y0065515D01*
X0340020Y0065814D01*
X0340259Y0066108D01*
X0340504Y0066396D01*
X0340756Y0066677D01*
X0341015Y0066953D01*
X0341281Y0067222D01*
X0341553Y0067485D01*
X0341832Y0067740D01*
X0342116Y0067989D01*
X0342407Y0068231D01*
X0342704Y0068466D01*
X0343006Y0068694D01*
X0343313Y0068914D01*
X0343626Y0069126D01*
X0343944Y0069331D01*
X0344267Y0069528D01*
X0344594Y0069717D01*
X0344926Y0069899D01*
X0345262Y0070072D01*
X0345603Y0070236D01*
X0345947Y0070393D01*
X0346295Y0070541D01*
X0346647Y0070680D01*
X0347001Y0070811D01*
X0347359Y0070933D01*
X0347720Y0071046D01*
X0348084Y0071151D01*
X0348449Y0071247D01*
X0348818Y0071333D01*
X0349188Y0071411D01*
X0349560Y0071480D01*
X0349933Y0071539D01*
X0350308Y0071590D01*
X0350684Y0071631D01*
X0351060Y0071664D01*
X0351438Y0071687D01*
X0351816Y0071700D01*
X0352194Y0071705D01*
X0352572Y0071700D01*
X0352950Y0071687D01*
X0353328Y0071664D01*
X0353704Y0071631D01*
X0354080Y0071590D01*
X0354455Y0071539D01*
X0354828Y0071480D01*
X0355200Y0071411D01*
X0355570Y0071333D01*
X0355939Y0071247D01*
X0356304Y0071151D01*
X0356668Y0071046D01*
X0357029Y0070933D01*
X0357387Y0070811D01*
X0357741Y0070680D01*
X0358093Y0070541D01*
X0358441Y0070393D01*
X0358785Y0070236D01*
X0359126Y0070072D01*
X0359462Y0069899D01*
X0359794Y0069717D01*
X0360121Y0069528D01*
X0360444Y0069331D01*
X0360762Y0069126D01*
X0361075Y0068914D01*
X0361382Y0068694D01*
X0361684Y0068466D01*
X0361981Y0068231D01*
X0362272Y0067989D01*
X0362556Y0067740D01*
X0362835Y0067485D01*
X0363107Y0067222D01*
X0363373Y0066953D01*
X0363632Y0066677D01*
X0363884Y0066396D01*
X0364129Y0066108D01*
X0364368Y0065814D01*
X0364599Y0065515D01*
X0364822Y0065210D01*
X0365038Y0064900D01*
X0365247Y0064584D01*
X0365448Y0064264D01*
X0365641Y0063939D01*
X0365826Y0063609D01*
X0366003Y0063274D01*
X0366171Y0062936D01*
X0366332Y0062593D01*
X0366484Y0062247D01*
X0366627Y0061897D01*
X0366762Y0061544D01*
X0366889Y0061188D01*
X0367006Y0060828D01*
X0367115Y0060466D01*
X0367215Y0060101D01*
X0367306Y0059734D01*
X0367270Y0059726D01*
X0367179Y0060092D01*
X0367079Y0060456D01*
X0366971Y0060817D01*
X0366853Y0061176D01*
X0366727Y0061531D01*
X0366593Y0061884D01*
X0366450Y0062233D01*
X0366298Y0062578D01*
X0366138Y0062920D01*
X0365970Y0063258D01*
X0365793Y0063591D01*
X0365609Y0063920D01*
X0365416Y0064245D01*
X0365216Y0064564D01*
X0365008Y0064879D01*
X0364792Y0065188D01*
X0364569Y0065493D01*
X0364338Y0065791D01*
X0364101Y0066084D01*
X0363856Y0066371D01*
X0363604Y0066652D01*
X0363346Y0066927D01*
X0363081Y0067196D01*
X0362809Y0067458D01*
X0362531Y0067713D01*
X0362247Y0067961D01*
X0361958Y0068203D01*
X0361662Y0068437D01*
X0361360Y0068664D01*
X0361054Y0068884D01*
X0360742Y0069096D01*
X0360424Y0069300D01*
X0360102Y0069497D01*
X0359776Y0069685D01*
X0359445Y0069866D01*
X0359109Y0070038D01*
X0358770Y0070203D01*
X0358426Y0070359D01*
X0358079Y0070506D01*
X0357728Y0070645D01*
X0357374Y0070776D01*
X0357017Y0070898D01*
X0356657Y0071011D01*
X0356295Y0071115D01*
X0355930Y0071211D01*
X0355562Y0071297D01*
X0355193Y0071375D01*
X0354822Y0071443D01*
X0354450Y0071503D01*
X0354076Y0071553D01*
X0353701Y0071595D01*
X0353325Y0071627D01*
X0352948Y0071650D01*
X0352571Y0071663D01*
X0352194Y0071668D01*
X0351817Y0071663D01*
X0351440Y0071650D01*
X0351063Y0071627D01*
X0350687Y0071595D01*
X0350312Y0071553D01*
X0349938Y0071503D01*
X0349566Y0071443D01*
X0349195Y0071375D01*
X0348826Y0071297D01*
X0348458Y0071211D01*
X0348093Y0071115D01*
X0347731Y0071011D01*
X0347371Y0070898D01*
X0347014Y0070776D01*
X0346660Y0070645D01*
X0346309Y0070506D01*
X0345962Y0070359D01*
X0345618Y0070203D01*
X0345279Y0070038D01*
X0344943Y0069866D01*
X0344612Y0069685D01*
X0344286Y0069497D01*
X0343964Y0069300D01*
X0343646Y0069096D01*
X0343334Y0068884D01*
X0343028Y0068664D01*
X0342726Y0068437D01*
X0342430Y0068203D01*
X0342141Y0067961D01*
X0341857Y0067713D01*
X0341579Y0067458D01*
X0341307Y0067196D01*
X0341042Y0066927D01*
X0340784Y0066652D01*
X0340532Y0066371D01*
X0340287Y0066084D01*
X0340050Y0065791D01*
X0339819Y0065493D01*
X0339596Y0065188D01*
X0339380Y0064879D01*
X0339172Y0064564D01*
X0338972Y0064245D01*
X0338779Y0063920D01*
X0338595Y0063591D01*
X0338418Y0063258D01*
X0338250Y0062920D01*
X0338090Y0062578D01*
X0337938Y0062233D01*
X0337795Y0061884D01*
X0337661Y0061531D01*
X0337535Y0061176D01*
X0337417Y0060817D01*
X0337309Y0060456D01*
X0337209Y0060092D01*
X0337118Y0059726D01*
X0337154Y0059717D01*
X0337245Y0060083D01*
X0337344Y0060446D01*
X0337453Y0060806D01*
X0337570Y0061164D01*
X0337695Y0061519D01*
X0337830Y0061870D01*
X0337972Y0062218D01*
X0338124Y0062563D01*
X0338283Y0062904D01*
X0338451Y0063241D01*
X0338627Y0063573D01*
X0338811Y0063902D01*
X0339003Y0064225D01*
X0339203Y0064544D01*
X0339411Y0064858D01*
X0339626Y0065167D01*
X0339849Y0065470D01*
X0340079Y0065768D01*
X0340316Y0066061D01*
X0340560Y0066347D01*
X0340811Y0066627D01*
X0341069Y0066902D01*
X0341333Y0067169D01*
X0341604Y0067431D01*
X0341881Y0067685D01*
X0342165Y0067933D01*
X0342454Y0068174D01*
X0342749Y0068408D01*
X0343049Y0068634D01*
X0343356Y0068853D01*
X0343667Y0069065D01*
X0343983Y0069269D01*
X0344304Y0069465D01*
X0344630Y0069653D01*
X0344961Y0069833D01*
X0345295Y0070005D01*
X0345634Y0070169D01*
X0345977Y0070325D01*
X0346323Y0070472D01*
X0346673Y0070611D01*
X0347026Y0070741D01*
X0347382Y0070863D01*
X0347742Y0070976D01*
X0348103Y0071080D01*
X0348467Y0071175D01*
X0348834Y0071261D01*
X0349202Y0071339D01*
X0349572Y0071407D01*
X0349944Y0071466D01*
X0350317Y0071517D01*
X0350691Y0071558D01*
X0351066Y0071590D01*
X0351442Y0071613D01*
X0351818Y0071626D01*
X0352194Y0071631D01*
X0352570Y0071626D01*
X0352946Y0071613D01*
X0353322Y0071590D01*
X0353697Y0071558D01*
X0354071Y0071517D01*
X0354444Y0071466D01*
X0354816Y0071407D01*
X0355186Y0071339D01*
X0355554Y0071261D01*
X0355921Y0071175D01*
X0356285Y0071080D01*
X0356646Y0070976D01*
X0357006Y0070863D01*
X0357362Y0070741D01*
X0357715Y0070611D01*
X0358065Y0070472D01*
X0358411Y0070325D01*
X0358754Y0070169D01*
X0359093Y0070005D01*
X0359427Y0069833D01*
X0359758Y0069653D01*
X0360084Y0069465D01*
X0360405Y0069269D01*
X0360721Y0069065D01*
X0361032Y0068853D01*
X0361339Y0068634D01*
X0361639Y0068408D01*
X0361934Y0068174D01*
X0362223Y0067933D01*
X0362507Y0067685D01*
X0362784Y0067431D01*
X0363055Y0067169D01*
X0363319Y0066902D01*
X0363577Y0066627D01*
X0363828Y0066347D01*
X0364072Y0066061D01*
X0364309Y0065768D01*
X0364539Y0065470D01*
X0364762Y0065167D01*
X0364977Y0064858D01*
X0365185Y0064544D01*
X0365385Y0064225D01*
X0365577Y0063902D01*
X0365761Y0063573D01*
X0365937Y0063241D01*
X0366105Y0062904D01*
X0366264Y0062563D01*
X0366416Y0062218D01*
X0366558Y0061870D01*
X0366693Y0061519D01*
X0366818Y0061164D01*
X0366935Y0060806D01*
X0367044Y0060446D01*
X0367143Y0060083D01*
X0367234Y0059717D01*
X0367198Y0059709D01*
X0367107Y0060073D01*
X0367008Y0060435D01*
X0366900Y0060795D01*
X0366783Y0061152D01*
X0366658Y0061506D01*
X0366524Y0061857D01*
X0366381Y0062204D01*
X0366231Y0062548D01*
X0366071Y0062888D01*
X0365904Y0063224D01*
X0365728Y0063556D01*
X0365545Y0063883D01*
X0365353Y0064206D01*
X0365154Y0064524D01*
X0364947Y0064837D01*
X0364732Y0065145D01*
X0364510Y0065448D01*
X0364280Y0065745D01*
X0364044Y0066037D01*
X0363800Y0066323D01*
X0363550Y0066602D01*
X0363293Y0066876D01*
X0363029Y0067143D01*
X0362759Y0067404D01*
X0362482Y0067658D01*
X0362199Y0067905D01*
X0361911Y0068145D01*
X0361617Y0068378D01*
X0361317Y0068604D01*
X0361011Y0068823D01*
X0360701Y0069034D01*
X0360385Y0069237D01*
X0360065Y0069433D01*
X0359740Y0069621D01*
X0359410Y0069801D01*
X0359076Y0069972D01*
X0358738Y0070136D01*
X0358396Y0070291D01*
X0358051Y0070438D01*
X0357702Y0070576D01*
X0357349Y0070706D01*
X0356994Y0070828D01*
X0356636Y0070940D01*
X0356275Y0071044D01*
X0355912Y0071139D01*
X0355546Y0071225D01*
X0355179Y0071302D01*
X0354810Y0071370D01*
X0354439Y0071430D01*
X0354067Y0071480D01*
X0353694Y0071521D01*
X0353319Y0071553D01*
X0352945Y0071576D01*
X0352569Y0071589D01*
X0352194Y0071594D01*
X0351819Y0071589D01*
X0351443Y0071576D01*
X0351069Y0071553D01*
X0350694Y0071521D01*
X0350321Y0071480D01*
X0349949Y0071430D01*
X0349578Y0071370D01*
X0349209Y0071302D01*
X0348842Y0071225D01*
X0348476Y0071139D01*
X0348113Y0071044D01*
X0347752Y0070940D01*
X0347394Y0070828D01*
X0347039Y0070706D01*
X0346686Y0070576D01*
X0346337Y0070438D01*
X0345992Y0070291D01*
X0345650Y0070136D01*
X0345312Y0069972D01*
X0344978Y0069801D01*
X0344648Y0069621D01*
X0344323Y0069433D01*
X0344003Y0069237D01*
X0343687Y0069034D01*
X0343377Y0068823D01*
X0343071Y0068604D01*
X0342771Y0068378D01*
X0342477Y0068145D01*
X0342189Y0067905D01*
X0341906Y0067658D01*
X0341629Y0067404D01*
X0341359Y0067143D01*
X0341095Y0066876D01*
X0340838Y0066602D01*
X0340588Y0066323D01*
X0340344Y0066037D01*
X0340108Y0065745D01*
X0339878Y0065448D01*
X0339656Y0065145D01*
X0339441Y0064837D01*
X0339234Y0064524D01*
X0339035Y0064206D01*
X0338843Y0063883D01*
X0338660Y0063556D01*
X0338484Y0063224D01*
X0338317Y0062888D01*
X0338157Y0062548D01*
X0338007Y0062204D01*
X0337864Y0061857D01*
X0337730Y0061506D01*
X0337605Y0061152D01*
X0337488Y0060795D01*
X0337380Y0060435D01*
X0337281Y0060073D01*
X0337190Y0059709D01*
X0266000Y0154940D02*
X0266351Y0155022D01*
X0266350Y0155021D02*
X0266441Y0154657D01*
X0266540Y0154296D01*
X0266648Y0153937D01*
X0266764Y0153581D01*
X0266889Y0153227D01*
X0267023Y0152877D01*
X0267165Y0152531D01*
X0267316Y0152187D01*
X0267475Y0151848D01*
X0267642Y0151513D01*
X0267818Y0151181D01*
X0268001Y0150854D01*
X0268192Y0150532D01*
X0268391Y0150214D01*
X0268598Y0149902D01*
X0268812Y0149594D01*
X0269034Y0149292D01*
X0269263Y0148995D01*
X0269499Y0148704D01*
X0269742Y0148419D01*
X0269992Y0148140D01*
X0270249Y0147867D01*
X0270512Y0147600D01*
X0270782Y0147340D01*
X0271058Y0147086D01*
X0271340Y0146839D01*
X0271628Y0146600D01*
X0271922Y0146367D01*
X0272221Y0146141D01*
X0272526Y0145923D01*
X0272836Y0145713D01*
X0273151Y0145510D01*
X0273471Y0145314D01*
X0273796Y0145127D01*
X0274125Y0144947D01*
X0274458Y0144776D01*
X0274795Y0144613D01*
X0275137Y0144458D01*
X0275482Y0144311D01*
X0275830Y0144173D01*
X0276182Y0144043D01*
X0276536Y0143922D01*
X0276894Y0143810D01*
X0277254Y0143706D01*
X0277617Y0143611D01*
X0277982Y0143525D01*
X0278348Y0143448D01*
X0278717Y0143380D01*
X0279087Y0143321D01*
X0279459Y0143271D01*
X0279831Y0143230D01*
X0280205Y0143198D01*
X0280579Y0143175D01*
X0280953Y0143162D01*
X0281328Y0143157D01*
X0281703Y0143162D01*
X0282077Y0143175D01*
X0282451Y0143198D01*
X0282825Y0143230D01*
X0283197Y0143271D01*
X0283569Y0143321D01*
X0283939Y0143380D01*
X0284308Y0143448D01*
X0284674Y0143525D01*
X0285039Y0143611D01*
X0285402Y0143706D01*
X0285762Y0143810D01*
X0286120Y0143922D01*
X0286474Y0144043D01*
X0286826Y0144173D01*
X0287174Y0144311D01*
X0287519Y0144458D01*
X0287861Y0144613D01*
X0288198Y0144776D01*
X0288531Y0144947D01*
X0288860Y0145127D01*
X0289185Y0145314D01*
X0289505Y0145510D01*
X0289820Y0145713D01*
X0290130Y0145923D01*
X0290435Y0146141D01*
X0290734Y0146367D01*
X0291028Y0146600D01*
X0291316Y0146839D01*
X0291598Y0147086D01*
X0291874Y0147340D01*
X0292144Y0147600D01*
X0292407Y0147867D01*
X0292664Y0148140D01*
X0292914Y0148419D01*
X0293157Y0148704D01*
X0293393Y0148995D01*
X0293622Y0149292D01*
X0293844Y0149594D01*
X0294058Y0149902D01*
X0294265Y0150214D01*
X0294464Y0150532D01*
X0294655Y0150854D01*
X0294838Y0151181D01*
X0295014Y0151513D01*
X0295181Y0151848D01*
X0295340Y0152187D01*
X0295491Y0152531D01*
X0295633Y0152877D01*
X0295767Y0153227D01*
X0295892Y0153581D01*
X0296008Y0153937D01*
X0296116Y0154296D01*
X0296215Y0154657D01*
X0296306Y0155021D01*
X0296656Y0154940D01*
X0296656Y0154939D01*
X0296564Y0154567D01*
X0296462Y0154197D01*
X0296352Y0153830D01*
X0296233Y0153465D01*
X0296105Y0153104D01*
X0295968Y0152745D01*
X0295822Y0152390D01*
X0295668Y0152039D01*
X0295505Y0151692D01*
X0295334Y0151348D01*
X0295155Y0151009D01*
X0294967Y0150675D01*
X0294771Y0150345D01*
X0294568Y0150020D01*
X0294356Y0149700D01*
X0294137Y0149385D01*
X0293910Y0149076D01*
X0293676Y0148772D01*
X0293434Y0148474D01*
X0293185Y0148182D01*
X0292929Y0147897D01*
X0292667Y0147617D01*
X0292397Y0147344D01*
X0292121Y0147078D01*
X0291838Y0146818D01*
X0291550Y0146566D01*
X0291255Y0146320D01*
X0290954Y0146082D01*
X0290648Y0145851D01*
X0290336Y0145628D01*
X0290019Y0145413D01*
X0289696Y0145205D01*
X0289369Y0145005D01*
X0289037Y0144813D01*
X0288700Y0144629D01*
X0288359Y0144454D01*
X0288014Y0144287D01*
X0287664Y0144128D01*
X0287311Y0143978D01*
X0286955Y0143837D01*
X0286595Y0143704D01*
X0286232Y0143580D01*
X0285866Y0143465D01*
X0285497Y0143359D01*
X0285126Y0143262D01*
X0284753Y0143174D01*
X0284377Y0143095D01*
X0284000Y0143025D01*
X0283621Y0142965D01*
X0283241Y0142914D01*
X0282860Y0142872D01*
X0282478Y0142839D01*
X0282095Y0142816D01*
X0281712Y0142802D01*
X0281328Y0142797D01*
X0280944Y0142802D01*
X0280561Y0142816D01*
X0280178Y0142839D01*
X0279796Y0142872D01*
X0279415Y0142914D01*
X0279035Y0142965D01*
X0278656Y0143025D01*
X0278279Y0143095D01*
X0277903Y0143174D01*
X0277530Y0143262D01*
X0277159Y0143359D01*
X0276790Y0143465D01*
X0276424Y0143580D01*
X0276061Y0143704D01*
X0275701Y0143837D01*
X0275345Y0143978D01*
X0274992Y0144128D01*
X0274642Y0144287D01*
X0274297Y0144454D01*
X0273956Y0144629D01*
X0273619Y0144813D01*
X0273287Y0145005D01*
X0272960Y0145205D01*
X0272637Y0145413D01*
X0272320Y0145628D01*
X0272008Y0145851D01*
X0271702Y0146082D01*
X0271401Y0146320D01*
X0271106Y0146566D01*
X0270818Y0146818D01*
X0270535Y0147078D01*
X0270259Y0147344D01*
X0269989Y0147617D01*
X0269727Y0147897D01*
X0269471Y0148182D01*
X0269222Y0148474D01*
X0268980Y0148772D01*
X0268746Y0149076D01*
X0268519Y0149385D01*
X0268300Y0149700D01*
X0268088Y0150020D01*
X0267885Y0150345D01*
X0267689Y0150675D01*
X0267501Y0151009D01*
X0267322Y0151348D01*
X0267151Y0151692D01*
X0266988Y0152039D01*
X0266834Y0152390D01*
X0266688Y0152745D01*
X0266551Y0153104D01*
X0266423Y0153465D01*
X0266304Y0153830D01*
X0266194Y0154197D01*
X0266092Y0154567D01*
X0266000Y0154939D01*
X0266036Y0154948D01*
X0266128Y0154576D01*
X0266229Y0154207D01*
X0266339Y0153841D01*
X0266458Y0153477D01*
X0266586Y0153116D01*
X0266723Y0152759D01*
X0266868Y0152405D01*
X0267022Y0152054D01*
X0267184Y0151708D01*
X0267355Y0151365D01*
X0267534Y0151027D01*
X0267721Y0150693D01*
X0267916Y0150364D01*
X0268119Y0150040D01*
X0268330Y0149721D01*
X0268549Y0149407D01*
X0268776Y0149098D01*
X0269009Y0148795D01*
X0269250Y0148498D01*
X0269499Y0148207D01*
X0269754Y0147922D01*
X0270016Y0147643D01*
X0270285Y0147370D01*
X0270560Y0147105D01*
X0270842Y0146846D01*
X0271130Y0146594D01*
X0271424Y0146349D01*
X0271724Y0146111D01*
X0272030Y0145881D01*
X0272341Y0145658D01*
X0272658Y0145443D01*
X0272979Y0145236D01*
X0273306Y0145037D01*
X0273637Y0144845D01*
X0273973Y0144662D01*
X0274314Y0144487D01*
X0274658Y0144320D01*
X0275007Y0144162D01*
X0275359Y0144012D01*
X0275714Y0143871D01*
X0276074Y0143739D01*
X0276436Y0143615D01*
X0276801Y0143500D01*
X0277169Y0143395D01*
X0277539Y0143298D01*
X0277911Y0143210D01*
X0278286Y0143131D01*
X0278662Y0143062D01*
X0279040Y0143002D01*
X0279419Y0142950D01*
X0279800Y0142909D01*
X0280181Y0142876D01*
X0280563Y0142853D01*
X0280945Y0142839D01*
X0281328Y0142834D01*
X0281711Y0142839D01*
X0282093Y0142853D01*
X0282475Y0142876D01*
X0282856Y0142909D01*
X0283237Y0142950D01*
X0283616Y0143002D01*
X0283994Y0143062D01*
X0284370Y0143131D01*
X0284745Y0143210D01*
X0285117Y0143298D01*
X0285487Y0143395D01*
X0285855Y0143500D01*
X0286220Y0143615D01*
X0286582Y0143739D01*
X0286942Y0143871D01*
X0287297Y0144012D01*
X0287649Y0144162D01*
X0287998Y0144320D01*
X0288342Y0144487D01*
X0288683Y0144662D01*
X0289019Y0144845D01*
X0289350Y0145037D01*
X0289677Y0145236D01*
X0289998Y0145443D01*
X0290315Y0145658D01*
X0290626Y0145881D01*
X0290932Y0146111D01*
X0291232Y0146349D01*
X0291526Y0146594D01*
X0291814Y0146846D01*
X0292096Y0147105D01*
X0292371Y0147370D01*
X0292640Y0147643D01*
X0292902Y0147922D01*
X0293157Y0148207D01*
X0293406Y0148498D01*
X0293647Y0148795D01*
X0293880Y0149098D01*
X0294107Y0149407D01*
X0294326Y0149721D01*
X0294537Y0150040D01*
X0294740Y0150364D01*
X0294935Y0150693D01*
X0295122Y0151027D01*
X0295301Y0151365D01*
X0295472Y0151708D01*
X0295634Y0152054D01*
X0295788Y0152405D01*
X0295933Y0152759D01*
X0296070Y0153116D01*
X0296198Y0153477D01*
X0296317Y0153841D01*
X0296427Y0154207D01*
X0296528Y0154576D01*
X0296620Y0154948D01*
X0296584Y0154956D01*
X0296492Y0154586D01*
X0296391Y0154217D01*
X0296281Y0153852D01*
X0296163Y0153489D01*
X0296035Y0153129D01*
X0295899Y0152772D01*
X0295754Y0152419D01*
X0295601Y0152070D01*
X0295439Y0151724D01*
X0295268Y0151382D01*
X0295090Y0151045D01*
X0294903Y0150712D01*
X0294708Y0150383D01*
X0294506Y0150060D01*
X0294295Y0149741D01*
X0294077Y0149428D01*
X0293851Y0149120D01*
X0293618Y0148818D01*
X0293377Y0148522D01*
X0293129Y0148231D01*
X0292875Y0147947D01*
X0292613Y0147668D01*
X0292345Y0147397D01*
X0292070Y0147132D01*
X0291789Y0146873D01*
X0291502Y0146622D01*
X0291208Y0146378D01*
X0290909Y0146141D01*
X0290604Y0145911D01*
X0290294Y0145689D01*
X0289978Y0145474D01*
X0289657Y0145267D01*
X0289331Y0145068D01*
X0289000Y0144878D01*
X0288665Y0144695D01*
X0288326Y0144520D01*
X0287982Y0144354D01*
X0287635Y0144196D01*
X0287283Y0144047D01*
X0286928Y0143906D01*
X0286570Y0143774D01*
X0286209Y0143650D01*
X0285845Y0143536D01*
X0285478Y0143430D01*
X0285108Y0143334D01*
X0284737Y0143246D01*
X0284363Y0143168D01*
X0283988Y0143098D01*
X0283611Y0143038D01*
X0283232Y0142987D01*
X0282853Y0142945D01*
X0282472Y0142913D01*
X0282091Y0142890D01*
X0281710Y0142876D01*
X0281328Y0142871D01*
X0280946Y0142876D01*
X0280565Y0142890D01*
X0280184Y0142913D01*
X0279803Y0142945D01*
X0279424Y0142987D01*
X0279045Y0143038D01*
X0278668Y0143098D01*
X0278293Y0143168D01*
X0277919Y0143246D01*
X0277548Y0143334D01*
X0277178Y0143430D01*
X0276811Y0143536D01*
X0276447Y0143650D01*
X0276086Y0143774D01*
X0275728Y0143906D01*
X0275373Y0144047D01*
X0275021Y0144196D01*
X0274674Y0144354D01*
X0274330Y0144520D01*
X0273991Y0144695D01*
X0273656Y0144878D01*
X0273325Y0145068D01*
X0272999Y0145267D01*
X0272678Y0145474D01*
X0272362Y0145689D01*
X0272052Y0145911D01*
X0271747Y0146141D01*
X0271448Y0146378D01*
X0271154Y0146622D01*
X0270867Y0146873D01*
X0270586Y0147132D01*
X0270311Y0147397D01*
X0270043Y0147668D01*
X0269781Y0147947D01*
X0269527Y0148231D01*
X0269279Y0148522D01*
X0269038Y0148818D01*
X0268805Y0149120D01*
X0268579Y0149428D01*
X0268361Y0149741D01*
X0268150Y0150060D01*
X0267948Y0150383D01*
X0267753Y0150712D01*
X0267566Y0151045D01*
X0267388Y0151382D01*
X0267217Y0151724D01*
X0267055Y0152070D01*
X0266902Y0152419D01*
X0266757Y0152772D01*
X0266621Y0153129D01*
X0266493Y0153489D01*
X0266375Y0153852D01*
X0266265Y0154217D01*
X0266164Y0154586D01*
X0266072Y0154956D01*
X0266108Y0154965D01*
X0266200Y0154595D01*
X0266300Y0154228D01*
X0266410Y0153863D01*
X0266528Y0153501D01*
X0266656Y0153142D01*
X0266792Y0152786D01*
X0266936Y0152434D01*
X0267089Y0152085D01*
X0267251Y0151740D01*
X0267421Y0151399D01*
X0267599Y0151062D01*
X0267785Y0150730D01*
X0267979Y0150403D01*
X0268182Y0150080D01*
X0268392Y0149762D01*
X0268609Y0149450D01*
X0268835Y0149142D01*
X0269067Y0148841D01*
X0269307Y0148545D01*
X0269554Y0148255D01*
X0269809Y0147972D01*
X0270069Y0147694D01*
X0270337Y0147423D01*
X0270611Y0147159D01*
X0270892Y0146901D01*
X0271178Y0146650D01*
X0271471Y0146407D01*
X0271770Y0146170D01*
X0272074Y0145941D01*
X0272384Y0145719D01*
X0272699Y0145505D01*
X0273019Y0145299D01*
X0273344Y0145100D01*
X0273674Y0144910D01*
X0274008Y0144727D01*
X0274347Y0144553D01*
X0274690Y0144387D01*
X0275036Y0144230D01*
X0275387Y0144081D01*
X0275741Y0143940D01*
X0276098Y0143809D01*
X0276459Y0143686D01*
X0276822Y0143571D01*
X0277188Y0143466D01*
X0277557Y0143370D01*
X0277927Y0143282D01*
X0278300Y0143204D01*
X0278675Y0143135D01*
X0279051Y0143075D01*
X0279428Y0143024D01*
X0279807Y0142982D01*
X0280186Y0142950D01*
X0280567Y0142927D01*
X0280947Y0142913D01*
X0281328Y0142908D01*
X0281709Y0142913D01*
X0282089Y0142927D01*
X0282470Y0142950D01*
X0282849Y0142982D01*
X0283228Y0143024D01*
X0283605Y0143075D01*
X0283981Y0143135D01*
X0284356Y0143204D01*
X0284729Y0143282D01*
X0285099Y0143370D01*
X0285468Y0143466D01*
X0285834Y0143571D01*
X0286197Y0143686D01*
X0286558Y0143809D01*
X0286915Y0143940D01*
X0287269Y0144081D01*
X0287620Y0144230D01*
X0287966Y0144387D01*
X0288309Y0144553D01*
X0288648Y0144727D01*
X0288982Y0144910D01*
X0289312Y0145100D01*
X0289637Y0145299D01*
X0289957Y0145505D01*
X0290272Y0145719D01*
X0290582Y0145941D01*
X0290886Y0146170D01*
X0291185Y0146407D01*
X0291478Y0146650D01*
X0291764Y0146901D01*
X0292045Y0147159D01*
X0292319Y0147423D01*
X0292587Y0147694D01*
X0292847Y0147972D01*
X0293102Y0148255D01*
X0293349Y0148545D01*
X0293589Y0148841D01*
X0293821Y0149142D01*
X0294047Y0149450D01*
X0294264Y0149762D01*
X0294474Y0150080D01*
X0294677Y0150403D01*
X0294871Y0150730D01*
X0295057Y0151062D01*
X0295235Y0151399D01*
X0295405Y0151740D01*
X0295567Y0152085D01*
X0295720Y0152434D01*
X0295864Y0152786D01*
X0296000Y0153142D01*
X0296128Y0153501D01*
X0296246Y0153863D01*
X0296356Y0154228D01*
X0296456Y0154595D01*
X0296548Y0154965D01*
X0296512Y0154973D01*
X0296420Y0154604D01*
X0296320Y0154238D01*
X0296211Y0153874D01*
X0296093Y0153513D01*
X0295966Y0153154D01*
X0295830Y0152800D01*
X0295686Y0152448D01*
X0295533Y0152100D01*
X0295372Y0151756D01*
X0295202Y0151416D01*
X0295025Y0151080D01*
X0294839Y0150749D01*
X0294645Y0150422D01*
X0294443Y0150100D01*
X0294234Y0149783D01*
X0294016Y0149471D01*
X0293792Y0149165D01*
X0293560Y0148864D01*
X0293320Y0148569D01*
X0293074Y0148280D01*
X0292820Y0147997D01*
X0292560Y0147720D01*
X0292293Y0147449D01*
X0292019Y0147186D01*
X0291740Y0146929D01*
X0291454Y0146678D01*
X0291162Y0146435D01*
X0290864Y0146199D01*
X0290560Y0145971D01*
X0290251Y0145749D01*
X0289937Y0145536D01*
X0289618Y0145330D01*
X0289293Y0145132D01*
X0288964Y0144942D01*
X0288631Y0144760D01*
X0288293Y0144586D01*
X0287951Y0144421D01*
X0287605Y0144264D01*
X0287255Y0144115D01*
X0286902Y0143975D01*
X0286545Y0143843D01*
X0286186Y0143721D01*
X0285823Y0143607D01*
X0285458Y0143502D01*
X0285090Y0143406D01*
X0284721Y0143318D01*
X0284349Y0143240D01*
X0283975Y0143171D01*
X0283600Y0143111D01*
X0283223Y0143061D01*
X0282846Y0143019D01*
X0282467Y0142987D01*
X0282088Y0142964D01*
X0281708Y0142950D01*
X0281328Y0142945D01*
X0280948Y0142950D01*
X0280568Y0142964D01*
X0280189Y0142987D01*
X0279810Y0143019D01*
X0279433Y0143061D01*
X0279056Y0143111D01*
X0278681Y0143171D01*
X0278307Y0143240D01*
X0277935Y0143318D01*
X0277566Y0143406D01*
X0277198Y0143502D01*
X0276833Y0143607D01*
X0276470Y0143721D01*
X0276111Y0143843D01*
X0275754Y0143975D01*
X0275401Y0144115D01*
X0275051Y0144264D01*
X0274705Y0144421D01*
X0274363Y0144586D01*
X0274025Y0144760D01*
X0273692Y0144942D01*
X0273363Y0145132D01*
X0273038Y0145330D01*
X0272719Y0145536D01*
X0272405Y0145749D01*
X0272096Y0145971D01*
X0271792Y0146199D01*
X0271494Y0146435D01*
X0271202Y0146678D01*
X0270916Y0146929D01*
X0270637Y0147186D01*
X0270363Y0147449D01*
X0270096Y0147720D01*
X0269836Y0147997D01*
X0269582Y0148280D01*
X0269336Y0148569D01*
X0269096Y0148864D01*
X0268864Y0149165D01*
X0268640Y0149471D01*
X0268422Y0149783D01*
X0268213Y0150100D01*
X0268011Y0150422D01*
X0267817Y0150749D01*
X0267631Y0151080D01*
X0267454Y0151416D01*
X0267284Y0151756D01*
X0267123Y0152100D01*
X0266970Y0152448D01*
X0266826Y0152800D01*
X0266690Y0153154D01*
X0266563Y0153513D01*
X0266445Y0153874D01*
X0266336Y0154238D01*
X0266236Y0154604D01*
X0266144Y0154973D01*
X0266180Y0154981D01*
X0266271Y0154613D01*
X0266372Y0154248D01*
X0266481Y0153885D01*
X0266598Y0153525D01*
X0266725Y0153167D01*
X0266860Y0152813D01*
X0267004Y0152462D01*
X0267157Y0152115D01*
X0267317Y0151772D01*
X0267486Y0151433D01*
X0267664Y0151098D01*
X0267849Y0150767D01*
X0268043Y0150441D01*
X0268244Y0150120D01*
X0268453Y0149804D01*
X0268670Y0149493D01*
X0268894Y0149187D01*
X0269125Y0148887D01*
X0269364Y0148592D01*
X0269610Y0148304D01*
X0269863Y0148022D01*
X0270123Y0147745D01*
X0270389Y0147476D01*
X0270662Y0147212D01*
X0270941Y0146956D01*
X0271226Y0146706D01*
X0271518Y0146464D01*
X0271815Y0146229D01*
X0272118Y0146000D01*
X0272426Y0145780D01*
X0272740Y0145567D01*
X0273058Y0145361D01*
X0273382Y0145164D01*
X0273710Y0144974D01*
X0274043Y0144793D01*
X0274380Y0144619D01*
X0274721Y0144454D01*
X0275066Y0144297D01*
X0275415Y0144149D01*
X0275767Y0144009D01*
X0276123Y0143878D01*
X0276482Y0143756D01*
X0276843Y0143642D01*
X0277208Y0143537D01*
X0277575Y0143441D01*
X0277944Y0143355D01*
X0278314Y0143277D01*
X0278687Y0143208D01*
X0279062Y0143148D01*
X0279437Y0143097D01*
X0279814Y0143056D01*
X0280192Y0143024D01*
X0280570Y0143000D01*
X0280949Y0142987D01*
X0281328Y0142982D01*
X0281707Y0142987D01*
X0282086Y0143000D01*
X0282464Y0143024D01*
X0282842Y0143056D01*
X0283219Y0143097D01*
X0283594Y0143148D01*
X0283969Y0143208D01*
X0284342Y0143277D01*
X0284712Y0143355D01*
X0285081Y0143441D01*
X0285448Y0143537D01*
X0285813Y0143642D01*
X0286174Y0143756D01*
X0286533Y0143878D01*
X0286889Y0144009D01*
X0287241Y0144149D01*
X0287590Y0144297D01*
X0287935Y0144454D01*
X0288276Y0144619D01*
X0288613Y0144793D01*
X0288946Y0144974D01*
X0289274Y0145164D01*
X0289598Y0145361D01*
X0289916Y0145567D01*
X0290230Y0145780D01*
X0290538Y0146000D01*
X0290841Y0146229D01*
X0291138Y0146464D01*
X0291430Y0146706D01*
X0291715Y0146956D01*
X0291994Y0147212D01*
X0292267Y0147476D01*
X0292533Y0147745D01*
X0292793Y0148022D01*
X0293046Y0148304D01*
X0293292Y0148592D01*
X0293531Y0148887D01*
X0293762Y0149187D01*
X0293986Y0149493D01*
X0294203Y0149804D01*
X0294412Y0150120D01*
X0294613Y0150441D01*
X0294807Y0150767D01*
X0294992Y0151098D01*
X0295170Y0151433D01*
X0295339Y0151772D01*
X0295499Y0152115D01*
X0295652Y0152462D01*
X0295796Y0152813D01*
X0295931Y0153167D01*
X0296058Y0153525D01*
X0296175Y0153885D01*
X0296284Y0154248D01*
X0296385Y0154613D01*
X0296476Y0154981D01*
X0296440Y0154990D01*
X0296349Y0154623D01*
X0296249Y0154258D01*
X0296140Y0153896D01*
X0296023Y0153536D01*
X0295896Y0153180D01*
X0295761Y0152827D01*
X0295618Y0152477D01*
X0295466Y0152131D01*
X0295305Y0151788D01*
X0295137Y0151450D01*
X0294960Y0151115D01*
X0294775Y0150785D01*
X0294582Y0150460D01*
X0294381Y0150140D01*
X0294172Y0149824D01*
X0293956Y0149514D01*
X0293733Y0149209D01*
X0293502Y0148910D01*
X0293263Y0148616D01*
X0293018Y0148328D01*
X0292766Y0148047D01*
X0292507Y0147771D01*
X0292241Y0147502D01*
X0291969Y0147239D01*
X0291690Y0146984D01*
X0291406Y0146735D01*
X0291115Y0146493D01*
X0290818Y0146258D01*
X0290516Y0146030D01*
X0290209Y0145810D01*
X0289896Y0145598D01*
X0289578Y0145393D01*
X0289255Y0145196D01*
X0288928Y0145007D01*
X0288596Y0144825D01*
X0288260Y0144652D01*
X0287919Y0144488D01*
X0287575Y0144331D01*
X0287227Y0144183D01*
X0286875Y0144044D01*
X0286521Y0143913D01*
X0286163Y0143791D01*
X0285802Y0143678D01*
X0285438Y0143573D01*
X0285073Y0143477D01*
X0284704Y0143391D01*
X0284334Y0143313D01*
X0283962Y0143244D01*
X0283589Y0143185D01*
X0283214Y0143134D01*
X0282838Y0143093D01*
X0282462Y0143060D01*
X0282084Y0143037D01*
X0281706Y0143024D01*
X0281328Y0143019D01*
X0280950Y0143024D01*
X0280572Y0143037D01*
X0280194Y0143060D01*
X0279818Y0143093D01*
X0279442Y0143134D01*
X0279067Y0143185D01*
X0278694Y0143244D01*
X0278322Y0143313D01*
X0277952Y0143391D01*
X0277583Y0143477D01*
X0277218Y0143573D01*
X0276854Y0143678D01*
X0276493Y0143791D01*
X0276135Y0143913D01*
X0275781Y0144044D01*
X0275429Y0144183D01*
X0275081Y0144331D01*
X0274737Y0144488D01*
X0274396Y0144652D01*
X0274060Y0144825D01*
X0273728Y0145007D01*
X0273401Y0145196D01*
X0273078Y0145393D01*
X0272760Y0145598D01*
X0272447Y0145810D01*
X0272140Y0146030D01*
X0271838Y0146258D01*
X0271541Y0146493D01*
X0271250Y0146735D01*
X0270966Y0146984D01*
X0270687Y0147239D01*
X0270415Y0147502D01*
X0270149Y0147771D01*
X0269890Y0148047D01*
X0269638Y0148328D01*
X0269393Y0148616D01*
X0269154Y0148910D01*
X0268923Y0149209D01*
X0268700Y0149514D01*
X0268484Y0149824D01*
X0268275Y0150140D01*
X0268074Y0150460D01*
X0267881Y0150785D01*
X0267696Y0151115D01*
X0267519Y0151450D01*
X0267351Y0151788D01*
X0267190Y0152131D01*
X0267038Y0152477D01*
X0266895Y0152827D01*
X0266760Y0153180D01*
X0266633Y0153536D01*
X0266516Y0153896D01*
X0266407Y0154258D01*
X0266307Y0154623D01*
X0266216Y0154990D01*
X0266252Y0154998D01*
X0266343Y0154632D01*
X0266443Y0154268D01*
X0266551Y0153907D01*
X0266669Y0153548D01*
X0266795Y0153193D01*
X0266929Y0152840D01*
X0267072Y0152491D01*
X0267224Y0152146D01*
X0267384Y0151804D01*
X0267552Y0151466D01*
X0267729Y0151133D01*
X0267913Y0150804D01*
X0268106Y0150479D01*
X0268306Y0150160D01*
X0268514Y0149845D01*
X0268730Y0149536D01*
X0268953Y0149231D01*
X0269184Y0148933D01*
X0269421Y0148640D01*
X0269666Y0148353D01*
X0269918Y0148072D01*
X0270176Y0147797D01*
X0270441Y0147528D01*
X0270713Y0147266D01*
X0270991Y0147011D01*
X0271275Y0146763D01*
X0271564Y0146521D01*
X0271860Y0146287D01*
X0272162Y0146060D01*
X0272468Y0145840D01*
X0272780Y0145628D01*
X0273098Y0145424D01*
X0273420Y0145227D01*
X0273746Y0145039D01*
X0274077Y0144858D01*
X0274413Y0144686D01*
X0274752Y0144521D01*
X0275096Y0144365D01*
X0275443Y0144218D01*
X0275794Y0144079D01*
X0276148Y0143948D01*
X0276505Y0143826D01*
X0276865Y0143713D01*
X0277227Y0143609D01*
X0277592Y0143513D01*
X0277960Y0143427D01*
X0278329Y0143349D01*
X0278700Y0143281D01*
X0279072Y0143221D01*
X0279446Y0143171D01*
X0279821Y0143129D01*
X0280197Y0143097D01*
X0280574Y0143074D01*
X0280951Y0143061D01*
X0281328Y0143056D01*
X0281705Y0143061D01*
X0282082Y0143074D01*
X0282459Y0143097D01*
X0282835Y0143129D01*
X0283210Y0143171D01*
X0283584Y0143221D01*
X0283956Y0143281D01*
X0284327Y0143349D01*
X0284696Y0143427D01*
X0285064Y0143513D01*
X0285429Y0143609D01*
X0285791Y0143713D01*
X0286151Y0143826D01*
X0286508Y0143948D01*
X0286862Y0144079D01*
X0287213Y0144218D01*
X0287560Y0144365D01*
X0287904Y0144521D01*
X0288243Y0144686D01*
X0288579Y0144858D01*
X0288910Y0145039D01*
X0289236Y0145227D01*
X0289558Y0145424D01*
X0289876Y0145628D01*
X0290188Y0145840D01*
X0290494Y0146060D01*
X0290796Y0146287D01*
X0291092Y0146521D01*
X0291381Y0146763D01*
X0291665Y0147011D01*
X0291943Y0147266D01*
X0292215Y0147528D01*
X0292480Y0147797D01*
X0292738Y0148072D01*
X0292990Y0148353D01*
X0293235Y0148640D01*
X0293472Y0148933D01*
X0293703Y0149231D01*
X0293926Y0149536D01*
X0294142Y0149845D01*
X0294350Y0150160D01*
X0294550Y0150479D01*
X0294743Y0150804D01*
X0294927Y0151133D01*
X0295104Y0151466D01*
X0295272Y0151804D01*
X0295432Y0152146D01*
X0295584Y0152491D01*
X0295727Y0152840D01*
X0295861Y0153193D01*
X0295987Y0153548D01*
X0296105Y0153907D01*
X0296213Y0154268D01*
X0296313Y0154632D01*
X0296404Y0154998D01*
X0296368Y0155007D01*
X0296277Y0154641D01*
X0296178Y0154278D01*
X0296069Y0153918D01*
X0295952Y0153560D01*
X0295827Y0153205D01*
X0295692Y0152854D01*
X0295550Y0152506D01*
X0295398Y0152161D01*
X0295239Y0151820D01*
X0295071Y0151483D01*
X0294895Y0151151D01*
X0294711Y0150822D01*
X0294519Y0150499D01*
X0294319Y0150180D01*
X0294111Y0149866D01*
X0293896Y0149557D01*
X0293673Y0149254D01*
X0293443Y0148956D01*
X0293206Y0148663D01*
X0292962Y0148377D01*
X0292711Y0148097D01*
X0292453Y0147822D01*
X0292189Y0147555D01*
X0291918Y0147293D01*
X0291641Y0147039D01*
X0291357Y0146791D01*
X0291068Y0146550D01*
X0290773Y0146316D01*
X0290473Y0146090D01*
X0290166Y0145871D01*
X0289855Y0145659D01*
X0289539Y0145455D01*
X0289218Y0145259D01*
X0288892Y0145071D01*
X0288561Y0144891D01*
X0288227Y0144719D01*
X0287888Y0144555D01*
X0287545Y0144399D01*
X0287199Y0144252D01*
X0286849Y0144113D01*
X0286496Y0143983D01*
X0286140Y0143861D01*
X0285780Y0143748D01*
X0285419Y0143644D01*
X0285055Y0143549D01*
X0284688Y0143463D01*
X0284320Y0143385D01*
X0283950Y0143317D01*
X0283578Y0143258D01*
X0283205Y0143207D01*
X0282831Y0143166D01*
X0282456Y0143134D01*
X0282080Y0143111D01*
X0281704Y0143098D01*
X0281328Y0143093D01*
X0280952Y0143098D01*
X0280576Y0143111D01*
X0280200Y0143134D01*
X0279825Y0143166D01*
X0279451Y0143207D01*
X0279078Y0143258D01*
X0278706Y0143317D01*
X0278336Y0143385D01*
X0277968Y0143463D01*
X0277601Y0143549D01*
X0277237Y0143644D01*
X0276876Y0143748D01*
X0276516Y0143861D01*
X0276160Y0143983D01*
X0275807Y0144113D01*
X0275457Y0144252D01*
X0275111Y0144399D01*
X0274768Y0144555D01*
X0274429Y0144719D01*
X0274095Y0144891D01*
X0273764Y0145071D01*
X0273438Y0145259D01*
X0273117Y0145455D01*
X0272801Y0145659D01*
X0272490Y0145871D01*
X0272183Y0146090D01*
X0271883Y0146316D01*
X0271588Y0146550D01*
X0271299Y0146791D01*
X0271015Y0147039D01*
X0270738Y0147293D01*
X0270467Y0147555D01*
X0270203Y0147822D01*
X0269945Y0148097D01*
X0269694Y0148377D01*
X0269450Y0148663D01*
X0269213Y0148956D01*
X0268983Y0149254D01*
X0268760Y0149557D01*
X0268545Y0149866D01*
X0268337Y0150180D01*
X0268137Y0150499D01*
X0267945Y0150822D01*
X0267761Y0151151D01*
X0267585Y0151483D01*
X0267417Y0151820D01*
X0267258Y0152161D01*
X0267106Y0152506D01*
X0266964Y0152854D01*
X0266829Y0153205D01*
X0266704Y0153560D01*
X0266587Y0153918D01*
X0266478Y0154278D01*
X0266379Y0154641D01*
X0266288Y0155007D01*
X0266324Y0155015D01*
X0266415Y0154651D01*
X0266514Y0154289D01*
X0266622Y0153929D01*
X0266739Y0153572D01*
X0266864Y0153218D01*
X0266998Y0152867D01*
X0267141Y0152520D01*
X0267291Y0152176D01*
X0267451Y0151836D01*
X0267618Y0151500D01*
X0267794Y0151168D01*
X0267977Y0150841D01*
X0268169Y0150518D01*
X0268368Y0150200D01*
X0268575Y0149887D01*
X0268790Y0149579D01*
X0269012Y0149276D01*
X0269242Y0148979D01*
X0269478Y0148687D01*
X0269722Y0148401D01*
X0269972Y0148122D01*
X0270229Y0147848D01*
X0270493Y0147581D01*
X0270763Y0147320D01*
X0271040Y0147066D01*
X0271323Y0146819D01*
X0271611Y0146579D01*
X0271905Y0146346D01*
X0272205Y0146120D01*
X0272511Y0145901D01*
X0272821Y0145690D01*
X0273137Y0145487D01*
X0273457Y0145291D01*
X0273782Y0145103D01*
X0274112Y0144923D01*
X0274446Y0144752D01*
X0274784Y0144588D01*
X0275126Y0144433D01*
X0275471Y0144286D01*
X0275820Y0144148D01*
X0276173Y0144018D01*
X0276528Y0143896D01*
X0276886Y0143784D01*
X0277247Y0143680D01*
X0277610Y0143585D01*
X0277976Y0143499D01*
X0278343Y0143422D01*
X0278712Y0143354D01*
X0279083Y0143294D01*
X0279455Y0143244D01*
X0279828Y0143203D01*
X0280203Y0143171D01*
X0280577Y0143148D01*
X0280953Y0143135D01*
X0281328Y0143130D01*
X0281703Y0143135D01*
X0282079Y0143148D01*
X0282453Y0143171D01*
X0282828Y0143203D01*
X0283201Y0143244D01*
X0283573Y0143294D01*
X0283944Y0143354D01*
X0284313Y0143422D01*
X0284680Y0143499D01*
X0285046Y0143585D01*
X0285409Y0143680D01*
X0285770Y0143784D01*
X0286128Y0143896D01*
X0286483Y0144018D01*
X0286836Y0144148D01*
X0287185Y0144286D01*
X0287530Y0144433D01*
X0287872Y0144588D01*
X0288210Y0144752D01*
X0288544Y0144923D01*
X0288874Y0145103D01*
X0289199Y0145291D01*
X0289519Y0145487D01*
X0289835Y0145690D01*
X0290145Y0145901D01*
X0290451Y0146120D01*
X0290751Y0146346D01*
X0291045Y0146579D01*
X0291333Y0146819D01*
X0291616Y0147066D01*
X0291893Y0147320D01*
X0292163Y0147581D01*
X0292427Y0147848D01*
X0292684Y0148122D01*
X0292934Y0148401D01*
X0293178Y0148687D01*
X0293414Y0148979D01*
X0293644Y0149276D01*
X0293866Y0149579D01*
X0294081Y0149887D01*
X0294288Y0150200D01*
X0294487Y0150518D01*
X0294679Y0150841D01*
X0294862Y0151168D01*
X0295038Y0151500D01*
X0295205Y0151836D01*
X0295365Y0152176D01*
X0295515Y0152520D01*
X0295658Y0152867D01*
X0295792Y0153218D01*
X0295917Y0153572D01*
X0296034Y0153929D01*
X0296142Y0154289D01*
X0296241Y0154651D01*
X0296332Y0155015D01*
X0296656Y0162146D02*
X0296305Y0162064D01*
X0296306Y0162065D02*
X0296215Y0162429D01*
X0296116Y0162790D01*
X0296008Y0163149D01*
X0295892Y0163505D01*
X0295767Y0163859D01*
X0295633Y0164209D01*
X0295491Y0164555D01*
X0295340Y0164899D01*
X0295181Y0165238D01*
X0295014Y0165573D01*
X0294838Y0165905D01*
X0294655Y0166232D01*
X0294464Y0166554D01*
X0294265Y0166872D01*
X0294058Y0167184D01*
X0293844Y0167492D01*
X0293622Y0167794D01*
X0293393Y0168091D01*
X0293157Y0168382D01*
X0292914Y0168667D01*
X0292664Y0168946D01*
X0292407Y0169219D01*
X0292144Y0169486D01*
X0291874Y0169746D01*
X0291598Y0170000D01*
X0291316Y0170247D01*
X0291028Y0170486D01*
X0290734Y0170719D01*
X0290435Y0170945D01*
X0290130Y0171163D01*
X0289820Y0171373D01*
X0289505Y0171576D01*
X0289185Y0171772D01*
X0288860Y0171959D01*
X0288531Y0172139D01*
X0288198Y0172310D01*
X0287861Y0172473D01*
X0287519Y0172628D01*
X0287174Y0172775D01*
X0286826Y0172913D01*
X0286474Y0173043D01*
X0286120Y0173164D01*
X0285762Y0173276D01*
X0285402Y0173380D01*
X0285039Y0173475D01*
X0284674Y0173561D01*
X0284308Y0173638D01*
X0283939Y0173706D01*
X0283569Y0173765D01*
X0283197Y0173815D01*
X0282825Y0173856D01*
X0282451Y0173888D01*
X0282077Y0173911D01*
X0281703Y0173924D01*
X0281328Y0173929D01*
X0280953Y0173924D01*
X0280579Y0173911D01*
X0280205Y0173888D01*
X0279831Y0173856D01*
X0279459Y0173815D01*
X0279087Y0173765D01*
X0278717Y0173706D01*
X0278348Y0173638D01*
X0277982Y0173561D01*
X0277617Y0173475D01*
X0277254Y0173380D01*
X0276894Y0173276D01*
X0276536Y0173164D01*
X0276182Y0173043D01*
X0275830Y0172913D01*
X0275482Y0172775D01*
X0275137Y0172628D01*
X0274795Y0172473D01*
X0274458Y0172310D01*
X0274125Y0172139D01*
X0273796Y0171959D01*
X0273471Y0171772D01*
X0273151Y0171576D01*
X0272836Y0171373D01*
X0272526Y0171163D01*
X0272221Y0170945D01*
X0271922Y0170719D01*
X0271628Y0170486D01*
X0271340Y0170247D01*
X0271058Y0170000D01*
X0270782Y0169746D01*
X0270512Y0169486D01*
X0270249Y0169219D01*
X0269992Y0168946D01*
X0269742Y0168667D01*
X0269499Y0168382D01*
X0269263Y0168091D01*
X0269034Y0167794D01*
X0268812Y0167492D01*
X0268598Y0167184D01*
X0268391Y0166872D01*
X0268192Y0166554D01*
X0268001Y0166232D01*
X0267818Y0165905D01*
X0267642Y0165573D01*
X0267475Y0165238D01*
X0267316Y0164899D01*
X0267165Y0164555D01*
X0267023Y0164209D01*
X0266889Y0163859D01*
X0266764Y0163505D01*
X0266648Y0163149D01*
X0266540Y0162790D01*
X0266441Y0162429D01*
X0266350Y0162065D01*
X0266000Y0162146D01*
X0266000Y0162147D01*
X0266092Y0162519D01*
X0266194Y0162889D01*
X0266304Y0163256D01*
X0266423Y0163621D01*
X0266551Y0163982D01*
X0266688Y0164341D01*
X0266834Y0164696D01*
X0266988Y0165047D01*
X0267151Y0165394D01*
X0267322Y0165738D01*
X0267501Y0166077D01*
X0267689Y0166411D01*
X0267885Y0166741D01*
X0268088Y0167066D01*
X0268300Y0167386D01*
X0268519Y0167701D01*
X0268746Y0168010D01*
X0268980Y0168314D01*
X0269222Y0168612D01*
X0269471Y0168904D01*
X0269727Y0169189D01*
X0269989Y0169469D01*
X0270259Y0169742D01*
X0270535Y0170008D01*
X0270818Y0170268D01*
X0271106Y0170520D01*
X0271401Y0170766D01*
X0271702Y0171004D01*
X0272008Y0171235D01*
X0272320Y0171458D01*
X0272637Y0171673D01*
X0272960Y0171881D01*
X0273287Y0172081D01*
X0273619Y0172273D01*
X0273956Y0172457D01*
X0274297Y0172632D01*
X0274642Y0172799D01*
X0274992Y0172958D01*
X0275345Y0173108D01*
X0275701Y0173249D01*
X0276061Y0173382D01*
X0276424Y0173506D01*
X0276790Y0173621D01*
X0277159Y0173727D01*
X0277530Y0173824D01*
X0277903Y0173912D01*
X0278279Y0173991D01*
X0278656Y0174061D01*
X0279035Y0174121D01*
X0279415Y0174172D01*
X0279796Y0174214D01*
X0280178Y0174247D01*
X0280561Y0174270D01*
X0280944Y0174284D01*
X0281328Y0174289D01*
X0281712Y0174284D01*
X0282095Y0174270D01*
X0282478Y0174247D01*
X0282860Y0174214D01*
X0283241Y0174172D01*
X0283621Y0174121D01*
X0284000Y0174061D01*
X0284377Y0173991D01*
X0284753Y0173912D01*
X0285126Y0173824D01*
X0285497Y0173727D01*
X0285866Y0173621D01*
X0286232Y0173506D01*
X0286595Y0173382D01*
X0286955Y0173249D01*
X0287311Y0173108D01*
X0287664Y0172958D01*
X0288014Y0172799D01*
X0288359Y0172632D01*
X0288700Y0172457D01*
X0289037Y0172273D01*
X0289369Y0172081D01*
X0289696Y0171881D01*
X0290019Y0171673D01*
X0290336Y0171458D01*
X0290648Y0171235D01*
X0290954Y0171004D01*
X0291255Y0170766D01*
X0291550Y0170520D01*
X0291838Y0170268D01*
X0292121Y0170008D01*
X0292397Y0169742D01*
X0292667Y0169469D01*
X0292929Y0169189D01*
X0293185Y0168904D01*
X0293434Y0168612D01*
X0293676Y0168314D01*
X0293910Y0168010D01*
X0294137Y0167701D01*
X0294356Y0167386D01*
X0294568Y0167066D01*
X0294771Y0166741D01*
X0294967Y0166411D01*
X0295155Y0166077D01*
X0295334Y0165738D01*
X0295505Y0165394D01*
X0295668Y0165047D01*
X0295822Y0164696D01*
X0295968Y0164341D01*
X0296105Y0163982D01*
X0296233Y0163621D01*
X0296352Y0163256D01*
X0296462Y0162889D01*
X0296564Y0162519D01*
X0296656Y0162147D01*
X0296620Y0162138D01*
X0296528Y0162510D01*
X0296427Y0162879D01*
X0296317Y0163245D01*
X0296198Y0163609D01*
X0296070Y0163970D01*
X0295933Y0164327D01*
X0295788Y0164681D01*
X0295634Y0165032D01*
X0295472Y0165378D01*
X0295301Y0165721D01*
X0295122Y0166059D01*
X0294935Y0166393D01*
X0294740Y0166722D01*
X0294537Y0167046D01*
X0294326Y0167365D01*
X0294107Y0167679D01*
X0293880Y0167988D01*
X0293647Y0168291D01*
X0293406Y0168588D01*
X0293157Y0168879D01*
X0292902Y0169164D01*
X0292640Y0169443D01*
X0292371Y0169716D01*
X0292096Y0169981D01*
X0291814Y0170240D01*
X0291526Y0170492D01*
X0291232Y0170737D01*
X0290932Y0170975D01*
X0290626Y0171205D01*
X0290315Y0171428D01*
X0289998Y0171643D01*
X0289677Y0171850D01*
X0289350Y0172049D01*
X0289019Y0172241D01*
X0288683Y0172424D01*
X0288342Y0172599D01*
X0287998Y0172766D01*
X0287649Y0172924D01*
X0287297Y0173074D01*
X0286942Y0173215D01*
X0286582Y0173347D01*
X0286220Y0173471D01*
X0285855Y0173586D01*
X0285487Y0173691D01*
X0285117Y0173788D01*
X0284745Y0173876D01*
X0284370Y0173955D01*
X0283994Y0174024D01*
X0283616Y0174084D01*
X0283237Y0174136D01*
X0282856Y0174177D01*
X0282475Y0174210D01*
X0282093Y0174233D01*
X0281711Y0174247D01*
X0281328Y0174252D01*
X0280945Y0174247D01*
X0280563Y0174233D01*
X0280181Y0174210D01*
X0279800Y0174177D01*
X0279419Y0174136D01*
X0279040Y0174084D01*
X0278662Y0174024D01*
X0278286Y0173955D01*
X0277911Y0173876D01*
X0277539Y0173788D01*
X0277169Y0173691D01*
X0276801Y0173586D01*
X0276436Y0173471D01*
X0276074Y0173347D01*
X0275714Y0173215D01*
X0275359Y0173074D01*
X0275007Y0172924D01*
X0274658Y0172766D01*
X0274314Y0172599D01*
X0273973Y0172424D01*
X0273637Y0172241D01*
X0273306Y0172049D01*
X0272979Y0171850D01*
X0272658Y0171643D01*
X0272341Y0171428D01*
X0272030Y0171205D01*
X0271724Y0170975D01*
X0271424Y0170737D01*
X0271130Y0170492D01*
X0270842Y0170240D01*
X0270560Y0169981D01*
X0270285Y0169716D01*
X0270016Y0169443D01*
X0269754Y0169164D01*
X0269499Y0168879D01*
X0269250Y0168588D01*
X0269009Y0168291D01*
X0268776Y0167988D01*
X0268549Y0167679D01*
X0268330Y0167365D01*
X0268119Y0167046D01*
X0267916Y0166722D01*
X0267721Y0166393D01*
X0267534Y0166059D01*
X0267355Y0165721D01*
X0267184Y0165378D01*
X0267022Y0165032D01*
X0266868Y0164681D01*
X0266723Y0164327D01*
X0266586Y0163970D01*
X0266458Y0163609D01*
X0266339Y0163245D01*
X0266229Y0162879D01*
X0266128Y0162510D01*
X0266036Y0162138D01*
X0266072Y0162130D01*
X0266164Y0162500D01*
X0266265Y0162869D01*
X0266375Y0163234D01*
X0266493Y0163597D01*
X0266621Y0163957D01*
X0266757Y0164314D01*
X0266902Y0164667D01*
X0267055Y0165016D01*
X0267217Y0165362D01*
X0267388Y0165704D01*
X0267566Y0166041D01*
X0267753Y0166374D01*
X0267948Y0166703D01*
X0268150Y0167026D01*
X0268361Y0167345D01*
X0268579Y0167658D01*
X0268805Y0167966D01*
X0269038Y0168268D01*
X0269279Y0168564D01*
X0269527Y0168855D01*
X0269781Y0169139D01*
X0270043Y0169418D01*
X0270311Y0169689D01*
X0270586Y0169954D01*
X0270867Y0170213D01*
X0271154Y0170464D01*
X0271448Y0170708D01*
X0271747Y0170945D01*
X0272052Y0171175D01*
X0272362Y0171397D01*
X0272678Y0171612D01*
X0272999Y0171819D01*
X0273325Y0172018D01*
X0273656Y0172208D01*
X0273991Y0172391D01*
X0274330Y0172566D01*
X0274674Y0172732D01*
X0275021Y0172890D01*
X0275373Y0173039D01*
X0275728Y0173180D01*
X0276086Y0173312D01*
X0276447Y0173436D01*
X0276811Y0173550D01*
X0277178Y0173656D01*
X0277548Y0173752D01*
X0277919Y0173840D01*
X0278293Y0173918D01*
X0278668Y0173988D01*
X0279045Y0174048D01*
X0279424Y0174099D01*
X0279803Y0174141D01*
X0280184Y0174173D01*
X0280565Y0174196D01*
X0280946Y0174210D01*
X0281328Y0174215D01*
X0281710Y0174210D01*
X0282091Y0174196D01*
X0282472Y0174173D01*
X0282853Y0174141D01*
X0283232Y0174099D01*
X0283611Y0174048D01*
X0283988Y0173988D01*
X0284363Y0173918D01*
X0284737Y0173840D01*
X0285108Y0173752D01*
X0285478Y0173656D01*
X0285845Y0173550D01*
X0286209Y0173436D01*
X0286570Y0173312D01*
X0286928Y0173180D01*
X0287283Y0173039D01*
X0287635Y0172890D01*
X0287982Y0172732D01*
X0288326Y0172566D01*
X0288665Y0172391D01*
X0289000Y0172208D01*
X0289331Y0172018D01*
X0289657Y0171819D01*
X0289978Y0171612D01*
X0290294Y0171397D01*
X0290604Y0171175D01*
X0290909Y0170945D01*
X0291208Y0170708D01*
X0291502Y0170464D01*
X0291789Y0170213D01*
X0292070Y0169954D01*
X0292345Y0169689D01*
X0292613Y0169418D01*
X0292875Y0169139D01*
X0293129Y0168855D01*
X0293377Y0168564D01*
X0293618Y0168268D01*
X0293851Y0167966D01*
X0294077Y0167658D01*
X0294295Y0167345D01*
X0294506Y0167026D01*
X0294708Y0166703D01*
X0294903Y0166374D01*
X0295090Y0166041D01*
X0295268Y0165704D01*
X0295439Y0165362D01*
X0295601Y0165016D01*
X0295754Y0164667D01*
X0295899Y0164314D01*
X0296035Y0163957D01*
X0296163Y0163597D01*
X0296281Y0163234D01*
X0296391Y0162869D01*
X0296492Y0162500D01*
X0296584Y0162130D01*
X0296548Y0162121D01*
X0296456Y0162491D01*
X0296356Y0162858D01*
X0296246Y0163223D01*
X0296128Y0163585D01*
X0296000Y0163944D01*
X0295864Y0164300D01*
X0295720Y0164652D01*
X0295567Y0165001D01*
X0295405Y0165346D01*
X0295235Y0165687D01*
X0295057Y0166024D01*
X0294871Y0166356D01*
X0294677Y0166683D01*
X0294474Y0167006D01*
X0294264Y0167324D01*
X0294047Y0167636D01*
X0293821Y0167944D01*
X0293589Y0168245D01*
X0293349Y0168541D01*
X0293102Y0168831D01*
X0292847Y0169114D01*
X0292587Y0169392D01*
X0292319Y0169663D01*
X0292045Y0169927D01*
X0291764Y0170185D01*
X0291478Y0170436D01*
X0291185Y0170679D01*
X0290886Y0170916D01*
X0290582Y0171145D01*
X0290272Y0171367D01*
X0289957Y0171581D01*
X0289637Y0171787D01*
X0289312Y0171986D01*
X0288982Y0172176D01*
X0288648Y0172359D01*
X0288309Y0172533D01*
X0287966Y0172699D01*
X0287620Y0172856D01*
X0287269Y0173005D01*
X0286915Y0173146D01*
X0286558Y0173277D01*
X0286197Y0173400D01*
X0285834Y0173515D01*
X0285468Y0173620D01*
X0285099Y0173716D01*
X0284729Y0173804D01*
X0284356Y0173882D01*
X0283981Y0173951D01*
X0283605Y0174011D01*
X0283228Y0174062D01*
X0282849Y0174104D01*
X0282470Y0174136D01*
X0282089Y0174159D01*
X0281709Y0174173D01*
X0281328Y0174178D01*
X0280947Y0174173D01*
X0280567Y0174159D01*
X0280186Y0174136D01*
X0279807Y0174104D01*
X0279428Y0174062D01*
X0279051Y0174011D01*
X0278675Y0173951D01*
X0278300Y0173882D01*
X0277927Y0173804D01*
X0277557Y0173716D01*
X0277188Y0173620D01*
X0276822Y0173515D01*
X0276459Y0173400D01*
X0276098Y0173277D01*
X0275741Y0173146D01*
X0275387Y0173005D01*
X0275036Y0172856D01*
X0274690Y0172699D01*
X0274347Y0172533D01*
X0274008Y0172359D01*
X0273674Y0172176D01*
X0273344Y0171986D01*
X0273019Y0171787D01*
X0272699Y0171581D01*
X0272384Y0171367D01*
X0272074Y0171145D01*
X0271770Y0170916D01*
X0271471Y0170679D01*
X0271178Y0170436D01*
X0270892Y0170185D01*
X0270611Y0169927D01*
X0270337Y0169663D01*
X0270069Y0169392D01*
X0269809Y0169114D01*
X0269554Y0168831D01*
X0269307Y0168541D01*
X0269067Y0168245D01*
X0268835Y0167944D01*
X0268609Y0167636D01*
X0268392Y0167324D01*
X0268182Y0167006D01*
X0267979Y0166683D01*
X0267785Y0166356D01*
X0267599Y0166024D01*
X0267421Y0165687D01*
X0267251Y0165346D01*
X0267089Y0165001D01*
X0266936Y0164652D01*
X0266792Y0164300D01*
X0266656Y0163944D01*
X0266528Y0163585D01*
X0266410Y0163223D01*
X0266300Y0162858D01*
X0266200Y0162491D01*
X0266108Y0162121D01*
X0266144Y0162113D01*
X0266236Y0162482D01*
X0266336Y0162848D01*
X0266445Y0163212D01*
X0266563Y0163573D01*
X0266690Y0163932D01*
X0266826Y0164286D01*
X0266970Y0164638D01*
X0267123Y0164986D01*
X0267284Y0165330D01*
X0267454Y0165670D01*
X0267631Y0166006D01*
X0267817Y0166337D01*
X0268011Y0166664D01*
X0268213Y0166986D01*
X0268422Y0167303D01*
X0268640Y0167615D01*
X0268864Y0167921D01*
X0269096Y0168222D01*
X0269336Y0168517D01*
X0269582Y0168806D01*
X0269836Y0169089D01*
X0270096Y0169366D01*
X0270363Y0169637D01*
X0270637Y0169900D01*
X0270916Y0170157D01*
X0271202Y0170408D01*
X0271494Y0170651D01*
X0271792Y0170887D01*
X0272096Y0171115D01*
X0272405Y0171337D01*
X0272719Y0171550D01*
X0273038Y0171756D01*
X0273363Y0171954D01*
X0273692Y0172144D01*
X0274025Y0172326D01*
X0274363Y0172500D01*
X0274705Y0172665D01*
X0275051Y0172822D01*
X0275401Y0172971D01*
X0275754Y0173111D01*
X0276111Y0173243D01*
X0276470Y0173365D01*
X0276833Y0173479D01*
X0277198Y0173584D01*
X0277566Y0173680D01*
X0277935Y0173768D01*
X0278307Y0173846D01*
X0278681Y0173915D01*
X0279056Y0173975D01*
X0279433Y0174025D01*
X0279810Y0174067D01*
X0280189Y0174099D01*
X0280568Y0174122D01*
X0280948Y0174136D01*
X0281328Y0174141D01*
X0281708Y0174136D01*
X0282088Y0174122D01*
X0282467Y0174099D01*
X0282846Y0174067D01*
X0283223Y0174025D01*
X0283600Y0173975D01*
X0283975Y0173915D01*
X0284349Y0173846D01*
X0284721Y0173768D01*
X0285090Y0173680D01*
X0285458Y0173584D01*
X0285823Y0173479D01*
X0286186Y0173365D01*
X0286545Y0173243D01*
X0286902Y0173111D01*
X0287255Y0172971D01*
X0287605Y0172822D01*
X0287951Y0172665D01*
X0288293Y0172500D01*
X0288631Y0172326D01*
X0288964Y0172144D01*
X0289293Y0171954D01*
X0289618Y0171756D01*
X0289937Y0171550D01*
X0290251Y0171337D01*
X0290560Y0171115D01*
X0290864Y0170887D01*
X0291162Y0170651D01*
X0291454Y0170408D01*
X0291740Y0170157D01*
X0292019Y0169900D01*
X0292293Y0169637D01*
X0292560Y0169366D01*
X0292820Y0169089D01*
X0293074Y0168806D01*
X0293320Y0168517D01*
X0293560Y0168222D01*
X0293792Y0167921D01*
X0294016Y0167615D01*
X0294234Y0167303D01*
X0294443Y0166986D01*
X0294645Y0166664D01*
X0294839Y0166337D01*
X0295025Y0166006D01*
X0295202Y0165670D01*
X0295372Y0165330D01*
X0295533Y0164986D01*
X0295686Y0164638D01*
X0295830Y0164286D01*
X0295966Y0163932D01*
X0296093Y0163573D01*
X0296211Y0163212D01*
X0296320Y0162848D01*
X0296420Y0162482D01*
X0296512Y0162113D01*
X0296476Y0162105D01*
X0296385Y0162473D01*
X0296284Y0162838D01*
X0296175Y0163201D01*
X0296058Y0163561D01*
X0295931Y0163919D01*
X0295796Y0164273D01*
X0295652Y0164624D01*
X0295499Y0164971D01*
X0295339Y0165314D01*
X0295170Y0165653D01*
X0294992Y0165988D01*
X0294807Y0166319D01*
X0294613Y0166645D01*
X0294412Y0166966D01*
X0294203Y0167282D01*
X0293986Y0167593D01*
X0293762Y0167899D01*
X0293531Y0168199D01*
X0293292Y0168494D01*
X0293046Y0168782D01*
X0292793Y0169064D01*
X0292533Y0169341D01*
X0292267Y0169610D01*
X0291994Y0169874D01*
X0291715Y0170130D01*
X0291430Y0170380D01*
X0291138Y0170622D01*
X0290841Y0170857D01*
X0290538Y0171086D01*
X0290230Y0171306D01*
X0289916Y0171519D01*
X0289598Y0171725D01*
X0289274Y0171922D01*
X0288946Y0172112D01*
X0288613Y0172293D01*
X0288276Y0172467D01*
X0287935Y0172632D01*
X0287590Y0172789D01*
X0287241Y0172937D01*
X0286889Y0173077D01*
X0286533Y0173208D01*
X0286174Y0173330D01*
X0285813Y0173444D01*
X0285448Y0173549D01*
X0285081Y0173645D01*
X0284712Y0173731D01*
X0284342Y0173809D01*
X0283969Y0173878D01*
X0283594Y0173938D01*
X0283219Y0173989D01*
X0282842Y0174030D01*
X0282464Y0174062D01*
X0282086Y0174086D01*
X0281707Y0174099D01*
X0281328Y0174104D01*
X0280949Y0174099D01*
X0280570Y0174086D01*
X0280192Y0174062D01*
X0279814Y0174030D01*
X0279437Y0173989D01*
X0279062Y0173938D01*
X0278687Y0173878D01*
X0278314Y0173809D01*
X0277944Y0173731D01*
X0277575Y0173645D01*
X0277208Y0173549D01*
X0276843Y0173444D01*
X0276482Y0173330D01*
X0276123Y0173208D01*
X0275767Y0173077D01*
X0275415Y0172937D01*
X0275066Y0172789D01*
X0274721Y0172632D01*
X0274380Y0172467D01*
X0274043Y0172293D01*
X0273710Y0172112D01*
X0273382Y0171922D01*
X0273058Y0171725D01*
X0272740Y0171519D01*
X0272426Y0171306D01*
X0272118Y0171086D01*
X0271815Y0170857D01*
X0271518Y0170622D01*
X0271226Y0170380D01*
X0270941Y0170130D01*
X0270662Y0169874D01*
X0270389Y0169610D01*
X0270123Y0169341D01*
X0269863Y0169064D01*
X0269610Y0168782D01*
X0269364Y0168494D01*
X0269125Y0168199D01*
X0268894Y0167899D01*
X0268670Y0167593D01*
X0268453Y0167282D01*
X0268244Y0166966D01*
X0268043Y0166645D01*
X0267849Y0166319D01*
X0267664Y0165988D01*
X0267486Y0165653D01*
X0267317Y0165314D01*
X0267157Y0164971D01*
X0267004Y0164624D01*
X0266860Y0164273D01*
X0266725Y0163919D01*
X0266598Y0163561D01*
X0266481Y0163201D01*
X0266372Y0162838D01*
X0266271Y0162473D01*
X0266180Y0162105D01*
X0266216Y0162096D01*
X0266307Y0162463D01*
X0266407Y0162828D01*
X0266516Y0163190D01*
X0266633Y0163550D01*
X0266760Y0163906D01*
X0266895Y0164259D01*
X0267038Y0164609D01*
X0267190Y0164955D01*
X0267351Y0165298D01*
X0267519Y0165636D01*
X0267696Y0165971D01*
X0267881Y0166301D01*
X0268074Y0166626D01*
X0268275Y0166946D01*
X0268484Y0167262D01*
X0268700Y0167572D01*
X0268923Y0167877D01*
X0269154Y0168176D01*
X0269393Y0168470D01*
X0269638Y0168758D01*
X0269890Y0169039D01*
X0270149Y0169315D01*
X0270415Y0169584D01*
X0270687Y0169847D01*
X0270966Y0170102D01*
X0271250Y0170351D01*
X0271541Y0170593D01*
X0271838Y0170828D01*
X0272140Y0171056D01*
X0272447Y0171276D01*
X0272760Y0171488D01*
X0273078Y0171693D01*
X0273401Y0171890D01*
X0273728Y0172079D01*
X0274060Y0172261D01*
X0274396Y0172434D01*
X0274737Y0172598D01*
X0275081Y0172755D01*
X0275429Y0172903D01*
X0275781Y0173042D01*
X0276135Y0173173D01*
X0276493Y0173295D01*
X0276854Y0173408D01*
X0277218Y0173513D01*
X0277583Y0173609D01*
X0277952Y0173695D01*
X0278322Y0173773D01*
X0278694Y0173842D01*
X0279067Y0173901D01*
X0279442Y0173952D01*
X0279818Y0173993D01*
X0280194Y0174026D01*
X0280572Y0174049D01*
X0280950Y0174062D01*
X0281328Y0174067D01*
X0281706Y0174062D01*
X0282084Y0174049D01*
X0282462Y0174026D01*
X0282838Y0173993D01*
X0283214Y0173952D01*
X0283589Y0173901D01*
X0283962Y0173842D01*
X0284334Y0173773D01*
X0284704Y0173695D01*
X0285073Y0173609D01*
X0285438Y0173513D01*
X0285802Y0173408D01*
X0286163Y0173295D01*
X0286521Y0173173D01*
X0286875Y0173042D01*
X0287227Y0172903D01*
X0287575Y0172755D01*
X0287919Y0172598D01*
X0288260Y0172434D01*
X0288596Y0172261D01*
X0288928Y0172079D01*
X0289255Y0171890D01*
X0289578Y0171693D01*
X0289896Y0171488D01*
X0290209Y0171276D01*
X0290516Y0171056D01*
X0290818Y0170828D01*
X0291115Y0170593D01*
X0291406Y0170351D01*
X0291690Y0170102D01*
X0291969Y0169847D01*
X0292241Y0169584D01*
X0292507Y0169315D01*
X0292766Y0169039D01*
X0293018Y0168758D01*
X0293263Y0168470D01*
X0293502Y0168176D01*
X0293733Y0167877D01*
X0293956Y0167572D01*
X0294172Y0167262D01*
X0294381Y0166946D01*
X0294582Y0166626D01*
X0294775Y0166301D01*
X0294960Y0165971D01*
X0295137Y0165636D01*
X0295305Y0165298D01*
X0295466Y0164955D01*
X0295618Y0164609D01*
X0295761Y0164259D01*
X0295896Y0163906D01*
X0296023Y0163550D01*
X0296140Y0163190D01*
X0296249Y0162828D01*
X0296349Y0162463D01*
X0296440Y0162096D01*
X0296404Y0162088D01*
X0296313Y0162454D01*
X0296213Y0162818D01*
X0296105Y0163179D01*
X0295987Y0163538D01*
X0295861Y0163893D01*
X0295727Y0164246D01*
X0295584Y0164595D01*
X0295432Y0164940D01*
X0295272Y0165282D01*
X0295104Y0165620D01*
X0294927Y0165953D01*
X0294743Y0166282D01*
X0294550Y0166607D01*
X0294350Y0166926D01*
X0294142Y0167241D01*
X0293926Y0167550D01*
X0293703Y0167855D01*
X0293472Y0168153D01*
X0293235Y0168446D01*
X0292990Y0168733D01*
X0292738Y0169014D01*
X0292480Y0169289D01*
X0292215Y0169558D01*
X0291943Y0169820D01*
X0291665Y0170075D01*
X0291381Y0170323D01*
X0291092Y0170565D01*
X0290796Y0170799D01*
X0290494Y0171026D01*
X0290188Y0171246D01*
X0289876Y0171458D01*
X0289558Y0171662D01*
X0289236Y0171859D01*
X0288910Y0172047D01*
X0288579Y0172228D01*
X0288243Y0172400D01*
X0287904Y0172565D01*
X0287560Y0172721D01*
X0287213Y0172868D01*
X0286862Y0173007D01*
X0286508Y0173138D01*
X0286151Y0173260D01*
X0285791Y0173373D01*
X0285429Y0173477D01*
X0285064Y0173573D01*
X0284696Y0173659D01*
X0284327Y0173737D01*
X0283956Y0173805D01*
X0283584Y0173865D01*
X0283210Y0173915D01*
X0282835Y0173957D01*
X0282459Y0173989D01*
X0282082Y0174012D01*
X0281705Y0174025D01*
X0281328Y0174030D01*
X0280951Y0174025D01*
X0280574Y0174012D01*
X0280197Y0173989D01*
X0279821Y0173957D01*
X0279446Y0173915D01*
X0279072Y0173865D01*
X0278700Y0173805D01*
X0278329Y0173737D01*
X0277960Y0173659D01*
X0277592Y0173573D01*
X0277227Y0173477D01*
X0276865Y0173373D01*
X0276505Y0173260D01*
X0276148Y0173138D01*
X0275794Y0173007D01*
X0275443Y0172868D01*
X0275096Y0172721D01*
X0274752Y0172565D01*
X0274413Y0172400D01*
X0274077Y0172228D01*
X0273746Y0172047D01*
X0273420Y0171859D01*
X0273098Y0171662D01*
X0272780Y0171458D01*
X0272468Y0171246D01*
X0272162Y0171026D01*
X0271860Y0170799D01*
X0271564Y0170565D01*
X0271275Y0170323D01*
X0270991Y0170075D01*
X0270713Y0169820D01*
X0270441Y0169558D01*
X0270176Y0169289D01*
X0269918Y0169014D01*
X0269666Y0168733D01*
X0269421Y0168446D01*
X0269184Y0168153D01*
X0268953Y0167855D01*
X0268730Y0167550D01*
X0268514Y0167241D01*
X0268306Y0166926D01*
X0268106Y0166607D01*
X0267913Y0166282D01*
X0267729Y0165953D01*
X0267552Y0165620D01*
X0267384Y0165282D01*
X0267224Y0164940D01*
X0267072Y0164595D01*
X0266929Y0164246D01*
X0266795Y0163893D01*
X0266669Y0163538D01*
X0266551Y0163179D01*
X0266443Y0162818D01*
X0266343Y0162454D01*
X0266252Y0162088D01*
X0266288Y0162079D01*
X0266379Y0162445D01*
X0266478Y0162808D01*
X0266587Y0163168D01*
X0266704Y0163526D01*
X0266829Y0163881D01*
X0266964Y0164232D01*
X0267106Y0164580D01*
X0267258Y0164925D01*
X0267417Y0165266D01*
X0267585Y0165603D01*
X0267761Y0165935D01*
X0267945Y0166264D01*
X0268137Y0166587D01*
X0268337Y0166906D01*
X0268545Y0167220D01*
X0268760Y0167529D01*
X0268983Y0167832D01*
X0269213Y0168130D01*
X0269450Y0168423D01*
X0269694Y0168709D01*
X0269945Y0168989D01*
X0270203Y0169264D01*
X0270467Y0169531D01*
X0270738Y0169793D01*
X0271015Y0170047D01*
X0271299Y0170295D01*
X0271588Y0170536D01*
X0271883Y0170770D01*
X0272183Y0170996D01*
X0272490Y0171215D01*
X0272801Y0171427D01*
X0273117Y0171631D01*
X0273438Y0171827D01*
X0273764Y0172015D01*
X0274095Y0172195D01*
X0274429Y0172367D01*
X0274768Y0172531D01*
X0275111Y0172687D01*
X0275457Y0172834D01*
X0275807Y0172973D01*
X0276160Y0173103D01*
X0276516Y0173225D01*
X0276876Y0173338D01*
X0277237Y0173442D01*
X0277601Y0173537D01*
X0277968Y0173623D01*
X0278336Y0173701D01*
X0278706Y0173769D01*
X0279078Y0173828D01*
X0279451Y0173879D01*
X0279825Y0173920D01*
X0280200Y0173952D01*
X0280576Y0173975D01*
X0280952Y0173988D01*
X0281328Y0173993D01*
X0281704Y0173988D01*
X0282080Y0173975D01*
X0282456Y0173952D01*
X0282831Y0173920D01*
X0283205Y0173879D01*
X0283578Y0173828D01*
X0283950Y0173769D01*
X0284320Y0173701D01*
X0284688Y0173623D01*
X0285055Y0173537D01*
X0285419Y0173442D01*
X0285780Y0173338D01*
X0286140Y0173225D01*
X0286496Y0173103D01*
X0286849Y0172973D01*
X0287199Y0172834D01*
X0287545Y0172687D01*
X0287888Y0172531D01*
X0288227Y0172367D01*
X0288561Y0172195D01*
X0288892Y0172015D01*
X0289218Y0171827D01*
X0289539Y0171631D01*
X0289855Y0171427D01*
X0290166Y0171215D01*
X0290473Y0170996D01*
X0290773Y0170770D01*
X0291068Y0170536D01*
X0291357Y0170295D01*
X0291641Y0170047D01*
X0291918Y0169793D01*
X0292189Y0169531D01*
X0292453Y0169264D01*
X0292711Y0168989D01*
X0292962Y0168709D01*
X0293206Y0168423D01*
X0293443Y0168130D01*
X0293673Y0167832D01*
X0293896Y0167529D01*
X0294111Y0167220D01*
X0294319Y0166906D01*
X0294519Y0166587D01*
X0294711Y0166264D01*
X0294895Y0165935D01*
X0295071Y0165603D01*
X0295239Y0165266D01*
X0295398Y0164925D01*
X0295550Y0164580D01*
X0295692Y0164232D01*
X0295827Y0163881D01*
X0295952Y0163526D01*
X0296069Y0163168D01*
X0296178Y0162808D01*
X0296277Y0162445D01*
X0296368Y0162079D01*
X0296332Y0162071D01*
X0296241Y0162435D01*
X0296142Y0162797D01*
X0296034Y0163157D01*
X0295917Y0163514D01*
X0295792Y0163868D01*
X0295658Y0164219D01*
X0295515Y0164566D01*
X0295365Y0164910D01*
X0295205Y0165250D01*
X0295038Y0165586D01*
X0294862Y0165918D01*
X0294679Y0166245D01*
X0294487Y0166568D01*
X0294288Y0166886D01*
X0294081Y0167199D01*
X0293866Y0167507D01*
X0293644Y0167810D01*
X0293414Y0168107D01*
X0293178Y0168399D01*
X0292934Y0168685D01*
X0292684Y0168964D01*
X0292427Y0169238D01*
X0292163Y0169505D01*
X0291893Y0169766D01*
X0291616Y0170020D01*
X0291333Y0170267D01*
X0291045Y0170507D01*
X0290751Y0170740D01*
X0290451Y0170966D01*
X0290145Y0171185D01*
X0289835Y0171396D01*
X0289519Y0171599D01*
X0289199Y0171795D01*
X0288874Y0171983D01*
X0288544Y0172163D01*
X0288210Y0172334D01*
X0287872Y0172498D01*
X0287530Y0172653D01*
X0287185Y0172800D01*
X0286836Y0172938D01*
X0286483Y0173068D01*
X0286128Y0173190D01*
X0285770Y0173302D01*
X0285409Y0173406D01*
X0285046Y0173501D01*
X0284680Y0173587D01*
X0284313Y0173664D01*
X0283944Y0173732D01*
X0283573Y0173792D01*
X0283201Y0173842D01*
X0282828Y0173883D01*
X0282453Y0173915D01*
X0282079Y0173938D01*
X0281703Y0173951D01*
X0281328Y0173956D01*
X0280953Y0173951D01*
X0280577Y0173938D01*
X0280203Y0173915D01*
X0279828Y0173883D01*
X0279455Y0173842D01*
X0279083Y0173792D01*
X0278712Y0173732D01*
X0278343Y0173664D01*
X0277976Y0173587D01*
X0277610Y0173501D01*
X0277247Y0173406D01*
X0276886Y0173302D01*
X0276528Y0173190D01*
X0276173Y0173068D01*
X0275820Y0172938D01*
X0275471Y0172800D01*
X0275126Y0172653D01*
X0274784Y0172498D01*
X0274446Y0172334D01*
X0274112Y0172163D01*
X0273782Y0171983D01*
X0273457Y0171795D01*
X0273137Y0171599D01*
X0272821Y0171396D01*
X0272511Y0171185D01*
X0272205Y0170966D01*
X0271905Y0170740D01*
X0271611Y0170507D01*
X0271323Y0170267D01*
X0271040Y0170020D01*
X0270763Y0169766D01*
X0270493Y0169505D01*
X0270229Y0169238D01*
X0269972Y0168964D01*
X0269722Y0168685D01*
X0269478Y0168399D01*
X0269242Y0168107D01*
X0269012Y0167810D01*
X0268790Y0167507D01*
X0268575Y0167199D01*
X0268368Y0166886D01*
X0268169Y0166568D01*
X0267977Y0166245D01*
X0267794Y0165918D01*
X0267618Y0165586D01*
X0267451Y0165250D01*
X0267291Y0164910D01*
X0267141Y0164566D01*
X0266998Y0164219D01*
X0266864Y0163868D01*
X0266739Y0163514D01*
X0266622Y0163157D01*
X0266514Y0162797D01*
X0266415Y0162435D01*
X0266324Y0162071D01*
M02*
