G75*
%MOIN*%
%OFA0B0*%
%FSLAX25Y25*%
%IPPOS*%
%LPD*%
%AMOC8*
5,1,8,0,0,1.08239X$1,22.5*
%
%ADD10C,0.00000*%
%ADD11C,0.00000*%
%ADD12C,0.04134*%
%ADD13C,0.07382*%
%ADD14C,0.00500*%
%ADD15C,0.00800*%
%ADD16C,0.02000*%
%ADD17C,0.02953*%
D10*
X0116756Y0031009D02*
X0116751Y0031440D01*
X0116735Y0031872D01*
X0116708Y0032302D01*
X0116671Y0032732D01*
X0116624Y0033161D01*
X0116566Y0033588D01*
X0116498Y0034014D01*
X0116420Y0034438D01*
X0116331Y0034860D01*
X0116232Y0035280D01*
X0116123Y0035697D01*
X0116004Y0036112D01*
X0115875Y0036523D01*
X0115736Y0036932D01*
X0115586Y0037336D01*
X0115428Y0037737D01*
X0115259Y0038134D01*
X0115081Y0038527D01*
X0114893Y0038915D01*
X0114696Y0039299D01*
X0114490Y0039678D01*
X0114274Y0040052D01*
X0114050Y0040420D01*
X0113816Y0040783D01*
X0113574Y0041140D01*
X0113323Y0041491D01*
X0113064Y0041835D01*
X0112797Y0042174D01*
X0112521Y0042505D01*
X0112237Y0042830D01*
X0111946Y0043148D01*
X0111647Y0043459D01*
X0111340Y0043762D01*
X0111026Y0044058D01*
X0110705Y0044347D01*
X0110377Y0044627D01*
X0110043Y0044899D01*
X0109702Y0045163D01*
X0109354Y0045419D01*
X0109355Y0045419D02*
X0045299Y0091364D01*
X0037543Y0169828D01*
X0028764Y0183175D02*
X0003292Y0198135D01*
X0052504Y0283411D01*
X0077977Y0268687D01*
X0094118Y0267899D02*
X0165969Y0300380D01*
X0237819Y0268687D01*
X0238162Y0268494D01*
X0238509Y0268310D01*
X0238861Y0268134D01*
X0239217Y0267967D01*
X0239577Y0267809D01*
X0239940Y0267660D01*
X0240307Y0267519D01*
X0240678Y0267387D01*
X0241051Y0267265D01*
X0241428Y0267152D01*
X0241807Y0267047D01*
X0242188Y0266953D01*
X0242572Y0266867D01*
X0242958Y0266791D01*
X0243345Y0266724D01*
X0243734Y0266667D01*
X0244124Y0266619D01*
X0244516Y0266581D01*
X0244908Y0266552D01*
X0245300Y0266533D01*
X0245693Y0266523D01*
X0246087Y0266523D01*
X0246480Y0266533D01*
X0246872Y0266552D01*
X0247264Y0266581D01*
X0247656Y0266619D01*
X0248046Y0266667D01*
X0248435Y0266724D01*
X0248822Y0266791D01*
X0249208Y0266867D01*
X0249592Y0266953D01*
X0249973Y0267047D01*
X0250352Y0267152D01*
X0250729Y0267265D01*
X0251102Y0267387D01*
X0251473Y0267519D01*
X0251840Y0267660D01*
X0252203Y0267809D01*
X0252563Y0267967D01*
X0252919Y0268134D01*
X0253271Y0268310D01*
X0253618Y0268494D01*
X0253961Y0268687D01*
X0279433Y0283411D01*
X0328646Y0198135D01*
X0303173Y0183450D01*
X0294394Y0169828D02*
X0286638Y0091364D01*
X0222583Y0045419D01*
X0215181Y0031009D02*
X0215181Y0001600D01*
X0116756Y0001600D01*
X0116756Y0031009D01*
X0215181Y0031009D02*
X0215186Y0031440D01*
X0215202Y0031871D01*
X0215228Y0032302D01*
X0215265Y0032732D01*
X0215312Y0033161D01*
X0215370Y0033588D01*
X0215438Y0034014D01*
X0215516Y0034438D01*
X0215604Y0034860D01*
X0215703Y0035280D01*
X0215812Y0035698D01*
X0215931Y0036112D01*
X0216061Y0036524D01*
X0216200Y0036932D01*
X0216349Y0037337D01*
X0216508Y0037738D01*
X0216676Y0038135D01*
X0216855Y0038528D01*
X0217042Y0038916D01*
X0217239Y0039300D01*
X0217446Y0039679D01*
X0217661Y0040052D01*
X0217886Y0040421D01*
X0218119Y0040783D01*
X0218361Y0041140D01*
X0218612Y0041491D01*
X0218872Y0041836D01*
X0219139Y0042174D01*
X0219415Y0042506D01*
X0219699Y0042831D01*
X0219990Y0043149D01*
X0220289Y0043460D01*
X0220596Y0043763D01*
X0220910Y0044059D01*
X0221231Y0044347D01*
X0221559Y0044627D01*
X0221894Y0044899D01*
X0222235Y0045163D01*
X0222583Y0045418D01*
X0294394Y0169828D02*
X0294442Y0170257D01*
X0294500Y0170685D01*
X0294568Y0171111D01*
X0294647Y0171535D01*
X0294736Y0171957D01*
X0294835Y0172377D01*
X0294945Y0172795D01*
X0295064Y0173209D01*
X0295194Y0173621D01*
X0295334Y0174029D01*
X0295483Y0174434D01*
X0295642Y0174835D01*
X0295811Y0175232D01*
X0295990Y0175625D01*
X0296178Y0176013D01*
X0296376Y0176397D01*
X0296582Y0176776D01*
X0296798Y0177149D01*
X0297023Y0177517D01*
X0297257Y0177880D01*
X0297499Y0178237D01*
X0297750Y0178588D01*
X0298010Y0178933D01*
X0298278Y0179271D01*
X0298554Y0179603D01*
X0298838Y0179928D01*
X0299130Y0180245D01*
X0299429Y0180556D01*
X0299736Y0180859D01*
X0300050Y0181155D01*
X0300371Y0181443D01*
X0300700Y0181723D01*
X0301035Y0181996D01*
X0301376Y0182259D01*
X0301724Y0182515D01*
X0302078Y0182762D01*
X0302437Y0183000D01*
X0302803Y0183230D01*
X0303174Y0183450D01*
X0094118Y0267899D02*
X0093724Y0267726D01*
X0093326Y0267564D01*
X0092924Y0267410D01*
X0092518Y0267267D01*
X0092109Y0267134D01*
X0091697Y0267010D01*
X0091282Y0266897D01*
X0090864Y0266793D01*
X0090444Y0266700D01*
X0090022Y0266617D01*
X0089598Y0266545D01*
X0089172Y0266482D01*
X0088745Y0266430D01*
X0088317Y0266389D01*
X0087888Y0266357D01*
X0087458Y0266337D01*
X0087028Y0266326D01*
X0086597Y0266326D01*
X0086167Y0266337D01*
X0085737Y0266358D01*
X0085308Y0266389D01*
X0084880Y0266431D01*
X0084453Y0266483D01*
X0084027Y0266546D01*
X0083603Y0266619D01*
X0083181Y0266702D01*
X0082761Y0266795D01*
X0082344Y0266898D01*
X0081929Y0267012D01*
X0081516Y0267136D01*
X0081107Y0267269D01*
X0080702Y0267413D01*
X0080300Y0267566D01*
X0079902Y0267729D01*
X0079507Y0267902D01*
X0079118Y0268084D01*
X0078732Y0268275D01*
X0078352Y0268476D01*
X0077976Y0268686D01*
X0028764Y0183174D02*
X0029137Y0182949D01*
X0029504Y0182715D01*
X0029865Y0182473D01*
X0030221Y0182221D01*
X0030570Y0181961D01*
X0030913Y0181693D01*
X0031250Y0181417D01*
X0031580Y0181132D01*
X0031902Y0180840D01*
X0032218Y0180540D01*
X0032526Y0180233D01*
X0032827Y0179918D01*
X0033120Y0179596D01*
X0033406Y0179267D01*
X0033683Y0178931D01*
X0033952Y0178589D01*
X0034213Y0178240D01*
X0034465Y0177885D01*
X0034709Y0177524D01*
X0034944Y0177158D01*
X0035170Y0176785D01*
X0035387Y0176408D01*
X0035594Y0176025D01*
X0035793Y0175638D01*
X0035982Y0175245D01*
X0036162Y0174849D01*
X0036332Y0174448D01*
X0036492Y0174043D01*
X0036642Y0173634D01*
X0036783Y0173222D01*
X0036914Y0172807D01*
X0037034Y0172388D01*
X0037145Y0171967D01*
X0037245Y0171543D01*
X0037335Y0171117D01*
X0037415Y0170689D01*
X0037484Y0170259D01*
X0037543Y0169828D01*
D11*
X0031157Y0230931D02*
X0031161Y0231269D01*
X0031174Y0231607D01*
X0031194Y0231945D01*
X0031223Y0232282D01*
X0031261Y0232618D01*
X0031306Y0232953D01*
X0031360Y0233287D01*
X0031422Y0233619D01*
X0031492Y0233950D01*
X0031570Y0234279D01*
X0031656Y0234606D01*
X0031750Y0234931D01*
X0031853Y0235254D01*
X0031963Y0235573D01*
X0032080Y0235890D01*
X0032206Y0236204D01*
X0032339Y0236515D01*
X0032480Y0236823D01*
X0032628Y0237127D01*
X0032784Y0237427D01*
X0032947Y0237723D01*
X0033117Y0238015D01*
X0033295Y0238303D01*
X0033479Y0238587D01*
X0033671Y0238866D01*
X0033869Y0239140D01*
X0034074Y0239409D01*
X0034285Y0239673D01*
X0034503Y0239932D01*
X0034727Y0240185D01*
X0034957Y0240433D01*
X0035193Y0240675D01*
X0035435Y0240911D01*
X0035683Y0241141D01*
X0035936Y0241365D01*
X0036195Y0241583D01*
X0036459Y0241794D01*
X0036728Y0241999D01*
X0037002Y0242197D01*
X0037281Y0242389D01*
X0037565Y0242573D01*
X0037853Y0242751D01*
X0038145Y0242921D01*
X0038441Y0243084D01*
X0038741Y0243240D01*
X0039045Y0243388D01*
X0039353Y0243529D01*
X0039664Y0243662D01*
X0039978Y0243788D01*
X0040295Y0243905D01*
X0040614Y0244015D01*
X0040937Y0244118D01*
X0041262Y0244212D01*
X0041589Y0244298D01*
X0041918Y0244376D01*
X0042249Y0244446D01*
X0042581Y0244508D01*
X0042915Y0244562D01*
X0043250Y0244607D01*
X0043586Y0244645D01*
X0043923Y0244674D01*
X0044261Y0244694D01*
X0044599Y0244707D01*
X0044937Y0244711D01*
X0045275Y0244707D01*
X0045613Y0244694D01*
X0045951Y0244674D01*
X0046288Y0244645D01*
X0046624Y0244607D01*
X0046959Y0244562D01*
X0047293Y0244508D01*
X0047625Y0244446D01*
X0047956Y0244376D01*
X0048285Y0244298D01*
X0048612Y0244212D01*
X0048937Y0244118D01*
X0049260Y0244015D01*
X0049579Y0243905D01*
X0049896Y0243788D01*
X0050210Y0243662D01*
X0050521Y0243529D01*
X0050829Y0243388D01*
X0051133Y0243240D01*
X0051433Y0243084D01*
X0051729Y0242921D01*
X0052021Y0242751D01*
X0052309Y0242573D01*
X0052593Y0242389D01*
X0052872Y0242197D01*
X0053146Y0241999D01*
X0053415Y0241794D01*
X0053679Y0241583D01*
X0053938Y0241365D01*
X0054191Y0241141D01*
X0054439Y0240911D01*
X0054681Y0240675D01*
X0054917Y0240433D01*
X0055147Y0240185D01*
X0055371Y0239932D01*
X0055589Y0239673D01*
X0055800Y0239409D01*
X0056005Y0239140D01*
X0056203Y0238866D01*
X0056395Y0238587D01*
X0056579Y0238303D01*
X0056757Y0238015D01*
X0056927Y0237723D01*
X0057090Y0237427D01*
X0057246Y0237127D01*
X0057394Y0236823D01*
X0057535Y0236515D01*
X0057668Y0236204D01*
X0057794Y0235890D01*
X0057911Y0235573D01*
X0058021Y0235254D01*
X0058124Y0234931D01*
X0058218Y0234606D01*
X0058304Y0234279D01*
X0058382Y0233950D01*
X0058452Y0233619D01*
X0058514Y0233287D01*
X0058568Y0232953D01*
X0058613Y0232618D01*
X0058651Y0232282D01*
X0058680Y0231945D01*
X0058700Y0231607D01*
X0058713Y0231269D01*
X0058717Y0230931D01*
X0058713Y0230593D01*
X0058700Y0230255D01*
X0058680Y0229917D01*
X0058651Y0229580D01*
X0058613Y0229244D01*
X0058568Y0228909D01*
X0058514Y0228575D01*
X0058452Y0228243D01*
X0058382Y0227912D01*
X0058304Y0227583D01*
X0058218Y0227256D01*
X0058124Y0226931D01*
X0058021Y0226608D01*
X0057911Y0226289D01*
X0057794Y0225972D01*
X0057668Y0225658D01*
X0057535Y0225347D01*
X0057394Y0225039D01*
X0057246Y0224735D01*
X0057090Y0224435D01*
X0056927Y0224139D01*
X0056757Y0223847D01*
X0056579Y0223559D01*
X0056395Y0223275D01*
X0056203Y0222996D01*
X0056005Y0222722D01*
X0055800Y0222453D01*
X0055589Y0222189D01*
X0055371Y0221930D01*
X0055147Y0221677D01*
X0054917Y0221429D01*
X0054681Y0221187D01*
X0054439Y0220951D01*
X0054191Y0220721D01*
X0053938Y0220497D01*
X0053679Y0220279D01*
X0053415Y0220068D01*
X0053146Y0219863D01*
X0052872Y0219665D01*
X0052593Y0219473D01*
X0052309Y0219289D01*
X0052021Y0219111D01*
X0051729Y0218941D01*
X0051433Y0218778D01*
X0051133Y0218622D01*
X0050829Y0218474D01*
X0050521Y0218333D01*
X0050210Y0218200D01*
X0049896Y0218074D01*
X0049579Y0217957D01*
X0049260Y0217847D01*
X0048937Y0217744D01*
X0048612Y0217650D01*
X0048285Y0217564D01*
X0047956Y0217486D01*
X0047625Y0217416D01*
X0047293Y0217354D01*
X0046959Y0217300D01*
X0046624Y0217255D01*
X0046288Y0217217D01*
X0045951Y0217188D01*
X0045613Y0217168D01*
X0045275Y0217155D01*
X0044937Y0217151D01*
X0044599Y0217155D01*
X0044261Y0217168D01*
X0043923Y0217188D01*
X0043586Y0217217D01*
X0043250Y0217255D01*
X0042915Y0217300D01*
X0042581Y0217354D01*
X0042249Y0217416D01*
X0041918Y0217486D01*
X0041589Y0217564D01*
X0041262Y0217650D01*
X0040937Y0217744D01*
X0040614Y0217847D01*
X0040295Y0217957D01*
X0039978Y0218074D01*
X0039664Y0218200D01*
X0039353Y0218333D01*
X0039045Y0218474D01*
X0038741Y0218622D01*
X0038441Y0218778D01*
X0038145Y0218941D01*
X0037853Y0219111D01*
X0037565Y0219289D01*
X0037281Y0219473D01*
X0037002Y0219665D01*
X0036728Y0219863D01*
X0036459Y0220068D01*
X0036195Y0220279D01*
X0035936Y0220497D01*
X0035683Y0220721D01*
X0035435Y0220951D01*
X0035193Y0221187D01*
X0034957Y0221429D01*
X0034727Y0221677D01*
X0034503Y0221930D01*
X0034285Y0222189D01*
X0034074Y0222453D01*
X0033869Y0222722D01*
X0033671Y0222996D01*
X0033479Y0223275D01*
X0033295Y0223559D01*
X0033117Y0223847D01*
X0032947Y0224139D01*
X0032784Y0224435D01*
X0032628Y0224735D01*
X0032480Y0225039D01*
X0032339Y0225347D01*
X0032206Y0225658D01*
X0032080Y0225972D01*
X0031963Y0226289D01*
X0031853Y0226608D01*
X0031750Y0226931D01*
X0031656Y0227256D01*
X0031570Y0227583D01*
X0031492Y0227912D01*
X0031422Y0228243D01*
X0031360Y0228575D01*
X0031306Y0228909D01*
X0031261Y0229244D01*
X0031223Y0229580D01*
X0031194Y0229917D01*
X0031174Y0230255D01*
X0031161Y0230593D01*
X0031157Y0230931D01*
X0132189Y0199395D02*
X0132189Y0169238D01*
X0183370Y0169238D01*
X0183370Y0199395D01*
X0132189Y0199395D01*
X0076520Y0127584D02*
X0076529Y0128357D01*
X0076558Y0129129D01*
X0076605Y0129901D01*
X0076672Y0130671D01*
X0076757Y0131439D01*
X0076861Y0132205D01*
X0076984Y0132969D01*
X0077125Y0133729D01*
X0077285Y0134485D01*
X0077464Y0135237D01*
X0077661Y0135984D01*
X0077876Y0136727D01*
X0078110Y0137464D01*
X0078361Y0138195D01*
X0078630Y0138919D01*
X0078917Y0139637D01*
X0079222Y0140347D01*
X0079544Y0141050D01*
X0079883Y0141745D01*
X0080239Y0142431D01*
X0080612Y0143108D01*
X0081001Y0143776D01*
X0081406Y0144434D01*
X0081828Y0145082D01*
X0082265Y0145720D01*
X0082718Y0146346D01*
X0083186Y0146961D01*
X0083669Y0147565D01*
X0084167Y0148156D01*
X0084679Y0148735D01*
X0085205Y0149302D01*
X0085745Y0149855D01*
X0086298Y0150395D01*
X0086865Y0150921D01*
X0087444Y0151433D01*
X0088035Y0151931D01*
X0088639Y0152414D01*
X0089254Y0152882D01*
X0089880Y0153335D01*
X0090518Y0153772D01*
X0091166Y0154194D01*
X0091824Y0154599D01*
X0092492Y0154988D01*
X0093169Y0155361D01*
X0093855Y0155717D01*
X0094550Y0156056D01*
X0095253Y0156378D01*
X0095963Y0156683D01*
X0096681Y0156970D01*
X0097405Y0157239D01*
X0098136Y0157490D01*
X0098873Y0157724D01*
X0099616Y0157939D01*
X0100363Y0158136D01*
X0101115Y0158315D01*
X0101871Y0158475D01*
X0102631Y0158616D01*
X0103395Y0158739D01*
X0104161Y0158843D01*
X0104929Y0158928D01*
X0105699Y0158995D01*
X0106471Y0159042D01*
X0107243Y0159071D01*
X0108016Y0159080D01*
X0108789Y0159071D01*
X0109561Y0159042D01*
X0110333Y0158995D01*
X0111103Y0158928D01*
X0111871Y0158843D01*
X0112637Y0158739D01*
X0113401Y0158616D01*
X0114161Y0158475D01*
X0114917Y0158315D01*
X0115669Y0158136D01*
X0116416Y0157939D01*
X0117159Y0157724D01*
X0117896Y0157490D01*
X0118627Y0157239D01*
X0119351Y0156970D01*
X0120069Y0156683D01*
X0120779Y0156378D01*
X0121482Y0156056D01*
X0122177Y0155717D01*
X0122863Y0155361D01*
X0123540Y0154988D01*
X0124208Y0154599D01*
X0124866Y0154194D01*
X0125514Y0153772D01*
X0126152Y0153335D01*
X0126778Y0152882D01*
X0127393Y0152414D01*
X0127997Y0151931D01*
X0128588Y0151433D01*
X0129167Y0150921D01*
X0129734Y0150395D01*
X0130287Y0149855D01*
X0130827Y0149302D01*
X0131353Y0148735D01*
X0131865Y0148156D01*
X0132363Y0147565D01*
X0132846Y0146961D01*
X0133314Y0146346D01*
X0133767Y0145720D01*
X0134204Y0145082D01*
X0134626Y0144434D01*
X0135031Y0143776D01*
X0135420Y0143108D01*
X0135793Y0142431D01*
X0136149Y0141745D01*
X0136488Y0141050D01*
X0136810Y0140347D01*
X0137115Y0139637D01*
X0137402Y0138919D01*
X0137671Y0138195D01*
X0137922Y0137464D01*
X0138156Y0136727D01*
X0138371Y0135984D01*
X0138568Y0135237D01*
X0138747Y0134485D01*
X0138907Y0133729D01*
X0139048Y0132969D01*
X0139171Y0132205D01*
X0139275Y0131439D01*
X0139360Y0130671D01*
X0139427Y0129901D01*
X0139474Y0129129D01*
X0139503Y0128357D01*
X0139512Y0127584D01*
X0139503Y0126811D01*
X0139474Y0126039D01*
X0139427Y0125267D01*
X0139360Y0124497D01*
X0139275Y0123729D01*
X0139171Y0122963D01*
X0139048Y0122199D01*
X0138907Y0121439D01*
X0138747Y0120683D01*
X0138568Y0119931D01*
X0138371Y0119184D01*
X0138156Y0118441D01*
X0137922Y0117704D01*
X0137671Y0116973D01*
X0137402Y0116249D01*
X0137115Y0115531D01*
X0136810Y0114821D01*
X0136488Y0114118D01*
X0136149Y0113423D01*
X0135793Y0112737D01*
X0135420Y0112060D01*
X0135031Y0111392D01*
X0134626Y0110734D01*
X0134204Y0110086D01*
X0133767Y0109448D01*
X0133314Y0108822D01*
X0132846Y0108207D01*
X0132363Y0107603D01*
X0131865Y0107012D01*
X0131353Y0106433D01*
X0130827Y0105866D01*
X0130287Y0105313D01*
X0129734Y0104773D01*
X0129167Y0104247D01*
X0128588Y0103735D01*
X0127997Y0103237D01*
X0127393Y0102754D01*
X0126778Y0102286D01*
X0126152Y0101833D01*
X0125514Y0101396D01*
X0124866Y0100974D01*
X0124208Y0100569D01*
X0123540Y0100180D01*
X0122863Y0099807D01*
X0122177Y0099451D01*
X0121482Y0099112D01*
X0120779Y0098790D01*
X0120069Y0098485D01*
X0119351Y0098198D01*
X0118627Y0097929D01*
X0117896Y0097678D01*
X0117159Y0097444D01*
X0116416Y0097229D01*
X0115669Y0097032D01*
X0114917Y0096853D01*
X0114161Y0096693D01*
X0113401Y0096552D01*
X0112637Y0096429D01*
X0111871Y0096325D01*
X0111103Y0096240D01*
X0110333Y0096173D01*
X0109561Y0096126D01*
X0108789Y0096097D01*
X0108016Y0096088D01*
X0107243Y0096097D01*
X0106471Y0096126D01*
X0105699Y0096173D01*
X0104929Y0096240D01*
X0104161Y0096325D01*
X0103395Y0096429D01*
X0102631Y0096552D01*
X0101871Y0096693D01*
X0101115Y0096853D01*
X0100363Y0097032D01*
X0099616Y0097229D01*
X0098873Y0097444D01*
X0098136Y0097678D01*
X0097405Y0097929D01*
X0096681Y0098198D01*
X0095963Y0098485D01*
X0095253Y0098790D01*
X0094550Y0099112D01*
X0093855Y0099451D01*
X0093169Y0099807D01*
X0092492Y0100180D01*
X0091824Y0100569D01*
X0091166Y0100974D01*
X0090518Y0101396D01*
X0089880Y0101833D01*
X0089254Y0102286D01*
X0088639Y0102754D01*
X0088035Y0103237D01*
X0087444Y0103735D01*
X0086865Y0104247D01*
X0086298Y0104773D01*
X0085745Y0105313D01*
X0085205Y0105866D01*
X0084679Y0106433D01*
X0084167Y0107012D01*
X0083669Y0107603D01*
X0083186Y0108207D01*
X0082718Y0108822D01*
X0082265Y0109448D01*
X0081828Y0110086D01*
X0081406Y0110734D01*
X0081001Y0111392D01*
X0080612Y0112060D01*
X0080239Y0112737D01*
X0079883Y0113423D01*
X0079544Y0114118D01*
X0079222Y0114821D01*
X0078917Y0115531D01*
X0078630Y0116249D01*
X0078361Y0116973D01*
X0078110Y0117704D01*
X0077876Y0118441D01*
X0077661Y0119184D01*
X0077464Y0119931D01*
X0077285Y0120683D01*
X0077125Y0121439D01*
X0076984Y0122199D01*
X0076861Y0122963D01*
X0076757Y0123729D01*
X0076672Y0124497D01*
X0076605Y0125267D01*
X0076558Y0126039D01*
X0076529Y0126811D01*
X0076520Y0127584D01*
X0152197Y0021285D02*
X0152201Y0021623D01*
X0152214Y0021961D01*
X0152234Y0022299D01*
X0152263Y0022636D01*
X0152301Y0022972D01*
X0152346Y0023307D01*
X0152400Y0023641D01*
X0152462Y0023973D01*
X0152532Y0024304D01*
X0152610Y0024633D01*
X0152696Y0024960D01*
X0152790Y0025285D01*
X0152893Y0025608D01*
X0153003Y0025927D01*
X0153120Y0026244D01*
X0153246Y0026558D01*
X0153379Y0026869D01*
X0153520Y0027177D01*
X0153668Y0027481D01*
X0153824Y0027781D01*
X0153987Y0028077D01*
X0154157Y0028369D01*
X0154335Y0028657D01*
X0154519Y0028941D01*
X0154711Y0029220D01*
X0154909Y0029494D01*
X0155114Y0029763D01*
X0155325Y0030027D01*
X0155543Y0030286D01*
X0155767Y0030539D01*
X0155997Y0030787D01*
X0156233Y0031029D01*
X0156475Y0031265D01*
X0156723Y0031495D01*
X0156976Y0031719D01*
X0157235Y0031937D01*
X0157499Y0032148D01*
X0157768Y0032353D01*
X0158042Y0032551D01*
X0158321Y0032743D01*
X0158605Y0032927D01*
X0158893Y0033105D01*
X0159185Y0033275D01*
X0159481Y0033438D01*
X0159781Y0033594D01*
X0160085Y0033742D01*
X0160393Y0033883D01*
X0160704Y0034016D01*
X0161018Y0034142D01*
X0161335Y0034259D01*
X0161654Y0034369D01*
X0161977Y0034472D01*
X0162302Y0034566D01*
X0162629Y0034652D01*
X0162958Y0034730D01*
X0163289Y0034800D01*
X0163621Y0034862D01*
X0163955Y0034916D01*
X0164290Y0034961D01*
X0164626Y0034999D01*
X0164963Y0035028D01*
X0165301Y0035048D01*
X0165639Y0035061D01*
X0165977Y0035065D01*
X0166315Y0035061D01*
X0166653Y0035048D01*
X0166991Y0035028D01*
X0167328Y0034999D01*
X0167664Y0034961D01*
X0167999Y0034916D01*
X0168333Y0034862D01*
X0168665Y0034800D01*
X0168996Y0034730D01*
X0169325Y0034652D01*
X0169652Y0034566D01*
X0169977Y0034472D01*
X0170300Y0034369D01*
X0170619Y0034259D01*
X0170936Y0034142D01*
X0171250Y0034016D01*
X0171561Y0033883D01*
X0171869Y0033742D01*
X0172173Y0033594D01*
X0172473Y0033438D01*
X0172769Y0033275D01*
X0173061Y0033105D01*
X0173349Y0032927D01*
X0173633Y0032743D01*
X0173912Y0032551D01*
X0174186Y0032353D01*
X0174455Y0032148D01*
X0174719Y0031937D01*
X0174978Y0031719D01*
X0175231Y0031495D01*
X0175479Y0031265D01*
X0175721Y0031029D01*
X0175957Y0030787D01*
X0176187Y0030539D01*
X0176411Y0030286D01*
X0176629Y0030027D01*
X0176840Y0029763D01*
X0177045Y0029494D01*
X0177243Y0029220D01*
X0177435Y0028941D01*
X0177619Y0028657D01*
X0177797Y0028369D01*
X0177967Y0028077D01*
X0178130Y0027781D01*
X0178286Y0027481D01*
X0178434Y0027177D01*
X0178575Y0026869D01*
X0178708Y0026558D01*
X0178834Y0026244D01*
X0178951Y0025927D01*
X0179061Y0025608D01*
X0179164Y0025285D01*
X0179258Y0024960D01*
X0179344Y0024633D01*
X0179422Y0024304D01*
X0179492Y0023973D01*
X0179554Y0023641D01*
X0179608Y0023307D01*
X0179653Y0022972D01*
X0179691Y0022636D01*
X0179720Y0022299D01*
X0179740Y0021961D01*
X0179753Y0021623D01*
X0179757Y0021285D01*
X0179753Y0020947D01*
X0179740Y0020609D01*
X0179720Y0020271D01*
X0179691Y0019934D01*
X0179653Y0019598D01*
X0179608Y0019263D01*
X0179554Y0018929D01*
X0179492Y0018597D01*
X0179422Y0018266D01*
X0179344Y0017937D01*
X0179258Y0017610D01*
X0179164Y0017285D01*
X0179061Y0016962D01*
X0178951Y0016643D01*
X0178834Y0016326D01*
X0178708Y0016012D01*
X0178575Y0015701D01*
X0178434Y0015393D01*
X0178286Y0015089D01*
X0178130Y0014789D01*
X0177967Y0014493D01*
X0177797Y0014201D01*
X0177619Y0013913D01*
X0177435Y0013629D01*
X0177243Y0013350D01*
X0177045Y0013076D01*
X0176840Y0012807D01*
X0176629Y0012543D01*
X0176411Y0012284D01*
X0176187Y0012031D01*
X0175957Y0011783D01*
X0175721Y0011541D01*
X0175479Y0011305D01*
X0175231Y0011075D01*
X0174978Y0010851D01*
X0174719Y0010633D01*
X0174455Y0010422D01*
X0174186Y0010217D01*
X0173912Y0010019D01*
X0173633Y0009827D01*
X0173349Y0009643D01*
X0173061Y0009465D01*
X0172769Y0009295D01*
X0172473Y0009132D01*
X0172173Y0008976D01*
X0171869Y0008828D01*
X0171561Y0008687D01*
X0171250Y0008554D01*
X0170936Y0008428D01*
X0170619Y0008311D01*
X0170300Y0008201D01*
X0169977Y0008098D01*
X0169652Y0008004D01*
X0169325Y0007918D01*
X0168996Y0007840D01*
X0168665Y0007770D01*
X0168333Y0007708D01*
X0167999Y0007654D01*
X0167664Y0007609D01*
X0167328Y0007571D01*
X0166991Y0007542D01*
X0166653Y0007522D01*
X0166315Y0007509D01*
X0165977Y0007505D01*
X0165639Y0007509D01*
X0165301Y0007522D01*
X0164963Y0007542D01*
X0164626Y0007571D01*
X0164290Y0007609D01*
X0163955Y0007654D01*
X0163621Y0007708D01*
X0163289Y0007770D01*
X0162958Y0007840D01*
X0162629Y0007918D01*
X0162302Y0008004D01*
X0161977Y0008098D01*
X0161654Y0008201D01*
X0161335Y0008311D01*
X0161018Y0008428D01*
X0160704Y0008554D01*
X0160393Y0008687D01*
X0160085Y0008828D01*
X0159781Y0008976D01*
X0159481Y0009132D01*
X0159185Y0009295D01*
X0158893Y0009465D01*
X0158605Y0009643D01*
X0158321Y0009827D01*
X0158042Y0010019D01*
X0157768Y0010217D01*
X0157499Y0010422D01*
X0157235Y0010633D01*
X0156976Y0010851D01*
X0156723Y0011075D01*
X0156475Y0011305D01*
X0156233Y0011541D01*
X0155997Y0011783D01*
X0155767Y0012031D01*
X0155543Y0012284D01*
X0155325Y0012543D01*
X0155114Y0012807D01*
X0154909Y0013076D01*
X0154711Y0013350D01*
X0154519Y0013629D01*
X0154335Y0013913D01*
X0154157Y0014201D01*
X0153987Y0014493D01*
X0153824Y0014789D01*
X0153668Y0015089D01*
X0153520Y0015393D01*
X0153379Y0015701D01*
X0153246Y0016012D01*
X0153120Y0016326D01*
X0153003Y0016643D01*
X0152893Y0016962D01*
X0152790Y0017285D01*
X0152696Y0017610D01*
X0152610Y0017937D01*
X0152532Y0018266D01*
X0152462Y0018597D01*
X0152400Y0018929D01*
X0152346Y0019263D01*
X0152301Y0019598D01*
X0152263Y0019934D01*
X0152234Y0020271D01*
X0152214Y0020609D01*
X0152201Y0020947D01*
X0152197Y0021285D01*
X0213763Y0127584D02*
X0213767Y0127922D01*
X0213780Y0128260D01*
X0213800Y0128598D01*
X0213829Y0128935D01*
X0213867Y0129271D01*
X0213912Y0129606D01*
X0213966Y0129940D01*
X0214028Y0130272D01*
X0214098Y0130603D01*
X0214176Y0130932D01*
X0214262Y0131259D01*
X0214356Y0131584D01*
X0214459Y0131907D01*
X0214569Y0132226D01*
X0214686Y0132543D01*
X0214812Y0132857D01*
X0214945Y0133168D01*
X0215086Y0133476D01*
X0215234Y0133780D01*
X0215390Y0134080D01*
X0215553Y0134376D01*
X0215723Y0134668D01*
X0215901Y0134956D01*
X0216085Y0135240D01*
X0216277Y0135519D01*
X0216475Y0135793D01*
X0216680Y0136062D01*
X0216891Y0136326D01*
X0217109Y0136585D01*
X0217333Y0136838D01*
X0217563Y0137086D01*
X0217799Y0137328D01*
X0218041Y0137564D01*
X0218289Y0137794D01*
X0218542Y0138018D01*
X0218801Y0138236D01*
X0219065Y0138447D01*
X0219334Y0138652D01*
X0219608Y0138850D01*
X0219887Y0139042D01*
X0220171Y0139226D01*
X0220459Y0139404D01*
X0220751Y0139574D01*
X0221047Y0139737D01*
X0221347Y0139893D01*
X0221651Y0140041D01*
X0221959Y0140182D01*
X0222270Y0140315D01*
X0222584Y0140441D01*
X0222901Y0140558D01*
X0223220Y0140668D01*
X0223543Y0140771D01*
X0223868Y0140865D01*
X0224195Y0140951D01*
X0224524Y0141029D01*
X0224855Y0141099D01*
X0225187Y0141161D01*
X0225521Y0141215D01*
X0225856Y0141260D01*
X0226192Y0141298D01*
X0226529Y0141327D01*
X0226867Y0141347D01*
X0227205Y0141360D01*
X0227543Y0141364D01*
X0227881Y0141360D01*
X0228219Y0141347D01*
X0228557Y0141327D01*
X0228894Y0141298D01*
X0229230Y0141260D01*
X0229565Y0141215D01*
X0229899Y0141161D01*
X0230231Y0141099D01*
X0230562Y0141029D01*
X0230891Y0140951D01*
X0231218Y0140865D01*
X0231543Y0140771D01*
X0231866Y0140668D01*
X0232185Y0140558D01*
X0232502Y0140441D01*
X0232816Y0140315D01*
X0233127Y0140182D01*
X0233435Y0140041D01*
X0233739Y0139893D01*
X0234039Y0139737D01*
X0234335Y0139574D01*
X0234627Y0139404D01*
X0234915Y0139226D01*
X0235199Y0139042D01*
X0235478Y0138850D01*
X0235752Y0138652D01*
X0236021Y0138447D01*
X0236285Y0138236D01*
X0236544Y0138018D01*
X0236797Y0137794D01*
X0237045Y0137564D01*
X0237287Y0137328D01*
X0237523Y0137086D01*
X0237753Y0136838D01*
X0237977Y0136585D01*
X0238195Y0136326D01*
X0238406Y0136062D01*
X0238611Y0135793D01*
X0238809Y0135519D01*
X0239001Y0135240D01*
X0239185Y0134956D01*
X0239363Y0134668D01*
X0239533Y0134376D01*
X0239696Y0134080D01*
X0239852Y0133780D01*
X0240000Y0133476D01*
X0240141Y0133168D01*
X0240274Y0132857D01*
X0240400Y0132543D01*
X0240517Y0132226D01*
X0240627Y0131907D01*
X0240730Y0131584D01*
X0240824Y0131259D01*
X0240910Y0130932D01*
X0240988Y0130603D01*
X0241058Y0130272D01*
X0241120Y0129940D01*
X0241174Y0129606D01*
X0241219Y0129271D01*
X0241257Y0128935D01*
X0241286Y0128598D01*
X0241306Y0128260D01*
X0241319Y0127922D01*
X0241323Y0127584D01*
X0241319Y0127246D01*
X0241306Y0126908D01*
X0241286Y0126570D01*
X0241257Y0126233D01*
X0241219Y0125897D01*
X0241174Y0125562D01*
X0241120Y0125228D01*
X0241058Y0124896D01*
X0240988Y0124565D01*
X0240910Y0124236D01*
X0240824Y0123909D01*
X0240730Y0123584D01*
X0240627Y0123261D01*
X0240517Y0122942D01*
X0240400Y0122625D01*
X0240274Y0122311D01*
X0240141Y0122000D01*
X0240000Y0121692D01*
X0239852Y0121388D01*
X0239696Y0121088D01*
X0239533Y0120792D01*
X0239363Y0120500D01*
X0239185Y0120212D01*
X0239001Y0119928D01*
X0238809Y0119649D01*
X0238611Y0119375D01*
X0238406Y0119106D01*
X0238195Y0118842D01*
X0237977Y0118583D01*
X0237753Y0118330D01*
X0237523Y0118082D01*
X0237287Y0117840D01*
X0237045Y0117604D01*
X0236797Y0117374D01*
X0236544Y0117150D01*
X0236285Y0116932D01*
X0236021Y0116721D01*
X0235752Y0116516D01*
X0235478Y0116318D01*
X0235199Y0116126D01*
X0234915Y0115942D01*
X0234627Y0115764D01*
X0234335Y0115594D01*
X0234039Y0115431D01*
X0233739Y0115275D01*
X0233435Y0115127D01*
X0233127Y0114986D01*
X0232816Y0114853D01*
X0232502Y0114727D01*
X0232185Y0114610D01*
X0231866Y0114500D01*
X0231543Y0114397D01*
X0231218Y0114303D01*
X0230891Y0114217D01*
X0230562Y0114139D01*
X0230231Y0114069D01*
X0229899Y0114007D01*
X0229565Y0113953D01*
X0229230Y0113908D01*
X0228894Y0113870D01*
X0228557Y0113841D01*
X0228219Y0113821D01*
X0227881Y0113808D01*
X0227543Y0113804D01*
X0227205Y0113808D01*
X0226867Y0113821D01*
X0226529Y0113841D01*
X0226192Y0113870D01*
X0225856Y0113908D01*
X0225521Y0113953D01*
X0225187Y0114007D01*
X0224855Y0114069D01*
X0224524Y0114139D01*
X0224195Y0114217D01*
X0223868Y0114303D01*
X0223543Y0114397D01*
X0223220Y0114500D01*
X0222901Y0114610D01*
X0222584Y0114727D01*
X0222270Y0114853D01*
X0221959Y0114986D01*
X0221651Y0115127D01*
X0221347Y0115275D01*
X0221047Y0115431D01*
X0220751Y0115594D01*
X0220459Y0115764D01*
X0220171Y0115942D01*
X0219887Y0116126D01*
X0219608Y0116318D01*
X0219334Y0116516D01*
X0219065Y0116721D01*
X0218801Y0116932D01*
X0218542Y0117150D01*
X0218289Y0117374D01*
X0218041Y0117604D01*
X0217799Y0117840D01*
X0217563Y0118082D01*
X0217333Y0118330D01*
X0217109Y0118583D01*
X0216891Y0118842D01*
X0216680Y0119106D01*
X0216475Y0119375D01*
X0216277Y0119649D01*
X0216085Y0119928D01*
X0215901Y0120212D01*
X0215723Y0120500D01*
X0215553Y0120792D01*
X0215390Y0121088D01*
X0215234Y0121388D01*
X0215086Y0121692D01*
X0214945Y0122000D01*
X0214812Y0122311D01*
X0214686Y0122625D01*
X0214569Y0122942D01*
X0214459Y0123261D01*
X0214356Y0123584D01*
X0214262Y0123909D01*
X0214176Y0124236D01*
X0214098Y0124565D01*
X0214028Y0124896D01*
X0213966Y0125228D01*
X0213912Y0125562D01*
X0213867Y0125897D01*
X0213829Y0126233D01*
X0213800Y0126570D01*
X0213780Y0126908D01*
X0213767Y0127246D01*
X0213763Y0127584D01*
X0273236Y0230931D02*
X0273240Y0231269D01*
X0273253Y0231607D01*
X0273273Y0231945D01*
X0273302Y0232282D01*
X0273340Y0232618D01*
X0273385Y0232953D01*
X0273439Y0233287D01*
X0273501Y0233619D01*
X0273571Y0233950D01*
X0273649Y0234279D01*
X0273735Y0234606D01*
X0273829Y0234931D01*
X0273932Y0235254D01*
X0274042Y0235573D01*
X0274159Y0235890D01*
X0274285Y0236204D01*
X0274418Y0236515D01*
X0274559Y0236823D01*
X0274707Y0237127D01*
X0274863Y0237427D01*
X0275026Y0237723D01*
X0275196Y0238015D01*
X0275374Y0238303D01*
X0275558Y0238587D01*
X0275750Y0238866D01*
X0275948Y0239140D01*
X0276153Y0239409D01*
X0276364Y0239673D01*
X0276582Y0239932D01*
X0276806Y0240185D01*
X0277036Y0240433D01*
X0277272Y0240675D01*
X0277514Y0240911D01*
X0277762Y0241141D01*
X0278015Y0241365D01*
X0278274Y0241583D01*
X0278538Y0241794D01*
X0278807Y0241999D01*
X0279081Y0242197D01*
X0279360Y0242389D01*
X0279644Y0242573D01*
X0279932Y0242751D01*
X0280224Y0242921D01*
X0280520Y0243084D01*
X0280820Y0243240D01*
X0281124Y0243388D01*
X0281432Y0243529D01*
X0281743Y0243662D01*
X0282057Y0243788D01*
X0282374Y0243905D01*
X0282693Y0244015D01*
X0283016Y0244118D01*
X0283341Y0244212D01*
X0283668Y0244298D01*
X0283997Y0244376D01*
X0284328Y0244446D01*
X0284660Y0244508D01*
X0284994Y0244562D01*
X0285329Y0244607D01*
X0285665Y0244645D01*
X0286002Y0244674D01*
X0286340Y0244694D01*
X0286678Y0244707D01*
X0287016Y0244711D01*
X0287354Y0244707D01*
X0287692Y0244694D01*
X0288030Y0244674D01*
X0288367Y0244645D01*
X0288703Y0244607D01*
X0289038Y0244562D01*
X0289372Y0244508D01*
X0289704Y0244446D01*
X0290035Y0244376D01*
X0290364Y0244298D01*
X0290691Y0244212D01*
X0291016Y0244118D01*
X0291339Y0244015D01*
X0291658Y0243905D01*
X0291975Y0243788D01*
X0292289Y0243662D01*
X0292600Y0243529D01*
X0292908Y0243388D01*
X0293212Y0243240D01*
X0293512Y0243084D01*
X0293808Y0242921D01*
X0294100Y0242751D01*
X0294388Y0242573D01*
X0294672Y0242389D01*
X0294951Y0242197D01*
X0295225Y0241999D01*
X0295494Y0241794D01*
X0295758Y0241583D01*
X0296017Y0241365D01*
X0296270Y0241141D01*
X0296518Y0240911D01*
X0296760Y0240675D01*
X0296996Y0240433D01*
X0297226Y0240185D01*
X0297450Y0239932D01*
X0297668Y0239673D01*
X0297879Y0239409D01*
X0298084Y0239140D01*
X0298282Y0238866D01*
X0298474Y0238587D01*
X0298658Y0238303D01*
X0298836Y0238015D01*
X0299006Y0237723D01*
X0299169Y0237427D01*
X0299325Y0237127D01*
X0299473Y0236823D01*
X0299614Y0236515D01*
X0299747Y0236204D01*
X0299873Y0235890D01*
X0299990Y0235573D01*
X0300100Y0235254D01*
X0300203Y0234931D01*
X0300297Y0234606D01*
X0300383Y0234279D01*
X0300461Y0233950D01*
X0300531Y0233619D01*
X0300593Y0233287D01*
X0300647Y0232953D01*
X0300692Y0232618D01*
X0300730Y0232282D01*
X0300759Y0231945D01*
X0300779Y0231607D01*
X0300792Y0231269D01*
X0300796Y0230931D01*
X0300792Y0230593D01*
X0300779Y0230255D01*
X0300759Y0229917D01*
X0300730Y0229580D01*
X0300692Y0229244D01*
X0300647Y0228909D01*
X0300593Y0228575D01*
X0300531Y0228243D01*
X0300461Y0227912D01*
X0300383Y0227583D01*
X0300297Y0227256D01*
X0300203Y0226931D01*
X0300100Y0226608D01*
X0299990Y0226289D01*
X0299873Y0225972D01*
X0299747Y0225658D01*
X0299614Y0225347D01*
X0299473Y0225039D01*
X0299325Y0224735D01*
X0299169Y0224435D01*
X0299006Y0224139D01*
X0298836Y0223847D01*
X0298658Y0223559D01*
X0298474Y0223275D01*
X0298282Y0222996D01*
X0298084Y0222722D01*
X0297879Y0222453D01*
X0297668Y0222189D01*
X0297450Y0221930D01*
X0297226Y0221677D01*
X0296996Y0221429D01*
X0296760Y0221187D01*
X0296518Y0220951D01*
X0296270Y0220721D01*
X0296017Y0220497D01*
X0295758Y0220279D01*
X0295494Y0220068D01*
X0295225Y0219863D01*
X0294951Y0219665D01*
X0294672Y0219473D01*
X0294388Y0219289D01*
X0294100Y0219111D01*
X0293808Y0218941D01*
X0293512Y0218778D01*
X0293212Y0218622D01*
X0292908Y0218474D01*
X0292600Y0218333D01*
X0292289Y0218200D01*
X0291975Y0218074D01*
X0291658Y0217957D01*
X0291339Y0217847D01*
X0291016Y0217744D01*
X0290691Y0217650D01*
X0290364Y0217564D01*
X0290035Y0217486D01*
X0289704Y0217416D01*
X0289372Y0217354D01*
X0289038Y0217300D01*
X0288703Y0217255D01*
X0288367Y0217217D01*
X0288030Y0217188D01*
X0287692Y0217168D01*
X0287354Y0217155D01*
X0287016Y0217151D01*
X0286678Y0217155D01*
X0286340Y0217168D01*
X0286002Y0217188D01*
X0285665Y0217217D01*
X0285329Y0217255D01*
X0284994Y0217300D01*
X0284660Y0217354D01*
X0284328Y0217416D01*
X0283997Y0217486D01*
X0283668Y0217564D01*
X0283341Y0217650D01*
X0283016Y0217744D01*
X0282693Y0217847D01*
X0282374Y0217957D01*
X0282057Y0218074D01*
X0281743Y0218200D01*
X0281432Y0218333D01*
X0281124Y0218474D01*
X0280820Y0218622D01*
X0280520Y0218778D01*
X0280224Y0218941D01*
X0279932Y0219111D01*
X0279644Y0219289D01*
X0279360Y0219473D01*
X0279081Y0219665D01*
X0278807Y0219863D01*
X0278538Y0220068D01*
X0278274Y0220279D01*
X0278015Y0220497D01*
X0277762Y0220721D01*
X0277514Y0220951D01*
X0277272Y0221187D01*
X0277036Y0221429D01*
X0276806Y0221677D01*
X0276582Y0221930D01*
X0276364Y0222189D01*
X0276153Y0222453D01*
X0275948Y0222722D01*
X0275750Y0222996D01*
X0275558Y0223275D01*
X0275374Y0223559D01*
X0275196Y0223847D01*
X0275026Y0224139D01*
X0274863Y0224435D01*
X0274707Y0224735D01*
X0274559Y0225039D01*
X0274418Y0225347D01*
X0274285Y0225658D01*
X0274159Y0225972D01*
X0274042Y0226289D01*
X0273932Y0226608D01*
X0273829Y0226931D01*
X0273735Y0227256D01*
X0273649Y0227583D01*
X0273571Y0227912D01*
X0273501Y0228243D01*
X0273439Y0228575D01*
X0273385Y0228909D01*
X0273340Y0229244D01*
X0273302Y0229580D01*
X0273273Y0229917D01*
X0273253Y0230255D01*
X0273240Y0230593D01*
X0273236Y0230931D01*
D12*
X0248898Y0191606D03*
X0255137Y0186801D03*
X0261375Y0181997D03*
X0267614Y0177193D03*
D13*
X0253274Y0252368D03*
X0244139Y0256435D03*
X0234895Y0260550D03*
X0225760Y0264618D03*
X0216624Y0268685D03*
X0207453Y0272768D03*
X0188661Y0283300D03*
X0184593Y0274165D03*
X0175458Y0278232D03*
X0179525Y0287368D03*
X0170390Y0291435D03*
X0166322Y0282300D03*
D14*
X0194211Y0118436D02*
X0209493Y0097402D01*
X0203183Y0092817D01*
X0187900Y0113852D01*
X0194211Y0118436D01*
D15*
X0178646Y0073466D02*
X0072654Y0073466D01*
X0073767Y0072668D02*
X0178492Y0072668D01*
X0178492Y0073311D02*
X0178492Y0071489D01*
X0179780Y0070200D01*
X0181603Y0070200D01*
X0182891Y0071489D01*
X0182891Y0073311D01*
X0181903Y0074300D01*
X0182291Y0074689D01*
X0182291Y0076511D01*
X0181003Y0077800D01*
X0179180Y0077800D01*
X0178992Y0077611D01*
X0178003Y0078600D01*
X0176180Y0078600D01*
X0174892Y0077311D01*
X0174892Y0075489D01*
X0176180Y0074200D01*
X0178003Y0074200D01*
X0178192Y0074389D01*
X0178880Y0073700D01*
X0178492Y0073311D01*
X0178316Y0074265D02*
X0178067Y0074265D01*
X0176116Y0074265D02*
X0137667Y0074265D01*
X0137203Y0073800D02*
X0138491Y0075089D01*
X0138491Y0076911D01*
X0137203Y0078200D01*
X0135380Y0078200D01*
X0134092Y0076911D01*
X0134092Y0075089D01*
X0135380Y0073800D01*
X0137203Y0073800D01*
X0138466Y0075063D02*
X0175317Y0075063D01*
X0174892Y0075862D02*
X0138491Y0075862D01*
X0138491Y0076660D02*
X0174892Y0076660D01*
X0175039Y0077459D02*
X0137944Y0077459D01*
X0134639Y0077459D02*
X0067088Y0077459D01*
X0068201Y0076660D02*
X0134092Y0076660D01*
X0134092Y0075862D02*
X0069314Y0075862D01*
X0070427Y0075063D02*
X0134117Y0075063D01*
X0134916Y0074265D02*
X0071541Y0074265D01*
X0074880Y0071869D02*
X0178492Y0071869D01*
X0178910Y0071070D02*
X0075994Y0071070D01*
X0077107Y0070272D02*
X0179708Y0070272D01*
X0181675Y0070272D02*
X0254830Y0070272D01*
X0253717Y0069473D02*
X0078220Y0069473D01*
X0079334Y0068675D02*
X0252604Y0068675D01*
X0251491Y0067876D02*
X0080447Y0067876D01*
X0081560Y0067078D02*
X0250377Y0067078D01*
X0249264Y0066279D02*
X0082673Y0066279D01*
X0083787Y0065481D02*
X0248151Y0065481D01*
X0247038Y0064682D02*
X0084900Y0064682D01*
X0086013Y0063884D02*
X0245924Y0063884D01*
X0244811Y0063085D02*
X0087126Y0063085D01*
X0088240Y0062287D02*
X0243698Y0062287D01*
X0242584Y0061488D02*
X0089353Y0061488D01*
X0090466Y0060690D02*
X0241471Y0060690D01*
X0240358Y0059891D02*
X0091579Y0059891D01*
X0092693Y0059093D02*
X0239245Y0059093D01*
X0238131Y0058294D02*
X0093806Y0058294D01*
X0094919Y0057496D02*
X0237018Y0057496D01*
X0235905Y0056697D02*
X0096032Y0056697D01*
X0097146Y0055899D02*
X0234792Y0055899D01*
X0233678Y0055100D02*
X0098259Y0055100D01*
X0099372Y0054302D02*
X0232565Y0054302D01*
X0231452Y0053503D02*
X0100486Y0053503D01*
X0101599Y0052705D02*
X0230339Y0052705D01*
X0229225Y0051906D02*
X0102712Y0051906D01*
X0103825Y0051108D02*
X0228112Y0051108D01*
X0226999Y0050309D02*
X0104939Y0050309D01*
X0106052Y0049511D02*
X0225886Y0049511D01*
X0224772Y0048712D02*
X0107165Y0048712D01*
X0108278Y0047914D02*
X0223659Y0047914D01*
X0222546Y0047115D02*
X0109392Y0047115D01*
X0110505Y0046317D02*
X0221432Y0046317D01*
X0221760Y0046552D02*
X0219914Y0045229D01*
X0216936Y0041777D01*
X0214853Y0037721D01*
X0214853Y0037721D01*
X0213781Y0033289D01*
X0213781Y0003000D01*
X0118156Y0003000D01*
X0118156Y0030430D01*
X0118156Y0030430D01*
X0118156Y0031008D01*
X0118156Y0031589D01*
X0118156Y0031590D01*
X0118155Y0033289D01*
X0118155Y0033289D01*
X0117083Y0037720D01*
X0117083Y0037720D01*
X0115000Y0041775D01*
X0112023Y0045228D01*
X0112023Y0045228D01*
X0112023Y0045228D01*
X0110642Y0046219D01*
X0046630Y0092132D01*
X0038992Y0169410D01*
X0039004Y0169426D01*
X0038935Y0169984D01*
X0038880Y0170543D01*
X0038864Y0170556D01*
X0038656Y0172223D01*
X0037109Y0176424D01*
X0034648Y0180164D01*
X0031403Y0183248D01*
X0029970Y0184090D01*
X0029438Y0184402D01*
X0028973Y0184676D01*
X0028973Y0184676D01*
X0005199Y0198639D01*
X0053016Y0281498D01*
X0076775Y0267764D01*
X0076776Y0267762D01*
X0077277Y0267474D01*
X0077778Y0267184D01*
X0077780Y0267185D01*
X0079249Y0266339D01*
X0079249Y0266339D01*
X0083613Y0265059D01*
X0088155Y0264837D01*
X0092623Y0265687D01*
X0094695Y0266623D01*
X0094956Y0266742D01*
X0116794Y0276613D01*
X0116492Y0276311D01*
X0116492Y0274489D01*
X0117780Y0273200D01*
X0119603Y0273200D01*
X0120891Y0274489D01*
X0120891Y0276311D01*
X0119603Y0277600D01*
X0118976Y0277600D01*
X0165976Y0298846D01*
X0237184Y0267436D01*
X0239118Y0266319D01*
X0243580Y0265122D01*
X0248200Y0265122D01*
X0252662Y0266319D01*
X0254660Y0267474D01*
X0254661Y0267475D01*
X0255163Y0267765D01*
X0278921Y0281498D01*
X0326733Y0198649D01*
X0302976Y0184952D01*
X0302975Y0184953D01*
X0302476Y0184664D01*
X0301972Y0184374D01*
X0301971Y0184373D01*
X0300499Y0183521D01*
X0300499Y0183521D01*
X0297197Y0180375D01*
X0297197Y0180375D01*
X0297197Y0180375D01*
X0294727Y0176541D01*
X0293225Y0172235D01*
X0293058Y0170543D01*
X0293058Y0170543D01*
X0292972Y0169676D01*
X0292944Y0169389D01*
X0285307Y0092132D01*
X0221760Y0046552D01*
X0220318Y0045518D02*
X0111618Y0045518D01*
X0112461Y0044720D02*
X0219475Y0044720D01*
X0219914Y0045229D02*
X0219914Y0045229D01*
X0218786Y0043921D02*
X0113149Y0043921D01*
X0113838Y0043123D02*
X0218097Y0043123D01*
X0217408Y0042324D02*
X0114526Y0042324D01*
X0115000Y0041775D02*
X0115000Y0041775D01*
X0115128Y0041526D02*
X0216807Y0041526D01*
X0216397Y0040727D02*
X0115538Y0040727D01*
X0115948Y0039929D02*
X0215987Y0039929D01*
X0215577Y0039130D02*
X0116358Y0039130D01*
X0116769Y0038332D02*
X0215167Y0038332D01*
X0214807Y0037533D02*
X0117128Y0037533D01*
X0117321Y0036734D02*
X0214614Y0036734D01*
X0214421Y0035936D02*
X0169315Y0035936D01*
X0170667Y0035722D02*
X0165977Y0036465D01*
X0161286Y0035722D01*
X0161286Y0035722D01*
X0157054Y0033566D01*
X0153696Y0030207D01*
X0151540Y0025976D01*
X0151540Y0025976D01*
X0150797Y0021285D01*
X0151540Y0016594D01*
X0153696Y0012363D01*
X0157054Y0009004D01*
X0161286Y0006848D01*
X0165977Y0006105D01*
X0170667Y0006848D01*
X0174899Y0009004D01*
X0178257Y0012363D01*
X0180413Y0016594D01*
X0181156Y0021285D01*
X0180413Y0025976D01*
X0178257Y0030207D01*
X0178257Y0030207D01*
X0174899Y0033566D01*
X0170667Y0035722D01*
X0170667Y0035722D01*
X0171814Y0035137D02*
X0214228Y0035137D01*
X0214035Y0034339D02*
X0173381Y0034339D01*
X0174899Y0033566D02*
X0174899Y0033566D01*
X0174924Y0033540D02*
X0213842Y0033540D01*
X0213781Y0032742D02*
X0175723Y0032742D01*
X0176521Y0031943D02*
X0213781Y0031943D01*
X0213781Y0031145D02*
X0177320Y0031145D01*
X0178118Y0030346D02*
X0213781Y0030346D01*
X0213781Y0029548D02*
X0178593Y0029548D01*
X0179000Y0028749D02*
X0213781Y0028749D01*
X0213781Y0027951D02*
X0179407Y0027951D01*
X0179814Y0027152D02*
X0213781Y0027152D01*
X0213781Y0026354D02*
X0180221Y0026354D01*
X0180413Y0025976D02*
X0180413Y0025976D01*
X0180480Y0025555D02*
X0213781Y0025555D01*
X0213781Y0024757D02*
X0180606Y0024757D01*
X0180733Y0023958D02*
X0213781Y0023958D01*
X0213781Y0023160D02*
X0180859Y0023160D01*
X0180986Y0022361D02*
X0213781Y0022361D01*
X0213781Y0021563D02*
X0181112Y0021563D01*
X0181074Y0020764D02*
X0213781Y0020764D01*
X0213781Y0019966D02*
X0180947Y0019966D01*
X0180821Y0019167D02*
X0213781Y0019167D01*
X0213781Y0018369D02*
X0180694Y0018369D01*
X0180568Y0017570D02*
X0213781Y0017570D01*
X0213781Y0016772D02*
X0180441Y0016772D01*
X0180413Y0016594D02*
X0180413Y0016594D01*
X0180097Y0015973D02*
X0213781Y0015973D01*
X0213781Y0015175D02*
X0179690Y0015175D01*
X0179283Y0014376D02*
X0213781Y0014376D01*
X0213781Y0013578D02*
X0178876Y0013578D01*
X0178469Y0012779D02*
X0213781Y0012779D01*
X0213781Y0011981D02*
X0177875Y0011981D01*
X0178257Y0012363D02*
X0178257Y0012363D01*
X0177077Y0011182D02*
X0213781Y0011182D01*
X0213781Y0010384D02*
X0176278Y0010384D01*
X0175480Y0009585D02*
X0213781Y0009585D01*
X0213781Y0008787D02*
X0174472Y0008787D01*
X0172904Y0007988D02*
X0213781Y0007988D01*
X0213781Y0007190D02*
X0171337Y0007190D01*
X0167781Y0006391D02*
X0213781Y0006391D01*
X0213781Y0005593D02*
X0118156Y0005593D01*
X0118156Y0006391D02*
X0164172Y0006391D01*
X0160616Y0007190D02*
X0118156Y0007190D01*
X0118156Y0007988D02*
X0159049Y0007988D01*
X0157482Y0008787D02*
X0118156Y0008787D01*
X0118156Y0009585D02*
X0156473Y0009585D01*
X0157054Y0009004D02*
X0157054Y0009004D01*
X0155675Y0010384D02*
X0118156Y0010384D01*
X0118156Y0011182D02*
X0154876Y0011182D01*
X0154078Y0011981D02*
X0118156Y0011981D01*
X0118156Y0012779D02*
X0153484Y0012779D01*
X0153696Y0012363D02*
X0153696Y0012363D01*
X0153696Y0012363D01*
X0153077Y0013578D02*
X0118156Y0013578D01*
X0118156Y0014376D02*
X0152670Y0014376D01*
X0152263Y0015175D02*
X0118156Y0015175D01*
X0118156Y0015973D02*
X0151856Y0015973D01*
X0151540Y0016594D02*
X0151540Y0016594D01*
X0151512Y0016772D02*
X0118156Y0016772D01*
X0118156Y0017570D02*
X0151385Y0017570D01*
X0151259Y0018369D02*
X0118156Y0018369D01*
X0118156Y0019167D02*
X0151132Y0019167D01*
X0151006Y0019966D02*
X0118156Y0019966D01*
X0118156Y0020764D02*
X0150879Y0020764D01*
X0150797Y0021285D02*
X0150797Y0021285D01*
X0150841Y0021563D02*
X0118156Y0021563D01*
X0118156Y0022361D02*
X0150967Y0022361D01*
X0151094Y0023160D02*
X0118156Y0023160D01*
X0118156Y0023958D02*
X0151220Y0023958D01*
X0151347Y0024757D02*
X0118156Y0024757D01*
X0118156Y0025555D02*
X0151473Y0025555D01*
X0151732Y0026354D02*
X0118156Y0026354D01*
X0118156Y0027152D02*
X0152139Y0027152D01*
X0152546Y0027951D02*
X0118156Y0027951D01*
X0118156Y0028749D02*
X0152953Y0028749D01*
X0153360Y0029548D02*
X0118156Y0029548D01*
X0118156Y0030346D02*
X0153835Y0030346D01*
X0153696Y0030207D02*
X0153696Y0030207D01*
X0154633Y0031145D02*
X0118156Y0031145D01*
X0118156Y0031943D02*
X0155432Y0031943D01*
X0156230Y0032742D02*
X0118155Y0032742D01*
X0118094Y0033540D02*
X0157029Y0033540D01*
X0157054Y0033566D02*
X0157054Y0033566D01*
X0158572Y0034339D02*
X0117901Y0034339D01*
X0117708Y0035137D02*
X0160139Y0035137D01*
X0162638Y0035936D02*
X0117514Y0035936D01*
X0110642Y0046219D02*
X0110642Y0046219D01*
X0136580Y0081600D02*
X0135292Y0082889D01*
X0135292Y0084711D01*
X0136580Y0086000D01*
X0138403Y0086000D01*
X0139691Y0084711D01*
X0139691Y0082889D01*
X0138403Y0081600D01*
X0136580Y0081600D01*
X0135931Y0082250D02*
X0060408Y0082250D01*
X0059295Y0083048D02*
X0135292Y0083048D01*
X0135292Y0083847D02*
X0071449Y0083847D01*
X0071403Y0083800D02*
X0072691Y0085089D01*
X0072691Y0086911D01*
X0071403Y0088200D01*
X0069580Y0088200D01*
X0068292Y0086911D01*
X0068292Y0085089D01*
X0069580Y0083800D01*
X0071403Y0083800D01*
X0072248Y0084645D02*
X0135292Y0084645D01*
X0136024Y0085444D02*
X0072691Y0085444D01*
X0072691Y0086242D02*
X0151422Y0086242D01*
X0151292Y0086111D02*
X0151292Y0084289D01*
X0152580Y0083000D01*
X0154403Y0083000D01*
X0155691Y0084289D01*
X0155691Y0086111D01*
X0154403Y0087400D01*
X0152580Y0087400D01*
X0151292Y0086111D01*
X0151292Y0085444D02*
X0138959Y0085444D01*
X0139691Y0084645D02*
X0151292Y0084645D01*
X0151734Y0083847D02*
X0139691Y0083847D01*
X0139691Y0083048D02*
X0152532Y0083048D01*
X0154451Y0083048D02*
X0272643Y0083048D01*
X0273756Y0083847D02*
X0155249Y0083847D01*
X0155691Y0084645D02*
X0274869Y0084645D01*
X0275982Y0085444D02*
X0155691Y0085444D01*
X0155561Y0086242D02*
X0277096Y0086242D01*
X0278209Y0087041D02*
X0154762Y0087041D01*
X0152221Y0087041D02*
X0072562Y0087041D01*
X0071764Y0087839D02*
X0159741Y0087839D01*
X0159780Y0087800D02*
X0161603Y0087800D01*
X0162891Y0089089D01*
X0162891Y0090911D01*
X0161603Y0092200D01*
X0159780Y0092200D01*
X0158492Y0090911D01*
X0158492Y0089089D01*
X0159780Y0087800D01*
X0158942Y0088638D02*
X0051502Y0088638D01*
X0050389Y0089436D02*
X0158492Y0089436D01*
X0158492Y0090235D02*
X0049275Y0090235D01*
X0048162Y0091033D02*
X0158614Y0091033D01*
X0159412Y0091832D02*
X0047049Y0091832D01*
X0046581Y0092630D02*
X0163411Y0092630D01*
X0162892Y0092111D02*
X0164180Y0093400D01*
X0166003Y0093400D01*
X0167291Y0092111D01*
X0167291Y0090289D01*
X0166003Y0089000D01*
X0164180Y0089000D01*
X0162892Y0090289D01*
X0162892Y0092111D01*
X0162892Y0091832D02*
X0161971Y0091832D01*
X0162770Y0091033D02*
X0162892Y0091033D01*
X0162891Y0090235D02*
X0162945Y0090235D01*
X0162891Y0089436D02*
X0163744Y0089436D01*
X0162441Y0088638D02*
X0280435Y0088638D01*
X0279322Y0087839D02*
X0161642Y0087839D01*
X0166439Y0089436D02*
X0281549Y0089436D01*
X0282662Y0090235D02*
X0167238Y0090235D01*
X0167291Y0091033D02*
X0283775Y0091033D01*
X0284888Y0091832D02*
X0204633Y0091832D01*
X0203709Y0091160D02*
X0211016Y0096469D01*
X0211230Y0097819D01*
X0210426Y0098925D01*
X0195947Y0118853D01*
X0195947Y0118853D01*
X0195144Y0119959D01*
X0193794Y0120173D01*
X0187483Y0115588D01*
X0186437Y0114828D01*
X0186377Y0114785D01*
X0186164Y0113435D01*
X0186234Y0113337D01*
X0201446Y0092400D01*
X0202179Y0091392D01*
X0202250Y0091294D01*
X0203600Y0091081D01*
X0203709Y0091160D01*
X0201859Y0091832D02*
X0167291Y0091832D01*
X0166772Y0092630D02*
X0201279Y0092630D01*
X0201446Y0092400D02*
X0201446Y0092400D01*
X0200699Y0093429D02*
X0074232Y0093429D01*
X0073803Y0093000D02*
X0075091Y0094289D01*
X0075091Y0096111D01*
X0073803Y0097400D01*
X0071980Y0097400D01*
X0070692Y0096111D01*
X0070692Y0094289D01*
X0071980Y0093000D01*
X0073803Y0093000D01*
X0075030Y0094227D02*
X0200119Y0094227D01*
X0199538Y0095026D02*
X0111563Y0095026D01*
X0109797Y0094736D02*
X0116817Y0095887D01*
X0123425Y0098520D01*
X0129312Y0102512D01*
X0129312Y0102512D01*
X0134204Y0107676D01*
X0134204Y0107676D01*
X0137872Y0113771D01*
X0137872Y0113771D01*
X0140143Y0120513D01*
X0140912Y0127584D01*
X0140143Y0134656D01*
X0137872Y0141397D01*
X0134204Y0147492D01*
X0134204Y0147492D01*
X0130692Y0151200D01*
X0131003Y0151200D01*
X0132291Y0152489D01*
X0132291Y0154311D01*
X0131003Y0155600D01*
X0129180Y0155600D01*
X0127892Y0154311D01*
X0127892Y0153620D01*
X0123425Y0156648D01*
X0116817Y0159281D01*
X0109797Y0160432D01*
X0109797Y0160432D01*
X0102694Y0160047D01*
X0102694Y0160047D01*
X0095840Y0158144D01*
X0095840Y0158144D01*
X0089555Y0154812D01*
X0084133Y0150207D01*
X0079829Y0144544D01*
X0076842Y0138088D01*
X0075313Y0131141D01*
X0075313Y0124028D01*
X0076842Y0117080D01*
X0079829Y0110624D01*
X0084133Y0104962D01*
X0084133Y0104962D01*
X0084133Y0104962D01*
X0089555Y0100356D01*
X0095840Y0097024D01*
X0102694Y0095121D01*
X0109797Y0094736D01*
X0109797Y0094736D01*
X0104456Y0095026D02*
X0075091Y0095026D01*
X0075091Y0095824D02*
X0100162Y0095824D01*
X0102694Y0095121D02*
X0102694Y0095121D01*
X0097286Y0096623D02*
X0074580Y0096623D01*
X0071203Y0096623D02*
X0046186Y0096623D01*
X0046107Y0097421D02*
X0095091Y0097421D01*
X0095840Y0097024D02*
X0095840Y0097024D01*
X0093585Y0098220D02*
X0046029Y0098220D01*
X0045950Y0099018D02*
X0092079Y0099018D01*
X0090573Y0099817D02*
X0045871Y0099817D01*
X0045792Y0100615D02*
X0089250Y0100615D01*
X0089555Y0100356D02*
X0089555Y0100356D01*
X0088310Y0101414D02*
X0045713Y0101414D01*
X0045634Y0102212D02*
X0087370Y0102212D01*
X0086430Y0103011D02*
X0045555Y0103011D01*
X0045476Y0103809D02*
X0085490Y0103809D01*
X0084550Y0104608D02*
X0045397Y0104608D01*
X0045318Y0105406D02*
X0083795Y0105406D01*
X0083188Y0106205D02*
X0045239Y0106205D01*
X0045160Y0107003D02*
X0082581Y0107003D01*
X0081974Y0107802D02*
X0045081Y0107802D01*
X0045002Y0108601D02*
X0081367Y0108601D01*
X0080760Y0109399D02*
X0044923Y0109399D01*
X0044845Y0110198D02*
X0080153Y0110198D01*
X0079829Y0110624D02*
X0079829Y0110624D01*
X0079657Y0110996D02*
X0044766Y0110996D01*
X0044687Y0111795D02*
X0079287Y0111795D01*
X0078918Y0112593D02*
X0044608Y0112593D01*
X0044529Y0113392D02*
X0078548Y0113392D01*
X0078179Y0114190D02*
X0044450Y0114190D01*
X0044371Y0114989D02*
X0077809Y0114989D01*
X0077440Y0115787D02*
X0044292Y0115787D01*
X0044213Y0116586D02*
X0077071Y0116586D01*
X0076842Y0117080D02*
X0076842Y0117080D01*
X0076775Y0117384D02*
X0044134Y0117384D01*
X0044055Y0118183D02*
X0076599Y0118183D01*
X0076423Y0118981D02*
X0043976Y0118981D01*
X0043897Y0119780D02*
X0076248Y0119780D01*
X0076072Y0120578D02*
X0043818Y0120578D01*
X0043740Y0121377D02*
X0075896Y0121377D01*
X0075720Y0122175D02*
X0043661Y0122175D01*
X0043582Y0122974D02*
X0075544Y0122974D01*
X0075369Y0123772D02*
X0043503Y0123772D01*
X0043424Y0124571D02*
X0075313Y0124571D01*
X0075313Y0125369D02*
X0043345Y0125369D01*
X0043266Y0126168D02*
X0075313Y0126168D01*
X0075313Y0126966D02*
X0043187Y0126966D01*
X0043108Y0127765D02*
X0075313Y0127765D01*
X0075313Y0128563D02*
X0043029Y0128563D01*
X0042950Y0129362D02*
X0075313Y0129362D01*
X0075313Y0130160D02*
X0042871Y0130160D01*
X0042792Y0130959D02*
X0075313Y0130959D01*
X0075448Y0131757D02*
X0042713Y0131757D01*
X0042635Y0132556D02*
X0075624Y0132556D01*
X0075800Y0133354D02*
X0042556Y0133354D01*
X0042477Y0134153D02*
X0075975Y0134153D01*
X0076151Y0134951D02*
X0042398Y0134951D01*
X0042319Y0135750D02*
X0076327Y0135750D01*
X0076503Y0136548D02*
X0042240Y0136548D01*
X0042161Y0137347D02*
X0076679Y0137347D01*
X0076842Y0138088D02*
X0076842Y0138088D01*
X0076868Y0138145D02*
X0042082Y0138145D01*
X0042003Y0138944D02*
X0077238Y0138944D01*
X0077607Y0139742D02*
X0041924Y0139742D01*
X0041845Y0140541D02*
X0077977Y0140541D01*
X0078346Y0141339D02*
X0041766Y0141339D01*
X0041687Y0142138D02*
X0078715Y0142138D01*
X0079085Y0142937D02*
X0041608Y0142937D01*
X0041530Y0143735D02*
X0079454Y0143735D01*
X0079824Y0144534D02*
X0041451Y0144534D01*
X0041372Y0145332D02*
X0080428Y0145332D01*
X0079829Y0144544D02*
X0079829Y0144544D01*
X0081035Y0146131D02*
X0041293Y0146131D01*
X0041214Y0146929D02*
X0081642Y0146929D01*
X0082249Y0147728D02*
X0041135Y0147728D01*
X0041056Y0148526D02*
X0082856Y0148526D01*
X0083463Y0149325D02*
X0040977Y0149325D01*
X0040898Y0150123D02*
X0084070Y0150123D01*
X0084133Y0150207D02*
X0084133Y0150207D01*
X0084133Y0150207D01*
X0084975Y0150922D02*
X0040819Y0150922D01*
X0040740Y0151720D02*
X0085915Y0151720D01*
X0086855Y0152519D02*
X0040661Y0152519D01*
X0040582Y0153317D02*
X0087795Y0153317D01*
X0088735Y0154116D02*
X0040503Y0154116D01*
X0040424Y0154914D02*
X0054616Y0154914D01*
X0054575Y0154931D02*
X0055559Y0154524D01*
X0056624Y0154524D01*
X0057608Y0154931D01*
X0058360Y0155684D01*
X0058768Y0156668D01*
X0058768Y0157732D01*
X0058360Y0158716D01*
X0057608Y0159469D01*
X0056624Y0159876D01*
X0055559Y0159876D01*
X0054575Y0159469D01*
X0053823Y0158716D01*
X0053415Y0157732D01*
X0053415Y0156668D01*
X0053823Y0155684D01*
X0054575Y0154931D01*
X0053811Y0155713D02*
X0040346Y0155713D01*
X0040267Y0156511D02*
X0053480Y0156511D01*
X0053415Y0157310D02*
X0040188Y0157310D01*
X0040109Y0158108D02*
X0053571Y0158108D01*
X0054013Y0158907D02*
X0040030Y0158907D01*
X0039951Y0159705D02*
X0055146Y0159705D01*
X0057037Y0159705D02*
X0101462Y0159705D01*
X0098587Y0158907D02*
X0058170Y0158907D01*
X0058612Y0158108D02*
X0095772Y0158108D01*
X0094266Y0157310D02*
X0058768Y0157310D01*
X0058703Y0156511D02*
X0092760Y0156511D01*
X0091254Y0155713D02*
X0058372Y0155713D01*
X0057567Y0154914D02*
X0089747Y0154914D01*
X0089555Y0154812D02*
X0089555Y0154812D01*
X0098180Y0166400D02*
X0100003Y0166400D01*
X0101291Y0167689D01*
X0101291Y0169511D01*
X0100003Y0170800D01*
X0098180Y0170800D01*
X0096892Y0169511D01*
X0096892Y0167689D01*
X0098180Y0166400D01*
X0097688Y0166892D02*
X0039241Y0166892D01*
X0039162Y0167690D02*
X0096892Y0167690D01*
X0096892Y0168489D02*
X0039083Y0168489D01*
X0039004Y0169287D02*
X0096892Y0169287D01*
X0097466Y0170086D02*
X0038925Y0170086D01*
X0038823Y0170884D02*
X0130789Y0170884D01*
X0130789Y0170086D02*
X0100717Y0170086D01*
X0101291Y0169287D02*
X0130789Y0169287D01*
X0130789Y0168658D02*
X0131609Y0167838D01*
X0183950Y0167838D01*
X0184770Y0168658D01*
X0184770Y0199975D01*
X0183950Y0200795D01*
X0131609Y0200795D01*
X0131508Y0200695D01*
X0131303Y0200900D01*
X0132291Y0201889D01*
X0132291Y0203400D01*
X0133203Y0203400D01*
X0134491Y0204689D01*
X0134491Y0205800D01*
X0135803Y0205800D01*
X0137091Y0207089D01*
X0137091Y0208911D01*
X0135803Y0210200D01*
X0133980Y0210200D01*
X0132692Y0208911D01*
X0132692Y0207800D01*
X0131380Y0207800D01*
X0130092Y0206511D01*
X0130092Y0205000D01*
X0129180Y0205000D01*
X0127892Y0203711D01*
X0127892Y0201889D01*
X0128680Y0201100D01*
X0127692Y0200111D01*
X0127692Y0198289D01*
X0128980Y0197000D01*
X0130789Y0197000D01*
X0130789Y0193814D01*
X0129803Y0194800D01*
X0128091Y0194800D01*
X0128091Y0195311D01*
X0126803Y0196600D01*
X0124980Y0196600D01*
X0123692Y0195311D01*
X0123692Y0193489D01*
X0124180Y0193000D01*
X0122780Y0193000D01*
X0121492Y0191711D01*
X0121492Y0189889D01*
X0122780Y0188600D01*
X0124603Y0188600D01*
X0125891Y0189889D01*
X0125891Y0191711D01*
X0125403Y0192200D01*
X0126692Y0192200D01*
X0126692Y0191689D01*
X0127980Y0190400D01*
X0129803Y0190400D01*
X0130789Y0191386D01*
X0130789Y0168658D01*
X0130958Y0168489D02*
X0101291Y0168489D01*
X0101291Y0167690D02*
X0292776Y0167690D01*
X0292697Y0166892D02*
X0228511Y0166892D01*
X0228203Y0167200D02*
X0226380Y0167200D01*
X0225092Y0165911D01*
X0225092Y0164089D01*
X0226380Y0162800D01*
X0228203Y0162800D01*
X0229491Y0164089D01*
X0229491Y0165911D01*
X0228203Y0167200D01*
X0229309Y0166093D02*
X0292618Y0166093D01*
X0292539Y0165295D02*
X0229491Y0165295D01*
X0229491Y0164496D02*
X0292460Y0164496D01*
X0292381Y0163698D02*
X0229101Y0163698D01*
X0228302Y0162899D02*
X0292302Y0162899D01*
X0292223Y0162101D02*
X0173902Y0162101D01*
X0173803Y0162200D02*
X0171980Y0162200D01*
X0170692Y0160911D01*
X0170692Y0159089D01*
X0171980Y0157800D01*
X0173803Y0157800D01*
X0175091Y0159089D01*
X0175091Y0160911D01*
X0173803Y0162200D01*
X0174701Y0161302D02*
X0223883Y0161302D01*
X0223980Y0161400D02*
X0222692Y0160111D01*
X0222692Y0158289D01*
X0223980Y0157000D01*
X0225803Y0157000D01*
X0227091Y0158289D01*
X0227091Y0160111D01*
X0225803Y0161400D01*
X0223980Y0161400D01*
X0223084Y0160504D02*
X0175091Y0160504D01*
X0175091Y0159705D02*
X0222692Y0159705D01*
X0222692Y0158907D02*
X0174910Y0158907D01*
X0174111Y0158108D02*
X0222872Y0158108D01*
X0223671Y0157310D02*
X0121765Y0157310D01*
X0123425Y0156648D02*
X0123425Y0156648D01*
X0123627Y0156511D02*
X0277291Y0156511D01*
X0277092Y0156311D02*
X0278380Y0157600D01*
X0280203Y0157600D01*
X0281491Y0156311D01*
X0281491Y0154489D01*
X0280291Y0153289D01*
X0280291Y0151889D01*
X0279103Y0150700D01*
X0279291Y0150511D01*
X0279291Y0148689D01*
X0278003Y0147400D01*
X0276180Y0147400D01*
X0274892Y0148689D01*
X0274892Y0150511D01*
X0276080Y0151700D01*
X0275892Y0151889D01*
X0275892Y0153711D01*
X0277092Y0154911D01*
X0277092Y0156311D01*
X0277092Y0155713D02*
X0124805Y0155713D01*
X0125983Y0154914D02*
X0128494Y0154914D01*
X0127892Y0154116D02*
X0127160Y0154116D01*
X0131689Y0154914D02*
X0277092Y0154914D01*
X0276296Y0154116D02*
X0132291Y0154116D01*
X0132291Y0153317D02*
X0275892Y0153317D01*
X0275892Y0152519D02*
X0132291Y0152519D01*
X0131523Y0151720D02*
X0276060Y0151720D01*
X0275302Y0150922D02*
X0163881Y0150922D01*
X0164491Y0150311D02*
X0163203Y0151600D01*
X0161380Y0151600D01*
X0160092Y0150311D01*
X0160092Y0148489D01*
X0161380Y0147200D01*
X0162892Y0147200D01*
X0162892Y0145489D01*
X0164180Y0144200D01*
X0166003Y0144200D01*
X0167291Y0145489D01*
X0167291Y0147311D01*
X0166003Y0148600D01*
X0164491Y0148600D01*
X0164491Y0150311D01*
X0164491Y0150123D02*
X0274892Y0150123D01*
X0274892Y0149325D02*
X0164491Y0149325D01*
X0166077Y0148526D02*
X0270306Y0148526D01*
X0270780Y0149000D02*
X0269492Y0147711D01*
X0269492Y0145889D01*
X0270780Y0144600D01*
X0272603Y0144600D01*
X0273891Y0145889D01*
X0273891Y0147711D01*
X0272603Y0149000D01*
X0270780Y0149000D01*
X0269508Y0147728D02*
X0166875Y0147728D01*
X0167291Y0146929D02*
X0185509Y0146929D01*
X0185580Y0147000D02*
X0184292Y0145711D01*
X0184292Y0143889D01*
X0185580Y0142600D01*
X0186892Y0142600D01*
X0186892Y0141089D01*
X0188180Y0139800D01*
X0190003Y0139800D01*
X0191291Y0141089D01*
X0191291Y0142911D01*
X0190003Y0144200D01*
X0188691Y0144200D01*
X0188691Y0145711D01*
X0187403Y0147000D01*
X0185580Y0147000D01*
X0184711Y0146131D02*
X0167291Y0146131D01*
X0167135Y0145332D02*
X0184292Y0145332D01*
X0184292Y0144534D02*
X0166336Y0144534D01*
X0165803Y0144200D02*
X0163980Y0144200D01*
X0162692Y0142911D01*
X0162692Y0141089D01*
X0163980Y0139800D01*
X0165803Y0139800D01*
X0167091Y0141089D01*
X0167091Y0142911D01*
X0165803Y0144200D01*
X0166268Y0143735D02*
X0184445Y0143735D01*
X0185244Y0142937D02*
X0167066Y0142937D01*
X0167091Y0142138D02*
X0186892Y0142138D01*
X0186892Y0141339D02*
X0167091Y0141339D01*
X0166544Y0140541D02*
X0187439Y0140541D01*
X0190744Y0140541D02*
X0219948Y0140541D01*
X0218621Y0139865D02*
X0218621Y0139865D01*
X0215263Y0136507D01*
X0215263Y0136507D01*
X0213107Y0132275D01*
X0212364Y0127584D01*
X0213107Y0122893D01*
X0215263Y0118662D01*
X0215263Y0118662D01*
X0218621Y0115304D01*
X0222853Y0113147D01*
X0227543Y0112405D01*
X0227543Y0112405D01*
X0232234Y0113147D01*
X0232234Y0113147D01*
X0236466Y0115304D01*
X0239824Y0118662D01*
X0241980Y0122893D01*
X0242723Y0127584D01*
X0242024Y0132000D01*
X0243203Y0132000D01*
X0244491Y0133289D01*
X0244491Y0135111D01*
X0243203Y0136400D01*
X0241380Y0136400D01*
X0240385Y0135405D01*
X0239824Y0136507D01*
X0236466Y0139865D01*
X0232234Y0142021D01*
X0227543Y0142764D01*
X0222853Y0142021D01*
X0222853Y0142021D01*
X0218621Y0139865D01*
X0218499Y0139742D02*
X0138429Y0139742D01*
X0138698Y0138944D02*
X0217700Y0138944D01*
X0216902Y0138145D02*
X0138967Y0138145D01*
X0139236Y0137347D02*
X0216103Y0137347D01*
X0215305Y0136548D02*
X0139505Y0136548D01*
X0139774Y0135750D02*
X0214877Y0135750D01*
X0214470Y0134951D02*
X0140044Y0134951D01*
X0140143Y0134656D02*
X0140143Y0134656D01*
X0140198Y0134153D02*
X0214064Y0134153D01*
X0213657Y0133354D02*
X0140285Y0133354D01*
X0140371Y0132556D02*
X0213250Y0132556D01*
X0213107Y0132275D02*
X0213107Y0132275D01*
X0213025Y0131757D02*
X0140458Y0131757D01*
X0140545Y0130959D02*
X0212898Y0130959D01*
X0212772Y0130160D02*
X0140632Y0130160D01*
X0140719Y0129362D02*
X0212645Y0129362D01*
X0212519Y0128563D02*
X0140806Y0128563D01*
X0140893Y0127765D02*
X0212392Y0127765D01*
X0212364Y0127584D02*
X0212364Y0127584D01*
X0212462Y0126966D02*
X0140845Y0126966D01*
X0140758Y0126168D02*
X0212588Y0126168D01*
X0212715Y0125369D02*
X0140671Y0125369D01*
X0140584Y0124571D02*
X0212841Y0124571D01*
X0212968Y0123772D02*
X0140498Y0123772D01*
X0140411Y0122974D02*
X0213094Y0122974D01*
X0213107Y0122893D02*
X0213107Y0122893D01*
X0213473Y0122175D02*
X0140324Y0122175D01*
X0140237Y0121377D02*
X0213880Y0121377D01*
X0214286Y0120578D02*
X0140150Y0120578D01*
X0140143Y0120513D02*
X0140143Y0120513D01*
X0139896Y0119780D02*
X0193252Y0119780D01*
X0192153Y0118981D02*
X0139627Y0118981D01*
X0139358Y0118183D02*
X0191054Y0118183D01*
X0189955Y0117384D02*
X0139089Y0117384D01*
X0138820Y0116586D02*
X0188856Y0116586D01*
X0187757Y0115787D02*
X0138551Y0115787D01*
X0138282Y0114989D02*
X0186658Y0114989D01*
X0186283Y0114190D02*
X0138013Y0114190D01*
X0137643Y0113392D02*
X0186195Y0113392D01*
X0186775Y0112593D02*
X0137163Y0112593D01*
X0136682Y0111795D02*
X0187355Y0111795D01*
X0187935Y0110996D02*
X0136202Y0110996D01*
X0135721Y0110198D02*
X0188516Y0110198D01*
X0189096Y0109399D02*
X0135241Y0109399D01*
X0134760Y0108601D02*
X0189676Y0108601D01*
X0190256Y0107802D02*
X0134280Y0107802D01*
X0133567Y0107003D02*
X0190836Y0107003D01*
X0191416Y0106205D02*
X0132811Y0106205D01*
X0132054Y0105406D02*
X0191997Y0105406D01*
X0192577Y0104608D02*
X0131298Y0104608D01*
X0130542Y0103809D02*
X0193157Y0103809D01*
X0193737Y0103011D02*
X0129785Y0103011D01*
X0129312Y0102512D02*
X0129312Y0102512D01*
X0128871Y0102212D02*
X0194317Y0102212D01*
X0194897Y0101414D02*
X0127693Y0101414D01*
X0126515Y0100615D02*
X0195477Y0100615D01*
X0196058Y0099817D02*
X0125338Y0099817D01*
X0124160Y0099018D02*
X0196638Y0099018D01*
X0197218Y0098220D02*
X0122672Y0098220D01*
X0123425Y0098520D02*
X0123425Y0098520D01*
X0120667Y0097421D02*
X0197798Y0097421D01*
X0198378Y0096623D02*
X0118663Y0096623D01*
X0116817Y0095887D02*
X0116817Y0095887D01*
X0116434Y0095824D02*
X0198958Y0095824D01*
X0205733Y0092630D02*
X0285356Y0092630D01*
X0285435Y0093429D02*
X0206832Y0093429D01*
X0207931Y0094227D02*
X0221353Y0094227D01*
X0221980Y0093600D02*
X0223803Y0093600D01*
X0225091Y0094889D01*
X0225091Y0096711D01*
X0223803Y0098000D01*
X0221980Y0098000D01*
X0220692Y0096711D01*
X0220692Y0094889D01*
X0221980Y0093600D01*
X0220692Y0095026D02*
X0209030Y0095026D01*
X0210129Y0095824D02*
X0220692Y0095824D01*
X0220692Y0096623D02*
X0211040Y0096623D01*
X0211167Y0097421D02*
X0221402Y0097421D01*
X0224381Y0097421D02*
X0285830Y0097421D01*
X0285751Y0096623D02*
X0225091Y0096623D01*
X0225091Y0095824D02*
X0285672Y0095824D01*
X0285593Y0095026D02*
X0225091Y0095026D01*
X0224430Y0094227D02*
X0285514Y0094227D01*
X0285909Y0098220D02*
X0210938Y0098220D01*
X0210426Y0098925D02*
X0210426Y0098925D01*
X0210358Y0099018D02*
X0285988Y0099018D01*
X0286067Y0099817D02*
X0209778Y0099817D01*
X0209198Y0100615D02*
X0286146Y0100615D01*
X0286225Y0101414D02*
X0208618Y0101414D01*
X0208037Y0102212D02*
X0286303Y0102212D01*
X0286382Y0103011D02*
X0207457Y0103011D01*
X0206877Y0103809D02*
X0286461Y0103809D01*
X0286540Y0104608D02*
X0206297Y0104608D01*
X0205717Y0105406D02*
X0286619Y0105406D01*
X0286698Y0106205D02*
X0205137Y0106205D01*
X0204557Y0107003D02*
X0286777Y0107003D01*
X0286856Y0107802D02*
X0203976Y0107802D01*
X0203396Y0108601D02*
X0286935Y0108601D01*
X0287014Y0109399D02*
X0202816Y0109399D01*
X0202236Y0110198D02*
X0287093Y0110198D01*
X0287172Y0110996D02*
X0256599Y0110996D01*
X0256003Y0110400D02*
X0257291Y0111689D01*
X0257291Y0113511D01*
X0256003Y0114800D01*
X0254180Y0114800D01*
X0252892Y0113511D01*
X0252892Y0111689D01*
X0254180Y0110400D01*
X0256003Y0110400D01*
X0257291Y0111795D02*
X0287251Y0111795D01*
X0287330Y0112593D02*
X0257291Y0112593D01*
X0257291Y0113392D02*
X0287409Y0113392D01*
X0287487Y0114190D02*
X0256613Y0114190D01*
X0253570Y0114190D02*
X0234281Y0114190D01*
X0235848Y0114989D02*
X0287566Y0114989D01*
X0287645Y0115787D02*
X0236949Y0115787D01*
X0236466Y0115304D02*
X0236466Y0115304D01*
X0237748Y0116586D02*
X0287724Y0116586D01*
X0287803Y0117384D02*
X0238546Y0117384D01*
X0239345Y0118183D02*
X0287882Y0118183D01*
X0287961Y0118981D02*
X0239987Y0118981D01*
X0239824Y0118662D02*
X0239824Y0118662D01*
X0240394Y0119780D02*
X0288040Y0119780D01*
X0288119Y0120578D02*
X0240801Y0120578D01*
X0241207Y0121377D02*
X0288198Y0121377D01*
X0288277Y0122175D02*
X0241614Y0122175D01*
X0241980Y0122893D02*
X0241980Y0122893D01*
X0241993Y0122974D02*
X0288356Y0122974D01*
X0288435Y0123772D02*
X0242119Y0123772D01*
X0242246Y0124571D02*
X0288514Y0124571D01*
X0288592Y0125369D02*
X0242372Y0125369D01*
X0242499Y0126168D02*
X0288671Y0126168D01*
X0288750Y0126966D02*
X0242625Y0126966D01*
X0242695Y0127765D02*
X0288829Y0127765D01*
X0288908Y0128563D02*
X0242568Y0128563D01*
X0242442Y0129362D02*
X0288987Y0129362D01*
X0289066Y0130160D02*
X0242315Y0130160D01*
X0242189Y0130959D02*
X0289145Y0130959D01*
X0289224Y0131757D02*
X0242062Y0131757D01*
X0243759Y0132556D02*
X0289303Y0132556D01*
X0289382Y0133354D02*
X0244491Y0133354D01*
X0244491Y0134153D02*
X0289461Y0134153D01*
X0289540Y0134951D02*
X0244491Y0134951D01*
X0243853Y0135750D02*
X0289619Y0135750D01*
X0289697Y0136548D02*
X0239782Y0136548D01*
X0239824Y0136507D02*
X0239824Y0136507D01*
X0240210Y0135750D02*
X0240730Y0135750D01*
X0238984Y0137347D02*
X0289776Y0137347D01*
X0289855Y0138145D02*
X0238185Y0138145D01*
X0237387Y0138944D02*
X0289934Y0138944D01*
X0290013Y0139742D02*
X0236588Y0139742D01*
X0235139Y0140541D02*
X0290092Y0140541D01*
X0290171Y0141339D02*
X0233572Y0141339D01*
X0232234Y0142021D02*
X0232234Y0142021D01*
X0231496Y0142138D02*
X0290250Y0142138D01*
X0290329Y0142937D02*
X0237139Y0142937D01*
X0236603Y0142400D02*
X0237891Y0143689D01*
X0237891Y0145511D01*
X0236603Y0146800D01*
X0234780Y0146800D01*
X0233492Y0145511D01*
X0233492Y0143689D01*
X0234780Y0142400D01*
X0236603Y0142400D01*
X0237891Y0143735D02*
X0290408Y0143735D01*
X0290487Y0144534D02*
X0237891Y0144534D01*
X0237891Y0145332D02*
X0270048Y0145332D01*
X0269492Y0146131D02*
X0237272Y0146131D01*
X0234111Y0146131D02*
X0188272Y0146131D01*
X0188691Y0145332D02*
X0233492Y0145332D01*
X0233492Y0144534D02*
X0188691Y0144534D01*
X0190468Y0143735D02*
X0233492Y0143735D01*
X0234244Y0142937D02*
X0191266Y0142937D01*
X0191291Y0142138D02*
X0223591Y0142138D01*
X0221515Y0141339D02*
X0191291Y0141339D01*
X0187474Y0146929D02*
X0269492Y0146929D01*
X0273077Y0148526D02*
X0275054Y0148526D01*
X0275853Y0147728D02*
X0273875Y0147728D01*
X0273891Y0146929D02*
X0290724Y0146929D01*
X0290645Y0146131D02*
X0273891Y0146131D01*
X0273335Y0145332D02*
X0290566Y0145332D01*
X0290802Y0147728D02*
X0278330Y0147728D01*
X0279129Y0148526D02*
X0290881Y0148526D01*
X0290960Y0149325D02*
X0279291Y0149325D01*
X0279291Y0150123D02*
X0291039Y0150123D01*
X0291118Y0150922D02*
X0279324Y0150922D01*
X0280123Y0151720D02*
X0291197Y0151720D01*
X0291276Y0152519D02*
X0280291Y0152519D01*
X0280320Y0153317D02*
X0291355Y0153317D01*
X0291434Y0154116D02*
X0281118Y0154116D01*
X0281491Y0154914D02*
X0291513Y0154914D01*
X0291592Y0155713D02*
X0281491Y0155713D01*
X0281292Y0156511D02*
X0291671Y0156511D01*
X0291750Y0157310D02*
X0280493Y0157310D01*
X0278090Y0157310D02*
X0226112Y0157310D01*
X0226911Y0158108D02*
X0291829Y0158108D01*
X0291908Y0158907D02*
X0227091Y0158907D01*
X0227091Y0159705D02*
X0291986Y0159705D01*
X0292065Y0160504D02*
X0226699Y0160504D01*
X0225901Y0161302D02*
X0292144Y0161302D01*
X0292855Y0168489D02*
X0184601Y0168489D01*
X0184770Y0169287D02*
X0292934Y0169287D01*
X0292944Y0169389D02*
X0292944Y0169389D01*
X0293013Y0170086D02*
X0184770Y0170086D01*
X0184770Y0170884D02*
X0293091Y0170884D01*
X0293170Y0171683D02*
X0184770Y0171683D01*
X0184770Y0172481D02*
X0293311Y0172481D01*
X0293225Y0172235D02*
X0293225Y0172235D01*
X0293589Y0173280D02*
X0184770Y0173280D01*
X0184770Y0174078D02*
X0266596Y0174078D01*
X0266964Y0173926D02*
X0268264Y0173926D01*
X0269464Y0174423D01*
X0270383Y0175342D01*
X0270881Y0176543D01*
X0270881Y0177843D01*
X0270383Y0179043D01*
X0269464Y0179962D01*
X0268264Y0180460D01*
X0266964Y0180460D01*
X0265763Y0179962D01*
X0264844Y0179043D01*
X0264347Y0177843D01*
X0264347Y0176543D01*
X0264844Y0175342D01*
X0265763Y0174423D01*
X0266964Y0173926D01*
X0268632Y0174078D02*
X0293868Y0174078D01*
X0294146Y0174877D02*
X0269918Y0174877D01*
X0270521Y0175675D02*
X0294425Y0175675D01*
X0294703Y0176474D02*
X0270852Y0176474D01*
X0270881Y0177272D02*
X0295198Y0177272D01*
X0294727Y0176541D02*
X0294727Y0176541D01*
X0295712Y0178071D02*
X0270786Y0178071D01*
X0270455Y0178870D02*
X0296227Y0178870D01*
X0296742Y0179668D02*
X0269759Y0179668D01*
X0265469Y0179668D02*
X0263666Y0179668D01*
X0263226Y0179227D02*
X0264145Y0180146D01*
X0264642Y0181347D01*
X0264642Y0182647D01*
X0264145Y0183848D01*
X0263226Y0184767D01*
X0262025Y0185264D01*
X0260725Y0185264D01*
X0259525Y0184767D01*
X0258606Y0183848D01*
X0258108Y0182647D01*
X0258108Y0181347D01*
X0258606Y0180146D01*
X0259525Y0179227D01*
X0260725Y0178730D01*
X0262025Y0178730D01*
X0263226Y0179227D01*
X0262362Y0178870D02*
X0264772Y0178870D01*
X0264442Y0178071D02*
X0184770Y0178071D01*
X0184770Y0177272D02*
X0264347Y0177272D01*
X0264375Y0176474D02*
X0184770Y0176474D01*
X0184770Y0175675D02*
X0264706Y0175675D01*
X0265310Y0174877D02*
X0184770Y0174877D01*
X0184770Y0178870D02*
X0260389Y0178870D01*
X0259084Y0179668D02*
X0184770Y0179668D01*
X0184770Y0180467D02*
X0258473Y0180467D01*
X0258142Y0181265D02*
X0184770Y0181265D01*
X0184770Y0182064D02*
X0258108Y0182064D01*
X0258198Y0182862D02*
X0184770Y0182862D01*
X0184770Y0183661D02*
X0218720Y0183661D01*
X0218980Y0183400D02*
X0220803Y0183400D01*
X0222091Y0184689D01*
X0222091Y0186511D01*
X0221003Y0187600D01*
X0221491Y0188089D01*
X0221491Y0189911D01*
X0220803Y0190600D01*
X0221491Y0191289D01*
X0221491Y0193111D01*
X0220203Y0194400D01*
X0218380Y0194400D01*
X0217092Y0193111D01*
X0217092Y0191289D01*
X0217780Y0190600D01*
X0217092Y0189911D01*
X0217092Y0188089D01*
X0218180Y0187000D01*
X0217692Y0186511D01*
X0217692Y0184689D01*
X0218980Y0183400D01*
X0217921Y0184459D02*
X0184770Y0184459D01*
X0184770Y0185258D02*
X0217692Y0185258D01*
X0217692Y0186056D02*
X0184770Y0186056D01*
X0184770Y0186855D02*
X0218035Y0186855D01*
X0217527Y0187653D02*
X0184770Y0187653D01*
X0184770Y0188452D02*
X0217092Y0188452D01*
X0217092Y0189250D02*
X0184770Y0189250D01*
X0184770Y0190049D02*
X0217229Y0190049D01*
X0217533Y0190847D02*
X0184770Y0190847D01*
X0184770Y0191646D02*
X0217092Y0191646D01*
X0217092Y0192444D02*
X0184770Y0192444D01*
X0184770Y0193243D02*
X0217223Y0193243D01*
X0218021Y0194041D02*
X0184770Y0194041D01*
X0184770Y0194840D02*
X0248169Y0194840D01*
X0248248Y0194873D02*
X0247048Y0194375D01*
X0246129Y0193456D01*
X0245631Y0192255D01*
X0245631Y0190956D01*
X0246129Y0189755D01*
X0247048Y0188836D01*
X0248248Y0188339D01*
X0249548Y0188339D01*
X0250749Y0188836D01*
X0251668Y0189755D01*
X0252165Y0190956D01*
X0252165Y0192255D01*
X0251668Y0193456D01*
X0250749Y0194375D01*
X0249548Y0194873D01*
X0248248Y0194873D01*
X0249627Y0194840D02*
X0320126Y0194840D01*
X0321511Y0195638D02*
X0184770Y0195638D01*
X0184770Y0196437D02*
X0322896Y0196437D01*
X0324281Y0197235D02*
X0184770Y0197235D01*
X0184770Y0198034D02*
X0213946Y0198034D01*
X0214380Y0197600D02*
X0216203Y0197600D01*
X0217491Y0198889D01*
X0217491Y0200711D01*
X0216203Y0202000D01*
X0214691Y0202000D01*
X0214691Y0202111D01*
X0213403Y0203400D01*
X0211580Y0203400D01*
X0210292Y0202111D01*
X0210292Y0200289D01*
X0211580Y0199000D01*
X0213092Y0199000D01*
X0213092Y0198889D01*
X0214380Y0197600D01*
X0213148Y0198832D02*
X0184770Y0198832D01*
X0184770Y0199631D02*
X0210949Y0199631D01*
X0210292Y0200429D02*
X0184316Y0200429D01*
X0188980Y0214400D02*
X0190803Y0214400D01*
X0192091Y0215689D01*
X0192091Y0217511D01*
X0190803Y0218800D01*
X0188980Y0218800D01*
X0187692Y0217511D01*
X0187692Y0215689D01*
X0188980Y0214400D01*
X0188578Y0214803D02*
X0143805Y0214803D01*
X0143603Y0214600D02*
X0144691Y0215689D01*
X0144691Y0217511D01*
X0143403Y0218800D01*
X0141580Y0218800D01*
X0140292Y0217511D01*
X0140292Y0215689D01*
X0140580Y0215400D01*
X0139492Y0214311D01*
X0139492Y0212489D01*
X0140780Y0211200D01*
X0142603Y0211200D01*
X0143891Y0212489D01*
X0143891Y0214311D01*
X0143603Y0214600D01*
X0143891Y0214004D02*
X0228576Y0214004D01*
X0228905Y0213676D02*
X0230727Y0213676D01*
X0232016Y0214964D01*
X0232016Y0216787D01*
X0230727Y0218076D01*
X0228905Y0218076D01*
X0227616Y0216787D01*
X0227616Y0214964D01*
X0228905Y0213676D01*
X0227778Y0214803D02*
X0191205Y0214803D01*
X0192004Y0215601D02*
X0227616Y0215601D01*
X0227616Y0216400D02*
X0192091Y0216400D01*
X0192091Y0217198D02*
X0228027Y0217198D01*
X0228826Y0217997D02*
X0191606Y0217997D01*
X0190808Y0218795D02*
X0263692Y0218795D01*
X0263603Y0218800D02*
X0263692Y0218889D01*
X0263692Y0217289D01*
X0264980Y0216000D01*
X0263692Y0214711D01*
X0263692Y0212889D01*
X0264980Y0211600D01*
X0266803Y0211600D01*
X0268091Y0212889D01*
X0268091Y0214711D01*
X0266803Y0216000D01*
X0264980Y0216000D01*
X0266803Y0216000D01*
X0268091Y0217289D01*
X0268091Y0219111D01*
X0266803Y0220400D01*
X0264980Y0220400D01*
X0264891Y0220311D01*
X0264891Y0221911D01*
X0263603Y0223200D01*
X0261780Y0223200D01*
X0260492Y0221911D01*
X0260492Y0220089D01*
X0261780Y0218800D01*
X0263603Y0218800D01*
X0263692Y0217997D02*
X0230806Y0217997D01*
X0231605Y0217198D02*
X0263782Y0217198D01*
X0264581Y0216400D02*
X0232016Y0216400D01*
X0232016Y0215601D02*
X0264581Y0215601D01*
X0263783Y0214803D02*
X0231854Y0214803D01*
X0231056Y0214004D02*
X0263692Y0214004D01*
X0263692Y0213205D02*
X0143891Y0213205D01*
X0143810Y0212407D02*
X0264173Y0212407D01*
X0264972Y0211608D02*
X0143011Y0211608D01*
X0140372Y0211608D02*
X0129594Y0211608D01*
X0129891Y0211311D02*
X0128603Y0212600D01*
X0126780Y0212600D01*
X0125492Y0211311D01*
X0125492Y0209489D01*
X0126780Y0208200D01*
X0128603Y0208200D01*
X0129891Y0209489D01*
X0129891Y0211311D01*
X0129891Y0210810D02*
X0222190Y0210810D01*
X0222580Y0211200D02*
X0221292Y0209911D01*
X0221292Y0208089D01*
X0222580Y0206800D01*
X0224403Y0206800D01*
X0225691Y0208089D01*
X0225691Y0209911D01*
X0224403Y0211200D01*
X0222580Y0211200D01*
X0221392Y0210011D02*
X0162791Y0210011D01*
X0162603Y0210200D02*
X0160780Y0210200D01*
X0159492Y0208911D01*
X0159492Y0207089D01*
X0160780Y0205800D01*
X0162603Y0205800D01*
X0163891Y0207089D01*
X0163891Y0208911D01*
X0162603Y0210200D01*
X0163590Y0209213D02*
X0221292Y0209213D01*
X0221292Y0208414D02*
X0163891Y0208414D01*
X0163891Y0207616D02*
X0221764Y0207616D01*
X0222563Y0206817D02*
X0163620Y0206817D01*
X0162822Y0206019D02*
X0322480Y0206019D01*
X0322019Y0206817D02*
X0224420Y0206817D01*
X0225219Y0207616D02*
X0321558Y0207616D01*
X0321097Y0208414D02*
X0225691Y0208414D01*
X0225691Y0209213D02*
X0320637Y0209213D01*
X0320176Y0210011D02*
X0225591Y0210011D01*
X0224793Y0210810D02*
X0319715Y0210810D01*
X0319254Y0211608D02*
X0266811Y0211608D01*
X0267610Y0212407D02*
X0318793Y0212407D01*
X0318332Y0213205D02*
X0268091Y0213205D01*
X0268091Y0214004D02*
X0317872Y0214004D01*
X0317411Y0214803D02*
X0268000Y0214803D01*
X0267202Y0215601D02*
X0316950Y0215601D01*
X0316489Y0216400D02*
X0291111Y0216400D01*
X0291707Y0216494D02*
X0291707Y0216494D01*
X0295938Y0218650D01*
X0295938Y0218650D01*
X0299297Y0222008D01*
X0301453Y0226240D01*
X0302196Y0230931D01*
X0301453Y0235621D01*
X0301453Y0235621D01*
X0299297Y0239853D01*
X0295938Y0243211D01*
X0291707Y0245367D01*
X0291707Y0245367D01*
X0287016Y0246110D01*
X0282325Y0245367D01*
X0278094Y0243211D01*
X0278093Y0243211D01*
X0274735Y0239853D01*
X0272579Y0235621D01*
X0271836Y0230931D01*
X0271836Y0230931D01*
X0272579Y0226240D01*
X0274735Y0222008D01*
X0278093Y0218650D01*
X0278094Y0218650D01*
X0282325Y0216494D01*
X0282325Y0216494D01*
X0287016Y0215751D01*
X0291707Y0216494D01*
X0293089Y0217198D02*
X0316028Y0217198D01*
X0315568Y0217997D02*
X0294656Y0217997D01*
X0295938Y0218650D02*
X0295938Y0218650D01*
X0296083Y0218795D02*
X0315107Y0218795D01*
X0314646Y0219594D02*
X0296882Y0219594D01*
X0297680Y0220392D02*
X0314185Y0220392D01*
X0313724Y0221191D02*
X0298479Y0221191D01*
X0299277Y0221989D02*
X0313263Y0221989D01*
X0312803Y0222788D02*
X0299694Y0222788D01*
X0300101Y0223586D02*
X0312342Y0223586D01*
X0311881Y0224385D02*
X0300507Y0224385D01*
X0300914Y0225183D02*
X0311420Y0225183D01*
X0310959Y0225982D02*
X0301321Y0225982D01*
X0301538Y0226780D02*
X0310499Y0226780D01*
X0310038Y0227579D02*
X0301665Y0227579D01*
X0301791Y0228377D02*
X0309577Y0228377D01*
X0309116Y0229176D02*
X0301918Y0229176D01*
X0302044Y0229974D02*
X0308655Y0229974D01*
X0308194Y0230773D02*
X0302171Y0230773D01*
X0302196Y0230931D02*
X0302196Y0230931D01*
X0302094Y0231571D02*
X0307734Y0231571D01*
X0307273Y0232370D02*
X0301968Y0232370D01*
X0301841Y0233168D02*
X0306812Y0233168D01*
X0306351Y0233967D02*
X0301715Y0233967D01*
X0301588Y0234765D02*
X0305890Y0234765D01*
X0305429Y0235564D02*
X0301462Y0235564D01*
X0301075Y0236362D02*
X0304969Y0236362D01*
X0304508Y0237161D02*
X0300668Y0237161D01*
X0300261Y0237959D02*
X0304047Y0237959D01*
X0303586Y0238758D02*
X0299855Y0238758D01*
X0299448Y0239556D02*
X0303125Y0239556D01*
X0302665Y0240355D02*
X0298795Y0240355D01*
X0299297Y0239853D02*
X0299297Y0239853D01*
X0297996Y0241153D02*
X0302204Y0241153D01*
X0301743Y0241952D02*
X0297198Y0241952D01*
X0296399Y0242750D02*
X0301282Y0242750D01*
X0300821Y0243549D02*
X0295276Y0243549D01*
X0295938Y0243211D02*
X0295938Y0243211D01*
X0293709Y0244347D02*
X0300360Y0244347D01*
X0299900Y0245146D02*
X0292141Y0245146D01*
X0288064Y0245944D02*
X0299439Y0245944D01*
X0298978Y0246743D02*
X0032959Y0246743D01*
X0032499Y0245944D02*
X0043889Y0245944D01*
X0044937Y0246110D02*
X0040246Y0245367D01*
X0036015Y0243211D01*
X0036015Y0243211D01*
X0032657Y0239853D01*
X0030500Y0235621D01*
X0029757Y0230931D01*
X0030500Y0226240D01*
X0032657Y0222008D01*
X0036015Y0218650D01*
X0040246Y0216494D01*
X0040246Y0216494D01*
X0044937Y0215751D01*
X0044937Y0215751D01*
X0049628Y0216494D01*
X0053860Y0218650D01*
X0057218Y0222008D01*
X0057218Y0222008D01*
X0059374Y0226240D01*
X0060117Y0230931D01*
X0060117Y0230931D01*
X0059374Y0235621D01*
X0057218Y0239853D01*
X0057218Y0239853D01*
X0053860Y0243211D01*
X0053860Y0243211D01*
X0049628Y0245367D01*
X0044937Y0246110D01*
X0044937Y0246110D01*
X0045985Y0245944D02*
X0285968Y0245944D01*
X0287016Y0246110D02*
X0287016Y0246110D01*
X0282325Y0245367D02*
X0282325Y0245367D01*
X0281890Y0245146D02*
X0050063Y0245146D01*
X0049628Y0245367D02*
X0049628Y0245367D01*
X0051630Y0244347D02*
X0280323Y0244347D01*
X0278756Y0243549D02*
X0053197Y0243549D01*
X0054321Y0242750D02*
X0215331Y0242750D01*
X0214692Y0242111D02*
X0214692Y0240289D01*
X0215980Y0239000D01*
X0217803Y0239000D01*
X0219091Y0240289D01*
X0219091Y0242111D01*
X0217803Y0243400D01*
X0215980Y0243400D01*
X0214692Y0242111D01*
X0214692Y0241952D02*
X0055119Y0241952D01*
X0055918Y0241153D02*
X0214692Y0241153D01*
X0214692Y0240355D02*
X0190848Y0240355D01*
X0190803Y0240400D02*
X0188980Y0240400D01*
X0187692Y0239111D01*
X0187692Y0237289D01*
X0188980Y0236000D01*
X0190803Y0236000D01*
X0192091Y0237289D01*
X0192091Y0239111D01*
X0190803Y0240400D01*
X0191646Y0239556D02*
X0215424Y0239556D01*
X0218359Y0239556D02*
X0219624Y0239556D01*
X0219492Y0239689D02*
X0220780Y0238400D01*
X0222603Y0238400D01*
X0223891Y0239689D01*
X0223891Y0241511D01*
X0222603Y0242800D01*
X0220780Y0242800D01*
X0219492Y0241511D01*
X0219492Y0239689D01*
X0219492Y0240355D02*
X0219091Y0240355D01*
X0219091Y0241153D02*
X0219492Y0241153D01*
X0219091Y0241952D02*
X0219932Y0241952D01*
X0220731Y0242750D02*
X0218452Y0242750D01*
X0222652Y0242750D02*
X0277633Y0242750D01*
X0276834Y0241952D02*
X0223451Y0241952D01*
X0223891Y0241153D02*
X0276036Y0241153D01*
X0275237Y0240355D02*
X0223891Y0240355D01*
X0223759Y0239556D02*
X0274584Y0239556D01*
X0274735Y0239853D02*
X0274735Y0239853D01*
X0274177Y0238758D02*
X0247845Y0238758D01*
X0248191Y0238411D02*
X0247203Y0239400D01*
X0245380Y0239400D01*
X0244292Y0238311D01*
X0243203Y0239400D01*
X0241380Y0239400D01*
X0240092Y0238111D01*
X0240092Y0236289D01*
X0241380Y0235000D01*
X0243203Y0235000D01*
X0244292Y0236089D01*
X0245380Y0235000D01*
X0247203Y0235000D01*
X0247391Y0235189D01*
X0248380Y0234200D01*
X0250203Y0234200D01*
X0251491Y0235489D01*
X0251491Y0237311D01*
X0250203Y0238600D01*
X0248380Y0238600D01*
X0248191Y0238411D01*
X0250843Y0237959D02*
X0254540Y0237959D01*
X0254980Y0238400D02*
X0253692Y0237111D01*
X0253692Y0235289D01*
X0254980Y0234000D01*
X0256803Y0234000D01*
X0258091Y0235289D01*
X0258091Y0237111D01*
X0256803Y0238400D01*
X0254980Y0238400D01*
X0253741Y0237161D02*
X0251491Y0237161D01*
X0251491Y0236362D02*
X0253692Y0236362D01*
X0253692Y0235564D02*
X0251491Y0235564D01*
X0250768Y0234765D02*
X0254215Y0234765D01*
X0257568Y0234765D02*
X0272444Y0234765D01*
X0272317Y0233967D02*
X0149891Y0233967D01*
X0149891Y0233800D02*
X0149891Y0235511D01*
X0148603Y0236800D01*
X0146780Y0236800D01*
X0146180Y0236200D01*
X0136403Y0236200D01*
X0136891Y0236689D01*
X0136891Y0238511D01*
X0135603Y0239800D01*
X0133780Y0239800D01*
X0132492Y0238511D01*
X0132492Y0236689D01*
X0132980Y0236200D01*
X0088829Y0236200D01*
X0085429Y0232800D01*
X0081603Y0232800D01*
X0081203Y0233200D01*
X0079380Y0233200D01*
X0078092Y0231911D01*
X0078092Y0230089D01*
X0079380Y0228800D01*
X0081203Y0228800D01*
X0082003Y0229600D01*
X0086754Y0229600D01*
X0087691Y0230537D01*
X0090154Y0233000D01*
X0091780Y0233000D01*
X0090692Y0231911D01*
X0090692Y0230089D01*
X0091980Y0228800D01*
X0093803Y0228800D01*
X0095091Y0230089D01*
X0095091Y0230827D01*
X0095505Y0231200D01*
X0104834Y0231200D01*
X0104837Y0231197D01*
X0105495Y0231200D01*
X0106154Y0231200D01*
X0106158Y0231203D01*
X0125482Y0231302D01*
X0124892Y0230711D01*
X0124892Y0228889D01*
X0126180Y0227600D01*
X0128003Y0227600D01*
X0129291Y0228889D01*
X0129291Y0230711D01*
X0128684Y0231318D01*
X0144032Y0231397D01*
X0144829Y0230600D01*
X0151829Y0230600D01*
X0154692Y0227737D01*
X0154692Y0223511D01*
X0154092Y0222911D01*
X0154092Y0221089D01*
X0155380Y0219800D01*
X0157203Y0219800D01*
X0158491Y0221089D01*
X0158491Y0222911D01*
X0157891Y0223511D01*
X0157891Y0229063D01*
X0156954Y0230000D01*
X0153154Y0233800D01*
X0149891Y0233800D01*
X0149891Y0234765D02*
X0247815Y0234765D01*
X0244816Y0235564D02*
X0243767Y0235564D01*
X0240816Y0235564D02*
X0149839Y0235564D01*
X0149040Y0236362D02*
X0188618Y0236362D01*
X0187819Y0237161D02*
X0136891Y0237161D01*
X0136891Y0237959D02*
X0187692Y0237959D01*
X0187692Y0238758D02*
X0136645Y0238758D01*
X0135846Y0239556D02*
X0188137Y0239556D01*
X0188935Y0240355D02*
X0056716Y0240355D01*
X0057369Y0239556D02*
X0133537Y0239556D01*
X0132738Y0238758D02*
X0057776Y0238758D01*
X0058183Y0237959D02*
X0132492Y0237959D01*
X0132492Y0237161D02*
X0058590Y0237161D01*
X0058996Y0236362D02*
X0132818Y0236362D01*
X0136565Y0236362D02*
X0146343Y0236362D01*
X0147692Y0234600D02*
X0089492Y0234600D01*
X0086092Y0231200D01*
X0080492Y0231200D01*
X0080292Y0231000D01*
X0078092Y0230773D02*
X0060092Y0230773D01*
X0060015Y0231571D02*
X0078092Y0231571D01*
X0078550Y0232370D02*
X0059889Y0232370D01*
X0059762Y0233168D02*
X0079349Y0233168D01*
X0081234Y0233168D02*
X0085797Y0233168D01*
X0086596Y0233967D02*
X0059636Y0233967D01*
X0059510Y0234765D02*
X0087394Y0234765D01*
X0088193Y0235564D02*
X0059383Y0235564D01*
X0059965Y0229974D02*
X0078206Y0229974D01*
X0079005Y0229176D02*
X0059839Y0229176D01*
X0059712Y0228377D02*
X0125403Y0228377D01*
X0124892Y0229176D02*
X0094179Y0229176D01*
X0094977Y0229974D02*
X0124892Y0229974D01*
X0124953Y0230773D02*
X0095091Y0230773D01*
X0094892Y0232800D02*
X0092892Y0231000D01*
X0090692Y0230773D02*
X0087927Y0230773D01*
X0088726Y0231571D02*
X0090692Y0231571D01*
X0091150Y0232370D02*
X0089524Y0232370D01*
X0090806Y0229974D02*
X0087128Y0229974D01*
X0091605Y0229176D02*
X0081579Y0229176D01*
X0079403Y0220600D02*
X0077580Y0220600D01*
X0076292Y0219311D01*
X0076292Y0217489D01*
X0077580Y0216200D01*
X0079403Y0216200D01*
X0080691Y0217489D01*
X0080691Y0219311D01*
X0079403Y0220600D01*
X0079611Y0220392D02*
X0132692Y0220392D01*
X0132692Y0219594D02*
X0080409Y0219594D01*
X0080691Y0218795D02*
X0133385Y0218795D01*
X0133980Y0218200D02*
X0132692Y0219489D01*
X0132692Y0221311D01*
X0133980Y0222600D01*
X0135803Y0222600D01*
X0135892Y0222511D01*
X0135892Y0222511D01*
X0137180Y0223800D01*
X0139003Y0223800D01*
X0140291Y0222511D01*
X0140291Y0220689D01*
X0139003Y0219400D01*
X0137180Y0219400D01*
X0137091Y0219489D01*
X0137091Y0219489D01*
X0135803Y0218200D01*
X0133980Y0218200D01*
X0136398Y0218795D02*
X0141575Y0218795D01*
X0140777Y0217997D02*
X0080691Y0217997D01*
X0080401Y0217198D02*
X0123978Y0217198D01*
X0123980Y0217200D02*
X0122692Y0215911D01*
X0122692Y0214089D01*
X0123980Y0212800D01*
X0125803Y0212800D01*
X0127091Y0214089D01*
X0127091Y0215911D01*
X0125803Y0217200D01*
X0123980Y0217200D01*
X0123180Y0216400D02*
X0079602Y0216400D01*
X0077381Y0216400D02*
X0049032Y0216400D01*
X0049628Y0216494D02*
X0049628Y0216494D01*
X0051010Y0217198D02*
X0076582Y0217198D01*
X0076292Y0217997D02*
X0052577Y0217997D01*
X0053860Y0218650D02*
X0053860Y0218650D01*
X0054005Y0218795D02*
X0076292Y0218795D01*
X0076574Y0219594D02*
X0054803Y0219594D01*
X0055602Y0220392D02*
X0077372Y0220392D01*
X0067203Y0209000D02*
X0065380Y0209000D01*
X0064092Y0207711D01*
X0064092Y0205889D01*
X0065380Y0204600D01*
X0067203Y0204600D01*
X0068491Y0205889D01*
X0068491Y0207711D01*
X0067203Y0209000D01*
X0067788Y0208414D02*
X0126566Y0208414D01*
X0125767Y0209213D02*
X0011301Y0209213D01*
X0011762Y0210011D02*
X0125492Y0210011D01*
X0125492Y0210810D02*
X0012222Y0210810D01*
X0012683Y0211608D02*
X0125789Y0211608D01*
X0126587Y0212407D02*
X0013144Y0212407D01*
X0013605Y0213205D02*
X0123575Y0213205D01*
X0122776Y0214004D02*
X0014066Y0214004D01*
X0014526Y0214803D02*
X0122692Y0214803D01*
X0122692Y0215601D02*
X0014987Y0215601D01*
X0015448Y0216400D02*
X0040842Y0216400D01*
X0038864Y0217198D02*
X0015909Y0217198D01*
X0016370Y0217997D02*
X0037297Y0217997D01*
X0036015Y0218650D02*
X0036015Y0218650D01*
X0035870Y0218795D02*
X0016831Y0218795D01*
X0017291Y0219594D02*
X0035071Y0219594D01*
X0034273Y0220392D02*
X0017752Y0220392D01*
X0018213Y0221191D02*
X0033474Y0221191D01*
X0032676Y0221989D02*
X0018674Y0221989D01*
X0019135Y0222788D02*
X0032259Y0222788D01*
X0032657Y0222008D02*
X0032657Y0222008D01*
X0031853Y0223586D02*
X0019596Y0223586D01*
X0020056Y0224385D02*
X0031446Y0224385D01*
X0031039Y0225183D02*
X0020517Y0225183D01*
X0020978Y0225982D02*
X0030632Y0225982D01*
X0030500Y0226240D02*
X0030500Y0226240D01*
X0030415Y0226780D02*
X0021439Y0226780D01*
X0021900Y0227579D02*
X0030288Y0227579D01*
X0030162Y0228377D02*
X0022360Y0228377D01*
X0022821Y0229176D02*
X0030035Y0229176D01*
X0029909Y0229974D02*
X0023282Y0229974D01*
X0023743Y0230773D02*
X0029782Y0230773D01*
X0029757Y0230931D02*
X0029757Y0230931D01*
X0029859Y0231571D02*
X0024204Y0231571D01*
X0024665Y0232370D02*
X0029985Y0232370D01*
X0030112Y0233168D02*
X0025125Y0233168D01*
X0025586Y0233967D02*
X0030238Y0233967D01*
X0030365Y0234765D02*
X0026047Y0234765D01*
X0026508Y0235564D02*
X0030491Y0235564D01*
X0030500Y0235621D02*
X0030500Y0235621D01*
X0030878Y0236362D02*
X0026969Y0236362D01*
X0027429Y0237161D02*
X0031285Y0237161D01*
X0031692Y0237959D02*
X0027890Y0237959D01*
X0028351Y0238758D02*
X0032098Y0238758D01*
X0032505Y0239556D02*
X0028812Y0239556D01*
X0029273Y0240355D02*
X0033158Y0240355D01*
X0032657Y0239853D02*
X0032657Y0239853D01*
X0033957Y0241153D02*
X0029734Y0241153D01*
X0030194Y0241952D02*
X0034755Y0241952D01*
X0035554Y0242750D02*
X0030655Y0242750D01*
X0031116Y0243549D02*
X0036677Y0243549D01*
X0038244Y0244347D02*
X0031577Y0244347D01*
X0032038Y0245146D02*
X0039812Y0245146D01*
X0040246Y0245367D02*
X0040246Y0245367D01*
X0034342Y0249139D02*
X0130642Y0249139D01*
X0131180Y0248600D02*
X0133003Y0248600D01*
X0134192Y0249789D01*
X0135380Y0248600D01*
X0137203Y0248600D01*
X0138491Y0249889D01*
X0138491Y0251711D01*
X0137703Y0252500D01*
X0138891Y0253689D01*
X0139980Y0252600D01*
X0141803Y0252600D01*
X0143091Y0253889D01*
X0143091Y0254600D01*
X0144403Y0254600D01*
X0145691Y0255889D01*
X0145691Y0257711D01*
X0144403Y0259000D01*
X0142580Y0259000D01*
X0141292Y0257711D01*
X0141292Y0257000D01*
X0139980Y0257000D01*
X0138692Y0255711D01*
X0137603Y0256800D01*
X0135780Y0256800D01*
X0134492Y0255511D01*
X0134492Y0253689D01*
X0135280Y0252900D01*
X0134192Y0251811D01*
X0133003Y0253000D01*
X0131180Y0253000D01*
X0129892Y0251711D01*
X0129892Y0249889D01*
X0131180Y0248600D01*
X0129892Y0249937D02*
X0034803Y0249937D01*
X0035263Y0250736D02*
X0129892Y0250736D01*
X0129892Y0251534D02*
X0035724Y0251534D01*
X0036185Y0252333D02*
X0130513Y0252333D01*
X0128491Y0254489D02*
X0128491Y0256311D01*
X0128403Y0256400D01*
X0129403Y0256400D01*
X0130691Y0257689D01*
X0130691Y0259511D01*
X0130203Y0260000D01*
X0133354Y0260000D01*
X0133492Y0260137D01*
X0133492Y0259089D01*
X0134780Y0257800D01*
X0136603Y0257800D01*
X0137891Y0259089D01*
X0137891Y0260600D01*
X0138003Y0260600D01*
X0139291Y0261889D01*
X0139291Y0263537D01*
X0139692Y0263137D01*
X0139692Y0262289D01*
X0140980Y0261000D01*
X0142803Y0261000D01*
X0144091Y0262289D01*
X0144091Y0264111D01*
X0142803Y0265400D01*
X0141954Y0265400D01*
X0140554Y0266800D01*
X0135629Y0266800D01*
X0134692Y0265863D01*
X0132029Y0263200D01*
X0129954Y0263200D01*
X0129491Y0263663D01*
X0129491Y0264511D01*
X0128203Y0265800D01*
X0126380Y0265800D01*
X0125092Y0264511D01*
X0125092Y0262689D01*
X0126380Y0261400D01*
X0127229Y0261400D01*
X0127829Y0260800D01*
X0127580Y0260800D01*
X0126292Y0259511D01*
X0126292Y0257689D01*
X0126380Y0257600D01*
X0125891Y0257600D01*
X0125891Y0258511D01*
X0124603Y0259800D01*
X0122780Y0259800D01*
X0121492Y0258511D01*
X0121492Y0256689D01*
X0122780Y0255400D01*
X0124092Y0255400D01*
X0124092Y0254489D01*
X0125380Y0253200D01*
X0127203Y0253200D01*
X0128491Y0254489D01*
X0128491Y0254728D02*
X0134492Y0254728D01*
X0134492Y0253930D02*
X0127932Y0253930D01*
X0128491Y0255527D02*
X0134507Y0255527D01*
X0135305Y0256325D02*
X0128478Y0256325D01*
X0130126Y0257124D02*
X0141292Y0257124D01*
X0141502Y0257922D02*
X0136725Y0257922D01*
X0137523Y0258721D02*
X0142301Y0258721D01*
X0144682Y0258721D02*
X0188092Y0258721D01*
X0188092Y0259311D02*
X0188092Y0257489D01*
X0189180Y0256400D01*
X0188692Y0255911D01*
X0188692Y0254089D01*
X0189980Y0252800D01*
X0191803Y0252800D01*
X0193091Y0254089D01*
X0193091Y0255911D01*
X0192003Y0257000D01*
X0192491Y0257489D01*
X0192491Y0259311D01*
X0191803Y0260000D01*
X0192203Y0260000D01*
X0193491Y0261289D01*
X0193491Y0263111D01*
X0192203Y0264400D01*
X0190691Y0264400D01*
X0190691Y0264511D01*
X0189403Y0265800D01*
X0187580Y0265800D01*
X0186292Y0264511D01*
X0185603Y0265200D01*
X0183780Y0265200D01*
X0182492Y0263911D01*
X0182492Y0262089D01*
X0183780Y0260800D01*
X0185603Y0260800D01*
X0186891Y0262089D01*
X0187580Y0261400D01*
X0189092Y0261400D01*
X0189092Y0261289D01*
X0189780Y0260600D01*
X0189380Y0260600D01*
X0188092Y0259311D01*
X0188299Y0259519D02*
X0166522Y0259519D01*
X0166403Y0259400D02*
X0167691Y0260689D01*
X0167691Y0262511D01*
X0167603Y0262600D01*
X0169203Y0262600D01*
X0170491Y0263889D01*
X0170491Y0265711D01*
X0169203Y0267000D01*
X0167380Y0267000D01*
X0166092Y0265711D01*
X0166092Y0263889D01*
X0166180Y0263800D01*
X0164580Y0263800D01*
X0163292Y0262511D01*
X0163292Y0260689D01*
X0164580Y0259400D01*
X0166403Y0259400D01*
X0167320Y0260318D02*
X0189098Y0260318D01*
X0189264Y0261116D02*
X0185919Y0261116D01*
X0186717Y0261915D02*
X0187066Y0261915D01*
X0186891Y0262089D02*
X0186891Y0262089D01*
X0186292Y0264511D02*
X0186292Y0264511D01*
X0186889Y0265109D02*
X0185694Y0265109D01*
X0183689Y0265109D02*
X0170491Y0265109D01*
X0170491Y0264310D02*
X0182890Y0264310D01*
X0182492Y0263512D02*
X0170114Y0263512D01*
X0169316Y0262713D02*
X0182492Y0262713D01*
X0182666Y0261915D02*
X0167691Y0261915D01*
X0167691Y0261116D02*
X0183464Y0261116D01*
X0188092Y0257922D02*
X0145481Y0257922D01*
X0145691Y0257124D02*
X0188457Y0257124D01*
X0189105Y0256325D02*
X0145691Y0256325D01*
X0145329Y0255527D02*
X0188692Y0255527D01*
X0188692Y0254728D02*
X0144531Y0254728D01*
X0143091Y0253930D02*
X0188851Y0253930D01*
X0189649Y0253131D02*
X0142334Y0253131D01*
X0139449Y0253131D02*
X0138334Y0253131D01*
X0138891Y0253689D02*
X0138891Y0253689D01*
X0137870Y0252333D02*
X0241324Y0252333D01*
X0241368Y0252289D02*
X0243166Y0251544D01*
X0245111Y0251544D01*
X0246909Y0252289D01*
X0248285Y0253664D01*
X0249029Y0255462D01*
X0249029Y0257408D01*
X0248285Y0259205D01*
X0246909Y0260581D01*
X0245111Y0261326D01*
X0243166Y0261326D01*
X0241368Y0260581D01*
X0239992Y0259205D01*
X0239248Y0257408D01*
X0239248Y0255462D01*
X0239992Y0253664D01*
X0241368Y0252289D01*
X0240526Y0253131D02*
X0192134Y0253131D01*
X0192932Y0253930D02*
X0239882Y0253930D01*
X0239552Y0254728D02*
X0193091Y0254728D01*
X0193091Y0255527D02*
X0239248Y0255527D01*
X0239248Y0256325D02*
X0237475Y0256325D01*
X0237666Y0256404D02*
X0235868Y0255659D01*
X0233922Y0255659D01*
X0232125Y0256404D01*
X0230749Y0257780D01*
X0230004Y0259577D01*
X0230004Y0261523D01*
X0230749Y0263321D01*
X0232125Y0264697D01*
X0233922Y0265441D01*
X0235868Y0265441D01*
X0237666Y0264697D01*
X0239042Y0263321D01*
X0239786Y0261523D01*
X0239786Y0259577D01*
X0239042Y0257780D01*
X0237666Y0256404D01*
X0238385Y0257124D02*
X0239248Y0257124D01*
X0239100Y0257922D02*
X0239461Y0257922D01*
X0239431Y0258721D02*
X0239791Y0258721D01*
X0239762Y0259519D02*
X0240306Y0259519D01*
X0239786Y0260318D02*
X0241105Y0260318D01*
X0239786Y0261116D02*
X0242660Y0261116D01*
X0245618Y0261116D02*
X0290683Y0261116D01*
X0291144Y0260318D02*
X0247173Y0260318D01*
X0247971Y0259519D02*
X0291605Y0259519D01*
X0292066Y0258721D02*
X0248486Y0258721D01*
X0248816Y0257922D02*
X0292526Y0257922D01*
X0292987Y0257124D02*
X0254572Y0257124D01*
X0254247Y0257258D02*
X0252301Y0257258D01*
X0250504Y0256514D01*
X0249128Y0255138D01*
X0248383Y0253340D01*
X0248383Y0251395D01*
X0249128Y0249597D01*
X0250504Y0248221D01*
X0252301Y0247477D01*
X0254247Y0247477D01*
X0256044Y0248221D01*
X0257420Y0249597D01*
X0258165Y0251395D01*
X0258165Y0253340D01*
X0257420Y0255138D01*
X0256044Y0256514D01*
X0254247Y0257258D01*
X0256233Y0256325D02*
X0293448Y0256325D01*
X0293909Y0255527D02*
X0257032Y0255527D01*
X0257590Y0254728D02*
X0294370Y0254728D01*
X0294831Y0253930D02*
X0257921Y0253930D01*
X0258165Y0253131D02*
X0295291Y0253131D01*
X0295752Y0252333D02*
X0258165Y0252333D01*
X0258165Y0251534D02*
X0296213Y0251534D01*
X0296674Y0250736D02*
X0257892Y0250736D01*
X0257561Y0249937D02*
X0297135Y0249937D01*
X0297596Y0249139D02*
X0256962Y0249139D01*
X0256163Y0248340D02*
X0298056Y0248340D01*
X0298517Y0247541D02*
X0254404Y0247541D01*
X0252144Y0247541D02*
X0178344Y0247541D01*
X0178203Y0247400D02*
X0179491Y0248689D01*
X0179491Y0250511D01*
X0178203Y0251800D01*
X0176380Y0251800D01*
X0175092Y0250511D01*
X0175092Y0248689D01*
X0176380Y0247400D01*
X0178203Y0247400D01*
X0179143Y0248340D02*
X0250385Y0248340D01*
X0249586Y0249139D02*
X0179491Y0249139D01*
X0179491Y0249937D02*
X0248987Y0249937D01*
X0248656Y0250736D02*
X0179267Y0250736D01*
X0178469Y0251534D02*
X0248383Y0251534D01*
X0248383Y0252333D02*
X0246953Y0252333D01*
X0247752Y0253131D02*
X0248383Y0253131D01*
X0248395Y0253930D02*
X0248627Y0253930D01*
X0248725Y0254728D02*
X0248958Y0254728D01*
X0249029Y0255527D02*
X0249516Y0255527D01*
X0249029Y0256325D02*
X0250315Y0256325D01*
X0249029Y0257124D02*
X0251976Y0257124D01*
X0251128Y0265907D02*
X0287918Y0265907D01*
X0288379Y0265109D02*
X0236671Y0265109D01*
X0238052Y0264310D02*
X0288840Y0264310D01*
X0289301Y0263512D02*
X0238851Y0263512D01*
X0239293Y0262713D02*
X0289762Y0262713D01*
X0290222Y0261915D02*
X0239624Y0261915D01*
X0240652Y0265907D02*
X0230520Y0265907D01*
X0230651Y0265591D02*
X0229906Y0267388D01*
X0228530Y0268764D01*
X0226733Y0269509D01*
X0224787Y0269509D01*
X0222989Y0268764D01*
X0221613Y0267388D01*
X0220869Y0265591D01*
X0220869Y0263645D01*
X0221613Y0261847D01*
X0222989Y0260471D01*
X0224787Y0259727D01*
X0226733Y0259727D01*
X0228530Y0260471D01*
X0229906Y0261847D01*
X0230651Y0263645D01*
X0230651Y0265591D01*
X0230651Y0265109D02*
X0233120Y0265109D01*
X0231738Y0264310D02*
X0230651Y0264310D01*
X0230596Y0263512D02*
X0230940Y0263512D01*
X0230497Y0262713D02*
X0230265Y0262713D01*
X0230166Y0261915D02*
X0229934Y0261915D01*
X0230004Y0261116D02*
X0229175Y0261116D01*
X0230004Y0260318D02*
X0228159Y0260318D01*
X0230028Y0259519D02*
X0192284Y0259519D01*
X0192491Y0258721D02*
X0230359Y0258721D01*
X0230690Y0257922D02*
X0192491Y0257922D01*
X0192126Y0257124D02*
X0231405Y0257124D01*
X0232315Y0256325D02*
X0192678Y0256325D01*
X0192520Y0260318D02*
X0223360Y0260318D01*
X0222344Y0261116D02*
X0193319Y0261116D01*
X0193491Y0261915D02*
X0221585Y0261915D01*
X0221255Y0262713D02*
X0193491Y0262713D01*
X0193091Y0263512D02*
X0220924Y0263512D01*
X0220869Y0264310D02*
X0192293Y0264310D01*
X0190094Y0265109D02*
X0220869Y0265109D01*
X0221000Y0265907D02*
X0170296Y0265907D01*
X0169497Y0266706D02*
X0221331Y0266706D01*
X0221730Y0267504D02*
X0158091Y0267504D01*
X0158091Y0267911D02*
X0158091Y0266089D01*
X0156803Y0264800D01*
X0154980Y0264800D01*
X0153692Y0266089D01*
X0153692Y0267911D01*
X0154980Y0269200D01*
X0156803Y0269200D01*
X0158091Y0267911D01*
X0157700Y0268303D02*
X0222528Y0268303D01*
X0223804Y0269101D02*
X0156901Y0269101D01*
X0154882Y0269101D02*
X0100176Y0269101D01*
X0098410Y0268303D02*
X0112283Y0268303D01*
X0112780Y0268800D02*
X0111492Y0267511D01*
X0111492Y0265689D01*
X0112780Y0264400D01*
X0114603Y0264400D01*
X0115891Y0265689D01*
X0115891Y0267511D01*
X0114603Y0268800D01*
X0112780Y0268800D01*
X0111492Y0267504D02*
X0096643Y0267504D01*
X0094877Y0266706D02*
X0111492Y0266706D01*
X0111492Y0265907D02*
X0093111Y0265907D01*
X0092623Y0265687D02*
X0092623Y0265687D01*
X0089583Y0265109D02*
X0112071Y0265109D01*
X0115312Y0265109D02*
X0125689Y0265109D01*
X0125092Y0264310D02*
X0043097Y0264310D01*
X0042637Y0263512D02*
X0125092Y0263512D01*
X0125092Y0262713D02*
X0042176Y0262713D01*
X0041715Y0261915D02*
X0125866Y0261915D01*
X0127513Y0261116D02*
X0041254Y0261116D01*
X0040793Y0260318D02*
X0127098Y0260318D01*
X0126299Y0259519D02*
X0124884Y0259519D01*
X0125682Y0258721D02*
X0126292Y0258721D01*
X0126292Y0257922D02*
X0125891Y0257922D01*
X0124092Y0254728D02*
X0037568Y0254728D01*
X0038028Y0255527D02*
X0122654Y0255527D01*
X0121855Y0256325D02*
X0038489Y0256325D01*
X0038950Y0257124D02*
X0121492Y0257124D01*
X0121492Y0257922D02*
X0039411Y0257922D01*
X0039872Y0258721D02*
X0121701Y0258721D01*
X0122499Y0259519D02*
X0040332Y0259519D01*
X0037107Y0253930D02*
X0124651Y0253930D01*
X0130691Y0257922D02*
X0134658Y0257922D01*
X0133860Y0258721D02*
X0130691Y0258721D01*
X0130684Y0259519D02*
X0133492Y0259519D01*
X0132692Y0261600D02*
X0129292Y0261600D01*
X0127292Y0263600D01*
X0128894Y0265109D02*
X0133938Y0265109D01*
X0134736Y0265907D02*
X0115891Y0265907D01*
X0115891Y0266706D02*
X0135535Y0266706D01*
X0136292Y0265200D02*
X0139892Y0265200D01*
X0141892Y0263200D01*
X0144091Y0263512D02*
X0164292Y0263512D01*
X0163493Y0262713D02*
X0144091Y0262713D01*
X0143717Y0261915D02*
X0163292Y0261915D01*
X0163292Y0261116D02*
X0142919Y0261116D01*
X0140864Y0261116D02*
X0138519Y0261116D01*
X0137891Y0260318D02*
X0163663Y0260318D01*
X0164461Y0259519D02*
X0137891Y0259519D01*
X0139291Y0261915D02*
X0140066Y0261915D01*
X0139692Y0262713D02*
X0139291Y0262713D01*
X0139291Y0263512D02*
X0139317Y0263512D01*
X0141447Y0265907D02*
X0153873Y0265907D01*
X0153692Y0266706D02*
X0140648Y0266706D01*
X0143094Y0265109D02*
X0154671Y0265109D01*
X0157112Y0265109D02*
X0166092Y0265109D01*
X0166092Y0264310D02*
X0143893Y0264310D01*
X0136292Y0265200D02*
X0132692Y0261600D01*
X0132340Y0263512D02*
X0129643Y0263512D01*
X0129491Y0264310D02*
X0133139Y0264310D01*
X0138078Y0256325D02*
X0139305Y0256325D01*
X0138692Y0255711D02*
X0138692Y0255711D01*
X0138491Y0251534D02*
X0176114Y0251534D01*
X0175316Y0250736D02*
X0138491Y0250736D01*
X0138491Y0249937D02*
X0175092Y0249937D01*
X0175092Y0249139D02*
X0137741Y0249139D01*
X0134842Y0249139D02*
X0133541Y0249139D01*
X0133670Y0252333D02*
X0134713Y0252333D01*
X0135049Y0253131D02*
X0036646Y0253131D01*
X0033881Y0248340D02*
X0175440Y0248340D01*
X0176239Y0247541D02*
X0033420Y0247541D01*
X0043558Y0265109D02*
X0083443Y0265109D01*
X0083613Y0265059D02*
X0083613Y0265059D01*
X0080722Y0265907D02*
X0044019Y0265907D01*
X0044480Y0266706D02*
X0078612Y0266706D01*
X0077224Y0267504D02*
X0044941Y0267504D01*
X0045402Y0268303D02*
X0075843Y0268303D01*
X0074462Y0269101D02*
X0045862Y0269101D01*
X0046323Y0269900D02*
X0073080Y0269900D01*
X0071699Y0270698D02*
X0046784Y0270698D01*
X0047245Y0271497D02*
X0070318Y0271497D01*
X0068936Y0272295D02*
X0047706Y0272295D01*
X0048166Y0273094D02*
X0067555Y0273094D01*
X0066173Y0273892D02*
X0048627Y0273892D01*
X0049088Y0274691D02*
X0064792Y0274691D01*
X0063411Y0275489D02*
X0049549Y0275489D01*
X0050010Y0276288D02*
X0062029Y0276288D01*
X0060648Y0277086D02*
X0050471Y0277086D01*
X0050931Y0277885D02*
X0059267Y0277885D01*
X0057885Y0278683D02*
X0051392Y0278683D01*
X0051853Y0279482D02*
X0056504Y0279482D01*
X0055122Y0280280D02*
X0052314Y0280280D01*
X0052775Y0281079D02*
X0053741Y0281079D01*
X0088155Y0264837D02*
X0088155Y0264837D01*
X0101943Y0269900D02*
X0182109Y0269900D01*
X0181823Y0270019D02*
X0183620Y0269274D01*
X0185566Y0269274D01*
X0187364Y0270019D01*
X0188740Y0271394D01*
X0189484Y0273192D01*
X0189484Y0275138D01*
X0188740Y0276935D01*
X0187364Y0278311D01*
X0185566Y0279056D01*
X0183620Y0279056D01*
X0181823Y0278311D01*
X0180447Y0276935D01*
X0179702Y0275138D01*
X0179702Y0273192D01*
X0180447Y0271394D01*
X0181823Y0270019D01*
X0181143Y0270698D02*
X0103709Y0270698D01*
X0105475Y0271497D02*
X0155083Y0271497D01*
X0155180Y0271400D02*
X0153892Y0272689D01*
X0153892Y0274511D01*
X0155180Y0275800D01*
X0157003Y0275800D01*
X0158291Y0274511D01*
X0158291Y0272689D01*
X0157003Y0271400D01*
X0155180Y0271400D01*
X0154285Y0272295D02*
X0107242Y0272295D01*
X0109008Y0273094D02*
X0153892Y0273094D01*
X0153892Y0273892D02*
X0120295Y0273892D01*
X0120891Y0274691D02*
X0154071Y0274691D01*
X0154870Y0275489D02*
X0147692Y0275489D01*
X0148291Y0276089D02*
X0147003Y0274800D01*
X0145180Y0274800D01*
X0143892Y0276089D01*
X0143892Y0277911D01*
X0145180Y0279200D01*
X0147003Y0279200D01*
X0148291Y0277911D01*
X0148291Y0276089D01*
X0148291Y0276288D02*
X0170969Y0276288D01*
X0170639Y0277086D02*
X0148291Y0277086D01*
X0148291Y0277885D02*
X0164200Y0277885D01*
X0163552Y0278153D02*
X0165349Y0277409D01*
X0167295Y0277409D01*
X0169093Y0278153D01*
X0170469Y0279529D01*
X0171213Y0281327D01*
X0171213Y0283273D01*
X0170469Y0285070D01*
X0169093Y0286446D01*
X0167295Y0287191D01*
X0165349Y0287191D01*
X0163552Y0286446D01*
X0162176Y0285070D01*
X0161431Y0283273D01*
X0161431Y0281327D01*
X0162176Y0279529D01*
X0163552Y0278153D01*
X0163022Y0278683D02*
X0147519Y0278683D01*
X0144664Y0278683D02*
X0121373Y0278683D01*
X0119607Y0277885D02*
X0143892Y0277885D01*
X0143892Y0277086D02*
X0120116Y0277086D01*
X0120891Y0276288D02*
X0143892Y0276288D01*
X0144491Y0275489D02*
X0120891Y0275489D01*
X0117088Y0273892D02*
X0110775Y0273892D01*
X0112541Y0274691D02*
X0116492Y0274691D01*
X0116492Y0275489D02*
X0114307Y0275489D01*
X0116074Y0276288D02*
X0116492Y0276288D01*
X0123139Y0279482D02*
X0162223Y0279482D01*
X0161865Y0280280D02*
X0124906Y0280280D01*
X0126672Y0281079D02*
X0161534Y0281079D01*
X0161431Y0281877D02*
X0146480Y0281877D01*
X0146003Y0281400D02*
X0147291Y0282689D01*
X0147291Y0284511D01*
X0146003Y0285800D01*
X0144180Y0285800D01*
X0142892Y0284511D01*
X0142892Y0282689D01*
X0144180Y0281400D01*
X0146003Y0281400D01*
X0147279Y0282676D02*
X0161431Y0282676D01*
X0161515Y0283474D02*
X0147291Y0283474D01*
X0147291Y0284273D02*
X0161846Y0284273D01*
X0162177Y0285072D02*
X0146731Y0285072D01*
X0143452Y0285072D02*
X0135504Y0285072D01*
X0137271Y0285870D02*
X0162976Y0285870D01*
X0164089Y0286669D02*
X0139037Y0286669D01*
X0140803Y0287467D02*
X0174634Y0287467D01*
X0174634Y0286669D02*
X0168556Y0286669D01*
X0169669Y0285870D02*
X0174852Y0285870D01*
X0174634Y0286395D02*
X0175379Y0284597D01*
X0176755Y0283221D01*
X0178552Y0282477D01*
X0180498Y0282477D01*
X0182296Y0283221D01*
X0183672Y0284597D01*
X0184416Y0286395D01*
X0184416Y0288341D01*
X0183672Y0290138D01*
X0182296Y0291514D01*
X0180498Y0292259D01*
X0178552Y0292259D01*
X0176755Y0291514D01*
X0175379Y0290138D01*
X0174634Y0288341D01*
X0174634Y0286395D01*
X0175182Y0285072D02*
X0170467Y0285072D01*
X0170799Y0284273D02*
X0175703Y0284273D01*
X0176502Y0283474D02*
X0171130Y0283474D01*
X0171213Y0282676D02*
X0173405Y0282676D01*
X0172687Y0282379D02*
X0171311Y0281003D01*
X0170567Y0279205D01*
X0170567Y0277259D01*
X0171311Y0275462D01*
X0172687Y0274086D01*
X0174485Y0273341D01*
X0176431Y0273341D01*
X0178228Y0274086D01*
X0179604Y0275462D01*
X0180349Y0277259D01*
X0180349Y0279205D01*
X0179604Y0281003D01*
X0178228Y0282379D01*
X0176431Y0283123D01*
X0174485Y0283123D01*
X0172687Y0282379D01*
X0172186Y0281877D02*
X0171213Y0281877D01*
X0171111Y0281079D02*
X0171388Y0281079D01*
X0171012Y0280280D02*
X0170780Y0280280D01*
X0170682Y0279482D02*
X0170422Y0279482D01*
X0170567Y0278683D02*
X0169623Y0278683D01*
X0170567Y0277885D02*
X0168445Y0277885D01*
X0171300Y0275489D02*
X0157313Y0275489D01*
X0158112Y0274691D02*
X0172082Y0274691D01*
X0173155Y0273892D02*
X0158291Y0273892D01*
X0158291Y0273094D02*
X0179743Y0273094D01*
X0179702Y0273892D02*
X0177761Y0273892D01*
X0178833Y0274691D02*
X0179702Y0274691D01*
X0179616Y0275489D02*
X0179848Y0275489D01*
X0179946Y0276288D02*
X0180179Y0276288D01*
X0180277Y0277086D02*
X0180598Y0277086D01*
X0180349Y0277885D02*
X0181396Y0277885D01*
X0180349Y0278683D02*
X0182721Y0278683D01*
X0184514Y0280530D02*
X0185890Y0279154D01*
X0187688Y0278409D01*
X0189634Y0278409D01*
X0191431Y0279154D01*
X0192807Y0280530D01*
X0193552Y0282327D01*
X0193552Y0284273D01*
X0199014Y0284273D01*
X0197204Y0285072D02*
X0193221Y0285072D01*
X0192890Y0285870D02*
X0195394Y0285870D01*
X0193584Y0286669D02*
X0192209Y0286669D01*
X0192807Y0286071D02*
X0191431Y0287447D01*
X0189634Y0288191D01*
X0187688Y0288191D01*
X0185890Y0287447D01*
X0184514Y0286071D01*
X0183770Y0284273D01*
X0183347Y0284273D01*
X0183770Y0284273D02*
X0183770Y0282327D01*
X0184514Y0280530D01*
X0184764Y0280280D02*
X0179903Y0280280D01*
X0180234Y0279482D02*
X0185562Y0279482D01*
X0186465Y0278683D02*
X0187026Y0278683D01*
X0187790Y0277885D02*
X0213497Y0277885D01*
X0215307Y0277086D02*
X0188589Y0277086D01*
X0189008Y0276288D02*
X0217117Y0276288D01*
X0218928Y0275489D02*
X0189339Y0275489D01*
X0189484Y0274691D02*
X0220738Y0274691D01*
X0222548Y0273892D02*
X0189484Y0273892D01*
X0189444Y0273094D02*
X0224359Y0273094D01*
X0226169Y0272295D02*
X0189113Y0272295D01*
X0188782Y0271497D02*
X0227979Y0271497D01*
X0229789Y0270698D02*
X0188044Y0270698D01*
X0187077Y0269900D02*
X0231600Y0269900D01*
X0233410Y0269101D02*
X0227716Y0269101D01*
X0228991Y0268303D02*
X0235220Y0268303D01*
X0237031Y0267504D02*
X0229790Y0267504D01*
X0230189Y0266706D02*
X0238448Y0266706D01*
X0239118Y0266319D02*
X0239118Y0266319D01*
X0252662Y0266319D02*
X0252662Y0266319D01*
X0253331Y0266706D02*
X0287457Y0266706D01*
X0286997Y0267504D02*
X0254713Y0267504D01*
X0255163Y0267765D02*
X0255163Y0267765D01*
X0256094Y0268303D02*
X0286536Y0268303D01*
X0286075Y0269101D02*
X0257476Y0269101D01*
X0258857Y0269900D02*
X0285614Y0269900D01*
X0285153Y0270698D02*
X0260238Y0270698D01*
X0261620Y0271497D02*
X0284693Y0271497D01*
X0284232Y0272295D02*
X0263001Y0272295D01*
X0264383Y0273094D02*
X0283771Y0273094D01*
X0283310Y0273892D02*
X0265764Y0273892D01*
X0267145Y0274691D02*
X0282849Y0274691D01*
X0282388Y0275489D02*
X0268527Y0275489D01*
X0269908Y0276288D02*
X0281928Y0276288D01*
X0281467Y0277086D02*
X0271289Y0277086D01*
X0272671Y0277885D02*
X0281006Y0277885D01*
X0280545Y0278683D02*
X0274052Y0278683D01*
X0275434Y0279482D02*
X0280084Y0279482D01*
X0279623Y0280280D02*
X0276815Y0280280D01*
X0278196Y0281079D02*
X0279163Y0281079D01*
X0273770Y0237959D02*
X0257243Y0237959D01*
X0258042Y0237161D02*
X0273363Y0237161D01*
X0272957Y0236362D02*
X0258091Y0236362D01*
X0258091Y0235564D02*
X0272570Y0235564D01*
X0272579Y0235621D02*
X0272579Y0235621D01*
X0272191Y0233168D02*
X0153786Y0233168D01*
X0154584Y0232370D02*
X0272064Y0232370D01*
X0271938Y0231571D02*
X0155383Y0231571D01*
X0156181Y0230773D02*
X0271861Y0230773D01*
X0271988Y0229974D02*
X0156980Y0229974D01*
X0157779Y0229176D02*
X0272114Y0229176D01*
X0272241Y0228377D02*
X0157891Y0228377D01*
X0157891Y0227579D02*
X0272367Y0227579D01*
X0272494Y0226780D02*
X0157891Y0226780D01*
X0157891Y0225982D02*
X0272711Y0225982D01*
X0272579Y0226240D02*
X0272579Y0226240D01*
X0273118Y0225183D02*
X0157891Y0225183D01*
X0157891Y0224385D02*
X0273524Y0224385D01*
X0273931Y0223586D02*
X0175817Y0223586D01*
X0175603Y0223800D02*
X0173780Y0223800D01*
X0172492Y0222511D01*
X0172492Y0220689D01*
X0173780Y0219400D01*
X0175603Y0219400D01*
X0176891Y0220689D01*
X0176891Y0222511D01*
X0175603Y0223800D01*
X0176615Y0222788D02*
X0261368Y0222788D01*
X0260569Y0221989D02*
X0176891Y0221989D01*
X0176891Y0221191D02*
X0260492Y0221191D01*
X0260492Y0220392D02*
X0186611Y0220392D01*
X0186003Y0221000D02*
X0184180Y0221000D01*
X0182892Y0219711D01*
X0182892Y0217889D01*
X0184180Y0216600D01*
X0186003Y0216600D01*
X0187291Y0217889D01*
X0187291Y0219711D01*
X0186003Y0221000D01*
X0187291Y0219594D02*
X0260987Y0219594D01*
X0264891Y0220392D02*
X0264972Y0220392D01*
X0264891Y0221191D02*
X0275553Y0221191D01*
X0274754Y0221989D02*
X0264814Y0221989D01*
X0264015Y0222788D02*
X0274338Y0222788D01*
X0274735Y0222008D02*
X0274735Y0222008D01*
X0276351Y0220392D02*
X0266811Y0220392D01*
X0267609Y0219594D02*
X0277150Y0219594D01*
X0277948Y0218795D02*
X0268091Y0218795D01*
X0268091Y0217997D02*
X0279376Y0217997D01*
X0280943Y0217198D02*
X0268001Y0217198D01*
X0267202Y0216400D02*
X0282921Y0216400D01*
X0287016Y0215751D02*
X0287016Y0215751D01*
X0265291Y0201711D02*
X0265291Y0199889D01*
X0264003Y0198600D01*
X0262180Y0198600D01*
X0260892Y0199889D01*
X0260892Y0201711D01*
X0262180Y0203000D01*
X0264003Y0203000D01*
X0265291Y0201711D01*
X0264976Y0202026D02*
X0324784Y0202026D01*
X0325245Y0201228D02*
X0265291Y0201228D01*
X0265291Y0200429D02*
X0325706Y0200429D01*
X0326166Y0199631D02*
X0265034Y0199631D01*
X0264235Y0198832D02*
X0326627Y0198832D01*
X0325666Y0198034D02*
X0216637Y0198034D01*
X0217435Y0198832D02*
X0261948Y0198832D01*
X0261149Y0199631D02*
X0240634Y0199631D01*
X0240403Y0199400D02*
X0241691Y0200689D01*
X0241691Y0202511D01*
X0240403Y0203800D01*
X0238580Y0203800D01*
X0237292Y0202511D01*
X0237292Y0200689D01*
X0238580Y0199400D01*
X0240403Y0199400D01*
X0241432Y0200429D02*
X0260892Y0200429D01*
X0260892Y0201228D02*
X0248231Y0201228D01*
X0248203Y0201200D02*
X0249491Y0202489D01*
X0249491Y0204311D01*
X0248203Y0205600D01*
X0246380Y0205600D01*
X0245092Y0204311D01*
X0245092Y0202489D01*
X0246380Y0201200D01*
X0248203Y0201200D01*
X0249029Y0202026D02*
X0261207Y0202026D01*
X0262005Y0202825D02*
X0249491Y0202825D01*
X0249491Y0203623D02*
X0323862Y0203623D01*
X0324323Y0202825D02*
X0264178Y0202825D01*
X0267980Y0192600D02*
X0266692Y0191311D01*
X0266692Y0189489D01*
X0267980Y0188200D01*
X0269803Y0188200D01*
X0271091Y0189489D01*
X0271091Y0191311D01*
X0269803Y0192600D01*
X0267980Y0192600D01*
X0267824Y0192444D02*
X0252087Y0192444D01*
X0252165Y0191646D02*
X0267026Y0191646D01*
X0266692Y0190847D02*
X0252120Y0190847D01*
X0251789Y0190049D02*
X0254440Y0190049D01*
X0254487Y0190068D02*
X0253286Y0189571D01*
X0252367Y0188652D01*
X0251870Y0187451D01*
X0251870Y0186152D01*
X0252367Y0184951D01*
X0253286Y0184032D01*
X0254487Y0183534D01*
X0255787Y0183534D01*
X0256987Y0184032D01*
X0257906Y0184951D01*
X0258404Y0186152D01*
X0258404Y0187451D01*
X0257906Y0188652D01*
X0256987Y0189571D01*
X0255787Y0190068D01*
X0254487Y0190068D01*
X0255834Y0190049D02*
X0266692Y0190049D01*
X0266930Y0189250D02*
X0257308Y0189250D01*
X0257989Y0188452D02*
X0267729Y0188452D01*
X0270054Y0188452D02*
X0309045Y0188452D01*
X0307660Y0187653D02*
X0258320Y0187653D01*
X0258404Y0186855D02*
X0306275Y0186855D01*
X0304890Y0186056D02*
X0258364Y0186056D01*
X0258033Y0185258D02*
X0260710Y0185258D01*
X0262041Y0185258D02*
X0303505Y0185258D01*
X0302120Y0184459D02*
X0263533Y0184459D01*
X0264222Y0183661D02*
X0300740Y0183661D01*
X0299807Y0182862D02*
X0264553Y0182862D01*
X0264642Y0182064D02*
X0298969Y0182064D01*
X0298131Y0181265D02*
X0264608Y0181265D01*
X0264277Y0180467D02*
X0297294Y0180467D01*
X0310431Y0189250D02*
X0270853Y0189250D01*
X0271091Y0190049D02*
X0311816Y0190049D01*
X0313201Y0190847D02*
X0271091Y0190847D01*
X0270757Y0191646D02*
X0314586Y0191646D01*
X0315971Y0192444D02*
X0269959Y0192444D01*
X0259217Y0184459D02*
X0257415Y0184459D01*
X0258528Y0183661D02*
X0256091Y0183661D01*
X0254182Y0183661D02*
X0221063Y0183661D01*
X0221862Y0184459D02*
X0252859Y0184459D01*
X0252240Y0185258D02*
X0222091Y0185258D01*
X0222091Y0186056D02*
X0251909Y0186056D01*
X0251870Y0186855D02*
X0221748Y0186855D01*
X0221056Y0187653D02*
X0251954Y0187653D01*
X0252284Y0188452D02*
X0249821Y0188452D01*
X0251163Y0189250D02*
X0252966Y0189250D01*
X0251756Y0193243D02*
X0317356Y0193243D01*
X0318741Y0194041D02*
X0251083Y0194041D01*
X0246714Y0194041D02*
X0220562Y0194041D01*
X0221360Y0193243D02*
X0246040Y0193243D01*
X0245710Y0192444D02*
X0221491Y0192444D01*
X0221491Y0191646D02*
X0245631Y0191646D01*
X0245676Y0190847D02*
X0221050Y0190847D01*
X0221354Y0190049D02*
X0246007Y0190049D01*
X0246634Y0189250D02*
X0221491Y0189250D01*
X0221491Y0188452D02*
X0247976Y0188452D01*
X0238349Y0199631D02*
X0217491Y0199631D01*
X0217491Y0200429D02*
X0223351Y0200429D01*
X0223980Y0199800D02*
X0222692Y0201089D01*
X0222692Y0202911D01*
X0223980Y0204200D01*
X0225803Y0204200D01*
X0226791Y0203211D01*
X0227980Y0204400D01*
X0229803Y0204400D01*
X0231091Y0203111D01*
X0231091Y0201289D01*
X0229803Y0200000D01*
X0227980Y0200000D01*
X0226991Y0200989D01*
X0225803Y0199800D01*
X0223980Y0199800D01*
X0222692Y0201228D02*
X0216975Y0201228D01*
X0214691Y0202026D02*
X0222692Y0202026D01*
X0222692Y0202825D02*
X0213978Y0202825D01*
X0211005Y0202825D02*
X0132291Y0202825D01*
X0132291Y0202026D02*
X0210292Y0202026D01*
X0210292Y0201228D02*
X0131631Y0201228D01*
X0133426Y0203623D02*
X0223404Y0203623D01*
X0226379Y0203623D02*
X0227204Y0203623D01*
X0227551Y0200429D02*
X0226432Y0200429D01*
X0230232Y0200429D02*
X0237551Y0200429D01*
X0237292Y0201228D02*
X0235431Y0201228D01*
X0235003Y0200800D02*
X0236291Y0202089D01*
X0236291Y0203911D01*
X0235003Y0205200D01*
X0233180Y0205200D01*
X0231892Y0203911D01*
X0231892Y0202089D01*
X0233180Y0200800D01*
X0235003Y0200800D01*
X0236229Y0202026D02*
X0237292Y0202026D01*
X0237605Y0202825D02*
X0236291Y0202825D01*
X0236291Y0203623D02*
X0238404Y0203623D01*
X0240579Y0203623D02*
X0245092Y0203623D01*
X0245092Y0202825D02*
X0241378Y0202825D01*
X0241691Y0202026D02*
X0245554Y0202026D01*
X0246352Y0201228D02*
X0241691Y0201228D01*
X0245202Y0204422D02*
X0235781Y0204422D01*
X0232402Y0204422D02*
X0134225Y0204422D01*
X0134491Y0205220D02*
X0246001Y0205220D01*
X0248582Y0205220D02*
X0322941Y0205220D01*
X0323402Y0204422D02*
X0249381Y0204422D01*
X0232752Y0201228D02*
X0231031Y0201228D01*
X0231091Y0202026D02*
X0231954Y0202026D01*
X0231892Y0202825D02*
X0231091Y0202825D01*
X0230579Y0203623D02*
X0231892Y0203623D01*
X0240092Y0236362D02*
X0191165Y0236362D01*
X0191964Y0237161D02*
X0240092Y0237161D01*
X0240092Y0237959D02*
X0192091Y0237959D01*
X0192091Y0238758D02*
X0220422Y0238758D01*
X0222961Y0238758D02*
X0240738Y0238758D01*
X0243845Y0238758D02*
X0244738Y0238758D01*
X0211687Y0278683D02*
X0190295Y0278683D01*
X0191759Y0279482D02*
X0209876Y0279482D01*
X0208066Y0280280D02*
X0192558Y0280280D01*
X0193034Y0281079D02*
X0206256Y0281079D01*
X0204445Y0281877D02*
X0193365Y0281877D01*
X0193552Y0282676D02*
X0202635Y0282676D01*
X0200825Y0283474D02*
X0193552Y0283474D01*
X0193552Y0284273D02*
X0192807Y0286071D01*
X0191773Y0287467D02*
X0191382Y0287467D01*
X0189963Y0288266D02*
X0184416Y0288266D01*
X0184416Y0287467D02*
X0185939Y0287467D01*
X0185112Y0286669D02*
X0184416Y0286669D01*
X0184431Y0285870D02*
X0184199Y0285870D01*
X0184100Y0285072D02*
X0183868Y0285072D01*
X0183770Y0283474D02*
X0182549Y0283474D01*
X0183770Y0282676D02*
X0180979Y0282676D01*
X0179528Y0281079D02*
X0184287Y0281079D01*
X0183956Y0281877D02*
X0178729Y0281877D01*
X0178071Y0282676D02*
X0177510Y0282676D01*
X0174634Y0288266D02*
X0142570Y0288266D01*
X0144336Y0289064D02*
X0174934Y0289064D01*
X0175265Y0289863D02*
X0146103Y0289863D01*
X0147869Y0290661D02*
X0158719Y0290661D01*
X0158980Y0290400D02*
X0160803Y0290400D01*
X0162091Y0291689D01*
X0162091Y0293511D01*
X0160803Y0294800D01*
X0158980Y0294800D01*
X0157692Y0293511D01*
X0157692Y0291689D01*
X0158980Y0290400D01*
X0157921Y0291460D02*
X0149635Y0291460D01*
X0151402Y0292258D02*
X0157692Y0292258D01*
X0157692Y0293057D02*
X0153168Y0293057D01*
X0154935Y0293855D02*
X0158035Y0293855D01*
X0158834Y0294654D02*
X0156701Y0294654D01*
X0158467Y0295452D02*
X0173670Y0295452D01*
X0171860Y0296251D02*
X0160234Y0296251D01*
X0160949Y0294654D02*
X0175481Y0294654D01*
X0177291Y0293855D02*
X0161748Y0293855D01*
X0162091Y0293057D02*
X0179101Y0293057D01*
X0178551Y0292258D02*
X0162091Y0292258D01*
X0161862Y0291460D02*
X0176700Y0291460D01*
X0175902Y0290661D02*
X0161064Y0290661D01*
X0162000Y0297049D02*
X0170050Y0297049D01*
X0168240Y0297848D02*
X0163767Y0297848D01*
X0165533Y0298646D02*
X0166429Y0298646D01*
X0180499Y0292258D02*
X0180912Y0292258D01*
X0182350Y0291460D02*
X0182722Y0291460D01*
X0183149Y0290661D02*
X0184532Y0290661D01*
X0183786Y0289863D02*
X0186342Y0289863D01*
X0188153Y0289064D02*
X0184116Y0289064D01*
X0180074Y0272295D02*
X0157898Y0272295D01*
X0157100Y0271497D02*
X0180404Y0271497D01*
X0167086Y0266706D02*
X0158091Y0266706D01*
X0157910Y0265907D02*
X0166287Y0265907D01*
X0154083Y0268303D02*
X0115100Y0268303D01*
X0115891Y0267504D02*
X0153692Y0267504D01*
X0143703Y0281877D02*
X0128439Y0281877D01*
X0130205Y0282676D02*
X0142904Y0282676D01*
X0142892Y0283474D02*
X0131971Y0283474D01*
X0133738Y0284273D02*
X0142892Y0284273D01*
X0144692Y0233000D02*
X0105492Y0232800D01*
X0094892Y0232800D01*
X0068491Y0207616D02*
X0131196Y0207616D01*
X0130398Y0206817D02*
X0068491Y0206817D01*
X0068491Y0206019D02*
X0130092Y0206019D01*
X0130092Y0205220D02*
X0067823Y0205220D01*
X0064760Y0205220D02*
X0056891Y0205220D01*
X0056891Y0204489D02*
X0055603Y0203200D01*
X0053780Y0203200D01*
X0052492Y0204489D01*
X0052492Y0206311D01*
X0053780Y0207600D01*
X0055603Y0207600D01*
X0056891Y0206311D01*
X0056891Y0204489D01*
X0056825Y0204422D02*
X0128602Y0204422D01*
X0127892Y0203623D02*
X0056026Y0203623D01*
X0056891Y0206019D02*
X0064092Y0206019D01*
X0064092Y0206817D02*
X0056385Y0206817D01*
X0052998Y0206817D02*
X0009918Y0206817D01*
X0009457Y0206019D02*
X0052492Y0206019D01*
X0052492Y0205220D02*
X0008997Y0205220D01*
X0008536Y0204422D02*
X0052558Y0204422D01*
X0053357Y0203623D02*
X0008075Y0203623D01*
X0007614Y0202825D02*
X0127892Y0202825D01*
X0127892Y0202026D02*
X0007153Y0202026D01*
X0006693Y0201228D02*
X0128552Y0201228D01*
X0128010Y0200429D02*
X0072373Y0200429D01*
X0072203Y0200600D02*
X0070380Y0200600D01*
X0069092Y0199311D01*
X0069092Y0197489D01*
X0070380Y0196200D01*
X0072203Y0196200D01*
X0073491Y0197489D01*
X0073491Y0199311D01*
X0072203Y0200600D01*
X0073172Y0199631D02*
X0127692Y0199631D01*
X0127692Y0198832D02*
X0082919Y0198832D01*
X0082577Y0199174D02*
X0080754Y0199174D01*
X0079466Y0197885D01*
X0079466Y0196063D01*
X0080754Y0194774D01*
X0082577Y0194774D01*
X0083866Y0196063D01*
X0083866Y0197885D01*
X0082577Y0199174D01*
X0083717Y0198034D02*
X0127946Y0198034D01*
X0128745Y0197235D02*
X0083866Y0197235D01*
X0083866Y0196437D02*
X0124817Y0196437D01*
X0124018Y0195638D02*
X0083441Y0195638D01*
X0082643Y0194840D02*
X0123692Y0194840D01*
X0123692Y0194041D02*
X0013027Y0194041D01*
X0014386Y0193243D02*
X0123938Y0193243D01*
X0122224Y0192444D02*
X0082559Y0192444D01*
X0082103Y0192900D02*
X0083391Y0191611D01*
X0083391Y0189789D01*
X0082103Y0188500D01*
X0080280Y0188500D01*
X0078992Y0189789D01*
X0078992Y0191611D01*
X0080280Y0192900D01*
X0082103Y0192900D01*
X0083357Y0191646D02*
X0121492Y0191646D01*
X0121492Y0190847D02*
X0083391Y0190847D01*
X0083391Y0190049D02*
X0121492Y0190049D01*
X0122130Y0189250D02*
X0082853Y0189250D01*
X0079530Y0189250D02*
X0021184Y0189250D01*
X0019825Y0190049D02*
X0078992Y0190049D01*
X0078992Y0190847D02*
X0018465Y0190847D01*
X0017106Y0191646D02*
X0079026Y0191646D01*
X0079824Y0192444D02*
X0015746Y0192444D01*
X0011667Y0194840D02*
X0080689Y0194840D01*
X0079890Y0195638D02*
X0010308Y0195638D01*
X0008948Y0196437D02*
X0058543Y0196437D01*
X0058780Y0196200D02*
X0060603Y0196200D01*
X0061891Y0197489D01*
X0061891Y0199311D01*
X0060603Y0200600D01*
X0058780Y0200600D01*
X0057492Y0199311D01*
X0057492Y0197489D01*
X0058780Y0196200D01*
X0057745Y0197235D02*
X0007589Y0197235D01*
X0006229Y0198034D02*
X0057492Y0198034D01*
X0057492Y0198832D02*
X0005310Y0198832D01*
X0005771Y0199631D02*
X0057811Y0199631D01*
X0058610Y0200429D02*
X0006232Y0200429D01*
X0010379Y0207616D02*
X0064092Y0207616D01*
X0064795Y0208414D02*
X0010840Y0208414D01*
X0022544Y0188452D02*
X0130789Y0188452D01*
X0130789Y0189250D02*
X0125253Y0189250D01*
X0125891Y0190049D02*
X0130789Y0190049D01*
X0130789Y0190847D02*
X0130250Y0190847D01*
X0127533Y0190847D02*
X0125891Y0190847D01*
X0125891Y0191646D02*
X0126735Y0191646D01*
X0128091Y0194840D02*
X0130789Y0194840D01*
X0130789Y0195638D02*
X0127765Y0195638D01*
X0126966Y0196437D02*
X0130789Y0196437D01*
X0130789Y0194041D02*
X0130562Y0194041D01*
X0130789Y0187653D02*
X0023903Y0187653D01*
X0025263Y0186855D02*
X0130789Y0186855D01*
X0130789Y0186056D02*
X0026623Y0186056D01*
X0027982Y0185258D02*
X0078631Y0185258D01*
X0078175Y0185069D02*
X0077423Y0184316D01*
X0077015Y0183332D01*
X0077015Y0182268D01*
X0077423Y0181284D01*
X0078175Y0180531D01*
X0079159Y0180124D01*
X0080224Y0180124D01*
X0081208Y0180531D01*
X0081960Y0181284D01*
X0082368Y0182268D01*
X0082368Y0183332D01*
X0081960Y0184316D01*
X0081208Y0185069D01*
X0080224Y0185476D01*
X0079159Y0185476D01*
X0078175Y0185069D01*
X0077566Y0184459D02*
X0029342Y0184459D01*
X0030701Y0183661D02*
X0077151Y0183661D01*
X0077015Y0182862D02*
X0031810Y0182862D01*
X0031403Y0183248D02*
X0031403Y0183248D01*
X0032650Y0182064D02*
X0054370Y0182064D01*
X0054575Y0182269D02*
X0053823Y0181516D01*
X0053415Y0180532D01*
X0053415Y0179468D01*
X0053823Y0178484D01*
X0054575Y0177731D01*
X0055559Y0177324D01*
X0056624Y0177324D01*
X0057608Y0177731D01*
X0058360Y0178484D01*
X0058768Y0179468D01*
X0058768Y0180532D01*
X0058360Y0181516D01*
X0057608Y0182269D01*
X0056624Y0182676D01*
X0055559Y0182676D01*
X0054575Y0182269D01*
X0053719Y0181265D02*
X0033490Y0181265D01*
X0034330Y0180467D02*
X0053415Y0180467D01*
X0053415Y0179668D02*
X0034975Y0179668D01*
X0034648Y0180164D02*
X0034648Y0180164D01*
X0035500Y0178870D02*
X0053663Y0178870D01*
X0054236Y0178071D02*
X0036025Y0178071D01*
X0036550Y0177272D02*
X0130789Y0177272D01*
X0130789Y0176474D02*
X0037076Y0176474D01*
X0037109Y0176424D02*
X0037109Y0176424D01*
X0037384Y0175675D02*
X0130789Y0175675D01*
X0130789Y0174877D02*
X0037678Y0174877D01*
X0037972Y0174078D02*
X0130789Y0174078D01*
X0130789Y0173280D02*
X0038267Y0173280D01*
X0038561Y0172481D02*
X0130789Y0172481D01*
X0130789Y0171683D02*
X0038723Y0171683D01*
X0038656Y0172223D02*
X0038656Y0172223D01*
X0039319Y0166093D02*
X0225274Y0166093D01*
X0225092Y0165295D02*
X0039398Y0165295D01*
X0039477Y0164496D02*
X0225092Y0164496D01*
X0225482Y0163698D02*
X0039556Y0163698D01*
X0039635Y0162899D02*
X0226281Y0162899D01*
X0226072Y0166892D02*
X0100495Y0166892D01*
X0114231Y0159705D02*
X0170692Y0159705D01*
X0170692Y0160504D02*
X0039872Y0160504D01*
X0039793Y0161302D02*
X0171083Y0161302D01*
X0171881Y0162101D02*
X0039714Y0162101D01*
X0057947Y0178071D02*
X0130789Y0178071D01*
X0130789Y0178870D02*
X0058520Y0178870D01*
X0058768Y0179668D02*
X0130789Y0179668D01*
X0130789Y0180467D02*
X0081052Y0180467D01*
X0081942Y0181265D02*
X0130789Y0181265D01*
X0130789Y0182064D02*
X0082283Y0182064D01*
X0082368Y0182862D02*
X0130789Y0182862D01*
X0130789Y0183661D02*
X0082232Y0183661D01*
X0081817Y0184459D02*
X0130789Y0184459D01*
X0130789Y0185258D02*
X0080752Y0185258D01*
X0077100Y0182064D02*
X0057813Y0182064D01*
X0058464Y0181265D02*
X0077441Y0181265D01*
X0078331Y0180467D02*
X0058768Y0180467D01*
X0060840Y0196437D02*
X0070143Y0196437D01*
X0069345Y0197235D02*
X0061638Y0197235D01*
X0061891Y0198034D02*
X0069092Y0198034D01*
X0069092Y0198832D02*
X0061891Y0198832D01*
X0061572Y0199631D02*
X0069411Y0199631D01*
X0070210Y0200429D02*
X0060773Y0200429D01*
X0072440Y0196437D02*
X0079466Y0196437D01*
X0079466Y0197235D02*
X0073238Y0197235D01*
X0073491Y0198034D02*
X0079614Y0198034D01*
X0080413Y0198832D02*
X0073491Y0198832D01*
X0056400Y0221191D02*
X0132692Y0221191D01*
X0133369Y0221989D02*
X0057199Y0221989D01*
X0057615Y0222788D02*
X0136168Y0222788D01*
X0136966Y0223586D02*
X0058022Y0223586D01*
X0058429Y0224385D02*
X0154692Y0224385D01*
X0154692Y0225183D02*
X0135786Y0225183D01*
X0135403Y0224800D02*
X0136691Y0226089D01*
X0136691Y0227911D01*
X0135403Y0229200D01*
X0133580Y0229200D01*
X0132292Y0227911D01*
X0132292Y0226089D01*
X0133580Y0224800D01*
X0135403Y0224800D01*
X0136584Y0225982D02*
X0154692Y0225982D01*
X0154692Y0226780D02*
X0136691Y0226780D01*
X0136691Y0227579D02*
X0154692Y0227579D01*
X0154052Y0228377D02*
X0136226Y0228377D01*
X0135427Y0229176D02*
X0153253Y0229176D01*
X0152455Y0229974D02*
X0129291Y0229974D01*
X0129291Y0229176D02*
X0133556Y0229176D01*
X0132757Y0228377D02*
X0128780Y0228377D01*
X0129230Y0230773D02*
X0144656Y0230773D01*
X0145492Y0232200D02*
X0144692Y0233000D01*
X0145492Y0232200D02*
X0152492Y0232200D01*
X0156292Y0228400D01*
X0156292Y0222000D01*
X0158491Y0221989D02*
X0172492Y0221989D01*
X0172492Y0221191D02*
X0158491Y0221191D01*
X0157795Y0220392D02*
X0172788Y0220392D01*
X0173587Y0219594D02*
X0169809Y0219594D01*
X0169403Y0220000D02*
X0167580Y0220000D01*
X0166292Y0218711D01*
X0166292Y0216889D01*
X0167580Y0215600D01*
X0169403Y0215600D01*
X0170691Y0216889D01*
X0170691Y0218711D01*
X0169403Y0220000D01*
X0170608Y0218795D02*
X0178092Y0218795D01*
X0178092Y0217997D02*
X0170691Y0217997D01*
X0170691Y0217198D02*
X0178782Y0217198D01*
X0179380Y0216600D02*
X0181203Y0216600D01*
X0182491Y0217889D01*
X0182491Y0219711D01*
X0181203Y0221000D01*
X0179380Y0221000D01*
X0178092Y0219711D01*
X0178092Y0217889D01*
X0179380Y0216600D01*
X0181801Y0217198D02*
X0183582Y0217198D01*
X0182892Y0217997D02*
X0182491Y0217997D01*
X0182491Y0218795D02*
X0182892Y0218795D01*
X0182892Y0219594D02*
X0182491Y0219594D01*
X0181811Y0220392D02*
X0183572Y0220392D01*
X0187291Y0218795D02*
X0188975Y0218795D01*
X0188177Y0217997D02*
X0187291Y0217997D01*
X0187692Y0217198D02*
X0186601Y0217198D01*
X0187692Y0216400D02*
X0170202Y0216400D01*
X0169404Y0215601D02*
X0187779Y0215601D01*
X0178772Y0220392D02*
X0176595Y0220392D01*
X0175796Y0219594D02*
X0178092Y0219594D01*
X0173566Y0223586D02*
X0157891Y0223586D01*
X0158491Y0222788D02*
X0172768Y0222788D01*
X0167174Y0219594D02*
X0139196Y0219594D01*
X0139995Y0220392D02*
X0154788Y0220392D01*
X0154092Y0221191D02*
X0140291Y0221191D01*
X0140291Y0221989D02*
X0154092Y0221989D01*
X0154092Y0222788D02*
X0140015Y0222788D01*
X0139217Y0223586D02*
X0154692Y0223586D01*
X0144691Y0217198D02*
X0166292Y0217198D01*
X0166292Y0217997D02*
X0144206Y0217997D01*
X0143408Y0218795D02*
X0166375Y0218795D01*
X0166781Y0216400D02*
X0144691Y0216400D01*
X0144604Y0215601D02*
X0167579Y0215601D01*
X0160592Y0210011D02*
X0156991Y0210011D01*
X0156603Y0210400D02*
X0154780Y0210400D01*
X0153492Y0209111D01*
X0153492Y0207289D01*
X0154780Y0206000D01*
X0156603Y0206000D01*
X0157891Y0207289D01*
X0157891Y0209111D01*
X0156603Y0210400D01*
X0157790Y0209213D02*
X0159793Y0209213D01*
X0159492Y0208414D02*
X0157891Y0208414D01*
X0157891Y0207616D02*
X0159492Y0207616D01*
X0159763Y0206817D02*
X0157420Y0206817D01*
X0156622Y0206019D02*
X0160561Y0206019D01*
X0154761Y0206019D02*
X0136022Y0206019D01*
X0136820Y0206817D02*
X0153963Y0206817D01*
X0153492Y0207616D02*
X0137091Y0207616D01*
X0137091Y0208414D02*
X0153492Y0208414D01*
X0153593Y0209213D02*
X0136790Y0209213D01*
X0135991Y0210011D02*
X0154392Y0210011D01*
X0139573Y0212407D02*
X0128796Y0212407D01*
X0127007Y0214004D02*
X0139492Y0214004D01*
X0139492Y0213205D02*
X0126208Y0213205D01*
X0127091Y0214803D02*
X0139983Y0214803D01*
X0140379Y0215601D02*
X0127091Y0215601D01*
X0126603Y0216400D02*
X0140292Y0216400D01*
X0140292Y0217198D02*
X0125805Y0217198D01*
X0129891Y0210011D02*
X0133792Y0210011D01*
X0132993Y0209213D02*
X0129616Y0209213D01*
X0128817Y0208414D02*
X0132692Y0208414D01*
X0133197Y0225183D02*
X0058835Y0225183D01*
X0059242Y0225982D02*
X0132399Y0225982D01*
X0132292Y0226780D02*
X0059460Y0226780D01*
X0059374Y0226240D02*
X0059374Y0226240D01*
X0059586Y0227579D02*
X0132292Y0227579D01*
X0116817Y0159281D02*
X0116817Y0159281D01*
X0117757Y0158907D02*
X0170873Y0158907D01*
X0171672Y0158108D02*
X0119761Y0158108D01*
X0130956Y0150922D02*
X0160702Y0150922D01*
X0160092Y0150123D02*
X0131712Y0150123D01*
X0132469Y0149325D02*
X0160092Y0149325D01*
X0160092Y0148526D02*
X0133225Y0148526D01*
X0133981Y0147728D02*
X0160853Y0147728D01*
X0162892Y0146929D02*
X0134543Y0146929D01*
X0135024Y0146131D02*
X0162892Y0146131D01*
X0163048Y0145332D02*
X0135504Y0145332D01*
X0135985Y0144534D02*
X0163847Y0144534D01*
X0163515Y0143735D02*
X0136465Y0143735D01*
X0136945Y0142937D02*
X0162717Y0142937D01*
X0162692Y0142138D02*
X0137426Y0142138D01*
X0137872Y0141397D02*
X0137872Y0141397D01*
X0137891Y0141339D02*
X0162692Y0141339D01*
X0163239Y0140541D02*
X0138160Y0140541D01*
X0187483Y0115588D02*
X0187483Y0115588D01*
X0195274Y0119780D02*
X0214693Y0119780D01*
X0215100Y0118981D02*
X0195854Y0118981D01*
X0196434Y0118183D02*
X0215742Y0118183D01*
X0216541Y0117384D02*
X0197015Y0117384D01*
X0197595Y0116586D02*
X0217339Y0116586D01*
X0218138Y0115787D02*
X0198175Y0115787D01*
X0198755Y0114989D02*
X0219239Y0114989D01*
X0218621Y0115304D02*
X0218621Y0115304D01*
X0220806Y0114190D02*
X0199335Y0114190D01*
X0199915Y0113392D02*
X0222374Y0113392D01*
X0222853Y0113147D02*
X0222853Y0113147D01*
X0226353Y0112593D02*
X0200495Y0112593D01*
X0201076Y0111795D02*
X0252892Y0111795D01*
X0252892Y0112593D02*
X0228734Y0112593D01*
X0232713Y0113392D02*
X0252892Y0113392D01*
X0253584Y0110996D02*
X0201656Y0110996D01*
X0220380Y0080800D02*
X0219092Y0079511D01*
X0219092Y0077689D01*
X0220380Y0076400D01*
X0222203Y0076400D01*
X0223491Y0077689D01*
X0223491Y0079511D01*
X0222203Y0080800D01*
X0220380Y0080800D01*
X0220233Y0080653D02*
X0062635Y0080653D01*
X0063748Y0079854D02*
X0219434Y0079854D01*
X0219092Y0079056D02*
X0064861Y0079056D01*
X0065974Y0078257D02*
X0175837Y0078257D01*
X0178346Y0078257D02*
X0219092Y0078257D01*
X0219322Y0077459D02*
X0181344Y0077459D01*
X0182143Y0076660D02*
X0220120Y0076660D01*
X0222463Y0076660D02*
X0263736Y0076660D01*
X0262623Y0075862D02*
X0182291Y0075862D01*
X0182291Y0075063D02*
X0261510Y0075063D01*
X0260397Y0074265D02*
X0181938Y0074265D01*
X0182737Y0073466D02*
X0259283Y0073466D01*
X0258170Y0072668D02*
X0182891Y0072668D01*
X0182891Y0071869D02*
X0257057Y0071869D01*
X0255944Y0071070D02*
X0182473Y0071070D01*
X0165977Y0036465D02*
X0165977Y0036465D01*
X0213781Y0004794D02*
X0118156Y0004794D01*
X0118156Y0003996D02*
X0213781Y0003996D01*
X0213781Y0003197D02*
X0118156Y0003197D01*
X0139052Y0082250D02*
X0271529Y0082250D01*
X0270416Y0081451D02*
X0061521Y0081451D01*
X0058182Y0083847D02*
X0069534Y0083847D01*
X0068735Y0084645D02*
X0057068Y0084645D01*
X0055955Y0085444D02*
X0068292Y0085444D01*
X0068292Y0086242D02*
X0054842Y0086242D01*
X0053728Y0087041D02*
X0068421Y0087041D01*
X0069219Y0087839D02*
X0052615Y0087839D01*
X0046502Y0093429D02*
X0071551Y0093429D01*
X0070753Y0094227D02*
X0046423Y0094227D01*
X0046344Y0095026D02*
X0070692Y0095026D01*
X0070692Y0095824D02*
X0046265Y0095824D01*
X0222350Y0080653D02*
X0269303Y0080653D01*
X0268190Y0079854D02*
X0223149Y0079854D01*
X0223491Y0079056D02*
X0267076Y0079056D01*
X0265963Y0078257D02*
X0223491Y0078257D01*
X0223261Y0077459D02*
X0264850Y0077459D01*
X0227543Y0142764D02*
X0227543Y0142764D01*
D16*
X0235692Y0144600D03*
X0242292Y0134200D03*
X0243092Y0118600D03*
X0255092Y0112600D03*
X0222892Y0095800D03*
X0221292Y0078600D03*
X0222892Y0069200D03*
X0187292Y0101800D03*
X0165092Y0091200D03*
X0160692Y0090000D03*
X0153492Y0085200D03*
X0159892Y0075800D03*
X0177092Y0076400D03*
X0180092Y0075600D03*
X0180692Y0072400D03*
X0147092Y0107400D03*
X0137492Y0083800D03*
X0136292Y0076000D03*
X0072892Y0095200D03*
X0070492Y0086000D03*
X0046692Y0137400D03*
X0099092Y0168600D03*
X0081192Y0190700D03*
X0081666Y0196974D03*
X0071292Y0198400D03*
X0063092Y0195200D03*
X0059692Y0198400D03*
X0054692Y0205400D03*
X0066292Y0206800D03*
X0068292Y0210800D03*
X0078492Y0218400D03*
X0080292Y0231000D03*
X0069892Y0236000D03*
X0092892Y0231000D03*
X0102092Y0225600D03*
X0099292Y0205400D03*
X0124892Y0215000D03*
X0127692Y0210400D03*
X0132292Y0205600D03*
X0134892Y0208000D03*
X0130092Y0202800D03*
X0129892Y0199200D03*
X0125892Y0194400D03*
X0128892Y0192600D03*
X0123692Y0190800D03*
X0141692Y0213400D03*
X0142492Y0216600D03*
X0140852Y0219491D03*
X0138092Y0221600D03*
X0136492Y0224400D03*
X0134492Y0227000D03*
X0134892Y0220400D03*
X0127092Y0229800D03*
X0134692Y0237600D03*
X0136292Y0250800D03*
X0136692Y0254600D03*
X0140892Y0254800D03*
X0143492Y0256800D03*
X0141892Y0263200D03*
X0137092Y0262800D03*
X0135692Y0260000D03*
X0135292Y0267400D03*
X0127292Y0263600D03*
X0128492Y0258600D03*
X0126292Y0255400D03*
X0123692Y0257600D03*
X0117692Y0265200D03*
X0113692Y0266600D03*
X0118692Y0275400D03*
X0145092Y0283600D03*
X0146092Y0277000D03*
X0156092Y0273600D03*
X0155892Y0267000D03*
X0148892Y0262200D03*
X0165492Y0261600D03*
X0168292Y0264800D03*
X0173692Y0252600D03*
X0177292Y0249600D03*
X0189892Y0244400D03*
X0189892Y0238200D03*
X0190892Y0255000D03*
X0190292Y0258400D03*
X0191292Y0262200D03*
X0188492Y0263600D03*
X0184692Y0263000D03*
X0159892Y0292600D03*
X0132092Y0250800D03*
X0147692Y0234600D03*
X0156292Y0222000D03*
X0168492Y0217800D03*
X0174692Y0221600D03*
X0180292Y0218800D03*
X0185092Y0218800D03*
X0189892Y0216600D03*
X0212492Y0201200D03*
X0215292Y0199800D03*
X0219292Y0192200D03*
X0219292Y0189000D03*
X0219892Y0185600D03*
X0224892Y0202000D03*
X0228892Y0202200D03*
X0234092Y0203000D03*
X0239492Y0201600D03*
X0247292Y0203400D03*
X0242492Y0215800D03*
X0242092Y0220400D03*
X0246292Y0219000D03*
X0249692Y0217200D03*
X0251692Y0221000D03*
X0251892Y0224800D03*
X0246092Y0225000D03*
X0242292Y0225000D03*
X0234692Y0225000D03*
X0234692Y0220600D03*
X0234692Y0215800D03*
X0229816Y0215876D03*
X0223492Y0209000D03*
X0222292Y0231000D03*
X0221692Y0240600D03*
X0216892Y0241200D03*
X0242292Y0237200D03*
X0246292Y0237200D03*
X0249292Y0236400D03*
X0255892Y0236200D03*
X0262692Y0221000D03*
X0265892Y0218200D03*
X0265892Y0213800D03*
X0262692Y0207200D03*
X0263092Y0200800D03*
X0268892Y0190400D03*
X0299492Y0195400D03*
X0312892Y0207400D03*
X0279292Y0155400D03*
X0278092Y0152800D03*
X0277092Y0149600D03*
X0271692Y0146800D03*
X0232092Y0159800D03*
X0227292Y0165000D03*
X0224892Y0159200D03*
X0207092Y0160400D03*
X0189092Y0142000D03*
X0186492Y0144800D03*
X0172892Y0160000D03*
X0183492Y0163800D03*
X0165092Y0146400D03*
X0162292Y0149400D03*
X0164892Y0142000D03*
X0138492Y0159800D03*
X0130092Y0153400D03*
X0155692Y0208200D03*
X0161692Y0208000D03*
D17*
X0079692Y0182800D03*
X0078292Y0175800D03*
X0056092Y0180000D03*
X0056092Y0157200D03*
X0248692Y0134800D03*
M02*
