%
M48
M72
T01C0.01200
T02C0.01969
T03C0.02756
T04C0.04921
%
T01
X70492Y86000
X72892Y95200
X46692Y137400
X99092Y168600
X81192Y190700
X81666Y196974
X71292Y198400
X63092Y195200
X59692Y198400
X54692Y205400
X66292Y206800
X68292Y210800
X78492Y218400
X80292Y231000
X69892Y236000
X92892Y231000
X102092Y225600
X99292Y205400
X124892Y215000
X127692Y210400
X132292Y205600
X134892Y208000
X130092Y202800
X129892Y199200
X125892Y194400
X128892Y192600
X123692Y190800
X141692Y213400
X142492Y216600
X140852Y219491
X138092Y221600
X136492Y224400
X134492Y227000
X134892Y220400
X127092Y229800
X134692Y237600
X136292Y250800
X136692Y254600
X140892Y254800
X143492Y256800
X141892Y263200
X137092Y262800
X135692Y260000
X135292Y267400
X127292Y263600
X128492Y258600
X126292Y255400
X123692Y257600
X117692Y265200
X113692Y266600
X118692Y275400
X145092Y283600
X146092Y277000
X156092Y273600
X155892Y267000
X148892Y262200
X165492Y261600
X168292Y264800
X173692Y252600
X177292Y249600
X189892Y244400
X189892Y238200
X190892Y255000
X190292Y258400
X191292Y262200
X188492Y263600
X184692Y263000
X159892Y292600
X132092Y250800
X147692Y234600
X156292Y222000
X168492Y217800
X174692Y221600
X180292Y218800
X185092Y218800
X189892Y216600
X212492Y201200
X215292Y199800
X219292Y192200
X219292Y189000
X219892Y185600
X224892Y202000
X228892Y202200
X234092Y203000
X239492Y201600
X247292Y203400
X242492Y215800
X242092Y220400
X246292Y219000
X249692Y217200
X251692Y221000
X251892Y224800
X246092Y225000
X242292Y225000
X234692Y225000
X234692Y220600
X234692Y215800
X229816Y215876
X223492Y209000
X222292Y231000
X221692Y240600
X216892Y241200
X242292Y237200
X246292Y237200
X249292Y236400
X255892Y236200
X262692Y221000
X265892Y218200
X265892Y213800
X262692Y207200
X263092Y200800
X268892Y190400
X299492Y195400
X312892Y207400
X279292Y155400
X278092Y152800
X277092Y149600
X271692Y146800
X242292Y134200
X235692Y144600
X232092Y159800
X227292Y165000
X224892Y159200
X207092Y160400
X189092Y142000
X186492Y144800
X172892Y160000
X183492Y163800
X165092Y146400
X162292Y149400
X164892Y142000
X138492Y159800
X130092Y153400
X147092Y107400
X160692Y90000
X165092Y91200
X153492Y85200
X159892Y75800
X177092Y76400
X180092Y75600
X180692Y72400
X187292Y101800
X222892Y95800
X221292Y78600
X222892Y69200
X255092Y112600
X243092Y118600
X161692Y208000
X155692Y208200
X137492Y83800
X136292Y76000
T02
X56092Y157200
X56092Y180000
X78292Y175800
X79692Y182800
X248692Y134800
T03
X267614Y177193
X261375Y181997
X255137Y186801
X248898Y191606
T04
X253274Y252368
X244139Y256435
X234895Y260550
X225760Y264618
X216624Y268685
X207453Y272768
X188661Y283300
X184593Y274165
X175458Y278232
X179525Y287368
X170390Y291435
X166322Y282300
M30
