G75*
%MOIN*%
%OFA0B0*%
%FSLAX25Y25*%
%IPPOS*%
%LPD*%
%AMOC8*
5,1,8,0,0,1.08239X$1,22.5*
%
%ADD10C,0.00000*%
%ADD11C,0.00000*%
%ADD12C,0.00300*%
%ADD13C,0.00200*%
%ADD14C,0.00394*%
%ADD15C,0.00500*%
%ADD16C,0.00400*%
%ADD17R,0.00950X0.00050*%
%ADD18R,0.01050X0.00050*%
%ADD19R,0.02000X0.00050*%
%ADD20R,0.01900X0.00050*%
%ADD21R,0.02550X0.00050*%
%ADD22R,0.02500X0.00050*%
%ADD23R,0.02950X0.00050*%
%ADD24R,0.02900X0.00050*%
%ADD25R,0.03100X0.00050*%
%ADD26R,0.03300X0.00050*%
%ADD27R,0.03250X0.00050*%
%ADD28R,0.03200X0.00050*%
%ADD29R,0.03600X0.00050*%
%ADD30R,0.03500X0.00050*%
%ADD31R,0.03850X0.00050*%
%ADD32R,0.03750X0.00050*%
%ADD33R,0.04050X0.00050*%
%ADD34R,0.03950X0.00050*%
%ADD35R,0.04200X0.00050*%
%ADD36R,0.04400X0.00050*%
%ADD37R,0.04350X0.00050*%
%ADD38R,0.04550X0.00050*%
%ADD39R,0.04700X0.00050*%
%ADD40R,0.04850X0.00050*%
%ADD41R,0.05000X0.00050*%
%ADD42R,0.04950X0.00050*%
%ADD43R,0.03150X0.00050*%
%ADD44R,0.05100X0.00050*%
%ADD45R,0.05200X0.00050*%
%ADD46R,0.05300X0.00050*%
%ADD47R,0.05400X0.00050*%
%ADD48R,0.05450X0.00050*%
%ADD49R,0.05550X0.00050*%
%ADD50R,0.05600X0.00050*%
%ADD51R,0.05700X0.00050*%
%ADD52R,0.05750X0.00050*%
%ADD53R,0.05850X0.00050*%
%ADD54R,0.05900X0.00050*%
%ADD55R,0.03050X0.00050*%
%ADD56R,0.06000X0.00050*%
%ADD57R,0.06050X0.00050*%
%ADD58R,0.06100X0.00050*%
%ADD59R,0.06150X0.00050*%
%ADD60R,0.06200X0.00050*%
%ADD61R,0.06250X0.00050*%
%ADD62R,0.06300X0.00050*%
%ADD63R,0.06350X0.00050*%
%ADD64R,0.06400X0.00050*%
%ADD65R,0.06450X0.00050*%
%ADD66R,0.06500X0.00050*%
%ADD67R,0.06550X0.00050*%
%ADD68R,0.06650X0.00050*%
%ADD69R,0.06600X0.00050*%
%ADD70R,0.06700X0.00050*%
%ADD71R,0.02850X0.00050*%
%ADD72R,0.06750X0.00050*%
%ADD73R,0.02800X0.00050*%
%ADD74R,0.06800X0.00050*%
%ADD75R,0.02750X0.00050*%
%ADD76R,0.02700X0.00050*%
%ADD77R,0.03000X0.00050*%
%ADD78R,0.02650X0.00050*%
%ADD79R,0.03350X0.00050*%
%ADD80R,0.07350X0.00050*%
%ADD81R,0.05950X0.00050*%
%ADD82R,0.05800X0.00050*%
%ADD83R,0.05250X0.00050*%
%ADD84R,0.05500X0.00050*%
%ADD85R,0.07300X0.00050*%
%ADD86R,0.06900X0.00050*%
%ADD87R,0.05350X0.00050*%
%ADD88R,0.06950X0.00050*%
%ADD89R,0.07000X0.00050*%
%ADD90R,0.07050X0.00050*%
%ADD91R,0.07150X0.00050*%
%ADD92R,0.07250X0.00050*%
%ADD93R,0.07200X0.00050*%
%ADD94R,0.05650X0.00050*%
%ADD95R,0.07400X0.00050*%
%ADD96R,0.07450X0.00050*%
%ADD97R,0.07500X0.00050*%
%ADD98R,0.07550X0.00050*%
%ADD99R,0.03450X0.00050*%
%ADD100R,0.07600X0.00050*%
%ADD101R,0.07650X0.00050*%
%ADD102R,0.07700X0.00050*%
%ADD103R,0.04150X0.00050*%
%ADD104R,0.02600X0.00050*%
%ADD105R,0.07750X0.00050*%
%ADD106R,0.00200X0.00050*%
%ADD107R,0.07800X0.00050*%
%ADD108R,0.07850X0.00050*%
%ADD109R,0.07900X0.00050*%
%ADD110R,0.07950X0.00050*%
%ADD111R,0.03650X0.00050*%
%ADD112R,0.03400X0.00050*%
%ADD113R,0.02450X0.00050*%
%ADD114R,0.02400X0.00050*%
%ADD115R,0.02350X0.00050*%
%ADD116R,0.02300X0.00050*%
%ADD117R,0.02250X0.00050*%
%ADD118R,0.02200X0.00050*%
%ADD119R,0.02150X0.00050*%
%ADD120R,0.01100X0.00050*%
%ADD121R,0.00800X0.00050*%
%ADD122R,0.02100X0.00050*%
%ADD123R,0.00850X0.00050*%
%ADD124R,0.01000X0.00050*%
%ADD125R,0.05050X0.00050*%
%ADD126R,0.00900X0.00050*%
%ADD127R,0.01950X0.00050*%
%ADD128R,0.04900X0.00050*%
%ADD129R,0.04800X0.00050*%
%ADD130R,0.04650X0.00050*%
%ADD131R,0.01800X0.00050*%
%ADD132R,0.04450X0.00050*%
%ADD133R,0.01750X0.00050*%
%ADD134R,0.01700X0.00050*%
%ADD135R,0.01650X0.00050*%
%ADD136R,0.01550X0.00050*%
%ADD137R,0.04500X0.00050*%
%ADD138R,0.01500X0.00050*%
%ADD139R,0.01400X0.00050*%
%ADD140R,0.01300X0.00050*%
%ADD141R,0.01150X0.00050*%
%ADD142R,0.03700X0.00050*%
%ADD143R,0.00700X0.00050*%
%ADD144R,0.01200X0.00050*%
%ADD145R,0.01250X0.00050*%
%ADD146R,0.01350X0.00050*%
%ADD147R,0.01450X0.00050*%
%ADD148R,0.00750X0.00050*%
%ADD149R,0.07100X0.00050*%
%ADD150R,0.06850X0.00050*%
%ADD151R,0.01600X0.00050*%
%ADD152R,0.05150X0.00050*%
%ADD153C,0.01181*%
%ADD154C,0.01575*%
%ADD155C,0.00984*%
D10*
X0116756Y0031009D02*
X0116751Y0031440D01*
X0116735Y0031872D01*
X0116708Y0032302D01*
X0116671Y0032732D01*
X0116624Y0033161D01*
X0116566Y0033588D01*
X0116498Y0034014D01*
X0116420Y0034438D01*
X0116331Y0034860D01*
X0116232Y0035280D01*
X0116123Y0035697D01*
X0116004Y0036112D01*
X0115875Y0036523D01*
X0115736Y0036932D01*
X0115586Y0037336D01*
X0115428Y0037737D01*
X0115259Y0038134D01*
X0115081Y0038527D01*
X0114893Y0038915D01*
X0114696Y0039299D01*
X0114490Y0039678D01*
X0114274Y0040052D01*
X0114050Y0040420D01*
X0113816Y0040783D01*
X0113574Y0041140D01*
X0113323Y0041491D01*
X0113064Y0041835D01*
X0112797Y0042174D01*
X0112521Y0042505D01*
X0112237Y0042830D01*
X0111946Y0043148D01*
X0111647Y0043459D01*
X0111340Y0043762D01*
X0111026Y0044058D01*
X0110705Y0044347D01*
X0110377Y0044627D01*
X0110043Y0044899D01*
X0109702Y0045163D01*
X0109354Y0045419D01*
X0109355Y0045419D02*
X0045299Y0091364D01*
X0037543Y0169828D01*
X0028764Y0183175D02*
X0003292Y0198135D01*
X0052504Y0283411D01*
X0077977Y0268687D01*
X0094118Y0267899D02*
X0165969Y0300380D01*
X0237819Y0268687D01*
X0238162Y0268494D01*
X0238509Y0268310D01*
X0238861Y0268134D01*
X0239217Y0267967D01*
X0239577Y0267809D01*
X0239940Y0267660D01*
X0240307Y0267519D01*
X0240678Y0267387D01*
X0241051Y0267265D01*
X0241428Y0267152D01*
X0241807Y0267047D01*
X0242188Y0266953D01*
X0242572Y0266867D01*
X0242958Y0266791D01*
X0243345Y0266724D01*
X0243734Y0266667D01*
X0244124Y0266619D01*
X0244516Y0266581D01*
X0244908Y0266552D01*
X0245300Y0266533D01*
X0245693Y0266523D01*
X0246087Y0266523D01*
X0246480Y0266533D01*
X0246872Y0266552D01*
X0247264Y0266581D01*
X0247656Y0266619D01*
X0248046Y0266667D01*
X0248435Y0266724D01*
X0248822Y0266791D01*
X0249208Y0266867D01*
X0249592Y0266953D01*
X0249973Y0267047D01*
X0250352Y0267152D01*
X0250729Y0267265D01*
X0251102Y0267387D01*
X0251473Y0267519D01*
X0251840Y0267660D01*
X0252203Y0267809D01*
X0252563Y0267967D01*
X0252919Y0268134D01*
X0253271Y0268310D01*
X0253618Y0268494D01*
X0253961Y0268687D01*
X0279433Y0283411D01*
X0328646Y0198135D01*
X0303173Y0183450D01*
X0294394Y0169828D02*
X0286638Y0091364D01*
X0222583Y0045419D01*
X0215181Y0031009D02*
X0215181Y0001600D01*
X0116756Y0001600D01*
X0116756Y0031009D01*
X0215181Y0031009D02*
X0215186Y0031440D01*
X0215202Y0031871D01*
X0215228Y0032302D01*
X0215265Y0032732D01*
X0215312Y0033161D01*
X0215370Y0033588D01*
X0215438Y0034014D01*
X0215516Y0034438D01*
X0215604Y0034860D01*
X0215703Y0035280D01*
X0215812Y0035698D01*
X0215931Y0036112D01*
X0216061Y0036524D01*
X0216200Y0036932D01*
X0216349Y0037337D01*
X0216508Y0037738D01*
X0216676Y0038135D01*
X0216855Y0038528D01*
X0217042Y0038916D01*
X0217239Y0039300D01*
X0217446Y0039679D01*
X0217661Y0040052D01*
X0217886Y0040421D01*
X0218119Y0040783D01*
X0218361Y0041140D01*
X0218612Y0041491D01*
X0218872Y0041836D01*
X0219139Y0042174D01*
X0219415Y0042506D01*
X0219699Y0042831D01*
X0219990Y0043149D01*
X0220289Y0043460D01*
X0220596Y0043763D01*
X0220910Y0044059D01*
X0221231Y0044347D01*
X0221559Y0044627D01*
X0221894Y0044899D01*
X0222235Y0045163D01*
X0222583Y0045418D01*
X0294394Y0169828D02*
X0294442Y0170257D01*
X0294500Y0170685D01*
X0294568Y0171111D01*
X0294647Y0171535D01*
X0294736Y0171957D01*
X0294835Y0172377D01*
X0294945Y0172795D01*
X0295064Y0173209D01*
X0295194Y0173621D01*
X0295334Y0174029D01*
X0295483Y0174434D01*
X0295642Y0174835D01*
X0295811Y0175232D01*
X0295990Y0175625D01*
X0296178Y0176013D01*
X0296376Y0176397D01*
X0296582Y0176776D01*
X0296798Y0177149D01*
X0297023Y0177517D01*
X0297257Y0177880D01*
X0297499Y0178237D01*
X0297750Y0178588D01*
X0298010Y0178933D01*
X0298278Y0179271D01*
X0298554Y0179603D01*
X0298838Y0179928D01*
X0299130Y0180245D01*
X0299429Y0180556D01*
X0299736Y0180859D01*
X0300050Y0181155D01*
X0300371Y0181443D01*
X0300700Y0181723D01*
X0301035Y0181996D01*
X0301376Y0182259D01*
X0301724Y0182515D01*
X0302078Y0182762D01*
X0302437Y0183000D01*
X0302803Y0183230D01*
X0303174Y0183450D01*
X0094118Y0267899D02*
X0093724Y0267726D01*
X0093326Y0267564D01*
X0092924Y0267410D01*
X0092518Y0267267D01*
X0092109Y0267134D01*
X0091697Y0267010D01*
X0091282Y0266897D01*
X0090864Y0266793D01*
X0090444Y0266700D01*
X0090022Y0266617D01*
X0089598Y0266545D01*
X0089172Y0266482D01*
X0088745Y0266430D01*
X0088317Y0266389D01*
X0087888Y0266357D01*
X0087458Y0266337D01*
X0087028Y0266326D01*
X0086597Y0266326D01*
X0086167Y0266337D01*
X0085737Y0266358D01*
X0085308Y0266389D01*
X0084880Y0266431D01*
X0084453Y0266483D01*
X0084027Y0266546D01*
X0083603Y0266619D01*
X0083181Y0266702D01*
X0082761Y0266795D01*
X0082344Y0266898D01*
X0081929Y0267012D01*
X0081516Y0267136D01*
X0081107Y0267269D01*
X0080702Y0267413D01*
X0080300Y0267566D01*
X0079902Y0267729D01*
X0079507Y0267902D01*
X0079118Y0268084D01*
X0078732Y0268275D01*
X0078352Y0268476D01*
X0077976Y0268686D01*
X0028764Y0183174D02*
X0029137Y0182949D01*
X0029504Y0182715D01*
X0029865Y0182473D01*
X0030221Y0182221D01*
X0030570Y0181961D01*
X0030913Y0181693D01*
X0031250Y0181417D01*
X0031580Y0181132D01*
X0031902Y0180840D01*
X0032218Y0180540D01*
X0032526Y0180233D01*
X0032827Y0179918D01*
X0033120Y0179596D01*
X0033406Y0179267D01*
X0033683Y0178931D01*
X0033952Y0178589D01*
X0034213Y0178240D01*
X0034465Y0177885D01*
X0034709Y0177524D01*
X0034944Y0177158D01*
X0035170Y0176785D01*
X0035387Y0176408D01*
X0035594Y0176025D01*
X0035793Y0175638D01*
X0035982Y0175245D01*
X0036162Y0174849D01*
X0036332Y0174448D01*
X0036492Y0174043D01*
X0036642Y0173634D01*
X0036783Y0173222D01*
X0036914Y0172807D01*
X0037034Y0172388D01*
X0037145Y0171967D01*
X0037245Y0171543D01*
X0037335Y0171117D01*
X0037415Y0170689D01*
X0037484Y0170259D01*
X0037543Y0169828D01*
D11*
X0031157Y0230931D02*
X0031161Y0231269D01*
X0031174Y0231607D01*
X0031194Y0231945D01*
X0031223Y0232282D01*
X0031261Y0232618D01*
X0031306Y0232953D01*
X0031360Y0233287D01*
X0031422Y0233619D01*
X0031492Y0233950D01*
X0031570Y0234279D01*
X0031656Y0234606D01*
X0031750Y0234931D01*
X0031853Y0235254D01*
X0031963Y0235573D01*
X0032080Y0235890D01*
X0032206Y0236204D01*
X0032339Y0236515D01*
X0032480Y0236823D01*
X0032628Y0237127D01*
X0032784Y0237427D01*
X0032947Y0237723D01*
X0033117Y0238015D01*
X0033295Y0238303D01*
X0033479Y0238587D01*
X0033671Y0238866D01*
X0033869Y0239140D01*
X0034074Y0239409D01*
X0034285Y0239673D01*
X0034503Y0239932D01*
X0034727Y0240185D01*
X0034957Y0240433D01*
X0035193Y0240675D01*
X0035435Y0240911D01*
X0035683Y0241141D01*
X0035936Y0241365D01*
X0036195Y0241583D01*
X0036459Y0241794D01*
X0036728Y0241999D01*
X0037002Y0242197D01*
X0037281Y0242389D01*
X0037565Y0242573D01*
X0037853Y0242751D01*
X0038145Y0242921D01*
X0038441Y0243084D01*
X0038741Y0243240D01*
X0039045Y0243388D01*
X0039353Y0243529D01*
X0039664Y0243662D01*
X0039978Y0243788D01*
X0040295Y0243905D01*
X0040614Y0244015D01*
X0040937Y0244118D01*
X0041262Y0244212D01*
X0041589Y0244298D01*
X0041918Y0244376D01*
X0042249Y0244446D01*
X0042581Y0244508D01*
X0042915Y0244562D01*
X0043250Y0244607D01*
X0043586Y0244645D01*
X0043923Y0244674D01*
X0044261Y0244694D01*
X0044599Y0244707D01*
X0044937Y0244711D01*
X0045275Y0244707D01*
X0045613Y0244694D01*
X0045951Y0244674D01*
X0046288Y0244645D01*
X0046624Y0244607D01*
X0046959Y0244562D01*
X0047293Y0244508D01*
X0047625Y0244446D01*
X0047956Y0244376D01*
X0048285Y0244298D01*
X0048612Y0244212D01*
X0048937Y0244118D01*
X0049260Y0244015D01*
X0049579Y0243905D01*
X0049896Y0243788D01*
X0050210Y0243662D01*
X0050521Y0243529D01*
X0050829Y0243388D01*
X0051133Y0243240D01*
X0051433Y0243084D01*
X0051729Y0242921D01*
X0052021Y0242751D01*
X0052309Y0242573D01*
X0052593Y0242389D01*
X0052872Y0242197D01*
X0053146Y0241999D01*
X0053415Y0241794D01*
X0053679Y0241583D01*
X0053938Y0241365D01*
X0054191Y0241141D01*
X0054439Y0240911D01*
X0054681Y0240675D01*
X0054917Y0240433D01*
X0055147Y0240185D01*
X0055371Y0239932D01*
X0055589Y0239673D01*
X0055800Y0239409D01*
X0056005Y0239140D01*
X0056203Y0238866D01*
X0056395Y0238587D01*
X0056579Y0238303D01*
X0056757Y0238015D01*
X0056927Y0237723D01*
X0057090Y0237427D01*
X0057246Y0237127D01*
X0057394Y0236823D01*
X0057535Y0236515D01*
X0057668Y0236204D01*
X0057794Y0235890D01*
X0057911Y0235573D01*
X0058021Y0235254D01*
X0058124Y0234931D01*
X0058218Y0234606D01*
X0058304Y0234279D01*
X0058382Y0233950D01*
X0058452Y0233619D01*
X0058514Y0233287D01*
X0058568Y0232953D01*
X0058613Y0232618D01*
X0058651Y0232282D01*
X0058680Y0231945D01*
X0058700Y0231607D01*
X0058713Y0231269D01*
X0058717Y0230931D01*
X0058713Y0230593D01*
X0058700Y0230255D01*
X0058680Y0229917D01*
X0058651Y0229580D01*
X0058613Y0229244D01*
X0058568Y0228909D01*
X0058514Y0228575D01*
X0058452Y0228243D01*
X0058382Y0227912D01*
X0058304Y0227583D01*
X0058218Y0227256D01*
X0058124Y0226931D01*
X0058021Y0226608D01*
X0057911Y0226289D01*
X0057794Y0225972D01*
X0057668Y0225658D01*
X0057535Y0225347D01*
X0057394Y0225039D01*
X0057246Y0224735D01*
X0057090Y0224435D01*
X0056927Y0224139D01*
X0056757Y0223847D01*
X0056579Y0223559D01*
X0056395Y0223275D01*
X0056203Y0222996D01*
X0056005Y0222722D01*
X0055800Y0222453D01*
X0055589Y0222189D01*
X0055371Y0221930D01*
X0055147Y0221677D01*
X0054917Y0221429D01*
X0054681Y0221187D01*
X0054439Y0220951D01*
X0054191Y0220721D01*
X0053938Y0220497D01*
X0053679Y0220279D01*
X0053415Y0220068D01*
X0053146Y0219863D01*
X0052872Y0219665D01*
X0052593Y0219473D01*
X0052309Y0219289D01*
X0052021Y0219111D01*
X0051729Y0218941D01*
X0051433Y0218778D01*
X0051133Y0218622D01*
X0050829Y0218474D01*
X0050521Y0218333D01*
X0050210Y0218200D01*
X0049896Y0218074D01*
X0049579Y0217957D01*
X0049260Y0217847D01*
X0048937Y0217744D01*
X0048612Y0217650D01*
X0048285Y0217564D01*
X0047956Y0217486D01*
X0047625Y0217416D01*
X0047293Y0217354D01*
X0046959Y0217300D01*
X0046624Y0217255D01*
X0046288Y0217217D01*
X0045951Y0217188D01*
X0045613Y0217168D01*
X0045275Y0217155D01*
X0044937Y0217151D01*
X0044599Y0217155D01*
X0044261Y0217168D01*
X0043923Y0217188D01*
X0043586Y0217217D01*
X0043250Y0217255D01*
X0042915Y0217300D01*
X0042581Y0217354D01*
X0042249Y0217416D01*
X0041918Y0217486D01*
X0041589Y0217564D01*
X0041262Y0217650D01*
X0040937Y0217744D01*
X0040614Y0217847D01*
X0040295Y0217957D01*
X0039978Y0218074D01*
X0039664Y0218200D01*
X0039353Y0218333D01*
X0039045Y0218474D01*
X0038741Y0218622D01*
X0038441Y0218778D01*
X0038145Y0218941D01*
X0037853Y0219111D01*
X0037565Y0219289D01*
X0037281Y0219473D01*
X0037002Y0219665D01*
X0036728Y0219863D01*
X0036459Y0220068D01*
X0036195Y0220279D01*
X0035936Y0220497D01*
X0035683Y0220721D01*
X0035435Y0220951D01*
X0035193Y0221187D01*
X0034957Y0221429D01*
X0034727Y0221677D01*
X0034503Y0221930D01*
X0034285Y0222189D01*
X0034074Y0222453D01*
X0033869Y0222722D01*
X0033671Y0222996D01*
X0033479Y0223275D01*
X0033295Y0223559D01*
X0033117Y0223847D01*
X0032947Y0224139D01*
X0032784Y0224435D01*
X0032628Y0224735D01*
X0032480Y0225039D01*
X0032339Y0225347D01*
X0032206Y0225658D01*
X0032080Y0225972D01*
X0031963Y0226289D01*
X0031853Y0226608D01*
X0031750Y0226931D01*
X0031656Y0227256D01*
X0031570Y0227583D01*
X0031492Y0227912D01*
X0031422Y0228243D01*
X0031360Y0228575D01*
X0031306Y0228909D01*
X0031261Y0229244D01*
X0031223Y0229580D01*
X0031194Y0229917D01*
X0031174Y0230255D01*
X0031161Y0230593D01*
X0031157Y0230931D01*
X0132189Y0199395D02*
X0132189Y0169238D01*
X0183370Y0169238D01*
X0183370Y0199395D01*
X0132189Y0199395D01*
X0076520Y0127584D02*
X0076529Y0128357D01*
X0076558Y0129129D01*
X0076605Y0129901D01*
X0076672Y0130671D01*
X0076757Y0131439D01*
X0076861Y0132205D01*
X0076984Y0132969D01*
X0077125Y0133729D01*
X0077285Y0134485D01*
X0077464Y0135237D01*
X0077661Y0135984D01*
X0077876Y0136727D01*
X0078110Y0137464D01*
X0078361Y0138195D01*
X0078630Y0138919D01*
X0078917Y0139637D01*
X0079222Y0140347D01*
X0079544Y0141050D01*
X0079883Y0141745D01*
X0080239Y0142431D01*
X0080612Y0143108D01*
X0081001Y0143776D01*
X0081406Y0144434D01*
X0081828Y0145082D01*
X0082265Y0145720D01*
X0082718Y0146346D01*
X0083186Y0146961D01*
X0083669Y0147565D01*
X0084167Y0148156D01*
X0084679Y0148735D01*
X0085205Y0149302D01*
X0085745Y0149855D01*
X0086298Y0150395D01*
X0086865Y0150921D01*
X0087444Y0151433D01*
X0088035Y0151931D01*
X0088639Y0152414D01*
X0089254Y0152882D01*
X0089880Y0153335D01*
X0090518Y0153772D01*
X0091166Y0154194D01*
X0091824Y0154599D01*
X0092492Y0154988D01*
X0093169Y0155361D01*
X0093855Y0155717D01*
X0094550Y0156056D01*
X0095253Y0156378D01*
X0095963Y0156683D01*
X0096681Y0156970D01*
X0097405Y0157239D01*
X0098136Y0157490D01*
X0098873Y0157724D01*
X0099616Y0157939D01*
X0100363Y0158136D01*
X0101115Y0158315D01*
X0101871Y0158475D01*
X0102631Y0158616D01*
X0103395Y0158739D01*
X0104161Y0158843D01*
X0104929Y0158928D01*
X0105699Y0158995D01*
X0106471Y0159042D01*
X0107243Y0159071D01*
X0108016Y0159080D01*
X0108789Y0159071D01*
X0109561Y0159042D01*
X0110333Y0158995D01*
X0111103Y0158928D01*
X0111871Y0158843D01*
X0112637Y0158739D01*
X0113401Y0158616D01*
X0114161Y0158475D01*
X0114917Y0158315D01*
X0115669Y0158136D01*
X0116416Y0157939D01*
X0117159Y0157724D01*
X0117896Y0157490D01*
X0118627Y0157239D01*
X0119351Y0156970D01*
X0120069Y0156683D01*
X0120779Y0156378D01*
X0121482Y0156056D01*
X0122177Y0155717D01*
X0122863Y0155361D01*
X0123540Y0154988D01*
X0124208Y0154599D01*
X0124866Y0154194D01*
X0125514Y0153772D01*
X0126152Y0153335D01*
X0126778Y0152882D01*
X0127393Y0152414D01*
X0127997Y0151931D01*
X0128588Y0151433D01*
X0129167Y0150921D01*
X0129734Y0150395D01*
X0130287Y0149855D01*
X0130827Y0149302D01*
X0131353Y0148735D01*
X0131865Y0148156D01*
X0132363Y0147565D01*
X0132846Y0146961D01*
X0133314Y0146346D01*
X0133767Y0145720D01*
X0134204Y0145082D01*
X0134626Y0144434D01*
X0135031Y0143776D01*
X0135420Y0143108D01*
X0135793Y0142431D01*
X0136149Y0141745D01*
X0136488Y0141050D01*
X0136810Y0140347D01*
X0137115Y0139637D01*
X0137402Y0138919D01*
X0137671Y0138195D01*
X0137922Y0137464D01*
X0138156Y0136727D01*
X0138371Y0135984D01*
X0138568Y0135237D01*
X0138747Y0134485D01*
X0138907Y0133729D01*
X0139048Y0132969D01*
X0139171Y0132205D01*
X0139275Y0131439D01*
X0139360Y0130671D01*
X0139427Y0129901D01*
X0139474Y0129129D01*
X0139503Y0128357D01*
X0139512Y0127584D01*
X0139503Y0126811D01*
X0139474Y0126039D01*
X0139427Y0125267D01*
X0139360Y0124497D01*
X0139275Y0123729D01*
X0139171Y0122963D01*
X0139048Y0122199D01*
X0138907Y0121439D01*
X0138747Y0120683D01*
X0138568Y0119931D01*
X0138371Y0119184D01*
X0138156Y0118441D01*
X0137922Y0117704D01*
X0137671Y0116973D01*
X0137402Y0116249D01*
X0137115Y0115531D01*
X0136810Y0114821D01*
X0136488Y0114118D01*
X0136149Y0113423D01*
X0135793Y0112737D01*
X0135420Y0112060D01*
X0135031Y0111392D01*
X0134626Y0110734D01*
X0134204Y0110086D01*
X0133767Y0109448D01*
X0133314Y0108822D01*
X0132846Y0108207D01*
X0132363Y0107603D01*
X0131865Y0107012D01*
X0131353Y0106433D01*
X0130827Y0105866D01*
X0130287Y0105313D01*
X0129734Y0104773D01*
X0129167Y0104247D01*
X0128588Y0103735D01*
X0127997Y0103237D01*
X0127393Y0102754D01*
X0126778Y0102286D01*
X0126152Y0101833D01*
X0125514Y0101396D01*
X0124866Y0100974D01*
X0124208Y0100569D01*
X0123540Y0100180D01*
X0122863Y0099807D01*
X0122177Y0099451D01*
X0121482Y0099112D01*
X0120779Y0098790D01*
X0120069Y0098485D01*
X0119351Y0098198D01*
X0118627Y0097929D01*
X0117896Y0097678D01*
X0117159Y0097444D01*
X0116416Y0097229D01*
X0115669Y0097032D01*
X0114917Y0096853D01*
X0114161Y0096693D01*
X0113401Y0096552D01*
X0112637Y0096429D01*
X0111871Y0096325D01*
X0111103Y0096240D01*
X0110333Y0096173D01*
X0109561Y0096126D01*
X0108789Y0096097D01*
X0108016Y0096088D01*
X0107243Y0096097D01*
X0106471Y0096126D01*
X0105699Y0096173D01*
X0104929Y0096240D01*
X0104161Y0096325D01*
X0103395Y0096429D01*
X0102631Y0096552D01*
X0101871Y0096693D01*
X0101115Y0096853D01*
X0100363Y0097032D01*
X0099616Y0097229D01*
X0098873Y0097444D01*
X0098136Y0097678D01*
X0097405Y0097929D01*
X0096681Y0098198D01*
X0095963Y0098485D01*
X0095253Y0098790D01*
X0094550Y0099112D01*
X0093855Y0099451D01*
X0093169Y0099807D01*
X0092492Y0100180D01*
X0091824Y0100569D01*
X0091166Y0100974D01*
X0090518Y0101396D01*
X0089880Y0101833D01*
X0089254Y0102286D01*
X0088639Y0102754D01*
X0088035Y0103237D01*
X0087444Y0103735D01*
X0086865Y0104247D01*
X0086298Y0104773D01*
X0085745Y0105313D01*
X0085205Y0105866D01*
X0084679Y0106433D01*
X0084167Y0107012D01*
X0083669Y0107603D01*
X0083186Y0108207D01*
X0082718Y0108822D01*
X0082265Y0109448D01*
X0081828Y0110086D01*
X0081406Y0110734D01*
X0081001Y0111392D01*
X0080612Y0112060D01*
X0080239Y0112737D01*
X0079883Y0113423D01*
X0079544Y0114118D01*
X0079222Y0114821D01*
X0078917Y0115531D01*
X0078630Y0116249D01*
X0078361Y0116973D01*
X0078110Y0117704D01*
X0077876Y0118441D01*
X0077661Y0119184D01*
X0077464Y0119931D01*
X0077285Y0120683D01*
X0077125Y0121439D01*
X0076984Y0122199D01*
X0076861Y0122963D01*
X0076757Y0123729D01*
X0076672Y0124497D01*
X0076605Y0125267D01*
X0076558Y0126039D01*
X0076529Y0126811D01*
X0076520Y0127584D01*
X0152197Y0021285D02*
X0152201Y0021623D01*
X0152214Y0021961D01*
X0152234Y0022299D01*
X0152263Y0022636D01*
X0152301Y0022972D01*
X0152346Y0023307D01*
X0152400Y0023641D01*
X0152462Y0023973D01*
X0152532Y0024304D01*
X0152610Y0024633D01*
X0152696Y0024960D01*
X0152790Y0025285D01*
X0152893Y0025608D01*
X0153003Y0025927D01*
X0153120Y0026244D01*
X0153246Y0026558D01*
X0153379Y0026869D01*
X0153520Y0027177D01*
X0153668Y0027481D01*
X0153824Y0027781D01*
X0153987Y0028077D01*
X0154157Y0028369D01*
X0154335Y0028657D01*
X0154519Y0028941D01*
X0154711Y0029220D01*
X0154909Y0029494D01*
X0155114Y0029763D01*
X0155325Y0030027D01*
X0155543Y0030286D01*
X0155767Y0030539D01*
X0155997Y0030787D01*
X0156233Y0031029D01*
X0156475Y0031265D01*
X0156723Y0031495D01*
X0156976Y0031719D01*
X0157235Y0031937D01*
X0157499Y0032148D01*
X0157768Y0032353D01*
X0158042Y0032551D01*
X0158321Y0032743D01*
X0158605Y0032927D01*
X0158893Y0033105D01*
X0159185Y0033275D01*
X0159481Y0033438D01*
X0159781Y0033594D01*
X0160085Y0033742D01*
X0160393Y0033883D01*
X0160704Y0034016D01*
X0161018Y0034142D01*
X0161335Y0034259D01*
X0161654Y0034369D01*
X0161977Y0034472D01*
X0162302Y0034566D01*
X0162629Y0034652D01*
X0162958Y0034730D01*
X0163289Y0034800D01*
X0163621Y0034862D01*
X0163955Y0034916D01*
X0164290Y0034961D01*
X0164626Y0034999D01*
X0164963Y0035028D01*
X0165301Y0035048D01*
X0165639Y0035061D01*
X0165977Y0035065D01*
X0166315Y0035061D01*
X0166653Y0035048D01*
X0166991Y0035028D01*
X0167328Y0034999D01*
X0167664Y0034961D01*
X0167999Y0034916D01*
X0168333Y0034862D01*
X0168665Y0034800D01*
X0168996Y0034730D01*
X0169325Y0034652D01*
X0169652Y0034566D01*
X0169977Y0034472D01*
X0170300Y0034369D01*
X0170619Y0034259D01*
X0170936Y0034142D01*
X0171250Y0034016D01*
X0171561Y0033883D01*
X0171869Y0033742D01*
X0172173Y0033594D01*
X0172473Y0033438D01*
X0172769Y0033275D01*
X0173061Y0033105D01*
X0173349Y0032927D01*
X0173633Y0032743D01*
X0173912Y0032551D01*
X0174186Y0032353D01*
X0174455Y0032148D01*
X0174719Y0031937D01*
X0174978Y0031719D01*
X0175231Y0031495D01*
X0175479Y0031265D01*
X0175721Y0031029D01*
X0175957Y0030787D01*
X0176187Y0030539D01*
X0176411Y0030286D01*
X0176629Y0030027D01*
X0176840Y0029763D01*
X0177045Y0029494D01*
X0177243Y0029220D01*
X0177435Y0028941D01*
X0177619Y0028657D01*
X0177797Y0028369D01*
X0177967Y0028077D01*
X0178130Y0027781D01*
X0178286Y0027481D01*
X0178434Y0027177D01*
X0178575Y0026869D01*
X0178708Y0026558D01*
X0178834Y0026244D01*
X0178951Y0025927D01*
X0179061Y0025608D01*
X0179164Y0025285D01*
X0179258Y0024960D01*
X0179344Y0024633D01*
X0179422Y0024304D01*
X0179492Y0023973D01*
X0179554Y0023641D01*
X0179608Y0023307D01*
X0179653Y0022972D01*
X0179691Y0022636D01*
X0179720Y0022299D01*
X0179740Y0021961D01*
X0179753Y0021623D01*
X0179757Y0021285D01*
X0179753Y0020947D01*
X0179740Y0020609D01*
X0179720Y0020271D01*
X0179691Y0019934D01*
X0179653Y0019598D01*
X0179608Y0019263D01*
X0179554Y0018929D01*
X0179492Y0018597D01*
X0179422Y0018266D01*
X0179344Y0017937D01*
X0179258Y0017610D01*
X0179164Y0017285D01*
X0179061Y0016962D01*
X0178951Y0016643D01*
X0178834Y0016326D01*
X0178708Y0016012D01*
X0178575Y0015701D01*
X0178434Y0015393D01*
X0178286Y0015089D01*
X0178130Y0014789D01*
X0177967Y0014493D01*
X0177797Y0014201D01*
X0177619Y0013913D01*
X0177435Y0013629D01*
X0177243Y0013350D01*
X0177045Y0013076D01*
X0176840Y0012807D01*
X0176629Y0012543D01*
X0176411Y0012284D01*
X0176187Y0012031D01*
X0175957Y0011783D01*
X0175721Y0011541D01*
X0175479Y0011305D01*
X0175231Y0011075D01*
X0174978Y0010851D01*
X0174719Y0010633D01*
X0174455Y0010422D01*
X0174186Y0010217D01*
X0173912Y0010019D01*
X0173633Y0009827D01*
X0173349Y0009643D01*
X0173061Y0009465D01*
X0172769Y0009295D01*
X0172473Y0009132D01*
X0172173Y0008976D01*
X0171869Y0008828D01*
X0171561Y0008687D01*
X0171250Y0008554D01*
X0170936Y0008428D01*
X0170619Y0008311D01*
X0170300Y0008201D01*
X0169977Y0008098D01*
X0169652Y0008004D01*
X0169325Y0007918D01*
X0168996Y0007840D01*
X0168665Y0007770D01*
X0168333Y0007708D01*
X0167999Y0007654D01*
X0167664Y0007609D01*
X0167328Y0007571D01*
X0166991Y0007542D01*
X0166653Y0007522D01*
X0166315Y0007509D01*
X0165977Y0007505D01*
X0165639Y0007509D01*
X0165301Y0007522D01*
X0164963Y0007542D01*
X0164626Y0007571D01*
X0164290Y0007609D01*
X0163955Y0007654D01*
X0163621Y0007708D01*
X0163289Y0007770D01*
X0162958Y0007840D01*
X0162629Y0007918D01*
X0162302Y0008004D01*
X0161977Y0008098D01*
X0161654Y0008201D01*
X0161335Y0008311D01*
X0161018Y0008428D01*
X0160704Y0008554D01*
X0160393Y0008687D01*
X0160085Y0008828D01*
X0159781Y0008976D01*
X0159481Y0009132D01*
X0159185Y0009295D01*
X0158893Y0009465D01*
X0158605Y0009643D01*
X0158321Y0009827D01*
X0158042Y0010019D01*
X0157768Y0010217D01*
X0157499Y0010422D01*
X0157235Y0010633D01*
X0156976Y0010851D01*
X0156723Y0011075D01*
X0156475Y0011305D01*
X0156233Y0011541D01*
X0155997Y0011783D01*
X0155767Y0012031D01*
X0155543Y0012284D01*
X0155325Y0012543D01*
X0155114Y0012807D01*
X0154909Y0013076D01*
X0154711Y0013350D01*
X0154519Y0013629D01*
X0154335Y0013913D01*
X0154157Y0014201D01*
X0153987Y0014493D01*
X0153824Y0014789D01*
X0153668Y0015089D01*
X0153520Y0015393D01*
X0153379Y0015701D01*
X0153246Y0016012D01*
X0153120Y0016326D01*
X0153003Y0016643D01*
X0152893Y0016962D01*
X0152790Y0017285D01*
X0152696Y0017610D01*
X0152610Y0017937D01*
X0152532Y0018266D01*
X0152462Y0018597D01*
X0152400Y0018929D01*
X0152346Y0019263D01*
X0152301Y0019598D01*
X0152263Y0019934D01*
X0152234Y0020271D01*
X0152214Y0020609D01*
X0152201Y0020947D01*
X0152197Y0021285D01*
X0213763Y0127584D02*
X0213767Y0127922D01*
X0213780Y0128260D01*
X0213800Y0128598D01*
X0213829Y0128935D01*
X0213867Y0129271D01*
X0213912Y0129606D01*
X0213966Y0129940D01*
X0214028Y0130272D01*
X0214098Y0130603D01*
X0214176Y0130932D01*
X0214262Y0131259D01*
X0214356Y0131584D01*
X0214459Y0131907D01*
X0214569Y0132226D01*
X0214686Y0132543D01*
X0214812Y0132857D01*
X0214945Y0133168D01*
X0215086Y0133476D01*
X0215234Y0133780D01*
X0215390Y0134080D01*
X0215553Y0134376D01*
X0215723Y0134668D01*
X0215901Y0134956D01*
X0216085Y0135240D01*
X0216277Y0135519D01*
X0216475Y0135793D01*
X0216680Y0136062D01*
X0216891Y0136326D01*
X0217109Y0136585D01*
X0217333Y0136838D01*
X0217563Y0137086D01*
X0217799Y0137328D01*
X0218041Y0137564D01*
X0218289Y0137794D01*
X0218542Y0138018D01*
X0218801Y0138236D01*
X0219065Y0138447D01*
X0219334Y0138652D01*
X0219608Y0138850D01*
X0219887Y0139042D01*
X0220171Y0139226D01*
X0220459Y0139404D01*
X0220751Y0139574D01*
X0221047Y0139737D01*
X0221347Y0139893D01*
X0221651Y0140041D01*
X0221959Y0140182D01*
X0222270Y0140315D01*
X0222584Y0140441D01*
X0222901Y0140558D01*
X0223220Y0140668D01*
X0223543Y0140771D01*
X0223868Y0140865D01*
X0224195Y0140951D01*
X0224524Y0141029D01*
X0224855Y0141099D01*
X0225187Y0141161D01*
X0225521Y0141215D01*
X0225856Y0141260D01*
X0226192Y0141298D01*
X0226529Y0141327D01*
X0226867Y0141347D01*
X0227205Y0141360D01*
X0227543Y0141364D01*
X0227881Y0141360D01*
X0228219Y0141347D01*
X0228557Y0141327D01*
X0228894Y0141298D01*
X0229230Y0141260D01*
X0229565Y0141215D01*
X0229899Y0141161D01*
X0230231Y0141099D01*
X0230562Y0141029D01*
X0230891Y0140951D01*
X0231218Y0140865D01*
X0231543Y0140771D01*
X0231866Y0140668D01*
X0232185Y0140558D01*
X0232502Y0140441D01*
X0232816Y0140315D01*
X0233127Y0140182D01*
X0233435Y0140041D01*
X0233739Y0139893D01*
X0234039Y0139737D01*
X0234335Y0139574D01*
X0234627Y0139404D01*
X0234915Y0139226D01*
X0235199Y0139042D01*
X0235478Y0138850D01*
X0235752Y0138652D01*
X0236021Y0138447D01*
X0236285Y0138236D01*
X0236544Y0138018D01*
X0236797Y0137794D01*
X0237045Y0137564D01*
X0237287Y0137328D01*
X0237523Y0137086D01*
X0237753Y0136838D01*
X0237977Y0136585D01*
X0238195Y0136326D01*
X0238406Y0136062D01*
X0238611Y0135793D01*
X0238809Y0135519D01*
X0239001Y0135240D01*
X0239185Y0134956D01*
X0239363Y0134668D01*
X0239533Y0134376D01*
X0239696Y0134080D01*
X0239852Y0133780D01*
X0240000Y0133476D01*
X0240141Y0133168D01*
X0240274Y0132857D01*
X0240400Y0132543D01*
X0240517Y0132226D01*
X0240627Y0131907D01*
X0240730Y0131584D01*
X0240824Y0131259D01*
X0240910Y0130932D01*
X0240988Y0130603D01*
X0241058Y0130272D01*
X0241120Y0129940D01*
X0241174Y0129606D01*
X0241219Y0129271D01*
X0241257Y0128935D01*
X0241286Y0128598D01*
X0241306Y0128260D01*
X0241319Y0127922D01*
X0241323Y0127584D01*
X0241319Y0127246D01*
X0241306Y0126908D01*
X0241286Y0126570D01*
X0241257Y0126233D01*
X0241219Y0125897D01*
X0241174Y0125562D01*
X0241120Y0125228D01*
X0241058Y0124896D01*
X0240988Y0124565D01*
X0240910Y0124236D01*
X0240824Y0123909D01*
X0240730Y0123584D01*
X0240627Y0123261D01*
X0240517Y0122942D01*
X0240400Y0122625D01*
X0240274Y0122311D01*
X0240141Y0122000D01*
X0240000Y0121692D01*
X0239852Y0121388D01*
X0239696Y0121088D01*
X0239533Y0120792D01*
X0239363Y0120500D01*
X0239185Y0120212D01*
X0239001Y0119928D01*
X0238809Y0119649D01*
X0238611Y0119375D01*
X0238406Y0119106D01*
X0238195Y0118842D01*
X0237977Y0118583D01*
X0237753Y0118330D01*
X0237523Y0118082D01*
X0237287Y0117840D01*
X0237045Y0117604D01*
X0236797Y0117374D01*
X0236544Y0117150D01*
X0236285Y0116932D01*
X0236021Y0116721D01*
X0235752Y0116516D01*
X0235478Y0116318D01*
X0235199Y0116126D01*
X0234915Y0115942D01*
X0234627Y0115764D01*
X0234335Y0115594D01*
X0234039Y0115431D01*
X0233739Y0115275D01*
X0233435Y0115127D01*
X0233127Y0114986D01*
X0232816Y0114853D01*
X0232502Y0114727D01*
X0232185Y0114610D01*
X0231866Y0114500D01*
X0231543Y0114397D01*
X0231218Y0114303D01*
X0230891Y0114217D01*
X0230562Y0114139D01*
X0230231Y0114069D01*
X0229899Y0114007D01*
X0229565Y0113953D01*
X0229230Y0113908D01*
X0228894Y0113870D01*
X0228557Y0113841D01*
X0228219Y0113821D01*
X0227881Y0113808D01*
X0227543Y0113804D01*
X0227205Y0113808D01*
X0226867Y0113821D01*
X0226529Y0113841D01*
X0226192Y0113870D01*
X0225856Y0113908D01*
X0225521Y0113953D01*
X0225187Y0114007D01*
X0224855Y0114069D01*
X0224524Y0114139D01*
X0224195Y0114217D01*
X0223868Y0114303D01*
X0223543Y0114397D01*
X0223220Y0114500D01*
X0222901Y0114610D01*
X0222584Y0114727D01*
X0222270Y0114853D01*
X0221959Y0114986D01*
X0221651Y0115127D01*
X0221347Y0115275D01*
X0221047Y0115431D01*
X0220751Y0115594D01*
X0220459Y0115764D01*
X0220171Y0115942D01*
X0219887Y0116126D01*
X0219608Y0116318D01*
X0219334Y0116516D01*
X0219065Y0116721D01*
X0218801Y0116932D01*
X0218542Y0117150D01*
X0218289Y0117374D01*
X0218041Y0117604D01*
X0217799Y0117840D01*
X0217563Y0118082D01*
X0217333Y0118330D01*
X0217109Y0118583D01*
X0216891Y0118842D01*
X0216680Y0119106D01*
X0216475Y0119375D01*
X0216277Y0119649D01*
X0216085Y0119928D01*
X0215901Y0120212D01*
X0215723Y0120500D01*
X0215553Y0120792D01*
X0215390Y0121088D01*
X0215234Y0121388D01*
X0215086Y0121692D01*
X0214945Y0122000D01*
X0214812Y0122311D01*
X0214686Y0122625D01*
X0214569Y0122942D01*
X0214459Y0123261D01*
X0214356Y0123584D01*
X0214262Y0123909D01*
X0214176Y0124236D01*
X0214098Y0124565D01*
X0214028Y0124896D01*
X0213966Y0125228D01*
X0213912Y0125562D01*
X0213867Y0125897D01*
X0213829Y0126233D01*
X0213800Y0126570D01*
X0213780Y0126908D01*
X0213767Y0127246D01*
X0213763Y0127584D01*
X0273236Y0230931D02*
X0273240Y0231269D01*
X0273253Y0231607D01*
X0273273Y0231945D01*
X0273302Y0232282D01*
X0273340Y0232618D01*
X0273385Y0232953D01*
X0273439Y0233287D01*
X0273501Y0233619D01*
X0273571Y0233950D01*
X0273649Y0234279D01*
X0273735Y0234606D01*
X0273829Y0234931D01*
X0273932Y0235254D01*
X0274042Y0235573D01*
X0274159Y0235890D01*
X0274285Y0236204D01*
X0274418Y0236515D01*
X0274559Y0236823D01*
X0274707Y0237127D01*
X0274863Y0237427D01*
X0275026Y0237723D01*
X0275196Y0238015D01*
X0275374Y0238303D01*
X0275558Y0238587D01*
X0275750Y0238866D01*
X0275948Y0239140D01*
X0276153Y0239409D01*
X0276364Y0239673D01*
X0276582Y0239932D01*
X0276806Y0240185D01*
X0277036Y0240433D01*
X0277272Y0240675D01*
X0277514Y0240911D01*
X0277762Y0241141D01*
X0278015Y0241365D01*
X0278274Y0241583D01*
X0278538Y0241794D01*
X0278807Y0241999D01*
X0279081Y0242197D01*
X0279360Y0242389D01*
X0279644Y0242573D01*
X0279932Y0242751D01*
X0280224Y0242921D01*
X0280520Y0243084D01*
X0280820Y0243240D01*
X0281124Y0243388D01*
X0281432Y0243529D01*
X0281743Y0243662D01*
X0282057Y0243788D01*
X0282374Y0243905D01*
X0282693Y0244015D01*
X0283016Y0244118D01*
X0283341Y0244212D01*
X0283668Y0244298D01*
X0283997Y0244376D01*
X0284328Y0244446D01*
X0284660Y0244508D01*
X0284994Y0244562D01*
X0285329Y0244607D01*
X0285665Y0244645D01*
X0286002Y0244674D01*
X0286340Y0244694D01*
X0286678Y0244707D01*
X0287016Y0244711D01*
X0287354Y0244707D01*
X0287692Y0244694D01*
X0288030Y0244674D01*
X0288367Y0244645D01*
X0288703Y0244607D01*
X0289038Y0244562D01*
X0289372Y0244508D01*
X0289704Y0244446D01*
X0290035Y0244376D01*
X0290364Y0244298D01*
X0290691Y0244212D01*
X0291016Y0244118D01*
X0291339Y0244015D01*
X0291658Y0243905D01*
X0291975Y0243788D01*
X0292289Y0243662D01*
X0292600Y0243529D01*
X0292908Y0243388D01*
X0293212Y0243240D01*
X0293512Y0243084D01*
X0293808Y0242921D01*
X0294100Y0242751D01*
X0294388Y0242573D01*
X0294672Y0242389D01*
X0294951Y0242197D01*
X0295225Y0241999D01*
X0295494Y0241794D01*
X0295758Y0241583D01*
X0296017Y0241365D01*
X0296270Y0241141D01*
X0296518Y0240911D01*
X0296760Y0240675D01*
X0296996Y0240433D01*
X0297226Y0240185D01*
X0297450Y0239932D01*
X0297668Y0239673D01*
X0297879Y0239409D01*
X0298084Y0239140D01*
X0298282Y0238866D01*
X0298474Y0238587D01*
X0298658Y0238303D01*
X0298836Y0238015D01*
X0299006Y0237723D01*
X0299169Y0237427D01*
X0299325Y0237127D01*
X0299473Y0236823D01*
X0299614Y0236515D01*
X0299747Y0236204D01*
X0299873Y0235890D01*
X0299990Y0235573D01*
X0300100Y0235254D01*
X0300203Y0234931D01*
X0300297Y0234606D01*
X0300383Y0234279D01*
X0300461Y0233950D01*
X0300531Y0233619D01*
X0300593Y0233287D01*
X0300647Y0232953D01*
X0300692Y0232618D01*
X0300730Y0232282D01*
X0300759Y0231945D01*
X0300779Y0231607D01*
X0300792Y0231269D01*
X0300796Y0230931D01*
X0300792Y0230593D01*
X0300779Y0230255D01*
X0300759Y0229917D01*
X0300730Y0229580D01*
X0300692Y0229244D01*
X0300647Y0228909D01*
X0300593Y0228575D01*
X0300531Y0228243D01*
X0300461Y0227912D01*
X0300383Y0227583D01*
X0300297Y0227256D01*
X0300203Y0226931D01*
X0300100Y0226608D01*
X0299990Y0226289D01*
X0299873Y0225972D01*
X0299747Y0225658D01*
X0299614Y0225347D01*
X0299473Y0225039D01*
X0299325Y0224735D01*
X0299169Y0224435D01*
X0299006Y0224139D01*
X0298836Y0223847D01*
X0298658Y0223559D01*
X0298474Y0223275D01*
X0298282Y0222996D01*
X0298084Y0222722D01*
X0297879Y0222453D01*
X0297668Y0222189D01*
X0297450Y0221930D01*
X0297226Y0221677D01*
X0296996Y0221429D01*
X0296760Y0221187D01*
X0296518Y0220951D01*
X0296270Y0220721D01*
X0296017Y0220497D01*
X0295758Y0220279D01*
X0295494Y0220068D01*
X0295225Y0219863D01*
X0294951Y0219665D01*
X0294672Y0219473D01*
X0294388Y0219289D01*
X0294100Y0219111D01*
X0293808Y0218941D01*
X0293512Y0218778D01*
X0293212Y0218622D01*
X0292908Y0218474D01*
X0292600Y0218333D01*
X0292289Y0218200D01*
X0291975Y0218074D01*
X0291658Y0217957D01*
X0291339Y0217847D01*
X0291016Y0217744D01*
X0290691Y0217650D01*
X0290364Y0217564D01*
X0290035Y0217486D01*
X0289704Y0217416D01*
X0289372Y0217354D01*
X0289038Y0217300D01*
X0288703Y0217255D01*
X0288367Y0217217D01*
X0288030Y0217188D01*
X0287692Y0217168D01*
X0287354Y0217155D01*
X0287016Y0217151D01*
X0286678Y0217155D01*
X0286340Y0217168D01*
X0286002Y0217188D01*
X0285665Y0217217D01*
X0285329Y0217255D01*
X0284994Y0217300D01*
X0284660Y0217354D01*
X0284328Y0217416D01*
X0283997Y0217486D01*
X0283668Y0217564D01*
X0283341Y0217650D01*
X0283016Y0217744D01*
X0282693Y0217847D01*
X0282374Y0217957D01*
X0282057Y0218074D01*
X0281743Y0218200D01*
X0281432Y0218333D01*
X0281124Y0218474D01*
X0280820Y0218622D01*
X0280520Y0218778D01*
X0280224Y0218941D01*
X0279932Y0219111D01*
X0279644Y0219289D01*
X0279360Y0219473D01*
X0279081Y0219665D01*
X0278807Y0219863D01*
X0278538Y0220068D01*
X0278274Y0220279D01*
X0278015Y0220497D01*
X0277762Y0220721D01*
X0277514Y0220951D01*
X0277272Y0221187D01*
X0277036Y0221429D01*
X0276806Y0221677D01*
X0276582Y0221930D01*
X0276364Y0222189D01*
X0276153Y0222453D01*
X0275948Y0222722D01*
X0275750Y0222996D01*
X0275558Y0223275D01*
X0275374Y0223559D01*
X0275196Y0223847D01*
X0275026Y0224139D01*
X0274863Y0224435D01*
X0274707Y0224735D01*
X0274559Y0225039D01*
X0274418Y0225347D01*
X0274285Y0225658D01*
X0274159Y0225972D01*
X0274042Y0226289D01*
X0273932Y0226608D01*
X0273829Y0226931D01*
X0273735Y0227256D01*
X0273649Y0227583D01*
X0273571Y0227912D01*
X0273501Y0228243D01*
X0273439Y0228575D01*
X0273385Y0228909D01*
X0273340Y0229244D01*
X0273302Y0229580D01*
X0273273Y0229917D01*
X0273253Y0230255D01*
X0273240Y0230593D01*
X0273236Y0230931D01*
D12*
X0207564Y0260732D02*
X0209070Y0264115D01*
X0206815Y0265119D01*
X0205706Y0265613D02*
X0203450Y0266617D01*
X0202341Y0267111D02*
X0200649Y0267864D01*
X0199835Y0267551D01*
X0198830Y0265296D01*
X0199143Y0264481D01*
X0200835Y0263728D01*
X0202341Y0267111D01*
X0204578Y0266115D02*
X0203072Y0262732D01*
X0207190Y0262925D02*
X0208317Y0262423D01*
X0198976Y0268609D02*
X0197849Y0269111D01*
X0198412Y0268860D02*
X0196906Y0265477D01*
X0197470Y0265226D02*
X0196342Y0265728D01*
X0166619Y0276151D02*
X0166368Y0275587D01*
X0165553Y0275274D01*
X0164426Y0275776D01*
X0163611Y0275464D01*
X0163360Y0274900D01*
X0163673Y0274085D01*
X0164800Y0273583D01*
X0165615Y0273896D01*
X0166619Y0276151D02*
X0166306Y0276966D01*
X0165179Y0277468D01*
X0164364Y0277155D01*
X0163506Y0278213D02*
X0161814Y0278966D01*
X0160999Y0278653D01*
X0160497Y0277526D01*
X0160810Y0276711D01*
X0162501Y0275958D01*
X0161999Y0274830D02*
X0163506Y0278213D01*
X0160141Y0279711D02*
X0159013Y0280213D01*
X0159577Y0279962D02*
X0158071Y0276579D01*
X0158635Y0276328D02*
X0157507Y0276830D01*
X0242196Y0058279D02*
X0243490Y0056498D01*
X0244084Y0056929D02*
X0242896Y0056066D01*
X0242221Y0055576D02*
X0239740Y0056495D01*
X0240927Y0057358D02*
X0241034Y0054713D01*
X0242033Y0057254D02*
X0242196Y0058279D01*
D13*
X0256910Y0129937D02*
X0257292Y0129910D01*
X0257702Y0130266D01*
X0257755Y0131032D01*
X0258165Y0131388D01*
X0258548Y0131361D01*
X0258904Y0130952D01*
X0258850Y0130186D01*
X0258441Y0129830D01*
X0256910Y0129937D02*
X0256554Y0130347D01*
X0256607Y0131112D01*
X0257017Y0131468D01*
X0257070Y0132234D02*
X0258601Y0132126D01*
X0259011Y0132482D01*
X0259064Y0133248D01*
X0258708Y0133657D01*
X0257177Y0133764D01*
X0256768Y0133408D01*
X0256714Y0132643D01*
X0257070Y0132234D01*
X0256848Y0134557D02*
X0259144Y0134396D01*
X0259252Y0135927D01*
X0259305Y0136692D02*
X0259412Y0138223D01*
X0259466Y0138989D02*
X0257169Y0139149D01*
X0259573Y0140520D01*
X0257276Y0140680D01*
X0257713Y0141419D02*
X0257357Y0141828D01*
X0257410Y0142594D01*
X0257820Y0142950D01*
X0259350Y0142843D01*
X0259706Y0142433D01*
X0259653Y0141668D01*
X0259243Y0141312D01*
X0257713Y0141419D01*
X0257490Y0143742D02*
X0257544Y0144507D01*
X0257517Y0144125D02*
X0259813Y0143964D01*
X0259787Y0143581D02*
X0259840Y0144347D01*
X0259894Y0145112D02*
X0259974Y0146261D01*
X0259618Y0146670D01*
X0258087Y0146777D01*
X0257678Y0146421D01*
X0257597Y0145273D01*
X0259894Y0145112D01*
X0259672Y0147435D02*
X0260081Y0147791D01*
X0260135Y0148557D01*
X0259779Y0148966D01*
X0259396Y0148993D01*
X0258986Y0148637D01*
X0258933Y0147872D01*
X0258523Y0147516D01*
X0258141Y0147542D01*
X0257785Y0147952D01*
X0257838Y0148717D01*
X0258248Y0149073D01*
X0257116Y0138384D02*
X0257009Y0136853D01*
X0259305Y0136692D01*
X0258157Y0136773D02*
X0258210Y0137538D01*
X0261828Y0205733D02*
X0261106Y0206454D01*
X0263270Y0206454D01*
X0263270Y0205733D02*
X0263270Y0207176D01*
X0262188Y0207908D02*
X0262188Y0209351D01*
X0261106Y0208990D02*
X0262188Y0207908D01*
X0263270Y0208990D02*
X0261106Y0208990D01*
X0261828Y0230930D02*
X0261106Y0231651D01*
X0263270Y0231651D01*
X0263270Y0230930D02*
X0263270Y0232373D01*
X0262910Y0233105D02*
X0263270Y0233466D01*
X0263270Y0234187D01*
X0262910Y0234548D01*
X0262188Y0234548D01*
X0261828Y0234187D01*
X0261828Y0233826D01*
X0262188Y0233105D01*
X0261106Y0233105D01*
X0261106Y0234548D01*
X0225475Y0234187D02*
X0225475Y0233466D01*
X0225114Y0233105D01*
X0224754Y0233105D01*
X0224393Y0233466D01*
X0224393Y0234187D01*
X0224754Y0234548D01*
X0225114Y0234548D01*
X0225475Y0234187D01*
X0224393Y0234187D02*
X0224032Y0234548D01*
X0223672Y0234548D01*
X0223311Y0234187D01*
X0223311Y0233466D01*
X0223672Y0233105D01*
X0224032Y0233105D01*
X0224393Y0233466D01*
X0224032Y0232373D02*
X0223672Y0232373D01*
X0223311Y0232012D01*
X0223311Y0231291D01*
X0223672Y0230930D01*
X0224032Y0232373D02*
X0225475Y0230930D01*
X0225475Y0232373D01*
X0225475Y0207176D02*
X0225475Y0205733D01*
X0225475Y0206454D02*
X0223311Y0206454D01*
X0224032Y0205733D01*
X0094827Y0200960D02*
X0092525Y0200960D01*
X0093292Y0200193D01*
X0092525Y0199425D01*
X0094827Y0199425D01*
X0094827Y0198658D02*
X0093292Y0198658D01*
X0092525Y0197891D01*
X0093292Y0197123D01*
X0094827Y0197123D01*
X0094443Y0196356D02*
X0094827Y0195972D01*
X0094827Y0195205D01*
X0094443Y0194821D01*
X0092908Y0194821D01*
X0092525Y0195205D01*
X0092525Y0195972D01*
X0092908Y0196356D01*
X0093676Y0197123D02*
X0093676Y0198658D01*
X0094059Y0191752D02*
X0094443Y0191752D01*
X0094827Y0191368D01*
X0094827Y0190217D01*
X0092525Y0190217D01*
X0092525Y0191368D01*
X0092908Y0191752D01*
X0093292Y0191752D01*
X0093676Y0191368D01*
X0093676Y0190217D01*
X0094059Y0189450D02*
X0094443Y0189450D01*
X0094827Y0189067D01*
X0094827Y0188299D01*
X0094443Y0187916D01*
X0094443Y0187148D02*
X0092525Y0187148D01*
X0092908Y0187916D02*
X0093292Y0187916D01*
X0093676Y0188299D01*
X0093676Y0189067D01*
X0094059Y0189450D01*
X0092908Y0189450D02*
X0092525Y0189067D01*
X0092525Y0188299D01*
X0092908Y0187916D01*
X0094443Y0187148D02*
X0094827Y0186765D01*
X0094827Y0185997D01*
X0094443Y0185614D01*
X0092525Y0185614D01*
X0093676Y0191368D02*
X0094059Y0191752D01*
X0043168Y0181473D02*
X0041839Y0182241D01*
X0042503Y0181857D02*
X0041352Y0179863D01*
X0040023Y0180631D02*
X0041174Y0182624D01*
X0040599Y0181628D02*
X0039270Y0182395D01*
X0038605Y0182779D02*
X0037941Y0183162D01*
X0038605Y0182779D02*
X0038222Y0182114D01*
X0037697Y0181974D01*
X0037033Y0182357D01*
X0036892Y0182881D01*
X0037660Y0184210D01*
X0038184Y0184351D01*
X0038848Y0183967D01*
X0038989Y0183443D01*
X0039845Y0183392D02*
X0038694Y0181398D01*
X0036036Y0182933D02*
X0035372Y0183316D01*
X0035704Y0183125D02*
X0036855Y0185118D01*
X0036523Y0185310D02*
X0037187Y0184926D01*
X0034707Y0183700D02*
X0033378Y0184467D01*
X0034529Y0186461D01*
X0033673Y0186512D02*
X0033532Y0187036D01*
X0032868Y0187420D01*
X0032344Y0187280D01*
X0031576Y0185951D01*
X0031717Y0185427D01*
X0032381Y0185043D01*
X0032905Y0185183D01*
X0033289Y0185848D01*
X0032625Y0186231D01*
X0030720Y0186002D02*
X0031871Y0187996D01*
X0030542Y0188763D02*
X0030720Y0186002D01*
X0029391Y0186769D02*
X0030542Y0188763D01*
X0029877Y0189147D02*
X0029213Y0189530D01*
X0029545Y0189338D02*
X0028394Y0187345D01*
X0028062Y0187537D02*
X0028727Y0187153D01*
X0027397Y0187920D02*
X0027117Y0188969D01*
X0027449Y0188777D02*
X0026452Y0189352D01*
X0026068Y0188688D02*
X0027219Y0190681D01*
X0028216Y0190106D01*
X0028357Y0189582D01*
X0027973Y0188917D01*
X0027449Y0188777D01*
X0118504Y0076585D02*
X0119271Y0075817D01*
X0120038Y0076585D01*
X0120038Y0074283D01*
X0120806Y0074666D02*
X0121189Y0074283D01*
X0121957Y0074283D01*
X0122340Y0074666D01*
X0122340Y0076201D01*
X0121957Y0076585D01*
X0121189Y0076585D01*
X0120806Y0076201D01*
X0120806Y0074666D01*
X0123107Y0074283D02*
X0124258Y0074283D01*
X0124642Y0074666D01*
X0124642Y0076201D01*
X0124258Y0076585D01*
X0123107Y0076585D01*
X0123107Y0074283D01*
X0127711Y0076585D02*
X0129246Y0076585D01*
X0128479Y0076585D02*
X0128479Y0074283D01*
X0130013Y0074666D02*
X0130397Y0074283D01*
X0131164Y0074283D01*
X0131548Y0074666D01*
X0131548Y0076201D01*
X0131164Y0076585D01*
X0130397Y0076585D01*
X0130013Y0076201D01*
X0130013Y0074666D01*
X0132315Y0074666D02*
X0132699Y0074283D01*
X0133466Y0074283D01*
X0133850Y0074666D01*
X0133850Y0076201D01*
X0133466Y0076585D01*
X0132699Y0076585D01*
X0132315Y0076201D01*
X0132315Y0074666D01*
X0134617Y0074283D02*
X0136152Y0074283D01*
X0134617Y0074283D02*
X0134617Y0076585D01*
X0118504Y0076585D02*
X0118504Y0074283D01*
D14*
X0082258Y0071117D02*
X0072030Y0077022D01*
X0074982Y0082137D01*
X0085211Y0076231D01*
X0082258Y0071117D01*
X0081574Y0079133D02*
X0071346Y0085038D01*
X0074299Y0090152D01*
X0084527Y0084247D01*
X0081574Y0079133D01*
X0089331Y0082666D02*
X0079103Y0088571D01*
X0082055Y0093686D01*
X0092284Y0087780D01*
X0089331Y0082666D01*
X0088748Y0090855D02*
X0078519Y0096760D01*
X0081472Y0101875D01*
X0091700Y0095969D01*
X0088748Y0090855D01*
X0134186Y0092047D02*
X0145997Y0092047D01*
X0145997Y0097953D01*
X0134186Y0097953D01*
X0134186Y0092047D01*
X0134386Y0091153D02*
X0146197Y0091153D01*
X0146197Y0085247D01*
X0134386Y0085247D01*
X0134386Y0091153D01*
X0140139Y0099094D02*
X0140139Y0110906D01*
X0146044Y0110906D01*
X0146044Y0099094D01*
X0140139Y0099094D01*
X0157236Y0105049D02*
X0157236Y0108592D01*
X0175347Y0108592D01*
X0175347Y0105049D01*
X0185136Y0094918D02*
X0190647Y0094918D01*
X0190647Y0084682D01*
X0185136Y0084682D01*
X0185136Y0094918D01*
X0175347Y0086151D02*
X0175347Y0082608D01*
X0157236Y0082608D01*
X0157236Y0086151D01*
X0226942Y0145701D02*
X0226942Y0145898D01*
X0226942Y0145701D02*
X0233241Y0145701D01*
X0233241Y0149244D01*
X0233241Y0154756D02*
X0233241Y0158299D01*
X0226942Y0158299D01*
X0226942Y0158102D01*
X0226548Y0152630D02*
X0226548Y0151370D01*
X0238742Y0154901D02*
X0238742Y0155098D01*
X0238742Y0154901D02*
X0245041Y0154901D01*
X0245041Y0158444D01*
X0245041Y0163956D02*
X0245041Y0167499D01*
X0238742Y0167499D01*
X0238742Y0167302D01*
X0238348Y0161830D02*
X0238348Y0160570D01*
X0244542Y0148099D02*
X0250841Y0148099D01*
X0250841Y0144556D01*
X0250841Y0139044D02*
X0250841Y0135501D01*
X0244542Y0135501D01*
X0244542Y0135698D01*
X0246742Y0133499D02*
X0253041Y0133499D01*
X0253041Y0129956D01*
X0253041Y0124444D02*
X0253041Y0120901D01*
X0246742Y0120901D01*
X0246742Y0121098D01*
X0246348Y0126570D02*
X0246348Y0127830D01*
X0246742Y0133302D02*
X0246742Y0133499D01*
X0244148Y0141170D02*
X0244148Y0142430D01*
X0244542Y0147902D02*
X0244542Y0148099D01*
X0273940Y0183821D02*
X0261876Y0193944D01*
X0267443Y0200579D01*
X0279507Y0190456D01*
X0273940Y0183821D01*
X0301586Y0191247D02*
X0301586Y0197153D01*
X0313397Y0197153D01*
X0313397Y0191247D01*
X0301586Y0191247D01*
X0308573Y0199244D02*
X0308573Y0204756D01*
X0318810Y0204756D01*
X0318810Y0199244D01*
X0308573Y0199244D01*
X0262386Y0211539D02*
X0261402Y0211539D01*
X0262386Y0211539D02*
X0262386Y0228861D01*
X0261402Y0228861D01*
X0225181Y0228861D02*
X0224197Y0228861D01*
X0224197Y0211539D01*
X0225181Y0211539D01*
X0223366Y0219869D02*
X0207617Y0219869D01*
X0207617Y0228531D01*
X0223366Y0228531D01*
X0223366Y0219869D01*
X0217210Y0230044D02*
X0217210Y0235556D01*
X0206973Y0235556D01*
X0206973Y0230044D01*
X0217210Y0230044D01*
X0197847Y0236282D02*
X0197847Y0246518D01*
X0192336Y0246518D01*
X0192336Y0236282D01*
X0197847Y0236282D01*
X0187554Y0266684D02*
X0158781Y0279494D01*
X0167429Y0298916D01*
X0196202Y0286106D01*
X0187554Y0266684D01*
X0157244Y0280494D02*
X0157244Y0292306D01*
X0151339Y0292306D01*
X0151339Y0280494D01*
X0157244Y0280494D01*
X0153447Y0275318D02*
X0153447Y0265082D01*
X0147936Y0265082D01*
X0147936Y0275318D01*
X0153447Y0275318D01*
X0122410Y0263556D02*
X0122410Y0258044D01*
X0112173Y0258044D01*
X0112173Y0263556D01*
X0122410Y0263556D01*
X0111314Y0256630D02*
X0111314Y0249937D01*
X0111314Y0256630D02*
X0064069Y0256630D01*
X0064069Y0249937D01*
X0064463Y0242063D02*
X0064463Y0235370D01*
X0111314Y0235370D01*
X0111314Y0242063D01*
X0103810Y0234256D02*
X0103810Y0228744D01*
X0093573Y0228744D01*
X0093573Y0234256D01*
X0103810Y0234256D01*
X0092597Y0233953D02*
X0092597Y0228047D01*
X0080786Y0228047D01*
X0080786Y0233953D01*
X0092597Y0233953D01*
X0084197Y0226553D02*
X0072386Y0226553D01*
X0072386Y0220647D01*
X0084197Y0220647D01*
X0084197Y0226553D01*
X0077810Y0228744D02*
X0067573Y0228744D01*
X0067573Y0234256D01*
X0077810Y0234256D01*
X0077810Y0228744D01*
X0075644Y0219706D02*
X0069739Y0219706D01*
X0069739Y0207894D01*
X0075644Y0207894D01*
X0075644Y0219706D01*
X0062766Y0209731D02*
X0047017Y0209731D01*
X0047017Y0201069D01*
X0062766Y0201069D01*
X0062766Y0209731D01*
X0065386Y0205153D02*
X0077197Y0205153D01*
X0077197Y0199247D01*
X0065386Y0199247D01*
X0065386Y0205153D01*
X0072136Y0190918D02*
X0077647Y0190918D01*
X0077647Y0180682D01*
X0072136Y0180682D01*
X0072136Y0190918D01*
X0069386Y0172553D02*
X0081197Y0172553D01*
X0081197Y0166647D01*
X0069386Y0166647D01*
X0069386Y0172553D01*
X0068597Y0172553D02*
X0056786Y0172553D01*
X0056786Y0166647D01*
X0068597Y0166647D01*
X0068597Y0172553D01*
X0143936Y0165318D02*
X0143936Y0155082D01*
X0149447Y0155082D01*
X0149447Y0165318D01*
X0143936Y0165318D01*
X0175136Y0165318D02*
X0175136Y0155082D01*
X0180647Y0155082D01*
X0180647Y0165318D01*
X0175136Y0165318D01*
D15*
X0168029Y0165906D02*
X0168029Y0167874D01*
X0160155Y0167874D01*
X0160155Y0165906D01*
X0156092Y0165459D02*
X0156092Y0167794D01*
X0156092Y0166626D02*
X0152589Y0166626D01*
X0153757Y0165459D01*
X0154340Y0164111D02*
X0154924Y0163527D01*
X0154924Y0161776D01*
X0154924Y0162943D02*
X0156092Y0164111D01*
X0154340Y0164111D02*
X0153173Y0164111D01*
X0152589Y0163527D01*
X0152589Y0161776D01*
X0156092Y0161776D01*
X0154924Y0160428D02*
X0156092Y0159260D01*
X0154924Y0158093D01*
X0152589Y0158093D01*
X0152589Y0160428D02*
X0154924Y0160428D01*
X0160155Y0161575D02*
X0160155Y0158425D01*
X0160155Y0154094D02*
X0160155Y0152126D01*
X0168029Y0152126D01*
X0168029Y0154094D01*
X0193899Y0169351D02*
X0193899Y0191792D01*
X0204136Y0191792D01*
X0202684Y0192735D02*
X0202684Y0193319D01*
X0205020Y0195654D01*
X0205020Y0196238D01*
X0202684Y0196238D01*
X0200169Y0196238D02*
X0200169Y0192735D01*
X0201336Y0192735D02*
X0199001Y0192735D01*
X0197653Y0193319D02*
X0197069Y0192735D01*
X0195902Y0192735D01*
X0195318Y0193319D01*
X0195318Y0195654D01*
X0195902Y0196238D01*
X0197069Y0196238D01*
X0197653Y0195654D01*
X0199001Y0195070D02*
X0200169Y0196238D01*
X0209647Y0191792D02*
X0219884Y0191792D01*
X0219884Y0169351D01*
X0216340Y0165808D01*
X0210041Y0165808D01*
X0212403Y0168957D02*
X0217128Y0168957D01*
X0214766Y0167383D02*
X0214766Y0170926D01*
X0226990Y0162553D02*
X0226990Y0159634D01*
X0227574Y0159050D01*
X0228742Y0159050D01*
X0229326Y0159634D01*
X0229326Y0162553D01*
X0230673Y0162553D02*
X0230673Y0160801D01*
X0231841Y0161385D01*
X0232425Y0161385D01*
X0233009Y0160801D01*
X0233009Y0159634D01*
X0232425Y0159050D01*
X0231257Y0159050D01*
X0230673Y0159634D01*
X0230673Y0162553D02*
X0233009Y0162553D01*
X0238990Y0168834D02*
X0239574Y0168250D01*
X0240742Y0168250D01*
X0241326Y0168834D01*
X0241326Y0171753D01*
X0242673Y0170001D02*
X0245009Y0170001D01*
X0244425Y0168250D02*
X0244425Y0171753D01*
X0242673Y0170001D01*
X0238990Y0168834D02*
X0238990Y0171753D01*
X0245990Y0152353D02*
X0245990Y0149434D01*
X0246574Y0148850D01*
X0247742Y0148850D01*
X0248326Y0149434D01*
X0248326Y0152353D01*
X0249673Y0150601D02*
X0250841Y0151769D01*
X0252009Y0152353D01*
X0251425Y0150601D02*
X0249673Y0150601D01*
X0249673Y0149434D01*
X0250257Y0148850D01*
X0251425Y0148850D01*
X0252009Y0149434D01*
X0252009Y0150018D01*
X0251425Y0150601D01*
X0250590Y0137753D02*
X0250590Y0134834D01*
X0251174Y0134250D01*
X0252342Y0134250D01*
X0252926Y0134834D01*
X0252926Y0137753D01*
X0254273Y0137753D02*
X0256609Y0137753D01*
X0256609Y0137169D01*
X0254273Y0134834D01*
X0254273Y0134250D01*
X0230730Y0112831D02*
X0259237Y0073594D01*
X0220000Y0045086D01*
X0191492Y0084324D01*
X0230730Y0112831D01*
X0209493Y0097402D02*
X0194211Y0118436D01*
X0187900Y0113852D01*
X0203183Y0092817D01*
X0209493Y0097402D01*
X0163845Y0109537D02*
X0161510Y0109537D01*
X0162677Y0109537D02*
X0162677Y0113040D01*
X0161510Y0111872D01*
X0160162Y0113040D02*
X0160162Y0110120D01*
X0159578Y0109537D01*
X0158410Y0109537D01*
X0157827Y0110120D01*
X0157827Y0113040D01*
X0197443Y0165808D02*
X0204136Y0165808D01*
X0197443Y0165808D02*
X0193899Y0169351D01*
X0212010Y0188249D02*
X0216734Y0188249D01*
X0175500Y0236365D02*
X0176335Y0237200D01*
X0175500Y0238035D01*
X0157127Y0256409D02*
X0156292Y0257244D01*
X0155456Y0256409D01*
X0155238Y0259342D02*
X0154654Y0259926D01*
X0154654Y0262845D01*
X0156990Y0262845D02*
X0156990Y0259926D01*
X0156406Y0259342D01*
X0155238Y0259342D01*
X0158338Y0259342D02*
X0160673Y0261678D01*
X0160673Y0262261D01*
X0160089Y0262845D01*
X0158921Y0262845D01*
X0158338Y0262261D01*
X0158338Y0259342D02*
X0160673Y0259342D01*
X0179743Y0266225D02*
X0180039Y0265454D01*
X0180573Y0265217D01*
X0181343Y0265513D01*
X0182531Y0268180D01*
X0183064Y0267942D02*
X0181997Y0268417D01*
X0184058Y0266861D02*
X0184829Y0267156D01*
X0185896Y0266682D01*
X0186191Y0265911D01*
X0185954Y0265377D01*
X0182871Y0264194D01*
X0185004Y0263244D01*
X0135366Y0268063D02*
X0135366Y0275937D01*
X0133397Y0275937D01*
X0129066Y0275937D02*
X0125917Y0275937D01*
X0121586Y0275937D02*
X0119617Y0275937D01*
X0119617Y0268063D01*
X0121586Y0268063D01*
X0118892Y0268876D02*
X0118892Y0270044D01*
X0118308Y0270628D01*
X0115389Y0270628D01*
X0115973Y0271976D02*
X0115389Y0272559D01*
X0115389Y0273727D01*
X0115973Y0274311D01*
X0118308Y0274311D01*
X0118892Y0273727D01*
X0118892Y0272559D01*
X0118308Y0271976D01*
X0117140Y0272559D02*
X0117140Y0274311D01*
X0117140Y0272559D02*
X0116557Y0271976D01*
X0115973Y0271976D01*
X0115389Y0268293D02*
X0118308Y0268293D01*
X0118892Y0268876D01*
X0133397Y0268063D02*
X0135366Y0268063D01*
X0138196Y0238035D02*
X0138196Y0235808D01*
X0155456Y0217991D02*
X0156292Y0217156D01*
X0157127Y0217991D01*
X0092917Y0218338D02*
X0090582Y0216002D01*
X0091166Y0215419D01*
X0092333Y0215419D01*
X0092917Y0216002D01*
X0092917Y0218338D01*
X0092333Y0218921D01*
X0091166Y0218921D01*
X0090582Y0218338D01*
X0090582Y0216002D01*
X0089234Y0215419D02*
X0086899Y0215419D01*
X0088066Y0215419D02*
X0088066Y0218921D01*
X0086899Y0217754D01*
X0085551Y0218921D02*
X0085551Y0216002D01*
X0084967Y0215419D01*
X0083799Y0215419D01*
X0083216Y0216002D01*
X0083216Y0218921D01*
X0074050Y0197321D02*
X0074634Y0196738D01*
X0074634Y0196154D01*
X0074050Y0195570D01*
X0072882Y0195570D01*
X0072299Y0196154D01*
X0072299Y0196738D01*
X0072882Y0197321D01*
X0074050Y0197321D01*
X0074050Y0195570D02*
X0074634Y0194986D01*
X0074634Y0194402D01*
X0074050Y0193819D01*
X0072882Y0193819D01*
X0072299Y0194402D01*
X0072299Y0194986D01*
X0072882Y0195570D01*
X0070951Y0194402D02*
X0070367Y0193819D01*
X0069199Y0193819D01*
X0068616Y0194402D01*
X0068616Y0197321D01*
X0070951Y0197321D02*
X0070951Y0194402D01*
X0053561Y0186456D02*
X0050411Y0186456D01*
X0047262Y0186456D01*
X0050411Y0186456D02*
X0050411Y0187637D01*
X0050411Y0186456D02*
X0047262Y0180550D01*
X0050411Y0180550D01*
X0050411Y0179763D01*
X0050411Y0180550D02*
X0053561Y0180550D01*
X0050411Y0186456D01*
X0059902Y0157838D02*
X0059318Y0157254D01*
X0059318Y0154919D01*
X0059902Y0154335D01*
X0061069Y0154335D01*
X0061653Y0154919D01*
X0063001Y0154335D02*
X0065336Y0154335D01*
X0064169Y0154335D02*
X0064169Y0157838D01*
X0063001Y0156670D01*
X0061653Y0157254D02*
X0061069Y0157838D01*
X0059902Y0157838D01*
X0058847Y0153192D02*
X0069084Y0153192D01*
X0069084Y0130751D01*
X0065540Y0127208D01*
X0059241Y0127208D01*
X0061603Y0130357D02*
X0066328Y0130357D01*
X0063966Y0128783D02*
X0063966Y0132326D01*
X0053336Y0127208D02*
X0046643Y0127208D01*
X0043099Y0130751D01*
X0043099Y0153192D01*
X0053336Y0153192D01*
X0061210Y0149649D02*
X0065934Y0149649D01*
X0067268Y0154335D02*
X0066684Y0154919D01*
X0066684Y0155503D01*
X0067268Y0156087D01*
X0068436Y0156087D01*
X0069020Y0155503D01*
X0069020Y0154919D01*
X0068436Y0154335D01*
X0067268Y0154335D01*
X0067268Y0156087D02*
X0066684Y0156670D01*
X0066684Y0157254D01*
X0067268Y0157838D01*
X0068436Y0157838D01*
X0069020Y0157254D01*
X0069020Y0156670D01*
X0068436Y0156087D01*
D16*
X0093218Y0167076D02*
X0093218Y0168277D01*
X0093218Y0167677D02*
X0096220Y0167677D01*
X0096821Y0167076D01*
X0096821Y0166476D01*
X0096220Y0165875D01*
X0096220Y0169558D02*
X0096821Y0170159D01*
X0096821Y0171360D01*
X0096220Y0171960D01*
X0095019Y0171960D01*
X0094419Y0171360D01*
X0094419Y0170759D01*
X0095019Y0169558D01*
X0093218Y0169558D01*
X0093218Y0171960D01*
X0041760Y0205229D02*
X0038479Y0204349D01*
X0038179Y0203829D01*
X0036849Y0205290D02*
X0038351Y0207890D01*
X0037831Y0208191D02*
X0038871Y0207590D01*
X0039980Y0206950D02*
X0042060Y0205749D01*
X0041760Y0205229D01*
X0036849Y0205290D02*
X0036029Y0205070D01*
X0035509Y0205371D01*
X0035289Y0206191D01*
X0171459Y0077931D02*
X0172660Y0077931D01*
X0172060Y0077931D02*
X0172060Y0074928D01*
X0171459Y0074328D01*
X0170859Y0074328D01*
X0170258Y0074928D01*
X0173942Y0074328D02*
X0176344Y0074328D01*
X0175143Y0074328D02*
X0175143Y0077931D01*
X0173942Y0076730D01*
X0253652Y0114454D02*
X0253777Y0115648D01*
X0253714Y0115051D02*
X0256701Y0114737D01*
X0257235Y0114077D01*
X0257172Y0113480D01*
X0256512Y0112945D01*
X0256897Y0116608D02*
X0257557Y0117143D01*
X0257683Y0118337D01*
X0257148Y0118997D01*
X0256551Y0119060D01*
X0255891Y0118525D01*
X0255703Y0116734D01*
X0256897Y0116608D01*
X0255703Y0116734D02*
X0254634Y0118054D01*
X0254162Y0119311D01*
X0242200Y0245655D02*
X0243665Y0248946D01*
X0241287Y0248033D01*
X0243481Y0247056D01*
X0240849Y0250200D02*
X0239752Y0250688D01*
X0240300Y0250444D02*
X0239079Y0247701D01*
X0238286Y0247397D01*
X0237738Y0247641D01*
X0237433Y0248434D01*
D17*
X0207292Y0131450D03*
X0207292Y0131400D03*
X0207292Y0131350D03*
X0207242Y0131250D03*
X0207242Y0131200D03*
X0207242Y0131150D03*
X0207192Y0131050D03*
X0207192Y0131000D03*
X0207192Y0130950D03*
X0207142Y0130850D03*
X0207142Y0130800D03*
X0207142Y0130750D03*
X0207092Y0130650D03*
X0207092Y0130600D03*
X0207092Y0130550D03*
X0207042Y0130450D03*
X0207042Y0130400D03*
X0207042Y0130350D03*
X0207042Y0130300D03*
X0206992Y0130250D03*
X0206992Y0130200D03*
X0206992Y0130150D03*
X0206992Y0130100D03*
X0206942Y0130050D03*
X0206942Y0130000D03*
X0206942Y0129950D03*
X0206942Y0129900D03*
X0206892Y0129850D03*
X0206892Y0129800D03*
X0206892Y0129750D03*
X0206892Y0129700D03*
X0206842Y0129650D03*
X0206842Y0129600D03*
X0206842Y0129550D03*
X0206842Y0129500D03*
X0206792Y0129450D03*
X0206792Y0129400D03*
X0206792Y0129350D03*
X0206792Y0129300D03*
X0206742Y0129250D03*
X0206742Y0129200D03*
X0206742Y0129150D03*
X0206742Y0129100D03*
X0206692Y0129000D03*
X0206692Y0128950D03*
X0206692Y0128900D03*
X0206642Y0128800D03*
X0206642Y0128750D03*
X0206642Y0128700D03*
X0206592Y0128600D03*
X0206592Y0128550D03*
X0206592Y0128500D03*
X0205142Y0128900D03*
X0205142Y0128950D03*
X0203692Y0129250D03*
X0203692Y0129300D03*
X0203692Y0129350D03*
X0203742Y0129450D03*
X0203742Y0129500D03*
X0203742Y0129550D03*
X0203792Y0129650D03*
X0203792Y0129700D03*
X0203792Y0129750D03*
X0203842Y0129850D03*
X0203842Y0129900D03*
X0203842Y0129950D03*
X0203892Y0130050D03*
X0203892Y0130100D03*
X0203892Y0130150D03*
X0203942Y0130250D03*
X0203942Y0130300D03*
X0203942Y0130350D03*
X0203992Y0130500D03*
X0203992Y0130550D03*
X0204042Y0130700D03*
X0204042Y0130750D03*
X0204092Y0130900D03*
X0204092Y0130950D03*
X0204142Y0131100D03*
X0204142Y0131150D03*
X0204192Y0131300D03*
X0204192Y0131350D03*
X0204242Y0131500D03*
X0203642Y0129150D03*
X0203642Y0129100D03*
X0203642Y0129050D03*
X0203592Y0128950D03*
X0203592Y0128900D03*
X0203592Y0128850D03*
X0203542Y0128750D03*
X0203542Y0128700D03*
X0203542Y0128650D03*
X0203492Y0128550D03*
X0203492Y0128500D03*
X0164192Y0119950D03*
D18*
X0166892Y0129350D03*
X0185442Y0119950D03*
X0201392Y0128550D03*
X0201392Y0128600D03*
X0201392Y0128650D03*
X0201442Y0128750D03*
X0201442Y0128800D03*
X0201442Y0128850D03*
X0201492Y0128950D03*
X0201492Y0129000D03*
X0201492Y0129050D03*
X0201542Y0129150D03*
X0201542Y0129200D03*
X0201542Y0129250D03*
X0201592Y0129350D03*
X0201592Y0129400D03*
X0201592Y0129450D03*
X0201642Y0129550D03*
X0201642Y0129600D03*
X0201642Y0129650D03*
X0201692Y0129750D03*
X0201692Y0129800D03*
X0201692Y0129850D03*
X0201742Y0130000D03*
X0201742Y0130050D03*
X0201792Y0130200D03*
X0201792Y0130250D03*
X0201842Y0130400D03*
X0201842Y0130450D03*
X0201892Y0130600D03*
X0201892Y0130650D03*
X0201942Y0130800D03*
X0201942Y0130850D03*
X0201992Y0131000D03*
X0201992Y0131050D03*
X0202042Y0131200D03*
X0202042Y0131250D03*
X0202092Y0131400D03*
X0202092Y0131450D03*
X0202142Y0131600D03*
X0202142Y0131650D03*
X0202192Y0131800D03*
X0202192Y0131850D03*
X0205192Y0129200D03*
X0205192Y0129150D03*
X0205192Y0129100D03*
D19*
X0188267Y0129450D03*
X0166817Y0129300D03*
X0161517Y0128650D03*
X0164317Y0120000D03*
D20*
X0161567Y0128750D03*
X0161617Y0128800D03*
X0185517Y0120000D03*
D21*
X0164392Y0120050D03*
X0161042Y0127900D03*
D22*
X0161067Y0127950D03*
X0161117Y0128000D03*
X0166767Y0129250D03*
X0185567Y0120050D03*
D23*
X0184142Y0122150D03*
X0184142Y0122200D03*
X0184142Y0122250D03*
X0184192Y0123450D03*
X0184192Y0123500D03*
X0184242Y0123700D03*
X0184242Y0123750D03*
X0184242Y0123800D03*
X0184292Y0123900D03*
X0184292Y0123950D03*
X0184292Y0124000D03*
X0184292Y0124050D03*
X0184342Y0124150D03*
X0184342Y0124200D03*
X0184342Y0124250D03*
X0184392Y0124350D03*
X0184392Y0124400D03*
X0184392Y0124450D03*
X0184392Y0124500D03*
X0184442Y0124550D03*
X0184442Y0124600D03*
X0184442Y0124650D03*
X0184442Y0124700D03*
X0184492Y0124750D03*
X0184492Y0124800D03*
X0184492Y0124850D03*
X0184542Y0124950D03*
X0184542Y0125000D03*
X0184542Y0125050D03*
X0184592Y0125100D03*
X0184592Y0125150D03*
X0184592Y0125200D03*
X0184642Y0125300D03*
X0184642Y0125350D03*
X0184692Y0125500D03*
X0184742Y0125650D03*
X0185392Y0127200D03*
X0185442Y0127250D03*
X0185492Y0127300D03*
X0181592Y0129000D03*
X0181592Y0129050D03*
X0181542Y0128850D03*
X0181542Y0128800D03*
X0181492Y0128650D03*
X0181492Y0128600D03*
X0181442Y0128450D03*
X0181442Y0128400D03*
X0181392Y0128250D03*
X0181392Y0128200D03*
X0181342Y0128050D03*
X0181342Y0128000D03*
X0181292Y0127850D03*
X0181292Y0127800D03*
X0181242Y0127650D03*
X0181242Y0127600D03*
X0181192Y0127450D03*
X0181192Y0127400D03*
X0181142Y0127250D03*
X0181142Y0127200D03*
X0181092Y0127050D03*
X0181092Y0127000D03*
X0181042Y0126850D03*
X0181042Y0126800D03*
X0180992Y0126650D03*
X0180992Y0126600D03*
X0180942Y0126450D03*
X0180942Y0126400D03*
X0180892Y0126250D03*
X0180892Y0126200D03*
X0180842Y0126050D03*
X0180842Y0126000D03*
X0180792Y0125850D03*
X0180792Y0125800D03*
X0180742Y0125650D03*
X0180742Y0125600D03*
X0180692Y0125450D03*
X0180692Y0125400D03*
X0180642Y0125250D03*
X0180642Y0125200D03*
X0180592Y0125050D03*
X0180592Y0125000D03*
X0180542Y0124850D03*
X0180542Y0124800D03*
X0180492Y0124650D03*
X0180492Y0124600D03*
X0180442Y0124450D03*
X0180442Y0124400D03*
X0180392Y0124250D03*
X0180392Y0124200D03*
X0180342Y0124050D03*
X0180342Y0124000D03*
X0180292Y0123850D03*
X0180292Y0123800D03*
X0180242Y0123650D03*
X0180242Y0123600D03*
X0180192Y0123450D03*
X0180192Y0123400D03*
X0180142Y0123250D03*
X0180142Y0123200D03*
X0180092Y0123050D03*
X0180092Y0123000D03*
X0180042Y0122850D03*
X0180042Y0122800D03*
X0179992Y0122650D03*
X0179992Y0122600D03*
X0179942Y0122450D03*
X0179942Y0122400D03*
X0179892Y0122250D03*
X0179892Y0122200D03*
X0179842Y0122050D03*
X0179842Y0122000D03*
X0179792Y0121850D03*
X0179792Y0121800D03*
X0179742Y0121650D03*
X0179742Y0121600D03*
X0179692Y0121450D03*
X0179692Y0121400D03*
X0179642Y0121250D03*
X0179642Y0121200D03*
X0179592Y0121050D03*
X0179592Y0121000D03*
X0179542Y0120850D03*
X0179542Y0120800D03*
X0179492Y0120650D03*
X0179492Y0120600D03*
X0179442Y0120450D03*
X0179442Y0120400D03*
X0179392Y0120250D03*
X0179392Y0120200D03*
X0191742Y0120200D03*
X0191742Y0120250D03*
X0191792Y0120400D03*
X0191792Y0120450D03*
X0191842Y0120600D03*
X0191842Y0120650D03*
X0191892Y0120800D03*
X0191892Y0120850D03*
X0191942Y0121000D03*
X0191942Y0121050D03*
X0191992Y0121200D03*
X0191992Y0121250D03*
X0192042Y0121400D03*
X0192042Y0121450D03*
X0192092Y0121600D03*
X0192092Y0121650D03*
X0192142Y0121800D03*
X0192142Y0121850D03*
X0192192Y0122000D03*
X0192192Y0122050D03*
X0192242Y0122200D03*
X0192242Y0122250D03*
X0192292Y0122400D03*
X0192292Y0122450D03*
X0192342Y0122550D03*
X0193242Y0126250D03*
X0193242Y0126300D03*
X0193292Y0126450D03*
X0193292Y0126500D03*
X0193342Y0126650D03*
X0193342Y0126700D03*
X0193392Y0126850D03*
X0193392Y0126900D03*
X0193442Y0127050D03*
X0193442Y0127100D03*
X0193492Y0127250D03*
X0193492Y0127300D03*
X0193542Y0127450D03*
X0193542Y0127500D03*
X0193592Y0127650D03*
X0193592Y0127700D03*
X0193642Y0127850D03*
X0193642Y0127900D03*
X0193692Y0128050D03*
X0193692Y0128100D03*
X0193742Y0128250D03*
X0193742Y0128300D03*
X0193792Y0128450D03*
X0193792Y0128500D03*
X0193842Y0128650D03*
X0193842Y0128700D03*
X0193892Y0128850D03*
X0193892Y0128900D03*
X0193942Y0129050D03*
X0193942Y0129100D03*
X0193992Y0129250D03*
X0193992Y0129300D03*
X0194042Y0129450D03*
X0194042Y0129500D03*
X0194092Y0129650D03*
X0194092Y0129700D03*
X0194142Y0129850D03*
X0194142Y0129900D03*
X0194192Y0130050D03*
X0194192Y0130100D03*
X0194242Y0130250D03*
X0194242Y0130300D03*
X0194292Y0130500D03*
X0194342Y0130700D03*
X0194392Y0130900D03*
X0194442Y0131100D03*
X0194492Y0131300D03*
X0194542Y0131500D03*
X0194592Y0131700D03*
X0194642Y0131900D03*
X0194692Y0132100D03*
X0197392Y0127550D03*
X0197342Y0127500D03*
X0197292Y0127450D03*
X0197192Y0127300D03*
X0197142Y0127250D03*
X0197092Y0127200D03*
X0197042Y0127150D03*
X0196992Y0127100D03*
X0196942Y0127050D03*
X0196692Y0126750D03*
X0166742Y0129200D03*
X0163142Y0124150D03*
X0163142Y0124100D03*
X0163092Y0123950D03*
X0163092Y0123900D03*
X0163042Y0123700D03*
X0162942Y0121850D03*
X0162992Y0121800D03*
X0164392Y0120100D03*
X0166692Y0121800D03*
X0157442Y0124200D03*
X0157442Y0124250D03*
X0157492Y0124400D03*
X0157492Y0124450D03*
X0157542Y0124600D03*
X0157542Y0124650D03*
X0157592Y0124800D03*
X0157592Y0124850D03*
X0157642Y0125000D03*
X0157642Y0125050D03*
X0157692Y0125200D03*
X0157692Y0125250D03*
X0157742Y0125350D03*
X0157742Y0125400D03*
X0157742Y0125450D03*
X0157792Y0125500D03*
X0157792Y0125550D03*
X0157392Y0124050D03*
X0157392Y0124000D03*
X0157342Y0123850D03*
X0157342Y0123800D03*
X0157292Y0123650D03*
X0157292Y0123600D03*
X0157242Y0123450D03*
X0157242Y0123400D03*
X0157192Y0123250D03*
X0157192Y0123200D03*
X0157142Y0123050D03*
X0157142Y0123000D03*
X0157092Y0122850D03*
X0157092Y0122800D03*
X0157042Y0122650D03*
X0157042Y0122600D03*
X0156992Y0122450D03*
X0156992Y0122400D03*
X0156942Y0122250D03*
X0156942Y0122200D03*
X0156892Y0122050D03*
X0156892Y0122000D03*
X0156842Y0121850D03*
X0156842Y0121800D03*
X0156792Y0121650D03*
X0156792Y0121600D03*
X0156742Y0121450D03*
X0156742Y0121400D03*
X0156692Y0121250D03*
X0156692Y0121200D03*
X0156642Y0121050D03*
X0156642Y0121000D03*
X0156592Y0120850D03*
X0156592Y0120800D03*
X0156542Y0120650D03*
X0156542Y0120600D03*
X0156492Y0120450D03*
X0156492Y0120400D03*
X0156442Y0120250D03*
X0156442Y0120200D03*
X0152492Y0121200D03*
X0152492Y0121250D03*
X0152542Y0121400D03*
X0152542Y0121450D03*
X0152592Y0121600D03*
X0152592Y0121650D03*
X0152642Y0121800D03*
X0152642Y0121850D03*
X0152692Y0122000D03*
X0152692Y0122050D03*
X0152742Y0122200D03*
X0152742Y0122250D03*
X0152792Y0122400D03*
X0152792Y0122450D03*
X0152842Y0122600D03*
X0152842Y0122650D03*
X0152892Y0122800D03*
X0152892Y0122850D03*
X0152942Y0123000D03*
X0152942Y0123050D03*
X0152992Y0123200D03*
X0152992Y0123250D03*
X0153042Y0123400D03*
X0153042Y0123450D03*
X0153092Y0123600D03*
X0153092Y0123650D03*
X0153142Y0123800D03*
X0153142Y0123850D03*
X0153192Y0124000D03*
X0153192Y0124050D03*
X0153242Y0124200D03*
X0153242Y0124250D03*
X0153292Y0124400D03*
X0153292Y0124450D03*
X0153342Y0124600D03*
X0153342Y0124650D03*
X0153392Y0124800D03*
X0153392Y0124850D03*
X0153442Y0125000D03*
X0153442Y0125050D03*
X0153492Y0125200D03*
X0153492Y0125250D03*
X0153542Y0125400D03*
X0153542Y0125450D03*
X0153592Y0125600D03*
X0153592Y0125650D03*
X0153642Y0125800D03*
X0153642Y0125850D03*
X0153692Y0126000D03*
X0153692Y0126050D03*
X0153742Y0126200D03*
X0153742Y0126250D03*
X0153792Y0126400D03*
X0153792Y0126450D03*
X0153842Y0126600D03*
X0153842Y0126650D03*
X0153892Y0126800D03*
X0153892Y0126850D03*
X0153942Y0127000D03*
X0153942Y0127050D03*
X0153992Y0127200D03*
X0153992Y0127250D03*
X0154042Y0127400D03*
X0154042Y0127450D03*
X0154092Y0127600D03*
X0154092Y0127650D03*
X0154142Y0127800D03*
X0154142Y0127850D03*
X0154192Y0128000D03*
X0154192Y0128050D03*
X0154242Y0128200D03*
X0154242Y0128250D03*
X0154292Y0128400D03*
X0154292Y0128450D03*
X0154342Y0128600D03*
X0154342Y0128650D03*
X0154392Y0128800D03*
X0154392Y0128850D03*
X0154442Y0129000D03*
X0154442Y0129050D03*
X0154642Y0129850D03*
X0154642Y0129900D03*
X0154692Y0130050D03*
X0154692Y0130100D03*
X0154742Y0130250D03*
X0154742Y0130300D03*
X0154792Y0130450D03*
X0154792Y0130500D03*
X0154842Y0130650D03*
X0154842Y0130700D03*
X0154892Y0130850D03*
X0154892Y0130900D03*
X0154942Y0131050D03*
X0154942Y0131100D03*
X0154992Y0131250D03*
X0154992Y0131300D03*
X0155042Y0131500D03*
X0155092Y0131700D03*
X0155142Y0131900D03*
X0155192Y0132100D03*
X0152442Y0121050D03*
X0152442Y0121000D03*
X0152392Y0120850D03*
X0152392Y0120800D03*
X0152342Y0120650D03*
X0152342Y0120600D03*
X0152292Y0120450D03*
X0152292Y0120400D03*
X0152242Y0120250D03*
X0152242Y0120200D03*
D24*
X0152217Y0120150D03*
X0152267Y0120300D03*
X0152267Y0120350D03*
X0152317Y0120500D03*
X0152317Y0120550D03*
X0152367Y0120700D03*
X0152367Y0120750D03*
X0152417Y0120900D03*
X0152417Y0120950D03*
X0152467Y0121100D03*
X0152467Y0121150D03*
X0152517Y0121300D03*
X0152517Y0121350D03*
X0152567Y0121500D03*
X0152567Y0121550D03*
X0152617Y0121700D03*
X0152617Y0121750D03*
X0152667Y0121900D03*
X0152667Y0121950D03*
X0152717Y0122100D03*
X0152717Y0122150D03*
X0152767Y0122300D03*
X0152767Y0122350D03*
X0152817Y0122500D03*
X0152817Y0122550D03*
X0152867Y0122700D03*
X0152867Y0122750D03*
X0152917Y0122900D03*
X0152917Y0122950D03*
X0152967Y0123100D03*
X0152967Y0123150D03*
X0153017Y0123300D03*
X0153017Y0123350D03*
X0153067Y0123500D03*
X0153067Y0123550D03*
X0153117Y0123700D03*
X0153117Y0123750D03*
X0153167Y0123900D03*
X0153167Y0123950D03*
X0153217Y0124100D03*
X0153217Y0124150D03*
X0153267Y0124300D03*
X0153267Y0124350D03*
X0153317Y0124500D03*
X0153317Y0124550D03*
X0153367Y0124700D03*
X0153367Y0124750D03*
X0153417Y0124900D03*
X0153417Y0124950D03*
X0153467Y0125100D03*
X0153467Y0125150D03*
X0153517Y0125300D03*
X0153517Y0125350D03*
X0153567Y0125500D03*
X0153567Y0125550D03*
X0153617Y0125700D03*
X0153617Y0125750D03*
X0153667Y0125900D03*
X0153667Y0125950D03*
X0153717Y0126100D03*
X0153717Y0126150D03*
X0153767Y0126300D03*
X0153767Y0126350D03*
X0153817Y0126500D03*
X0153817Y0126550D03*
X0153867Y0126700D03*
X0153867Y0126750D03*
X0153917Y0126900D03*
X0153917Y0126950D03*
X0153967Y0127100D03*
X0153967Y0127150D03*
X0154017Y0127300D03*
X0154017Y0127350D03*
X0154067Y0127500D03*
X0154067Y0127550D03*
X0154117Y0127700D03*
X0154117Y0127750D03*
X0154167Y0127900D03*
X0154167Y0127950D03*
X0154217Y0128100D03*
X0154217Y0128150D03*
X0154267Y0128300D03*
X0154267Y0128350D03*
X0154317Y0128500D03*
X0154317Y0128550D03*
X0154367Y0128700D03*
X0154367Y0128750D03*
X0154417Y0128900D03*
X0154417Y0128950D03*
X0154467Y0129100D03*
X0154667Y0129950D03*
X0154667Y0130000D03*
X0154717Y0130150D03*
X0154717Y0130200D03*
X0154767Y0130350D03*
X0154767Y0130400D03*
X0154817Y0130550D03*
X0154817Y0130600D03*
X0154867Y0130750D03*
X0154867Y0130800D03*
X0154917Y0130950D03*
X0154917Y0131000D03*
X0154967Y0131150D03*
X0154967Y0131200D03*
X0155017Y0131350D03*
X0155017Y0131400D03*
X0155017Y0131450D03*
X0155067Y0131550D03*
X0155067Y0131600D03*
X0155067Y0131650D03*
X0155117Y0131750D03*
X0155117Y0131800D03*
X0155117Y0131850D03*
X0155167Y0131950D03*
X0155167Y0132000D03*
X0155167Y0132050D03*
X0157717Y0125300D03*
X0157667Y0125150D03*
X0157667Y0125100D03*
X0157617Y0124950D03*
X0157617Y0124900D03*
X0157567Y0124750D03*
X0157567Y0124700D03*
X0157517Y0124550D03*
X0157517Y0124500D03*
X0157467Y0124350D03*
X0157467Y0124300D03*
X0157417Y0124150D03*
X0157417Y0124100D03*
X0157367Y0123950D03*
X0157367Y0123900D03*
X0157317Y0123750D03*
X0157317Y0123700D03*
X0157267Y0123550D03*
X0157267Y0123500D03*
X0157217Y0123350D03*
X0157217Y0123300D03*
X0157167Y0123150D03*
X0157167Y0123100D03*
X0157117Y0122950D03*
X0157117Y0122900D03*
X0157067Y0122750D03*
X0157067Y0122700D03*
X0157017Y0122550D03*
X0157017Y0122500D03*
X0156967Y0122350D03*
X0156967Y0122300D03*
X0156917Y0122150D03*
X0156917Y0122100D03*
X0156867Y0121950D03*
X0156867Y0121900D03*
X0156817Y0121750D03*
X0156817Y0121700D03*
X0156767Y0121550D03*
X0156767Y0121500D03*
X0156717Y0121350D03*
X0156717Y0121300D03*
X0156667Y0121150D03*
X0156667Y0121100D03*
X0156617Y0120950D03*
X0156617Y0120900D03*
X0156567Y0120750D03*
X0156567Y0120700D03*
X0156517Y0120550D03*
X0156517Y0120500D03*
X0156467Y0120350D03*
X0156467Y0120300D03*
X0156417Y0120150D03*
X0162917Y0121900D03*
X0162967Y0123300D03*
X0162967Y0123350D03*
X0162967Y0123400D03*
X0163017Y0123500D03*
X0163017Y0123550D03*
X0163017Y0123600D03*
X0163017Y0123650D03*
X0163067Y0123750D03*
X0163067Y0123800D03*
X0163067Y0123850D03*
X0163117Y0124000D03*
X0163117Y0124050D03*
X0163617Y0125900D03*
X0164317Y0127350D03*
X0164367Y0127400D03*
X0180167Y0123350D03*
X0180167Y0123300D03*
X0180117Y0123150D03*
X0180117Y0123100D03*
X0180067Y0122950D03*
X0180067Y0122900D03*
X0180017Y0122750D03*
X0180017Y0122700D03*
X0179967Y0122550D03*
X0179967Y0122500D03*
X0179917Y0122350D03*
X0179917Y0122300D03*
X0179867Y0122150D03*
X0179867Y0122100D03*
X0179817Y0121950D03*
X0179817Y0121900D03*
X0179767Y0121750D03*
X0179767Y0121700D03*
X0179717Y0121550D03*
X0179717Y0121500D03*
X0179667Y0121350D03*
X0179667Y0121300D03*
X0179617Y0121150D03*
X0179617Y0121100D03*
X0179567Y0120950D03*
X0179567Y0120900D03*
X0179517Y0120750D03*
X0179517Y0120700D03*
X0179467Y0120550D03*
X0179467Y0120500D03*
X0179417Y0120350D03*
X0179417Y0120300D03*
X0179367Y0120150D03*
X0180217Y0123500D03*
X0180217Y0123550D03*
X0180267Y0123700D03*
X0180267Y0123750D03*
X0180317Y0123900D03*
X0180317Y0123950D03*
X0180367Y0124100D03*
X0180367Y0124150D03*
X0180417Y0124300D03*
X0180417Y0124350D03*
X0180467Y0124500D03*
X0180467Y0124550D03*
X0180517Y0124700D03*
X0180517Y0124750D03*
X0180567Y0124900D03*
X0180567Y0124950D03*
X0180617Y0125100D03*
X0180617Y0125150D03*
X0180667Y0125300D03*
X0180667Y0125350D03*
X0180717Y0125500D03*
X0180717Y0125550D03*
X0180767Y0125700D03*
X0180767Y0125750D03*
X0180817Y0125900D03*
X0180817Y0125950D03*
X0180867Y0126100D03*
X0180867Y0126150D03*
X0180917Y0126300D03*
X0180917Y0126350D03*
X0180967Y0126500D03*
X0180967Y0126550D03*
X0181017Y0126700D03*
X0181017Y0126750D03*
X0181067Y0126900D03*
X0181067Y0126950D03*
X0181117Y0127100D03*
X0181117Y0127150D03*
X0181167Y0127300D03*
X0181167Y0127350D03*
X0181217Y0127500D03*
X0181217Y0127550D03*
X0181267Y0127700D03*
X0181267Y0127750D03*
X0181317Y0127900D03*
X0181317Y0127950D03*
X0181367Y0128100D03*
X0181367Y0128150D03*
X0181417Y0128300D03*
X0181417Y0128350D03*
X0181467Y0128500D03*
X0181467Y0128550D03*
X0181517Y0128700D03*
X0181517Y0128750D03*
X0181567Y0128900D03*
X0181567Y0128950D03*
X0181617Y0129100D03*
X0185317Y0127100D03*
X0185317Y0127050D03*
X0185267Y0127000D03*
X0185217Y0126900D03*
X0185167Y0126800D03*
X0185117Y0126700D03*
X0185067Y0126600D03*
X0185067Y0126550D03*
X0185017Y0126450D03*
X0184967Y0126350D03*
X0184967Y0126300D03*
X0184917Y0126200D03*
X0184917Y0126150D03*
X0184867Y0126100D03*
X0184867Y0126050D03*
X0184867Y0126000D03*
X0184817Y0125950D03*
X0184817Y0125900D03*
X0184817Y0125850D03*
X0184767Y0125800D03*
X0184767Y0125750D03*
X0184767Y0125700D03*
X0184717Y0125600D03*
X0184717Y0125550D03*
X0184667Y0125450D03*
X0184667Y0125400D03*
X0184617Y0125250D03*
X0184517Y0124900D03*
X0184367Y0124300D03*
X0184317Y0124100D03*
X0184267Y0123850D03*
X0184217Y0123650D03*
X0184217Y0123600D03*
X0184217Y0123550D03*
X0184167Y0123400D03*
X0184167Y0123350D03*
X0184167Y0123300D03*
X0184167Y0123250D03*
X0184167Y0123200D03*
X0184167Y0123150D03*
X0184117Y0123100D03*
X0184117Y0123050D03*
X0184117Y0123000D03*
X0184117Y0122950D03*
X0184117Y0122900D03*
X0184117Y0122850D03*
X0184117Y0122800D03*
X0184117Y0122750D03*
X0184117Y0122700D03*
X0184117Y0122650D03*
X0184117Y0122600D03*
X0184117Y0122550D03*
X0184117Y0122500D03*
X0184117Y0122450D03*
X0184117Y0122400D03*
X0184117Y0122350D03*
X0184117Y0122300D03*
X0185617Y0120100D03*
X0188117Y0122050D03*
X0188167Y0122100D03*
X0191967Y0121150D03*
X0191967Y0121100D03*
X0191917Y0120950D03*
X0191917Y0120900D03*
X0191867Y0120750D03*
X0191867Y0120700D03*
X0191817Y0120550D03*
X0191817Y0120500D03*
X0191767Y0120350D03*
X0191767Y0120300D03*
X0191717Y0120150D03*
X0192017Y0121300D03*
X0192017Y0121350D03*
X0192067Y0121500D03*
X0192067Y0121550D03*
X0192117Y0121700D03*
X0192117Y0121750D03*
X0192167Y0121900D03*
X0192167Y0121950D03*
X0192217Y0122100D03*
X0192217Y0122150D03*
X0192267Y0122300D03*
X0192267Y0122350D03*
X0192317Y0122500D03*
X0193217Y0126200D03*
X0193267Y0126350D03*
X0193267Y0126400D03*
X0193317Y0126550D03*
X0193317Y0126600D03*
X0193367Y0126750D03*
X0193367Y0126800D03*
X0193417Y0126950D03*
X0193417Y0127000D03*
X0193467Y0127150D03*
X0193467Y0127200D03*
X0193517Y0127350D03*
X0193517Y0127400D03*
X0193567Y0127550D03*
X0193567Y0127600D03*
X0193617Y0127750D03*
X0193617Y0127800D03*
X0193667Y0127950D03*
X0193667Y0128000D03*
X0193717Y0128150D03*
X0193717Y0128200D03*
X0193767Y0128350D03*
X0193767Y0128400D03*
X0193817Y0128550D03*
X0193817Y0128600D03*
X0193867Y0128750D03*
X0193867Y0128800D03*
X0193917Y0128950D03*
X0193917Y0129000D03*
X0193967Y0129150D03*
X0193967Y0129200D03*
X0194017Y0129350D03*
X0194017Y0129400D03*
X0194067Y0129550D03*
X0194067Y0129600D03*
X0194117Y0129750D03*
X0194117Y0129800D03*
X0194167Y0129950D03*
X0194167Y0130000D03*
X0194217Y0130150D03*
X0194217Y0130200D03*
X0194267Y0130350D03*
X0194267Y0130400D03*
X0194267Y0130450D03*
X0194317Y0130550D03*
X0194317Y0130600D03*
X0194317Y0130650D03*
X0194367Y0130750D03*
X0194367Y0130800D03*
X0194367Y0130850D03*
X0194417Y0130950D03*
X0194417Y0131000D03*
X0194417Y0131050D03*
X0194467Y0131150D03*
X0194467Y0131200D03*
X0194467Y0131250D03*
X0194517Y0131350D03*
X0194517Y0131400D03*
X0194517Y0131450D03*
X0194567Y0131550D03*
X0194567Y0131600D03*
X0194567Y0131650D03*
X0194617Y0131750D03*
X0194617Y0131800D03*
X0194617Y0131850D03*
X0194667Y0131950D03*
X0194667Y0132000D03*
X0194667Y0132050D03*
X0196917Y0127000D03*
X0196867Y0126950D03*
X0196817Y0126900D03*
X0196767Y0126850D03*
X0196717Y0126800D03*
X0196667Y0126700D03*
X0196617Y0126650D03*
X0196567Y0126600D03*
X0196517Y0126550D03*
X0196467Y0126500D03*
X0189467Y0127500D03*
X0185367Y0127150D03*
D25*
X0185667Y0127500D03*
X0188167Y0129350D03*
X0196017Y0123200D03*
X0196017Y0123150D03*
X0196067Y0123100D03*
X0196067Y0123050D03*
X0196067Y0123000D03*
X0196067Y0122950D03*
X0196117Y0122900D03*
X0196117Y0122850D03*
X0196117Y0122800D03*
X0196117Y0122750D03*
X0196167Y0122700D03*
X0196167Y0122650D03*
X0196167Y0122600D03*
X0196217Y0122500D03*
X0196217Y0122450D03*
X0196217Y0122400D03*
X0196267Y0122250D03*
X0196317Y0122050D03*
X0196367Y0121850D03*
X0192467Y0122750D03*
X0192467Y0122800D03*
X0187967Y0121950D03*
X0184217Y0122000D03*
X0171767Y0124600D03*
X0171767Y0124650D03*
X0171767Y0124700D03*
X0171717Y0124500D03*
X0171717Y0124450D03*
X0171717Y0124400D03*
X0171667Y0124300D03*
X0171667Y0124250D03*
X0171667Y0124200D03*
X0171617Y0124100D03*
X0171617Y0124050D03*
X0171617Y0124000D03*
X0171567Y0123900D03*
X0171567Y0123850D03*
X0171567Y0123800D03*
X0171567Y0123750D03*
X0171517Y0123700D03*
X0171517Y0123650D03*
X0171517Y0123600D03*
X0171517Y0123550D03*
X0171467Y0123500D03*
X0171467Y0123450D03*
X0171467Y0123400D03*
X0171467Y0123350D03*
X0171417Y0123300D03*
X0171417Y0123250D03*
X0171417Y0123200D03*
X0171417Y0123150D03*
X0171367Y0123100D03*
X0171367Y0123050D03*
X0171367Y0123000D03*
X0171367Y0122950D03*
X0171317Y0122900D03*
X0171317Y0122850D03*
X0171317Y0122800D03*
X0171317Y0122750D03*
X0171267Y0122700D03*
X0171267Y0122650D03*
X0171267Y0122600D03*
X0171267Y0122550D03*
X0171217Y0122450D03*
X0171217Y0122400D03*
X0171217Y0122350D03*
X0171167Y0122250D03*
X0171167Y0122200D03*
X0171167Y0122150D03*
X0171117Y0122050D03*
X0171117Y0122000D03*
X0171117Y0121950D03*
X0171067Y0121850D03*
X0171067Y0121800D03*
X0171067Y0121750D03*
X0171017Y0121650D03*
X0171017Y0121600D03*
X0171017Y0121550D03*
X0170967Y0121450D03*
X0170967Y0121400D03*
X0170967Y0121350D03*
X0170917Y0121250D03*
X0170917Y0121200D03*
X0170917Y0121150D03*
X0170867Y0121050D03*
X0170867Y0121000D03*
X0170867Y0120950D03*
X0170867Y0120900D03*
X0170817Y0120850D03*
X0170817Y0120800D03*
X0170817Y0120750D03*
X0170817Y0120700D03*
X0170767Y0120650D03*
X0170767Y0120600D03*
X0170767Y0120550D03*
X0170767Y0120500D03*
X0170717Y0120450D03*
X0170717Y0120400D03*
X0170717Y0120350D03*
X0170717Y0120300D03*
X0170667Y0120250D03*
X0170667Y0120200D03*
X0170667Y0120150D03*
X0166567Y0121750D03*
X0163067Y0121750D03*
X0164517Y0127500D03*
X0157967Y0125900D03*
X0157917Y0125850D03*
X0146717Y0128550D03*
X0146717Y0128600D03*
X0146717Y0128650D03*
X0146767Y0128750D03*
X0146767Y0128800D03*
X0146767Y0128850D03*
X0146817Y0128950D03*
X0146817Y0129000D03*
X0146817Y0129050D03*
X0146867Y0129150D03*
X0146867Y0129200D03*
X0146867Y0129250D03*
X0146867Y0129300D03*
X0146917Y0129350D03*
X0146917Y0129400D03*
X0146917Y0129450D03*
X0146917Y0129500D03*
X0146967Y0129550D03*
X0146967Y0129600D03*
X0146667Y0128450D03*
X0146667Y0128400D03*
X0146667Y0128350D03*
X0146617Y0128250D03*
X0146617Y0128200D03*
X0146617Y0128150D03*
X0146567Y0128050D03*
X0146567Y0128000D03*
X0146567Y0127950D03*
X0146517Y0127850D03*
X0146517Y0127800D03*
X0146517Y0127750D03*
X0146467Y0127650D03*
X0146467Y0127600D03*
X0146467Y0127550D03*
X0145817Y0125050D03*
X0145817Y0125000D03*
X0145817Y0124950D03*
X0145767Y0124850D03*
X0145767Y0124800D03*
X0145767Y0124750D03*
X0145717Y0124650D03*
X0145717Y0124600D03*
X0145717Y0124550D03*
X0145667Y0124450D03*
X0145667Y0124400D03*
X0145667Y0124350D03*
X0145617Y0124250D03*
X0145617Y0124200D03*
X0145617Y0124150D03*
X0145567Y0124050D03*
X0145567Y0124000D03*
X0145567Y0123950D03*
X0145517Y0123850D03*
X0145517Y0123800D03*
X0145517Y0123750D03*
X0145467Y0123650D03*
X0145467Y0123600D03*
X0145467Y0123550D03*
X0145417Y0123450D03*
X0145417Y0123400D03*
X0145417Y0123350D03*
X0145367Y0123250D03*
X0145367Y0123200D03*
X0145367Y0123150D03*
X0145317Y0123050D03*
X0145317Y0123000D03*
X0145317Y0122950D03*
X0145317Y0122900D03*
X0145267Y0122850D03*
X0145267Y0122800D03*
X0145267Y0122750D03*
X0145267Y0122700D03*
X0145217Y0122650D03*
X0145217Y0122600D03*
X0145217Y0122550D03*
X0145217Y0122500D03*
X0145167Y0122450D03*
X0145167Y0122400D03*
X0145167Y0122350D03*
X0145167Y0122300D03*
X0145117Y0122250D03*
X0145117Y0122200D03*
X0145117Y0122150D03*
X0145117Y0122100D03*
X0145067Y0122050D03*
X0145067Y0122000D03*
X0145067Y0121950D03*
X0145067Y0121900D03*
X0145017Y0121850D03*
X0145017Y0121800D03*
X0145017Y0121750D03*
X0145017Y0121700D03*
X0144967Y0121650D03*
X0144967Y0121600D03*
X0144967Y0121550D03*
X0144967Y0121500D03*
X0144917Y0121450D03*
X0144917Y0121400D03*
X0144917Y0121350D03*
X0144917Y0121300D03*
X0144867Y0121250D03*
X0144867Y0121200D03*
X0144867Y0121150D03*
X0144867Y0121100D03*
X0144817Y0121050D03*
X0144817Y0121000D03*
X0144817Y0120950D03*
X0144817Y0120900D03*
X0144767Y0120850D03*
X0144767Y0120800D03*
X0144767Y0120750D03*
X0144767Y0120700D03*
X0144717Y0120650D03*
X0144717Y0120600D03*
X0144717Y0120550D03*
X0144717Y0120500D03*
X0144667Y0120450D03*
X0144667Y0120400D03*
X0144667Y0120350D03*
X0144667Y0120300D03*
X0144617Y0120250D03*
X0144617Y0120200D03*
X0144617Y0120150D03*
X0172367Y0127050D03*
X0172417Y0127150D03*
X0172417Y0127200D03*
X0172417Y0127250D03*
X0172467Y0127400D03*
X0172467Y0127450D03*
X0172517Y0127600D03*
X0172517Y0127650D03*
X0172517Y0127700D03*
X0172567Y0127800D03*
X0172567Y0127850D03*
X0172567Y0127900D03*
X0172617Y0128000D03*
X0172617Y0128050D03*
X0172617Y0128100D03*
X0172667Y0128200D03*
X0172667Y0128250D03*
X0172667Y0128300D03*
X0172717Y0128400D03*
X0172717Y0128450D03*
X0172717Y0128500D03*
X0172767Y0128600D03*
X0172767Y0128650D03*
X0172767Y0128700D03*
X0172817Y0128800D03*
X0172817Y0128850D03*
X0172817Y0128900D03*
X0172867Y0129000D03*
X0172867Y0129050D03*
X0172867Y0129100D03*
X0172917Y0129200D03*
X0172917Y0129250D03*
X0172917Y0129300D03*
X0172967Y0129400D03*
X0172967Y0129450D03*
X0172967Y0129500D03*
X0173017Y0129600D03*
X0173017Y0129650D03*
X0173017Y0129700D03*
X0173067Y0129800D03*
X0198167Y0128450D03*
X0198217Y0128500D03*
X0198267Y0128550D03*
X0198317Y0128600D03*
X0198367Y0128650D03*
X0198517Y0128850D03*
X0198567Y0128900D03*
X0198617Y0128950D03*
D26*
X0192667Y0123150D03*
X0192617Y0123050D03*
X0177417Y0127650D03*
X0177367Y0127550D03*
X0177317Y0127500D03*
X0177717Y0129500D03*
X0177717Y0129550D03*
X0164417Y0120150D03*
X0158117Y0126150D03*
D27*
X0158092Y0126100D03*
X0158042Y0126050D03*
X0166742Y0129150D03*
X0177392Y0127600D03*
X0177442Y0127700D03*
X0177492Y0127800D03*
X0177792Y0129200D03*
X0177792Y0129250D03*
X0177792Y0129300D03*
X0177792Y0129350D03*
X0177742Y0129400D03*
X0177742Y0129450D03*
X0184292Y0121950D03*
X0185642Y0120150D03*
X0192592Y0123000D03*
X0192642Y0123100D03*
D28*
X0192567Y0122950D03*
X0196517Y0121300D03*
X0196567Y0121100D03*
X0196617Y0120950D03*
X0196617Y0120900D03*
X0196617Y0120850D03*
X0196667Y0120750D03*
X0196667Y0120700D03*
X0196667Y0120650D03*
X0196717Y0120550D03*
X0196717Y0120500D03*
X0196717Y0120450D03*
X0196767Y0120400D03*
X0196767Y0120350D03*
X0196767Y0120300D03*
X0196767Y0120250D03*
X0196817Y0120200D03*
X0196817Y0120150D03*
X0189317Y0127600D03*
X0177817Y0129100D03*
X0177817Y0129150D03*
X0177617Y0128100D03*
X0177567Y0128000D03*
X0177567Y0127950D03*
X0177517Y0127900D03*
X0177517Y0127850D03*
X0177467Y0127750D03*
X0158017Y0126000D03*
D29*
X0158317Y0126350D03*
X0164417Y0120200D03*
X0177067Y0127200D03*
X0177617Y0129750D03*
D30*
X0177667Y0129700D03*
X0177167Y0127300D03*
X0177117Y0127250D03*
X0166717Y0129100D03*
X0158267Y0126300D03*
X0185667Y0120200D03*
D31*
X0176842Y0127050D03*
X0164442Y0120250D03*
D32*
X0158392Y0126400D03*
X0166692Y0129050D03*
X0176942Y0127100D03*
X0177542Y0129800D03*
X0185692Y0120250D03*
D33*
X0164442Y0120300D03*
D34*
X0158492Y0126450D03*
X0166692Y0129000D03*
X0185692Y0120300D03*
X0188092Y0129200D03*
D35*
X0185717Y0120350D03*
X0166667Y0128950D03*
X0164467Y0120350D03*
D36*
X0164467Y0120400D03*
D37*
X0166642Y0128900D03*
X0185742Y0120400D03*
X0188042Y0129100D03*
D38*
X0185742Y0120450D03*
X0164492Y0120450D03*
X0158842Y0126550D03*
D39*
X0164517Y0120500D03*
X0185767Y0120500D03*
X0188017Y0129000D03*
D40*
X0187992Y0128950D03*
X0185792Y0120550D03*
X0172692Y0124750D03*
X0164492Y0120550D03*
D41*
X0164517Y0120600D03*
D42*
X0185792Y0120600D03*
X0187992Y0128900D03*
D43*
X0185742Y0127550D03*
X0192492Y0122850D03*
X0192542Y0122900D03*
X0196192Y0122550D03*
X0196242Y0122350D03*
X0196242Y0122300D03*
X0196292Y0122200D03*
X0196292Y0122150D03*
X0196292Y0122100D03*
X0196342Y0122000D03*
X0196342Y0121950D03*
X0196342Y0121900D03*
X0196392Y0121800D03*
X0196392Y0121750D03*
X0196392Y0121700D03*
X0196442Y0121650D03*
X0196442Y0121600D03*
X0196442Y0121550D03*
X0196442Y0121500D03*
X0196492Y0121450D03*
X0196492Y0121400D03*
X0196492Y0121350D03*
X0196542Y0121250D03*
X0196542Y0121200D03*
X0196542Y0121150D03*
X0196592Y0121050D03*
X0196592Y0121000D03*
X0196642Y0120800D03*
X0196692Y0120600D03*
X0198392Y0128700D03*
X0198442Y0128750D03*
X0198492Y0128800D03*
X0198642Y0129000D03*
X0198692Y0129050D03*
X0198742Y0129100D03*
X0177792Y0129050D03*
X0177792Y0129000D03*
X0177792Y0128950D03*
X0177792Y0128900D03*
X0177792Y0128850D03*
X0177792Y0128800D03*
X0177792Y0128750D03*
X0177742Y0128700D03*
X0177742Y0128650D03*
X0177742Y0128600D03*
X0177742Y0128550D03*
X0177742Y0128500D03*
X0177692Y0128450D03*
X0177692Y0128400D03*
X0177692Y0128350D03*
X0177692Y0128300D03*
X0177642Y0128250D03*
X0177642Y0128200D03*
X0177642Y0128150D03*
X0177592Y0128050D03*
X0172892Y0129150D03*
X0172942Y0129350D03*
X0172992Y0129550D03*
X0173042Y0129750D03*
X0172842Y0128950D03*
X0172792Y0128750D03*
X0172742Y0128550D03*
X0172692Y0128350D03*
X0172642Y0128150D03*
X0172592Y0127950D03*
X0172542Y0127750D03*
X0172492Y0127550D03*
X0172492Y0127500D03*
X0172442Y0127350D03*
X0172442Y0127300D03*
X0172392Y0127100D03*
X0157992Y0125950D03*
X0146742Y0128700D03*
X0146792Y0128900D03*
X0146842Y0129100D03*
X0146692Y0128500D03*
X0146642Y0128300D03*
X0146592Y0128100D03*
X0146542Y0127900D03*
X0146492Y0127700D03*
X0146442Y0127500D03*
X0145792Y0124900D03*
X0145742Y0124700D03*
X0145692Y0124500D03*
X0145642Y0124300D03*
X0145592Y0124100D03*
X0145542Y0123900D03*
X0145492Y0123700D03*
X0145442Y0123500D03*
X0145392Y0123300D03*
X0145342Y0123100D03*
D44*
X0164517Y0120650D03*
X0166567Y0128600D03*
X0185817Y0120650D03*
X0187967Y0128850D03*
D45*
X0187917Y0128800D03*
X0185817Y0120700D03*
X0166567Y0128550D03*
X0164567Y0120700D03*
D46*
X0164567Y0120750D03*
X0185817Y0120750D03*
X0187917Y0128750D03*
D47*
X0187917Y0128700D03*
X0194267Y0125500D03*
X0194317Y0125550D03*
X0194267Y0125400D03*
X0194267Y0125350D03*
X0166517Y0128450D03*
X0159567Y0127750D03*
X0159567Y0127700D03*
X0159517Y0127500D03*
X0159467Y0127300D03*
X0159417Y0127100D03*
X0159367Y0126900D03*
X0159317Y0126700D03*
X0164567Y0120800D03*
D48*
X0159292Y0126600D03*
X0159292Y0126650D03*
X0159342Y0126750D03*
X0159342Y0126800D03*
X0159342Y0126850D03*
X0159392Y0126950D03*
X0159392Y0127000D03*
X0159392Y0127050D03*
X0159442Y0127150D03*
X0159442Y0127200D03*
X0159442Y0127250D03*
X0159492Y0127350D03*
X0159492Y0127400D03*
X0159492Y0127450D03*
X0159542Y0127550D03*
X0159542Y0127600D03*
X0159542Y0127650D03*
X0159592Y0127800D03*
X0159592Y0127850D03*
X0185842Y0120800D03*
X0194242Y0125300D03*
X0194342Y0125600D03*
D49*
X0194392Y0125700D03*
X0194442Y0125750D03*
X0194242Y0125100D03*
X0185842Y0120850D03*
X0164592Y0120850D03*
D50*
X0164617Y0120900D03*
X0166517Y0128350D03*
X0185867Y0120900D03*
X0187867Y0128600D03*
X0194467Y0125800D03*
X0194267Y0125050D03*
X0194267Y0125000D03*
X0194267Y0124950D03*
D51*
X0194267Y0124900D03*
X0194267Y0124850D03*
X0194267Y0124800D03*
X0194267Y0124750D03*
X0194517Y0125900D03*
X0194567Y0125950D03*
X0187867Y0128550D03*
X0185867Y0120950D03*
X0164617Y0120950D03*
D52*
X0164642Y0121000D03*
X0166492Y0128250D03*
X0173142Y0124900D03*
X0174942Y0132000D03*
X0187842Y0128500D03*
X0194592Y0126000D03*
X0185892Y0121000D03*
D53*
X0173242Y0124950D03*
X0166442Y0128150D03*
X0164642Y0121050D03*
D54*
X0164667Y0121100D03*
X0185917Y0121050D03*
X0194267Y0124400D03*
X0194267Y0124450D03*
X0194267Y0124500D03*
D55*
X0192442Y0122700D03*
X0192392Y0122650D03*
X0188042Y0122000D03*
X0185592Y0127450D03*
X0197692Y0127900D03*
X0197742Y0127950D03*
X0197792Y0128000D03*
X0197842Y0128050D03*
X0197892Y0128100D03*
X0197892Y0128150D03*
X0197942Y0128200D03*
X0197992Y0128250D03*
X0198042Y0128300D03*
X0198092Y0128350D03*
X0198142Y0128400D03*
X0171742Y0124550D03*
X0171692Y0124350D03*
X0171642Y0124150D03*
X0171592Y0123950D03*
X0171242Y0122500D03*
X0171192Y0122300D03*
X0171142Y0122100D03*
X0171092Y0121900D03*
X0171042Y0121700D03*
X0170992Y0121500D03*
X0170942Y0121300D03*
X0170892Y0121100D03*
X0157892Y0125750D03*
X0157892Y0125800D03*
D56*
X0164667Y0121150D03*
X0166417Y0128050D03*
X0185917Y0121150D03*
X0185917Y0121100D03*
X0187767Y0128350D03*
X0194267Y0124250D03*
X0194267Y0124200D03*
D57*
X0194292Y0124150D03*
X0194292Y0124100D03*
X0173342Y0125000D03*
X0164692Y0121200D03*
D58*
X0166417Y0128000D03*
X0175067Y0131900D03*
X0187767Y0128300D03*
X0185917Y0121200D03*
X0194267Y0124050D03*
D59*
X0194292Y0124000D03*
X0194292Y0123950D03*
X0194292Y0123900D03*
X0187742Y0128200D03*
X0187742Y0128250D03*
X0185942Y0121250D03*
X0166392Y0127950D03*
X0164692Y0121250D03*
D60*
X0164717Y0121300D03*
X0166367Y0127900D03*
X0173417Y0125050D03*
X0175117Y0131850D03*
X0185967Y0121300D03*
X0194267Y0123850D03*
D61*
X0194292Y0123800D03*
X0194292Y0123750D03*
X0194292Y0123700D03*
X0187742Y0128150D03*
X0166342Y0127850D03*
X0164742Y0121350D03*
D62*
X0164717Y0121400D03*
X0166367Y0127800D03*
X0173467Y0125100D03*
X0185967Y0121350D03*
X0187717Y0128100D03*
X0194267Y0123650D03*
D63*
X0194292Y0123600D03*
X0194292Y0123550D03*
X0194292Y0123500D03*
X0187692Y0128050D03*
X0185992Y0121400D03*
X0175192Y0131800D03*
X0173542Y0125150D03*
X0166342Y0127750D03*
X0164742Y0121450D03*
D64*
X0164767Y0121500D03*
X0166317Y0127700D03*
X0186017Y0121450D03*
X0187667Y0128000D03*
D65*
X0187642Y0127950D03*
X0185992Y0121500D03*
X0194292Y0123300D03*
X0194292Y0123350D03*
X0194292Y0123400D03*
X0194292Y0123450D03*
X0175192Y0131750D03*
X0166292Y0127650D03*
X0166292Y0127600D03*
X0164792Y0121550D03*
D66*
X0164767Y0121600D03*
X0166267Y0127550D03*
X0173617Y0125200D03*
X0186017Y0121550D03*
D67*
X0186042Y0121600D03*
X0187642Y0127850D03*
X0187642Y0127900D03*
X0194292Y0123250D03*
X0175242Y0131700D03*
X0164792Y0121650D03*
D68*
X0175292Y0131650D03*
X0187592Y0127750D03*
X0187592Y0127700D03*
X0186042Y0121700D03*
X0186042Y0121650D03*
D69*
X0187617Y0127800D03*
X0173667Y0125250D03*
X0164817Y0121700D03*
D70*
X0173717Y0125300D03*
X0173767Y0125350D03*
X0175317Y0131600D03*
X0187567Y0127650D03*
X0186067Y0121800D03*
X0186067Y0121750D03*
D71*
X0188242Y0122150D03*
X0184942Y0126250D03*
X0184992Y0126400D03*
X0185042Y0126500D03*
X0185092Y0126650D03*
X0185142Y0126750D03*
X0185192Y0126850D03*
X0185242Y0126950D03*
X0189492Y0127450D03*
X0196192Y0126200D03*
X0196242Y0126250D03*
X0196292Y0126300D03*
X0196342Y0126350D03*
X0196392Y0126400D03*
X0196442Y0126450D03*
X0168142Y0127450D03*
X0164292Y0127300D03*
X0164242Y0127250D03*
X0164192Y0127200D03*
X0163792Y0126400D03*
X0163742Y0126300D03*
X0163742Y0126250D03*
X0163692Y0126150D03*
X0163692Y0126100D03*
X0163642Y0126050D03*
X0163642Y0126000D03*
X0163642Y0125950D03*
X0163592Y0125850D03*
X0162992Y0123450D03*
X0162942Y0123250D03*
X0162942Y0123200D03*
X0162942Y0123150D03*
X0162942Y0123100D03*
X0162892Y0123000D03*
X0162892Y0122950D03*
X0162892Y0122900D03*
X0162892Y0121950D03*
X0166792Y0121850D03*
D72*
X0186092Y0121850D03*
X0148242Y0127350D03*
X0148242Y0127400D03*
X0148192Y0127200D03*
X0148192Y0127150D03*
X0148142Y0127000D03*
X0148142Y0126950D03*
X0148092Y0126800D03*
X0148092Y0126750D03*
X0148042Y0126600D03*
X0148042Y0126550D03*
X0147992Y0126400D03*
X0147992Y0126350D03*
X0147942Y0126200D03*
X0147942Y0126150D03*
X0147892Y0126000D03*
X0147892Y0125950D03*
X0147842Y0125800D03*
X0147842Y0125750D03*
X0147792Y0125600D03*
X0147792Y0125550D03*
X0147742Y0125400D03*
X0147742Y0125350D03*
X0147692Y0125200D03*
X0147692Y0125150D03*
D73*
X0158317Y0127900D03*
X0158317Y0127950D03*
X0158317Y0128000D03*
X0158317Y0128050D03*
X0158367Y0128100D03*
X0158367Y0128150D03*
X0158367Y0128200D03*
X0158367Y0128250D03*
X0158417Y0128300D03*
X0158417Y0128350D03*
X0158417Y0128400D03*
X0158417Y0128450D03*
X0158467Y0128500D03*
X0158467Y0128550D03*
X0158467Y0128600D03*
X0158467Y0128650D03*
X0158517Y0128700D03*
X0158517Y0128750D03*
X0158517Y0128800D03*
X0158517Y0128850D03*
X0158567Y0128900D03*
X0158567Y0128950D03*
X0158567Y0129000D03*
X0158567Y0129050D03*
X0158617Y0129100D03*
X0163867Y0126650D03*
X0163867Y0126600D03*
X0163867Y0126550D03*
X0163817Y0126500D03*
X0163817Y0126450D03*
X0163767Y0126350D03*
X0163717Y0126200D03*
X0163917Y0126700D03*
X0163917Y0126750D03*
X0163967Y0126800D03*
X0163967Y0126850D03*
X0164017Y0126900D03*
X0164067Y0127000D03*
X0164117Y0127050D03*
X0164117Y0127100D03*
X0164167Y0127150D03*
X0168167Y0127400D03*
X0166817Y0121900D03*
X0162867Y0122000D03*
X0162867Y0122050D03*
X0162867Y0122100D03*
X0162867Y0122150D03*
X0162867Y0122200D03*
X0162867Y0122650D03*
X0162867Y0122700D03*
X0162867Y0122750D03*
X0162867Y0122800D03*
X0162867Y0122850D03*
X0162917Y0123050D03*
X0188267Y0122200D03*
X0188317Y0122250D03*
X0189517Y0127350D03*
X0189517Y0127400D03*
D74*
X0186117Y0121900D03*
X0175317Y0131550D03*
X0173817Y0125400D03*
X0148267Y0127450D03*
X0148217Y0127300D03*
X0148217Y0127250D03*
X0148167Y0127100D03*
X0148167Y0127050D03*
X0148117Y0126900D03*
X0148117Y0126850D03*
X0148067Y0126700D03*
X0148067Y0126650D03*
X0148017Y0126500D03*
X0148017Y0126450D03*
X0147967Y0126300D03*
X0147967Y0126250D03*
X0147917Y0126100D03*
X0147917Y0126050D03*
X0147867Y0125900D03*
X0147867Y0125850D03*
X0147817Y0125700D03*
X0147817Y0125650D03*
X0147767Y0125500D03*
X0147767Y0125450D03*
X0147717Y0125300D03*
X0147717Y0125250D03*
X0147667Y0125100D03*
D75*
X0162842Y0122600D03*
X0162842Y0122550D03*
X0162842Y0122500D03*
X0162842Y0122450D03*
X0162842Y0122400D03*
X0162842Y0122350D03*
X0162842Y0122300D03*
X0162842Y0122250D03*
X0166892Y0121950D03*
X0167392Y0123050D03*
X0167442Y0123250D03*
X0168192Y0127350D03*
X0164042Y0126950D03*
X0188342Y0122300D03*
X0188392Y0122350D03*
X0189542Y0127250D03*
X0189542Y0127300D03*
X0202192Y0131900D03*
X0202192Y0131950D03*
X0202192Y0132000D03*
X0202242Y0132050D03*
X0202242Y0132100D03*
X0202242Y0132150D03*
X0202242Y0132200D03*
X0202292Y0132250D03*
X0202292Y0132300D03*
X0202292Y0132350D03*
X0202292Y0132400D03*
X0202342Y0132450D03*
X0202342Y0132500D03*
X0202342Y0132550D03*
X0202342Y0132600D03*
X0202392Y0132650D03*
X0202392Y0132700D03*
X0202392Y0132750D03*
X0202392Y0132800D03*
D76*
X0189567Y0127200D03*
X0189567Y0127150D03*
X0189567Y0127100D03*
X0189567Y0127050D03*
X0189567Y0127000D03*
X0189567Y0126950D03*
X0189567Y0126900D03*
X0189567Y0126850D03*
X0189567Y0126800D03*
X0189567Y0126750D03*
X0189517Y0126550D03*
X0189517Y0126500D03*
X0189517Y0126450D03*
X0189517Y0126400D03*
X0189467Y0126250D03*
X0189467Y0126200D03*
X0189467Y0126150D03*
X0189417Y0126000D03*
X0189417Y0125950D03*
X0188917Y0123850D03*
X0188867Y0123650D03*
X0188817Y0123450D03*
X0188717Y0123100D03*
X0188667Y0122950D03*
X0188567Y0122700D03*
X0188517Y0122600D03*
X0188467Y0122500D03*
X0188417Y0122400D03*
X0168117Y0126000D03*
X0168217Y0127300D03*
X0167417Y0123200D03*
X0167417Y0123150D03*
X0167417Y0123100D03*
X0167367Y0123000D03*
X0167367Y0122950D03*
X0167367Y0122900D03*
X0167317Y0122850D03*
X0167317Y0122800D03*
X0167317Y0122750D03*
X0167267Y0122650D03*
X0167217Y0122500D03*
X0167167Y0122400D03*
X0167117Y0122300D03*
X0167067Y0122200D03*
X0167017Y0122100D03*
X0166967Y0122050D03*
X0166917Y0122000D03*
D77*
X0168067Y0127500D03*
X0164417Y0127450D03*
X0157867Y0125700D03*
X0157817Y0125650D03*
X0157817Y0125600D03*
X0184167Y0122100D03*
X0184167Y0122050D03*
X0185517Y0127350D03*
X0185567Y0127400D03*
X0189417Y0127550D03*
X0192367Y0122600D03*
X0197217Y0127350D03*
X0197267Y0127400D03*
X0197417Y0127600D03*
X0197467Y0127650D03*
X0197517Y0127700D03*
X0197567Y0127750D03*
X0197617Y0127800D03*
X0197667Y0127850D03*
D78*
X0189542Y0126700D03*
X0189542Y0126650D03*
X0189542Y0126600D03*
X0189492Y0126350D03*
X0189492Y0126300D03*
X0189442Y0126100D03*
X0189442Y0126050D03*
X0189392Y0125900D03*
X0189392Y0125850D03*
X0188942Y0123950D03*
X0188942Y0123900D03*
X0188892Y0123800D03*
X0188892Y0123750D03*
X0188892Y0123700D03*
X0188842Y0123600D03*
X0188842Y0123550D03*
X0188842Y0123500D03*
X0188792Y0123400D03*
X0188792Y0123350D03*
X0188792Y0123300D03*
X0188742Y0123250D03*
X0188742Y0123200D03*
X0188742Y0123150D03*
X0188692Y0123050D03*
X0188692Y0123000D03*
X0188642Y0122900D03*
X0188642Y0122850D03*
X0188592Y0122800D03*
X0188592Y0122750D03*
X0188542Y0122650D03*
X0188492Y0122550D03*
X0188442Y0122450D03*
X0188192Y0129400D03*
X0168242Y0127250D03*
X0168242Y0127200D03*
X0168242Y0127150D03*
X0168242Y0126700D03*
X0168242Y0126650D03*
X0168192Y0126450D03*
X0168192Y0126400D03*
X0168192Y0126350D03*
X0168192Y0126300D03*
X0168192Y0126250D03*
X0168142Y0126200D03*
X0168142Y0126150D03*
X0168142Y0126100D03*
X0168142Y0126050D03*
X0168092Y0125950D03*
X0168092Y0125900D03*
X0168092Y0125850D03*
X0167292Y0122700D03*
X0167242Y0122600D03*
X0167242Y0122550D03*
X0167192Y0122450D03*
X0167142Y0122350D03*
X0167092Y0122250D03*
X0167042Y0122150D03*
D79*
X0158142Y0126200D03*
X0177242Y0127400D03*
X0177292Y0127450D03*
X0177692Y0129600D03*
X0185842Y0127600D03*
X0192692Y0123200D03*
D80*
X0174192Y0125900D03*
X0165692Y0125500D03*
X0165642Y0125350D03*
X0165642Y0125300D03*
X0165642Y0125250D03*
X0165592Y0125150D03*
X0165592Y0125100D03*
X0165592Y0125050D03*
X0165542Y0125000D03*
X0165542Y0124950D03*
X0165542Y0124900D03*
X0165542Y0124850D03*
X0165492Y0124800D03*
X0165492Y0124750D03*
X0165492Y0124700D03*
X0165492Y0124650D03*
X0165442Y0124600D03*
X0165442Y0124550D03*
X0165442Y0124500D03*
X0165442Y0124450D03*
X0165392Y0124400D03*
X0165392Y0124350D03*
X0165392Y0124300D03*
X0165392Y0124250D03*
X0165342Y0124200D03*
D81*
X0166442Y0128100D03*
X0174992Y0131950D03*
X0187792Y0128400D03*
X0194292Y0124350D03*
X0194292Y0124300D03*
D82*
X0194267Y0124550D03*
X0194267Y0124600D03*
X0194267Y0124650D03*
X0194267Y0124700D03*
X0194617Y0126050D03*
X0194617Y0126100D03*
X0194667Y0126150D03*
X0187817Y0128450D03*
X0166467Y0128200D03*
D83*
X0172892Y0124800D03*
D84*
X0173017Y0124850D03*
X0166517Y0128400D03*
X0174817Y0132050D03*
X0187867Y0128650D03*
X0194367Y0125650D03*
X0194267Y0125250D03*
X0194267Y0125200D03*
X0194267Y0125150D03*
D85*
X0175467Y0131000D03*
X0175467Y0131050D03*
X0174167Y0125850D03*
X0165767Y0125800D03*
X0165767Y0125750D03*
X0165717Y0125650D03*
X0165717Y0125600D03*
X0165717Y0125550D03*
X0165667Y0125450D03*
X0165667Y0125400D03*
X0165617Y0125200D03*
D86*
X0173867Y0125450D03*
X0175367Y0131450D03*
D87*
X0166542Y0128500D03*
X0194242Y0125450D03*
D88*
X0175392Y0131400D03*
X0173892Y0125500D03*
D89*
X0173967Y0125550D03*
X0149417Y0131600D03*
X0149467Y0131800D03*
X0149517Y0132000D03*
X0149367Y0131400D03*
X0149317Y0131200D03*
X0149267Y0131000D03*
X0149217Y0130800D03*
X0149167Y0130600D03*
X0149167Y0130550D03*
X0149117Y0130350D03*
X0149067Y0130150D03*
X0149017Y0129950D03*
X0148967Y0129750D03*
D90*
X0148992Y0129800D03*
X0148992Y0129850D03*
X0148992Y0129900D03*
X0149042Y0130000D03*
X0149042Y0130050D03*
X0149042Y0130100D03*
X0149092Y0130200D03*
X0149092Y0130250D03*
X0149092Y0130300D03*
X0149142Y0130400D03*
X0149142Y0130450D03*
X0149142Y0130500D03*
X0149192Y0130650D03*
X0149192Y0130700D03*
X0149192Y0130750D03*
X0149242Y0130850D03*
X0149242Y0130900D03*
X0149242Y0130950D03*
X0149292Y0131050D03*
X0149292Y0131100D03*
X0149292Y0131150D03*
X0149342Y0131250D03*
X0149342Y0131300D03*
X0149342Y0131350D03*
X0149392Y0131450D03*
X0149392Y0131500D03*
X0149392Y0131550D03*
X0149442Y0131650D03*
X0149442Y0131700D03*
X0149442Y0131750D03*
X0149492Y0131850D03*
X0149492Y0131900D03*
X0149492Y0131950D03*
X0149542Y0132050D03*
X0149542Y0132100D03*
X0148942Y0129700D03*
X0148942Y0129650D03*
X0173992Y0125600D03*
X0175392Y0131350D03*
D91*
X0175442Y0131200D03*
X0174042Y0125650D03*
D92*
X0174142Y0125800D03*
X0175442Y0131100D03*
X0175442Y0131150D03*
X0165742Y0125700D03*
D93*
X0174067Y0125700D03*
X0174117Y0125750D03*
D94*
X0166492Y0128300D03*
X0194492Y0125850D03*
D95*
X0175467Y0130900D03*
X0175467Y0130950D03*
X0174267Y0125950D03*
D96*
X0174292Y0126000D03*
X0175492Y0130800D03*
X0175492Y0130850D03*
D97*
X0175467Y0130750D03*
X0174367Y0126150D03*
X0174317Y0126050D03*
D98*
X0174342Y0126100D03*
X0174392Y0126200D03*
X0175492Y0130600D03*
X0175492Y0130650D03*
X0175492Y0130700D03*
D99*
X0158192Y0126250D03*
D100*
X0174417Y0126250D03*
D101*
X0174442Y0126300D03*
X0174492Y0126350D03*
X0175492Y0130400D03*
X0175492Y0130450D03*
X0175492Y0130500D03*
X0175492Y0130550D03*
D102*
X0175467Y0130350D03*
X0174517Y0126450D03*
X0174517Y0126400D03*
D103*
X0188092Y0129150D03*
X0158642Y0126500D03*
D104*
X0168217Y0126500D03*
X0168217Y0126550D03*
X0168217Y0126600D03*
X0168267Y0126750D03*
X0168267Y0126800D03*
X0168267Y0126850D03*
X0168267Y0126900D03*
X0168267Y0126950D03*
X0168267Y0127000D03*
X0168267Y0127050D03*
X0168267Y0127100D03*
D105*
X0174542Y0126500D03*
X0174592Y0126550D03*
X0175492Y0130200D03*
X0175492Y0130250D03*
X0175492Y0130300D03*
D106*
X0161917Y0126550D03*
D107*
X0174617Y0126600D03*
X0174617Y0126650D03*
X0175467Y0130000D03*
X0175467Y0130050D03*
X0175467Y0130100D03*
X0175467Y0130150D03*
D108*
X0175442Y0129950D03*
X0175442Y0129900D03*
X0175442Y0129850D03*
X0174692Y0126800D03*
X0174692Y0126750D03*
X0174642Y0126700D03*
D109*
X0174717Y0126850D03*
X0174717Y0126900D03*
X0174767Y0126950D03*
D110*
X0174792Y0127000D03*
D111*
X0176992Y0127150D03*
D112*
X0177217Y0127350D03*
X0177667Y0129650D03*
X0188117Y0129300D03*
D113*
X0161142Y0128050D03*
D114*
X0161167Y0128100D03*
D115*
X0161192Y0128150D03*
X0161242Y0128200D03*
X0161242Y0128250D03*
D116*
X0161267Y0128300D03*
D117*
X0161292Y0128350D03*
X0161342Y0128400D03*
D118*
X0161367Y0128450D03*
D119*
X0161392Y0128500D03*
D120*
X0188367Y0129500D03*
X0201367Y0128500D03*
X0201417Y0128700D03*
X0201467Y0128900D03*
X0201517Y0129100D03*
X0201567Y0129300D03*
X0201617Y0129500D03*
X0201667Y0129700D03*
X0201717Y0129900D03*
X0201717Y0129950D03*
X0201767Y0130100D03*
X0201767Y0130150D03*
X0201817Y0130300D03*
X0201817Y0130350D03*
X0201867Y0130500D03*
X0201867Y0130550D03*
X0201917Y0130700D03*
X0201917Y0130750D03*
X0201967Y0130900D03*
X0201967Y0130950D03*
X0202017Y0131100D03*
X0202017Y0131150D03*
X0202067Y0131300D03*
X0202067Y0131350D03*
X0202117Y0131500D03*
X0202117Y0131550D03*
X0202167Y0131700D03*
X0202167Y0131750D03*
X0205217Y0129300D03*
X0205217Y0129250D03*
D121*
X0205017Y0128500D03*
D122*
X0161467Y0128600D03*
X0161417Y0128550D03*
D123*
X0205042Y0128550D03*
X0205042Y0128600D03*
X0205092Y0128700D03*
X0205092Y0128750D03*
D124*
X0205167Y0129000D03*
X0205167Y0129050D03*
X0203717Y0129400D03*
X0203767Y0129600D03*
X0203817Y0129800D03*
X0203867Y0130000D03*
X0203917Y0130200D03*
X0203967Y0130400D03*
X0203967Y0130450D03*
X0204017Y0130600D03*
X0204017Y0130650D03*
X0204067Y0130800D03*
X0204067Y0130850D03*
X0204117Y0131000D03*
X0204117Y0131050D03*
X0204167Y0131200D03*
X0204167Y0131250D03*
X0204217Y0131400D03*
X0204217Y0131450D03*
X0203667Y0129200D03*
X0203617Y0129000D03*
X0203567Y0128800D03*
X0203517Y0128600D03*
X0206617Y0128650D03*
X0206667Y0128850D03*
X0206717Y0129050D03*
X0207067Y0130500D03*
X0207117Y0130700D03*
X0207167Y0130900D03*
X0207217Y0131100D03*
X0207267Y0131300D03*
X0162167Y0129300D03*
D125*
X0166592Y0128650D03*
D126*
X0205067Y0128650D03*
X0205117Y0128800D03*
X0205117Y0128850D03*
D127*
X0161542Y0128700D03*
D128*
X0166617Y0128700D03*
D129*
X0166617Y0128750D03*
D130*
X0166642Y0128800D03*
D131*
X0161667Y0128850D03*
D132*
X0166642Y0128850D03*
D133*
X0161692Y0128900D03*
X0204642Y0131550D03*
X0204642Y0131600D03*
X0204642Y0131650D03*
X0206942Y0131550D03*
X0206942Y0131500D03*
X0206992Y0131700D03*
D134*
X0207017Y0131750D03*
X0207017Y0131800D03*
X0207067Y0131900D03*
X0206967Y0131650D03*
X0206967Y0131600D03*
X0204667Y0131700D03*
X0204667Y0131750D03*
X0204667Y0131800D03*
X0204667Y0131850D03*
X0161717Y0128950D03*
D135*
X0161792Y0129000D03*
X0204692Y0131900D03*
X0204692Y0131950D03*
X0204692Y0132000D03*
X0204692Y0132050D03*
X0204742Y0132100D03*
X0204742Y0132150D03*
X0204742Y0132200D03*
X0204742Y0132250D03*
X0207042Y0131850D03*
X0207092Y0131950D03*
X0207092Y0132000D03*
X0207142Y0132100D03*
X0207142Y0132150D03*
D136*
X0207242Y0132400D03*
X0207242Y0132450D03*
X0207292Y0132500D03*
X0207292Y0132550D03*
X0207292Y0132600D03*
X0207342Y0132700D03*
X0204792Y0132650D03*
X0204792Y0132600D03*
X0204792Y0132550D03*
X0204792Y0132500D03*
X0161842Y0129050D03*
D137*
X0188017Y0129050D03*
D138*
X0204817Y0132700D03*
X0204817Y0132750D03*
X0204817Y0132800D03*
X0207317Y0132650D03*
X0207367Y0132750D03*
X0207367Y0132800D03*
X0205467Y0130250D03*
X0161867Y0129100D03*
D139*
X0161917Y0129150D03*
X0205417Y0130000D03*
X0205417Y0130050D03*
X0205417Y0130100D03*
D140*
X0205367Y0129850D03*
X0205367Y0129800D03*
X0162017Y0129200D03*
D141*
X0162092Y0129250D03*
X0205242Y0129350D03*
X0205242Y0129400D03*
D142*
X0188117Y0129250D03*
D143*
X0205067Y0130300D03*
X0205067Y0130350D03*
X0205067Y0130400D03*
X0205067Y0130450D03*
X0205117Y0130500D03*
X0205117Y0130550D03*
X0205117Y0130600D03*
X0205117Y0130650D03*
X0205117Y0130700D03*
X0205117Y0130750D03*
X0205117Y0130800D03*
X0205117Y0130850D03*
X0205117Y0130900D03*
X0205117Y0130950D03*
X0205117Y0131000D03*
X0205117Y0131050D03*
X0205117Y0131100D03*
X0205117Y0131150D03*
X0205117Y0131200D03*
X0205117Y0131250D03*
X0205167Y0131350D03*
X0205167Y0131400D03*
X0205167Y0131450D03*
X0205167Y0131500D03*
X0206167Y0131000D03*
X0206167Y0130950D03*
X0206217Y0131050D03*
X0206217Y0131100D03*
X0206267Y0131150D03*
X0206267Y0131200D03*
X0206317Y0131300D03*
X0206367Y0131400D03*
X0206367Y0131450D03*
X0206117Y0130850D03*
X0206117Y0130800D03*
X0206067Y0130750D03*
X0206067Y0130700D03*
X0206017Y0130650D03*
X0206017Y0130600D03*
X0205967Y0130550D03*
X0205967Y0130500D03*
X0205917Y0130400D03*
X0205917Y0130350D03*
X0205867Y0130300D03*
X0162317Y0129350D03*
D144*
X0205267Y0129450D03*
X0205267Y0129500D03*
X0205317Y0129600D03*
X0205317Y0129650D03*
D145*
X0205342Y0129700D03*
X0205342Y0129750D03*
X0205292Y0129550D03*
D146*
X0205392Y0129900D03*
X0205392Y0129950D03*
D147*
X0205442Y0130150D03*
X0205442Y0130200D03*
D148*
X0205942Y0130450D03*
X0206142Y0130900D03*
X0206292Y0131250D03*
X0206342Y0131350D03*
X0205142Y0131300D03*
D149*
X0175417Y0131300D03*
X0175417Y0131250D03*
D150*
X0175342Y0131500D03*
D151*
X0204767Y0132300D03*
X0204767Y0132350D03*
X0204767Y0132400D03*
X0204767Y0132450D03*
X0207117Y0132050D03*
X0207167Y0132200D03*
X0207167Y0132250D03*
X0207217Y0132300D03*
X0207217Y0132350D03*
D152*
X0174642Y0132100D03*
D153*
X0140145Y0237200D02*
X0140147Y0237247D01*
X0140153Y0237293D01*
X0140162Y0237339D01*
X0140176Y0237383D01*
X0140193Y0237427D01*
X0140214Y0237468D01*
X0140238Y0237508D01*
X0140265Y0237546D01*
X0140296Y0237581D01*
X0140329Y0237614D01*
X0140365Y0237644D01*
X0140404Y0237670D01*
X0140444Y0237694D01*
X0140486Y0237713D01*
X0140530Y0237730D01*
X0140575Y0237742D01*
X0140621Y0237751D01*
X0140667Y0237756D01*
X0140714Y0237757D01*
X0140760Y0237754D01*
X0140806Y0237747D01*
X0140852Y0237736D01*
X0140896Y0237722D01*
X0140939Y0237704D01*
X0140980Y0237682D01*
X0141020Y0237657D01*
X0141057Y0237629D01*
X0141092Y0237598D01*
X0141124Y0237564D01*
X0141153Y0237527D01*
X0141178Y0237489D01*
X0141201Y0237448D01*
X0141220Y0237405D01*
X0141235Y0237361D01*
X0141247Y0237316D01*
X0141255Y0237270D01*
X0141259Y0237223D01*
X0141259Y0237177D01*
X0141255Y0237130D01*
X0141247Y0237084D01*
X0141235Y0237039D01*
X0141220Y0236995D01*
X0141201Y0236952D01*
X0141178Y0236911D01*
X0141153Y0236873D01*
X0141124Y0236836D01*
X0141092Y0236802D01*
X0141057Y0236771D01*
X0141020Y0236743D01*
X0140981Y0236718D01*
X0140939Y0236696D01*
X0140896Y0236678D01*
X0140852Y0236664D01*
X0140806Y0236653D01*
X0140760Y0236646D01*
X0140714Y0236643D01*
X0140667Y0236644D01*
X0140621Y0236649D01*
X0140575Y0236658D01*
X0140530Y0236670D01*
X0140486Y0236687D01*
X0140444Y0236706D01*
X0140404Y0236730D01*
X0140365Y0236756D01*
X0140329Y0236786D01*
X0140296Y0236819D01*
X0140265Y0236854D01*
X0140238Y0236892D01*
X0140214Y0236932D01*
X0140193Y0236973D01*
X0140176Y0237017D01*
X0140162Y0237061D01*
X0140153Y0237107D01*
X0140147Y0237153D01*
X0140145Y0237200D01*
D154*
X0225575Y0214688D02*
X0225577Y0214727D01*
X0225583Y0214766D01*
X0225593Y0214804D01*
X0225606Y0214841D01*
X0225623Y0214876D01*
X0225643Y0214910D01*
X0225667Y0214941D01*
X0225694Y0214970D01*
X0225723Y0214996D01*
X0225755Y0215019D01*
X0225789Y0215039D01*
X0225825Y0215055D01*
X0225862Y0215067D01*
X0225901Y0215076D01*
X0225940Y0215081D01*
X0225979Y0215082D01*
X0226018Y0215079D01*
X0226057Y0215072D01*
X0226094Y0215061D01*
X0226131Y0215047D01*
X0226166Y0215029D01*
X0226199Y0215008D01*
X0226230Y0214983D01*
X0226258Y0214956D01*
X0226283Y0214926D01*
X0226305Y0214893D01*
X0226324Y0214859D01*
X0226339Y0214823D01*
X0226351Y0214785D01*
X0226359Y0214747D01*
X0226363Y0214708D01*
X0226363Y0214668D01*
X0226359Y0214629D01*
X0226351Y0214591D01*
X0226339Y0214553D01*
X0226324Y0214517D01*
X0226305Y0214483D01*
X0226283Y0214450D01*
X0226258Y0214420D01*
X0226230Y0214393D01*
X0226199Y0214368D01*
X0226166Y0214347D01*
X0226131Y0214329D01*
X0226094Y0214315D01*
X0226057Y0214304D01*
X0226018Y0214297D01*
X0225979Y0214294D01*
X0225940Y0214295D01*
X0225901Y0214300D01*
X0225862Y0214309D01*
X0225825Y0214321D01*
X0225789Y0214337D01*
X0225755Y0214357D01*
X0225723Y0214380D01*
X0225694Y0214406D01*
X0225667Y0214435D01*
X0225643Y0214466D01*
X0225623Y0214500D01*
X0225606Y0214535D01*
X0225593Y0214572D01*
X0225583Y0214610D01*
X0225577Y0214649D01*
X0225575Y0214688D01*
D155*
X0084323Y0213524D02*
X0084325Y0213563D01*
X0084331Y0213602D01*
X0084341Y0213640D01*
X0084354Y0213677D01*
X0084371Y0213712D01*
X0084391Y0213746D01*
X0084415Y0213777D01*
X0084442Y0213806D01*
X0084471Y0213832D01*
X0084503Y0213855D01*
X0084537Y0213875D01*
X0084573Y0213891D01*
X0084610Y0213903D01*
X0084649Y0213912D01*
X0084688Y0213917D01*
X0084727Y0213918D01*
X0084766Y0213915D01*
X0084805Y0213908D01*
X0084842Y0213897D01*
X0084879Y0213883D01*
X0084914Y0213865D01*
X0084947Y0213844D01*
X0084978Y0213819D01*
X0085006Y0213792D01*
X0085031Y0213762D01*
X0085053Y0213729D01*
X0085072Y0213695D01*
X0085087Y0213659D01*
X0085099Y0213621D01*
X0085107Y0213583D01*
X0085111Y0213544D01*
X0085111Y0213504D01*
X0085107Y0213465D01*
X0085099Y0213427D01*
X0085087Y0213389D01*
X0085072Y0213353D01*
X0085053Y0213319D01*
X0085031Y0213286D01*
X0085006Y0213256D01*
X0084978Y0213229D01*
X0084947Y0213204D01*
X0084914Y0213183D01*
X0084879Y0213165D01*
X0084842Y0213151D01*
X0084805Y0213140D01*
X0084766Y0213133D01*
X0084727Y0213130D01*
X0084688Y0213131D01*
X0084649Y0213136D01*
X0084610Y0213145D01*
X0084573Y0213157D01*
X0084537Y0213173D01*
X0084503Y0213193D01*
X0084471Y0213216D01*
X0084442Y0213242D01*
X0084415Y0213271D01*
X0084391Y0213302D01*
X0084371Y0213336D01*
X0084354Y0213371D01*
X0084341Y0213408D01*
X0084331Y0213446D01*
X0084325Y0213485D01*
X0084323Y0213524D01*
X0067422Y0188175D02*
X0067424Y0188214D01*
X0067430Y0188253D01*
X0067440Y0188291D01*
X0067453Y0188328D01*
X0067470Y0188363D01*
X0067490Y0188397D01*
X0067514Y0188428D01*
X0067541Y0188457D01*
X0067570Y0188483D01*
X0067602Y0188506D01*
X0067636Y0188526D01*
X0067672Y0188542D01*
X0067709Y0188554D01*
X0067748Y0188563D01*
X0067787Y0188568D01*
X0067826Y0188569D01*
X0067865Y0188566D01*
X0067904Y0188559D01*
X0067941Y0188548D01*
X0067978Y0188534D01*
X0068013Y0188516D01*
X0068046Y0188495D01*
X0068077Y0188470D01*
X0068105Y0188443D01*
X0068130Y0188413D01*
X0068152Y0188380D01*
X0068171Y0188346D01*
X0068186Y0188310D01*
X0068198Y0188272D01*
X0068206Y0188234D01*
X0068210Y0188195D01*
X0068210Y0188155D01*
X0068206Y0188116D01*
X0068198Y0188078D01*
X0068186Y0188040D01*
X0068171Y0188004D01*
X0068152Y0187970D01*
X0068130Y0187937D01*
X0068105Y0187907D01*
X0068077Y0187880D01*
X0068046Y0187855D01*
X0068013Y0187834D01*
X0067978Y0187816D01*
X0067941Y0187802D01*
X0067904Y0187791D01*
X0067865Y0187784D01*
X0067826Y0187781D01*
X0067787Y0187782D01*
X0067748Y0187787D01*
X0067709Y0187796D01*
X0067672Y0187808D01*
X0067636Y0187824D01*
X0067602Y0187844D01*
X0067570Y0187867D01*
X0067541Y0187893D01*
X0067514Y0187922D01*
X0067490Y0187953D01*
X0067470Y0187987D01*
X0067453Y0188022D01*
X0067440Y0188059D01*
X0067430Y0188097D01*
X0067424Y0188136D01*
X0067422Y0188175D01*
M02*
