G75*
%MOIN*%
%OFA0B0*%
%FSLAX25Y25*%
%IPPOS*%
%LPD*%
%AMOC8*
5,1,8,0,0,1.08239X$1,22.5*
%
%ADD10C,0.00000*%
%ADD11C,0.01200*%
%ADD12C,0.00300*%
%ADD13C,0.00200*%
%ADD14C,0.00400*%
%ADD15C,0.00500*%
%ADD16C,0.00394*%
%ADD17C,0.01969*%
%ADD18C,0.00197*%
%ADD19C,0.01000*%
%ADD20R,0.00250X0.00050*%
%ADD21R,0.00850X0.00050*%
%ADD22R,0.00550X0.00050*%
%ADD23R,0.00350X0.00050*%
%ADD24R,0.00450X0.00050*%
%ADD25R,0.00200X0.00050*%
%ADD26R,0.00700X0.00050*%
%ADD27R,0.00600X0.00050*%
%ADD28R,0.00800X0.00050*%
%ADD29R,0.00400X0.00050*%
%ADD30R,0.00900X0.00050*%
%ADD31R,0.00300X0.00050*%
%ADD32R,0.00500X0.00050*%
%ADD33R,0.01000X0.00050*%
%ADD34R,0.00950X0.00050*%
%ADD35R,0.00750X0.00050*%
%ADD36R,0.00150X0.00050*%
%ADD37R,0.00100X0.00050*%
%ADD38R,0.00650X0.00050*%
%ADD39R,0.01050X0.00050*%
%ADD40R,0.02050X0.00050*%
%ADD41R,0.01300X0.00050*%
%ADD42R,0.01350X0.00050*%
%ADD43R,0.01550X0.00050*%
%ADD44R,0.01750X0.00050*%
%ADD45R,0.01900X0.00050*%
%ADD46R,0.02000X0.00050*%
%ADD47R,0.01100X0.00050*%
%ADD48R,0.01150X0.00050*%
%ADD49R,0.01200X0.00050*%
%ADD50R,0.01700X0.00050*%
%ADD51R,0.01250X0.00050*%
%ADD52R,0.01650X0.00050*%
%ADD53R,0.02400X0.00050*%
%ADD54R,0.01400X0.00050*%
%ADD55R,0.01500X0.00050*%
%ADD56R,0.01800X0.00050*%
%ADD57R,0.01450X0.00050*%
%ADD58R,0.01850X0.00050*%
%ADD59R,0.01950X0.00050*%
%ADD60R,0.02100X0.00050*%
%ADD61R,0.01600X0.00050*%
%ADD62R,0.02150X0.00050*%
%ADD63R,0.02200X0.00050*%
%ADD64R,0.04550X0.00050*%
%ADD65R,0.22600X0.00050*%
%ADD66R,0.04600X0.00050*%
%ADD67R,0.04500X0.00050*%
%ADD68R,0.13600X0.00050*%
%ADD69R,0.13550X0.00050*%
D10*
X0099925Y0001500D02*
X0001500Y0171972D01*
X0099925Y0342445D01*
X0296776Y0342445D01*
X0395201Y0171972D01*
X0296776Y0001500D01*
X0099925Y0001500D01*
X0100909Y0015134D02*
X0100911Y0015303D01*
X0100917Y0015472D01*
X0100928Y0015641D01*
X0100942Y0015809D01*
X0100961Y0015977D01*
X0100984Y0016145D01*
X0101010Y0016312D01*
X0101041Y0016478D01*
X0101076Y0016644D01*
X0101115Y0016808D01*
X0101159Y0016972D01*
X0101206Y0017134D01*
X0101257Y0017295D01*
X0101312Y0017455D01*
X0101371Y0017614D01*
X0101433Y0017771D01*
X0101500Y0017926D01*
X0101571Y0018080D01*
X0101645Y0018232D01*
X0101723Y0018382D01*
X0101804Y0018530D01*
X0101889Y0018676D01*
X0101978Y0018820D01*
X0102070Y0018962D01*
X0102166Y0019101D01*
X0102265Y0019238D01*
X0102367Y0019373D01*
X0102473Y0019505D01*
X0102582Y0019634D01*
X0102694Y0019761D01*
X0102809Y0019885D01*
X0102927Y0020006D01*
X0103048Y0020124D01*
X0103172Y0020239D01*
X0103299Y0020351D01*
X0103428Y0020460D01*
X0103560Y0020566D01*
X0103695Y0020668D01*
X0103832Y0020767D01*
X0103971Y0020863D01*
X0104113Y0020955D01*
X0104257Y0021044D01*
X0104403Y0021129D01*
X0104551Y0021210D01*
X0104701Y0021288D01*
X0104853Y0021362D01*
X0105007Y0021433D01*
X0105162Y0021500D01*
X0105319Y0021562D01*
X0105478Y0021621D01*
X0105638Y0021676D01*
X0105799Y0021727D01*
X0105961Y0021774D01*
X0106125Y0021818D01*
X0106289Y0021857D01*
X0106455Y0021892D01*
X0106621Y0021923D01*
X0106788Y0021949D01*
X0106956Y0021972D01*
X0107124Y0021991D01*
X0107292Y0022005D01*
X0107461Y0022016D01*
X0107630Y0022022D01*
X0107799Y0022024D01*
X0107968Y0022022D01*
X0108137Y0022016D01*
X0108306Y0022005D01*
X0108474Y0021991D01*
X0108642Y0021972D01*
X0108810Y0021949D01*
X0108977Y0021923D01*
X0109143Y0021892D01*
X0109309Y0021857D01*
X0109473Y0021818D01*
X0109637Y0021774D01*
X0109799Y0021727D01*
X0109960Y0021676D01*
X0110120Y0021621D01*
X0110279Y0021562D01*
X0110436Y0021500D01*
X0110591Y0021433D01*
X0110745Y0021362D01*
X0110897Y0021288D01*
X0111047Y0021210D01*
X0111195Y0021129D01*
X0111341Y0021044D01*
X0111485Y0020955D01*
X0111627Y0020863D01*
X0111766Y0020767D01*
X0111903Y0020668D01*
X0112038Y0020566D01*
X0112170Y0020460D01*
X0112299Y0020351D01*
X0112426Y0020239D01*
X0112550Y0020124D01*
X0112671Y0020006D01*
X0112789Y0019885D01*
X0112904Y0019761D01*
X0113016Y0019634D01*
X0113125Y0019505D01*
X0113231Y0019373D01*
X0113333Y0019238D01*
X0113432Y0019101D01*
X0113528Y0018962D01*
X0113620Y0018820D01*
X0113709Y0018676D01*
X0113794Y0018530D01*
X0113875Y0018382D01*
X0113953Y0018232D01*
X0114027Y0018080D01*
X0114098Y0017926D01*
X0114165Y0017771D01*
X0114227Y0017614D01*
X0114286Y0017455D01*
X0114341Y0017295D01*
X0114392Y0017134D01*
X0114439Y0016972D01*
X0114483Y0016808D01*
X0114522Y0016644D01*
X0114557Y0016478D01*
X0114588Y0016312D01*
X0114614Y0016145D01*
X0114637Y0015977D01*
X0114656Y0015809D01*
X0114670Y0015641D01*
X0114681Y0015472D01*
X0114687Y0015303D01*
X0114689Y0015134D01*
X0114687Y0014965D01*
X0114681Y0014796D01*
X0114670Y0014627D01*
X0114656Y0014459D01*
X0114637Y0014291D01*
X0114614Y0014123D01*
X0114588Y0013956D01*
X0114557Y0013790D01*
X0114522Y0013624D01*
X0114483Y0013460D01*
X0114439Y0013296D01*
X0114392Y0013134D01*
X0114341Y0012973D01*
X0114286Y0012813D01*
X0114227Y0012654D01*
X0114165Y0012497D01*
X0114098Y0012342D01*
X0114027Y0012188D01*
X0113953Y0012036D01*
X0113875Y0011886D01*
X0113794Y0011738D01*
X0113709Y0011592D01*
X0113620Y0011448D01*
X0113528Y0011306D01*
X0113432Y0011167D01*
X0113333Y0011030D01*
X0113231Y0010895D01*
X0113125Y0010763D01*
X0113016Y0010634D01*
X0112904Y0010507D01*
X0112789Y0010383D01*
X0112671Y0010262D01*
X0112550Y0010144D01*
X0112426Y0010029D01*
X0112299Y0009917D01*
X0112170Y0009808D01*
X0112038Y0009702D01*
X0111903Y0009600D01*
X0111766Y0009501D01*
X0111627Y0009405D01*
X0111485Y0009313D01*
X0111341Y0009224D01*
X0111195Y0009139D01*
X0111047Y0009058D01*
X0110897Y0008980D01*
X0110745Y0008906D01*
X0110591Y0008835D01*
X0110436Y0008768D01*
X0110279Y0008706D01*
X0110120Y0008647D01*
X0109960Y0008592D01*
X0109799Y0008541D01*
X0109637Y0008494D01*
X0109473Y0008450D01*
X0109309Y0008411D01*
X0109143Y0008376D01*
X0108977Y0008345D01*
X0108810Y0008319D01*
X0108642Y0008296D01*
X0108474Y0008277D01*
X0108306Y0008263D01*
X0108137Y0008252D01*
X0107968Y0008246D01*
X0107799Y0008244D01*
X0107630Y0008246D01*
X0107461Y0008252D01*
X0107292Y0008263D01*
X0107124Y0008277D01*
X0106956Y0008296D01*
X0106788Y0008319D01*
X0106621Y0008345D01*
X0106455Y0008376D01*
X0106289Y0008411D01*
X0106125Y0008450D01*
X0105961Y0008494D01*
X0105799Y0008541D01*
X0105638Y0008592D01*
X0105478Y0008647D01*
X0105319Y0008706D01*
X0105162Y0008768D01*
X0105007Y0008835D01*
X0104853Y0008906D01*
X0104701Y0008980D01*
X0104551Y0009058D01*
X0104403Y0009139D01*
X0104257Y0009224D01*
X0104113Y0009313D01*
X0103971Y0009405D01*
X0103832Y0009501D01*
X0103695Y0009600D01*
X0103560Y0009702D01*
X0103428Y0009808D01*
X0103299Y0009917D01*
X0103172Y0010029D01*
X0103048Y0010144D01*
X0102927Y0010262D01*
X0102809Y0010383D01*
X0102694Y0010507D01*
X0102582Y0010634D01*
X0102473Y0010763D01*
X0102367Y0010895D01*
X0102265Y0011030D01*
X0102166Y0011167D01*
X0102070Y0011306D01*
X0101978Y0011448D01*
X0101889Y0011592D01*
X0101804Y0011738D01*
X0101723Y0011886D01*
X0101645Y0012036D01*
X0101571Y0012188D01*
X0101500Y0012342D01*
X0101433Y0012497D01*
X0101371Y0012654D01*
X0101312Y0012813D01*
X0101257Y0012973D01*
X0101206Y0013134D01*
X0101159Y0013296D01*
X0101115Y0013460D01*
X0101076Y0013624D01*
X0101041Y0013790D01*
X0101010Y0013956D01*
X0100984Y0014123D01*
X0100961Y0014291D01*
X0100942Y0014459D01*
X0100928Y0014627D01*
X0100917Y0014796D01*
X0100911Y0014965D01*
X0100909Y0015134D01*
X0010358Y0171972D02*
X0010360Y0172141D01*
X0010366Y0172310D01*
X0010377Y0172479D01*
X0010391Y0172647D01*
X0010410Y0172815D01*
X0010433Y0172983D01*
X0010459Y0173150D01*
X0010490Y0173316D01*
X0010525Y0173482D01*
X0010564Y0173646D01*
X0010608Y0173810D01*
X0010655Y0173972D01*
X0010706Y0174133D01*
X0010761Y0174293D01*
X0010820Y0174452D01*
X0010882Y0174609D01*
X0010949Y0174764D01*
X0011020Y0174918D01*
X0011094Y0175070D01*
X0011172Y0175220D01*
X0011253Y0175368D01*
X0011338Y0175514D01*
X0011427Y0175658D01*
X0011519Y0175800D01*
X0011615Y0175939D01*
X0011714Y0176076D01*
X0011816Y0176211D01*
X0011922Y0176343D01*
X0012031Y0176472D01*
X0012143Y0176599D01*
X0012258Y0176723D01*
X0012376Y0176844D01*
X0012497Y0176962D01*
X0012621Y0177077D01*
X0012748Y0177189D01*
X0012877Y0177298D01*
X0013009Y0177404D01*
X0013144Y0177506D01*
X0013281Y0177605D01*
X0013420Y0177701D01*
X0013562Y0177793D01*
X0013706Y0177882D01*
X0013852Y0177967D01*
X0014000Y0178048D01*
X0014150Y0178126D01*
X0014302Y0178200D01*
X0014456Y0178271D01*
X0014611Y0178338D01*
X0014768Y0178400D01*
X0014927Y0178459D01*
X0015087Y0178514D01*
X0015248Y0178565D01*
X0015410Y0178612D01*
X0015574Y0178656D01*
X0015738Y0178695D01*
X0015904Y0178730D01*
X0016070Y0178761D01*
X0016237Y0178787D01*
X0016405Y0178810D01*
X0016573Y0178829D01*
X0016741Y0178843D01*
X0016910Y0178854D01*
X0017079Y0178860D01*
X0017248Y0178862D01*
X0017417Y0178860D01*
X0017586Y0178854D01*
X0017755Y0178843D01*
X0017923Y0178829D01*
X0018091Y0178810D01*
X0018259Y0178787D01*
X0018426Y0178761D01*
X0018592Y0178730D01*
X0018758Y0178695D01*
X0018922Y0178656D01*
X0019086Y0178612D01*
X0019248Y0178565D01*
X0019409Y0178514D01*
X0019569Y0178459D01*
X0019728Y0178400D01*
X0019885Y0178338D01*
X0020040Y0178271D01*
X0020194Y0178200D01*
X0020346Y0178126D01*
X0020496Y0178048D01*
X0020644Y0177967D01*
X0020790Y0177882D01*
X0020934Y0177793D01*
X0021076Y0177701D01*
X0021215Y0177605D01*
X0021352Y0177506D01*
X0021487Y0177404D01*
X0021619Y0177298D01*
X0021748Y0177189D01*
X0021875Y0177077D01*
X0021999Y0176962D01*
X0022120Y0176844D01*
X0022238Y0176723D01*
X0022353Y0176599D01*
X0022465Y0176472D01*
X0022574Y0176343D01*
X0022680Y0176211D01*
X0022782Y0176076D01*
X0022881Y0175939D01*
X0022977Y0175800D01*
X0023069Y0175658D01*
X0023158Y0175514D01*
X0023243Y0175368D01*
X0023324Y0175220D01*
X0023402Y0175070D01*
X0023476Y0174918D01*
X0023547Y0174764D01*
X0023614Y0174609D01*
X0023676Y0174452D01*
X0023735Y0174293D01*
X0023790Y0174133D01*
X0023841Y0173972D01*
X0023888Y0173810D01*
X0023932Y0173646D01*
X0023971Y0173482D01*
X0024006Y0173316D01*
X0024037Y0173150D01*
X0024063Y0172983D01*
X0024086Y0172815D01*
X0024105Y0172647D01*
X0024119Y0172479D01*
X0024130Y0172310D01*
X0024136Y0172141D01*
X0024138Y0171972D01*
X0024136Y0171803D01*
X0024130Y0171634D01*
X0024119Y0171465D01*
X0024105Y0171297D01*
X0024086Y0171129D01*
X0024063Y0170961D01*
X0024037Y0170794D01*
X0024006Y0170628D01*
X0023971Y0170462D01*
X0023932Y0170298D01*
X0023888Y0170134D01*
X0023841Y0169972D01*
X0023790Y0169811D01*
X0023735Y0169651D01*
X0023676Y0169492D01*
X0023614Y0169335D01*
X0023547Y0169180D01*
X0023476Y0169026D01*
X0023402Y0168874D01*
X0023324Y0168724D01*
X0023243Y0168576D01*
X0023158Y0168430D01*
X0023069Y0168286D01*
X0022977Y0168144D01*
X0022881Y0168005D01*
X0022782Y0167868D01*
X0022680Y0167733D01*
X0022574Y0167601D01*
X0022465Y0167472D01*
X0022353Y0167345D01*
X0022238Y0167221D01*
X0022120Y0167100D01*
X0021999Y0166982D01*
X0021875Y0166867D01*
X0021748Y0166755D01*
X0021619Y0166646D01*
X0021487Y0166540D01*
X0021352Y0166438D01*
X0021215Y0166339D01*
X0021076Y0166243D01*
X0020934Y0166151D01*
X0020790Y0166062D01*
X0020644Y0165977D01*
X0020496Y0165896D01*
X0020346Y0165818D01*
X0020194Y0165744D01*
X0020040Y0165673D01*
X0019885Y0165606D01*
X0019728Y0165544D01*
X0019569Y0165485D01*
X0019409Y0165430D01*
X0019248Y0165379D01*
X0019086Y0165332D01*
X0018922Y0165288D01*
X0018758Y0165249D01*
X0018592Y0165214D01*
X0018426Y0165183D01*
X0018259Y0165157D01*
X0018091Y0165134D01*
X0017923Y0165115D01*
X0017755Y0165101D01*
X0017586Y0165090D01*
X0017417Y0165084D01*
X0017248Y0165082D01*
X0017079Y0165084D01*
X0016910Y0165090D01*
X0016741Y0165101D01*
X0016573Y0165115D01*
X0016405Y0165134D01*
X0016237Y0165157D01*
X0016070Y0165183D01*
X0015904Y0165214D01*
X0015738Y0165249D01*
X0015574Y0165288D01*
X0015410Y0165332D01*
X0015248Y0165379D01*
X0015087Y0165430D01*
X0014927Y0165485D01*
X0014768Y0165544D01*
X0014611Y0165606D01*
X0014456Y0165673D01*
X0014302Y0165744D01*
X0014150Y0165818D01*
X0014000Y0165896D01*
X0013852Y0165977D01*
X0013706Y0166062D01*
X0013562Y0166151D01*
X0013420Y0166243D01*
X0013281Y0166339D01*
X0013144Y0166438D01*
X0013009Y0166540D01*
X0012877Y0166646D01*
X0012748Y0166755D01*
X0012621Y0166867D01*
X0012497Y0166982D01*
X0012376Y0167100D01*
X0012258Y0167221D01*
X0012143Y0167345D01*
X0012031Y0167472D01*
X0011922Y0167601D01*
X0011816Y0167733D01*
X0011714Y0167868D01*
X0011615Y0168005D01*
X0011519Y0168144D01*
X0011427Y0168286D01*
X0011338Y0168430D01*
X0011253Y0168576D01*
X0011172Y0168724D01*
X0011094Y0168874D01*
X0011020Y0169026D01*
X0010949Y0169180D01*
X0010882Y0169335D01*
X0010820Y0169492D01*
X0010761Y0169651D01*
X0010706Y0169811D01*
X0010655Y0169972D01*
X0010608Y0170134D01*
X0010564Y0170298D01*
X0010525Y0170462D01*
X0010490Y0170628D01*
X0010459Y0170794D01*
X0010433Y0170961D01*
X0010410Y0171129D01*
X0010391Y0171297D01*
X0010377Y0171465D01*
X0010366Y0171634D01*
X0010360Y0171803D01*
X0010358Y0171972D01*
X0100909Y0328811D02*
X0100911Y0328980D01*
X0100917Y0329149D01*
X0100928Y0329318D01*
X0100942Y0329486D01*
X0100961Y0329654D01*
X0100984Y0329822D01*
X0101010Y0329989D01*
X0101041Y0330155D01*
X0101076Y0330321D01*
X0101115Y0330485D01*
X0101159Y0330649D01*
X0101206Y0330811D01*
X0101257Y0330972D01*
X0101312Y0331132D01*
X0101371Y0331291D01*
X0101433Y0331448D01*
X0101500Y0331603D01*
X0101571Y0331757D01*
X0101645Y0331909D01*
X0101723Y0332059D01*
X0101804Y0332207D01*
X0101889Y0332353D01*
X0101978Y0332497D01*
X0102070Y0332639D01*
X0102166Y0332778D01*
X0102265Y0332915D01*
X0102367Y0333050D01*
X0102473Y0333182D01*
X0102582Y0333311D01*
X0102694Y0333438D01*
X0102809Y0333562D01*
X0102927Y0333683D01*
X0103048Y0333801D01*
X0103172Y0333916D01*
X0103299Y0334028D01*
X0103428Y0334137D01*
X0103560Y0334243D01*
X0103695Y0334345D01*
X0103832Y0334444D01*
X0103971Y0334540D01*
X0104113Y0334632D01*
X0104257Y0334721D01*
X0104403Y0334806D01*
X0104551Y0334887D01*
X0104701Y0334965D01*
X0104853Y0335039D01*
X0105007Y0335110D01*
X0105162Y0335177D01*
X0105319Y0335239D01*
X0105478Y0335298D01*
X0105638Y0335353D01*
X0105799Y0335404D01*
X0105961Y0335451D01*
X0106125Y0335495D01*
X0106289Y0335534D01*
X0106455Y0335569D01*
X0106621Y0335600D01*
X0106788Y0335626D01*
X0106956Y0335649D01*
X0107124Y0335668D01*
X0107292Y0335682D01*
X0107461Y0335693D01*
X0107630Y0335699D01*
X0107799Y0335701D01*
X0107968Y0335699D01*
X0108137Y0335693D01*
X0108306Y0335682D01*
X0108474Y0335668D01*
X0108642Y0335649D01*
X0108810Y0335626D01*
X0108977Y0335600D01*
X0109143Y0335569D01*
X0109309Y0335534D01*
X0109473Y0335495D01*
X0109637Y0335451D01*
X0109799Y0335404D01*
X0109960Y0335353D01*
X0110120Y0335298D01*
X0110279Y0335239D01*
X0110436Y0335177D01*
X0110591Y0335110D01*
X0110745Y0335039D01*
X0110897Y0334965D01*
X0111047Y0334887D01*
X0111195Y0334806D01*
X0111341Y0334721D01*
X0111485Y0334632D01*
X0111627Y0334540D01*
X0111766Y0334444D01*
X0111903Y0334345D01*
X0112038Y0334243D01*
X0112170Y0334137D01*
X0112299Y0334028D01*
X0112426Y0333916D01*
X0112550Y0333801D01*
X0112671Y0333683D01*
X0112789Y0333562D01*
X0112904Y0333438D01*
X0113016Y0333311D01*
X0113125Y0333182D01*
X0113231Y0333050D01*
X0113333Y0332915D01*
X0113432Y0332778D01*
X0113528Y0332639D01*
X0113620Y0332497D01*
X0113709Y0332353D01*
X0113794Y0332207D01*
X0113875Y0332059D01*
X0113953Y0331909D01*
X0114027Y0331757D01*
X0114098Y0331603D01*
X0114165Y0331448D01*
X0114227Y0331291D01*
X0114286Y0331132D01*
X0114341Y0330972D01*
X0114392Y0330811D01*
X0114439Y0330649D01*
X0114483Y0330485D01*
X0114522Y0330321D01*
X0114557Y0330155D01*
X0114588Y0329989D01*
X0114614Y0329822D01*
X0114637Y0329654D01*
X0114656Y0329486D01*
X0114670Y0329318D01*
X0114681Y0329149D01*
X0114687Y0328980D01*
X0114689Y0328811D01*
X0114687Y0328642D01*
X0114681Y0328473D01*
X0114670Y0328304D01*
X0114656Y0328136D01*
X0114637Y0327968D01*
X0114614Y0327800D01*
X0114588Y0327633D01*
X0114557Y0327467D01*
X0114522Y0327301D01*
X0114483Y0327137D01*
X0114439Y0326973D01*
X0114392Y0326811D01*
X0114341Y0326650D01*
X0114286Y0326490D01*
X0114227Y0326331D01*
X0114165Y0326174D01*
X0114098Y0326019D01*
X0114027Y0325865D01*
X0113953Y0325713D01*
X0113875Y0325563D01*
X0113794Y0325415D01*
X0113709Y0325269D01*
X0113620Y0325125D01*
X0113528Y0324983D01*
X0113432Y0324844D01*
X0113333Y0324707D01*
X0113231Y0324572D01*
X0113125Y0324440D01*
X0113016Y0324311D01*
X0112904Y0324184D01*
X0112789Y0324060D01*
X0112671Y0323939D01*
X0112550Y0323821D01*
X0112426Y0323706D01*
X0112299Y0323594D01*
X0112170Y0323485D01*
X0112038Y0323379D01*
X0111903Y0323277D01*
X0111766Y0323178D01*
X0111627Y0323082D01*
X0111485Y0322990D01*
X0111341Y0322901D01*
X0111195Y0322816D01*
X0111047Y0322735D01*
X0110897Y0322657D01*
X0110745Y0322583D01*
X0110591Y0322512D01*
X0110436Y0322445D01*
X0110279Y0322383D01*
X0110120Y0322324D01*
X0109960Y0322269D01*
X0109799Y0322218D01*
X0109637Y0322171D01*
X0109473Y0322127D01*
X0109309Y0322088D01*
X0109143Y0322053D01*
X0108977Y0322022D01*
X0108810Y0321996D01*
X0108642Y0321973D01*
X0108474Y0321954D01*
X0108306Y0321940D01*
X0108137Y0321929D01*
X0107968Y0321923D01*
X0107799Y0321921D01*
X0107630Y0321923D01*
X0107461Y0321929D01*
X0107292Y0321940D01*
X0107124Y0321954D01*
X0106956Y0321973D01*
X0106788Y0321996D01*
X0106621Y0322022D01*
X0106455Y0322053D01*
X0106289Y0322088D01*
X0106125Y0322127D01*
X0105961Y0322171D01*
X0105799Y0322218D01*
X0105638Y0322269D01*
X0105478Y0322324D01*
X0105319Y0322383D01*
X0105162Y0322445D01*
X0105007Y0322512D01*
X0104853Y0322583D01*
X0104701Y0322657D01*
X0104551Y0322735D01*
X0104403Y0322816D01*
X0104257Y0322901D01*
X0104113Y0322990D01*
X0103971Y0323082D01*
X0103832Y0323178D01*
X0103695Y0323277D01*
X0103560Y0323379D01*
X0103428Y0323485D01*
X0103299Y0323594D01*
X0103172Y0323706D01*
X0103048Y0323821D01*
X0102927Y0323939D01*
X0102809Y0324060D01*
X0102694Y0324184D01*
X0102582Y0324311D01*
X0102473Y0324440D01*
X0102367Y0324572D01*
X0102265Y0324707D01*
X0102166Y0324844D01*
X0102070Y0324983D01*
X0101978Y0325125D01*
X0101889Y0325269D01*
X0101804Y0325415D01*
X0101723Y0325563D01*
X0101645Y0325713D01*
X0101571Y0325865D01*
X0101500Y0326019D01*
X0101433Y0326174D01*
X0101371Y0326331D01*
X0101312Y0326490D01*
X0101257Y0326650D01*
X0101206Y0326811D01*
X0101159Y0326973D01*
X0101115Y0327137D01*
X0101076Y0327301D01*
X0101041Y0327467D01*
X0101010Y0327633D01*
X0100984Y0327800D01*
X0100961Y0327968D01*
X0100942Y0328136D01*
X0100928Y0328304D01*
X0100917Y0328473D01*
X0100911Y0328642D01*
X0100909Y0328811D01*
X0282012Y0328811D02*
X0282014Y0328980D01*
X0282020Y0329149D01*
X0282031Y0329318D01*
X0282045Y0329486D01*
X0282064Y0329654D01*
X0282087Y0329822D01*
X0282113Y0329989D01*
X0282144Y0330155D01*
X0282179Y0330321D01*
X0282218Y0330485D01*
X0282262Y0330649D01*
X0282309Y0330811D01*
X0282360Y0330972D01*
X0282415Y0331132D01*
X0282474Y0331291D01*
X0282536Y0331448D01*
X0282603Y0331603D01*
X0282674Y0331757D01*
X0282748Y0331909D01*
X0282826Y0332059D01*
X0282907Y0332207D01*
X0282992Y0332353D01*
X0283081Y0332497D01*
X0283173Y0332639D01*
X0283269Y0332778D01*
X0283368Y0332915D01*
X0283470Y0333050D01*
X0283576Y0333182D01*
X0283685Y0333311D01*
X0283797Y0333438D01*
X0283912Y0333562D01*
X0284030Y0333683D01*
X0284151Y0333801D01*
X0284275Y0333916D01*
X0284402Y0334028D01*
X0284531Y0334137D01*
X0284663Y0334243D01*
X0284798Y0334345D01*
X0284935Y0334444D01*
X0285074Y0334540D01*
X0285216Y0334632D01*
X0285360Y0334721D01*
X0285506Y0334806D01*
X0285654Y0334887D01*
X0285804Y0334965D01*
X0285956Y0335039D01*
X0286110Y0335110D01*
X0286265Y0335177D01*
X0286422Y0335239D01*
X0286581Y0335298D01*
X0286741Y0335353D01*
X0286902Y0335404D01*
X0287064Y0335451D01*
X0287228Y0335495D01*
X0287392Y0335534D01*
X0287558Y0335569D01*
X0287724Y0335600D01*
X0287891Y0335626D01*
X0288059Y0335649D01*
X0288227Y0335668D01*
X0288395Y0335682D01*
X0288564Y0335693D01*
X0288733Y0335699D01*
X0288902Y0335701D01*
X0289071Y0335699D01*
X0289240Y0335693D01*
X0289409Y0335682D01*
X0289577Y0335668D01*
X0289745Y0335649D01*
X0289913Y0335626D01*
X0290080Y0335600D01*
X0290246Y0335569D01*
X0290412Y0335534D01*
X0290576Y0335495D01*
X0290740Y0335451D01*
X0290902Y0335404D01*
X0291063Y0335353D01*
X0291223Y0335298D01*
X0291382Y0335239D01*
X0291539Y0335177D01*
X0291694Y0335110D01*
X0291848Y0335039D01*
X0292000Y0334965D01*
X0292150Y0334887D01*
X0292298Y0334806D01*
X0292444Y0334721D01*
X0292588Y0334632D01*
X0292730Y0334540D01*
X0292869Y0334444D01*
X0293006Y0334345D01*
X0293141Y0334243D01*
X0293273Y0334137D01*
X0293402Y0334028D01*
X0293529Y0333916D01*
X0293653Y0333801D01*
X0293774Y0333683D01*
X0293892Y0333562D01*
X0294007Y0333438D01*
X0294119Y0333311D01*
X0294228Y0333182D01*
X0294334Y0333050D01*
X0294436Y0332915D01*
X0294535Y0332778D01*
X0294631Y0332639D01*
X0294723Y0332497D01*
X0294812Y0332353D01*
X0294897Y0332207D01*
X0294978Y0332059D01*
X0295056Y0331909D01*
X0295130Y0331757D01*
X0295201Y0331603D01*
X0295268Y0331448D01*
X0295330Y0331291D01*
X0295389Y0331132D01*
X0295444Y0330972D01*
X0295495Y0330811D01*
X0295542Y0330649D01*
X0295586Y0330485D01*
X0295625Y0330321D01*
X0295660Y0330155D01*
X0295691Y0329989D01*
X0295717Y0329822D01*
X0295740Y0329654D01*
X0295759Y0329486D01*
X0295773Y0329318D01*
X0295784Y0329149D01*
X0295790Y0328980D01*
X0295792Y0328811D01*
X0295790Y0328642D01*
X0295784Y0328473D01*
X0295773Y0328304D01*
X0295759Y0328136D01*
X0295740Y0327968D01*
X0295717Y0327800D01*
X0295691Y0327633D01*
X0295660Y0327467D01*
X0295625Y0327301D01*
X0295586Y0327137D01*
X0295542Y0326973D01*
X0295495Y0326811D01*
X0295444Y0326650D01*
X0295389Y0326490D01*
X0295330Y0326331D01*
X0295268Y0326174D01*
X0295201Y0326019D01*
X0295130Y0325865D01*
X0295056Y0325713D01*
X0294978Y0325563D01*
X0294897Y0325415D01*
X0294812Y0325269D01*
X0294723Y0325125D01*
X0294631Y0324983D01*
X0294535Y0324844D01*
X0294436Y0324707D01*
X0294334Y0324572D01*
X0294228Y0324440D01*
X0294119Y0324311D01*
X0294007Y0324184D01*
X0293892Y0324060D01*
X0293774Y0323939D01*
X0293653Y0323821D01*
X0293529Y0323706D01*
X0293402Y0323594D01*
X0293273Y0323485D01*
X0293141Y0323379D01*
X0293006Y0323277D01*
X0292869Y0323178D01*
X0292730Y0323082D01*
X0292588Y0322990D01*
X0292444Y0322901D01*
X0292298Y0322816D01*
X0292150Y0322735D01*
X0292000Y0322657D01*
X0291848Y0322583D01*
X0291694Y0322512D01*
X0291539Y0322445D01*
X0291382Y0322383D01*
X0291223Y0322324D01*
X0291063Y0322269D01*
X0290902Y0322218D01*
X0290740Y0322171D01*
X0290576Y0322127D01*
X0290412Y0322088D01*
X0290246Y0322053D01*
X0290080Y0322022D01*
X0289913Y0321996D01*
X0289745Y0321973D01*
X0289577Y0321954D01*
X0289409Y0321940D01*
X0289240Y0321929D01*
X0289071Y0321923D01*
X0288902Y0321921D01*
X0288733Y0321923D01*
X0288564Y0321929D01*
X0288395Y0321940D01*
X0288227Y0321954D01*
X0288059Y0321973D01*
X0287891Y0321996D01*
X0287724Y0322022D01*
X0287558Y0322053D01*
X0287392Y0322088D01*
X0287228Y0322127D01*
X0287064Y0322171D01*
X0286902Y0322218D01*
X0286741Y0322269D01*
X0286581Y0322324D01*
X0286422Y0322383D01*
X0286265Y0322445D01*
X0286110Y0322512D01*
X0285956Y0322583D01*
X0285804Y0322657D01*
X0285654Y0322735D01*
X0285506Y0322816D01*
X0285360Y0322901D01*
X0285216Y0322990D01*
X0285074Y0323082D01*
X0284935Y0323178D01*
X0284798Y0323277D01*
X0284663Y0323379D01*
X0284531Y0323485D01*
X0284402Y0323594D01*
X0284275Y0323706D01*
X0284151Y0323821D01*
X0284030Y0323939D01*
X0283912Y0324060D01*
X0283797Y0324184D01*
X0283685Y0324311D01*
X0283576Y0324440D01*
X0283470Y0324572D01*
X0283368Y0324707D01*
X0283269Y0324844D01*
X0283173Y0324983D01*
X0283081Y0325125D01*
X0282992Y0325269D01*
X0282907Y0325415D01*
X0282826Y0325563D01*
X0282748Y0325713D01*
X0282674Y0325865D01*
X0282603Y0326019D01*
X0282536Y0326174D01*
X0282474Y0326331D01*
X0282415Y0326490D01*
X0282360Y0326650D01*
X0282309Y0326811D01*
X0282262Y0326973D01*
X0282218Y0327137D01*
X0282179Y0327301D01*
X0282144Y0327467D01*
X0282113Y0327633D01*
X0282087Y0327800D01*
X0282064Y0327968D01*
X0282045Y0328136D01*
X0282031Y0328304D01*
X0282020Y0328473D01*
X0282014Y0328642D01*
X0282012Y0328811D01*
X0372563Y0171972D02*
X0372565Y0172141D01*
X0372571Y0172310D01*
X0372582Y0172479D01*
X0372596Y0172647D01*
X0372615Y0172815D01*
X0372638Y0172983D01*
X0372664Y0173150D01*
X0372695Y0173316D01*
X0372730Y0173482D01*
X0372769Y0173646D01*
X0372813Y0173810D01*
X0372860Y0173972D01*
X0372911Y0174133D01*
X0372966Y0174293D01*
X0373025Y0174452D01*
X0373087Y0174609D01*
X0373154Y0174764D01*
X0373225Y0174918D01*
X0373299Y0175070D01*
X0373377Y0175220D01*
X0373458Y0175368D01*
X0373543Y0175514D01*
X0373632Y0175658D01*
X0373724Y0175800D01*
X0373820Y0175939D01*
X0373919Y0176076D01*
X0374021Y0176211D01*
X0374127Y0176343D01*
X0374236Y0176472D01*
X0374348Y0176599D01*
X0374463Y0176723D01*
X0374581Y0176844D01*
X0374702Y0176962D01*
X0374826Y0177077D01*
X0374953Y0177189D01*
X0375082Y0177298D01*
X0375214Y0177404D01*
X0375349Y0177506D01*
X0375486Y0177605D01*
X0375625Y0177701D01*
X0375767Y0177793D01*
X0375911Y0177882D01*
X0376057Y0177967D01*
X0376205Y0178048D01*
X0376355Y0178126D01*
X0376507Y0178200D01*
X0376661Y0178271D01*
X0376816Y0178338D01*
X0376973Y0178400D01*
X0377132Y0178459D01*
X0377292Y0178514D01*
X0377453Y0178565D01*
X0377615Y0178612D01*
X0377779Y0178656D01*
X0377943Y0178695D01*
X0378109Y0178730D01*
X0378275Y0178761D01*
X0378442Y0178787D01*
X0378610Y0178810D01*
X0378778Y0178829D01*
X0378946Y0178843D01*
X0379115Y0178854D01*
X0379284Y0178860D01*
X0379453Y0178862D01*
X0379622Y0178860D01*
X0379791Y0178854D01*
X0379960Y0178843D01*
X0380128Y0178829D01*
X0380296Y0178810D01*
X0380464Y0178787D01*
X0380631Y0178761D01*
X0380797Y0178730D01*
X0380963Y0178695D01*
X0381127Y0178656D01*
X0381291Y0178612D01*
X0381453Y0178565D01*
X0381614Y0178514D01*
X0381774Y0178459D01*
X0381933Y0178400D01*
X0382090Y0178338D01*
X0382245Y0178271D01*
X0382399Y0178200D01*
X0382551Y0178126D01*
X0382701Y0178048D01*
X0382849Y0177967D01*
X0382995Y0177882D01*
X0383139Y0177793D01*
X0383281Y0177701D01*
X0383420Y0177605D01*
X0383557Y0177506D01*
X0383692Y0177404D01*
X0383824Y0177298D01*
X0383953Y0177189D01*
X0384080Y0177077D01*
X0384204Y0176962D01*
X0384325Y0176844D01*
X0384443Y0176723D01*
X0384558Y0176599D01*
X0384670Y0176472D01*
X0384779Y0176343D01*
X0384885Y0176211D01*
X0384987Y0176076D01*
X0385086Y0175939D01*
X0385182Y0175800D01*
X0385274Y0175658D01*
X0385363Y0175514D01*
X0385448Y0175368D01*
X0385529Y0175220D01*
X0385607Y0175070D01*
X0385681Y0174918D01*
X0385752Y0174764D01*
X0385819Y0174609D01*
X0385881Y0174452D01*
X0385940Y0174293D01*
X0385995Y0174133D01*
X0386046Y0173972D01*
X0386093Y0173810D01*
X0386137Y0173646D01*
X0386176Y0173482D01*
X0386211Y0173316D01*
X0386242Y0173150D01*
X0386268Y0172983D01*
X0386291Y0172815D01*
X0386310Y0172647D01*
X0386324Y0172479D01*
X0386335Y0172310D01*
X0386341Y0172141D01*
X0386343Y0171972D01*
X0386341Y0171803D01*
X0386335Y0171634D01*
X0386324Y0171465D01*
X0386310Y0171297D01*
X0386291Y0171129D01*
X0386268Y0170961D01*
X0386242Y0170794D01*
X0386211Y0170628D01*
X0386176Y0170462D01*
X0386137Y0170298D01*
X0386093Y0170134D01*
X0386046Y0169972D01*
X0385995Y0169811D01*
X0385940Y0169651D01*
X0385881Y0169492D01*
X0385819Y0169335D01*
X0385752Y0169180D01*
X0385681Y0169026D01*
X0385607Y0168874D01*
X0385529Y0168724D01*
X0385448Y0168576D01*
X0385363Y0168430D01*
X0385274Y0168286D01*
X0385182Y0168144D01*
X0385086Y0168005D01*
X0384987Y0167868D01*
X0384885Y0167733D01*
X0384779Y0167601D01*
X0384670Y0167472D01*
X0384558Y0167345D01*
X0384443Y0167221D01*
X0384325Y0167100D01*
X0384204Y0166982D01*
X0384080Y0166867D01*
X0383953Y0166755D01*
X0383824Y0166646D01*
X0383692Y0166540D01*
X0383557Y0166438D01*
X0383420Y0166339D01*
X0383281Y0166243D01*
X0383139Y0166151D01*
X0382995Y0166062D01*
X0382849Y0165977D01*
X0382701Y0165896D01*
X0382551Y0165818D01*
X0382399Y0165744D01*
X0382245Y0165673D01*
X0382090Y0165606D01*
X0381933Y0165544D01*
X0381774Y0165485D01*
X0381614Y0165430D01*
X0381453Y0165379D01*
X0381291Y0165332D01*
X0381127Y0165288D01*
X0380963Y0165249D01*
X0380797Y0165214D01*
X0380631Y0165183D01*
X0380464Y0165157D01*
X0380296Y0165134D01*
X0380128Y0165115D01*
X0379960Y0165101D01*
X0379791Y0165090D01*
X0379622Y0165084D01*
X0379453Y0165082D01*
X0379284Y0165084D01*
X0379115Y0165090D01*
X0378946Y0165101D01*
X0378778Y0165115D01*
X0378610Y0165134D01*
X0378442Y0165157D01*
X0378275Y0165183D01*
X0378109Y0165214D01*
X0377943Y0165249D01*
X0377779Y0165288D01*
X0377615Y0165332D01*
X0377453Y0165379D01*
X0377292Y0165430D01*
X0377132Y0165485D01*
X0376973Y0165544D01*
X0376816Y0165606D01*
X0376661Y0165673D01*
X0376507Y0165744D01*
X0376355Y0165818D01*
X0376205Y0165896D01*
X0376057Y0165977D01*
X0375911Y0166062D01*
X0375767Y0166151D01*
X0375625Y0166243D01*
X0375486Y0166339D01*
X0375349Y0166438D01*
X0375214Y0166540D01*
X0375082Y0166646D01*
X0374953Y0166755D01*
X0374826Y0166867D01*
X0374702Y0166982D01*
X0374581Y0167100D01*
X0374463Y0167221D01*
X0374348Y0167345D01*
X0374236Y0167472D01*
X0374127Y0167601D01*
X0374021Y0167733D01*
X0373919Y0167868D01*
X0373820Y0168005D01*
X0373724Y0168144D01*
X0373632Y0168286D01*
X0373543Y0168430D01*
X0373458Y0168576D01*
X0373377Y0168724D01*
X0373299Y0168874D01*
X0373225Y0169026D01*
X0373154Y0169180D01*
X0373087Y0169335D01*
X0373025Y0169492D01*
X0372966Y0169651D01*
X0372911Y0169811D01*
X0372860Y0169972D01*
X0372813Y0170134D01*
X0372769Y0170298D01*
X0372730Y0170462D01*
X0372695Y0170628D01*
X0372664Y0170794D01*
X0372638Y0170961D01*
X0372615Y0171129D01*
X0372596Y0171297D01*
X0372582Y0171465D01*
X0372571Y0171634D01*
X0372565Y0171803D01*
X0372563Y0171972D01*
X0282012Y0015134D02*
X0282014Y0015303D01*
X0282020Y0015472D01*
X0282031Y0015641D01*
X0282045Y0015809D01*
X0282064Y0015977D01*
X0282087Y0016145D01*
X0282113Y0016312D01*
X0282144Y0016478D01*
X0282179Y0016644D01*
X0282218Y0016808D01*
X0282262Y0016972D01*
X0282309Y0017134D01*
X0282360Y0017295D01*
X0282415Y0017455D01*
X0282474Y0017614D01*
X0282536Y0017771D01*
X0282603Y0017926D01*
X0282674Y0018080D01*
X0282748Y0018232D01*
X0282826Y0018382D01*
X0282907Y0018530D01*
X0282992Y0018676D01*
X0283081Y0018820D01*
X0283173Y0018962D01*
X0283269Y0019101D01*
X0283368Y0019238D01*
X0283470Y0019373D01*
X0283576Y0019505D01*
X0283685Y0019634D01*
X0283797Y0019761D01*
X0283912Y0019885D01*
X0284030Y0020006D01*
X0284151Y0020124D01*
X0284275Y0020239D01*
X0284402Y0020351D01*
X0284531Y0020460D01*
X0284663Y0020566D01*
X0284798Y0020668D01*
X0284935Y0020767D01*
X0285074Y0020863D01*
X0285216Y0020955D01*
X0285360Y0021044D01*
X0285506Y0021129D01*
X0285654Y0021210D01*
X0285804Y0021288D01*
X0285956Y0021362D01*
X0286110Y0021433D01*
X0286265Y0021500D01*
X0286422Y0021562D01*
X0286581Y0021621D01*
X0286741Y0021676D01*
X0286902Y0021727D01*
X0287064Y0021774D01*
X0287228Y0021818D01*
X0287392Y0021857D01*
X0287558Y0021892D01*
X0287724Y0021923D01*
X0287891Y0021949D01*
X0288059Y0021972D01*
X0288227Y0021991D01*
X0288395Y0022005D01*
X0288564Y0022016D01*
X0288733Y0022022D01*
X0288902Y0022024D01*
X0289071Y0022022D01*
X0289240Y0022016D01*
X0289409Y0022005D01*
X0289577Y0021991D01*
X0289745Y0021972D01*
X0289913Y0021949D01*
X0290080Y0021923D01*
X0290246Y0021892D01*
X0290412Y0021857D01*
X0290576Y0021818D01*
X0290740Y0021774D01*
X0290902Y0021727D01*
X0291063Y0021676D01*
X0291223Y0021621D01*
X0291382Y0021562D01*
X0291539Y0021500D01*
X0291694Y0021433D01*
X0291848Y0021362D01*
X0292000Y0021288D01*
X0292150Y0021210D01*
X0292298Y0021129D01*
X0292444Y0021044D01*
X0292588Y0020955D01*
X0292730Y0020863D01*
X0292869Y0020767D01*
X0293006Y0020668D01*
X0293141Y0020566D01*
X0293273Y0020460D01*
X0293402Y0020351D01*
X0293529Y0020239D01*
X0293653Y0020124D01*
X0293774Y0020006D01*
X0293892Y0019885D01*
X0294007Y0019761D01*
X0294119Y0019634D01*
X0294228Y0019505D01*
X0294334Y0019373D01*
X0294436Y0019238D01*
X0294535Y0019101D01*
X0294631Y0018962D01*
X0294723Y0018820D01*
X0294812Y0018676D01*
X0294897Y0018530D01*
X0294978Y0018382D01*
X0295056Y0018232D01*
X0295130Y0018080D01*
X0295201Y0017926D01*
X0295268Y0017771D01*
X0295330Y0017614D01*
X0295389Y0017455D01*
X0295444Y0017295D01*
X0295495Y0017134D01*
X0295542Y0016972D01*
X0295586Y0016808D01*
X0295625Y0016644D01*
X0295660Y0016478D01*
X0295691Y0016312D01*
X0295717Y0016145D01*
X0295740Y0015977D01*
X0295759Y0015809D01*
X0295773Y0015641D01*
X0295784Y0015472D01*
X0295790Y0015303D01*
X0295792Y0015134D01*
X0295790Y0014965D01*
X0295784Y0014796D01*
X0295773Y0014627D01*
X0295759Y0014459D01*
X0295740Y0014291D01*
X0295717Y0014123D01*
X0295691Y0013956D01*
X0295660Y0013790D01*
X0295625Y0013624D01*
X0295586Y0013460D01*
X0295542Y0013296D01*
X0295495Y0013134D01*
X0295444Y0012973D01*
X0295389Y0012813D01*
X0295330Y0012654D01*
X0295268Y0012497D01*
X0295201Y0012342D01*
X0295130Y0012188D01*
X0295056Y0012036D01*
X0294978Y0011886D01*
X0294897Y0011738D01*
X0294812Y0011592D01*
X0294723Y0011448D01*
X0294631Y0011306D01*
X0294535Y0011167D01*
X0294436Y0011030D01*
X0294334Y0010895D01*
X0294228Y0010763D01*
X0294119Y0010634D01*
X0294007Y0010507D01*
X0293892Y0010383D01*
X0293774Y0010262D01*
X0293653Y0010144D01*
X0293529Y0010029D01*
X0293402Y0009917D01*
X0293273Y0009808D01*
X0293141Y0009702D01*
X0293006Y0009600D01*
X0292869Y0009501D01*
X0292730Y0009405D01*
X0292588Y0009313D01*
X0292444Y0009224D01*
X0292298Y0009139D01*
X0292150Y0009058D01*
X0292000Y0008980D01*
X0291848Y0008906D01*
X0291694Y0008835D01*
X0291539Y0008768D01*
X0291382Y0008706D01*
X0291223Y0008647D01*
X0291063Y0008592D01*
X0290902Y0008541D01*
X0290740Y0008494D01*
X0290576Y0008450D01*
X0290412Y0008411D01*
X0290246Y0008376D01*
X0290080Y0008345D01*
X0289913Y0008319D01*
X0289745Y0008296D01*
X0289577Y0008277D01*
X0289409Y0008263D01*
X0289240Y0008252D01*
X0289071Y0008246D01*
X0288902Y0008244D01*
X0288733Y0008246D01*
X0288564Y0008252D01*
X0288395Y0008263D01*
X0288227Y0008277D01*
X0288059Y0008296D01*
X0287891Y0008319D01*
X0287724Y0008345D01*
X0287558Y0008376D01*
X0287392Y0008411D01*
X0287228Y0008450D01*
X0287064Y0008494D01*
X0286902Y0008541D01*
X0286741Y0008592D01*
X0286581Y0008647D01*
X0286422Y0008706D01*
X0286265Y0008768D01*
X0286110Y0008835D01*
X0285956Y0008906D01*
X0285804Y0008980D01*
X0285654Y0009058D01*
X0285506Y0009139D01*
X0285360Y0009224D01*
X0285216Y0009313D01*
X0285074Y0009405D01*
X0284935Y0009501D01*
X0284798Y0009600D01*
X0284663Y0009702D01*
X0284531Y0009808D01*
X0284402Y0009917D01*
X0284275Y0010029D01*
X0284151Y0010144D01*
X0284030Y0010262D01*
X0283912Y0010383D01*
X0283797Y0010507D01*
X0283685Y0010634D01*
X0283576Y0010763D01*
X0283470Y0010895D01*
X0283368Y0011030D01*
X0283269Y0011167D01*
X0283173Y0011306D01*
X0283081Y0011448D01*
X0282992Y0011592D01*
X0282907Y0011738D01*
X0282826Y0011886D01*
X0282748Y0012036D01*
X0282674Y0012188D01*
X0282603Y0012342D01*
X0282536Y0012497D01*
X0282474Y0012654D01*
X0282415Y0012813D01*
X0282360Y0012973D01*
X0282309Y0013134D01*
X0282262Y0013296D01*
X0282218Y0013460D01*
X0282179Y0013624D01*
X0282144Y0013790D01*
X0282113Y0013956D01*
X0282087Y0014123D01*
X0282064Y0014291D01*
X0282045Y0014459D01*
X0282031Y0014627D01*
X0282020Y0014796D01*
X0282014Y0014965D01*
X0282012Y0015134D01*
D11*
X0164855Y0049422D02*
X0163742Y0048309D01*
X0161515Y0048309D01*
X0160402Y0049422D01*
X0161515Y0051649D02*
X0163742Y0051649D01*
X0164855Y0050536D01*
X0164855Y0049422D01*
X0161515Y0051649D02*
X0160402Y0052762D01*
X0160402Y0053876D01*
X0161515Y0054989D01*
X0163742Y0054989D01*
X0164855Y0053876D01*
X0157795Y0054989D02*
X0155568Y0054989D01*
X0156681Y0054989D02*
X0156681Y0048309D01*
X0155568Y0048309D02*
X0157795Y0048309D01*
X0152771Y0048309D02*
X0148318Y0054989D01*
X0145521Y0052762D02*
X0145521Y0048309D01*
X0148318Y0048309D02*
X0152771Y0054989D01*
X0145521Y0052762D02*
X0143294Y0054989D01*
X0141068Y0052762D01*
X0141068Y0048309D01*
X0141068Y0051649D02*
X0145521Y0051649D01*
X0131020Y0053876D02*
X0131020Y0054989D01*
X0131020Y0053876D02*
X0128794Y0051649D01*
X0128794Y0048309D01*
X0128794Y0051649D02*
X0126567Y0053876D01*
X0126567Y0054989D01*
X0280826Y0266181D02*
X0279713Y0268109D01*
X0280120Y0269630D01*
X0282605Y0269779D02*
X0283719Y0267851D01*
X0283311Y0266330D01*
X0282347Y0265773D01*
X0280826Y0266181D01*
X0282605Y0269779D02*
X0283013Y0271300D01*
X0283977Y0271856D01*
X0285498Y0271449D01*
X0286611Y0269521D01*
X0286204Y0268000D01*
X0283638Y0274671D02*
X0282524Y0276599D01*
X0283081Y0275635D02*
X0277296Y0272295D01*
X0276740Y0273259D02*
X0277853Y0271331D01*
X0275341Y0275682D02*
X0278899Y0282878D01*
X0275572Y0284187D02*
X0271716Y0281960D01*
X0273114Y0279538D02*
X0281126Y0279021D01*
X0275572Y0284187D02*
X0276387Y0287229D01*
X0273346Y0288044D01*
X0269489Y0285817D01*
X0272382Y0287487D02*
X0274608Y0283630D01*
X0269286Y0297302D02*
X0263203Y0298932D01*
X0262239Y0298375D01*
X0264466Y0294518D01*
X0269286Y0297302D02*
X0270250Y0297858D01*
X0268024Y0301715D01*
X0139912Y0307075D02*
X0138799Y0305147D01*
X0137278Y0304740D01*
X0135906Y0306817D02*
X0134386Y0306410D01*
X0133422Y0306966D01*
X0133014Y0308487D01*
X0134127Y0310415D01*
X0135648Y0310823D01*
X0137020Y0308745D02*
X0138541Y0309153D01*
X0139505Y0308596D01*
X0139912Y0307075D01*
X0137020Y0308745D02*
X0135906Y0306817D01*
X0131154Y0305265D02*
X0130041Y0303337D01*
X0130597Y0304301D02*
X0136382Y0300961D01*
X0135826Y0299997D02*
X0136939Y0301925D01*
X0134427Y0297575D02*
X0126416Y0297058D01*
X0126945Y0293522D02*
X0123904Y0292707D01*
X0124719Y0289666D01*
X0128575Y0287439D01*
X0125683Y0289109D02*
X0127909Y0292966D01*
X0126945Y0293522D02*
X0130802Y0291296D01*
X0132200Y0293718D02*
X0128642Y0300915D01*
X0117767Y0282078D02*
X0121325Y0274881D01*
X0123552Y0278738D02*
X0115540Y0278221D01*
D12*
X0113494Y0280740D02*
X0114228Y0282011D01*
X0114645Y0282733D02*
X0112738Y0283834D01*
X0115379Y0284005D01*
X0113472Y0285105D01*
X0114207Y0285644D02*
X0115478Y0284910D01*
X0115979Y0285045D01*
X0116346Y0285680D01*
X0116212Y0286182D01*
X0116629Y0286904D02*
X0117130Y0287038D01*
X0117497Y0287674D01*
X0117363Y0288175D01*
X0116092Y0288909D01*
X0115590Y0288775D01*
X0115223Y0288139D01*
X0115358Y0287638D01*
X0116629Y0286904D01*
X0114941Y0286916D02*
X0114439Y0286781D01*
X0114072Y0286146D01*
X0114207Y0285644D01*
X0112321Y0283112D02*
X0111587Y0281841D01*
X0113494Y0280740D01*
X0112540Y0281290D02*
X0112907Y0281926D01*
X0116191Y0289815D02*
X0116741Y0290768D01*
X0117243Y0290903D01*
X0118514Y0290169D01*
X0118648Y0289667D01*
X0118098Y0288714D01*
X0116191Y0289815D01*
X0117342Y0291808D02*
X0119249Y0290707D01*
X0119983Y0291979D01*
X0120400Y0292701D02*
X0118493Y0293802D01*
X0119043Y0294755D01*
X0119544Y0294890D01*
X0120180Y0294523D01*
X0120314Y0294021D01*
X0119764Y0293068D01*
X0120131Y0293704D02*
X0121134Y0293972D01*
X0118076Y0293080D02*
X0117342Y0291808D01*
X0118295Y0291258D02*
X0118662Y0291894D01*
X0088258Y0242494D02*
X0087524Y0241223D01*
X0087891Y0241859D02*
X0089798Y0240758D01*
X0088696Y0239583D02*
X0087425Y0240317D01*
X0086923Y0240183D01*
X0086556Y0239547D01*
X0086691Y0239046D01*
X0087962Y0238312D01*
X0088463Y0238446D01*
X0088830Y0239082D01*
X0088696Y0239583D01*
X0087863Y0237406D02*
X0085956Y0238507D01*
X0086224Y0237505D01*
X0085222Y0237236D01*
X0087129Y0236135D01*
X0067239Y0203011D02*
X0067373Y0202509D01*
X0066823Y0201556D01*
X0067458Y0201189D02*
X0065551Y0202290D01*
X0066102Y0203243D01*
X0066603Y0203378D01*
X0067239Y0203011D01*
X0065452Y0201384D02*
X0064951Y0201250D01*
X0064584Y0200614D01*
X0064718Y0200113D01*
X0065989Y0199379D01*
X0066491Y0199513D01*
X0066858Y0200149D01*
X0066723Y0200650D01*
X0065452Y0201384D01*
X0063983Y0199574D02*
X0063249Y0198303D01*
X0063616Y0198938D02*
X0065523Y0197837D01*
X0064421Y0196663D02*
X0064556Y0196162D01*
X0064189Y0195526D01*
X0063688Y0195392D01*
X0063235Y0196077D02*
X0063602Y0196712D01*
X0064104Y0196846D01*
X0064421Y0196663D01*
X0063235Y0196077D02*
X0062734Y0195942D01*
X0062416Y0196126D01*
X0062282Y0196627D01*
X0062649Y0197263D01*
X0063150Y0197397D01*
X0061999Y0195403D02*
X0061498Y0195269D01*
X0060947Y0194316D01*
X0062854Y0193215D01*
X0063405Y0194168D01*
X0063271Y0194669D01*
X0061999Y0195403D01*
X0060530Y0193593D02*
X0062437Y0192492D01*
X0059797Y0192322D01*
X0061703Y0191221D01*
X0061286Y0190499D02*
X0060552Y0189228D01*
X0058646Y0190329D01*
X0059380Y0191600D01*
X0059966Y0190414D02*
X0059599Y0189778D01*
X0038081Y0140697D02*
X0036613Y0140697D01*
X0037347Y0140697D02*
X0037347Y0138495D01*
X0035779Y0138495D02*
X0035045Y0139229D01*
X0035412Y0139229D02*
X0034311Y0139229D01*
X0034311Y0138495D02*
X0034311Y0140697D01*
X0035412Y0140697D01*
X0035779Y0140330D01*
X0035779Y0139596D01*
X0035412Y0139229D01*
X0033477Y0139596D02*
X0032009Y0139596D01*
X0032009Y0139963D02*
X0032009Y0138495D01*
X0031175Y0138862D02*
X0031175Y0140697D01*
X0032009Y0139963D02*
X0032743Y0140697D01*
X0033477Y0139963D01*
X0033477Y0138495D01*
X0031175Y0138862D02*
X0030808Y0138495D01*
X0030074Y0138495D01*
X0029707Y0138862D01*
X0029707Y0140697D01*
X0089552Y0103346D02*
X0091459Y0104447D01*
X0092193Y0103176D01*
X0092610Y0102453D02*
X0090703Y0101352D01*
X0091338Y0101719D02*
X0091889Y0100766D01*
X0092390Y0100632D01*
X0093026Y0100999D01*
X0093160Y0101500D01*
X0092610Y0102453D01*
X0091705Y0101084D02*
X0091437Y0100081D01*
X0092171Y0099542D02*
X0092037Y0099041D01*
X0092404Y0098405D01*
X0092905Y0098271D01*
X0094177Y0099005D01*
X0094311Y0099506D01*
X0093944Y0100142D01*
X0093443Y0100276D01*
X0092171Y0099542D01*
X0093005Y0097365D02*
X0094911Y0098466D01*
X0093739Y0096094D01*
X0095645Y0097195D01*
X0096062Y0096473D02*
X0096796Y0095201D01*
X0096429Y0095837D02*
X0094523Y0094736D01*
X0096458Y0091385D02*
X0098364Y0092486D01*
X0098915Y0091532D01*
X0098781Y0091031D01*
X0098145Y0090664D01*
X0097644Y0090798D01*
X0097093Y0091752D01*
X0098562Y0089942D02*
X0099296Y0088670D01*
X0099614Y0088854D02*
X0098342Y0088120D01*
X0098759Y0087398D02*
X0100666Y0088498D01*
X0099493Y0086126D01*
X0101400Y0087227D01*
X0101817Y0086505D02*
X0099910Y0085404D01*
X0100644Y0084133D01*
X0101061Y0083410D02*
X0101795Y0082139D01*
X0101061Y0083410D02*
X0102968Y0084511D01*
X0102551Y0085234D02*
X0101817Y0086505D01*
X0100864Y0085954D02*
X0101231Y0085319D01*
X0099614Y0088854D02*
X0099882Y0089856D01*
X0098880Y0090125D01*
X0097608Y0089391D01*
X0090872Y0103261D02*
X0090505Y0103896D01*
X0125479Y0074818D02*
X0126517Y0073780D01*
X0126517Y0074818D02*
X0125479Y0073780D01*
X0126588Y0072671D02*
X0126588Y0072152D01*
X0127107Y0071633D01*
X0127625Y0071633D01*
X0127885Y0071893D01*
X0127885Y0072412D01*
X0127625Y0072671D01*
X0127885Y0072412D02*
X0128404Y0072412D01*
X0128663Y0072671D01*
X0128663Y0073190D01*
X0128144Y0073709D01*
X0127625Y0073709D01*
X0129114Y0075117D02*
X0129114Y0075636D01*
X0129114Y0075117D02*
X0129633Y0074598D01*
X0130152Y0074598D01*
X0130671Y0075117D01*
X0130671Y0075636D01*
X0130411Y0075896D01*
X0129633Y0076155D01*
X0130411Y0076934D01*
X0131449Y0075896D01*
X0132039Y0075306D02*
X0131001Y0074268D01*
X0131001Y0073230D01*
X0132039Y0073230D01*
X0133077Y0074268D01*
X0130586Y0071267D02*
X0131105Y0070749D01*
X0131105Y0070230D01*
X0130846Y0069970D01*
X0130327Y0069970D01*
X0130327Y0069451D01*
X0130067Y0069192D01*
X0129548Y0069192D01*
X0129029Y0069711D01*
X0129029Y0070230D01*
X0128475Y0070784D02*
X0128215Y0070524D01*
X0127956Y0070784D01*
X0128215Y0071043D01*
X0128475Y0070784D01*
X0130067Y0071267D02*
X0130586Y0071267D01*
X0130067Y0070230D02*
X0130327Y0069970D01*
X0130916Y0068861D02*
X0130916Y0067823D01*
X0131954Y0067823D01*
X0132992Y0068861D01*
X0131954Y0069899D02*
X0130916Y0068861D01*
X0129238Y0067070D02*
X0128719Y0067589D01*
X0128200Y0067589D01*
X0127092Y0067660D02*
X0126054Y0068698D01*
X0127092Y0068698D02*
X0126054Y0067660D01*
X0126903Y0066292D02*
X0128979Y0066292D01*
X0129238Y0066551D01*
X0129238Y0067070D01*
X0129309Y0065443D02*
X0130347Y0064405D01*
X0130677Y0063555D02*
X0130677Y0062517D01*
X0131715Y0062517D01*
X0132753Y0063555D01*
X0131715Y0064593D02*
X0130677Y0063555D01*
X0129309Y0063886D02*
X0130866Y0065443D01*
X0129309Y0065443D01*
X0127941Y0065254D02*
X0126903Y0066292D01*
X0128005Y0076745D02*
X0129043Y0077783D01*
X0128005Y0077783D02*
X0129043Y0076745D01*
X0131376Y0079448D02*
X0132154Y0078670D01*
X0132673Y0078670D01*
X0133711Y0079707D01*
X0133711Y0080226D01*
X0132933Y0081005D01*
X0131376Y0079448D01*
X0130786Y0080038D02*
X0132343Y0081595D01*
X0131305Y0082633D02*
X0130786Y0080038D01*
X0129748Y0081076D02*
X0131305Y0082633D01*
X0130456Y0082963D02*
X0130456Y0083482D01*
X0129937Y0084001D01*
X0129418Y0084001D01*
X0128380Y0082963D01*
X0128380Y0082444D01*
X0128899Y0081925D01*
X0129418Y0081925D01*
X0129937Y0082444D01*
X0129418Y0082963D01*
X0139359Y0100172D02*
X0140093Y0100172D01*
X0140460Y0100539D01*
X0140460Y0102374D01*
X0141294Y0102007D02*
X0141661Y0102374D01*
X0142395Y0102374D01*
X0142762Y0102007D01*
X0142762Y0101640D01*
X0142395Y0101273D01*
X0142762Y0100906D01*
X0142762Y0100539D01*
X0142395Y0100172D01*
X0141661Y0100172D01*
X0141294Y0100539D01*
X0142028Y0101273D02*
X0142395Y0101273D01*
X0139359Y0100172D02*
X0138993Y0100539D01*
X0138993Y0102374D01*
X0149213Y0151106D02*
X0148846Y0151473D01*
X0148846Y0152941D01*
X0149213Y0153308D01*
X0149947Y0153308D01*
X0150314Y0152941D01*
X0150314Y0151473D01*
X0149947Y0151106D01*
X0149213Y0151106D01*
X0149580Y0151840D02*
X0150314Y0151106D01*
X0151148Y0151106D02*
X0152616Y0151106D01*
X0151882Y0151106D02*
X0151882Y0153308D01*
X0151148Y0152574D01*
X0154957Y0043947D02*
X0154957Y0041745D01*
X0156425Y0041745D01*
X0157259Y0041745D02*
X0157259Y0043947D01*
X0158727Y0041745D01*
X0158727Y0043947D01*
X0159561Y0043580D02*
X0159561Y0042112D01*
X0159928Y0041745D01*
X0160662Y0041745D01*
X0161029Y0042112D01*
X0161863Y0042112D02*
X0162230Y0041745D01*
X0162964Y0041745D01*
X0163331Y0042112D01*
X0163331Y0043580D01*
X0162964Y0043947D01*
X0162230Y0043947D01*
X0161863Y0043580D01*
X0161863Y0042112D01*
X0161029Y0043580D02*
X0160662Y0043947D01*
X0159928Y0043947D01*
X0159561Y0043580D01*
X0156425Y0043947D02*
X0154957Y0043947D01*
X0154957Y0042846D02*
X0155691Y0042846D01*
X0164165Y0041745D02*
X0165266Y0041745D01*
X0165633Y0042112D01*
X0165633Y0043580D01*
X0165266Y0043947D01*
X0164165Y0043947D01*
X0164165Y0041745D01*
X0166467Y0041745D02*
X0167935Y0041745D01*
X0168769Y0041745D02*
X0168769Y0043947D01*
X0169870Y0043947D01*
X0170237Y0043580D01*
X0170237Y0042846D01*
X0169870Y0042479D01*
X0168769Y0042479D01*
X0169503Y0042479D02*
X0170237Y0041745D01*
X0167935Y0043947D02*
X0166467Y0043947D01*
X0166467Y0041745D01*
X0166467Y0042846D02*
X0167201Y0042846D01*
X0214675Y0043485D02*
X0215409Y0042751D01*
X0216143Y0043485D01*
X0216143Y0041283D01*
X0216977Y0041650D02*
X0217344Y0041283D01*
X0218078Y0041283D01*
X0218445Y0041650D01*
X0218445Y0043118D01*
X0218078Y0043485D01*
X0217344Y0043485D01*
X0216977Y0043118D01*
X0216977Y0041650D01*
X0214675Y0041283D02*
X0214675Y0043485D01*
X0219279Y0043485D02*
X0220747Y0043485D01*
X0220013Y0043485D02*
X0220013Y0041283D01*
X0255199Y0041450D02*
X0256667Y0041450D01*
X0257501Y0041450D02*
X0257501Y0043652D01*
X0258969Y0041450D01*
X0258969Y0043652D01*
X0259803Y0043652D02*
X0260904Y0043652D01*
X0261271Y0043285D01*
X0261271Y0041817D01*
X0260904Y0041450D01*
X0259803Y0041450D01*
X0259803Y0043652D01*
X0262105Y0043285D02*
X0262105Y0042918D01*
X0262472Y0042551D01*
X0263206Y0042551D01*
X0263573Y0042184D01*
X0263573Y0041817D01*
X0263206Y0041450D01*
X0262472Y0041450D01*
X0262105Y0041817D01*
X0262105Y0043285D02*
X0262472Y0043652D01*
X0263206Y0043652D01*
X0263573Y0043285D01*
X0264407Y0043652D02*
X0265875Y0043652D01*
X0265141Y0043652D02*
X0265141Y0041450D01*
X0266709Y0041817D02*
X0267076Y0041450D01*
X0267810Y0041450D01*
X0268177Y0041817D01*
X0268177Y0043285D01*
X0267810Y0043652D01*
X0267076Y0043652D01*
X0266709Y0043285D01*
X0266709Y0041817D01*
X0269011Y0042184D02*
X0270112Y0042184D01*
X0270479Y0042551D01*
X0270479Y0043285D01*
X0270112Y0043652D01*
X0269011Y0043652D01*
X0269011Y0041450D01*
X0256667Y0043652D02*
X0255199Y0043652D01*
X0255199Y0041450D01*
X0255199Y0042551D02*
X0255933Y0042551D01*
X0311750Y0112217D02*
X0313657Y0111117D01*
X0314391Y0112388D01*
X0314808Y0113110D02*
X0312901Y0114211D01*
X0315542Y0114381D01*
X0313635Y0115482D01*
X0314052Y0116205D02*
X0314603Y0117158D01*
X0315104Y0117292D01*
X0316375Y0116558D01*
X0316510Y0116057D01*
X0315959Y0115104D01*
X0314052Y0116205D01*
X0315521Y0118015D02*
X0315839Y0117831D01*
X0316340Y0117965D01*
X0316707Y0118601D01*
X0317208Y0118735D01*
X0317526Y0118552D01*
X0317661Y0118051D01*
X0317294Y0117415D01*
X0316792Y0117281D01*
X0315521Y0118015D02*
X0315387Y0118516D01*
X0315754Y0119152D01*
X0316255Y0119286D01*
X0316354Y0120192D02*
X0317088Y0121463D01*
X0316721Y0120827D02*
X0318628Y0119726D01*
X0319094Y0121268D02*
X0319596Y0121402D01*
X0319963Y0122038D01*
X0319828Y0122539D01*
X0318557Y0123273D01*
X0318056Y0123139D01*
X0317689Y0122503D01*
X0317823Y0122002D01*
X0319094Y0121268D01*
X0319927Y0123445D02*
X0320478Y0124398D01*
X0320344Y0124899D01*
X0319708Y0125266D01*
X0319207Y0125132D01*
X0318656Y0124179D01*
X0320563Y0123078D01*
X0312484Y0113489D02*
X0311750Y0112217D01*
X0312704Y0111667D02*
X0313071Y0112303D01*
X0343090Y0178111D02*
X0343359Y0179114D01*
X0343543Y0178796D02*
X0342992Y0179749D01*
X0342357Y0179382D02*
X0344263Y0180483D01*
X0344814Y0179530D01*
X0344680Y0179029D01*
X0344044Y0178662D01*
X0343543Y0178796D01*
X0341940Y0180105D02*
X0341206Y0181376D01*
X0343112Y0182477D01*
X0343846Y0181206D01*
X0342526Y0181291D02*
X0342159Y0181926D01*
X0341106Y0182282D02*
X0342378Y0183016D01*
X0342512Y0183517D01*
X0341961Y0184470D01*
X0340055Y0183369D01*
X0340605Y0182416D01*
X0341106Y0182282D01*
X0339955Y0184275D02*
X0341227Y0185009D01*
X0341361Y0185510D01*
X0340994Y0186146D01*
X0340493Y0186280D01*
X0339221Y0185546D01*
X0339087Y0185045D01*
X0339454Y0184410D01*
X0339955Y0184275D01*
X0338804Y0186269D02*
X0338303Y0186403D01*
X0337936Y0187039D01*
X0338070Y0187540D01*
X0339342Y0188274D01*
X0339843Y0188140D01*
X0340210Y0187504D01*
X0340076Y0187003D01*
X0339242Y0189180D02*
X0337336Y0188079D01*
X0338509Y0190451D01*
X0336602Y0189350D01*
X0336185Y0190072D02*
X0335451Y0191344D01*
X0337358Y0192445D01*
X0338092Y0191173D01*
X0336771Y0191259D02*
X0336404Y0191894D01*
X0314165Y0232419D02*
X0313431Y0233690D01*
X0313798Y0233055D02*
X0311891Y0231954D01*
X0311425Y0233495D02*
X0312696Y0234229D01*
X0312831Y0234730D01*
X0312464Y0235366D01*
X0311962Y0235500D01*
X0310691Y0234766D01*
X0310557Y0234265D01*
X0310924Y0233629D01*
X0311425Y0233495D01*
X0309956Y0235305D02*
X0311863Y0236406D01*
X0310861Y0236675D01*
X0311129Y0237677D01*
X0309222Y0236576D01*
X0290674Y0270691D02*
X0290173Y0270825D01*
X0289622Y0271779D01*
X0288987Y0271412D02*
X0290894Y0272513D01*
X0291444Y0271559D01*
X0291310Y0271058D01*
X0290674Y0270691D01*
X0288888Y0272318D02*
X0290159Y0273052D01*
X0290293Y0273553D01*
X0289926Y0274189D01*
X0289425Y0274323D01*
X0288154Y0273589D01*
X0288019Y0273088D01*
X0288386Y0272452D01*
X0288888Y0272318D01*
X0289326Y0275229D02*
X0288592Y0276500D01*
X0288959Y0275864D02*
X0287052Y0274763D01*
X0286586Y0276305D02*
X0286084Y0276439D01*
X0285717Y0277075D01*
X0285852Y0277576D01*
X0286671Y0277625D02*
X0287038Y0276990D01*
X0286903Y0276488D01*
X0286586Y0276305D01*
X0286671Y0277625D02*
X0286805Y0278127D01*
X0287123Y0278310D01*
X0287624Y0278176D01*
X0287991Y0277540D01*
X0287857Y0277039D01*
X0286706Y0279032D02*
X0286840Y0279534D01*
X0286290Y0280487D01*
X0284383Y0279386D01*
X0284933Y0278433D01*
X0285435Y0278298D01*
X0286706Y0279032D01*
X0285873Y0281209D02*
X0283966Y0280108D01*
X0285139Y0282481D01*
X0283232Y0281380D01*
X0282815Y0282102D02*
X0282081Y0283373D01*
X0283988Y0284474D01*
X0284722Y0283203D01*
X0283401Y0283288D02*
X0283034Y0283924D01*
X0177064Y0363646D02*
X0175596Y0363646D01*
X0176330Y0363646D02*
X0176330Y0365848D01*
X0175596Y0365114D01*
X0174762Y0365114D02*
X0174395Y0364747D01*
X0173294Y0364747D01*
X0173294Y0365848D02*
X0174395Y0365848D01*
X0174762Y0365481D01*
X0174762Y0365114D01*
X0174395Y0364747D02*
X0174762Y0364380D01*
X0174762Y0364013D01*
X0174395Y0363646D01*
X0173294Y0363646D01*
X0173294Y0365848D01*
X0172460Y0365848D02*
X0170993Y0365848D01*
X0171726Y0365848D02*
X0171726Y0363646D01*
D13*
X0141725Y0082754D02*
X0142109Y0082370D01*
X0142109Y0081603D01*
X0141725Y0081219D01*
X0140958Y0081603D02*
X0140958Y0082370D01*
X0141341Y0082754D01*
X0141725Y0082754D01*
X0140958Y0081603D02*
X0140574Y0081219D01*
X0140190Y0081219D01*
X0139807Y0081603D01*
X0139807Y0082370D01*
X0140190Y0082754D01*
X0139807Y0080452D02*
X0139807Y0078917D01*
X0139807Y0078150D02*
X0142109Y0078150D01*
X0139807Y0076615D01*
X0142109Y0076615D01*
X0142109Y0075848D02*
X0142109Y0075080D01*
X0142109Y0075464D02*
X0139807Y0075464D01*
X0139807Y0075080D02*
X0139807Y0075848D01*
X0140190Y0074313D02*
X0139807Y0073929D01*
X0139807Y0073162D01*
X0140190Y0072779D01*
X0141725Y0072779D01*
X0142109Y0073162D01*
X0142109Y0073929D01*
X0141725Y0074313D01*
X0140190Y0074313D01*
X0140190Y0072011D02*
X0140958Y0072011D01*
X0141341Y0071628D01*
X0141341Y0070477D01*
X0142109Y0070477D02*
X0139807Y0070477D01*
X0139807Y0071628D01*
X0140190Y0072011D01*
X0139807Y0067407D02*
X0139807Y0065873D01*
X0139807Y0066640D02*
X0142109Y0066640D01*
X0141725Y0065105D02*
X0142109Y0064722D01*
X0142109Y0063954D01*
X0141725Y0063571D01*
X0140958Y0063954D02*
X0140958Y0064722D01*
X0141341Y0065105D01*
X0141725Y0065105D01*
X0140958Y0063954D02*
X0140574Y0063571D01*
X0140190Y0063571D01*
X0139807Y0063954D01*
X0139807Y0064722D01*
X0140190Y0065105D01*
X0139807Y0062803D02*
X0139807Y0061269D01*
X0142109Y0061269D01*
X0142109Y0062803D01*
X0140958Y0062036D02*
X0140958Y0061269D01*
X0139807Y0060501D02*
X0139807Y0058967D01*
X0139807Y0059734D02*
X0142109Y0059734D01*
X0142109Y0079684D02*
X0139807Y0079684D01*
D14*
X0245007Y0042006D02*
X0245607Y0041405D01*
X0246208Y0041405D01*
X0246808Y0042006D01*
X0246808Y0045008D01*
X0246208Y0045008D02*
X0247409Y0045008D01*
X0248690Y0043207D02*
X0249891Y0044408D01*
X0251092Y0045008D01*
X0250491Y0043207D02*
X0248690Y0043207D01*
X0248690Y0042006D01*
X0249290Y0041405D01*
X0250491Y0041405D01*
X0251092Y0042006D01*
X0251092Y0042606D01*
X0250491Y0043207D01*
X0327200Y0147822D02*
X0329560Y0147822D01*
X0330825Y0148412D02*
X0331415Y0147822D01*
X0332595Y0147822D01*
X0333185Y0148412D01*
X0334450Y0147822D02*
X0334450Y0150182D01*
X0335630Y0151362D01*
X0336810Y0150182D01*
X0336810Y0147822D01*
X0338075Y0147822D02*
X0338075Y0151362D01*
X0339255Y0150182D01*
X0340435Y0151362D01*
X0340435Y0147822D01*
X0341701Y0148412D02*
X0344061Y0150772D01*
X0344061Y0148412D01*
X0343471Y0147822D01*
X0342291Y0147822D01*
X0341701Y0148412D01*
X0341701Y0150772D01*
X0342291Y0151362D01*
X0343471Y0151362D01*
X0344061Y0150772D01*
X0345326Y0150772D02*
X0345916Y0151362D01*
X0347096Y0151362D01*
X0347686Y0150772D01*
X0347686Y0150182D01*
X0347096Y0149592D01*
X0347686Y0149002D01*
X0347686Y0148412D01*
X0347096Y0147822D01*
X0345916Y0147822D01*
X0345326Y0148412D01*
X0346506Y0149592D02*
X0347096Y0149592D01*
X0352576Y0149002D02*
X0354346Y0149002D01*
X0354936Y0149592D01*
X0354936Y0150772D01*
X0354346Y0151362D01*
X0352576Y0151362D01*
X0352576Y0147822D01*
X0353756Y0149002D02*
X0354936Y0147822D01*
X0356201Y0148412D02*
X0356201Y0149592D01*
X0356791Y0150182D01*
X0357971Y0150182D01*
X0358561Y0149592D01*
X0358561Y0149002D01*
X0356201Y0149002D01*
X0356201Y0148412D02*
X0356791Y0147822D01*
X0357971Y0147822D01*
X0359826Y0150182D02*
X0361006Y0147822D01*
X0362186Y0150182D01*
X0363451Y0149592D02*
X0365811Y0149592D01*
X0367076Y0149592D02*
X0369437Y0149592D01*
X0336810Y0149592D02*
X0334450Y0149592D01*
X0333185Y0150772D02*
X0332595Y0151362D01*
X0331415Y0151362D01*
X0330825Y0150772D01*
X0330825Y0148412D01*
X0328380Y0149592D02*
X0327200Y0149592D01*
X0327200Y0151362D02*
X0327200Y0147822D01*
X0327200Y0151362D02*
X0329560Y0151362D01*
X0280084Y0290019D02*
X0276803Y0290898D01*
X0276283Y0290598D01*
X0275862Y0292528D02*
X0278463Y0294029D01*
X0278162Y0294549D02*
X0278763Y0293509D01*
X0279403Y0292400D02*
X0280605Y0290319D01*
X0280084Y0290019D01*
X0275862Y0292528D02*
X0275042Y0292748D01*
X0274742Y0293268D01*
X0274962Y0294088D01*
X0203535Y0313771D02*
X0201133Y0313771D01*
X0202334Y0313771D02*
X0202334Y0317374D01*
X0201133Y0316173D01*
X0199852Y0316773D02*
X0199852Y0315572D01*
X0199252Y0314972D01*
X0197450Y0314972D01*
X0198651Y0314972D02*
X0199852Y0313771D01*
X0197450Y0313771D02*
X0197450Y0317374D01*
X0199252Y0317374D01*
X0199852Y0316773D01*
X0196169Y0317374D02*
X0196169Y0314972D01*
X0194968Y0313771D01*
X0193767Y0314972D01*
X0193767Y0317374D01*
X0057803Y0183575D02*
X0056763Y0184176D01*
X0055943Y0183956D01*
X0055642Y0183436D01*
X0055562Y0182096D01*
X0054002Y0182996D01*
X0055203Y0185077D01*
X0057803Y0183575D02*
X0058023Y0182755D01*
X0057422Y0181715D01*
X0056602Y0181495D01*
X0055661Y0179866D02*
X0053061Y0181367D01*
X0052761Y0180847D02*
X0053361Y0181887D01*
X0055661Y0179866D02*
X0055881Y0179045D01*
X0055581Y0178525D01*
X0054760Y0178305D01*
D15*
X0036879Y0116736D02*
X0069162Y0060819D01*
X0086593Y0061336D02*
X0101595Y0069998D01*
X0096871Y0078181D01*
X0135937Y0045162D02*
X0137105Y0045162D01*
X0136521Y0045162D02*
X0136521Y0042243D01*
X0135937Y0041659D01*
X0135354Y0041659D01*
X0134770Y0042243D01*
X0138453Y0041659D02*
X0140788Y0041659D01*
X0139620Y0041659D02*
X0139620Y0045162D01*
X0138453Y0043995D01*
X0142136Y0043411D02*
X0144471Y0043411D01*
X0143887Y0045162D02*
X0143887Y0041659D01*
X0142136Y0043411D02*
X0143887Y0045162D01*
X0130240Y0035555D02*
X0120791Y0035555D01*
X0120791Y0018232D01*
X0129453Y0002878D02*
X0170004Y0002878D01*
X0178272Y0018232D02*
X0178272Y0035555D01*
X0168823Y0035555D01*
X0181421Y0035555D02*
X0191264Y0035555D01*
X0193316Y0041461D02*
X0193900Y0041461D01*
X0194484Y0042044D01*
X0194484Y0044964D01*
X0193900Y0044964D02*
X0195068Y0044964D01*
X0196415Y0043796D02*
X0197583Y0044964D01*
X0197583Y0041461D01*
X0196415Y0041461D02*
X0198751Y0041461D01*
X0200099Y0041461D02*
X0202434Y0041461D01*
X0201266Y0041461D02*
X0201266Y0044964D01*
X0200099Y0043796D01*
X0193316Y0041461D02*
X0192732Y0042044D01*
X0181421Y0035555D02*
X0181421Y0017839D01*
X0189295Y0002878D02*
X0223154Y0002878D01*
X0230634Y0017839D02*
X0230634Y0035161D01*
X0221185Y0035161D01*
X0234177Y0035555D02*
X0243626Y0035555D01*
X0234177Y0035555D02*
X0234177Y0018232D01*
X0242445Y0002878D02*
X0267642Y0002878D01*
X0275909Y0018232D02*
X0275909Y0035555D01*
X0266461Y0035555D01*
X0269744Y0067380D02*
X0259508Y0067380D01*
X0259508Y0089821D01*
X0263051Y0093364D01*
X0269350Y0093364D01*
X0266988Y0090215D02*
X0262264Y0090215D01*
X0264626Y0091789D02*
X0264626Y0088246D01*
X0275256Y0093364D02*
X0281949Y0093364D01*
X0285492Y0089821D01*
X0285492Y0067380D01*
X0275256Y0067380D01*
X0267382Y0070923D02*
X0262657Y0070923D01*
X0296626Y0089273D02*
X0297209Y0090285D01*
X0296917Y0089779D02*
X0299446Y0088319D01*
X0299659Y0087522D01*
X0299367Y0087016D01*
X0298570Y0086803D01*
X0300917Y0089700D02*
X0302085Y0091723D01*
X0301501Y0090712D02*
X0298467Y0092463D01*
X0298895Y0090868D01*
X0300736Y0094058D02*
X0301534Y0094271D01*
X0302409Y0095788D01*
X0301398Y0096372D02*
X0303421Y0095204D01*
X0303634Y0094407D01*
X0303050Y0093396D01*
X0302253Y0093182D01*
X0300736Y0094058D02*
X0300231Y0094350D01*
X0300017Y0095147D01*
X0300601Y0096158D01*
X0301398Y0096372D01*
X0303960Y0082383D02*
X0299236Y0074200D01*
X0314238Y0065539D01*
X0331472Y0064681D02*
X0356275Y0107641D01*
X0346915Y0122138D02*
X0331913Y0130799D01*
X0327189Y0122616D01*
X0355364Y0173067D02*
X0350640Y0181250D01*
X0355364Y0173067D02*
X0370367Y0181728D01*
X0379333Y0196907D02*
X0359057Y0232025D01*
X0341626Y0231508D02*
X0326624Y0222846D01*
X0331349Y0214663D01*
X0326977Y0209792D02*
X0327561Y0208781D01*
X0327269Y0209287D02*
X0324741Y0207827D01*
X0323944Y0208041D01*
X0323652Y0208546D01*
X0323866Y0209344D01*
X0325202Y0205862D02*
X0326369Y0203840D01*
X0325785Y0204851D02*
X0328819Y0206603D01*
X0327224Y0207030D01*
X0328560Y0203548D02*
X0329649Y0202829D01*
X0329941Y0202323D01*
X0329728Y0201526D01*
X0328716Y0200942D01*
X0327919Y0201156D01*
X0327335Y0202167D01*
X0327549Y0202965D01*
X0328560Y0203548D02*
X0330077Y0204424D01*
X0331244Y0202402D01*
X0324896Y0225739D02*
X0319974Y0234263D01*
X0324896Y0225739D02*
X0340239Y0234597D01*
X0349258Y0248897D02*
X0332329Y0278219D01*
X0315632Y0277217D02*
X0300630Y0268555D01*
X0305355Y0260372D01*
X0301066Y0254880D02*
X0301650Y0253868D01*
X0301358Y0254374D02*
X0298830Y0252915D01*
X0298032Y0253128D01*
X0297740Y0253634D01*
X0297954Y0254431D01*
X0299290Y0250950D02*
X0300458Y0248927D01*
X0299874Y0249939D02*
X0302907Y0251690D01*
X0301312Y0252117D01*
X0303660Y0249220D02*
X0304457Y0249006D01*
X0305041Y0247995D01*
X0304827Y0247197D01*
X0304322Y0246905D01*
X0301131Y0247760D01*
X0302299Y0245738D01*
X0298525Y0271618D02*
X0293800Y0279801D01*
X0298525Y0271618D02*
X0313527Y0280280D01*
X0322690Y0295117D02*
X0310092Y0316938D01*
X0292661Y0316421D02*
X0277659Y0307760D01*
X0282383Y0299577D01*
X0240492Y0308114D02*
X0240492Y0285673D01*
X0236949Y0282130D01*
X0230650Y0282130D01*
X0233012Y0285280D02*
X0237736Y0285280D01*
X0235374Y0283705D02*
X0235374Y0287248D01*
X0224744Y0282130D02*
X0218051Y0282130D01*
X0214508Y0285673D01*
X0214508Y0308114D01*
X0224744Y0308114D01*
X0230256Y0308114D02*
X0240492Y0308114D01*
X0237343Y0304571D02*
X0232618Y0304571D01*
X0183492Y0308114D02*
X0183492Y0285673D01*
X0179949Y0282130D01*
X0173650Y0282130D01*
X0176012Y0285280D02*
X0180736Y0285280D01*
X0178374Y0283705D02*
X0178374Y0287248D01*
X0167744Y0282130D02*
X0161051Y0282130D01*
X0157508Y0285673D01*
X0157508Y0308114D01*
X0167744Y0308114D01*
X0173256Y0308114D02*
X0183492Y0308114D01*
X0180343Y0304571D02*
X0175618Y0304571D01*
X0159742Y0276364D02*
X0149506Y0276364D01*
X0151868Y0272821D02*
X0156593Y0272821D01*
X0159742Y0276364D02*
X0159742Y0253923D01*
X0156199Y0250380D01*
X0149900Y0250380D01*
X0152262Y0253530D02*
X0156986Y0253530D01*
X0154624Y0251955D02*
X0154624Y0255498D01*
X0161020Y0252713D02*
X0161604Y0252129D01*
X0162188Y0252129D01*
X0162772Y0252713D01*
X0162772Y0255632D01*
X0162188Y0255632D02*
X0163356Y0255632D01*
X0164703Y0255049D02*
X0165287Y0255632D01*
X0166455Y0255632D01*
X0167039Y0255049D01*
X0167039Y0254465D01*
X0164703Y0252129D01*
X0167039Y0252129D01*
X0143994Y0250380D02*
X0137301Y0250380D01*
X0133758Y0253923D01*
X0133758Y0276364D01*
X0143994Y0276364D01*
X0114426Y0299256D02*
X0119150Y0307439D01*
X0104148Y0316100D01*
X0086520Y0316276D02*
X0066245Y0281158D01*
X0075408Y0266321D02*
X0090410Y0257659D01*
X0095135Y0265842D01*
X0102880Y0265437D02*
X0103464Y0266448D01*
X0103172Y0265943D02*
X0105700Y0264483D01*
X0105914Y0263686D01*
X0105622Y0263180D01*
X0104824Y0262966D01*
X0107171Y0265864D02*
X0108339Y0267886D01*
X0107755Y0266875D02*
X0104722Y0268627D01*
X0105149Y0267032D01*
X0106485Y0270513D02*
X0106271Y0271311D01*
X0106855Y0272322D01*
X0107653Y0272536D01*
X0108158Y0272244D01*
X0108372Y0271446D01*
X0109169Y0271660D01*
X0109675Y0271368D01*
X0109889Y0270571D01*
X0109305Y0269559D01*
X0108507Y0269346D01*
X0108080Y0270941D02*
X0108372Y0271446D01*
X0088585Y0254817D02*
X0083664Y0246293D01*
X0088585Y0254817D02*
X0073243Y0263675D01*
X0056349Y0264336D02*
X0039420Y0235014D01*
X0048636Y0221056D02*
X0063638Y0212394D01*
X0068363Y0220577D01*
X0075637Y0220451D02*
X0076221Y0221462D01*
X0075929Y0220957D02*
X0078457Y0219497D01*
X0078671Y0218700D01*
X0078379Y0218194D01*
X0077582Y0217980D01*
X0079929Y0220878D02*
X0081096Y0222901D01*
X0080513Y0221889D02*
X0077479Y0223641D01*
X0077906Y0222046D01*
X0079242Y0225527D02*
X0079028Y0226325D01*
X0079612Y0227336D01*
X0080410Y0227550D01*
X0081265Y0224360D01*
X0082062Y0224573D01*
X0082646Y0225585D01*
X0082432Y0226382D01*
X0080410Y0227550D01*
X0079242Y0225527D02*
X0081265Y0224360D01*
X0093136Y0229180D02*
X0093136Y0232099D01*
X0095471Y0232099D02*
X0095471Y0229180D01*
X0094887Y0228596D01*
X0093720Y0228596D01*
X0093136Y0229180D01*
X0096819Y0229180D02*
X0097403Y0228596D01*
X0098570Y0228596D01*
X0099154Y0229180D01*
X0099154Y0229764D01*
X0098570Y0230348D01*
X0096819Y0230348D01*
X0096819Y0229180D01*
X0096819Y0230348D02*
X0097987Y0231516D01*
X0099154Y0232099D01*
X0062261Y0208888D02*
X0057536Y0200705D01*
X0062261Y0208888D02*
X0047259Y0217549D01*
X0029828Y0218066D02*
X0017229Y0196245D01*
X0026393Y0181408D02*
X0041395Y0172746D01*
X0046119Y0180929D01*
X0034586Y0157390D02*
X0034586Y0153887D01*
X0033418Y0153887D02*
X0035754Y0153887D01*
X0033418Y0156222D02*
X0034586Y0157390D01*
X0032071Y0157390D02*
X0030903Y0157390D01*
X0031487Y0157390D02*
X0031487Y0154471D01*
X0030903Y0153887D01*
X0030319Y0153887D01*
X0029735Y0154471D01*
X0046042Y0131573D02*
X0061044Y0140234D01*
X0065769Y0132051D01*
X0072289Y0133290D02*
X0072581Y0132784D01*
X0073378Y0132570D01*
X0075906Y0134030D01*
X0075614Y0134536D02*
X0076198Y0133524D01*
X0075861Y0131773D02*
X0077456Y0131346D01*
X0074422Y0129594D01*
X0073839Y0130606D02*
X0075006Y0128583D01*
X0075680Y0127416D02*
X0076186Y0127708D01*
X0079376Y0126853D01*
X0079881Y0127145D01*
X0078714Y0129167D01*
X0072289Y0133290D02*
X0072503Y0134087D01*
X0140626Y0099559D02*
X0140626Y0091685D01*
X0142594Y0091685D01*
X0146925Y0091685D02*
X0150075Y0091685D01*
X0154406Y0091685D02*
X0156374Y0091685D01*
X0156374Y0099559D01*
X0154406Y0099559D01*
X0142594Y0099559D02*
X0140626Y0099559D01*
X0225386Y0097099D02*
X0225386Y0094180D01*
X0225970Y0093596D01*
X0227137Y0093596D01*
X0227721Y0094180D01*
X0227721Y0097099D01*
X0229069Y0097099D02*
X0231404Y0097099D01*
X0231404Y0096516D01*
X0229069Y0094180D01*
X0229069Y0093596D01*
X0227075Y0123601D02*
X0225424Y0125252D01*
X0228727Y0125252D01*
X0229140Y0125665D01*
X0229140Y0126491D01*
X0228314Y0127316D01*
X0227488Y0127316D01*
X0226948Y0128682D02*
X0224884Y0126618D01*
X0224058Y0126618D01*
X0223233Y0127444D01*
X0223233Y0128269D01*
X0225297Y0130333D01*
X0291932Y0207110D02*
X0293100Y0207110D01*
X0293684Y0207694D01*
X0293684Y0210613D01*
X0295031Y0210029D02*
X0295031Y0209446D01*
X0295615Y0208862D01*
X0296783Y0208862D01*
X0297367Y0208278D01*
X0297367Y0207694D01*
X0296783Y0207110D01*
X0295615Y0207110D01*
X0295031Y0207694D01*
X0295031Y0208278D01*
X0295615Y0208862D01*
X0296783Y0208862D02*
X0297367Y0209446D01*
X0297367Y0210029D01*
X0296783Y0210613D01*
X0295615Y0210613D01*
X0295031Y0210029D01*
X0291348Y0210613D02*
X0291348Y0207694D01*
X0291932Y0207110D01*
X0255742Y0210630D02*
X0245506Y0210630D01*
X0239994Y0210630D02*
X0229758Y0210630D01*
X0229758Y0233071D01*
X0233301Y0236614D01*
X0239600Y0236614D01*
X0237238Y0233465D02*
X0232514Y0233465D01*
X0234876Y0235039D02*
X0234876Y0231496D01*
X0245506Y0236614D02*
X0252199Y0236614D01*
X0255742Y0233071D01*
X0255742Y0210630D01*
X0237632Y0214173D02*
X0232907Y0214173D01*
X0200612Y0212319D02*
X0198277Y0212319D01*
X0199444Y0212319D02*
X0199444Y0215822D01*
X0198277Y0214654D01*
X0196929Y0215822D02*
X0196929Y0212903D01*
X0196345Y0212319D01*
X0195177Y0212319D01*
X0194593Y0212903D01*
X0194593Y0215822D01*
D16*
X0218276Y0218049D02*
X0218276Y0223561D01*
X0228512Y0223561D01*
X0228512Y0218049D01*
X0218276Y0218049D01*
X0218289Y0227008D02*
X0218289Y0232520D01*
X0228526Y0232520D01*
X0228526Y0227008D01*
X0218289Y0227008D01*
X0252518Y0257181D02*
X0258030Y0257181D01*
X0258030Y0267417D01*
X0252518Y0267417D01*
X0252518Y0257181D01*
X0259744Y0257004D02*
X0265256Y0257004D01*
X0265256Y0267240D01*
X0259744Y0267240D01*
X0259744Y0257004D01*
X0266494Y0257004D02*
X0272006Y0257004D01*
X0272006Y0267240D01*
X0266494Y0267240D01*
X0266494Y0257004D01*
X0274382Y0254866D02*
X0274382Y0260378D01*
X0284618Y0260378D01*
X0284618Y0254866D01*
X0274382Y0254866D01*
X0269453Y0272217D02*
X0263547Y0272217D01*
X0263547Y0284028D01*
X0269453Y0284028D01*
X0269453Y0272217D01*
X0261453Y0272217D02*
X0255547Y0272217D01*
X0255547Y0284028D01*
X0261453Y0284028D01*
X0261453Y0272217D01*
X0274386Y0232866D02*
X0276709Y0232866D01*
X0274386Y0232866D02*
X0274386Y0230583D01*
X0268831Y0219246D02*
X0268831Y0203498D01*
X0260169Y0203498D01*
X0260169Y0219246D01*
X0268831Y0219246D01*
X0274386Y0214362D02*
X0274386Y0212039D01*
X0276709Y0212039D01*
X0268006Y0200240D02*
X0262494Y0200240D01*
X0262494Y0190004D01*
X0268006Y0190004D01*
X0268006Y0200240D01*
X0261256Y0200240D02*
X0261256Y0190004D01*
X0255744Y0190004D01*
X0255744Y0200240D01*
X0261256Y0200240D01*
X0272882Y0183128D02*
X0272882Y0177616D01*
X0283118Y0177616D01*
X0283118Y0183128D01*
X0272882Y0183128D01*
X0291494Y0182990D02*
X0291494Y0172754D01*
X0297006Y0172754D01*
X0297006Y0182990D01*
X0291494Y0182990D01*
X0293094Y0185119D02*
X0304906Y0185119D01*
X0304906Y0191025D01*
X0293094Y0191025D01*
X0293094Y0185119D01*
X0300744Y0183240D02*
X0306256Y0183240D01*
X0306256Y0173004D01*
X0300744Y0173004D01*
X0300744Y0183240D01*
X0310823Y0185650D02*
X0316335Y0185650D01*
X0316335Y0195886D01*
X0310823Y0195886D01*
X0310823Y0185650D01*
X0306354Y0199699D02*
X0306354Y0205211D01*
X0316591Y0205211D01*
X0316591Y0199699D01*
X0306354Y0199699D01*
X0299150Y0212039D02*
X0296866Y0212039D01*
X0299150Y0212039D02*
X0299150Y0214362D01*
X0306876Y0218791D02*
X0306876Y0227453D01*
X0322624Y0227453D01*
X0322624Y0218791D01*
X0306876Y0218791D01*
X0299189Y0230622D02*
X0299189Y0232906D01*
X0296866Y0232906D01*
X0246406Y0148017D02*
X0259212Y0135212D01*
X0256707Y0132706D01*
X0261004Y0123243D02*
X0269356Y0114892D01*
X0265180Y0110716D01*
X0256828Y0119067D01*
X0261004Y0123243D01*
X0254713Y0116370D02*
X0263065Y0108019D01*
X0258889Y0103843D01*
X0250537Y0112194D01*
X0254713Y0116370D01*
X0243344Y0119343D02*
X0240839Y0116838D01*
X0228033Y0129644D01*
X0230538Y0132149D01*
X0229132Y0114628D02*
X0229132Y0109116D01*
X0239368Y0109116D01*
X0239368Y0114628D01*
X0229132Y0114628D01*
X0229132Y0107878D02*
X0229132Y0102366D01*
X0239368Y0102366D01*
X0239368Y0107878D01*
X0229132Y0107878D01*
X0223894Y0098024D02*
X0221610Y0098024D01*
X0223894Y0098024D02*
X0223894Y0095701D01*
X0209374Y0103291D02*
X0209374Y0111953D01*
X0193626Y0111953D01*
X0193626Y0103291D01*
X0209374Y0103291D01*
X0205390Y0098024D02*
X0203067Y0098024D01*
X0203067Y0095701D01*
X0202299Y0112577D02*
X0202299Y0118089D01*
X0212535Y0118089D01*
X0212535Y0112577D01*
X0202299Y0112577D01*
X0190201Y0119232D02*
X0178390Y0119232D01*
X0178390Y0125138D01*
X0190201Y0125138D01*
X0190201Y0119232D01*
X0176980Y0119492D02*
X0165169Y0119492D01*
X0165169Y0125398D01*
X0176980Y0125398D01*
X0176980Y0119492D01*
X0164268Y0117799D02*
X0154031Y0117799D01*
X0154031Y0123311D01*
X0164268Y0123311D01*
X0164268Y0117799D01*
X0164102Y0127311D02*
X0153866Y0127311D01*
X0153866Y0132823D01*
X0164102Y0132823D01*
X0164102Y0127311D01*
X0164220Y0136976D02*
X0153984Y0136976D01*
X0153984Y0142488D01*
X0164220Y0142488D01*
X0164220Y0136976D01*
X0164555Y0146488D02*
X0154319Y0146488D01*
X0154319Y0152000D01*
X0164555Y0152000D01*
X0164555Y0146488D01*
X0148162Y0149353D02*
X0101312Y0149353D01*
X0101312Y0156046D01*
X0100918Y0163920D02*
X0100918Y0170613D01*
X0148162Y0170613D01*
X0148162Y0163920D01*
X0148162Y0156046D02*
X0148162Y0149353D01*
X0144081Y0142640D02*
X0144081Y0137128D01*
X0133844Y0137128D01*
X0133844Y0142640D01*
X0144081Y0142640D01*
X0146246Y0130878D02*
X0136010Y0130878D01*
X0136010Y0125366D01*
X0146246Y0125366D01*
X0146246Y0130878D01*
X0145193Y0121646D02*
X0134957Y0121646D01*
X0134957Y0116134D01*
X0145193Y0116134D01*
X0145193Y0121646D01*
X0145276Y0112591D02*
X0135039Y0112591D01*
X0135039Y0107079D01*
X0145276Y0107079D01*
X0145276Y0112591D01*
X0133508Y0120740D02*
X0133508Y0132551D01*
X0127602Y0132551D01*
X0127602Y0120740D01*
X0133508Y0120740D01*
X0126783Y0120722D02*
X0126783Y0132533D01*
X0120878Y0132533D01*
X0120878Y0120722D01*
X0126783Y0120722D01*
X0118531Y0120008D02*
X0118531Y0131819D01*
X0112626Y0131819D01*
X0112626Y0120008D01*
X0118531Y0120008D01*
X0111740Y0120126D02*
X0111740Y0131937D01*
X0105835Y0131937D01*
X0105835Y0120126D01*
X0111740Y0120126D01*
X0103496Y0120181D02*
X0103496Y0131992D01*
X0097591Y0131992D01*
X0097591Y0120181D01*
X0103496Y0120181D01*
X0087568Y0152866D02*
X0077332Y0152866D01*
X0077332Y0158378D01*
X0087568Y0158378D01*
X0087568Y0152866D01*
X0083203Y0159120D02*
X0083203Y0170931D01*
X0077297Y0170931D01*
X0077297Y0159120D01*
X0083203Y0159120D01*
X0077406Y0174169D02*
X0065594Y0174169D01*
X0065594Y0180075D01*
X0077406Y0180075D01*
X0077406Y0174169D01*
X0077406Y0181169D02*
X0065594Y0181169D01*
X0065594Y0187075D01*
X0077406Y0187075D01*
X0077406Y0181169D01*
X0078803Y0190142D02*
X0073291Y0190142D01*
X0073291Y0200378D01*
X0078803Y0200378D01*
X0078803Y0190142D01*
X0078419Y0201498D02*
X0078419Y0217246D01*
X0087081Y0217246D01*
X0087081Y0201498D01*
X0078419Y0201498D01*
X0092848Y0207189D02*
X0095171Y0207189D01*
X0092848Y0207189D02*
X0092848Y0209472D01*
X0092888Y0225732D02*
X0092888Y0228055D01*
X0095171Y0228055D01*
X0092384Y0247569D02*
X0092384Y0253081D01*
X0102620Y0253081D01*
X0102620Y0247569D01*
X0092384Y0247569D01*
X0108094Y0247919D02*
X0108094Y0253825D01*
X0119906Y0253825D01*
X0119906Y0247919D01*
X0108094Y0247919D01*
X0107994Y0254504D02*
X0107994Y0264740D01*
X0113506Y0264740D01*
X0113506Y0254504D01*
X0107994Y0254504D01*
X0114494Y0254504D02*
X0114494Y0264740D01*
X0120006Y0264740D01*
X0120006Y0254504D01*
X0114494Y0254504D01*
X0121244Y0257990D02*
X0121244Y0247754D01*
X0126756Y0247754D01*
X0126756Y0257990D01*
X0121244Y0257990D01*
X0137744Y0243490D02*
X0143256Y0243490D01*
X0143256Y0233254D01*
X0137744Y0233254D01*
X0137744Y0243490D01*
X0144244Y0243490D02*
X0149756Y0243490D01*
X0149756Y0233254D01*
X0144244Y0233254D01*
X0144244Y0243490D01*
X0151057Y0243443D02*
X0156569Y0243443D01*
X0156569Y0233207D01*
X0151057Y0233207D01*
X0151057Y0243443D01*
X0150744Y0228490D02*
X0156256Y0228490D01*
X0156256Y0218254D01*
X0150744Y0218254D01*
X0150744Y0228490D01*
X0142756Y0227740D02*
X0137244Y0227740D01*
X0137244Y0217504D01*
X0142756Y0217504D01*
X0142756Y0227740D01*
X0136081Y0204246D02*
X0127419Y0204246D01*
X0127419Y0188498D01*
X0136081Y0188498D01*
X0136081Y0204246D01*
X0141882Y0202378D02*
X0141882Y0196866D01*
X0152118Y0196866D01*
X0152118Y0202378D01*
X0141882Y0202378D01*
X0141789Y0195562D02*
X0153600Y0195562D01*
X0153600Y0189656D01*
X0141789Y0189656D01*
X0141789Y0195562D01*
X0142620Y0188578D02*
X0142620Y0183066D01*
X0152856Y0183066D01*
X0152856Y0188578D01*
X0142620Y0188578D01*
X0126756Y0194004D02*
X0126756Y0204240D01*
X0121244Y0204240D01*
X0121244Y0194004D01*
X0126756Y0194004D01*
X0117652Y0207228D02*
X0115329Y0207228D01*
X0117652Y0207228D02*
X0117652Y0209512D01*
X0117652Y0225732D02*
X0117652Y0228055D01*
X0115329Y0228055D01*
X0110256Y0185490D02*
X0104744Y0185490D01*
X0104744Y0175254D01*
X0110256Y0175254D01*
X0110256Y0185490D01*
X0097506Y0186740D02*
X0097506Y0176504D01*
X0091994Y0176504D01*
X0091994Y0186740D01*
X0097506Y0186740D01*
X0167882Y0096628D02*
X0167882Y0091116D01*
X0178118Y0091116D01*
X0178118Y0096628D01*
X0167882Y0096628D01*
X0173547Y0087778D02*
X0173547Y0075967D01*
X0179453Y0075967D01*
X0179453Y0087778D01*
X0173547Y0087778D01*
X0172868Y0083628D02*
X0172868Y0078116D01*
X0162632Y0078116D01*
X0162632Y0083628D01*
X0172868Y0083628D01*
X0172618Y0077128D02*
X0172618Y0071616D01*
X0162382Y0071616D01*
X0162382Y0077128D01*
X0172618Y0077128D01*
X0179827Y0075815D02*
X0179827Y0070303D01*
X0190063Y0070303D01*
X0190063Y0075815D01*
X0179827Y0075815D01*
X0179864Y0068823D02*
X0190100Y0068823D01*
X0190100Y0063311D01*
X0179864Y0063311D01*
X0179864Y0068823D01*
X0192598Y0063823D02*
X0198110Y0063823D01*
X0198110Y0053587D01*
X0192598Y0053587D01*
X0192598Y0063823D01*
X0199994Y0063740D02*
X0205506Y0063740D01*
X0205506Y0053504D01*
X0199994Y0053504D01*
X0199994Y0063740D01*
X0207244Y0057990D02*
X0212756Y0057990D01*
X0212756Y0047754D01*
X0207244Y0047754D01*
X0207244Y0057990D01*
X0205390Y0073260D02*
X0203067Y0073260D01*
X0203067Y0075543D01*
X0221650Y0073220D02*
X0223933Y0073220D01*
X0223933Y0075543D01*
X0230169Y0068746D02*
X0230169Y0052998D01*
X0238831Y0052998D01*
X0238831Y0068746D01*
X0230169Y0068746D01*
X0239988Y0063634D02*
X0245500Y0063634D01*
X0245500Y0053398D01*
X0239988Y0053398D01*
X0239988Y0063634D01*
X0251297Y0060028D02*
X0251297Y0048217D01*
X0257203Y0048217D01*
X0257203Y0060028D01*
X0251297Y0060028D01*
X0259547Y0060028D02*
X0265453Y0060028D01*
X0265453Y0048217D01*
X0259547Y0048217D01*
X0259547Y0060028D01*
X0257756Y0077754D02*
X0252244Y0077754D01*
X0252244Y0087990D01*
X0257756Y0087990D01*
X0257756Y0077754D01*
X0251256Y0077754D02*
X0245744Y0077754D01*
X0245744Y0087990D01*
X0251256Y0087990D01*
X0251256Y0077754D01*
X0264548Y0099285D02*
X0272900Y0107636D01*
X0268724Y0111812D01*
X0260373Y0103461D01*
X0264548Y0099285D01*
X0243901Y0145512D02*
X0246406Y0148017D01*
D17*
X0197225Y0206114D02*
X0197227Y0206173D01*
X0197233Y0206231D01*
X0197243Y0206289D01*
X0197256Y0206346D01*
X0197274Y0206403D01*
X0197295Y0206458D01*
X0197320Y0206511D01*
X0197348Y0206562D01*
X0197379Y0206612D01*
X0197414Y0206659D01*
X0197452Y0206704D01*
X0197493Y0206747D01*
X0197537Y0206786D01*
X0197583Y0206822D01*
X0197631Y0206856D01*
X0197682Y0206886D01*
X0197735Y0206912D01*
X0197789Y0206935D01*
X0197844Y0206954D01*
X0197901Y0206970D01*
X0197959Y0206982D01*
X0198017Y0206990D01*
X0198076Y0206994D01*
X0198134Y0206994D01*
X0198193Y0206990D01*
X0198251Y0206982D01*
X0198309Y0206970D01*
X0198366Y0206954D01*
X0198421Y0206935D01*
X0198475Y0206912D01*
X0198528Y0206886D01*
X0198579Y0206856D01*
X0198627Y0206822D01*
X0198673Y0206786D01*
X0198717Y0206747D01*
X0198758Y0206704D01*
X0198796Y0206659D01*
X0198831Y0206612D01*
X0198862Y0206562D01*
X0198890Y0206511D01*
X0198915Y0206458D01*
X0198936Y0206403D01*
X0198954Y0206346D01*
X0198967Y0206289D01*
X0198977Y0206231D01*
X0198983Y0206173D01*
X0198985Y0206114D01*
X0198983Y0206055D01*
X0198977Y0205997D01*
X0198967Y0205939D01*
X0198954Y0205882D01*
X0198936Y0205825D01*
X0198915Y0205770D01*
X0198890Y0205717D01*
X0198862Y0205666D01*
X0198831Y0205616D01*
X0198796Y0205569D01*
X0198758Y0205524D01*
X0198717Y0205481D01*
X0198673Y0205442D01*
X0198627Y0205406D01*
X0198579Y0205372D01*
X0198528Y0205342D01*
X0198475Y0205316D01*
X0198421Y0205293D01*
X0198366Y0205274D01*
X0198309Y0205258D01*
X0198251Y0205246D01*
X0198193Y0205238D01*
X0198134Y0205234D01*
X0198076Y0205234D01*
X0198017Y0205238D01*
X0197959Y0205246D01*
X0197901Y0205258D01*
X0197844Y0205274D01*
X0197789Y0205293D01*
X0197735Y0205316D01*
X0197682Y0205342D01*
X0197631Y0205372D01*
X0197583Y0205406D01*
X0197537Y0205442D01*
X0197493Y0205481D01*
X0197452Y0205524D01*
X0197414Y0205569D01*
X0197379Y0205616D01*
X0197348Y0205666D01*
X0197320Y0205717D01*
X0197295Y0205770D01*
X0197274Y0205825D01*
X0197256Y0205882D01*
X0197243Y0205939D01*
X0197233Y0205997D01*
X0197227Y0206055D01*
X0197225Y0206114D01*
D18*
X0131882Y0114366D02*
X0131488Y0113579D01*
X0131488Y0113303D01*
X0131488Y0113579D02*
X0131882Y0113579D01*
X0131488Y0113579D02*
X0131094Y0113579D01*
X0131488Y0113579D02*
X0131094Y0114366D01*
X0131488Y0114366D01*
X0131488Y0114622D01*
X0131488Y0114366D02*
X0131882Y0114366D01*
X0124272Y0114283D02*
X0123878Y0113496D01*
X0123878Y0113220D01*
X0123878Y0113496D02*
X0124272Y0113496D01*
X0123878Y0113496D02*
X0123484Y0113496D01*
X0123878Y0113496D02*
X0123484Y0114283D01*
X0123878Y0114283D01*
X0123878Y0114539D01*
X0123878Y0114283D02*
X0124272Y0114283D01*
X0116839Y0114055D02*
X0116445Y0113268D01*
X0116445Y0112992D01*
X0116445Y0113268D02*
X0116839Y0113268D01*
X0116445Y0113268D02*
X0116051Y0113268D01*
X0116445Y0113268D02*
X0116051Y0114055D01*
X0116445Y0114055D01*
X0116445Y0114311D01*
X0116445Y0114055D02*
X0116839Y0114055D01*
X0109114Y0113925D02*
X0108720Y0113138D01*
X0108720Y0112862D01*
X0108720Y0113138D02*
X0109114Y0113138D01*
X0108720Y0113138D02*
X0108327Y0113138D01*
X0108720Y0113138D02*
X0108327Y0113925D01*
X0108720Y0113925D01*
X0108720Y0114181D01*
X0108720Y0113925D02*
X0109114Y0113925D01*
X0101398Y0113902D02*
X0101004Y0113114D01*
X0101004Y0112839D01*
X0101004Y0113114D02*
X0101398Y0113114D01*
X0101004Y0113114D02*
X0100610Y0113114D01*
X0101004Y0113114D02*
X0100610Y0113902D01*
X0101004Y0113902D01*
X0101004Y0114157D01*
X0101004Y0113902D02*
X0101398Y0113902D01*
D19*
X0160913Y0220658D02*
X0160913Y0250658D01*
X0189913Y0250658D01*
X0189913Y0220658D01*
X0160913Y0220658D01*
D20*
X0289700Y0133272D03*
X0289700Y0133222D03*
X0289700Y0133172D03*
X0289700Y0133122D03*
X0289700Y0133072D03*
X0289700Y0133022D03*
X0289700Y0132972D03*
X0289700Y0132922D03*
X0289700Y0132872D03*
X0289700Y0132822D03*
X0289700Y0132772D03*
X0289700Y0132722D03*
X0289700Y0132672D03*
X0289700Y0132622D03*
X0289700Y0132572D03*
X0289700Y0132522D03*
X0289700Y0132472D03*
X0289700Y0132422D03*
X0292600Y0132622D03*
X0292600Y0132672D03*
X0292600Y0132722D03*
X0292600Y0132772D03*
X0292600Y0132822D03*
X0292600Y0133072D03*
X0292600Y0133122D03*
X0292600Y0133172D03*
X0292600Y0133222D03*
X0292600Y0133272D03*
X0295200Y0134022D03*
X0295850Y0133222D03*
X0295850Y0133172D03*
X0295800Y0133072D03*
X0295800Y0133022D03*
X0295800Y0132972D03*
X0295800Y0132922D03*
X0295800Y0132872D03*
X0295800Y0132822D03*
X0295850Y0132722D03*
X0295850Y0132672D03*
X0296200Y0132372D03*
X0296550Y0132672D03*
X0296550Y0132722D03*
X0296550Y0133172D03*
X0296550Y0133222D03*
X0296550Y0133272D03*
X0299200Y0133272D03*
X0299200Y0133222D03*
X0299200Y0133172D03*
X0299200Y0133122D03*
X0299200Y0133072D03*
X0299200Y0132822D03*
X0299200Y0132772D03*
X0299200Y0132722D03*
X0299200Y0132672D03*
X0299200Y0132622D03*
X0299200Y0132572D03*
X0299200Y0132522D03*
X0299200Y0132472D03*
X0299200Y0132422D03*
X0299950Y0132422D03*
X0299950Y0132472D03*
X0299950Y0132522D03*
X0299950Y0132572D03*
X0299950Y0132622D03*
X0299950Y0132672D03*
X0299950Y0132722D03*
X0299950Y0132772D03*
X0299950Y0132822D03*
X0299950Y0133072D03*
X0299950Y0133122D03*
X0299950Y0133172D03*
X0299950Y0133222D03*
X0299950Y0133272D03*
X0299950Y0133322D03*
X0299950Y0133372D03*
X0299950Y0133422D03*
X0299950Y0133472D03*
X0300100Y0134022D03*
X0299200Y0133472D03*
X0299200Y0133422D03*
X0299200Y0133372D03*
X0299200Y0133322D03*
X0299350Y0136772D03*
X0302650Y0133072D03*
X0302650Y0133022D03*
X0302650Y0132972D03*
X0302650Y0132922D03*
X0302650Y0132872D03*
X0302650Y0132822D03*
X0302650Y0132772D03*
X0302650Y0132722D03*
X0302650Y0132672D03*
X0302650Y0132622D03*
X0302650Y0132572D03*
X0302650Y0132522D03*
X0302650Y0132472D03*
X0302650Y0132422D03*
X0303100Y0132772D03*
X0303100Y0132822D03*
X0303050Y0132872D03*
X0303050Y0132922D03*
X0303000Y0132972D03*
X0303000Y0133022D03*
X0302950Y0133072D03*
X0303400Y0133072D03*
X0303400Y0133022D03*
X0303400Y0132972D03*
X0303400Y0132922D03*
X0303400Y0132872D03*
X0303400Y0132822D03*
X0303400Y0132772D03*
X0303400Y0133122D03*
X0303400Y0133172D03*
X0303400Y0133222D03*
X0303400Y0133272D03*
X0303400Y0133322D03*
X0303400Y0133372D03*
X0303400Y0133422D03*
X0303400Y0133472D03*
X0306050Y0133072D03*
X0306050Y0133022D03*
X0306050Y0132972D03*
X0306050Y0132922D03*
X0306050Y0132872D03*
X0306050Y0132822D03*
X0306100Y0132722D03*
X0306150Y0132622D03*
X0306500Y0132372D03*
X0306850Y0132672D03*
X0306900Y0132772D03*
X0306900Y0132822D03*
X0306900Y0132872D03*
X0306900Y0132922D03*
X0306900Y0132972D03*
X0306900Y0133022D03*
X0306900Y0133072D03*
X0306900Y0133122D03*
X0306900Y0133172D03*
X0306850Y0133222D03*
X0306100Y0133222D03*
X0306100Y0133172D03*
X0309550Y0133172D03*
X0309550Y0133122D03*
X0309550Y0133072D03*
X0309550Y0133022D03*
X0309550Y0132972D03*
X0309550Y0132922D03*
X0309550Y0132872D03*
X0309550Y0132822D03*
X0309550Y0132772D03*
X0309550Y0132722D03*
X0309550Y0132672D03*
X0309550Y0132622D03*
X0309550Y0133222D03*
X0309550Y0133272D03*
X0309550Y0133322D03*
X0309550Y0133372D03*
X0309550Y0133422D03*
X0309550Y0133472D03*
X0312650Y0133122D03*
X0312650Y0133072D03*
X0312650Y0133022D03*
X0312650Y0132972D03*
X0312650Y0132922D03*
X0312650Y0132872D03*
X0312650Y0132822D03*
X0312650Y0132772D03*
X0312700Y0132722D03*
X0312700Y0132672D03*
X0313100Y0132372D03*
X0313450Y0132672D03*
X0313500Y0132772D03*
X0313500Y0132822D03*
X0313500Y0132872D03*
X0313500Y0132922D03*
X0313500Y0132972D03*
X0313500Y0133022D03*
X0313500Y0133072D03*
X0313500Y0133122D03*
X0313450Y0133222D03*
X0312700Y0133222D03*
X0316100Y0133172D03*
X0316100Y0133122D03*
X0316100Y0133072D03*
X0316100Y0132822D03*
X0316100Y0132772D03*
X0316100Y0132722D03*
X0316450Y0132372D03*
X0316850Y0132672D03*
X0316850Y0132722D03*
X0316850Y0132772D03*
X0316850Y0133172D03*
X0316850Y0133222D03*
X0318500Y0134672D03*
X0319450Y0133472D03*
X0319500Y0133372D03*
X0319550Y0133272D03*
X0319600Y0133172D03*
X0319650Y0133122D03*
X0319650Y0133072D03*
X0319800Y0132822D03*
X0319800Y0132772D03*
X0319800Y0132722D03*
X0319800Y0132672D03*
X0319800Y0132622D03*
X0319800Y0132572D03*
X0319800Y0132522D03*
X0319800Y0132472D03*
X0319800Y0132422D03*
X0319950Y0133072D03*
X0319950Y0133122D03*
X0320000Y0133172D03*
X0320000Y0133222D03*
X0320050Y0133272D03*
X0320100Y0133372D03*
X0320150Y0133472D03*
X0293000Y0136772D03*
D21*
X0293300Y0136222D03*
X0294900Y0134622D03*
X0292900Y0132572D03*
X0292900Y0132522D03*
X0292900Y0132472D03*
X0292900Y0132422D03*
X0298550Y0134722D03*
X0300100Y0134722D03*
X0300100Y0134672D03*
X0306500Y0133372D03*
X0308450Y0134572D03*
X0307150Y0135872D03*
X0307200Y0136272D03*
X0310700Y0135822D03*
X0310750Y0135872D03*
X0310800Y0135922D03*
X0311150Y0136322D03*
X0311200Y0136372D03*
X0311250Y0136422D03*
X0311300Y0136472D03*
X0311500Y0136722D03*
X0311550Y0136772D03*
X0311600Y0136822D03*
X0310700Y0135072D03*
X0310750Y0135022D03*
X0310800Y0134972D03*
X0311100Y0134622D03*
X0311150Y0134572D03*
X0311200Y0134522D03*
X0311250Y0134472D03*
X0311500Y0134172D03*
X0311550Y0134122D03*
X0311600Y0134072D03*
X0311650Y0134022D03*
X0313100Y0133372D03*
X0309850Y0132572D03*
X0309850Y0132522D03*
X0309850Y0132472D03*
X0309850Y0132422D03*
X0316500Y0133372D03*
X0317100Y0135572D03*
X0317100Y0136222D03*
X0318600Y0135872D03*
X0318650Y0136272D03*
X0318700Y0134522D03*
X0319900Y0134572D03*
D22*
X0319850Y0136222D03*
X0313100Y0132422D03*
X0306500Y0132422D03*
X0302800Y0133122D03*
X0300100Y0134372D03*
X0298550Y0134372D03*
X0296200Y0132422D03*
X0295050Y0134322D03*
X0293150Y0136522D03*
D23*
X0293050Y0136672D03*
X0295150Y0134122D03*
X0300100Y0134122D03*
X0300100Y0134172D03*
X0302700Y0133472D03*
X0302700Y0133422D03*
X0303350Y0132472D03*
X0303350Y0132422D03*
X0306200Y0132572D03*
X0306500Y0133522D03*
X0308450Y0136172D03*
X0312800Y0132572D03*
X0316200Y0132572D03*
X0316800Y0132572D03*
X0316500Y0133522D03*
X0319800Y0132922D03*
X0319800Y0132872D03*
X0319900Y0136172D03*
D24*
X0318550Y0134622D03*
X0319800Y0133022D03*
X0319800Y0132972D03*
X0316750Y0132972D03*
X0316750Y0132922D03*
X0316750Y0132872D03*
X0316750Y0132822D03*
X0316450Y0132422D03*
X0303300Y0132572D03*
X0303300Y0132622D03*
X0302750Y0133222D03*
X0302750Y0133272D03*
X0300100Y0134272D03*
X0298550Y0134272D03*
X0299350Y0136522D03*
X0295100Y0134222D03*
X0293100Y0136622D03*
D25*
X0292975Y0136822D03*
X0295225Y0133972D03*
X0296575Y0132772D03*
X0298575Y0133972D03*
X0298575Y0134022D03*
X0300075Y0133972D03*
X0299325Y0136822D03*
X0316875Y0132472D03*
X0316875Y0132422D03*
X0319975Y0136122D03*
D26*
X0319975Y0134872D03*
X0319975Y0134822D03*
X0319975Y0134772D03*
X0319975Y0134722D03*
X0319975Y0134672D03*
X0318525Y0135972D03*
X0318525Y0136022D03*
X0318525Y0136072D03*
X0318525Y0136122D03*
X0318525Y0136172D03*
X0317225Y0136072D03*
X0317225Y0136022D03*
X0317225Y0135972D03*
X0317225Y0135822D03*
X0317225Y0135772D03*
X0317225Y0135722D03*
X0316825Y0134672D03*
X0316875Y0134572D03*
X0316925Y0134472D03*
X0316975Y0134372D03*
X0317025Y0134272D03*
X0317125Y0134022D03*
X0317175Y0133972D03*
X0315725Y0134022D03*
X0315725Y0134072D03*
X0315725Y0134122D03*
X0315725Y0134172D03*
X0315725Y0134222D03*
X0315725Y0134272D03*
X0315725Y0134322D03*
X0315725Y0134372D03*
X0315725Y0134422D03*
X0315725Y0134472D03*
X0315725Y0134522D03*
X0315725Y0134572D03*
X0315725Y0134622D03*
X0315725Y0134672D03*
X0315725Y0134722D03*
X0315725Y0134772D03*
X0315725Y0134822D03*
X0315725Y0134872D03*
X0315725Y0135572D03*
X0315725Y0135622D03*
X0315725Y0135672D03*
X0315725Y0136122D03*
X0315725Y0136172D03*
X0315725Y0136222D03*
X0313075Y0132472D03*
X0308525Y0134672D03*
X0308525Y0134722D03*
X0308525Y0134772D03*
X0308525Y0134822D03*
X0308525Y0134872D03*
X0307775Y0133922D03*
X0306475Y0132472D03*
X0307075Y0135972D03*
X0307075Y0136022D03*
X0307075Y0136072D03*
X0307075Y0136122D03*
X0307075Y0136172D03*
X0301125Y0136822D03*
X0301075Y0136772D03*
X0301075Y0136722D03*
X0301025Y0136622D03*
X0300975Y0136522D03*
X0300925Y0136422D03*
X0300825Y0136172D03*
X0300775Y0136072D03*
X0300725Y0135972D03*
X0300725Y0135922D03*
X0300675Y0135822D03*
X0300625Y0135722D03*
X0300625Y0135672D03*
X0300575Y0135622D03*
X0300575Y0135572D03*
X0300525Y0135522D03*
X0300525Y0135472D03*
X0300475Y0135422D03*
X0300475Y0135372D03*
X0300075Y0134522D03*
X0298575Y0134522D03*
X0298175Y0135372D03*
X0298175Y0135422D03*
X0298125Y0135472D03*
X0298125Y0135522D03*
X0298075Y0135572D03*
X0298075Y0135622D03*
X0298025Y0135722D03*
X0298025Y0135772D03*
X0297975Y0135822D03*
X0297975Y0135872D03*
X0297925Y0135972D03*
X0297875Y0136072D03*
X0297725Y0136422D03*
X0297675Y0136522D03*
X0297575Y0136772D03*
X0299325Y0136272D03*
X0299325Y0136222D03*
X0296225Y0133422D03*
X0296225Y0132472D03*
X0294975Y0134472D03*
X0294975Y0135472D03*
X0294975Y0135522D03*
X0294975Y0135572D03*
X0294975Y0135622D03*
X0294975Y0135672D03*
X0294975Y0135722D03*
X0294975Y0135772D03*
X0294975Y0135822D03*
X0294975Y0135872D03*
X0294975Y0135922D03*
X0294975Y0135972D03*
X0294975Y0136022D03*
X0294975Y0136072D03*
X0294975Y0136122D03*
X0294975Y0136172D03*
X0294975Y0136222D03*
X0294975Y0136272D03*
X0294975Y0136322D03*
X0294975Y0136372D03*
X0294975Y0136422D03*
X0294975Y0136472D03*
X0294975Y0136522D03*
X0294975Y0136572D03*
X0294975Y0136622D03*
X0294975Y0136672D03*
X0293225Y0136372D03*
X0289625Y0136222D03*
X0289625Y0136172D03*
X0289625Y0136122D03*
X0289625Y0136072D03*
X0289625Y0136022D03*
X0289625Y0135972D03*
X0289625Y0135922D03*
X0289625Y0135872D03*
X0289625Y0135822D03*
X0289625Y0135772D03*
X0289625Y0135722D03*
X0289625Y0135672D03*
X0289625Y0135622D03*
X0289625Y0135572D03*
X0289625Y0135522D03*
X0289625Y0135472D03*
X0289625Y0135422D03*
X0289625Y0135372D03*
X0289625Y0135322D03*
X0289625Y0135272D03*
X0289625Y0135222D03*
X0289625Y0135172D03*
X0289625Y0135122D03*
X0289625Y0135072D03*
X0289625Y0135022D03*
X0289625Y0134972D03*
X0289625Y0134922D03*
X0289625Y0134872D03*
X0289625Y0134822D03*
X0289625Y0134772D03*
X0289625Y0134722D03*
X0289625Y0134672D03*
X0289625Y0134622D03*
X0289625Y0134572D03*
X0289625Y0134522D03*
X0289625Y0134472D03*
X0289625Y0134422D03*
X0289625Y0134372D03*
X0289625Y0134322D03*
X0289625Y0134272D03*
X0289625Y0134222D03*
X0289625Y0134172D03*
X0289625Y0134122D03*
X0289625Y0134072D03*
X0289625Y0134022D03*
X0289625Y0133972D03*
D27*
X0293175Y0136472D03*
X0295025Y0134372D03*
X0296225Y0133472D03*
X0298575Y0134422D03*
X0300075Y0134422D03*
X0299325Y0136322D03*
X0299325Y0136372D03*
X0304175Y0136372D03*
X0304175Y0136322D03*
X0304175Y0136272D03*
X0304175Y0136222D03*
X0304175Y0136172D03*
X0304175Y0136122D03*
X0304175Y0136072D03*
X0304175Y0136022D03*
X0304175Y0135972D03*
X0304175Y0135922D03*
X0304175Y0135872D03*
X0304175Y0135822D03*
X0304175Y0135772D03*
X0304175Y0135722D03*
X0304175Y0136422D03*
X0304175Y0136472D03*
X0304175Y0136522D03*
X0304175Y0136572D03*
X0304175Y0136622D03*
X0304175Y0136672D03*
X0304175Y0136722D03*
X0304175Y0136772D03*
X0304175Y0136822D03*
X0306475Y0133472D03*
X0313075Y0133472D03*
X0316525Y0133472D03*
X0316425Y0132472D03*
X0318575Y0134572D03*
D28*
X0319925Y0134972D03*
X0319725Y0136272D03*
X0313075Y0132522D03*
X0311675Y0133972D03*
X0311475Y0134222D03*
X0311425Y0134272D03*
X0311375Y0134322D03*
X0311325Y0134372D03*
X0311275Y0134422D03*
X0311075Y0134672D03*
X0311025Y0134722D03*
X0310975Y0134772D03*
X0310925Y0134822D03*
X0310875Y0134872D03*
X0310825Y0134922D03*
X0310825Y0135972D03*
X0310875Y0136022D03*
X0310925Y0136072D03*
X0310975Y0136122D03*
X0311025Y0136172D03*
X0311075Y0136222D03*
X0311125Y0136272D03*
X0311325Y0136522D03*
X0311375Y0136572D03*
X0311425Y0136622D03*
X0311475Y0136672D03*
X0308275Y0136272D03*
X0308475Y0134972D03*
X0306475Y0132522D03*
X0299325Y0136072D03*
X0299325Y0136122D03*
X0298575Y0134672D03*
X0298575Y0134622D03*
X0296225Y0133372D03*
X0296225Y0132522D03*
X0294925Y0134572D03*
X0292875Y0133472D03*
X0292875Y0133422D03*
X0292875Y0133372D03*
X0292875Y0133322D03*
X0292875Y0133022D03*
X0292875Y0132972D03*
X0292875Y0132922D03*
X0292875Y0132872D03*
X0293275Y0136272D03*
D29*
X0295125Y0134172D03*
X0296225Y0133522D03*
X0298575Y0134172D03*
X0298575Y0134222D03*
X0300075Y0134222D03*
X0299325Y0136572D03*
X0299325Y0136622D03*
X0302725Y0133372D03*
X0302725Y0133322D03*
X0303325Y0132522D03*
X0307075Y0134622D03*
X0313075Y0133522D03*
D30*
X0316525Y0132522D03*
X0318675Y0135822D03*
X0319875Y0135022D03*
X0308425Y0135022D03*
X0307275Y0134522D03*
X0307225Y0135822D03*
X0300075Y0134772D03*
X0299325Y0135972D03*
X0299325Y0136022D03*
X0298575Y0134772D03*
X0293325Y0136172D03*
D31*
X0293025Y0136722D03*
X0295175Y0134072D03*
X0295925Y0133322D03*
X0295875Y0133272D03*
X0295825Y0133122D03*
X0295825Y0132772D03*
X0295875Y0132622D03*
X0295925Y0132572D03*
X0296475Y0132572D03*
X0296525Y0132622D03*
X0296525Y0133322D03*
X0298575Y0134072D03*
X0298575Y0134122D03*
X0300075Y0134072D03*
X0299325Y0136672D03*
X0299325Y0136722D03*
X0306125Y0133272D03*
X0306175Y0133322D03*
X0306075Y0133122D03*
X0306075Y0132772D03*
X0306125Y0132672D03*
X0306775Y0132572D03*
X0306825Y0132622D03*
X0306875Y0132722D03*
X0306825Y0133272D03*
X0306775Y0133322D03*
X0307025Y0134672D03*
X0312675Y0133172D03*
X0312725Y0133272D03*
X0312775Y0133322D03*
X0313375Y0133322D03*
X0313425Y0133272D03*
X0313475Y0133172D03*
X0313475Y0132722D03*
X0313425Y0132622D03*
X0313375Y0132572D03*
X0312725Y0132622D03*
X0316075Y0132872D03*
X0316075Y0132922D03*
X0316075Y0132972D03*
X0316075Y0133022D03*
X0316125Y0133222D03*
X0316175Y0133272D03*
X0316225Y0133322D03*
X0316775Y0133322D03*
X0316825Y0133272D03*
X0316825Y0132622D03*
X0316175Y0132622D03*
X0316125Y0132672D03*
X0319475Y0133422D03*
X0319525Y0133322D03*
X0319575Y0133222D03*
X0320075Y0133322D03*
X0320125Y0133422D03*
D32*
X0308375Y0136222D03*
X0303275Y0132722D03*
X0303275Y0132672D03*
X0302775Y0133172D03*
X0300075Y0134322D03*
X0298575Y0134322D03*
X0299325Y0136422D03*
X0299325Y0136472D03*
X0295075Y0134272D03*
X0293125Y0136572D03*
D33*
X0293375Y0136072D03*
X0294825Y0134722D03*
X0298575Y0134872D03*
X0299325Y0135872D03*
X0299325Y0135922D03*
X0300075Y0134872D03*
X0299575Y0133022D03*
X0299575Y0132972D03*
X0299575Y0132922D03*
X0299575Y0132872D03*
D34*
X0300100Y0134822D03*
X0298550Y0134822D03*
X0294850Y0134672D03*
X0293350Y0136122D03*
X0289700Y0133472D03*
X0289700Y0133422D03*
X0289700Y0133372D03*
X0289700Y0133322D03*
D35*
X0293250Y0136322D03*
X0294950Y0134522D03*
X0298050Y0135672D03*
X0297950Y0135922D03*
X0297900Y0136022D03*
X0297850Y0136122D03*
X0297850Y0136172D03*
X0297800Y0136222D03*
X0297800Y0136272D03*
X0297750Y0136322D03*
X0297750Y0136372D03*
X0297700Y0136472D03*
X0297650Y0136572D03*
X0297650Y0136622D03*
X0297600Y0136672D03*
X0297600Y0136722D03*
X0297550Y0136822D03*
X0299350Y0136172D03*
X0300650Y0135772D03*
X0300700Y0135872D03*
X0300750Y0136022D03*
X0300800Y0136122D03*
X0300850Y0136222D03*
X0300850Y0136272D03*
X0300900Y0136322D03*
X0300900Y0136372D03*
X0300950Y0136472D03*
X0301000Y0136572D03*
X0301050Y0136672D03*
X0300100Y0134622D03*
X0300100Y0134572D03*
X0298550Y0134572D03*
X0306500Y0133422D03*
X0308500Y0134622D03*
X0308500Y0134922D03*
X0307100Y0135922D03*
X0307100Y0136222D03*
X0307750Y0136872D03*
X0313100Y0133422D03*
X0316500Y0133422D03*
X0317100Y0134072D03*
X0317100Y0134122D03*
X0317050Y0134172D03*
X0317050Y0134222D03*
X0317000Y0134322D03*
X0316950Y0134422D03*
X0316900Y0134522D03*
X0316850Y0134622D03*
X0316800Y0134722D03*
X0316800Y0134772D03*
X0316750Y0134822D03*
X0316750Y0134872D03*
X0317150Y0135622D03*
X0317200Y0135672D03*
X0317200Y0136122D03*
X0317150Y0136172D03*
X0318550Y0136222D03*
X0318550Y0135922D03*
X0319200Y0136872D03*
X0319950Y0134922D03*
X0319950Y0134622D03*
D36*
X0308500Y0136122D03*
X0295250Y0133922D03*
X0292950Y0136872D03*
D37*
X0298575Y0133922D03*
X0300075Y0133922D03*
X0306975Y0134722D03*
X0318425Y0134722D03*
D38*
X0319250Y0133922D03*
X0317250Y0135872D03*
X0317250Y0135922D03*
X0315700Y0135922D03*
X0315700Y0135872D03*
X0315700Y0135822D03*
X0315700Y0135772D03*
X0315700Y0135722D03*
X0315700Y0135972D03*
X0315700Y0136022D03*
X0315700Y0136072D03*
X0315700Y0133972D03*
X0313000Y0134572D03*
X0313000Y0134622D03*
X0313000Y0134672D03*
X0313000Y0134722D03*
X0313000Y0134772D03*
X0313000Y0134822D03*
X0313000Y0134872D03*
X0313000Y0134922D03*
X0313000Y0134972D03*
X0313000Y0135022D03*
X0313000Y0135072D03*
X0313000Y0135722D03*
X0313000Y0135772D03*
X0313000Y0135822D03*
X0313000Y0135872D03*
X0313000Y0135922D03*
X0313000Y0135972D03*
X0313000Y0136022D03*
X0313000Y0136072D03*
X0313000Y0136122D03*
X0313000Y0136172D03*
X0313000Y0136222D03*
X0309900Y0136222D03*
X0309900Y0136172D03*
X0309900Y0136122D03*
X0309900Y0136072D03*
X0309900Y0136022D03*
X0309900Y0135972D03*
X0309900Y0135922D03*
X0309900Y0135872D03*
X0309900Y0135822D03*
X0309900Y0136272D03*
X0309900Y0136322D03*
X0309900Y0136372D03*
X0309900Y0136422D03*
X0309900Y0136472D03*
X0309900Y0136522D03*
X0309900Y0136572D03*
X0309900Y0136622D03*
X0309900Y0136672D03*
X0309900Y0136722D03*
X0309900Y0136772D03*
X0309900Y0136822D03*
X0309900Y0135072D03*
X0309900Y0135022D03*
X0309900Y0134972D03*
X0309900Y0134922D03*
X0309900Y0134872D03*
X0309900Y0134822D03*
X0309900Y0134772D03*
X0309900Y0134722D03*
X0309900Y0134672D03*
X0309900Y0134622D03*
X0309900Y0134572D03*
X0309900Y0134522D03*
X0309900Y0134472D03*
X0309900Y0134422D03*
X0309900Y0134372D03*
X0309900Y0134322D03*
X0309900Y0134272D03*
X0309900Y0134222D03*
X0309900Y0134172D03*
X0309900Y0134122D03*
X0309900Y0134072D03*
X0309900Y0134022D03*
X0309900Y0133972D03*
X0307150Y0134572D03*
X0305650Y0134572D03*
X0305650Y0134522D03*
X0305650Y0134472D03*
X0305650Y0134422D03*
X0305650Y0134372D03*
X0305650Y0134322D03*
X0305650Y0134272D03*
X0305650Y0134222D03*
X0305650Y0134172D03*
X0305650Y0134122D03*
X0305650Y0134072D03*
X0305650Y0134022D03*
X0305650Y0133972D03*
X0305650Y0134622D03*
X0305650Y0134672D03*
X0305650Y0134722D03*
X0305650Y0134772D03*
X0305650Y0134822D03*
X0305650Y0134872D03*
X0305650Y0134922D03*
X0305650Y0134972D03*
X0305650Y0135022D03*
X0305650Y0135072D03*
X0305650Y0135122D03*
X0305650Y0135172D03*
X0305650Y0135222D03*
X0305650Y0135272D03*
X0305650Y0135322D03*
X0305650Y0135372D03*
X0305650Y0135422D03*
X0305650Y0135472D03*
X0305650Y0135522D03*
X0305650Y0135572D03*
X0305650Y0135622D03*
X0305650Y0135672D03*
X0305650Y0135722D03*
X0305650Y0135772D03*
X0305650Y0135822D03*
X0305650Y0135872D03*
X0305650Y0135922D03*
X0305650Y0135972D03*
X0305650Y0136022D03*
X0305650Y0136072D03*
X0305650Y0136122D03*
X0305650Y0136172D03*
X0305650Y0136222D03*
X0305650Y0136272D03*
X0305650Y0136322D03*
X0305650Y0136372D03*
X0305650Y0136422D03*
X0305650Y0136472D03*
X0305650Y0136522D03*
X0305650Y0136572D03*
X0305650Y0136622D03*
X0305650Y0136672D03*
X0305650Y0136722D03*
X0305650Y0136772D03*
X0305650Y0136822D03*
X0304150Y0135022D03*
X0304150Y0134972D03*
X0304150Y0134922D03*
X0304150Y0134872D03*
X0304150Y0134822D03*
X0304150Y0134772D03*
X0304150Y0134722D03*
X0304150Y0134672D03*
X0304150Y0134622D03*
X0304150Y0134572D03*
X0304150Y0134522D03*
X0304150Y0134472D03*
X0304150Y0134422D03*
X0304150Y0134372D03*
X0304150Y0134322D03*
X0304150Y0134272D03*
X0304150Y0134222D03*
X0304150Y0134172D03*
X0304150Y0134122D03*
X0304150Y0134072D03*
X0304150Y0134022D03*
X0304150Y0133972D03*
X0302400Y0133972D03*
X0302400Y0134022D03*
X0302400Y0134072D03*
X0302400Y0134122D03*
X0302400Y0134172D03*
X0302400Y0134222D03*
X0302400Y0134272D03*
X0302400Y0134322D03*
X0302400Y0134372D03*
X0302400Y0134422D03*
X0302400Y0134472D03*
X0302400Y0134522D03*
X0302400Y0134572D03*
X0302400Y0134622D03*
X0302400Y0134672D03*
X0302400Y0134722D03*
X0302400Y0134772D03*
X0302400Y0134822D03*
X0302400Y0134872D03*
X0302400Y0134922D03*
X0302400Y0134972D03*
X0302400Y0135022D03*
X0302400Y0135722D03*
X0302400Y0135772D03*
X0302400Y0135822D03*
X0302400Y0135872D03*
X0302400Y0135922D03*
X0302400Y0135972D03*
X0302400Y0136022D03*
X0302400Y0136072D03*
X0302400Y0136122D03*
X0302400Y0136172D03*
X0302400Y0136222D03*
X0302400Y0136272D03*
X0302400Y0136322D03*
X0302400Y0136372D03*
X0302400Y0136422D03*
X0302400Y0136472D03*
X0302400Y0136522D03*
X0302400Y0136572D03*
X0302400Y0136622D03*
X0302400Y0136672D03*
X0302400Y0136722D03*
X0302400Y0136772D03*
X0302400Y0136822D03*
X0299700Y0135372D03*
X0298950Y0135372D03*
X0298550Y0134472D03*
X0300100Y0134472D03*
X0295000Y0134422D03*
X0293200Y0134422D03*
X0293200Y0134372D03*
X0293200Y0134322D03*
X0293200Y0134272D03*
X0293200Y0134222D03*
X0293200Y0134172D03*
X0293200Y0134122D03*
X0293200Y0134072D03*
X0293200Y0134022D03*
X0293200Y0133972D03*
X0293200Y0134472D03*
X0293200Y0134522D03*
X0293200Y0134572D03*
X0293200Y0134622D03*
X0293200Y0134672D03*
X0293200Y0134722D03*
X0293200Y0134772D03*
X0293200Y0134822D03*
X0293200Y0134872D03*
X0293200Y0134922D03*
X0293200Y0134972D03*
X0293200Y0135022D03*
X0293200Y0135072D03*
X0293200Y0135122D03*
X0293200Y0135172D03*
X0293200Y0135222D03*
X0293200Y0135272D03*
X0293200Y0135322D03*
X0293200Y0135372D03*
X0293200Y0135422D03*
X0293200Y0136422D03*
X0291700Y0136422D03*
X0291700Y0136372D03*
X0291700Y0136322D03*
X0291700Y0136272D03*
X0291700Y0136222D03*
X0291700Y0136172D03*
X0291700Y0136122D03*
X0291700Y0136072D03*
X0291700Y0136022D03*
X0291700Y0135972D03*
X0291700Y0135922D03*
X0291700Y0135872D03*
X0291700Y0135822D03*
X0291700Y0135772D03*
X0291700Y0135722D03*
X0291700Y0135672D03*
X0291700Y0135622D03*
X0291700Y0135572D03*
X0291700Y0135522D03*
X0291700Y0135472D03*
X0291700Y0135422D03*
X0291700Y0135372D03*
X0291700Y0135322D03*
X0291700Y0135272D03*
X0291700Y0135222D03*
X0291700Y0135172D03*
X0291700Y0135122D03*
X0291700Y0135072D03*
X0291700Y0135022D03*
X0291700Y0134972D03*
X0291700Y0134922D03*
X0291700Y0134872D03*
X0291700Y0134822D03*
X0291700Y0134772D03*
X0291700Y0134722D03*
X0291700Y0134672D03*
X0291700Y0134622D03*
X0291700Y0134572D03*
X0291700Y0134522D03*
X0291700Y0134472D03*
X0291700Y0134422D03*
X0291700Y0134372D03*
X0291700Y0134322D03*
X0291700Y0134272D03*
X0291700Y0134222D03*
X0291700Y0134172D03*
X0291700Y0134122D03*
X0291700Y0134072D03*
X0291700Y0134022D03*
X0291700Y0133972D03*
X0291700Y0136472D03*
X0291700Y0136522D03*
X0291700Y0136572D03*
X0291700Y0136622D03*
X0291700Y0136672D03*
X0291700Y0136722D03*
X0291700Y0136772D03*
X0291700Y0136822D03*
X0295000Y0136822D03*
X0295000Y0136772D03*
X0295000Y0136722D03*
D39*
X0293400Y0136022D03*
X0294800Y0134772D03*
X0298550Y0134922D03*
X0299350Y0135822D03*
X0300100Y0134922D03*
X0307300Y0135772D03*
X0308350Y0135072D03*
X0307750Y0133972D03*
X0318750Y0135772D03*
X0319800Y0135072D03*
X0319800Y0134522D03*
X0319200Y0133972D03*
D40*
X0319150Y0134272D03*
X0319200Y0134322D03*
X0319200Y0134372D03*
X0319250Y0134422D03*
X0319250Y0134472D03*
X0316400Y0135372D03*
X0316400Y0136422D03*
X0313700Y0136422D03*
X0313700Y0136372D03*
X0313700Y0136322D03*
X0313700Y0136272D03*
X0313700Y0136472D03*
X0313700Y0136522D03*
X0313700Y0136572D03*
X0313700Y0136622D03*
X0313700Y0136672D03*
X0313700Y0136722D03*
X0313700Y0136772D03*
X0313700Y0136822D03*
X0313700Y0134522D03*
X0313700Y0134472D03*
X0313700Y0134422D03*
X0313700Y0134372D03*
X0313700Y0134322D03*
X0313700Y0134272D03*
X0313700Y0134222D03*
X0313700Y0134172D03*
X0313700Y0134122D03*
X0313700Y0134072D03*
X0313700Y0134022D03*
X0313700Y0133972D03*
X0307800Y0134422D03*
X0307800Y0134472D03*
X0307750Y0134372D03*
X0307750Y0134322D03*
X0307700Y0134272D03*
D41*
X0307725Y0134022D03*
X0310225Y0135322D03*
X0310225Y0135572D03*
X0299325Y0135572D03*
X0299325Y0135522D03*
X0298575Y0135222D03*
X0294675Y0135022D03*
X0293525Y0135822D03*
D42*
X0293550Y0135772D03*
X0294650Y0135072D03*
X0298550Y0135272D03*
X0299350Y0135472D03*
X0300100Y0135272D03*
X0300100Y0135222D03*
X0308100Y0135222D03*
X0310250Y0135272D03*
X0310250Y0135622D03*
X0319200Y0134022D03*
X0319550Y0135222D03*
D43*
X0319400Y0135322D03*
X0319350Y0135372D03*
X0319250Y0135422D03*
X0319200Y0135472D03*
X0319300Y0136722D03*
X0319150Y0134072D03*
X0307950Y0135322D03*
X0307800Y0135422D03*
X0307750Y0135472D03*
X0307700Y0134072D03*
X0294550Y0135272D03*
X0293650Y0135572D03*
D44*
X0294450Y0135422D03*
X0307700Y0134122D03*
X0307850Y0136672D03*
X0316250Y0136722D03*
X0316250Y0135072D03*
X0319150Y0134122D03*
X0319300Y0136672D03*
D45*
X0319325Y0136622D03*
X0319275Y0136522D03*
X0319225Y0136422D03*
X0319125Y0134172D03*
X0316325Y0136622D03*
X0307825Y0136572D03*
X0307825Y0136522D03*
X0307775Y0136422D03*
X0307725Y0136322D03*
X0307675Y0134172D03*
D46*
X0307675Y0134222D03*
X0316375Y0135272D03*
X0316375Y0135322D03*
X0316375Y0136472D03*
X0316375Y0136522D03*
X0319125Y0134222D03*
D47*
X0319725Y0135122D03*
X0319225Y0136822D03*
X0308275Y0135122D03*
X0308325Y0134522D03*
X0307775Y0136822D03*
X0300075Y0134972D03*
X0299325Y0135722D03*
X0299325Y0135772D03*
X0298575Y0134972D03*
X0294775Y0134822D03*
D48*
X0294750Y0134872D03*
X0293450Y0135972D03*
X0298550Y0135022D03*
X0300100Y0135022D03*
X0300100Y0135072D03*
X0307350Y0135722D03*
X0318800Y0135722D03*
D49*
X0310175Y0135472D03*
X0310175Y0135422D03*
X0299325Y0135622D03*
X0299325Y0135672D03*
X0298575Y0135072D03*
X0294725Y0134922D03*
X0293475Y0135922D03*
D50*
X0294475Y0135372D03*
X0313525Y0135372D03*
X0313525Y0135322D03*
X0313525Y0135272D03*
X0313525Y0135222D03*
X0313525Y0135172D03*
X0313525Y0135122D03*
X0313525Y0135422D03*
X0313525Y0135472D03*
X0313525Y0135522D03*
X0313525Y0135572D03*
X0313525Y0135622D03*
X0313525Y0135672D03*
X0316225Y0134972D03*
X0316225Y0134922D03*
D51*
X0318900Y0135672D03*
X0319650Y0135172D03*
X0310200Y0135372D03*
X0310200Y0135522D03*
X0308200Y0135172D03*
X0307450Y0135672D03*
X0300100Y0135172D03*
X0300100Y0135122D03*
X0298550Y0135122D03*
X0298550Y0135172D03*
X0294700Y0134972D03*
X0293500Y0135872D03*
D52*
X0293700Y0135472D03*
X0294500Y0135322D03*
X0316200Y0135022D03*
X0316200Y0136772D03*
D53*
X0303275Y0135672D03*
X0303275Y0135622D03*
X0303275Y0135572D03*
X0303275Y0135522D03*
X0303275Y0135472D03*
X0303275Y0135422D03*
X0303275Y0135372D03*
X0303275Y0135322D03*
X0303275Y0135272D03*
X0303275Y0135222D03*
X0303275Y0135172D03*
X0303275Y0135122D03*
X0303275Y0135072D03*
D54*
X0300075Y0135322D03*
X0299325Y0135422D03*
X0298575Y0135322D03*
X0294625Y0135122D03*
X0293575Y0135722D03*
X0307525Y0135622D03*
X0307825Y0136772D03*
X0310275Y0135672D03*
X0310275Y0135222D03*
X0318975Y0135622D03*
X0319275Y0136772D03*
D55*
X0319125Y0135522D03*
X0316125Y0136822D03*
X0310325Y0135772D03*
X0310325Y0135122D03*
X0307875Y0135372D03*
X0307675Y0135522D03*
X0294575Y0135222D03*
X0293625Y0135622D03*
D56*
X0316275Y0135122D03*
X0316275Y0136672D03*
D57*
X0319050Y0135572D03*
X0319500Y0135272D03*
X0310300Y0135172D03*
X0310300Y0135722D03*
X0308000Y0135272D03*
X0307600Y0135572D03*
X0294600Y0135172D03*
X0293600Y0135672D03*
D58*
X0307850Y0136622D03*
X0316300Y0135172D03*
X0319300Y0136572D03*
D59*
X0319250Y0136472D03*
X0319200Y0136372D03*
X0319200Y0136322D03*
X0316350Y0136572D03*
X0316350Y0135222D03*
X0307800Y0136472D03*
X0307750Y0136372D03*
D60*
X0316425Y0136372D03*
X0316425Y0136322D03*
X0316425Y0135472D03*
X0316425Y0135422D03*
D61*
X0307825Y0136722D03*
X0293675Y0135522D03*
D62*
X0316450Y0135522D03*
X0316450Y0136272D03*
D63*
X0289625Y0136272D03*
X0289625Y0136322D03*
X0289625Y0136372D03*
X0289625Y0136422D03*
X0289625Y0136472D03*
X0289625Y0136522D03*
X0289625Y0136572D03*
X0289625Y0136622D03*
X0289625Y0136672D03*
X0289625Y0136722D03*
X0289625Y0136772D03*
X0289625Y0136822D03*
D64*
X0291000Y0138872D03*
X0291000Y0138922D03*
X0291000Y0138972D03*
X0291000Y0139022D03*
X0291000Y0139072D03*
X0291000Y0139122D03*
X0291000Y0139172D03*
X0291000Y0139222D03*
X0291000Y0139272D03*
X0291000Y0139322D03*
X0291000Y0139372D03*
X0291000Y0139422D03*
X0291000Y0139472D03*
X0291000Y0139522D03*
X0291000Y0139572D03*
X0291000Y0139622D03*
X0291000Y0139672D03*
X0291000Y0139722D03*
X0291000Y0139772D03*
X0291000Y0139822D03*
X0291000Y0139872D03*
X0291000Y0139922D03*
X0291000Y0139972D03*
X0291000Y0140022D03*
X0291000Y0140072D03*
X0291000Y0140122D03*
X0291000Y0140172D03*
X0291000Y0140222D03*
X0291000Y0140272D03*
X0291000Y0140322D03*
X0291000Y0140372D03*
X0291000Y0140422D03*
X0291000Y0140472D03*
X0291000Y0140522D03*
X0291000Y0140572D03*
X0291000Y0140622D03*
X0291000Y0140672D03*
X0291000Y0140722D03*
X0291000Y0140772D03*
X0291000Y0140822D03*
X0291000Y0140872D03*
X0291000Y0140922D03*
X0291000Y0140972D03*
X0291000Y0141022D03*
X0291000Y0141072D03*
X0291000Y0141122D03*
X0291000Y0141172D03*
X0291000Y0141222D03*
X0291000Y0141272D03*
X0291000Y0141322D03*
X0291000Y0141372D03*
X0291000Y0141422D03*
X0291000Y0141472D03*
X0291000Y0141522D03*
X0291000Y0141572D03*
X0291000Y0141622D03*
X0291000Y0141672D03*
X0291000Y0141722D03*
X0291000Y0141772D03*
X0291000Y0141822D03*
X0291000Y0141872D03*
X0291000Y0141922D03*
X0291000Y0141972D03*
X0291000Y0142022D03*
X0291000Y0142072D03*
X0291000Y0142122D03*
X0291000Y0142172D03*
X0291000Y0142222D03*
X0291000Y0142272D03*
X0291000Y0142322D03*
X0291000Y0142372D03*
X0291000Y0142422D03*
X0291000Y0142472D03*
X0291000Y0142522D03*
X0291000Y0142572D03*
X0291000Y0142622D03*
X0291000Y0142672D03*
X0291000Y0142722D03*
X0291000Y0142772D03*
X0291000Y0142822D03*
X0291000Y0142872D03*
X0291000Y0142922D03*
X0291000Y0142972D03*
X0291000Y0143022D03*
X0291000Y0143072D03*
X0291000Y0143122D03*
X0291000Y0143172D03*
X0291000Y0143222D03*
X0291000Y0143272D03*
X0291000Y0143322D03*
X0291000Y0143372D03*
X0291000Y0143422D03*
X0291000Y0143472D03*
X0291000Y0143522D03*
X0291000Y0143572D03*
X0291000Y0143622D03*
X0291000Y0143672D03*
X0291000Y0143722D03*
X0291000Y0143772D03*
X0291000Y0143822D03*
X0291000Y0143872D03*
X0291000Y0143922D03*
X0291000Y0143972D03*
X0291000Y0144022D03*
X0291000Y0144072D03*
X0291000Y0144122D03*
X0291000Y0144172D03*
X0291000Y0144222D03*
X0291000Y0144272D03*
X0291000Y0144322D03*
X0291000Y0144372D03*
X0291000Y0144422D03*
X0291000Y0144472D03*
X0291000Y0144522D03*
X0291000Y0144572D03*
X0291000Y0144622D03*
X0291000Y0144672D03*
X0291000Y0144722D03*
X0291000Y0144772D03*
X0291000Y0144822D03*
X0291000Y0144872D03*
X0291000Y0144922D03*
X0291000Y0144972D03*
X0291000Y0145022D03*
X0291000Y0145072D03*
X0291000Y0145122D03*
X0291000Y0145172D03*
X0291000Y0145222D03*
X0291000Y0145272D03*
X0291000Y0145322D03*
X0291000Y0145372D03*
X0291000Y0145422D03*
X0291000Y0145472D03*
X0291000Y0145522D03*
X0291000Y0145572D03*
X0291000Y0145622D03*
X0291000Y0145672D03*
X0291000Y0145722D03*
X0291000Y0145772D03*
X0291000Y0145822D03*
X0291000Y0145872D03*
X0291000Y0145922D03*
X0291000Y0145972D03*
X0291000Y0146022D03*
X0291000Y0146072D03*
X0291000Y0146122D03*
X0291000Y0146172D03*
X0291000Y0146222D03*
X0291000Y0146272D03*
X0291000Y0146322D03*
X0291000Y0146372D03*
X0291000Y0146422D03*
X0291000Y0146472D03*
X0291000Y0146522D03*
X0291000Y0146572D03*
X0291000Y0146622D03*
X0291000Y0146672D03*
X0291000Y0146722D03*
X0291000Y0146772D03*
X0291000Y0146822D03*
X0291000Y0146872D03*
X0291000Y0146922D03*
X0291000Y0146972D03*
X0291000Y0147022D03*
X0291000Y0147072D03*
X0291000Y0147122D03*
X0291000Y0147172D03*
X0291000Y0147222D03*
X0291000Y0147272D03*
X0291000Y0147322D03*
X0291000Y0147372D03*
X0291000Y0147422D03*
X0291000Y0147472D03*
X0291000Y0147522D03*
X0291000Y0147572D03*
X0291000Y0147622D03*
X0291000Y0147672D03*
X0291000Y0147722D03*
X0291000Y0147772D03*
X0291000Y0147822D03*
X0291000Y0147872D03*
X0291000Y0147922D03*
X0291000Y0147972D03*
X0291000Y0148022D03*
X0291000Y0148072D03*
X0291000Y0148122D03*
X0291000Y0148172D03*
X0291000Y0148222D03*
X0291000Y0148272D03*
X0291000Y0148322D03*
X0291000Y0148372D03*
X0291000Y0148422D03*
X0291000Y0148472D03*
X0291000Y0148522D03*
X0291000Y0148572D03*
X0291000Y0148622D03*
X0291000Y0148672D03*
X0291000Y0148722D03*
X0291000Y0148772D03*
X0291000Y0148822D03*
X0291000Y0148872D03*
X0291000Y0148922D03*
X0291000Y0148972D03*
X0291000Y0149022D03*
X0291000Y0149072D03*
X0291000Y0149122D03*
X0291000Y0149172D03*
X0291000Y0149222D03*
X0291000Y0149272D03*
X0291000Y0149322D03*
X0291000Y0149372D03*
X0291000Y0149422D03*
X0291000Y0149472D03*
X0291000Y0149522D03*
X0291000Y0149572D03*
X0291000Y0149622D03*
X0291000Y0149672D03*
X0291000Y0149722D03*
X0291000Y0149772D03*
X0291000Y0149822D03*
X0291000Y0149872D03*
X0291000Y0149922D03*
X0291000Y0149972D03*
X0291000Y0150022D03*
X0291000Y0150072D03*
X0291000Y0150122D03*
X0291000Y0150172D03*
X0291000Y0150222D03*
X0291000Y0150272D03*
X0291000Y0150322D03*
X0291000Y0150372D03*
X0291000Y0150422D03*
X0291000Y0150472D03*
X0291000Y0150522D03*
X0291000Y0150572D03*
X0291000Y0150622D03*
X0291000Y0150672D03*
X0291000Y0150722D03*
X0291000Y0150772D03*
X0291000Y0150822D03*
X0291000Y0150872D03*
X0291000Y0150922D03*
X0291000Y0150972D03*
X0291000Y0151022D03*
X0291000Y0151072D03*
X0291000Y0151122D03*
X0291000Y0151172D03*
X0291000Y0151222D03*
X0291000Y0151272D03*
X0291000Y0151322D03*
X0291000Y0151372D03*
X0291000Y0151422D03*
X0291000Y0151472D03*
X0291000Y0151522D03*
X0291000Y0151572D03*
X0291000Y0151622D03*
X0291000Y0151672D03*
X0291000Y0151722D03*
X0291000Y0151772D03*
X0291000Y0151822D03*
X0291000Y0151872D03*
X0291000Y0151922D03*
X0291000Y0151972D03*
X0291000Y0152022D03*
X0291000Y0152072D03*
X0291000Y0152122D03*
X0291000Y0152172D03*
X0291000Y0152222D03*
X0291000Y0152272D03*
X0291000Y0152322D03*
X0291000Y0152372D03*
D65*
X0308975Y0143422D03*
X0308975Y0143372D03*
X0308975Y0143322D03*
X0308975Y0143272D03*
X0308975Y0143222D03*
X0308975Y0143172D03*
X0308975Y0143122D03*
X0308975Y0143072D03*
X0308975Y0143022D03*
X0308975Y0142972D03*
X0308975Y0142922D03*
X0308975Y0142872D03*
X0308975Y0142822D03*
X0308975Y0142772D03*
X0308975Y0142722D03*
X0308975Y0142672D03*
X0308975Y0142622D03*
X0308975Y0142572D03*
X0308975Y0142522D03*
X0308975Y0142472D03*
X0308975Y0142422D03*
X0308975Y0142372D03*
X0308975Y0142322D03*
X0308975Y0142272D03*
X0308975Y0142222D03*
X0308975Y0142172D03*
X0308975Y0142122D03*
X0308975Y0142072D03*
X0308975Y0142022D03*
X0308975Y0141972D03*
X0308975Y0141922D03*
X0308975Y0141872D03*
X0308975Y0141822D03*
X0308975Y0141772D03*
X0308975Y0141722D03*
X0308975Y0141672D03*
X0308975Y0141622D03*
X0308975Y0141572D03*
X0308975Y0141522D03*
X0308975Y0141472D03*
X0308975Y0141422D03*
X0308975Y0141372D03*
X0308975Y0141322D03*
X0308975Y0141272D03*
X0308975Y0141222D03*
X0308975Y0141172D03*
X0308975Y0141122D03*
X0308975Y0141072D03*
X0308975Y0141022D03*
X0308975Y0140972D03*
X0308975Y0140922D03*
X0308975Y0140872D03*
X0308975Y0140822D03*
X0308975Y0140772D03*
X0308975Y0140722D03*
X0308975Y0140672D03*
X0308975Y0140622D03*
X0308975Y0140572D03*
X0308975Y0140522D03*
X0308975Y0140472D03*
X0308975Y0140422D03*
X0308975Y0140372D03*
X0308975Y0140322D03*
X0308975Y0140272D03*
X0308975Y0140222D03*
X0308975Y0140172D03*
X0308975Y0140122D03*
X0308975Y0140072D03*
X0308975Y0140022D03*
X0308975Y0139972D03*
X0308975Y0139922D03*
X0308975Y0139872D03*
X0308975Y0139822D03*
X0308975Y0139772D03*
X0308975Y0139722D03*
X0308975Y0139672D03*
X0308975Y0139622D03*
X0308975Y0139572D03*
X0308975Y0139522D03*
X0308975Y0139472D03*
X0308975Y0139422D03*
X0308975Y0139372D03*
X0308975Y0139322D03*
X0308975Y0139272D03*
X0308975Y0139222D03*
X0308975Y0139172D03*
X0308975Y0139122D03*
X0308975Y0139072D03*
X0308975Y0139022D03*
X0308975Y0138972D03*
X0308975Y0138922D03*
X0308975Y0138872D03*
D66*
X0308975Y0143472D03*
X0308975Y0143522D03*
X0308975Y0143572D03*
X0308975Y0143622D03*
X0308975Y0143672D03*
X0308975Y0143722D03*
X0308975Y0143772D03*
X0308975Y0143822D03*
X0308975Y0143872D03*
X0308975Y0143922D03*
X0308975Y0143972D03*
X0308975Y0144022D03*
X0308975Y0144072D03*
X0308975Y0144122D03*
X0308975Y0144172D03*
X0308975Y0144222D03*
X0308975Y0144272D03*
X0308975Y0144322D03*
X0308975Y0144372D03*
X0308975Y0144422D03*
X0308975Y0144472D03*
X0308975Y0144522D03*
X0308975Y0144572D03*
X0308975Y0144622D03*
X0308975Y0144672D03*
X0308975Y0144722D03*
X0308975Y0144772D03*
X0308975Y0144822D03*
X0308975Y0144872D03*
X0308975Y0144922D03*
X0308975Y0144972D03*
X0308975Y0145022D03*
X0308975Y0145072D03*
X0308975Y0145122D03*
X0308975Y0145172D03*
X0308975Y0145222D03*
X0308975Y0145272D03*
X0308975Y0145322D03*
X0308975Y0145372D03*
X0308975Y0145422D03*
X0308975Y0145472D03*
X0308975Y0145522D03*
X0308975Y0145572D03*
X0308975Y0145622D03*
X0308975Y0145672D03*
X0308975Y0145722D03*
X0308975Y0145772D03*
X0308975Y0145822D03*
X0308975Y0145872D03*
X0308975Y0145922D03*
X0308975Y0145972D03*
X0308975Y0146022D03*
X0308975Y0146072D03*
X0308975Y0146122D03*
X0308975Y0146172D03*
X0308975Y0146222D03*
X0308975Y0146272D03*
X0308975Y0146322D03*
X0308975Y0146372D03*
X0308975Y0146422D03*
X0308975Y0146472D03*
X0308975Y0146522D03*
X0308975Y0146572D03*
X0308975Y0146622D03*
X0308975Y0146672D03*
X0308975Y0146722D03*
X0308975Y0146772D03*
X0308975Y0146822D03*
X0308975Y0146872D03*
X0308975Y0146922D03*
X0308975Y0146972D03*
X0308975Y0147022D03*
X0308975Y0147072D03*
X0308975Y0147122D03*
X0308975Y0147172D03*
X0308975Y0147222D03*
X0308975Y0147272D03*
X0308975Y0147322D03*
X0308975Y0147372D03*
X0308975Y0147422D03*
X0308975Y0147472D03*
X0308975Y0147522D03*
X0308975Y0147572D03*
X0308975Y0147622D03*
X0308975Y0147672D03*
X0308975Y0147722D03*
X0308975Y0147772D03*
X0308975Y0147822D03*
X0308975Y0147872D03*
X0308975Y0147922D03*
X0308975Y0147972D03*
X0308975Y0148022D03*
X0308975Y0148072D03*
X0308975Y0148122D03*
X0308975Y0148172D03*
X0308975Y0148222D03*
X0308975Y0148272D03*
X0308975Y0148322D03*
X0308975Y0148372D03*
X0308975Y0148422D03*
X0308975Y0148472D03*
X0308975Y0148522D03*
X0308975Y0148572D03*
X0308975Y0148622D03*
X0308975Y0148672D03*
X0308975Y0148722D03*
X0308975Y0148772D03*
X0308975Y0148822D03*
X0308975Y0148872D03*
X0308975Y0148922D03*
X0308975Y0148972D03*
X0308975Y0149022D03*
X0308975Y0149072D03*
X0308975Y0149122D03*
X0308975Y0149172D03*
X0308975Y0149222D03*
X0308975Y0149272D03*
X0308975Y0149322D03*
X0308975Y0149372D03*
X0308975Y0149422D03*
X0308975Y0149472D03*
X0308975Y0149522D03*
X0308975Y0149572D03*
X0308975Y0149622D03*
X0308975Y0149672D03*
X0308975Y0149722D03*
X0308975Y0149772D03*
X0308975Y0149822D03*
X0308975Y0149872D03*
X0308975Y0149922D03*
X0308975Y0149972D03*
X0308975Y0150022D03*
X0308975Y0150072D03*
X0308975Y0150122D03*
X0308975Y0150172D03*
X0308975Y0150222D03*
X0308975Y0150272D03*
X0308975Y0150322D03*
X0308975Y0150372D03*
X0308975Y0150422D03*
X0308975Y0150472D03*
X0308975Y0150522D03*
X0308975Y0150572D03*
X0308975Y0150622D03*
X0308975Y0150672D03*
X0308975Y0150722D03*
X0308975Y0150772D03*
X0308975Y0150822D03*
X0308975Y0150872D03*
X0308975Y0150922D03*
X0308975Y0150972D03*
X0308975Y0151022D03*
X0308975Y0151072D03*
X0308975Y0151122D03*
X0308975Y0151172D03*
X0308975Y0151222D03*
X0308975Y0151272D03*
X0308975Y0151322D03*
X0308975Y0151372D03*
X0308975Y0151422D03*
X0308975Y0151472D03*
X0308975Y0151522D03*
X0308975Y0151572D03*
X0308975Y0151622D03*
X0308975Y0151672D03*
X0308975Y0151722D03*
X0308975Y0151772D03*
X0308975Y0151822D03*
X0308975Y0151872D03*
X0308975Y0151922D03*
X0308975Y0151972D03*
X0308975Y0152022D03*
X0308975Y0152072D03*
X0308975Y0152122D03*
X0308975Y0152172D03*
X0308975Y0152222D03*
X0308975Y0152272D03*
X0308975Y0152322D03*
X0308975Y0152372D03*
X0308975Y0152422D03*
X0308975Y0152472D03*
X0308975Y0152522D03*
X0308975Y0152572D03*
X0308975Y0152622D03*
X0308975Y0152672D03*
X0308975Y0152722D03*
X0308975Y0152772D03*
X0308975Y0152822D03*
X0308975Y0152872D03*
X0308975Y0152922D03*
X0308975Y0152972D03*
X0308975Y0153022D03*
X0308975Y0153072D03*
X0308975Y0153122D03*
X0308975Y0153172D03*
X0308975Y0153222D03*
X0308975Y0153272D03*
X0308975Y0153322D03*
X0308975Y0153372D03*
X0308975Y0153422D03*
X0308975Y0153472D03*
X0308975Y0153522D03*
X0308975Y0153572D03*
X0308975Y0153622D03*
X0308975Y0153672D03*
X0308975Y0153722D03*
X0308975Y0153772D03*
X0308975Y0153822D03*
X0308975Y0153872D03*
X0308975Y0153922D03*
X0308975Y0153972D03*
X0308975Y0154022D03*
X0308975Y0154072D03*
X0308975Y0154122D03*
X0308975Y0154172D03*
X0308975Y0154222D03*
X0308975Y0154272D03*
X0308975Y0154322D03*
X0308975Y0154372D03*
X0308975Y0154422D03*
X0308975Y0154472D03*
X0308975Y0154522D03*
X0308975Y0154572D03*
X0308975Y0154622D03*
X0308975Y0154672D03*
X0308975Y0154722D03*
X0308975Y0154772D03*
X0308975Y0154822D03*
X0308975Y0154872D03*
X0308975Y0154922D03*
X0308975Y0154972D03*
X0308975Y0155022D03*
X0308975Y0155072D03*
X0308975Y0155122D03*
X0308975Y0155172D03*
X0308975Y0155222D03*
X0308975Y0155272D03*
X0308975Y0155322D03*
X0308975Y0155372D03*
X0308975Y0155422D03*
X0308975Y0155472D03*
X0308975Y0155522D03*
X0308975Y0155572D03*
X0308975Y0155622D03*
X0308975Y0155672D03*
X0308975Y0155722D03*
X0308975Y0155772D03*
X0308975Y0155822D03*
X0308975Y0155872D03*
X0308975Y0155922D03*
X0308975Y0155972D03*
X0308975Y0156022D03*
X0308975Y0156072D03*
X0308975Y0156122D03*
X0308975Y0156172D03*
X0308975Y0156222D03*
X0308975Y0156272D03*
X0308975Y0156322D03*
X0308975Y0156372D03*
X0308975Y0156422D03*
X0308975Y0156472D03*
X0308975Y0156522D03*
X0308975Y0156572D03*
X0308975Y0156622D03*
X0308975Y0156672D03*
X0308975Y0156722D03*
X0308975Y0156772D03*
X0308975Y0156822D03*
X0308975Y0156872D03*
X0308975Y0156922D03*
X0308975Y0156972D03*
X0308975Y0157022D03*
X0308975Y0157072D03*
X0308975Y0157122D03*
X0308975Y0157172D03*
X0308975Y0157222D03*
X0308975Y0157272D03*
X0308975Y0157322D03*
X0308975Y0157372D03*
X0308975Y0157422D03*
X0308975Y0157472D03*
X0308975Y0157522D03*
X0308975Y0157572D03*
X0308975Y0157622D03*
X0308975Y0157672D03*
X0308975Y0157722D03*
X0308975Y0157772D03*
X0308975Y0157822D03*
X0308975Y0157872D03*
X0308975Y0157922D03*
X0308975Y0157972D03*
X0308975Y0158022D03*
X0308975Y0158072D03*
X0308975Y0158122D03*
X0308975Y0158172D03*
X0308975Y0158222D03*
X0308975Y0158272D03*
X0308975Y0158322D03*
X0308975Y0158372D03*
X0308975Y0158422D03*
X0308975Y0158472D03*
X0308975Y0158522D03*
X0308975Y0158572D03*
X0308975Y0158622D03*
X0308975Y0158672D03*
X0308975Y0158722D03*
X0308975Y0158772D03*
X0308975Y0158822D03*
X0308975Y0158872D03*
X0308975Y0158922D03*
X0308975Y0158972D03*
X0308975Y0159022D03*
X0308975Y0159072D03*
X0308975Y0159122D03*
X0308975Y0159172D03*
X0308975Y0159222D03*
X0308975Y0159272D03*
X0308975Y0159322D03*
X0308975Y0159372D03*
X0308975Y0159422D03*
X0308975Y0159472D03*
X0308975Y0159522D03*
X0308975Y0159572D03*
X0308975Y0159622D03*
X0308975Y0159672D03*
X0308975Y0159722D03*
X0308975Y0159772D03*
X0308975Y0159822D03*
X0308975Y0159872D03*
X0308975Y0159922D03*
X0308975Y0159972D03*
X0308975Y0160022D03*
X0308975Y0160072D03*
X0308975Y0160122D03*
X0308975Y0160172D03*
X0308975Y0160222D03*
X0308975Y0160272D03*
X0308975Y0160322D03*
X0308975Y0160372D03*
X0308975Y0160422D03*
X0308975Y0160472D03*
X0308975Y0160522D03*
X0308975Y0160572D03*
X0308975Y0160622D03*
X0308975Y0160672D03*
X0308975Y0160722D03*
X0308975Y0160772D03*
X0308975Y0160822D03*
X0308975Y0160872D03*
X0308975Y0160922D03*
X0308975Y0160972D03*
X0308975Y0161022D03*
X0308975Y0161072D03*
X0308975Y0161122D03*
X0308975Y0161172D03*
X0308975Y0161222D03*
X0308975Y0161272D03*
X0308975Y0161322D03*
X0299975Y0152372D03*
X0299975Y0152322D03*
X0299975Y0152272D03*
X0299975Y0152222D03*
X0299975Y0152172D03*
X0299975Y0152122D03*
X0299975Y0152072D03*
X0299975Y0152022D03*
X0299975Y0151972D03*
X0299975Y0151922D03*
X0299975Y0151872D03*
X0299975Y0151822D03*
X0299975Y0151772D03*
X0299975Y0151722D03*
X0299975Y0151672D03*
X0299975Y0151622D03*
X0299975Y0151572D03*
X0299975Y0151522D03*
X0299975Y0151472D03*
X0299975Y0151422D03*
X0299975Y0151372D03*
X0299975Y0151322D03*
X0299975Y0151272D03*
X0299975Y0151222D03*
X0299975Y0151172D03*
X0299975Y0151122D03*
X0299975Y0151072D03*
X0299975Y0151022D03*
X0299975Y0150972D03*
X0299975Y0150922D03*
X0299975Y0150872D03*
X0299975Y0150822D03*
X0299975Y0150772D03*
X0299975Y0150722D03*
X0299975Y0150672D03*
X0299975Y0150622D03*
X0299975Y0150572D03*
X0299975Y0150522D03*
X0299975Y0150472D03*
X0299975Y0150422D03*
X0299975Y0150372D03*
X0299975Y0150322D03*
X0299975Y0150272D03*
X0299975Y0150222D03*
X0299975Y0150172D03*
X0299975Y0150122D03*
X0299975Y0150072D03*
X0299975Y0150022D03*
X0299975Y0149972D03*
X0299975Y0149922D03*
X0299975Y0149872D03*
X0299975Y0149822D03*
X0299975Y0149772D03*
X0299975Y0149722D03*
X0299975Y0149672D03*
X0299975Y0149622D03*
X0299975Y0149572D03*
X0299975Y0149522D03*
X0299975Y0149472D03*
X0299975Y0149422D03*
X0299975Y0149372D03*
X0299975Y0149322D03*
X0299975Y0149272D03*
X0299975Y0149222D03*
X0299975Y0149172D03*
X0299975Y0149122D03*
X0299975Y0149072D03*
X0299975Y0149022D03*
X0299975Y0148972D03*
X0299975Y0148922D03*
X0299975Y0148872D03*
X0299975Y0148822D03*
X0299975Y0148772D03*
X0299975Y0148722D03*
X0299975Y0148672D03*
X0299975Y0148622D03*
X0299975Y0148572D03*
X0299975Y0148522D03*
X0299975Y0148472D03*
X0299975Y0148422D03*
X0299975Y0148372D03*
X0299975Y0148322D03*
X0299975Y0148272D03*
X0299975Y0148222D03*
X0299975Y0148172D03*
X0299975Y0148122D03*
X0299975Y0148072D03*
X0299975Y0148022D03*
X0299975Y0147972D03*
X0299975Y0147922D03*
X0299975Y0147872D03*
X0299975Y0147822D03*
X0299975Y0147772D03*
X0299975Y0147722D03*
X0299975Y0147672D03*
X0299975Y0147622D03*
X0299975Y0147572D03*
X0299975Y0147522D03*
X0299975Y0147472D03*
X0299975Y0147422D03*
X0299975Y0147372D03*
X0299975Y0147322D03*
X0299975Y0147272D03*
X0299975Y0147222D03*
X0299975Y0147172D03*
X0299975Y0147122D03*
X0299975Y0147072D03*
X0299975Y0147022D03*
X0299975Y0146972D03*
X0299975Y0146922D03*
X0299975Y0146872D03*
X0299975Y0146822D03*
X0299975Y0146772D03*
X0299975Y0146722D03*
X0299975Y0146672D03*
X0299975Y0146622D03*
X0299975Y0146572D03*
X0299975Y0146522D03*
X0299975Y0146472D03*
X0299975Y0146422D03*
X0299975Y0146372D03*
X0299975Y0146322D03*
X0299975Y0146272D03*
X0299975Y0146222D03*
X0299975Y0146172D03*
X0299975Y0146122D03*
X0299975Y0146072D03*
X0299975Y0146022D03*
X0299975Y0145972D03*
X0299975Y0145922D03*
X0299975Y0145872D03*
X0299975Y0145822D03*
X0299975Y0145772D03*
X0299975Y0145722D03*
X0299975Y0145672D03*
X0299975Y0145622D03*
X0299975Y0145572D03*
X0299975Y0145522D03*
X0299975Y0145472D03*
X0299975Y0145422D03*
X0299975Y0145372D03*
X0299975Y0145322D03*
X0299975Y0145272D03*
X0299975Y0145222D03*
X0299975Y0145172D03*
X0299975Y0145122D03*
X0299975Y0145072D03*
X0299975Y0145022D03*
X0299975Y0144972D03*
X0299975Y0144922D03*
X0299975Y0144872D03*
X0299975Y0144822D03*
X0299975Y0144772D03*
X0299975Y0144722D03*
X0299975Y0144672D03*
X0299975Y0144622D03*
X0299975Y0144572D03*
X0299975Y0144522D03*
X0299975Y0144472D03*
X0299975Y0144422D03*
X0299975Y0144372D03*
X0299975Y0144322D03*
X0299975Y0144272D03*
X0299975Y0144222D03*
X0299975Y0144172D03*
X0299975Y0144122D03*
X0299975Y0144072D03*
X0299975Y0144022D03*
X0299975Y0143972D03*
X0299975Y0143922D03*
X0299975Y0143872D03*
X0299975Y0143822D03*
X0299975Y0143772D03*
X0299975Y0143722D03*
X0299975Y0143672D03*
X0299975Y0143622D03*
X0299975Y0143572D03*
X0299975Y0143522D03*
X0299975Y0143472D03*
D67*
X0318025Y0143472D03*
X0318025Y0143522D03*
X0318025Y0143572D03*
X0318025Y0143622D03*
X0318025Y0143672D03*
X0318025Y0143722D03*
X0318025Y0143772D03*
X0318025Y0143822D03*
X0318025Y0143872D03*
X0318025Y0143922D03*
X0318025Y0143972D03*
X0318025Y0144022D03*
X0318025Y0144072D03*
X0318025Y0144122D03*
X0318025Y0144172D03*
X0318025Y0144222D03*
X0318025Y0144272D03*
X0318025Y0144322D03*
X0318025Y0144372D03*
X0318025Y0144422D03*
X0318025Y0144472D03*
X0318025Y0144522D03*
X0318025Y0144572D03*
X0318025Y0144622D03*
X0318025Y0144672D03*
X0318025Y0144722D03*
X0318025Y0144772D03*
X0318025Y0144822D03*
X0318025Y0144872D03*
X0318025Y0144922D03*
X0318025Y0144972D03*
X0318025Y0145022D03*
X0318025Y0145072D03*
X0318025Y0145122D03*
X0318025Y0145172D03*
X0318025Y0145222D03*
X0318025Y0145272D03*
X0318025Y0145322D03*
X0318025Y0145372D03*
X0318025Y0145422D03*
X0318025Y0145472D03*
X0318025Y0145522D03*
X0318025Y0145572D03*
X0318025Y0145622D03*
X0318025Y0145672D03*
X0318025Y0145722D03*
X0318025Y0145772D03*
X0318025Y0145822D03*
X0318025Y0145872D03*
X0318025Y0145922D03*
X0318025Y0145972D03*
X0318025Y0146022D03*
X0318025Y0146072D03*
X0318025Y0146122D03*
X0318025Y0146172D03*
X0318025Y0146222D03*
X0318025Y0146272D03*
X0318025Y0146322D03*
X0318025Y0146372D03*
X0318025Y0146422D03*
X0318025Y0146472D03*
X0318025Y0146522D03*
X0318025Y0146572D03*
X0318025Y0146622D03*
X0318025Y0146672D03*
X0318025Y0146722D03*
X0318025Y0146772D03*
X0318025Y0146822D03*
X0318025Y0146872D03*
X0318025Y0146922D03*
X0318025Y0146972D03*
X0318025Y0147022D03*
X0318025Y0147072D03*
X0318025Y0147122D03*
X0318025Y0147172D03*
X0318025Y0147222D03*
X0318025Y0147272D03*
X0318025Y0147322D03*
X0318025Y0147372D03*
X0318025Y0147422D03*
X0318025Y0147472D03*
X0318025Y0147522D03*
X0318025Y0147572D03*
X0318025Y0147622D03*
X0318025Y0147672D03*
X0318025Y0147722D03*
X0318025Y0147772D03*
X0318025Y0147822D03*
X0318025Y0147872D03*
X0318025Y0147922D03*
X0318025Y0147972D03*
X0318025Y0148022D03*
X0318025Y0148072D03*
X0318025Y0148122D03*
X0318025Y0148172D03*
X0318025Y0148222D03*
X0318025Y0148272D03*
X0318025Y0148322D03*
X0318025Y0148372D03*
X0318025Y0148422D03*
X0318025Y0148472D03*
X0318025Y0148522D03*
X0318025Y0148572D03*
X0318025Y0148622D03*
X0318025Y0148672D03*
X0318025Y0148722D03*
X0318025Y0148772D03*
X0318025Y0148822D03*
X0318025Y0148872D03*
X0318025Y0148922D03*
X0318025Y0148972D03*
X0318025Y0149022D03*
X0318025Y0149072D03*
X0318025Y0149122D03*
X0318025Y0149172D03*
X0318025Y0149222D03*
X0318025Y0149272D03*
X0318025Y0149322D03*
X0318025Y0149372D03*
X0318025Y0149422D03*
X0318025Y0149472D03*
X0318025Y0149522D03*
X0318025Y0149572D03*
X0318025Y0149622D03*
X0318025Y0149672D03*
X0318025Y0149722D03*
X0318025Y0149772D03*
X0318025Y0149822D03*
X0318025Y0149872D03*
X0318025Y0149922D03*
X0318025Y0149972D03*
X0318025Y0150022D03*
X0318025Y0150072D03*
X0318025Y0150122D03*
X0318025Y0150172D03*
X0318025Y0150222D03*
X0318025Y0150272D03*
X0318025Y0150322D03*
X0318025Y0150372D03*
X0318025Y0150422D03*
X0318025Y0150472D03*
X0318025Y0150522D03*
X0318025Y0150572D03*
X0318025Y0150622D03*
X0318025Y0150672D03*
X0318025Y0150722D03*
X0318025Y0150772D03*
X0318025Y0150822D03*
X0318025Y0150872D03*
X0318025Y0150922D03*
X0318025Y0150972D03*
X0318025Y0151022D03*
X0318025Y0151072D03*
X0318025Y0151122D03*
X0318025Y0151172D03*
X0318025Y0151222D03*
X0318025Y0151272D03*
X0318025Y0151322D03*
X0318025Y0151372D03*
X0318025Y0151422D03*
X0318025Y0151472D03*
X0318025Y0151522D03*
X0318025Y0151572D03*
X0318025Y0151622D03*
X0318025Y0151672D03*
X0318025Y0151722D03*
X0318025Y0151772D03*
X0318025Y0151822D03*
X0318025Y0151872D03*
X0318025Y0151922D03*
X0318025Y0151972D03*
X0318025Y0152022D03*
X0318025Y0152072D03*
X0318025Y0152122D03*
X0318025Y0152172D03*
X0318025Y0152222D03*
X0318025Y0152272D03*
X0318025Y0152322D03*
X0318025Y0152372D03*
X0318025Y0152422D03*
X0318025Y0152472D03*
X0318025Y0152522D03*
X0318025Y0152572D03*
X0318025Y0152622D03*
X0318025Y0152672D03*
X0318025Y0152722D03*
X0318025Y0152772D03*
X0318025Y0152822D03*
X0318025Y0152872D03*
X0318025Y0152922D03*
X0318025Y0152972D03*
X0318025Y0153022D03*
X0318025Y0153072D03*
X0318025Y0153122D03*
X0318025Y0153172D03*
X0318025Y0153222D03*
X0318025Y0153272D03*
X0318025Y0153322D03*
X0318025Y0153372D03*
X0318025Y0153422D03*
X0318025Y0153472D03*
X0318025Y0153522D03*
X0318025Y0153572D03*
X0318025Y0153622D03*
X0318025Y0153672D03*
X0318025Y0153722D03*
X0318025Y0153772D03*
X0318025Y0153822D03*
X0318025Y0153872D03*
X0318025Y0153922D03*
X0318025Y0153972D03*
X0318025Y0154022D03*
X0318025Y0154072D03*
X0318025Y0154122D03*
X0318025Y0154172D03*
X0318025Y0154222D03*
X0318025Y0154272D03*
X0318025Y0154322D03*
X0318025Y0154372D03*
X0318025Y0154422D03*
X0318025Y0154472D03*
X0318025Y0154522D03*
X0318025Y0154572D03*
X0318025Y0154622D03*
X0318025Y0154672D03*
X0318025Y0154722D03*
X0318025Y0154772D03*
X0318025Y0154822D03*
X0318025Y0154872D03*
X0318025Y0154922D03*
X0318025Y0154972D03*
X0318025Y0155022D03*
X0318025Y0155072D03*
X0318025Y0155122D03*
X0318025Y0155172D03*
X0318025Y0155222D03*
X0318025Y0155272D03*
X0318025Y0155322D03*
X0318025Y0155372D03*
X0318025Y0155422D03*
X0318025Y0155472D03*
X0318025Y0155522D03*
X0318025Y0155572D03*
X0318025Y0155622D03*
X0318025Y0155672D03*
X0318025Y0155722D03*
X0318025Y0155772D03*
X0318025Y0155822D03*
X0318025Y0155872D03*
X0318025Y0155922D03*
X0318025Y0155972D03*
X0318025Y0156022D03*
X0318025Y0156072D03*
X0318025Y0156122D03*
X0318025Y0156172D03*
X0318025Y0156222D03*
X0318025Y0156272D03*
X0318025Y0156322D03*
X0318025Y0156372D03*
X0318025Y0156422D03*
X0318025Y0156472D03*
X0318025Y0156522D03*
X0318025Y0156572D03*
X0318025Y0156622D03*
X0318025Y0156672D03*
X0318025Y0156722D03*
X0318025Y0156772D03*
X0318025Y0156822D03*
X0318025Y0156872D03*
X0318025Y0156922D03*
X0318025Y0156972D03*
X0318025Y0157022D03*
X0318025Y0157072D03*
X0318025Y0157122D03*
X0318025Y0157172D03*
X0318025Y0157222D03*
X0318025Y0157272D03*
X0318025Y0157322D03*
X0318025Y0157372D03*
X0318025Y0157422D03*
X0318025Y0157472D03*
X0318025Y0157522D03*
X0318025Y0157572D03*
X0318025Y0157622D03*
X0318025Y0157672D03*
X0318025Y0157722D03*
X0318025Y0157772D03*
X0318025Y0157822D03*
X0318025Y0157872D03*
X0318025Y0157922D03*
X0318025Y0157972D03*
X0318025Y0158022D03*
X0318025Y0158072D03*
X0318025Y0158122D03*
X0318025Y0158172D03*
X0318025Y0158222D03*
X0318025Y0158272D03*
X0318025Y0158322D03*
X0318025Y0158372D03*
X0318025Y0158422D03*
X0318025Y0158472D03*
X0318025Y0158522D03*
X0318025Y0158572D03*
X0318025Y0158622D03*
X0318025Y0158672D03*
X0318025Y0158722D03*
X0318025Y0158772D03*
X0318025Y0158822D03*
X0318025Y0158872D03*
X0318025Y0158922D03*
X0318025Y0158972D03*
X0318025Y0159022D03*
X0318025Y0159072D03*
X0318025Y0159122D03*
X0318025Y0159172D03*
X0318025Y0159222D03*
X0318025Y0159272D03*
X0318025Y0159322D03*
X0318025Y0159372D03*
X0318025Y0159422D03*
X0318025Y0159472D03*
X0318025Y0159522D03*
X0318025Y0159572D03*
X0318025Y0159622D03*
X0318025Y0159672D03*
X0318025Y0159722D03*
X0318025Y0159772D03*
X0318025Y0159822D03*
X0318025Y0159872D03*
X0318025Y0159922D03*
X0318025Y0159972D03*
X0318025Y0160022D03*
X0318025Y0160072D03*
X0318025Y0160122D03*
X0318025Y0160172D03*
X0318025Y0160222D03*
X0318025Y0160272D03*
X0318025Y0160322D03*
X0318025Y0160372D03*
X0318025Y0160422D03*
X0318025Y0160472D03*
X0318025Y0160522D03*
X0318025Y0160572D03*
X0318025Y0160622D03*
X0318025Y0160672D03*
X0318025Y0160722D03*
X0318025Y0160772D03*
X0318025Y0160822D03*
X0318025Y0160872D03*
X0318025Y0160922D03*
X0318025Y0160972D03*
X0318025Y0161022D03*
X0318025Y0161072D03*
X0318025Y0161122D03*
X0318025Y0161172D03*
X0318025Y0161222D03*
X0318025Y0161272D03*
X0318025Y0161322D03*
D68*
X0295475Y0156822D03*
D69*
X0295500Y0156872D03*
X0295500Y0156922D03*
X0295500Y0156972D03*
X0295500Y0157022D03*
X0295500Y0157072D03*
X0295500Y0157122D03*
X0295500Y0157172D03*
X0295500Y0157222D03*
X0295500Y0157272D03*
X0295500Y0157322D03*
X0295500Y0157372D03*
X0295500Y0157422D03*
X0295500Y0157472D03*
X0295500Y0157522D03*
X0295500Y0157572D03*
X0295500Y0157622D03*
X0295500Y0157672D03*
X0295500Y0157722D03*
X0295500Y0157772D03*
X0295500Y0157822D03*
X0295500Y0157872D03*
X0295500Y0157922D03*
X0295500Y0157972D03*
X0295500Y0158022D03*
X0295500Y0158072D03*
X0295500Y0158122D03*
X0295500Y0158172D03*
X0295500Y0158222D03*
X0295500Y0158272D03*
X0295500Y0158322D03*
X0295500Y0158372D03*
X0295500Y0158422D03*
X0295500Y0158472D03*
X0295500Y0158522D03*
X0295500Y0158572D03*
X0295500Y0158622D03*
X0295500Y0158672D03*
X0295500Y0158722D03*
X0295500Y0158772D03*
X0295500Y0158822D03*
X0295500Y0158872D03*
X0295500Y0158922D03*
X0295500Y0158972D03*
X0295500Y0159022D03*
X0295500Y0159072D03*
X0295500Y0159122D03*
X0295500Y0159172D03*
X0295500Y0159222D03*
X0295500Y0159272D03*
X0295500Y0159322D03*
X0295500Y0159372D03*
X0295500Y0159422D03*
X0295500Y0159472D03*
X0295500Y0159522D03*
X0295500Y0159572D03*
X0295500Y0159622D03*
X0295500Y0159672D03*
X0295500Y0159722D03*
X0295500Y0159772D03*
X0295500Y0159822D03*
X0295500Y0159872D03*
X0295500Y0159922D03*
X0295500Y0159972D03*
X0295500Y0160022D03*
X0295500Y0160072D03*
X0295500Y0160122D03*
X0295500Y0160172D03*
X0295500Y0160222D03*
X0295500Y0160272D03*
X0295500Y0160322D03*
X0295500Y0160372D03*
X0295500Y0160422D03*
X0295500Y0160472D03*
X0295500Y0160522D03*
X0295500Y0160572D03*
X0295500Y0160622D03*
X0295500Y0160672D03*
X0295500Y0160722D03*
X0295500Y0160772D03*
X0295500Y0160822D03*
X0295500Y0160872D03*
X0295500Y0160922D03*
X0295500Y0160972D03*
X0295500Y0161022D03*
X0295500Y0161072D03*
X0295500Y0161122D03*
X0295500Y0161172D03*
X0295500Y0161222D03*
X0295500Y0161272D03*
X0295500Y0161322D03*
M02*
