G75*
%MOIN*%
%OFA0B0*%
%FSLAX25Y25*%
%IPPOS*%
%LPD*%
%AMOC8*
5,1,8,0,0,1.08239X$1,22.5*
%
%ADD10C,0.00000*%
%ADD11R,0.03937X0.04331*%
D10*
X0099925Y0001500D02*
X0001500Y0171972D01*
X0099925Y0342445D01*
X0296776Y0342445D01*
X0395201Y0171972D01*
X0296776Y0001500D01*
X0099925Y0001500D01*
X0100909Y0015134D02*
X0100911Y0015303D01*
X0100917Y0015472D01*
X0100928Y0015641D01*
X0100942Y0015809D01*
X0100961Y0015977D01*
X0100984Y0016145D01*
X0101010Y0016312D01*
X0101041Y0016478D01*
X0101076Y0016644D01*
X0101115Y0016808D01*
X0101159Y0016972D01*
X0101206Y0017134D01*
X0101257Y0017295D01*
X0101312Y0017455D01*
X0101371Y0017614D01*
X0101433Y0017771D01*
X0101500Y0017926D01*
X0101571Y0018080D01*
X0101645Y0018232D01*
X0101723Y0018382D01*
X0101804Y0018530D01*
X0101889Y0018676D01*
X0101978Y0018820D01*
X0102070Y0018962D01*
X0102166Y0019101D01*
X0102265Y0019238D01*
X0102367Y0019373D01*
X0102473Y0019505D01*
X0102582Y0019634D01*
X0102694Y0019761D01*
X0102809Y0019885D01*
X0102927Y0020006D01*
X0103048Y0020124D01*
X0103172Y0020239D01*
X0103299Y0020351D01*
X0103428Y0020460D01*
X0103560Y0020566D01*
X0103695Y0020668D01*
X0103832Y0020767D01*
X0103971Y0020863D01*
X0104113Y0020955D01*
X0104257Y0021044D01*
X0104403Y0021129D01*
X0104551Y0021210D01*
X0104701Y0021288D01*
X0104853Y0021362D01*
X0105007Y0021433D01*
X0105162Y0021500D01*
X0105319Y0021562D01*
X0105478Y0021621D01*
X0105638Y0021676D01*
X0105799Y0021727D01*
X0105961Y0021774D01*
X0106125Y0021818D01*
X0106289Y0021857D01*
X0106455Y0021892D01*
X0106621Y0021923D01*
X0106788Y0021949D01*
X0106956Y0021972D01*
X0107124Y0021991D01*
X0107292Y0022005D01*
X0107461Y0022016D01*
X0107630Y0022022D01*
X0107799Y0022024D01*
X0107968Y0022022D01*
X0108137Y0022016D01*
X0108306Y0022005D01*
X0108474Y0021991D01*
X0108642Y0021972D01*
X0108810Y0021949D01*
X0108977Y0021923D01*
X0109143Y0021892D01*
X0109309Y0021857D01*
X0109473Y0021818D01*
X0109637Y0021774D01*
X0109799Y0021727D01*
X0109960Y0021676D01*
X0110120Y0021621D01*
X0110279Y0021562D01*
X0110436Y0021500D01*
X0110591Y0021433D01*
X0110745Y0021362D01*
X0110897Y0021288D01*
X0111047Y0021210D01*
X0111195Y0021129D01*
X0111341Y0021044D01*
X0111485Y0020955D01*
X0111627Y0020863D01*
X0111766Y0020767D01*
X0111903Y0020668D01*
X0112038Y0020566D01*
X0112170Y0020460D01*
X0112299Y0020351D01*
X0112426Y0020239D01*
X0112550Y0020124D01*
X0112671Y0020006D01*
X0112789Y0019885D01*
X0112904Y0019761D01*
X0113016Y0019634D01*
X0113125Y0019505D01*
X0113231Y0019373D01*
X0113333Y0019238D01*
X0113432Y0019101D01*
X0113528Y0018962D01*
X0113620Y0018820D01*
X0113709Y0018676D01*
X0113794Y0018530D01*
X0113875Y0018382D01*
X0113953Y0018232D01*
X0114027Y0018080D01*
X0114098Y0017926D01*
X0114165Y0017771D01*
X0114227Y0017614D01*
X0114286Y0017455D01*
X0114341Y0017295D01*
X0114392Y0017134D01*
X0114439Y0016972D01*
X0114483Y0016808D01*
X0114522Y0016644D01*
X0114557Y0016478D01*
X0114588Y0016312D01*
X0114614Y0016145D01*
X0114637Y0015977D01*
X0114656Y0015809D01*
X0114670Y0015641D01*
X0114681Y0015472D01*
X0114687Y0015303D01*
X0114689Y0015134D01*
X0114687Y0014965D01*
X0114681Y0014796D01*
X0114670Y0014627D01*
X0114656Y0014459D01*
X0114637Y0014291D01*
X0114614Y0014123D01*
X0114588Y0013956D01*
X0114557Y0013790D01*
X0114522Y0013624D01*
X0114483Y0013460D01*
X0114439Y0013296D01*
X0114392Y0013134D01*
X0114341Y0012973D01*
X0114286Y0012813D01*
X0114227Y0012654D01*
X0114165Y0012497D01*
X0114098Y0012342D01*
X0114027Y0012188D01*
X0113953Y0012036D01*
X0113875Y0011886D01*
X0113794Y0011738D01*
X0113709Y0011592D01*
X0113620Y0011448D01*
X0113528Y0011306D01*
X0113432Y0011167D01*
X0113333Y0011030D01*
X0113231Y0010895D01*
X0113125Y0010763D01*
X0113016Y0010634D01*
X0112904Y0010507D01*
X0112789Y0010383D01*
X0112671Y0010262D01*
X0112550Y0010144D01*
X0112426Y0010029D01*
X0112299Y0009917D01*
X0112170Y0009808D01*
X0112038Y0009702D01*
X0111903Y0009600D01*
X0111766Y0009501D01*
X0111627Y0009405D01*
X0111485Y0009313D01*
X0111341Y0009224D01*
X0111195Y0009139D01*
X0111047Y0009058D01*
X0110897Y0008980D01*
X0110745Y0008906D01*
X0110591Y0008835D01*
X0110436Y0008768D01*
X0110279Y0008706D01*
X0110120Y0008647D01*
X0109960Y0008592D01*
X0109799Y0008541D01*
X0109637Y0008494D01*
X0109473Y0008450D01*
X0109309Y0008411D01*
X0109143Y0008376D01*
X0108977Y0008345D01*
X0108810Y0008319D01*
X0108642Y0008296D01*
X0108474Y0008277D01*
X0108306Y0008263D01*
X0108137Y0008252D01*
X0107968Y0008246D01*
X0107799Y0008244D01*
X0107630Y0008246D01*
X0107461Y0008252D01*
X0107292Y0008263D01*
X0107124Y0008277D01*
X0106956Y0008296D01*
X0106788Y0008319D01*
X0106621Y0008345D01*
X0106455Y0008376D01*
X0106289Y0008411D01*
X0106125Y0008450D01*
X0105961Y0008494D01*
X0105799Y0008541D01*
X0105638Y0008592D01*
X0105478Y0008647D01*
X0105319Y0008706D01*
X0105162Y0008768D01*
X0105007Y0008835D01*
X0104853Y0008906D01*
X0104701Y0008980D01*
X0104551Y0009058D01*
X0104403Y0009139D01*
X0104257Y0009224D01*
X0104113Y0009313D01*
X0103971Y0009405D01*
X0103832Y0009501D01*
X0103695Y0009600D01*
X0103560Y0009702D01*
X0103428Y0009808D01*
X0103299Y0009917D01*
X0103172Y0010029D01*
X0103048Y0010144D01*
X0102927Y0010262D01*
X0102809Y0010383D01*
X0102694Y0010507D01*
X0102582Y0010634D01*
X0102473Y0010763D01*
X0102367Y0010895D01*
X0102265Y0011030D01*
X0102166Y0011167D01*
X0102070Y0011306D01*
X0101978Y0011448D01*
X0101889Y0011592D01*
X0101804Y0011738D01*
X0101723Y0011886D01*
X0101645Y0012036D01*
X0101571Y0012188D01*
X0101500Y0012342D01*
X0101433Y0012497D01*
X0101371Y0012654D01*
X0101312Y0012813D01*
X0101257Y0012973D01*
X0101206Y0013134D01*
X0101159Y0013296D01*
X0101115Y0013460D01*
X0101076Y0013624D01*
X0101041Y0013790D01*
X0101010Y0013956D01*
X0100984Y0014123D01*
X0100961Y0014291D01*
X0100942Y0014459D01*
X0100928Y0014627D01*
X0100917Y0014796D01*
X0100911Y0014965D01*
X0100909Y0015134D01*
X0010358Y0171972D02*
X0010360Y0172141D01*
X0010366Y0172310D01*
X0010377Y0172479D01*
X0010391Y0172647D01*
X0010410Y0172815D01*
X0010433Y0172983D01*
X0010459Y0173150D01*
X0010490Y0173316D01*
X0010525Y0173482D01*
X0010564Y0173646D01*
X0010608Y0173810D01*
X0010655Y0173972D01*
X0010706Y0174133D01*
X0010761Y0174293D01*
X0010820Y0174452D01*
X0010882Y0174609D01*
X0010949Y0174764D01*
X0011020Y0174918D01*
X0011094Y0175070D01*
X0011172Y0175220D01*
X0011253Y0175368D01*
X0011338Y0175514D01*
X0011427Y0175658D01*
X0011519Y0175800D01*
X0011615Y0175939D01*
X0011714Y0176076D01*
X0011816Y0176211D01*
X0011922Y0176343D01*
X0012031Y0176472D01*
X0012143Y0176599D01*
X0012258Y0176723D01*
X0012376Y0176844D01*
X0012497Y0176962D01*
X0012621Y0177077D01*
X0012748Y0177189D01*
X0012877Y0177298D01*
X0013009Y0177404D01*
X0013144Y0177506D01*
X0013281Y0177605D01*
X0013420Y0177701D01*
X0013562Y0177793D01*
X0013706Y0177882D01*
X0013852Y0177967D01*
X0014000Y0178048D01*
X0014150Y0178126D01*
X0014302Y0178200D01*
X0014456Y0178271D01*
X0014611Y0178338D01*
X0014768Y0178400D01*
X0014927Y0178459D01*
X0015087Y0178514D01*
X0015248Y0178565D01*
X0015410Y0178612D01*
X0015574Y0178656D01*
X0015738Y0178695D01*
X0015904Y0178730D01*
X0016070Y0178761D01*
X0016237Y0178787D01*
X0016405Y0178810D01*
X0016573Y0178829D01*
X0016741Y0178843D01*
X0016910Y0178854D01*
X0017079Y0178860D01*
X0017248Y0178862D01*
X0017417Y0178860D01*
X0017586Y0178854D01*
X0017755Y0178843D01*
X0017923Y0178829D01*
X0018091Y0178810D01*
X0018259Y0178787D01*
X0018426Y0178761D01*
X0018592Y0178730D01*
X0018758Y0178695D01*
X0018922Y0178656D01*
X0019086Y0178612D01*
X0019248Y0178565D01*
X0019409Y0178514D01*
X0019569Y0178459D01*
X0019728Y0178400D01*
X0019885Y0178338D01*
X0020040Y0178271D01*
X0020194Y0178200D01*
X0020346Y0178126D01*
X0020496Y0178048D01*
X0020644Y0177967D01*
X0020790Y0177882D01*
X0020934Y0177793D01*
X0021076Y0177701D01*
X0021215Y0177605D01*
X0021352Y0177506D01*
X0021487Y0177404D01*
X0021619Y0177298D01*
X0021748Y0177189D01*
X0021875Y0177077D01*
X0021999Y0176962D01*
X0022120Y0176844D01*
X0022238Y0176723D01*
X0022353Y0176599D01*
X0022465Y0176472D01*
X0022574Y0176343D01*
X0022680Y0176211D01*
X0022782Y0176076D01*
X0022881Y0175939D01*
X0022977Y0175800D01*
X0023069Y0175658D01*
X0023158Y0175514D01*
X0023243Y0175368D01*
X0023324Y0175220D01*
X0023402Y0175070D01*
X0023476Y0174918D01*
X0023547Y0174764D01*
X0023614Y0174609D01*
X0023676Y0174452D01*
X0023735Y0174293D01*
X0023790Y0174133D01*
X0023841Y0173972D01*
X0023888Y0173810D01*
X0023932Y0173646D01*
X0023971Y0173482D01*
X0024006Y0173316D01*
X0024037Y0173150D01*
X0024063Y0172983D01*
X0024086Y0172815D01*
X0024105Y0172647D01*
X0024119Y0172479D01*
X0024130Y0172310D01*
X0024136Y0172141D01*
X0024138Y0171972D01*
X0024136Y0171803D01*
X0024130Y0171634D01*
X0024119Y0171465D01*
X0024105Y0171297D01*
X0024086Y0171129D01*
X0024063Y0170961D01*
X0024037Y0170794D01*
X0024006Y0170628D01*
X0023971Y0170462D01*
X0023932Y0170298D01*
X0023888Y0170134D01*
X0023841Y0169972D01*
X0023790Y0169811D01*
X0023735Y0169651D01*
X0023676Y0169492D01*
X0023614Y0169335D01*
X0023547Y0169180D01*
X0023476Y0169026D01*
X0023402Y0168874D01*
X0023324Y0168724D01*
X0023243Y0168576D01*
X0023158Y0168430D01*
X0023069Y0168286D01*
X0022977Y0168144D01*
X0022881Y0168005D01*
X0022782Y0167868D01*
X0022680Y0167733D01*
X0022574Y0167601D01*
X0022465Y0167472D01*
X0022353Y0167345D01*
X0022238Y0167221D01*
X0022120Y0167100D01*
X0021999Y0166982D01*
X0021875Y0166867D01*
X0021748Y0166755D01*
X0021619Y0166646D01*
X0021487Y0166540D01*
X0021352Y0166438D01*
X0021215Y0166339D01*
X0021076Y0166243D01*
X0020934Y0166151D01*
X0020790Y0166062D01*
X0020644Y0165977D01*
X0020496Y0165896D01*
X0020346Y0165818D01*
X0020194Y0165744D01*
X0020040Y0165673D01*
X0019885Y0165606D01*
X0019728Y0165544D01*
X0019569Y0165485D01*
X0019409Y0165430D01*
X0019248Y0165379D01*
X0019086Y0165332D01*
X0018922Y0165288D01*
X0018758Y0165249D01*
X0018592Y0165214D01*
X0018426Y0165183D01*
X0018259Y0165157D01*
X0018091Y0165134D01*
X0017923Y0165115D01*
X0017755Y0165101D01*
X0017586Y0165090D01*
X0017417Y0165084D01*
X0017248Y0165082D01*
X0017079Y0165084D01*
X0016910Y0165090D01*
X0016741Y0165101D01*
X0016573Y0165115D01*
X0016405Y0165134D01*
X0016237Y0165157D01*
X0016070Y0165183D01*
X0015904Y0165214D01*
X0015738Y0165249D01*
X0015574Y0165288D01*
X0015410Y0165332D01*
X0015248Y0165379D01*
X0015087Y0165430D01*
X0014927Y0165485D01*
X0014768Y0165544D01*
X0014611Y0165606D01*
X0014456Y0165673D01*
X0014302Y0165744D01*
X0014150Y0165818D01*
X0014000Y0165896D01*
X0013852Y0165977D01*
X0013706Y0166062D01*
X0013562Y0166151D01*
X0013420Y0166243D01*
X0013281Y0166339D01*
X0013144Y0166438D01*
X0013009Y0166540D01*
X0012877Y0166646D01*
X0012748Y0166755D01*
X0012621Y0166867D01*
X0012497Y0166982D01*
X0012376Y0167100D01*
X0012258Y0167221D01*
X0012143Y0167345D01*
X0012031Y0167472D01*
X0011922Y0167601D01*
X0011816Y0167733D01*
X0011714Y0167868D01*
X0011615Y0168005D01*
X0011519Y0168144D01*
X0011427Y0168286D01*
X0011338Y0168430D01*
X0011253Y0168576D01*
X0011172Y0168724D01*
X0011094Y0168874D01*
X0011020Y0169026D01*
X0010949Y0169180D01*
X0010882Y0169335D01*
X0010820Y0169492D01*
X0010761Y0169651D01*
X0010706Y0169811D01*
X0010655Y0169972D01*
X0010608Y0170134D01*
X0010564Y0170298D01*
X0010525Y0170462D01*
X0010490Y0170628D01*
X0010459Y0170794D01*
X0010433Y0170961D01*
X0010410Y0171129D01*
X0010391Y0171297D01*
X0010377Y0171465D01*
X0010366Y0171634D01*
X0010360Y0171803D01*
X0010358Y0171972D01*
X0100909Y0328811D02*
X0100911Y0328980D01*
X0100917Y0329149D01*
X0100928Y0329318D01*
X0100942Y0329486D01*
X0100961Y0329654D01*
X0100984Y0329822D01*
X0101010Y0329989D01*
X0101041Y0330155D01*
X0101076Y0330321D01*
X0101115Y0330485D01*
X0101159Y0330649D01*
X0101206Y0330811D01*
X0101257Y0330972D01*
X0101312Y0331132D01*
X0101371Y0331291D01*
X0101433Y0331448D01*
X0101500Y0331603D01*
X0101571Y0331757D01*
X0101645Y0331909D01*
X0101723Y0332059D01*
X0101804Y0332207D01*
X0101889Y0332353D01*
X0101978Y0332497D01*
X0102070Y0332639D01*
X0102166Y0332778D01*
X0102265Y0332915D01*
X0102367Y0333050D01*
X0102473Y0333182D01*
X0102582Y0333311D01*
X0102694Y0333438D01*
X0102809Y0333562D01*
X0102927Y0333683D01*
X0103048Y0333801D01*
X0103172Y0333916D01*
X0103299Y0334028D01*
X0103428Y0334137D01*
X0103560Y0334243D01*
X0103695Y0334345D01*
X0103832Y0334444D01*
X0103971Y0334540D01*
X0104113Y0334632D01*
X0104257Y0334721D01*
X0104403Y0334806D01*
X0104551Y0334887D01*
X0104701Y0334965D01*
X0104853Y0335039D01*
X0105007Y0335110D01*
X0105162Y0335177D01*
X0105319Y0335239D01*
X0105478Y0335298D01*
X0105638Y0335353D01*
X0105799Y0335404D01*
X0105961Y0335451D01*
X0106125Y0335495D01*
X0106289Y0335534D01*
X0106455Y0335569D01*
X0106621Y0335600D01*
X0106788Y0335626D01*
X0106956Y0335649D01*
X0107124Y0335668D01*
X0107292Y0335682D01*
X0107461Y0335693D01*
X0107630Y0335699D01*
X0107799Y0335701D01*
X0107968Y0335699D01*
X0108137Y0335693D01*
X0108306Y0335682D01*
X0108474Y0335668D01*
X0108642Y0335649D01*
X0108810Y0335626D01*
X0108977Y0335600D01*
X0109143Y0335569D01*
X0109309Y0335534D01*
X0109473Y0335495D01*
X0109637Y0335451D01*
X0109799Y0335404D01*
X0109960Y0335353D01*
X0110120Y0335298D01*
X0110279Y0335239D01*
X0110436Y0335177D01*
X0110591Y0335110D01*
X0110745Y0335039D01*
X0110897Y0334965D01*
X0111047Y0334887D01*
X0111195Y0334806D01*
X0111341Y0334721D01*
X0111485Y0334632D01*
X0111627Y0334540D01*
X0111766Y0334444D01*
X0111903Y0334345D01*
X0112038Y0334243D01*
X0112170Y0334137D01*
X0112299Y0334028D01*
X0112426Y0333916D01*
X0112550Y0333801D01*
X0112671Y0333683D01*
X0112789Y0333562D01*
X0112904Y0333438D01*
X0113016Y0333311D01*
X0113125Y0333182D01*
X0113231Y0333050D01*
X0113333Y0332915D01*
X0113432Y0332778D01*
X0113528Y0332639D01*
X0113620Y0332497D01*
X0113709Y0332353D01*
X0113794Y0332207D01*
X0113875Y0332059D01*
X0113953Y0331909D01*
X0114027Y0331757D01*
X0114098Y0331603D01*
X0114165Y0331448D01*
X0114227Y0331291D01*
X0114286Y0331132D01*
X0114341Y0330972D01*
X0114392Y0330811D01*
X0114439Y0330649D01*
X0114483Y0330485D01*
X0114522Y0330321D01*
X0114557Y0330155D01*
X0114588Y0329989D01*
X0114614Y0329822D01*
X0114637Y0329654D01*
X0114656Y0329486D01*
X0114670Y0329318D01*
X0114681Y0329149D01*
X0114687Y0328980D01*
X0114689Y0328811D01*
X0114687Y0328642D01*
X0114681Y0328473D01*
X0114670Y0328304D01*
X0114656Y0328136D01*
X0114637Y0327968D01*
X0114614Y0327800D01*
X0114588Y0327633D01*
X0114557Y0327467D01*
X0114522Y0327301D01*
X0114483Y0327137D01*
X0114439Y0326973D01*
X0114392Y0326811D01*
X0114341Y0326650D01*
X0114286Y0326490D01*
X0114227Y0326331D01*
X0114165Y0326174D01*
X0114098Y0326019D01*
X0114027Y0325865D01*
X0113953Y0325713D01*
X0113875Y0325563D01*
X0113794Y0325415D01*
X0113709Y0325269D01*
X0113620Y0325125D01*
X0113528Y0324983D01*
X0113432Y0324844D01*
X0113333Y0324707D01*
X0113231Y0324572D01*
X0113125Y0324440D01*
X0113016Y0324311D01*
X0112904Y0324184D01*
X0112789Y0324060D01*
X0112671Y0323939D01*
X0112550Y0323821D01*
X0112426Y0323706D01*
X0112299Y0323594D01*
X0112170Y0323485D01*
X0112038Y0323379D01*
X0111903Y0323277D01*
X0111766Y0323178D01*
X0111627Y0323082D01*
X0111485Y0322990D01*
X0111341Y0322901D01*
X0111195Y0322816D01*
X0111047Y0322735D01*
X0110897Y0322657D01*
X0110745Y0322583D01*
X0110591Y0322512D01*
X0110436Y0322445D01*
X0110279Y0322383D01*
X0110120Y0322324D01*
X0109960Y0322269D01*
X0109799Y0322218D01*
X0109637Y0322171D01*
X0109473Y0322127D01*
X0109309Y0322088D01*
X0109143Y0322053D01*
X0108977Y0322022D01*
X0108810Y0321996D01*
X0108642Y0321973D01*
X0108474Y0321954D01*
X0108306Y0321940D01*
X0108137Y0321929D01*
X0107968Y0321923D01*
X0107799Y0321921D01*
X0107630Y0321923D01*
X0107461Y0321929D01*
X0107292Y0321940D01*
X0107124Y0321954D01*
X0106956Y0321973D01*
X0106788Y0321996D01*
X0106621Y0322022D01*
X0106455Y0322053D01*
X0106289Y0322088D01*
X0106125Y0322127D01*
X0105961Y0322171D01*
X0105799Y0322218D01*
X0105638Y0322269D01*
X0105478Y0322324D01*
X0105319Y0322383D01*
X0105162Y0322445D01*
X0105007Y0322512D01*
X0104853Y0322583D01*
X0104701Y0322657D01*
X0104551Y0322735D01*
X0104403Y0322816D01*
X0104257Y0322901D01*
X0104113Y0322990D01*
X0103971Y0323082D01*
X0103832Y0323178D01*
X0103695Y0323277D01*
X0103560Y0323379D01*
X0103428Y0323485D01*
X0103299Y0323594D01*
X0103172Y0323706D01*
X0103048Y0323821D01*
X0102927Y0323939D01*
X0102809Y0324060D01*
X0102694Y0324184D01*
X0102582Y0324311D01*
X0102473Y0324440D01*
X0102367Y0324572D01*
X0102265Y0324707D01*
X0102166Y0324844D01*
X0102070Y0324983D01*
X0101978Y0325125D01*
X0101889Y0325269D01*
X0101804Y0325415D01*
X0101723Y0325563D01*
X0101645Y0325713D01*
X0101571Y0325865D01*
X0101500Y0326019D01*
X0101433Y0326174D01*
X0101371Y0326331D01*
X0101312Y0326490D01*
X0101257Y0326650D01*
X0101206Y0326811D01*
X0101159Y0326973D01*
X0101115Y0327137D01*
X0101076Y0327301D01*
X0101041Y0327467D01*
X0101010Y0327633D01*
X0100984Y0327800D01*
X0100961Y0327968D01*
X0100942Y0328136D01*
X0100928Y0328304D01*
X0100917Y0328473D01*
X0100911Y0328642D01*
X0100909Y0328811D01*
X0282012Y0328811D02*
X0282014Y0328980D01*
X0282020Y0329149D01*
X0282031Y0329318D01*
X0282045Y0329486D01*
X0282064Y0329654D01*
X0282087Y0329822D01*
X0282113Y0329989D01*
X0282144Y0330155D01*
X0282179Y0330321D01*
X0282218Y0330485D01*
X0282262Y0330649D01*
X0282309Y0330811D01*
X0282360Y0330972D01*
X0282415Y0331132D01*
X0282474Y0331291D01*
X0282536Y0331448D01*
X0282603Y0331603D01*
X0282674Y0331757D01*
X0282748Y0331909D01*
X0282826Y0332059D01*
X0282907Y0332207D01*
X0282992Y0332353D01*
X0283081Y0332497D01*
X0283173Y0332639D01*
X0283269Y0332778D01*
X0283368Y0332915D01*
X0283470Y0333050D01*
X0283576Y0333182D01*
X0283685Y0333311D01*
X0283797Y0333438D01*
X0283912Y0333562D01*
X0284030Y0333683D01*
X0284151Y0333801D01*
X0284275Y0333916D01*
X0284402Y0334028D01*
X0284531Y0334137D01*
X0284663Y0334243D01*
X0284798Y0334345D01*
X0284935Y0334444D01*
X0285074Y0334540D01*
X0285216Y0334632D01*
X0285360Y0334721D01*
X0285506Y0334806D01*
X0285654Y0334887D01*
X0285804Y0334965D01*
X0285956Y0335039D01*
X0286110Y0335110D01*
X0286265Y0335177D01*
X0286422Y0335239D01*
X0286581Y0335298D01*
X0286741Y0335353D01*
X0286902Y0335404D01*
X0287064Y0335451D01*
X0287228Y0335495D01*
X0287392Y0335534D01*
X0287558Y0335569D01*
X0287724Y0335600D01*
X0287891Y0335626D01*
X0288059Y0335649D01*
X0288227Y0335668D01*
X0288395Y0335682D01*
X0288564Y0335693D01*
X0288733Y0335699D01*
X0288902Y0335701D01*
X0289071Y0335699D01*
X0289240Y0335693D01*
X0289409Y0335682D01*
X0289577Y0335668D01*
X0289745Y0335649D01*
X0289913Y0335626D01*
X0290080Y0335600D01*
X0290246Y0335569D01*
X0290412Y0335534D01*
X0290576Y0335495D01*
X0290740Y0335451D01*
X0290902Y0335404D01*
X0291063Y0335353D01*
X0291223Y0335298D01*
X0291382Y0335239D01*
X0291539Y0335177D01*
X0291694Y0335110D01*
X0291848Y0335039D01*
X0292000Y0334965D01*
X0292150Y0334887D01*
X0292298Y0334806D01*
X0292444Y0334721D01*
X0292588Y0334632D01*
X0292730Y0334540D01*
X0292869Y0334444D01*
X0293006Y0334345D01*
X0293141Y0334243D01*
X0293273Y0334137D01*
X0293402Y0334028D01*
X0293529Y0333916D01*
X0293653Y0333801D01*
X0293774Y0333683D01*
X0293892Y0333562D01*
X0294007Y0333438D01*
X0294119Y0333311D01*
X0294228Y0333182D01*
X0294334Y0333050D01*
X0294436Y0332915D01*
X0294535Y0332778D01*
X0294631Y0332639D01*
X0294723Y0332497D01*
X0294812Y0332353D01*
X0294897Y0332207D01*
X0294978Y0332059D01*
X0295056Y0331909D01*
X0295130Y0331757D01*
X0295201Y0331603D01*
X0295268Y0331448D01*
X0295330Y0331291D01*
X0295389Y0331132D01*
X0295444Y0330972D01*
X0295495Y0330811D01*
X0295542Y0330649D01*
X0295586Y0330485D01*
X0295625Y0330321D01*
X0295660Y0330155D01*
X0295691Y0329989D01*
X0295717Y0329822D01*
X0295740Y0329654D01*
X0295759Y0329486D01*
X0295773Y0329318D01*
X0295784Y0329149D01*
X0295790Y0328980D01*
X0295792Y0328811D01*
X0295790Y0328642D01*
X0295784Y0328473D01*
X0295773Y0328304D01*
X0295759Y0328136D01*
X0295740Y0327968D01*
X0295717Y0327800D01*
X0295691Y0327633D01*
X0295660Y0327467D01*
X0295625Y0327301D01*
X0295586Y0327137D01*
X0295542Y0326973D01*
X0295495Y0326811D01*
X0295444Y0326650D01*
X0295389Y0326490D01*
X0295330Y0326331D01*
X0295268Y0326174D01*
X0295201Y0326019D01*
X0295130Y0325865D01*
X0295056Y0325713D01*
X0294978Y0325563D01*
X0294897Y0325415D01*
X0294812Y0325269D01*
X0294723Y0325125D01*
X0294631Y0324983D01*
X0294535Y0324844D01*
X0294436Y0324707D01*
X0294334Y0324572D01*
X0294228Y0324440D01*
X0294119Y0324311D01*
X0294007Y0324184D01*
X0293892Y0324060D01*
X0293774Y0323939D01*
X0293653Y0323821D01*
X0293529Y0323706D01*
X0293402Y0323594D01*
X0293273Y0323485D01*
X0293141Y0323379D01*
X0293006Y0323277D01*
X0292869Y0323178D01*
X0292730Y0323082D01*
X0292588Y0322990D01*
X0292444Y0322901D01*
X0292298Y0322816D01*
X0292150Y0322735D01*
X0292000Y0322657D01*
X0291848Y0322583D01*
X0291694Y0322512D01*
X0291539Y0322445D01*
X0291382Y0322383D01*
X0291223Y0322324D01*
X0291063Y0322269D01*
X0290902Y0322218D01*
X0290740Y0322171D01*
X0290576Y0322127D01*
X0290412Y0322088D01*
X0290246Y0322053D01*
X0290080Y0322022D01*
X0289913Y0321996D01*
X0289745Y0321973D01*
X0289577Y0321954D01*
X0289409Y0321940D01*
X0289240Y0321929D01*
X0289071Y0321923D01*
X0288902Y0321921D01*
X0288733Y0321923D01*
X0288564Y0321929D01*
X0288395Y0321940D01*
X0288227Y0321954D01*
X0288059Y0321973D01*
X0287891Y0321996D01*
X0287724Y0322022D01*
X0287558Y0322053D01*
X0287392Y0322088D01*
X0287228Y0322127D01*
X0287064Y0322171D01*
X0286902Y0322218D01*
X0286741Y0322269D01*
X0286581Y0322324D01*
X0286422Y0322383D01*
X0286265Y0322445D01*
X0286110Y0322512D01*
X0285956Y0322583D01*
X0285804Y0322657D01*
X0285654Y0322735D01*
X0285506Y0322816D01*
X0285360Y0322901D01*
X0285216Y0322990D01*
X0285074Y0323082D01*
X0284935Y0323178D01*
X0284798Y0323277D01*
X0284663Y0323379D01*
X0284531Y0323485D01*
X0284402Y0323594D01*
X0284275Y0323706D01*
X0284151Y0323821D01*
X0284030Y0323939D01*
X0283912Y0324060D01*
X0283797Y0324184D01*
X0283685Y0324311D01*
X0283576Y0324440D01*
X0283470Y0324572D01*
X0283368Y0324707D01*
X0283269Y0324844D01*
X0283173Y0324983D01*
X0283081Y0325125D01*
X0282992Y0325269D01*
X0282907Y0325415D01*
X0282826Y0325563D01*
X0282748Y0325713D01*
X0282674Y0325865D01*
X0282603Y0326019D01*
X0282536Y0326174D01*
X0282474Y0326331D01*
X0282415Y0326490D01*
X0282360Y0326650D01*
X0282309Y0326811D01*
X0282262Y0326973D01*
X0282218Y0327137D01*
X0282179Y0327301D01*
X0282144Y0327467D01*
X0282113Y0327633D01*
X0282087Y0327800D01*
X0282064Y0327968D01*
X0282045Y0328136D01*
X0282031Y0328304D01*
X0282020Y0328473D01*
X0282014Y0328642D01*
X0282012Y0328811D01*
X0372563Y0171972D02*
X0372565Y0172141D01*
X0372571Y0172310D01*
X0372582Y0172479D01*
X0372596Y0172647D01*
X0372615Y0172815D01*
X0372638Y0172983D01*
X0372664Y0173150D01*
X0372695Y0173316D01*
X0372730Y0173482D01*
X0372769Y0173646D01*
X0372813Y0173810D01*
X0372860Y0173972D01*
X0372911Y0174133D01*
X0372966Y0174293D01*
X0373025Y0174452D01*
X0373087Y0174609D01*
X0373154Y0174764D01*
X0373225Y0174918D01*
X0373299Y0175070D01*
X0373377Y0175220D01*
X0373458Y0175368D01*
X0373543Y0175514D01*
X0373632Y0175658D01*
X0373724Y0175800D01*
X0373820Y0175939D01*
X0373919Y0176076D01*
X0374021Y0176211D01*
X0374127Y0176343D01*
X0374236Y0176472D01*
X0374348Y0176599D01*
X0374463Y0176723D01*
X0374581Y0176844D01*
X0374702Y0176962D01*
X0374826Y0177077D01*
X0374953Y0177189D01*
X0375082Y0177298D01*
X0375214Y0177404D01*
X0375349Y0177506D01*
X0375486Y0177605D01*
X0375625Y0177701D01*
X0375767Y0177793D01*
X0375911Y0177882D01*
X0376057Y0177967D01*
X0376205Y0178048D01*
X0376355Y0178126D01*
X0376507Y0178200D01*
X0376661Y0178271D01*
X0376816Y0178338D01*
X0376973Y0178400D01*
X0377132Y0178459D01*
X0377292Y0178514D01*
X0377453Y0178565D01*
X0377615Y0178612D01*
X0377779Y0178656D01*
X0377943Y0178695D01*
X0378109Y0178730D01*
X0378275Y0178761D01*
X0378442Y0178787D01*
X0378610Y0178810D01*
X0378778Y0178829D01*
X0378946Y0178843D01*
X0379115Y0178854D01*
X0379284Y0178860D01*
X0379453Y0178862D01*
X0379622Y0178860D01*
X0379791Y0178854D01*
X0379960Y0178843D01*
X0380128Y0178829D01*
X0380296Y0178810D01*
X0380464Y0178787D01*
X0380631Y0178761D01*
X0380797Y0178730D01*
X0380963Y0178695D01*
X0381127Y0178656D01*
X0381291Y0178612D01*
X0381453Y0178565D01*
X0381614Y0178514D01*
X0381774Y0178459D01*
X0381933Y0178400D01*
X0382090Y0178338D01*
X0382245Y0178271D01*
X0382399Y0178200D01*
X0382551Y0178126D01*
X0382701Y0178048D01*
X0382849Y0177967D01*
X0382995Y0177882D01*
X0383139Y0177793D01*
X0383281Y0177701D01*
X0383420Y0177605D01*
X0383557Y0177506D01*
X0383692Y0177404D01*
X0383824Y0177298D01*
X0383953Y0177189D01*
X0384080Y0177077D01*
X0384204Y0176962D01*
X0384325Y0176844D01*
X0384443Y0176723D01*
X0384558Y0176599D01*
X0384670Y0176472D01*
X0384779Y0176343D01*
X0384885Y0176211D01*
X0384987Y0176076D01*
X0385086Y0175939D01*
X0385182Y0175800D01*
X0385274Y0175658D01*
X0385363Y0175514D01*
X0385448Y0175368D01*
X0385529Y0175220D01*
X0385607Y0175070D01*
X0385681Y0174918D01*
X0385752Y0174764D01*
X0385819Y0174609D01*
X0385881Y0174452D01*
X0385940Y0174293D01*
X0385995Y0174133D01*
X0386046Y0173972D01*
X0386093Y0173810D01*
X0386137Y0173646D01*
X0386176Y0173482D01*
X0386211Y0173316D01*
X0386242Y0173150D01*
X0386268Y0172983D01*
X0386291Y0172815D01*
X0386310Y0172647D01*
X0386324Y0172479D01*
X0386335Y0172310D01*
X0386341Y0172141D01*
X0386343Y0171972D01*
X0386341Y0171803D01*
X0386335Y0171634D01*
X0386324Y0171465D01*
X0386310Y0171297D01*
X0386291Y0171129D01*
X0386268Y0170961D01*
X0386242Y0170794D01*
X0386211Y0170628D01*
X0386176Y0170462D01*
X0386137Y0170298D01*
X0386093Y0170134D01*
X0386046Y0169972D01*
X0385995Y0169811D01*
X0385940Y0169651D01*
X0385881Y0169492D01*
X0385819Y0169335D01*
X0385752Y0169180D01*
X0385681Y0169026D01*
X0385607Y0168874D01*
X0385529Y0168724D01*
X0385448Y0168576D01*
X0385363Y0168430D01*
X0385274Y0168286D01*
X0385182Y0168144D01*
X0385086Y0168005D01*
X0384987Y0167868D01*
X0384885Y0167733D01*
X0384779Y0167601D01*
X0384670Y0167472D01*
X0384558Y0167345D01*
X0384443Y0167221D01*
X0384325Y0167100D01*
X0384204Y0166982D01*
X0384080Y0166867D01*
X0383953Y0166755D01*
X0383824Y0166646D01*
X0383692Y0166540D01*
X0383557Y0166438D01*
X0383420Y0166339D01*
X0383281Y0166243D01*
X0383139Y0166151D01*
X0382995Y0166062D01*
X0382849Y0165977D01*
X0382701Y0165896D01*
X0382551Y0165818D01*
X0382399Y0165744D01*
X0382245Y0165673D01*
X0382090Y0165606D01*
X0381933Y0165544D01*
X0381774Y0165485D01*
X0381614Y0165430D01*
X0381453Y0165379D01*
X0381291Y0165332D01*
X0381127Y0165288D01*
X0380963Y0165249D01*
X0380797Y0165214D01*
X0380631Y0165183D01*
X0380464Y0165157D01*
X0380296Y0165134D01*
X0380128Y0165115D01*
X0379960Y0165101D01*
X0379791Y0165090D01*
X0379622Y0165084D01*
X0379453Y0165082D01*
X0379284Y0165084D01*
X0379115Y0165090D01*
X0378946Y0165101D01*
X0378778Y0165115D01*
X0378610Y0165134D01*
X0378442Y0165157D01*
X0378275Y0165183D01*
X0378109Y0165214D01*
X0377943Y0165249D01*
X0377779Y0165288D01*
X0377615Y0165332D01*
X0377453Y0165379D01*
X0377292Y0165430D01*
X0377132Y0165485D01*
X0376973Y0165544D01*
X0376816Y0165606D01*
X0376661Y0165673D01*
X0376507Y0165744D01*
X0376355Y0165818D01*
X0376205Y0165896D01*
X0376057Y0165977D01*
X0375911Y0166062D01*
X0375767Y0166151D01*
X0375625Y0166243D01*
X0375486Y0166339D01*
X0375349Y0166438D01*
X0375214Y0166540D01*
X0375082Y0166646D01*
X0374953Y0166755D01*
X0374826Y0166867D01*
X0374702Y0166982D01*
X0374581Y0167100D01*
X0374463Y0167221D01*
X0374348Y0167345D01*
X0374236Y0167472D01*
X0374127Y0167601D01*
X0374021Y0167733D01*
X0373919Y0167868D01*
X0373820Y0168005D01*
X0373724Y0168144D01*
X0373632Y0168286D01*
X0373543Y0168430D01*
X0373458Y0168576D01*
X0373377Y0168724D01*
X0373299Y0168874D01*
X0373225Y0169026D01*
X0373154Y0169180D01*
X0373087Y0169335D01*
X0373025Y0169492D01*
X0372966Y0169651D01*
X0372911Y0169811D01*
X0372860Y0169972D01*
X0372813Y0170134D01*
X0372769Y0170298D01*
X0372730Y0170462D01*
X0372695Y0170628D01*
X0372664Y0170794D01*
X0372638Y0170961D01*
X0372615Y0171129D01*
X0372596Y0171297D01*
X0372582Y0171465D01*
X0372571Y0171634D01*
X0372565Y0171803D01*
X0372563Y0171972D01*
X0282012Y0015134D02*
X0282014Y0015303D01*
X0282020Y0015472D01*
X0282031Y0015641D01*
X0282045Y0015809D01*
X0282064Y0015977D01*
X0282087Y0016145D01*
X0282113Y0016312D01*
X0282144Y0016478D01*
X0282179Y0016644D01*
X0282218Y0016808D01*
X0282262Y0016972D01*
X0282309Y0017134D01*
X0282360Y0017295D01*
X0282415Y0017455D01*
X0282474Y0017614D01*
X0282536Y0017771D01*
X0282603Y0017926D01*
X0282674Y0018080D01*
X0282748Y0018232D01*
X0282826Y0018382D01*
X0282907Y0018530D01*
X0282992Y0018676D01*
X0283081Y0018820D01*
X0283173Y0018962D01*
X0283269Y0019101D01*
X0283368Y0019238D01*
X0283470Y0019373D01*
X0283576Y0019505D01*
X0283685Y0019634D01*
X0283797Y0019761D01*
X0283912Y0019885D01*
X0284030Y0020006D01*
X0284151Y0020124D01*
X0284275Y0020239D01*
X0284402Y0020351D01*
X0284531Y0020460D01*
X0284663Y0020566D01*
X0284798Y0020668D01*
X0284935Y0020767D01*
X0285074Y0020863D01*
X0285216Y0020955D01*
X0285360Y0021044D01*
X0285506Y0021129D01*
X0285654Y0021210D01*
X0285804Y0021288D01*
X0285956Y0021362D01*
X0286110Y0021433D01*
X0286265Y0021500D01*
X0286422Y0021562D01*
X0286581Y0021621D01*
X0286741Y0021676D01*
X0286902Y0021727D01*
X0287064Y0021774D01*
X0287228Y0021818D01*
X0287392Y0021857D01*
X0287558Y0021892D01*
X0287724Y0021923D01*
X0287891Y0021949D01*
X0288059Y0021972D01*
X0288227Y0021991D01*
X0288395Y0022005D01*
X0288564Y0022016D01*
X0288733Y0022022D01*
X0288902Y0022024D01*
X0289071Y0022022D01*
X0289240Y0022016D01*
X0289409Y0022005D01*
X0289577Y0021991D01*
X0289745Y0021972D01*
X0289913Y0021949D01*
X0290080Y0021923D01*
X0290246Y0021892D01*
X0290412Y0021857D01*
X0290576Y0021818D01*
X0290740Y0021774D01*
X0290902Y0021727D01*
X0291063Y0021676D01*
X0291223Y0021621D01*
X0291382Y0021562D01*
X0291539Y0021500D01*
X0291694Y0021433D01*
X0291848Y0021362D01*
X0292000Y0021288D01*
X0292150Y0021210D01*
X0292298Y0021129D01*
X0292444Y0021044D01*
X0292588Y0020955D01*
X0292730Y0020863D01*
X0292869Y0020767D01*
X0293006Y0020668D01*
X0293141Y0020566D01*
X0293273Y0020460D01*
X0293402Y0020351D01*
X0293529Y0020239D01*
X0293653Y0020124D01*
X0293774Y0020006D01*
X0293892Y0019885D01*
X0294007Y0019761D01*
X0294119Y0019634D01*
X0294228Y0019505D01*
X0294334Y0019373D01*
X0294436Y0019238D01*
X0294535Y0019101D01*
X0294631Y0018962D01*
X0294723Y0018820D01*
X0294812Y0018676D01*
X0294897Y0018530D01*
X0294978Y0018382D01*
X0295056Y0018232D01*
X0295130Y0018080D01*
X0295201Y0017926D01*
X0295268Y0017771D01*
X0295330Y0017614D01*
X0295389Y0017455D01*
X0295444Y0017295D01*
X0295495Y0017134D01*
X0295542Y0016972D01*
X0295586Y0016808D01*
X0295625Y0016644D01*
X0295660Y0016478D01*
X0295691Y0016312D01*
X0295717Y0016145D01*
X0295740Y0015977D01*
X0295759Y0015809D01*
X0295773Y0015641D01*
X0295784Y0015472D01*
X0295790Y0015303D01*
X0295792Y0015134D01*
X0295790Y0014965D01*
X0295784Y0014796D01*
X0295773Y0014627D01*
X0295759Y0014459D01*
X0295740Y0014291D01*
X0295717Y0014123D01*
X0295691Y0013956D01*
X0295660Y0013790D01*
X0295625Y0013624D01*
X0295586Y0013460D01*
X0295542Y0013296D01*
X0295495Y0013134D01*
X0295444Y0012973D01*
X0295389Y0012813D01*
X0295330Y0012654D01*
X0295268Y0012497D01*
X0295201Y0012342D01*
X0295130Y0012188D01*
X0295056Y0012036D01*
X0294978Y0011886D01*
X0294897Y0011738D01*
X0294812Y0011592D01*
X0294723Y0011448D01*
X0294631Y0011306D01*
X0294535Y0011167D01*
X0294436Y0011030D01*
X0294334Y0010895D01*
X0294228Y0010763D01*
X0294119Y0010634D01*
X0294007Y0010507D01*
X0293892Y0010383D01*
X0293774Y0010262D01*
X0293653Y0010144D01*
X0293529Y0010029D01*
X0293402Y0009917D01*
X0293273Y0009808D01*
X0293141Y0009702D01*
X0293006Y0009600D01*
X0292869Y0009501D01*
X0292730Y0009405D01*
X0292588Y0009313D01*
X0292444Y0009224D01*
X0292298Y0009139D01*
X0292150Y0009058D01*
X0292000Y0008980D01*
X0291848Y0008906D01*
X0291694Y0008835D01*
X0291539Y0008768D01*
X0291382Y0008706D01*
X0291223Y0008647D01*
X0291063Y0008592D01*
X0290902Y0008541D01*
X0290740Y0008494D01*
X0290576Y0008450D01*
X0290412Y0008411D01*
X0290246Y0008376D01*
X0290080Y0008345D01*
X0289913Y0008319D01*
X0289745Y0008296D01*
X0289577Y0008277D01*
X0289409Y0008263D01*
X0289240Y0008252D01*
X0289071Y0008246D01*
X0288902Y0008244D01*
X0288733Y0008246D01*
X0288564Y0008252D01*
X0288395Y0008263D01*
X0288227Y0008277D01*
X0288059Y0008296D01*
X0287891Y0008319D01*
X0287724Y0008345D01*
X0287558Y0008376D01*
X0287392Y0008411D01*
X0287228Y0008450D01*
X0287064Y0008494D01*
X0286902Y0008541D01*
X0286741Y0008592D01*
X0286581Y0008647D01*
X0286422Y0008706D01*
X0286265Y0008768D01*
X0286110Y0008835D01*
X0285956Y0008906D01*
X0285804Y0008980D01*
X0285654Y0009058D01*
X0285506Y0009139D01*
X0285360Y0009224D01*
X0285216Y0009313D01*
X0285074Y0009405D01*
X0284935Y0009501D01*
X0284798Y0009600D01*
X0284663Y0009702D01*
X0284531Y0009808D01*
X0284402Y0009917D01*
X0284275Y0010029D01*
X0284151Y0010144D01*
X0284030Y0010262D01*
X0283912Y0010383D01*
X0283797Y0010507D01*
X0283685Y0010634D01*
X0283576Y0010763D01*
X0283470Y0010895D01*
X0283368Y0011030D01*
X0283269Y0011167D01*
X0283173Y0011306D01*
X0283081Y0011448D01*
X0282992Y0011592D01*
X0282907Y0011738D01*
X0282826Y0011886D01*
X0282748Y0012036D01*
X0282674Y0012188D01*
X0282603Y0012342D01*
X0282536Y0012497D01*
X0282474Y0012654D01*
X0282415Y0012813D01*
X0282360Y0012973D01*
X0282309Y0013134D01*
X0282262Y0013296D01*
X0282218Y0013460D01*
X0282179Y0013624D01*
X0282144Y0013790D01*
X0282113Y0013956D01*
X0282087Y0014123D01*
X0282064Y0014291D01*
X0282045Y0014459D01*
X0282031Y0014627D01*
X0282020Y0014796D01*
X0282014Y0014965D01*
X0282012Y0015134D01*
D11*
X0140157Y0127953D03*
X0133858Y0127953D03*
M02*
