%
M48
M72
T01C0.01200
T02C0.04921
T03C0.05512
T04C0.13780
%
T01
X91750Y52872
X130750Y62372
X133750Y43872
X136750Y84122
X133750Y90122
X130750Y96122
X141250Y101122
X146500Y104372
X151750Y104122
X155500Y103622
X158000Y100622
X165250Y104622
X169000Y100372
X171750Y104122
X179500Y109372
X185000Y117372
X189250Y117122
X194500Y115872
X196750Y119372
X196000Y124622
X191500Y124622
X190400Y127822
X198000Y131122
X201500Y126122
X210000Y129372
X217500Y126122
X217750Y133122
X223500Y136622
X222200Y141922
X235750Y123122
X231250Y116622
X226250Y117122
X215250Y119372
X210750Y106122
X212000Y103122
X210500Y99372
X206500Y99372
X200250Y100622
X207750Y92372
X207750Y88872
X207750Y85372
X207750Y82122
X207750Y78872
X213250Y78872
X213250Y82122
X213250Y85372
X213250Y88872
X213250Y92372
X219250Y92372
X219250Y88872
X219250Y85372
X219250Y82122
X219250Y78872
X225250Y73872
X225500Y68622
X228500Y68622
X221750Y68372
X217500Y68622
X216750Y71122
X212500Y66372
X209500Y66372
X205250Y66122
X207500Y70622
X201000Y84872
X197000Y88622
X182750Y98872
X165000Y92122
X144750Y86622
X116250Y95872
X116500Y104372
X105750Y98622
X100750Y94122
X84250Y119872
X68750Y135872
X90500Y141622
X102500Y133122
X110500Y133122
X115500Y136622
X119750Y134122
X122500Y137122
X115750Y150122
X124500Y157872
X121750Y158622
X121500Y173122
X109000Y173622
X96250Y171722
X96250Y166872
X84000Y167622
X83250Y174872
X91000Y181872
X106750Y189372
X116900Y194472
X119000Y196872
X121750Y192122
X130250Y186372
X138500Y182122
X147500Y180122
X145000Y170622
X150000Y167872
X159000Y158372
X160000Y155622
X162850Y155972
X163000Y153122
X165750Y151122
X166250Y148322
X167500Y144872
X171250Y143872
X171500Y140872
X176000Y142372
X179500Y138622
X176750Y133122
X172750Y130122
X156250Y116872
X148000Y123372
X142250Y123122
X137500Y123122
X139750Y132372
X135000Y135122
X145500Y134122
X151500Y146622
X149500Y151122
X137000Y172372
X139250Y191872
X154500Y204972
X157750Y197372
X160000Y192372
X159500Y189122
X164000Y189622
X175400Y200172
X171750Y204022
X178500Y205622
X181500Y209622
X185750Y212872
X184750Y219622
X179750Y219622
X174100Y210872
X167000Y211372
X153500Y215122
X141250Y214872
X129750Y213372
X121500Y214122
X119500Y210372
X112000Y212122
X109000Y212122
X109000Y215622
X112000Y215622
X112000Y219122
X109000Y219122
X109000Y222622
X112000Y222622
X118750Y226622
X119500Y223872
X121500Y220372
X123500Y229622
X131250Y235872
X129500Y244372
X124000Y246622
X113500Y245622
X109250Y245872
X100000Y254372
X86000Y251122
X94250Y229372
X97000Y230622
X100000Y231122
X102750Y230372
X106250Y230122
X110250Y230122
X105250Y222622
X105250Y219122
X105250Y215622
X105250Y212122
X101750Y212122
X98500Y212122
X98500Y215622
X101750Y215622
X101750Y219122
X98500Y219122
X98500Y222622
X101750Y222622
X91500Y226872
X88750Y224622
X89500Y219372
X90250Y212872
X90250Y207622
X96000Y203622
X107750Y201372
X114000Y199872
X110200Y206222
X73000Y215122
X74250Y188372
X60500Y179372
X56500Y183122
X58500Y187122
X59500Y170872
X38000Y155372
X27250Y160372
X22750Y153122
X43750Y207122
X104250Y151122
X61750Y90622
X177500Y74622
X180500Y57872
X183000Y57872
X197750Y51122
X209500Y42622
X212000Y43872
X216750Y43622
X219500Y43622
X224250Y50122
X228000Y49872
X213750Y49622
X226250Y32122
X229250Y29372
X252250Y43622
X268750Y51872
X247500Y72372
X243750Y72122
X241000Y76372
X241750Y81622
X232750Y76872
X238500Y94872
X238750Y100122
X249500Y96372
X252250Y101122
X250000Y103372
X255000Y98622
X251500Y90872
X252000Y75872
X227500Y100872
X219750Y101122
X216750Y100122
X244500Y116122
X243500Y128622
X247000Y131372
X261250Y139622
X262000Y147872
X245000Y149622
X240500Y159622
X242250Y166622
X248250Y166372
X251750Y171622
X258250Y170872
X264500Y165872
X252500Y178872
X242000Y185622
X244750Y189122
X241250Y194122
X235000Y189372
X238000Y185122
X232750Y194872
X237500Y207622
X224250Y211122
X215250Y220122
X209000Y220622
X215500Y232122
X231000Y227372
X238500Y234622
X251500Y235372
X255750Y234872
X256750Y239622
X255500Y242622
X272500Y230622
X276800Y235622
X281500Y236122
X285000Y236372
X289500Y237372
X293250Y234872
X296250Y234622
X298500Y236872
X299250Y231622
X302200Y225722
X304500Y220522
X310750Y215872
X315250Y207372
X320500Y217372
X309500Y229122
X304500Y245622
X299000Y247122
X301500Y253122
X294500Y253372
X287750Y255622
X287750Y250622
X281750Y247372
X273000Y255372
X283000Y262122
X266000Y270372
X250000Y265372
X250250Y259372
X253000Y283372
X280500Y285872
X277750Y299122
X222250Y310622
X223000Y280372
X184500Y282622
X178250Y277622
X179750Y298122
X185000Y309622
X153000Y286622
X143000Y278622
X124250Y262372
X121500Y270622
X114000Y268872
X142750Y247622
X150500Y247872
X161000Y254722
X173500Y251622
X149500Y230122
X146500Y231872
X194000Y218122
X239000Y175122
X249750Y197622
X249500Y200622
X257750Y202372
X257750Y207372
X269750Y217622
X272750Y215622
X273250Y219372
X271000Y223372
X263750Y221622
X280000Y222622
X283500Y222622
X286750Y222622
X290250Y222622
X293500Y222622
X293500Y228122
X290250Y228122
X286750Y228122
X283500Y228122
X280000Y228122
X280000Y216622
X283500Y216622
X286750Y216622
X290250Y216622
X293500Y216622
X286750Y209872
X291250Y203622
X293500Y201122
X284000Y201372
X272000Y202122
X275200Y190022
X281000Y175622
X299000Y170622
X306500Y188122
X346750Y174372
X316500Y122622
X305500Y112122
X307500Y104622
X287250Y101622
X275750Y114872
X268500Y117372
X269250Y122372
X263000Y127122
X281250Y125122
X300250Y80622
X180250Y30622
X335000Y230122
T02
X84657Y146622
X74657Y146622
X64539Y146622
X54539Y146622
X44539Y146622
X34500Y146622
T03
X180685Y335543
X200370Y335543
X220055Y335543
T04
X288902Y328811
X379453Y171972
X288902Y15134
X107799Y15134
X17248Y171972
X107799Y328811
M30
