G75*
%MOIN*%
%OFA0B0*%
%FSLAX25Y25*%
%IPPOS*%
%LPD*%
%AMOC8*
5,1,8,0,0,1.08239X$1,22.5*
%
%ADD10C,0.00000*%
%ADD11R,0.03937X0.03150*%
%ADD12R,0.07382X0.07382*%
%ADD13C,0.07382*%
%ADD14R,0.03937X0.08268*%
%ADD15C,0.00039*%
%ADD16C,0.02000*%
%ADD17C,0.00800*%
%ADD18C,0.03750*%
%ADD19C,0.00100*%
%ADD20C,0.03000*%
%ADD21C,0.00300*%
%ADD22C,0.04500*%
%ADD23C,0.02400*%
%ADD24C,0.01600*%
%ADD25C,0.01000*%
%ADD26C,0.03543*%
D10*
X0027595Y0028433D02*
X0027595Y0113433D01*
X0125595Y0113433D01*
X0125595Y0023433D01*
X0032595Y0023433D01*
X0027595Y0028433D01*
D11*
X0045085Y0041079D03*
X0045085Y0046787D03*
X0057965Y0047737D03*
X0057965Y0042029D03*
X0095595Y0066579D03*
X0095595Y0072287D03*
X0108595Y0072287D03*
X0108595Y0066579D03*
X0057595Y0091579D03*
X0057595Y0097287D03*
D12*
X0032595Y0103433D03*
X0082595Y0103433D03*
X0119595Y0034433D03*
D13*
X0109595Y0034433D03*
X0099595Y0034433D03*
X0099595Y0044433D03*
X0109595Y0044433D03*
X0119595Y0044433D03*
X0082595Y0043276D03*
X0082595Y0053276D03*
X0082595Y0063276D03*
X0082595Y0073394D03*
X0082595Y0083394D03*
X0082595Y0093394D03*
X0032595Y0093394D03*
X0032595Y0083394D03*
X0032595Y0073394D03*
X0032595Y0063276D03*
X0032595Y0053276D03*
X0032595Y0043276D03*
X0032595Y0033276D03*
X0082595Y0033276D03*
D14*
X0100690Y0089559D03*
X0106595Y0089559D03*
X0112501Y0089559D03*
D15*
X0108564Y0093693D02*
X0104627Y0093693D01*
X0102068Y0096449D01*
X0102068Y0102551D01*
X0105020Y0106094D01*
X0108170Y0106094D01*
X0111123Y0102551D01*
X0111123Y0096449D01*
X0108564Y0093693D01*
X0104627Y0093693D01*
X0102068Y0096449D01*
X0102068Y0102551D01*
X0105020Y0106094D01*
X0108170Y0106094D01*
X0111123Y0102551D01*
X0111123Y0096449D01*
X0108564Y0093693D01*
X0108573Y0093703D02*
X0104617Y0093703D01*
X0104582Y0093741D02*
X0108608Y0093741D01*
X0108643Y0093779D02*
X0104547Y0093779D01*
X0104512Y0093817D02*
X0108679Y0093817D01*
X0108714Y0093855D02*
X0104477Y0093855D01*
X0104441Y0093892D02*
X0108749Y0093892D01*
X0108784Y0093930D02*
X0104406Y0093930D01*
X0104371Y0093968D02*
X0108819Y0093968D01*
X0108854Y0094006D02*
X0104336Y0094006D01*
X0104301Y0094044D02*
X0108890Y0094044D01*
X0108925Y0094082D02*
X0104265Y0094082D01*
X0104230Y0094120D02*
X0108960Y0094120D01*
X0108995Y0094158D02*
X0104195Y0094158D01*
X0104160Y0094196D02*
X0109030Y0094196D01*
X0109066Y0094233D02*
X0104125Y0094233D01*
X0104090Y0094271D02*
X0109101Y0094271D01*
X0109136Y0094309D02*
X0104054Y0094309D01*
X0104019Y0094347D02*
X0109171Y0094347D01*
X0109206Y0094385D02*
X0103984Y0094385D01*
X0103949Y0094423D02*
X0109241Y0094423D01*
X0109277Y0094461D02*
X0103914Y0094461D01*
X0103879Y0094499D02*
X0109312Y0094499D01*
X0109347Y0094536D02*
X0103843Y0094536D01*
X0103808Y0094574D02*
X0109382Y0094574D01*
X0109417Y0094612D02*
X0103773Y0094612D01*
X0103738Y0094650D02*
X0109452Y0094650D01*
X0109488Y0094688D02*
X0103703Y0094688D01*
X0103667Y0094726D02*
X0109523Y0094726D01*
X0109558Y0094764D02*
X0103632Y0094764D01*
X0103597Y0094802D02*
X0109593Y0094802D01*
X0109628Y0094840D02*
X0103562Y0094840D01*
X0103527Y0094877D02*
X0109664Y0094877D01*
X0109699Y0094915D02*
X0103492Y0094915D01*
X0103456Y0094953D02*
X0109734Y0094953D01*
X0109769Y0094991D02*
X0103421Y0094991D01*
X0103386Y0095029D02*
X0109804Y0095029D01*
X0109839Y0095067D02*
X0103351Y0095067D01*
X0103316Y0095105D02*
X0109875Y0095105D01*
X0109910Y0095143D02*
X0103281Y0095143D01*
X0103245Y0095180D02*
X0109945Y0095180D01*
X0109980Y0095218D02*
X0103210Y0095218D01*
X0103175Y0095256D02*
X0110015Y0095256D01*
X0110050Y0095294D02*
X0103140Y0095294D01*
X0103105Y0095332D02*
X0110086Y0095332D01*
X0110121Y0095370D02*
X0103069Y0095370D01*
X0103034Y0095408D02*
X0110156Y0095408D01*
X0110191Y0095446D02*
X0102999Y0095446D01*
X0102964Y0095483D02*
X0110226Y0095483D01*
X0110262Y0095521D02*
X0102929Y0095521D01*
X0102894Y0095559D02*
X0110297Y0095559D01*
X0110332Y0095597D02*
X0102858Y0095597D01*
X0102823Y0095635D02*
X0110367Y0095635D01*
X0110402Y0095673D02*
X0102788Y0095673D01*
X0102753Y0095711D02*
X0110437Y0095711D01*
X0110473Y0095749D02*
X0102718Y0095749D01*
X0102683Y0095787D02*
X0110508Y0095787D01*
X0110543Y0095824D02*
X0102647Y0095824D01*
X0102612Y0095862D02*
X0110578Y0095862D01*
X0110613Y0095900D02*
X0102577Y0095900D01*
X0102542Y0095938D02*
X0110648Y0095938D01*
X0110684Y0095976D02*
X0102507Y0095976D01*
X0102472Y0096014D02*
X0110719Y0096014D01*
X0110754Y0096052D02*
X0102436Y0096052D01*
X0102401Y0096090D02*
X0110789Y0096090D01*
X0110824Y0096127D02*
X0102366Y0096127D01*
X0102331Y0096165D02*
X0110859Y0096165D01*
X0110895Y0096203D02*
X0102296Y0096203D01*
X0102260Y0096241D02*
X0110930Y0096241D01*
X0110965Y0096279D02*
X0102225Y0096279D01*
X0102190Y0096317D02*
X0111000Y0096317D01*
X0111035Y0096355D02*
X0102155Y0096355D01*
X0102120Y0096393D02*
X0111071Y0096393D01*
X0111106Y0096431D02*
X0102085Y0096431D01*
X0102068Y0096468D02*
X0111123Y0096468D01*
X0111123Y0096506D02*
X0102068Y0096506D01*
X0102068Y0096544D02*
X0111123Y0096544D01*
X0111123Y0096582D02*
X0102068Y0096582D01*
X0102068Y0096620D02*
X0111123Y0096620D01*
X0111123Y0096658D02*
X0102068Y0096658D01*
X0102068Y0096696D02*
X0111123Y0096696D01*
X0111123Y0096734D02*
X0102068Y0096734D01*
X0102068Y0096771D02*
X0111123Y0096771D01*
X0111123Y0096809D02*
X0102068Y0096809D01*
X0102068Y0096847D02*
X0111123Y0096847D01*
X0111123Y0096885D02*
X0102068Y0096885D01*
X0102068Y0096923D02*
X0111123Y0096923D01*
X0111123Y0096961D02*
X0102068Y0096961D01*
X0102068Y0096999D02*
X0111123Y0096999D01*
X0111123Y0097037D02*
X0102068Y0097037D01*
X0102068Y0097075D02*
X0111123Y0097075D01*
X0111123Y0097112D02*
X0102068Y0097112D01*
X0102068Y0097150D02*
X0111123Y0097150D01*
X0111123Y0097188D02*
X0102068Y0097188D01*
X0102068Y0097226D02*
X0111123Y0097226D01*
X0111123Y0097264D02*
X0102068Y0097264D01*
X0102068Y0097302D02*
X0111123Y0097302D01*
X0111123Y0097340D02*
X0102068Y0097340D01*
X0102068Y0097378D02*
X0111123Y0097378D01*
X0111123Y0097415D02*
X0102068Y0097415D01*
X0102068Y0097453D02*
X0111123Y0097453D01*
X0111123Y0097491D02*
X0102068Y0097491D01*
X0102068Y0097529D02*
X0111123Y0097529D01*
X0111123Y0097567D02*
X0102068Y0097567D01*
X0102068Y0097605D02*
X0111123Y0097605D01*
X0111123Y0097643D02*
X0102068Y0097643D01*
X0102068Y0097681D02*
X0111123Y0097681D01*
X0111123Y0097718D02*
X0102068Y0097718D01*
X0102068Y0097756D02*
X0111123Y0097756D01*
X0111123Y0097794D02*
X0102068Y0097794D01*
X0102068Y0097832D02*
X0111123Y0097832D01*
X0111123Y0097870D02*
X0102068Y0097870D01*
X0102068Y0097908D02*
X0111123Y0097908D01*
X0111123Y0097946D02*
X0102068Y0097946D01*
X0102068Y0097984D02*
X0111123Y0097984D01*
X0111123Y0098022D02*
X0102068Y0098022D01*
X0102068Y0098059D02*
X0111123Y0098059D01*
X0111123Y0098097D02*
X0102068Y0098097D01*
X0102068Y0098135D02*
X0111123Y0098135D01*
X0111123Y0098173D02*
X0102068Y0098173D01*
X0102068Y0098211D02*
X0111123Y0098211D01*
X0111123Y0098249D02*
X0102068Y0098249D01*
X0102068Y0098287D02*
X0111123Y0098287D01*
X0111123Y0098325D02*
X0102068Y0098325D01*
X0102068Y0098362D02*
X0111123Y0098362D01*
X0111123Y0098400D02*
X0102068Y0098400D01*
X0102068Y0098438D02*
X0111123Y0098438D01*
X0111123Y0098476D02*
X0102068Y0098476D01*
X0102068Y0098514D02*
X0111123Y0098514D01*
X0111123Y0098552D02*
X0102068Y0098552D01*
X0102068Y0098590D02*
X0111123Y0098590D01*
X0111123Y0098628D02*
X0102068Y0098628D01*
X0102068Y0098666D02*
X0111123Y0098666D01*
X0111123Y0098703D02*
X0102068Y0098703D01*
X0102068Y0098741D02*
X0111123Y0098741D01*
X0111123Y0098779D02*
X0102068Y0098779D01*
X0102068Y0098817D02*
X0111123Y0098817D01*
X0111123Y0098855D02*
X0102068Y0098855D01*
X0102068Y0098893D02*
X0111123Y0098893D01*
X0111123Y0098931D02*
X0102068Y0098931D01*
X0102068Y0098969D02*
X0111123Y0098969D01*
X0111123Y0099006D02*
X0102068Y0099006D01*
X0102068Y0099044D02*
X0111123Y0099044D01*
X0111123Y0099082D02*
X0102068Y0099082D01*
X0102068Y0099120D02*
X0111123Y0099120D01*
X0111123Y0099158D02*
X0102068Y0099158D01*
X0102068Y0099196D02*
X0111123Y0099196D01*
X0111123Y0099234D02*
X0102068Y0099234D01*
X0102068Y0099272D02*
X0111123Y0099272D01*
X0111123Y0099310D02*
X0102068Y0099310D01*
X0102068Y0099347D02*
X0111123Y0099347D01*
X0111123Y0099385D02*
X0102068Y0099385D01*
X0102068Y0099423D02*
X0111123Y0099423D01*
X0111123Y0099461D02*
X0102068Y0099461D01*
X0102068Y0099499D02*
X0111123Y0099499D01*
X0111123Y0099537D02*
X0102068Y0099537D01*
X0102068Y0099575D02*
X0111123Y0099575D01*
X0111123Y0099613D02*
X0102068Y0099613D01*
X0102068Y0099650D02*
X0111123Y0099650D01*
X0111123Y0099688D02*
X0102068Y0099688D01*
X0102068Y0099726D02*
X0111123Y0099726D01*
X0111123Y0099764D02*
X0102068Y0099764D01*
X0102068Y0099802D02*
X0111123Y0099802D01*
X0111123Y0099840D02*
X0102068Y0099840D01*
X0102068Y0099878D02*
X0111123Y0099878D01*
X0111123Y0099916D02*
X0102068Y0099916D01*
X0102068Y0099953D02*
X0111123Y0099953D01*
X0111123Y0099991D02*
X0102068Y0099991D01*
X0102068Y0100029D02*
X0111123Y0100029D01*
X0111123Y0100067D02*
X0102068Y0100067D01*
X0102068Y0100105D02*
X0111123Y0100105D01*
X0111123Y0100143D02*
X0102068Y0100143D01*
X0102068Y0100181D02*
X0111123Y0100181D01*
X0111123Y0100219D02*
X0102068Y0100219D01*
X0102068Y0100257D02*
X0111123Y0100257D01*
X0111123Y0100294D02*
X0102068Y0100294D01*
X0102068Y0100332D02*
X0111123Y0100332D01*
X0111123Y0100370D02*
X0102068Y0100370D01*
X0102068Y0100408D02*
X0111123Y0100408D01*
X0111123Y0100446D02*
X0102068Y0100446D01*
X0102068Y0100484D02*
X0111123Y0100484D01*
X0111123Y0100522D02*
X0102068Y0100522D01*
X0102068Y0100560D02*
X0111123Y0100560D01*
X0111123Y0100597D02*
X0102068Y0100597D01*
X0102068Y0100635D02*
X0111123Y0100635D01*
X0111123Y0100673D02*
X0102068Y0100673D01*
X0102068Y0100711D02*
X0111123Y0100711D01*
X0111123Y0100749D02*
X0102068Y0100749D01*
X0102068Y0100787D02*
X0111123Y0100787D01*
X0111123Y0100825D02*
X0102068Y0100825D01*
X0102068Y0100863D02*
X0111123Y0100863D01*
X0111123Y0100901D02*
X0102068Y0100901D01*
X0102068Y0100938D02*
X0111123Y0100938D01*
X0111123Y0100976D02*
X0102068Y0100976D01*
X0102068Y0101014D02*
X0111123Y0101014D01*
X0111123Y0101052D02*
X0102068Y0101052D01*
X0102068Y0101090D02*
X0111123Y0101090D01*
X0111123Y0101128D02*
X0102068Y0101128D01*
X0102068Y0101166D02*
X0111123Y0101166D01*
X0111123Y0101204D02*
X0102068Y0101204D01*
X0102068Y0101241D02*
X0111123Y0101241D01*
X0111123Y0101279D02*
X0102068Y0101279D01*
X0102068Y0101317D02*
X0111123Y0101317D01*
X0111123Y0101355D02*
X0102068Y0101355D01*
X0102068Y0101393D02*
X0111123Y0101393D01*
X0111123Y0101431D02*
X0102068Y0101431D01*
X0102068Y0101469D02*
X0111123Y0101469D01*
X0111123Y0101507D02*
X0102068Y0101507D01*
X0102068Y0101545D02*
X0111123Y0101545D01*
X0111123Y0101582D02*
X0102068Y0101582D01*
X0102068Y0101620D02*
X0111123Y0101620D01*
X0111123Y0101658D02*
X0102068Y0101658D01*
X0102068Y0101696D02*
X0111123Y0101696D01*
X0111123Y0101734D02*
X0102068Y0101734D01*
X0102068Y0101772D02*
X0111123Y0101772D01*
X0111123Y0101810D02*
X0102068Y0101810D01*
X0102068Y0101848D02*
X0111123Y0101848D01*
X0111123Y0101885D02*
X0102068Y0101885D01*
X0102068Y0101923D02*
X0111123Y0101923D01*
X0111123Y0101961D02*
X0102068Y0101961D01*
X0102068Y0101999D02*
X0111123Y0101999D01*
X0111123Y0102037D02*
X0102068Y0102037D01*
X0102068Y0102075D02*
X0111123Y0102075D01*
X0111123Y0102113D02*
X0102068Y0102113D01*
X0102068Y0102151D02*
X0111123Y0102151D01*
X0111123Y0102188D02*
X0102068Y0102188D01*
X0102068Y0102226D02*
X0111123Y0102226D01*
X0111123Y0102264D02*
X0102068Y0102264D01*
X0102068Y0102302D02*
X0111123Y0102302D01*
X0111123Y0102340D02*
X0102068Y0102340D01*
X0102068Y0102378D02*
X0111123Y0102378D01*
X0111123Y0102416D02*
X0102068Y0102416D01*
X0102068Y0102454D02*
X0111123Y0102454D01*
X0111123Y0102492D02*
X0102068Y0102492D01*
X0102068Y0102529D02*
X0111123Y0102529D01*
X0111109Y0102567D02*
X0102081Y0102567D01*
X0102113Y0102605D02*
X0111078Y0102605D01*
X0111046Y0102643D02*
X0102144Y0102643D01*
X0102176Y0102681D02*
X0111015Y0102681D01*
X0110983Y0102719D02*
X0102207Y0102719D01*
X0102239Y0102757D02*
X0110951Y0102757D01*
X0110920Y0102795D02*
X0102270Y0102795D01*
X0102302Y0102832D02*
X0110888Y0102832D01*
X0110857Y0102870D02*
X0102334Y0102870D01*
X0102365Y0102908D02*
X0110825Y0102908D01*
X0110794Y0102946D02*
X0102397Y0102946D01*
X0102428Y0102984D02*
X0110762Y0102984D01*
X0110730Y0103022D02*
X0102460Y0103022D01*
X0102491Y0103060D02*
X0110699Y0103060D01*
X0110667Y0103098D02*
X0102523Y0103098D01*
X0102555Y0103136D02*
X0110636Y0103136D01*
X0110604Y0103173D02*
X0102586Y0103173D01*
X0102618Y0103211D02*
X0110573Y0103211D01*
X0110541Y0103249D02*
X0102649Y0103249D01*
X0102681Y0103287D02*
X0110509Y0103287D01*
X0110478Y0103325D02*
X0102712Y0103325D01*
X0102744Y0103363D02*
X0110446Y0103363D01*
X0110415Y0103401D02*
X0102776Y0103401D01*
X0102807Y0103439D02*
X0110383Y0103439D01*
X0110352Y0103476D02*
X0102839Y0103476D01*
X0102870Y0103514D02*
X0110320Y0103514D01*
X0110288Y0103552D02*
X0102902Y0103552D01*
X0102933Y0103590D02*
X0110257Y0103590D01*
X0110225Y0103628D02*
X0102965Y0103628D01*
X0102996Y0103666D02*
X0110194Y0103666D01*
X0110162Y0103704D02*
X0103028Y0103704D01*
X0103060Y0103742D02*
X0110131Y0103742D01*
X0110099Y0103780D02*
X0103091Y0103780D01*
X0103123Y0103817D02*
X0110068Y0103817D01*
X0110036Y0103855D02*
X0103154Y0103855D01*
X0103186Y0103893D02*
X0110004Y0103893D01*
X0109973Y0103931D02*
X0103217Y0103931D01*
X0103249Y0103969D02*
X0109941Y0103969D01*
X0109910Y0104007D02*
X0103281Y0104007D01*
X0103312Y0104045D02*
X0109878Y0104045D01*
X0109847Y0104083D02*
X0103344Y0104083D01*
X0103375Y0104120D02*
X0109815Y0104120D01*
X0109783Y0104158D02*
X0103407Y0104158D01*
X0103438Y0104196D02*
X0109752Y0104196D01*
X0109720Y0104234D02*
X0103470Y0104234D01*
X0103502Y0104272D02*
X0109689Y0104272D01*
X0109657Y0104310D02*
X0103533Y0104310D01*
X0103565Y0104348D02*
X0109626Y0104348D01*
X0109594Y0104386D02*
X0103596Y0104386D01*
X0103628Y0104423D02*
X0109562Y0104423D01*
X0109531Y0104461D02*
X0103659Y0104461D01*
X0103691Y0104499D02*
X0109499Y0104499D01*
X0109468Y0104537D02*
X0103723Y0104537D01*
X0103754Y0104575D02*
X0109436Y0104575D01*
X0109405Y0104613D02*
X0103786Y0104613D01*
X0103817Y0104651D02*
X0109373Y0104651D01*
X0109341Y0104689D02*
X0103849Y0104689D01*
X0103880Y0104727D02*
X0109310Y0104727D01*
X0109278Y0104764D02*
X0103912Y0104764D01*
X0103944Y0104802D02*
X0109247Y0104802D01*
X0109215Y0104840D02*
X0103975Y0104840D01*
X0104007Y0104878D02*
X0109184Y0104878D01*
X0109152Y0104916D02*
X0104038Y0104916D01*
X0104070Y0104954D02*
X0109120Y0104954D01*
X0109089Y0104992D02*
X0104101Y0104992D01*
X0104133Y0105030D02*
X0109057Y0105030D01*
X0109026Y0105067D02*
X0104164Y0105067D01*
X0104196Y0105105D02*
X0108994Y0105105D01*
X0108963Y0105143D02*
X0104228Y0105143D01*
X0104259Y0105181D02*
X0108931Y0105181D01*
X0108900Y0105219D02*
X0104291Y0105219D01*
X0104322Y0105257D02*
X0108868Y0105257D01*
X0108836Y0105295D02*
X0104354Y0105295D01*
X0104385Y0105333D02*
X0108805Y0105333D01*
X0108773Y0105371D02*
X0104417Y0105371D01*
X0104449Y0105408D02*
X0108742Y0105408D01*
X0108710Y0105446D02*
X0104480Y0105446D01*
X0104512Y0105484D02*
X0108679Y0105484D01*
X0108647Y0105522D02*
X0104543Y0105522D01*
X0104575Y0105560D02*
X0108615Y0105560D01*
X0108584Y0105598D02*
X0104606Y0105598D01*
X0104638Y0105636D02*
X0108552Y0105636D01*
X0108521Y0105674D02*
X0104670Y0105674D01*
X0104701Y0105711D02*
X0108489Y0105711D01*
X0108458Y0105749D02*
X0104733Y0105749D01*
X0104764Y0105787D02*
X0108426Y0105787D01*
X0108394Y0105825D02*
X0104796Y0105825D01*
X0104827Y0105863D02*
X0108363Y0105863D01*
X0108331Y0105901D02*
X0104859Y0105901D01*
X0104891Y0105939D02*
X0108300Y0105939D01*
X0108268Y0105977D02*
X0104922Y0105977D01*
X0104954Y0106015D02*
X0108237Y0106015D01*
X0108205Y0106052D02*
X0104985Y0106052D01*
X0105017Y0106090D02*
X0108173Y0106090D01*
D16*
X0071595Y0071933D03*
X0074095Y0069433D03*
X0069395Y0067933D03*
X0070195Y0063533D03*
X0063595Y0068633D03*
X0060595Y0065433D03*
X0061895Y0061633D03*
X0057595Y0061633D03*
X0054595Y0065433D03*
X0057495Y0068633D03*
X0054595Y0072433D03*
X0051595Y0075933D03*
X0057595Y0075933D03*
X0060595Y0072433D03*
X0063595Y0075933D03*
X0066095Y0083433D03*
X0066095Y0087433D03*
X0061095Y0097433D03*
X0062995Y0103133D03*
X0052095Y0102433D03*
X0052595Y0099133D03*
X0052195Y0096733D03*
X0053595Y0093933D03*
X0048595Y0102933D03*
X0046595Y0104433D03*
X0044095Y0104433D03*
X0041095Y0103433D03*
X0042595Y0092433D03*
X0046595Y0082433D03*
X0041095Y0074933D03*
X0045395Y0072333D03*
X0043595Y0069933D03*
X0045595Y0067733D03*
X0043095Y0065933D03*
X0044295Y0063233D03*
X0044595Y0059933D03*
X0045595Y0056933D03*
X0049595Y0055733D03*
X0051295Y0050733D03*
X0051595Y0046433D03*
X0051095Y0043433D03*
X0051095Y0040933D03*
X0049095Y0035433D03*
X0053595Y0031933D03*
X0056595Y0031933D03*
X0059595Y0031933D03*
X0065095Y0033433D03*
X0068095Y0046933D03*
X0067095Y0049433D03*
X0064595Y0051433D03*
X0076095Y0050433D03*
X0078095Y0048433D03*
X0088595Y0058933D03*
X0093095Y0055433D03*
X0090495Y0048333D03*
X0052095Y0061633D03*
X0051495Y0068633D03*
X0036595Y0068433D03*
X0039095Y0042433D03*
X0041595Y0029933D03*
D17*
X0039969Y0031418D02*
X0037120Y0031418D01*
X0037315Y0031891D02*
X0039758Y0034333D01*
X0040695Y0035270D01*
X0040695Y0040922D01*
X0041295Y0041522D01*
X0041295Y0043344D01*
X0040006Y0044633D01*
X0038184Y0044633D01*
X0037486Y0043935D01*
X0037486Y0044248D01*
X0036741Y0046046D01*
X0035366Y0047422D01*
X0033568Y0048167D01*
X0031622Y0048167D01*
X0029825Y0047422D01*
X0028995Y0046592D01*
X0028995Y0049959D01*
X0029825Y0049129D01*
X0031622Y0048385D01*
X0033568Y0048385D01*
X0035366Y0049129D01*
X0036741Y0050505D01*
X0037486Y0052303D01*
X0037486Y0054248D01*
X0036741Y0056046D01*
X0035366Y0057422D01*
X0033568Y0058167D01*
X0031622Y0058167D01*
X0029825Y0057422D01*
X0028995Y0056592D01*
X0028995Y0059959D01*
X0029825Y0059129D01*
X0031622Y0058385D01*
X0033568Y0058385D01*
X0035366Y0059129D01*
X0036741Y0060505D01*
X0037486Y0062303D01*
X0037486Y0064248D01*
X0036741Y0066046D01*
X0036554Y0066233D01*
X0037506Y0066233D01*
X0038095Y0066822D01*
X0038095Y0050949D01*
X0039267Y0049777D01*
X0041917Y0047127D01*
X0041917Y0044716D01*
X0042620Y0044013D01*
X0046927Y0044013D01*
X0046767Y0040014D01*
X0046745Y0039992D01*
X0046745Y0039460D01*
X0046724Y0038928D01*
X0046745Y0038905D01*
X0046745Y0038874D01*
X0047121Y0038498D01*
X0047482Y0038106D01*
X0047514Y0038105D01*
X0047536Y0038083D01*
X0047963Y0038083D01*
X0049749Y0035939D01*
X0049750Y0035863D01*
X0050101Y0035517D01*
X0050416Y0035139D01*
X0050492Y0035132D01*
X0050547Y0035078D01*
X0051040Y0035083D01*
X0051530Y0035038D01*
X0051589Y0035087D01*
X0063181Y0035183D01*
X0066195Y0035094D01*
X0066364Y0034990D01*
X0066734Y0035078D01*
X0067114Y0035067D01*
X0067259Y0035203D01*
X0077254Y0037583D01*
X0077654Y0037583D01*
X0077780Y0037708D01*
X0077952Y0037749D01*
X0078162Y0038091D01*
X0078445Y0038374D01*
X0078445Y0038551D01*
X0078538Y0038702D01*
X0078445Y0039092D01*
X0078445Y0040514D01*
X0078449Y0040505D01*
X0079825Y0039129D01*
X0081622Y0038385D01*
X0083568Y0038385D01*
X0085366Y0039129D01*
X0086741Y0040505D01*
X0087486Y0042303D01*
X0087486Y0044248D01*
X0086741Y0046046D01*
X0085366Y0047422D01*
X0083568Y0048167D01*
X0081622Y0048167D01*
X0080295Y0047617D01*
X0080295Y0048806D01*
X0080359Y0048908D01*
X0081622Y0048385D01*
X0083568Y0048385D01*
X0085366Y0049129D01*
X0086741Y0050505D01*
X0087486Y0052303D01*
X0087486Y0054248D01*
X0086741Y0056046D01*
X0086604Y0056183D01*
X0087613Y0056183D01*
X0088163Y0056733D01*
X0089506Y0056733D01*
X0090795Y0058022D01*
X0090795Y0059844D01*
X0089506Y0061133D01*
X0088345Y0061133D01*
X0088345Y0068451D01*
X0087613Y0069183D01*
X0087613Y0069183D01*
X0087845Y0069415D01*
X0088345Y0069915D01*
X0088345Y0072415D01*
X0090345Y0074415D01*
X0090345Y0069915D01*
X0091077Y0069183D01*
X0101613Y0069183D01*
X0102345Y0069915D01*
X0102345Y0070016D01*
X0102353Y0070005D01*
X0102355Y0069921D01*
X0102355Y0069415D01*
X0102365Y0069405D01*
X0102366Y0069390D01*
X0102730Y0069041D01*
X0103087Y0068683D01*
X0103102Y0068683D01*
X0103112Y0068673D01*
X0103618Y0068683D01*
X0114089Y0068683D01*
X0114090Y0068682D01*
X0114604Y0068683D01*
X0115123Y0068683D01*
X0115124Y0068684D01*
X0115125Y0068684D01*
X0115487Y0069047D01*
X0115855Y0069415D01*
X0115855Y0069417D01*
X0115856Y0069418D01*
X0115855Y0069931D01*
X0115855Y0070451D01*
X0115854Y0070452D01*
X0115845Y0075231D01*
X0115945Y0075529D01*
X0115845Y0075729D01*
X0115844Y0075953D01*
X0115622Y0076175D01*
X0115482Y0076455D01*
X0115269Y0076526D01*
X0115111Y0076684D01*
X0114797Y0076683D01*
X0106270Y0079526D01*
X0104345Y0081451D01*
X0104345Y0092473D01*
X0104604Y0092473D01*
X0105086Y0092455D01*
X0105106Y0092473D01*
X0108085Y0092473D01*
X0108104Y0092455D01*
X0108586Y0092473D01*
X0109069Y0092473D01*
X0109087Y0092492D01*
X0109114Y0092493D01*
X0109332Y0092728D01*
X0109332Y0084928D01*
X0110035Y0084225D01*
X0114966Y0084225D01*
X0115669Y0084928D01*
X0115669Y0087033D01*
X0115793Y0087033D01*
X0115912Y0086914D01*
X0117004Y0086461D01*
X0118186Y0086461D01*
X0119278Y0086914D01*
X0120114Y0087750D01*
X0120567Y0088842D01*
X0120567Y0090024D01*
X0120114Y0091116D01*
X0119278Y0091952D01*
X0118186Y0092405D01*
X0117004Y0092405D01*
X0115912Y0091952D01*
X0115793Y0091833D01*
X0115669Y0091833D01*
X0115669Y0094190D01*
X0114966Y0094893D01*
X0111342Y0094893D01*
X0112001Y0095602D01*
X0112342Y0095944D01*
X0112342Y0095970D01*
X0112360Y0095989D01*
X0112342Y0096471D01*
X0112342Y0102496D01*
X0112383Y0102944D01*
X0112342Y0102993D01*
X0112342Y0103056D01*
X0112024Y0103374D01*
X0109390Y0106536D01*
X0109390Y0106600D01*
X0109071Y0106918D01*
X0108784Y0107263D01*
X0108720Y0107269D01*
X0108675Y0107314D01*
X0108225Y0107314D01*
X0107777Y0107355D01*
X0107728Y0107314D01*
X0105462Y0107314D01*
X0105413Y0107355D01*
X0104965Y0107314D01*
X0104515Y0107314D01*
X0104470Y0107269D01*
X0104407Y0107263D01*
X0104119Y0106918D01*
X0103801Y0106600D01*
X0103801Y0106536D01*
X0101166Y0103374D01*
X0100848Y0103056D01*
X0100848Y0102993D01*
X0100807Y0102944D01*
X0100848Y0102496D01*
X0100848Y0096471D01*
X0100830Y0095989D01*
X0100848Y0095970D01*
X0100848Y0095944D01*
X0101189Y0095602D01*
X0101848Y0094893D01*
X0098224Y0094893D01*
X0097521Y0094190D01*
X0097521Y0093683D01*
X0095845Y0093683D01*
X0095845Y0094451D01*
X0095113Y0095183D01*
X0089613Y0100683D01*
X0087486Y0100683D01*
X0087486Y0107621D01*
X0086783Y0108324D01*
X0078407Y0108324D01*
X0078190Y0108106D01*
X0077613Y0108683D01*
X0044577Y0108683D01*
X0043845Y0107951D01*
X0041845Y0105951D01*
X0041845Y0105633D01*
X0040184Y0105633D01*
X0039584Y0105033D01*
X0037486Y0105033D01*
X0037486Y0107621D01*
X0036783Y0108324D01*
X0028995Y0108324D01*
X0028995Y0112033D01*
X0124195Y0112033D01*
X0124195Y0046108D01*
X0123741Y0047204D01*
X0122366Y0048579D01*
X0120568Y0049324D01*
X0118622Y0049324D01*
X0116825Y0048579D01*
X0115449Y0047204D01*
X0114704Y0045406D01*
X0114704Y0043460D01*
X0115449Y0041663D01*
X0116825Y0040287D01*
X0118622Y0039542D01*
X0120568Y0039542D01*
X0122366Y0040287D01*
X0123741Y0041663D01*
X0124195Y0042758D01*
X0124195Y0038912D01*
X0123783Y0039324D01*
X0115407Y0039324D01*
X0114704Y0038621D01*
X0114704Y0030245D01*
X0115407Y0029542D01*
X0123783Y0029542D01*
X0124195Y0029954D01*
X0124195Y0024833D01*
X0033175Y0024833D01*
X0028995Y0029013D01*
X0028995Y0029959D01*
X0029825Y0029129D01*
X0031622Y0028385D01*
X0033568Y0028385D01*
X0035366Y0029129D01*
X0036741Y0030505D01*
X0037315Y0031891D01*
X0037641Y0032217D02*
X0095219Y0032217D01*
X0095449Y0031663D02*
X0094704Y0033460D01*
X0094704Y0035406D01*
X0095449Y0037204D01*
X0096825Y0038579D01*
X0098622Y0039324D01*
X0100568Y0039324D01*
X0102366Y0038579D01*
X0103741Y0037204D01*
X0104486Y0035406D01*
X0104486Y0033460D01*
X0103741Y0031663D01*
X0102366Y0030287D01*
X0100568Y0029542D01*
X0098622Y0029542D01*
X0096825Y0030287D01*
X0095449Y0031663D01*
X0095693Y0031418D02*
X0043221Y0031418D01*
X0043795Y0030844D02*
X0042506Y0032133D01*
X0040684Y0032133D01*
X0039395Y0030844D01*
X0039395Y0029022D01*
X0040684Y0027733D01*
X0042506Y0027733D01*
X0043795Y0029022D01*
X0043795Y0030844D01*
X0043795Y0030620D02*
X0096492Y0030620D01*
X0097949Y0029821D02*
X0043795Y0029821D01*
X0043795Y0029023D02*
X0124195Y0029023D01*
X0124195Y0029821D02*
X0124062Y0029821D01*
X0124195Y0028224D02*
X0042997Y0028224D01*
X0040193Y0028224D02*
X0029784Y0028224D01*
X0030082Y0029023D02*
X0028995Y0029023D01*
X0028995Y0029821D02*
X0029133Y0029821D01*
X0030582Y0027426D02*
X0124195Y0027426D01*
X0124195Y0026627D02*
X0031381Y0026627D01*
X0032179Y0025829D02*
X0124195Y0025829D01*
X0124195Y0025030D02*
X0032978Y0025030D01*
X0035108Y0029023D02*
X0039395Y0029023D01*
X0039395Y0029821D02*
X0036058Y0029821D01*
X0036789Y0030620D02*
X0039395Y0030620D01*
X0038440Y0033015D02*
X0090374Y0033015D01*
X0090504Y0032961D02*
X0091686Y0032961D01*
X0092778Y0033414D01*
X0093614Y0034250D01*
X0094067Y0035342D01*
X0094067Y0036524D01*
X0093614Y0037616D01*
X0092778Y0038452D01*
X0091686Y0038905D01*
X0090504Y0038905D01*
X0089412Y0038452D01*
X0088576Y0037616D01*
X0088123Y0036524D01*
X0088123Y0035342D01*
X0088576Y0034250D01*
X0089412Y0033414D01*
X0090504Y0032961D01*
X0091816Y0033015D02*
X0094889Y0033015D01*
X0094704Y0033814D02*
X0093178Y0033814D01*
X0093765Y0034612D02*
X0094704Y0034612D01*
X0094706Y0035411D02*
X0094067Y0035411D01*
X0094067Y0036209D02*
X0095037Y0036209D01*
X0095368Y0037008D02*
X0093866Y0037008D01*
X0093424Y0037806D02*
X0096052Y0037806D01*
X0096886Y0038605D02*
X0092410Y0038605D01*
X0089780Y0038605D02*
X0084099Y0038605D01*
X0085640Y0039403D02*
X0124195Y0039403D01*
X0124195Y0040202D02*
X0122161Y0040202D01*
X0123079Y0041000D02*
X0124195Y0041000D01*
X0124195Y0041799D02*
X0123798Y0041799D01*
X0124129Y0042597D02*
X0124195Y0042597D01*
X0124195Y0046590D02*
X0123996Y0046590D01*
X0124195Y0047388D02*
X0123557Y0047388D01*
X0124195Y0048187D02*
X0122758Y0048187D01*
X0121385Y0048985D02*
X0124195Y0048985D01*
X0124195Y0049784D02*
X0092156Y0049784D01*
X0092695Y0049244D02*
X0091406Y0050533D01*
X0089584Y0050533D01*
X0088295Y0049244D01*
X0088295Y0047422D01*
X0089584Y0046133D01*
X0091406Y0046133D01*
X0092695Y0047422D01*
X0092695Y0049244D01*
X0092695Y0048985D02*
X0097805Y0048985D01*
X0098622Y0049324D02*
X0096825Y0048579D01*
X0095449Y0047204D01*
X0094704Y0045406D01*
X0094704Y0043460D01*
X0095449Y0041663D01*
X0096825Y0040287D01*
X0098622Y0039542D01*
X0100568Y0039542D01*
X0102366Y0040287D01*
X0103741Y0041663D01*
X0104486Y0043460D01*
X0104486Y0045406D01*
X0103741Y0047204D01*
X0102366Y0048579D01*
X0100568Y0049324D01*
X0098622Y0049324D01*
X0096432Y0048187D02*
X0092695Y0048187D01*
X0092662Y0047388D02*
X0095634Y0047388D01*
X0095195Y0046590D02*
X0091863Y0046590D01*
X0089127Y0046590D02*
X0086198Y0046590D01*
X0086847Y0045791D02*
X0094864Y0045791D01*
X0094704Y0044993D02*
X0087178Y0044993D01*
X0087486Y0044194D02*
X0094704Y0044194D01*
X0094731Y0043396D02*
X0087486Y0043396D01*
X0087486Y0042597D02*
X0095062Y0042597D01*
X0095392Y0041799D02*
X0087277Y0041799D01*
X0086947Y0041000D02*
X0096111Y0041000D01*
X0097030Y0040202D02*
X0086438Y0040202D01*
X0088766Y0037806D02*
X0077987Y0037806D01*
X0078478Y0038605D02*
X0081091Y0038605D01*
X0079551Y0039403D02*
X0078445Y0039403D01*
X0078445Y0040202D02*
X0078752Y0040202D01*
X0074837Y0037008D02*
X0088324Y0037008D01*
X0088123Y0036209D02*
X0071484Y0036209D01*
X0068130Y0035411D02*
X0088123Y0035411D01*
X0088426Y0034612D02*
X0040037Y0034612D01*
X0040695Y0035411D02*
X0050190Y0035411D01*
X0049524Y0036209D02*
X0040695Y0036209D01*
X0040695Y0037008D02*
X0048859Y0037008D01*
X0048193Y0037806D02*
X0040695Y0037806D01*
X0040695Y0038605D02*
X0047014Y0038605D01*
X0046743Y0039403D02*
X0040695Y0039403D01*
X0040695Y0040202D02*
X0046775Y0040202D01*
X0046807Y0041000D02*
X0040774Y0041000D01*
X0041295Y0041799D02*
X0046839Y0041799D01*
X0046871Y0042597D02*
X0041295Y0042597D01*
X0041244Y0043396D02*
X0046903Y0043396D01*
X0045439Y0046433D02*
X0045085Y0046787D01*
X0041917Y0046590D02*
X0036198Y0046590D01*
X0036847Y0045791D02*
X0041917Y0045791D01*
X0041917Y0044993D02*
X0037178Y0044993D01*
X0037486Y0044194D02*
X0037745Y0044194D01*
X0039095Y0042433D02*
X0039095Y0035933D01*
X0036438Y0033276D01*
X0032595Y0033276D01*
X0039239Y0033814D02*
X0089012Y0033814D01*
X0101242Y0029821D02*
X0107949Y0029821D01*
X0108622Y0029542D02*
X0110568Y0029542D01*
X0112366Y0030287D01*
X0113741Y0031663D01*
X0114486Y0033460D01*
X0114486Y0035406D01*
X0113741Y0037204D01*
X0112366Y0038579D01*
X0110568Y0039324D01*
X0108622Y0039324D01*
X0106825Y0038579D01*
X0105449Y0037204D01*
X0104704Y0035406D01*
X0104704Y0033460D01*
X0105449Y0031663D01*
X0106825Y0030287D01*
X0108622Y0029542D01*
X0106492Y0030620D02*
X0102699Y0030620D01*
X0103497Y0031418D02*
X0105693Y0031418D01*
X0105219Y0032217D02*
X0103971Y0032217D01*
X0104302Y0033015D02*
X0104889Y0033015D01*
X0104704Y0033814D02*
X0104486Y0033814D01*
X0104486Y0034612D02*
X0104704Y0034612D01*
X0104706Y0035411D02*
X0104484Y0035411D01*
X0104153Y0036209D02*
X0105037Y0036209D01*
X0105368Y0037008D02*
X0103823Y0037008D01*
X0103139Y0037806D02*
X0106052Y0037806D01*
X0106886Y0038605D02*
X0102304Y0038605D01*
X0102161Y0040202D02*
X0107030Y0040202D01*
X0106825Y0040287D02*
X0108622Y0039542D01*
X0110568Y0039542D01*
X0112366Y0040287D01*
X0113741Y0041663D01*
X0114486Y0043460D01*
X0114486Y0045406D01*
X0113741Y0047204D01*
X0112366Y0048579D01*
X0110568Y0049324D01*
X0108622Y0049324D01*
X0106825Y0048579D01*
X0105449Y0047204D01*
X0104704Y0045406D01*
X0104704Y0043460D01*
X0105449Y0041663D01*
X0106825Y0040287D01*
X0106111Y0041000D02*
X0103079Y0041000D01*
X0103798Y0041799D02*
X0105392Y0041799D01*
X0105062Y0042597D02*
X0104129Y0042597D01*
X0104459Y0043396D02*
X0104731Y0043396D01*
X0104704Y0044194D02*
X0104486Y0044194D01*
X0104486Y0044993D02*
X0104704Y0044993D01*
X0104864Y0045791D02*
X0104326Y0045791D01*
X0103996Y0046590D02*
X0105195Y0046590D01*
X0105634Y0047388D02*
X0103557Y0047388D01*
X0102758Y0048187D02*
X0106432Y0048187D01*
X0107805Y0048985D02*
X0101385Y0048985D01*
X0095295Y0054522D02*
X0094006Y0053233D01*
X0092184Y0053233D01*
X0090895Y0054522D01*
X0090895Y0056344D01*
X0092184Y0057633D01*
X0094006Y0057633D01*
X0095295Y0056344D01*
X0095295Y0054522D01*
X0095295Y0054575D02*
X0124195Y0054575D01*
X0124195Y0053777D02*
X0094550Y0053777D01*
X0095295Y0055374D02*
X0124195Y0055374D01*
X0124195Y0056172D02*
X0095295Y0056172D01*
X0094669Y0056971D02*
X0124195Y0056971D01*
X0124195Y0057769D02*
X0090542Y0057769D01*
X0090795Y0058568D02*
X0124195Y0058568D01*
X0124195Y0059366D02*
X0090795Y0059366D01*
X0090475Y0060165D02*
X0124195Y0060165D01*
X0124195Y0060963D02*
X0089676Y0060963D01*
X0088345Y0061762D02*
X0124195Y0061762D01*
X0124195Y0062560D02*
X0088345Y0062560D01*
X0088345Y0063359D02*
X0124195Y0063359D01*
X0124195Y0064157D02*
X0088345Y0064157D01*
X0088345Y0064956D02*
X0124195Y0064956D01*
X0124195Y0065754D02*
X0088345Y0065754D01*
X0088345Y0066553D02*
X0124195Y0066553D01*
X0124195Y0067351D02*
X0088345Y0067351D01*
X0088345Y0068150D02*
X0124195Y0068150D01*
X0124195Y0068948D02*
X0115388Y0068948D01*
X0115855Y0069747D02*
X0124195Y0069747D01*
X0124195Y0070545D02*
X0115854Y0070545D01*
X0115853Y0071344D02*
X0124195Y0071344D01*
X0124195Y0072142D02*
X0115851Y0072142D01*
X0115850Y0072941D02*
X0124195Y0072941D01*
X0124195Y0073739D02*
X0115848Y0073739D01*
X0115847Y0074538D02*
X0124195Y0074538D01*
X0124195Y0075336D02*
X0115880Y0075336D01*
X0115662Y0076135D02*
X0124195Y0076135D01*
X0124195Y0076933D02*
X0114047Y0076933D01*
X0111652Y0077732D02*
X0124195Y0077732D01*
X0124195Y0078530D02*
X0109256Y0078530D01*
X0106861Y0079329D02*
X0124195Y0079329D01*
X0124195Y0080127D02*
X0105669Y0080127D01*
X0104870Y0080926D02*
X0124195Y0080926D01*
X0124195Y0081724D02*
X0104345Y0081724D01*
X0104345Y0082523D02*
X0124195Y0082523D01*
X0124195Y0083321D02*
X0104345Y0083321D01*
X0104345Y0084120D02*
X0124195Y0084120D01*
X0124195Y0084918D02*
X0115659Y0084918D01*
X0115669Y0085717D02*
X0124195Y0085717D01*
X0124195Y0086515D02*
X0118317Y0086515D01*
X0116874Y0086515D02*
X0115669Y0086515D01*
X0119679Y0087314D02*
X0124195Y0087314D01*
X0124195Y0088112D02*
X0120265Y0088112D01*
X0120567Y0088911D02*
X0124195Y0088911D01*
X0124195Y0089710D02*
X0120567Y0089710D01*
X0120366Y0090508D02*
X0124195Y0090508D01*
X0124195Y0091307D02*
X0119924Y0091307D01*
X0118910Y0092105D02*
X0124195Y0092105D01*
X0124195Y0092904D02*
X0115669Y0092904D01*
X0115669Y0093702D02*
X0124195Y0093702D01*
X0124195Y0094501D02*
X0115359Y0094501D01*
X0115669Y0092105D02*
X0116281Y0092105D01*
X0112595Y0089433D02*
X0112501Y0089528D01*
X0112501Y0089559D01*
X0109332Y0089710D02*
X0104345Y0089710D01*
X0104345Y0090508D02*
X0109332Y0090508D01*
X0109332Y0091307D02*
X0104345Y0091307D01*
X0104345Y0092105D02*
X0109332Y0092105D01*
X0111720Y0095299D02*
X0124195Y0095299D01*
X0124195Y0096098D02*
X0112356Y0096098D01*
X0112342Y0096896D02*
X0124195Y0096896D01*
X0124195Y0097695D02*
X0112342Y0097695D01*
X0112342Y0098493D02*
X0124195Y0098493D01*
X0124195Y0099292D02*
X0112342Y0099292D01*
X0112342Y0100090D02*
X0124195Y0100090D01*
X0124195Y0100889D02*
X0112342Y0100889D01*
X0112342Y0101687D02*
X0124195Y0101687D01*
X0124195Y0102486D02*
X0112342Y0102486D01*
X0112115Y0103284D02*
X0124195Y0103284D01*
X0124195Y0104083D02*
X0111434Y0104083D01*
X0110769Y0104881D02*
X0124195Y0104881D01*
X0124195Y0105680D02*
X0110103Y0105680D01*
X0109438Y0106478D02*
X0124195Y0106478D01*
X0124195Y0107277D02*
X0108713Y0107277D01*
X0104478Y0107277D02*
X0087486Y0107277D01*
X0087486Y0106478D02*
X0103752Y0106478D01*
X0103087Y0105680D02*
X0087486Y0105680D01*
X0087486Y0104881D02*
X0102422Y0104881D01*
X0101756Y0104083D02*
X0087486Y0104083D01*
X0087486Y0103284D02*
X0101076Y0103284D01*
X0100848Y0102486D02*
X0087486Y0102486D01*
X0087486Y0101687D02*
X0100848Y0101687D01*
X0100848Y0100889D02*
X0087486Y0100889D01*
X0088095Y0098433D02*
X0077095Y0098433D01*
X0076095Y0099433D01*
X0076095Y0105433D01*
X0075095Y0106433D01*
X0052595Y0106433D01*
X0048595Y0102933D01*
X0051782Y0099292D02*
X0062345Y0099292D01*
X0062345Y0100090D02*
X0052581Y0100090D01*
X0052724Y0100233D02*
X0053006Y0100233D01*
X0053767Y0100994D01*
X0054577Y0100183D01*
X0062345Y0100183D01*
X0062345Y0095433D01*
X0055206Y0095433D01*
X0054506Y0096133D01*
X0052684Y0096133D01*
X0052204Y0095653D01*
X0051595Y0096261D01*
X0051595Y0099105D01*
X0052724Y0100233D01*
X0053662Y0100889D02*
X0053872Y0100889D01*
X0051595Y0098493D02*
X0062345Y0098493D01*
X0062345Y0097695D02*
X0051595Y0097695D01*
X0051595Y0096896D02*
X0062345Y0096896D01*
X0062345Y0096098D02*
X0054542Y0096098D01*
X0052648Y0096098D02*
X0051759Y0096098D01*
X0049095Y0092433D02*
X0054095Y0087433D01*
X0066095Y0087433D01*
X0067728Y0088911D02*
X0068789Y0088911D01*
X0068295Y0088344D02*
X0067006Y0089633D01*
X0065184Y0089633D01*
X0064584Y0089033D01*
X0060290Y0089033D01*
X0060764Y0089507D01*
X0060764Y0091433D01*
X0066267Y0091433D01*
X0074095Y0083605D01*
X0074095Y0071761D01*
X0073967Y0071633D01*
X0073795Y0071633D01*
X0073795Y0072844D01*
X0072506Y0074133D01*
X0070684Y0074133D01*
X0070484Y0073933D01*
X0067767Y0073933D01*
X0065767Y0071933D01*
X0064595Y0070761D01*
X0064595Y0060761D01*
X0063767Y0059933D01*
X0057167Y0059933D01*
X0049295Y0052061D01*
X0049295Y0051844D01*
X0049095Y0051644D01*
X0049095Y0049822D01*
X0050384Y0048533D01*
X0050584Y0048533D01*
X0050484Y0048433D01*
X0048254Y0048433D01*
X0048254Y0048859D01*
X0047551Y0049562D01*
X0045139Y0049562D01*
X0042095Y0052606D01*
X0042095Y0063822D01*
X0042095Y0063822D01*
X0042095Y0062322D01*
X0042984Y0061433D01*
X0042395Y0060844D01*
X0042395Y0059022D01*
X0043484Y0057933D01*
X0043395Y0057844D01*
X0043395Y0056022D01*
X0044684Y0054733D01*
X0046506Y0054733D01*
X0047795Y0056022D01*
X0047795Y0057844D01*
X0046706Y0058933D01*
X0046795Y0059022D01*
X0046795Y0060844D01*
X0045906Y0061733D01*
X0046495Y0062322D01*
X0046495Y0064144D01*
X0045295Y0065344D01*
X0045295Y0065533D01*
X0046506Y0065533D01*
X0047795Y0066822D01*
X0047795Y0068644D01*
X0046506Y0069933D01*
X0045795Y0069933D01*
X0045795Y0070133D01*
X0046306Y0070133D01*
X0047595Y0071422D01*
X0047595Y0073244D01*
X0046306Y0074533D01*
X0044484Y0074533D01*
X0043195Y0073244D01*
X0043195Y0072858D01*
X0043095Y0073015D01*
X0043095Y0073822D01*
X0043295Y0074022D01*
X0043295Y0075844D01*
X0042006Y0077133D01*
X0041095Y0077133D01*
X0041095Y0090822D01*
X0041684Y0090233D01*
X0043506Y0090233D01*
X0044106Y0090833D01*
X0048432Y0090833D01*
X0053432Y0085833D01*
X0058988Y0085833D01*
X0058620Y0084945D01*
X0058620Y0083721D01*
X0059088Y0082591D01*
X0059953Y0081726D01*
X0061083Y0081258D01*
X0062307Y0081258D01*
X0063437Y0081726D01*
X0064302Y0082591D01*
X0064770Y0083721D01*
X0064770Y0084945D01*
X0064402Y0085833D01*
X0064584Y0085833D01*
X0065184Y0085233D01*
X0067006Y0085233D01*
X0068295Y0086522D01*
X0068295Y0088344D01*
X0068295Y0088112D02*
X0069587Y0088112D01*
X0070386Y0087314D02*
X0068295Y0087314D01*
X0068289Y0086515D02*
X0071184Y0086515D01*
X0071983Y0085717D02*
X0067490Y0085717D01*
X0064770Y0084918D02*
X0072781Y0084918D01*
X0073580Y0084120D02*
X0064770Y0084120D01*
X0064604Y0083321D02*
X0074095Y0083321D01*
X0074095Y0082523D02*
X0064234Y0082523D01*
X0063433Y0081724D02*
X0074095Y0081724D01*
X0074095Y0080926D02*
X0041095Y0080926D01*
X0041095Y0081724D02*
X0059958Y0081724D01*
X0059157Y0082523D02*
X0041095Y0082523D01*
X0041095Y0083321D02*
X0058786Y0083321D01*
X0058620Y0084120D02*
X0041095Y0084120D01*
X0041095Y0084918D02*
X0058620Y0084918D01*
X0058940Y0085717D02*
X0041095Y0085717D01*
X0041095Y0086515D02*
X0052750Y0086515D01*
X0051951Y0087314D02*
X0041095Y0087314D01*
X0041095Y0088112D02*
X0051153Y0088112D01*
X0050354Y0088911D02*
X0041095Y0088911D01*
X0041095Y0089710D02*
X0049556Y0089710D01*
X0048757Y0090508D02*
X0043781Y0090508D01*
X0042595Y0092433D02*
X0049095Y0092433D01*
X0041409Y0090508D02*
X0041095Y0090508D01*
X0041095Y0080127D02*
X0074095Y0080127D01*
X0074095Y0079329D02*
X0041095Y0079329D01*
X0041095Y0078530D02*
X0074095Y0078530D01*
X0074095Y0077732D02*
X0041095Y0077732D01*
X0042206Y0076933D02*
X0074095Y0076933D01*
X0074095Y0076135D02*
X0043005Y0076135D01*
X0043295Y0075336D02*
X0074095Y0075336D01*
X0074095Y0074538D02*
X0043295Y0074538D01*
X0043095Y0073739D02*
X0043690Y0073739D01*
X0043195Y0072941D02*
X0043143Y0072941D01*
X0046719Y0070545D02*
X0064595Y0070545D01*
X0064595Y0069747D02*
X0046693Y0069747D01*
X0047491Y0068948D02*
X0064595Y0068948D01*
X0064595Y0068150D02*
X0047795Y0068150D01*
X0047795Y0067351D02*
X0064595Y0067351D01*
X0064595Y0066553D02*
X0047526Y0066553D01*
X0046728Y0065754D02*
X0064595Y0065754D01*
X0064595Y0064956D02*
X0045684Y0064956D01*
X0046482Y0064157D02*
X0064595Y0064157D01*
X0064595Y0063359D02*
X0046495Y0063359D01*
X0046495Y0062560D02*
X0064595Y0062560D01*
X0064595Y0061762D02*
X0045935Y0061762D01*
X0046676Y0060963D02*
X0064595Y0060963D01*
X0063998Y0060165D02*
X0046795Y0060165D01*
X0046795Y0059366D02*
X0056600Y0059366D01*
X0055801Y0058568D02*
X0047072Y0058568D01*
X0047795Y0057769D02*
X0055003Y0057769D01*
X0054204Y0056971D02*
X0047795Y0056971D01*
X0047795Y0056172D02*
X0053406Y0056172D01*
X0052607Y0055374D02*
X0047147Y0055374D01*
X0050212Y0052978D02*
X0042095Y0052978D01*
X0042095Y0053777D02*
X0051010Y0053777D01*
X0051809Y0054575D02*
X0042095Y0054575D01*
X0042095Y0055374D02*
X0044043Y0055374D01*
X0043395Y0056172D02*
X0042095Y0056172D01*
X0042095Y0056971D02*
X0043395Y0056971D01*
X0043395Y0057769D02*
X0042095Y0057769D01*
X0042095Y0058568D02*
X0042849Y0058568D01*
X0042395Y0059366D02*
X0042095Y0059366D01*
X0042095Y0060165D02*
X0042395Y0060165D01*
X0042514Y0060963D02*
X0042095Y0060963D01*
X0042095Y0061762D02*
X0042655Y0061762D01*
X0042095Y0062560D02*
X0042095Y0062560D01*
X0042095Y0063359D02*
X0042095Y0063359D01*
X0038095Y0063359D02*
X0037486Y0063359D01*
X0037486Y0064157D02*
X0038095Y0064157D01*
X0038095Y0064956D02*
X0037193Y0064956D01*
X0036862Y0065754D02*
X0038095Y0065754D01*
X0038095Y0066553D02*
X0037826Y0066553D01*
X0038095Y0062560D02*
X0037486Y0062560D01*
X0037262Y0061762D02*
X0038095Y0061762D01*
X0038095Y0060963D02*
X0036931Y0060963D01*
X0036401Y0060165D02*
X0038095Y0060165D01*
X0038095Y0059366D02*
X0035602Y0059366D01*
X0034010Y0058568D02*
X0038095Y0058568D01*
X0038095Y0057769D02*
X0034528Y0057769D01*
X0035817Y0056971D02*
X0038095Y0056971D01*
X0038095Y0056172D02*
X0036616Y0056172D01*
X0037020Y0055374D02*
X0038095Y0055374D01*
X0038095Y0054575D02*
X0037351Y0054575D01*
X0037486Y0053777D02*
X0038095Y0053777D01*
X0038095Y0052978D02*
X0037486Y0052978D01*
X0037435Y0052179D02*
X0038095Y0052179D01*
X0038095Y0051381D02*
X0037104Y0051381D01*
X0036774Y0050582D02*
X0038462Y0050582D01*
X0039260Y0049784D02*
X0036020Y0049784D01*
X0035018Y0048985D02*
X0040059Y0048985D01*
X0039267Y0049777D02*
X0039267Y0049777D01*
X0040857Y0048187D02*
X0028995Y0048187D01*
X0028995Y0048985D02*
X0030172Y0048985D01*
X0029170Y0049784D02*
X0028995Y0049784D01*
X0028995Y0047388D02*
X0029791Y0047388D01*
X0035399Y0047388D02*
X0041656Y0047388D01*
X0042438Y0044194D02*
X0040445Y0044194D01*
X0044917Y0049784D02*
X0049133Y0049784D01*
X0049095Y0050582D02*
X0044118Y0050582D01*
X0043320Y0051381D02*
X0049095Y0051381D01*
X0049413Y0052179D02*
X0042521Y0052179D01*
X0048127Y0048985D02*
X0049931Y0048985D01*
X0051095Y0043433D02*
X0051095Y0040433D01*
X0052595Y0038933D01*
X0063095Y0038933D01*
X0064595Y0040433D01*
X0064595Y0043433D01*
X0065595Y0044433D01*
X0074595Y0044433D01*
X0076095Y0045933D01*
X0076095Y0050433D01*
X0080295Y0048187D02*
X0088295Y0048187D01*
X0088295Y0048985D02*
X0085018Y0048985D01*
X0086020Y0049784D02*
X0088835Y0049784D01*
X0086774Y0050582D02*
X0124195Y0050582D01*
X0124195Y0051381D02*
X0087104Y0051381D01*
X0087435Y0052179D02*
X0124195Y0052179D01*
X0124195Y0052978D02*
X0087486Y0052978D01*
X0087486Y0053777D02*
X0091640Y0053777D01*
X0090895Y0054575D02*
X0087351Y0054575D01*
X0087020Y0055374D02*
X0090895Y0055374D01*
X0090895Y0056172D02*
X0086616Y0056172D01*
X0089744Y0056971D02*
X0091521Y0056971D01*
X0082595Y0063276D02*
X0068095Y0048776D01*
X0068095Y0046933D01*
X0059691Y0042029D02*
X0057965Y0042029D01*
X0068595Y0065044D02*
X0068595Y0069105D01*
X0069424Y0069933D01*
X0070484Y0069933D01*
X0070684Y0069733D01*
X0071895Y0069733D01*
X0071895Y0068522D01*
X0073184Y0067233D01*
X0074627Y0067233D01*
X0072117Y0064723D01*
X0071106Y0065733D01*
X0069284Y0065733D01*
X0068595Y0065044D01*
X0068595Y0065754D02*
X0073148Y0065754D01*
X0072350Y0064956D02*
X0071884Y0064956D01*
X0073947Y0066553D02*
X0068595Y0066553D01*
X0068595Y0067351D02*
X0073066Y0067351D01*
X0072267Y0068150D02*
X0068595Y0068150D01*
X0068595Y0068948D02*
X0071895Y0068948D01*
X0070670Y0069747D02*
X0069237Y0069747D01*
X0066774Y0072941D02*
X0047595Y0072941D01*
X0047595Y0072142D02*
X0065976Y0072142D01*
X0065177Y0071344D02*
X0047517Y0071344D01*
X0047100Y0073739D02*
X0067573Y0073739D01*
X0072900Y0073739D02*
X0074095Y0073739D01*
X0074095Y0072941D02*
X0073699Y0072941D01*
X0073795Y0072142D02*
X0074095Y0072142D01*
X0082595Y0073394D02*
X0084056Y0073394D01*
X0089095Y0078433D01*
X0089095Y0097433D01*
X0088095Y0098433D01*
X0090206Y0100090D02*
X0100848Y0100090D01*
X0100848Y0099292D02*
X0091004Y0099292D01*
X0091803Y0098493D02*
X0100848Y0098493D01*
X0100848Y0097695D02*
X0092601Y0097695D01*
X0093400Y0096896D02*
X0100848Y0096896D01*
X0100834Y0096098D02*
X0094198Y0096098D01*
X0094997Y0095299D02*
X0101471Y0095299D01*
X0097832Y0094501D02*
X0095795Y0094501D01*
X0095845Y0093702D02*
X0097521Y0093702D01*
X0104345Y0088911D02*
X0109332Y0088911D01*
X0109332Y0088112D02*
X0104345Y0088112D01*
X0104345Y0087314D02*
X0109332Y0087314D01*
X0109332Y0086515D02*
X0104345Y0086515D01*
X0104345Y0085717D02*
X0109332Y0085717D01*
X0109342Y0084918D02*
X0104345Y0084918D01*
X0090345Y0073739D02*
X0089669Y0073739D01*
X0090345Y0072941D02*
X0088871Y0072941D01*
X0088345Y0072142D02*
X0090345Y0072142D01*
X0090345Y0071344D02*
X0088345Y0071344D01*
X0088345Y0070545D02*
X0090345Y0070545D01*
X0090514Y0069747D02*
X0088177Y0069747D01*
X0087848Y0068948D02*
X0102822Y0068948D01*
X0102355Y0069747D02*
X0102177Y0069747D01*
X0111385Y0048985D02*
X0117805Y0048985D01*
X0116432Y0048187D02*
X0112758Y0048187D01*
X0113557Y0047388D02*
X0115634Y0047388D01*
X0115195Y0046590D02*
X0113996Y0046590D01*
X0114326Y0045791D02*
X0114864Y0045791D01*
X0114704Y0044993D02*
X0114486Y0044993D01*
X0114486Y0044194D02*
X0114704Y0044194D01*
X0114731Y0043396D02*
X0114459Y0043396D01*
X0114129Y0042597D02*
X0115062Y0042597D01*
X0115392Y0041799D02*
X0113798Y0041799D01*
X0113079Y0041000D02*
X0116111Y0041000D01*
X0117030Y0040202D02*
X0112161Y0040202D01*
X0112304Y0038605D02*
X0114704Y0038605D01*
X0114704Y0037806D02*
X0113139Y0037806D01*
X0113823Y0037008D02*
X0114704Y0037008D01*
X0114704Y0036209D02*
X0114153Y0036209D01*
X0114484Y0035411D02*
X0114704Y0035411D01*
X0114704Y0034612D02*
X0114486Y0034612D01*
X0114486Y0033814D02*
X0114704Y0033814D01*
X0114704Y0033015D02*
X0114302Y0033015D01*
X0113971Y0032217D02*
X0114704Y0032217D01*
X0114704Y0031418D02*
X0113497Y0031418D01*
X0112699Y0030620D02*
X0114704Y0030620D01*
X0115128Y0029821D02*
X0111242Y0029821D01*
X0088329Y0047388D02*
X0085399Y0047388D01*
X0064700Y0085717D02*
X0064450Y0085717D01*
X0067990Y0089710D02*
X0060764Y0089710D01*
X0060764Y0090508D02*
X0067192Y0090508D01*
X0066393Y0091307D02*
X0060764Y0091307D01*
X0057595Y0097287D02*
X0057741Y0097433D01*
X0043970Y0108075D02*
X0037032Y0108075D01*
X0037486Y0107277D02*
X0043171Y0107277D01*
X0042373Y0106478D02*
X0037486Y0106478D01*
X0037486Y0105680D02*
X0041845Y0105680D01*
X0041095Y0103433D02*
X0032595Y0103433D01*
X0028995Y0108874D02*
X0124195Y0108874D01*
X0124195Y0109672D02*
X0028995Y0109672D01*
X0028995Y0110471D02*
X0124195Y0110471D01*
X0124195Y0111269D02*
X0028995Y0111269D01*
X0028995Y0059366D02*
X0029588Y0059366D01*
X0028995Y0058568D02*
X0031181Y0058568D01*
X0030663Y0057769D02*
X0028995Y0057769D01*
X0028995Y0056971D02*
X0029373Y0056971D01*
X0087032Y0108075D02*
X0124195Y0108075D01*
D18*
X0096595Y0083433D03*
X0099595Y0080433D03*
X0102595Y0076933D03*
X0110125Y0081073D03*
X0102595Y0060433D03*
X0061695Y0084333D03*
D19*
X0070243Y0092785D02*
X0078054Y0092785D01*
X0078054Y0092687D02*
X0070342Y0092687D01*
X0070440Y0092588D02*
X0078054Y0092588D01*
X0078054Y0092490D02*
X0078746Y0090821D01*
X0080023Y0089544D01*
X0081692Y0088853D01*
X0083498Y0088853D01*
X0085167Y0089544D01*
X0086445Y0090821D01*
X0087136Y0092490D01*
X0087136Y0094297D01*
X0086445Y0095966D01*
X0085167Y0097243D01*
X0083498Y0097935D01*
X0081692Y0097935D01*
X0080023Y0097243D01*
X0078746Y0095966D01*
X0078054Y0094297D01*
X0078054Y0092490D01*
X0078055Y0092490D02*
X0070539Y0092490D01*
X0070637Y0092391D02*
X0078095Y0092391D01*
X0078136Y0092292D02*
X0070736Y0092292D01*
X0070834Y0092194D02*
X0078177Y0092194D01*
X0078218Y0092095D02*
X0070933Y0092095D01*
X0071031Y0091997D02*
X0078259Y0091997D01*
X0078299Y0091898D02*
X0071130Y0091898D01*
X0071228Y0091800D02*
X0078340Y0091800D01*
X0078381Y0091701D02*
X0071327Y0091701D01*
X0071425Y0091603D02*
X0078422Y0091603D01*
X0078463Y0091504D02*
X0071524Y0091504D01*
X0071595Y0091433D02*
X0068095Y0094933D01*
X0067929Y0094933D01*
X0067779Y0095083D01*
X0063595Y0095083D01*
X0063595Y0101283D01*
X0063761Y0101283D01*
X0064845Y0102367D01*
X0064845Y0103899D01*
X0063761Y0104983D01*
X0062229Y0104983D01*
X0061145Y0103899D01*
X0061145Y0102367D01*
X0062079Y0101433D01*
X0055095Y0101433D01*
X0053945Y0102583D01*
X0053945Y0103199D01*
X0052861Y0104283D01*
X0051329Y0104283D01*
X0050245Y0103199D01*
X0050245Y0102917D01*
X0049262Y0101933D01*
X0044095Y0101933D01*
X0043095Y0103433D01*
X0043095Y0105433D01*
X0045095Y0107433D01*
X0077095Y0107433D01*
X0078054Y0106474D01*
X0078054Y0099390D01*
X0078552Y0098892D01*
X0086638Y0098892D01*
X0087136Y0099390D01*
X0087136Y0099433D01*
X0089095Y0099433D01*
X0094595Y0093933D01*
X0094595Y0085287D01*
X0094285Y0084977D01*
X0093870Y0083975D01*
X0093870Y0082891D01*
X0094285Y0081889D01*
X0094595Y0081579D01*
X0094595Y0080433D01*
X0087095Y0072933D01*
X0087095Y0070433D01*
X0086595Y0069933D01*
X0077595Y0069933D01*
X0077595Y0070100D01*
X0077745Y0070250D01*
X0077745Y0085117D01*
X0073594Y0089268D01*
X0071595Y0091433D01*
X0071620Y0091406D02*
X0078503Y0091406D01*
X0078544Y0091307D02*
X0071711Y0091307D01*
X0071802Y0091209D02*
X0078585Y0091209D01*
X0078626Y0091110D02*
X0071893Y0091110D01*
X0071984Y0091012D02*
X0078667Y0091012D01*
X0078707Y0090913D02*
X0072075Y0090913D01*
X0072166Y0090815D02*
X0078752Y0090815D01*
X0078851Y0090716D02*
X0072257Y0090716D01*
X0072348Y0090618D02*
X0078949Y0090618D01*
X0079048Y0090519D02*
X0072439Y0090519D01*
X0072530Y0090421D02*
X0079146Y0090421D01*
X0079245Y0090322D02*
X0072621Y0090322D01*
X0072711Y0090224D02*
X0079343Y0090224D01*
X0079442Y0090125D02*
X0072802Y0090125D01*
X0072893Y0090027D02*
X0079540Y0090027D01*
X0079639Y0089928D02*
X0072984Y0089928D01*
X0073075Y0089830D02*
X0079737Y0089830D01*
X0079836Y0089731D02*
X0073166Y0089731D01*
X0073257Y0089633D02*
X0079934Y0089633D01*
X0080047Y0089534D02*
X0073348Y0089534D01*
X0073439Y0089436D02*
X0080285Y0089436D01*
X0080522Y0089337D02*
X0073530Y0089337D01*
X0073623Y0089239D02*
X0080760Y0089239D01*
X0080998Y0089140D02*
X0073722Y0089140D01*
X0073820Y0089042D02*
X0081236Y0089042D01*
X0081474Y0088943D02*
X0073919Y0088943D01*
X0074017Y0088845D02*
X0094595Y0088845D01*
X0094595Y0088943D02*
X0083716Y0088943D01*
X0083954Y0089042D02*
X0094595Y0089042D01*
X0094595Y0089140D02*
X0084192Y0089140D01*
X0084430Y0089239D02*
X0094595Y0089239D01*
X0094595Y0089337D02*
X0084668Y0089337D01*
X0084906Y0089436D02*
X0094595Y0089436D01*
X0094595Y0089534D02*
X0085143Y0089534D01*
X0085256Y0089633D02*
X0094595Y0089633D01*
X0094595Y0089731D02*
X0085354Y0089731D01*
X0085453Y0089830D02*
X0094595Y0089830D01*
X0094595Y0089928D02*
X0085552Y0089928D01*
X0085650Y0090027D02*
X0094595Y0090027D01*
X0094595Y0090125D02*
X0085749Y0090125D01*
X0085847Y0090224D02*
X0094595Y0090224D01*
X0094595Y0090322D02*
X0085946Y0090322D01*
X0086044Y0090421D02*
X0094595Y0090421D01*
X0094595Y0090519D02*
X0086143Y0090519D01*
X0086241Y0090618D02*
X0094595Y0090618D01*
X0094595Y0090716D02*
X0086340Y0090716D01*
X0086438Y0090815D02*
X0094595Y0090815D01*
X0094595Y0090913D02*
X0086483Y0090913D01*
X0086524Y0091012D02*
X0094595Y0091012D01*
X0094595Y0091110D02*
X0086564Y0091110D01*
X0086605Y0091209D02*
X0094595Y0091209D01*
X0094595Y0091307D02*
X0086646Y0091307D01*
X0086687Y0091406D02*
X0094595Y0091406D01*
X0094595Y0091504D02*
X0086728Y0091504D01*
X0086768Y0091603D02*
X0094595Y0091603D01*
X0094595Y0091701D02*
X0086809Y0091701D01*
X0086850Y0091800D02*
X0094595Y0091800D01*
X0094595Y0091898D02*
X0086891Y0091898D01*
X0086932Y0091997D02*
X0094595Y0091997D01*
X0094595Y0092095D02*
X0086972Y0092095D01*
X0087013Y0092194D02*
X0094595Y0092194D01*
X0094595Y0092292D02*
X0087054Y0092292D01*
X0087095Y0092391D02*
X0094595Y0092391D01*
X0094595Y0092490D02*
X0087136Y0092490D01*
X0087136Y0092588D02*
X0094595Y0092588D01*
X0094595Y0092687D02*
X0087136Y0092687D01*
X0087136Y0092785D02*
X0094595Y0092785D01*
X0094595Y0092884D02*
X0087136Y0092884D01*
X0087136Y0092982D02*
X0094595Y0092982D01*
X0094595Y0093081D02*
X0087136Y0093081D01*
X0087136Y0093179D02*
X0094595Y0093179D01*
X0094595Y0093278D02*
X0087136Y0093278D01*
X0087136Y0093376D02*
X0094595Y0093376D01*
X0094595Y0093475D02*
X0087136Y0093475D01*
X0087136Y0093573D02*
X0094595Y0093573D01*
X0094595Y0093672D02*
X0087136Y0093672D01*
X0087136Y0093770D02*
X0094595Y0093770D01*
X0094595Y0093869D02*
X0087136Y0093869D01*
X0087136Y0093967D02*
X0094561Y0093967D01*
X0094463Y0094066D02*
X0087136Y0094066D01*
X0087136Y0094164D02*
X0094364Y0094164D01*
X0094266Y0094263D02*
X0087136Y0094263D01*
X0087109Y0094361D02*
X0094167Y0094361D01*
X0094068Y0094460D02*
X0087069Y0094460D01*
X0087028Y0094558D02*
X0093970Y0094558D01*
X0093871Y0094657D02*
X0086987Y0094657D01*
X0086946Y0094755D02*
X0093773Y0094755D01*
X0093674Y0094854D02*
X0086905Y0094854D01*
X0086865Y0094952D02*
X0093576Y0094952D01*
X0093477Y0095051D02*
X0086824Y0095051D01*
X0086783Y0095149D02*
X0093379Y0095149D01*
X0093280Y0095248D02*
X0086742Y0095248D01*
X0086701Y0095346D02*
X0093182Y0095346D01*
X0093083Y0095445D02*
X0086661Y0095445D01*
X0086620Y0095543D02*
X0092985Y0095543D01*
X0092886Y0095642D02*
X0086579Y0095642D01*
X0086538Y0095740D02*
X0092788Y0095740D01*
X0092689Y0095839D02*
X0086497Y0095839D01*
X0086457Y0095937D02*
X0092591Y0095937D01*
X0092492Y0096036D02*
X0086375Y0096036D01*
X0086276Y0096134D02*
X0092394Y0096134D01*
X0092295Y0096233D02*
X0086178Y0096233D01*
X0086079Y0096331D02*
X0092197Y0096331D01*
X0092098Y0096430D02*
X0085981Y0096430D01*
X0085882Y0096528D02*
X0092000Y0096528D01*
X0091901Y0096627D02*
X0085784Y0096627D01*
X0085685Y0096725D02*
X0091803Y0096725D01*
X0091704Y0096824D02*
X0085587Y0096824D01*
X0085488Y0096923D02*
X0091606Y0096923D01*
X0091507Y0097021D02*
X0085390Y0097021D01*
X0085291Y0097120D02*
X0091409Y0097120D01*
X0091310Y0097218D02*
X0085193Y0097218D01*
X0084991Y0097317D02*
X0091212Y0097317D01*
X0091113Y0097415D02*
X0084753Y0097415D01*
X0084515Y0097514D02*
X0091015Y0097514D01*
X0090916Y0097612D02*
X0084277Y0097612D01*
X0084039Y0097711D02*
X0090818Y0097711D01*
X0090719Y0097809D02*
X0083801Y0097809D01*
X0083564Y0097908D02*
X0090621Y0097908D01*
X0090522Y0098006D02*
X0063595Y0098006D01*
X0063595Y0097908D02*
X0081627Y0097908D01*
X0081389Y0097809D02*
X0063595Y0097809D01*
X0063595Y0097711D02*
X0081151Y0097711D01*
X0080913Y0097612D02*
X0063595Y0097612D01*
X0063595Y0097514D02*
X0080675Y0097514D01*
X0080438Y0097415D02*
X0063595Y0097415D01*
X0063595Y0097317D02*
X0080200Y0097317D01*
X0079998Y0097218D02*
X0063595Y0097218D01*
X0063595Y0097120D02*
X0079899Y0097120D01*
X0079801Y0097021D02*
X0063595Y0097021D01*
X0063595Y0096923D02*
X0079702Y0096923D01*
X0079604Y0096824D02*
X0063595Y0096824D01*
X0063595Y0096725D02*
X0079505Y0096725D01*
X0079407Y0096627D02*
X0063595Y0096627D01*
X0063595Y0096528D02*
X0079308Y0096528D01*
X0079210Y0096430D02*
X0063595Y0096430D01*
X0063595Y0096331D02*
X0079111Y0096331D01*
X0079013Y0096233D02*
X0063595Y0096233D01*
X0063595Y0096134D02*
X0078914Y0096134D01*
X0078815Y0096036D02*
X0063595Y0096036D01*
X0063595Y0095937D02*
X0078734Y0095937D01*
X0078693Y0095839D02*
X0063595Y0095839D01*
X0063595Y0095740D02*
X0078652Y0095740D01*
X0078611Y0095642D02*
X0063595Y0095642D01*
X0063595Y0095543D02*
X0078570Y0095543D01*
X0078530Y0095445D02*
X0063595Y0095445D01*
X0063595Y0095346D02*
X0078489Y0095346D01*
X0078448Y0095248D02*
X0063595Y0095248D01*
X0063595Y0095149D02*
X0078407Y0095149D01*
X0078366Y0095051D02*
X0067811Y0095051D01*
X0067909Y0094952D02*
X0078326Y0094952D01*
X0078285Y0094854D02*
X0068174Y0094854D01*
X0068273Y0094755D02*
X0078244Y0094755D01*
X0078203Y0094657D02*
X0068371Y0094657D01*
X0068470Y0094558D02*
X0078162Y0094558D01*
X0078122Y0094460D02*
X0068568Y0094460D01*
X0068667Y0094361D02*
X0078081Y0094361D01*
X0078054Y0094263D02*
X0068766Y0094263D01*
X0068864Y0094164D02*
X0078054Y0094164D01*
X0078054Y0094066D02*
X0068963Y0094066D01*
X0069061Y0093967D02*
X0078054Y0093967D01*
X0078054Y0093869D02*
X0069160Y0093869D01*
X0069258Y0093770D02*
X0078054Y0093770D01*
X0078054Y0093672D02*
X0069357Y0093672D01*
X0069455Y0093573D02*
X0078054Y0093573D01*
X0078054Y0093475D02*
X0069554Y0093475D01*
X0069652Y0093376D02*
X0078054Y0093376D01*
X0078054Y0093278D02*
X0069751Y0093278D01*
X0069849Y0093179D02*
X0078054Y0093179D01*
X0078054Y0093081D02*
X0069948Y0093081D01*
X0070046Y0092982D02*
X0078054Y0092982D01*
X0078054Y0092884D02*
X0070145Y0092884D01*
X0074116Y0088746D02*
X0094595Y0088746D01*
X0094595Y0088648D02*
X0074214Y0088648D01*
X0074313Y0088549D02*
X0094595Y0088549D01*
X0094595Y0088451D02*
X0074411Y0088451D01*
X0074510Y0088352D02*
X0094595Y0088352D01*
X0094595Y0088254D02*
X0074608Y0088254D01*
X0074707Y0088155D02*
X0094595Y0088155D01*
X0094595Y0088056D02*
X0074805Y0088056D01*
X0074904Y0087958D02*
X0094595Y0087958D01*
X0094595Y0087859D02*
X0083680Y0087859D01*
X0083498Y0087935D02*
X0081692Y0087935D01*
X0080023Y0087243D01*
X0078746Y0085966D01*
X0078054Y0084297D01*
X0078054Y0082490D01*
X0078746Y0080821D01*
X0080023Y0079544D01*
X0081692Y0078853D01*
X0083498Y0078853D01*
X0085167Y0079544D01*
X0086445Y0080821D01*
X0087136Y0082490D01*
X0087136Y0084297D01*
X0086445Y0085966D01*
X0085167Y0087243D01*
X0083498Y0087935D01*
X0083918Y0087761D02*
X0094595Y0087761D01*
X0094595Y0087662D02*
X0084155Y0087662D01*
X0084393Y0087564D02*
X0094595Y0087564D01*
X0094595Y0087465D02*
X0084631Y0087465D01*
X0084869Y0087367D02*
X0094595Y0087367D01*
X0094595Y0087268D02*
X0085107Y0087268D01*
X0085241Y0087170D02*
X0094595Y0087170D01*
X0094595Y0087071D02*
X0085339Y0087071D01*
X0085438Y0086973D02*
X0094595Y0086973D01*
X0094595Y0086874D02*
X0085536Y0086874D01*
X0085635Y0086776D02*
X0094595Y0086776D01*
X0094595Y0086677D02*
X0085733Y0086677D01*
X0085832Y0086579D02*
X0094595Y0086579D01*
X0094595Y0086480D02*
X0085930Y0086480D01*
X0086029Y0086382D02*
X0094595Y0086382D01*
X0094595Y0086283D02*
X0086127Y0086283D01*
X0086226Y0086185D02*
X0094595Y0086185D01*
X0094595Y0086086D02*
X0086324Y0086086D01*
X0086423Y0085988D02*
X0094595Y0085988D01*
X0094595Y0085889D02*
X0086477Y0085889D01*
X0086517Y0085791D02*
X0094595Y0085791D01*
X0094595Y0085692D02*
X0086558Y0085692D01*
X0086599Y0085594D02*
X0094595Y0085594D01*
X0094595Y0085495D02*
X0086640Y0085495D01*
X0086681Y0085397D02*
X0094595Y0085397D01*
X0094595Y0085298D02*
X0086721Y0085298D01*
X0086762Y0085200D02*
X0094508Y0085200D01*
X0094410Y0085101D02*
X0086803Y0085101D01*
X0086844Y0085003D02*
X0094311Y0085003D01*
X0094255Y0084904D02*
X0086885Y0084904D01*
X0086925Y0084806D02*
X0094214Y0084806D01*
X0094173Y0084707D02*
X0086966Y0084707D01*
X0087007Y0084609D02*
X0094133Y0084609D01*
X0094092Y0084510D02*
X0087048Y0084510D01*
X0087089Y0084412D02*
X0094051Y0084412D01*
X0094010Y0084313D02*
X0087129Y0084313D01*
X0087136Y0084215D02*
X0093969Y0084215D01*
X0093929Y0084116D02*
X0087136Y0084116D01*
X0087136Y0084018D02*
X0093888Y0084018D01*
X0093870Y0083919D02*
X0087136Y0083919D01*
X0087136Y0083821D02*
X0093870Y0083821D01*
X0093870Y0083722D02*
X0087136Y0083722D01*
X0087136Y0083623D02*
X0093870Y0083623D01*
X0093870Y0083525D02*
X0087136Y0083525D01*
X0087136Y0083426D02*
X0093870Y0083426D01*
X0093870Y0083328D02*
X0087136Y0083328D01*
X0087136Y0083229D02*
X0093870Y0083229D01*
X0093870Y0083131D02*
X0087136Y0083131D01*
X0087136Y0083032D02*
X0093870Y0083032D01*
X0093870Y0082934D02*
X0087136Y0082934D01*
X0087136Y0082835D02*
X0093893Y0082835D01*
X0093934Y0082737D02*
X0087136Y0082737D01*
X0087136Y0082638D02*
X0093975Y0082638D01*
X0094016Y0082540D02*
X0087136Y0082540D01*
X0087116Y0082441D02*
X0094056Y0082441D01*
X0094097Y0082343D02*
X0087075Y0082343D01*
X0087034Y0082244D02*
X0094138Y0082244D01*
X0094179Y0082146D02*
X0086993Y0082146D01*
X0086953Y0082047D02*
X0094220Y0082047D01*
X0094260Y0081949D02*
X0086912Y0081949D01*
X0086871Y0081850D02*
X0094324Y0081850D01*
X0094423Y0081752D02*
X0086830Y0081752D01*
X0086789Y0081653D02*
X0094521Y0081653D01*
X0094595Y0081555D02*
X0086748Y0081555D01*
X0086708Y0081456D02*
X0094595Y0081456D01*
X0094595Y0081358D02*
X0086667Y0081358D01*
X0086626Y0081259D02*
X0094595Y0081259D01*
X0094595Y0081161D02*
X0086585Y0081161D01*
X0086544Y0081062D02*
X0094595Y0081062D01*
X0094595Y0080964D02*
X0086504Y0080964D01*
X0086463Y0080865D02*
X0094595Y0080865D01*
X0094595Y0080767D02*
X0086390Y0080767D01*
X0086291Y0080668D02*
X0094595Y0080668D01*
X0094595Y0080570D02*
X0086193Y0080570D01*
X0086094Y0080471D02*
X0094595Y0080471D01*
X0094535Y0080373D02*
X0085996Y0080373D01*
X0085897Y0080274D02*
X0094436Y0080274D01*
X0094338Y0080176D02*
X0085799Y0080176D01*
X0085700Y0080077D02*
X0094239Y0080077D01*
X0094141Y0079979D02*
X0085602Y0079979D01*
X0085503Y0079880D02*
X0094042Y0079880D01*
X0093944Y0079782D02*
X0085405Y0079782D01*
X0085306Y0079683D02*
X0093845Y0079683D01*
X0093747Y0079585D02*
X0085208Y0079585D01*
X0085027Y0079486D02*
X0093648Y0079486D01*
X0093550Y0079388D02*
X0084789Y0079388D01*
X0084552Y0079289D02*
X0093451Y0079289D01*
X0093353Y0079190D02*
X0084314Y0079190D01*
X0084076Y0079092D02*
X0093254Y0079092D01*
X0093156Y0078993D02*
X0083838Y0078993D01*
X0083600Y0078895D02*
X0093057Y0078895D01*
X0092959Y0078796D02*
X0077745Y0078796D01*
X0077745Y0078698D02*
X0092860Y0078698D01*
X0092761Y0078599D02*
X0077745Y0078599D01*
X0077745Y0078501D02*
X0092663Y0078501D01*
X0092564Y0078402D02*
X0077745Y0078402D01*
X0077745Y0078304D02*
X0092466Y0078304D01*
X0092367Y0078205D02*
X0077745Y0078205D01*
X0077745Y0078107D02*
X0092269Y0078107D01*
X0092170Y0078008D02*
X0077745Y0078008D01*
X0077745Y0077910D02*
X0092072Y0077910D01*
X0091973Y0077811D02*
X0077745Y0077811D01*
X0077745Y0077713D02*
X0091875Y0077713D01*
X0091776Y0077614D02*
X0077745Y0077614D01*
X0077745Y0077516D02*
X0091678Y0077516D01*
X0091579Y0077417D02*
X0077745Y0077417D01*
X0077745Y0077319D02*
X0091481Y0077319D01*
X0091382Y0077220D02*
X0077745Y0077220D01*
X0077745Y0077122D02*
X0091284Y0077122D01*
X0091185Y0077023D02*
X0077745Y0077023D01*
X0077745Y0076925D02*
X0091087Y0076925D01*
X0090988Y0076826D02*
X0077745Y0076826D01*
X0077745Y0076728D02*
X0090890Y0076728D01*
X0090791Y0076629D02*
X0077745Y0076629D01*
X0077745Y0076531D02*
X0090693Y0076531D01*
X0090594Y0076432D02*
X0077745Y0076432D01*
X0077745Y0076334D02*
X0090496Y0076334D01*
X0090397Y0076235D02*
X0077745Y0076235D01*
X0077745Y0076137D02*
X0090299Y0076137D01*
X0090200Y0076038D02*
X0077745Y0076038D01*
X0077745Y0075940D02*
X0090102Y0075940D01*
X0090003Y0075841D02*
X0077745Y0075841D01*
X0077745Y0075743D02*
X0089905Y0075743D01*
X0089806Y0075644D02*
X0077745Y0075644D01*
X0077745Y0075546D02*
X0089708Y0075546D01*
X0089609Y0075447D02*
X0077745Y0075447D01*
X0077745Y0075349D02*
X0089511Y0075349D01*
X0089412Y0075250D02*
X0077745Y0075250D01*
X0077745Y0075152D02*
X0089314Y0075152D01*
X0089215Y0075053D02*
X0077745Y0075053D01*
X0077745Y0074954D02*
X0089117Y0074954D01*
X0089018Y0074856D02*
X0077745Y0074856D01*
X0077745Y0074757D02*
X0088920Y0074757D01*
X0088821Y0074659D02*
X0077745Y0074659D01*
X0077745Y0074560D02*
X0088723Y0074560D01*
X0088624Y0074462D02*
X0077745Y0074462D01*
X0077745Y0074363D02*
X0088525Y0074363D01*
X0088427Y0074265D02*
X0077745Y0074265D01*
X0077745Y0074166D02*
X0088328Y0074166D01*
X0088230Y0074068D02*
X0077745Y0074068D01*
X0077745Y0073969D02*
X0088131Y0073969D01*
X0088033Y0073871D02*
X0077745Y0073871D01*
X0077745Y0073772D02*
X0087934Y0073772D01*
X0087836Y0073674D02*
X0077745Y0073674D01*
X0077745Y0073575D02*
X0087737Y0073575D01*
X0087639Y0073477D02*
X0077745Y0073477D01*
X0077745Y0073378D02*
X0087540Y0073378D01*
X0087442Y0073280D02*
X0077745Y0073280D01*
X0077745Y0073181D02*
X0087343Y0073181D01*
X0087245Y0073083D02*
X0077745Y0073083D01*
X0077745Y0072984D02*
X0087146Y0072984D01*
X0087095Y0072886D02*
X0077745Y0072886D01*
X0077745Y0072787D02*
X0087095Y0072787D01*
X0087095Y0072689D02*
X0077745Y0072689D01*
X0077745Y0072590D02*
X0087095Y0072590D01*
X0087095Y0072492D02*
X0077745Y0072492D01*
X0077745Y0072393D02*
X0087095Y0072393D01*
X0087095Y0072295D02*
X0077745Y0072295D01*
X0077745Y0072196D02*
X0087095Y0072196D01*
X0087095Y0072098D02*
X0077745Y0072098D01*
X0077745Y0071999D02*
X0087095Y0071999D01*
X0087095Y0071901D02*
X0077745Y0071901D01*
X0077745Y0071802D02*
X0087095Y0071802D01*
X0087095Y0071704D02*
X0077745Y0071704D01*
X0077745Y0071605D02*
X0087095Y0071605D01*
X0087095Y0071507D02*
X0077745Y0071507D01*
X0077745Y0071408D02*
X0087095Y0071408D01*
X0087095Y0071310D02*
X0077745Y0071310D01*
X0077745Y0071211D02*
X0087095Y0071211D01*
X0087095Y0071113D02*
X0077745Y0071113D01*
X0077745Y0071014D02*
X0087095Y0071014D01*
X0087095Y0070916D02*
X0077745Y0070916D01*
X0077745Y0070817D02*
X0087095Y0070817D01*
X0087095Y0070719D02*
X0077745Y0070719D01*
X0077745Y0070620D02*
X0087095Y0070620D01*
X0087095Y0070521D02*
X0077745Y0070521D01*
X0077745Y0070423D02*
X0087085Y0070423D01*
X0086987Y0070324D02*
X0077745Y0070324D01*
X0077721Y0070226D02*
X0086888Y0070226D01*
X0086790Y0070127D02*
X0077623Y0070127D01*
X0077595Y0070029D02*
X0086691Y0070029D01*
X0087095Y0067933D02*
X0087095Y0060049D01*
X0086745Y0059699D01*
X0086745Y0058167D01*
X0087095Y0057817D01*
X0087095Y0057433D01*
X0084424Y0057433D01*
X0083498Y0057817D01*
X0081692Y0057817D01*
X0080766Y0057433D01*
X0078595Y0057433D01*
X0069595Y0048433D01*
X0069595Y0047700D01*
X0069252Y0047433D01*
X0069181Y0047433D01*
X0068932Y0047184D01*
X0068654Y0046968D01*
X0068650Y0046933D01*
X0065745Y0046933D01*
X0065745Y0049967D01*
X0066445Y0050667D01*
X0066445Y0052199D01*
X0065361Y0053283D01*
X0065095Y0053283D01*
X0065095Y0055933D01*
X0070845Y0061683D01*
X0070961Y0061683D01*
X0072045Y0062767D01*
X0072045Y0062883D01*
X0077095Y0067933D01*
X0087095Y0067933D01*
X0087095Y0067862D02*
X0077024Y0067862D01*
X0076925Y0067763D02*
X0087095Y0067763D01*
X0087095Y0067665D02*
X0076827Y0067665D01*
X0076728Y0067566D02*
X0087095Y0067566D01*
X0087095Y0067468D02*
X0076630Y0067468D01*
X0076531Y0067369D02*
X0087095Y0067369D01*
X0087095Y0067271D02*
X0076433Y0067271D01*
X0076334Y0067172D02*
X0087095Y0067172D01*
X0087095Y0067074D02*
X0076236Y0067074D01*
X0076137Y0066975D02*
X0087095Y0066975D01*
X0087095Y0066877D02*
X0076039Y0066877D01*
X0075940Y0066778D02*
X0087095Y0066778D01*
X0087095Y0066680D02*
X0075842Y0066680D01*
X0075743Y0066581D02*
X0087095Y0066581D01*
X0087095Y0066483D02*
X0075645Y0066483D01*
X0075546Y0066384D02*
X0087095Y0066384D01*
X0087095Y0066285D02*
X0075448Y0066285D01*
X0075349Y0066187D02*
X0087095Y0066187D01*
X0087095Y0066088D02*
X0075251Y0066088D01*
X0075152Y0065990D02*
X0087095Y0065990D01*
X0087095Y0065891D02*
X0075054Y0065891D01*
X0074955Y0065793D02*
X0087095Y0065793D01*
X0087095Y0065694D02*
X0074856Y0065694D01*
X0074758Y0065596D02*
X0087095Y0065596D01*
X0087095Y0065497D02*
X0074659Y0065497D01*
X0074561Y0065399D02*
X0087095Y0065399D01*
X0087095Y0065300D02*
X0074462Y0065300D01*
X0074364Y0065202D02*
X0087095Y0065202D01*
X0087095Y0065103D02*
X0074265Y0065103D01*
X0074167Y0065005D02*
X0087095Y0065005D01*
X0087095Y0064906D02*
X0074068Y0064906D01*
X0073970Y0064808D02*
X0087095Y0064808D01*
X0087095Y0064709D02*
X0073871Y0064709D01*
X0073773Y0064611D02*
X0087095Y0064611D01*
X0087095Y0064512D02*
X0073674Y0064512D01*
X0073576Y0064414D02*
X0087095Y0064414D01*
X0087095Y0064315D02*
X0073477Y0064315D01*
X0073379Y0064217D02*
X0087095Y0064217D01*
X0087095Y0064118D02*
X0073280Y0064118D01*
X0073182Y0064020D02*
X0087095Y0064020D01*
X0087095Y0063921D02*
X0073083Y0063921D01*
X0072985Y0063823D02*
X0087095Y0063823D01*
X0087095Y0063724D02*
X0072886Y0063724D01*
X0072788Y0063626D02*
X0087095Y0063626D01*
X0087095Y0063527D02*
X0072689Y0063527D01*
X0072591Y0063429D02*
X0087095Y0063429D01*
X0087095Y0063330D02*
X0072492Y0063330D01*
X0072394Y0063232D02*
X0087095Y0063232D01*
X0087095Y0063133D02*
X0072295Y0063133D01*
X0072197Y0063035D02*
X0087095Y0063035D01*
X0087095Y0062936D02*
X0072098Y0062936D01*
X0072045Y0062838D02*
X0087095Y0062838D01*
X0087095Y0062739D02*
X0072017Y0062739D01*
X0071919Y0062641D02*
X0087095Y0062641D01*
X0087095Y0062542D02*
X0071820Y0062542D01*
X0071722Y0062444D02*
X0087095Y0062444D01*
X0087095Y0062345D02*
X0071623Y0062345D01*
X0071525Y0062247D02*
X0087095Y0062247D01*
X0087095Y0062148D02*
X0071426Y0062148D01*
X0071328Y0062050D02*
X0087095Y0062050D01*
X0087095Y0061951D02*
X0071229Y0061951D01*
X0071131Y0061852D02*
X0087095Y0061852D01*
X0087095Y0061754D02*
X0071032Y0061754D01*
X0070818Y0061655D02*
X0087095Y0061655D01*
X0087095Y0061557D02*
X0070719Y0061557D01*
X0070621Y0061458D02*
X0087095Y0061458D01*
X0087095Y0061360D02*
X0070522Y0061360D01*
X0070423Y0061261D02*
X0087095Y0061261D01*
X0087095Y0061163D02*
X0070325Y0061163D01*
X0070226Y0061064D02*
X0087095Y0061064D01*
X0087095Y0060966D02*
X0070128Y0060966D01*
X0070029Y0060867D02*
X0087095Y0060867D01*
X0087095Y0060769D02*
X0069931Y0060769D01*
X0069832Y0060670D02*
X0087095Y0060670D01*
X0087095Y0060572D02*
X0069734Y0060572D01*
X0069635Y0060473D02*
X0087095Y0060473D01*
X0087095Y0060375D02*
X0069537Y0060375D01*
X0069438Y0060276D02*
X0087095Y0060276D01*
X0087095Y0060178D02*
X0069340Y0060178D01*
X0069241Y0060079D02*
X0087095Y0060079D01*
X0087027Y0059981D02*
X0069143Y0059981D01*
X0069044Y0059882D02*
X0086928Y0059882D01*
X0086830Y0059784D02*
X0068946Y0059784D01*
X0068847Y0059685D02*
X0086745Y0059685D01*
X0086745Y0059587D02*
X0068749Y0059587D01*
X0068650Y0059488D02*
X0086745Y0059488D01*
X0086745Y0059390D02*
X0068552Y0059390D01*
X0068453Y0059291D02*
X0086745Y0059291D01*
X0086745Y0059193D02*
X0068355Y0059193D01*
X0068256Y0059094D02*
X0086745Y0059094D01*
X0086745Y0058996D02*
X0068158Y0058996D01*
X0068059Y0058897D02*
X0086745Y0058897D01*
X0086745Y0058799D02*
X0067961Y0058799D01*
X0067862Y0058700D02*
X0086745Y0058700D01*
X0086745Y0058602D02*
X0067764Y0058602D01*
X0067665Y0058503D02*
X0086745Y0058503D01*
X0086745Y0058405D02*
X0067567Y0058405D01*
X0067468Y0058306D02*
X0086745Y0058306D01*
X0086745Y0058208D02*
X0067370Y0058208D01*
X0067271Y0058109D02*
X0086803Y0058109D01*
X0086901Y0058011D02*
X0067173Y0058011D01*
X0067074Y0057912D02*
X0087000Y0057912D01*
X0087095Y0057814D02*
X0083506Y0057814D01*
X0083743Y0057715D02*
X0087095Y0057715D01*
X0087095Y0057616D02*
X0083981Y0057616D01*
X0084219Y0057518D02*
X0087095Y0057518D01*
X0081685Y0057814D02*
X0066976Y0057814D01*
X0066877Y0057715D02*
X0081447Y0057715D01*
X0081209Y0057616D02*
X0066779Y0057616D01*
X0066680Y0057518D02*
X0080971Y0057518D01*
X0078582Y0057419D02*
X0066582Y0057419D01*
X0066483Y0057321D02*
X0078483Y0057321D01*
X0078385Y0057222D02*
X0066385Y0057222D01*
X0066286Y0057124D02*
X0078286Y0057124D01*
X0078188Y0057025D02*
X0066188Y0057025D01*
X0066089Y0056927D02*
X0078089Y0056927D01*
X0077990Y0056828D02*
X0065990Y0056828D01*
X0065892Y0056730D02*
X0077892Y0056730D01*
X0077793Y0056631D02*
X0065793Y0056631D01*
X0065695Y0056533D02*
X0077695Y0056533D01*
X0077596Y0056434D02*
X0065596Y0056434D01*
X0065498Y0056336D02*
X0077498Y0056336D01*
X0077399Y0056237D02*
X0065399Y0056237D01*
X0065301Y0056139D02*
X0077301Y0056139D01*
X0077202Y0056040D02*
X0065202Y0056040D01*
X0065104Y0055942D02*
X0077104Y0055942D01*
X0077005Y0055843D02*
X0065095Y0055843D01*
X0065095Y0055745D02*
X0076907Y0055745D01*
X0076808Y0055646D02*
X0065095Y0055646D01*
X0065095Y0055548D02*
X0076710Y0055548D01*
X0076611Y0055449D02*
X0065095Y0055449D01*
X0065095Y0055351D02*
X0076513Y0055351D01*
X0076414Y0055252D02*
X0065095Y0055252D01*
X0065095Y0055154D02*
X0076316Y0055154D01*
X0076217Y0055055D02*
X0065095Y0055055D01*
X0065095Y0054957D02*
X0076119Y0054957D01*
X0076020Y0054858D02*
X0065095Y0054858D01*
X0065095Y0054760D02*
X0075922Y0054760D01*
X0075823Y0054661D02*
X0065095Y0054661D01*
X0065095Y0054563D02*
X0075725Y0054563D01*
X0075626Y0054464D02*
X0065095Y0054464D01*
X0065095Y0054366D02*
X0075528Y0054366D01*
X0075429Y0054267D02*
X0065095Y0054267D01*
X0065095Y0054169D02*
X0075331Y0054169D01*
X0075232Y0054070D02*
X0065095Y0054070D01*
X0065095Y0053972D02*
X0075134Y0053972D01*
X0075035Y0053873D02*
X0065095Y0053873D01*
X0065095Y0053775D02*
X0074937Y0053775D01*
X0074838Y0053676D02*
X0065095Y0053676D01*
X0065095Y0053578D02*
X0074740Y0053578D01*
X0074641Y0053479D02*
X0065095Y0053479D01*
X0065095Y0053381D02*
X0074543Y0053381D01*
X0074444Y0053282D02*
X0065362Y0053282D01*
X0065461Y0053183D02*
X0074346Y0053183D01*
X0074247Y0053085D02*
X0065560Y0053085D01*
X0065658Y0052986D02*
X0074149Y0052986D01*
X0074050Y0052888D02*
X0065757Y0052888D01*
X0065855Y0052789D02*
X0073952Y0052789D01*
X0073853Y0052691D02*
X0065954Y0052691D01*
X0066052Y0052592D02*
X0073754Y0052592D01*
X0073656Y0052494D02*
X0066151Y0052494D01*
X0066249Y0052395D02*
X0073557Y0052395D01*
X0073459Y0052297D02*
X0066348Y0052297D01*
X0066445Y0052198D02*
X0073360Y0052198D01*
X0073262Y0052100D02*
X0066445Y0052100D01*
X0066445Y0052001D02*
X0073163Y0052001D01*
X0073065Y0051903D02*
X0066445Y0051903D01*
X0066445Y0051804D02*
X0072966Y0051804D01*
X0072868Y0051706D02*
X0066445Y0051706D01*
X0066445Y0051607D02*
X0072769Y0051607D01*
X0072671Y0051509D02*
X0066445Y0051509D01*
X0066445Y0051410D02*
X0072572Y0051410D01*
X0072474Y0051312D02*
X0066445Y0051312D01*
X0066445Y0051213D02*
X0072375Y0051213D01*
X0072277Y0051115D02*
X0066445Y0051115D01*
X0066445Y0051016D02*
X0072178Y0051016D01*
X0072080Y0050918D02*
X0066445Y0050918D01*
X0066445Y0050819D02*
X0071981Y0050819D01*
X0071883Y0050721D02*
X0066445Y0050721D01*
X0066401Y0050622D02*
X0071784Y0050622D01*
X0071686Y0050524D02*
X0066302Y0050524D01*
X0066204Y0050425D02*
X0071587Y0050425D01*
X0071489Y0050327D02*
X0066105Y0050327D01*
X0066007Y0050228D02*
X0071390Y0050228D01*
X0071292Y0050130D02*
X0065908Y0050130D01*
X0065809Y0050031D02*
X0071193Y0050031D01*
X0071095Y0049933D02*
X0065745Y0049933D01*
X0065745Y0049834D02*
X0070996Y0049834D01*
X0070898Y0049736D02*
X0065745Y0049736D01*
X0065745Y0049637D02*
X0070799Y0049637D01*
X0070701Y0049539D02*
X0065745Y0049539D01*
X0065745Y0049440D02*
X0070602Y0049440D01*
X0070504Y0049342D02*
X0065745Y0049342D01*
X0065745Y0049243D02*
X0070405Y0049243D01*
X0070307Y0049145D02*
X0065745Y0049145D01*
X0065745Y0049046D02*
X0070208Y0049046D01*
X0070110Y0048948D02*
X0065745Y0048948D01*
X0065745Y0048849D02*
X0070011Y0048849D01*
X0069913Y0048750D02*
X0065745Y0048750D01*
X0065745Y0048652D02*
X0069814Y0048652D01*
X0069716Y0048553D02*
X0065745Y0048553D01*
X0065745Y0048455D02*
X0069617Y0048455D01*
X0069595Y0048356D02*
X0065745Y0048356D01*
X0065745Y0048258D02*
X0069595Y0048258D01*
X0069595Y0048159D02*
X0065745Y0048159D01*
X0065745Y0048061D02*
X0069595Y0048061D01*
X0069595Y0047962D02*
X0065745Y0047962D01*
X0065745Y0047864D02*
X0069595Y0047864D01*
X0069595Y0047765D02*
X0065745Y0047765D01*
X0065745Y0047667D02*
X0069553Y0047667D01*
X0069426Y0047568D02*
X0065745Y0047568D01*
X0065745Y0047470D02*
X0069299Y0047470D01*
X0069119Y0047371D02*
X0065745Y0047371D01*
X0065745Y0047273D02*
X0069021Y0047273D01*
X0068919Y0047174D02*
X0065745Y0047174D01*
X0065745Y0047076D02*
X0068793Y0047076D01*
X0068666Y0046977D02*
X0065745Y0046977D01*
X0062445Y0047117D02*
X0061762Y0046433D01*
X0054595Y0046433D01*
X0054595Y0047433D01*
X0059595Y0055433D01*
X0062595Y0055433D01*
X0063595Y0053433D01*
X0063211Y0052666D01*
X0062745Y0052199D01*
X0062745Y0051917D01*
X0062445Y0051617D01*
X0062445Y0047117D01*
X0062445Y0047174D02*
X0054595Y0047174D01*
X0054595Y0047076D02*
X0062404Y0047076D01*
X0062306Y0046977D02*
X0054595Y0046977D01*
X0054595Y0046879D02*
X0062207Y0046879D01*
X0062109Y0046780D02*
X0054595Y0046780D01*
X0054595Y0046682D02*
X0062010Y0046682D01*
X0061912Y0046583D02*
X0054595Y0046583D01*
X0054595Y0046485D02*
X0061813Y0046485D01*
X0062445Y0047273D02*
X0054595Y0047273D01*
X0054595Y0047371D02*
X0062445Y0047371D01*
X0062445Y0047470D02*
X0054618Y0047470D01*
X0054680Y0047568D02*
X0062445Y0047568D01*
X0062445Y0047667D02*
X0054741Y0047667D01*
X0054803Y0047765D02*
X0062445Y0047765D01*
X0062445Y0047864D02*
X0054864Y0047864D01*
X0054926Y0047962D02*
X0062445Y0047962D01*
X0062445Y0048061D02*
X0054988Y0048061D01*
X0055049Y0048159D02*
X0062445Y0048159D01*
X0062445Y0048258D02*
X0055111Y0048258D01*
X0055172Y0048356D02*
X0062445Y0048356D01*
X0062445Y0048455D02*
X0055234Y0048455D01*
X0055295Y0048553D02*
X0062445Y0048553D01*
X0062445Y0048652D02*
X0055357Y0048652D01*
X0055419Y0048750D02*
X0062445Y0048750D01*
X0062445Y0048849D02*
X0055480Y0048849D01*
X0055542Y0048948D02*
X0062445Y0048948D01*
X0062445Y0049046D02*
X0055603Y0049046D01*
X0055665Y0049145D02*
X0062445Y0049145D01*
X0062445Y0049243D02*
X0055726Y0049243D01*
X0055788Y0049342D02*
X0062445Y0049342D01*
X0062445Y0049440D02*
X0055850Y0049440D01*
X0055911Y0049539D02*
X0062445Y0049539D01*
X0062445Y0049637D02*
X0055973Y0049637D01*
X0056034Y0049736D02*
X0062445Y0049736D01*
X0062445Y0049834D02*
X0056096Y0049834D01*
X0056157Y0049933D02*
X0062445Y0049933D01*
X0062445Y0050031D02*
X0056219Y0050031D01*
X0056280Y0050130D02*
X0062445Y0050130D01*
X0062445Y0050228D02*
X0056342Y0050228D01*
X0056404Y0050327D02*
X0062445Y0050327D01*
X0062445Y0050425D02*
X0056465Y0050425D01*
X0056527Y0050524D02*
X0062445Y0050524D01*
X0062445Y0050622D02*
X0056588Y0050622D01*
X0056650Y0050721D02*
X0062445Y0050721D01*
X0062445Y0050819D02*
X0056711Y0050819D01*
X0056773Y0050918D02*
X0062445Y0050918D01*
X0062445Y0051016D02*
X0056835Y0051016D01*
X0056896Y0051115D02*
X0062445Y0051115D01*
X0062445Y0051213D02*
X0056958Y0051213D01*
X0057019Y0051312D02*
X0062445Y0051312D01*
X0062445Y0051410D02*
X0057081Y0051410D01*
X0057142Y0051509D02*
X0062445Y0051509D01*
X0062445Y0051607D02*
X0057204Y0051607D01*
X0057266Y0051706D02*
X0062534Y0051706D01*
X0062633Y0051804D02*
X0057327Y0051804D01*
X0057389Y0051903D02*
X0062731Y0051903D01*
X0062745Y0052001D02*
X0057450Y0052001D01*
X0057512Y0052100D02*
X0062745Y0052100D01*
X0062745Y0052198D02*
X0057573Y0052198D01*
X0057635Y0052297D02*
X0062843Y0052297D01*
X0062941Y0052395D02*
X0057697Y0052395D01*
X0057758Y0052494D02*
X0063040Y0052494D01*
X0063138Y0052592D02*
X0057820Y0052592D01*
X0057881Y0052691D02*
X0063224Y0052691D01*
X0063273Y0052789D02*
X0057943Y0052789D01*
X0058004Y0052888D02*
X0063323Y0052888D01*
X0063372Y0052986D02*
X0058066Y0052986D01*
X0058128Y0053085D02*
X0063421Y0053085D01*
X0063470Y0053183D02*
X0058189Y0053183D01*
X0058251Y0053282D02*
X0063520Y0053282D01*
X0063569Y0053381D02*
X0058312Y0053381D01*
X0058374Y0053479D02*
X0063572Y0053479D01*
X0063523Y0053578D02*
X0058435Y0053578D01*
X0058497Y0053676D02*
X0063474Y0053676D01*
X0063424Y0053775D02*
X0058559Y0053775D01*
X0058620Y0053873D02*
X0063375Y0053873D01*
X0063326Y0053972D02*
X0058682Y0053972D01*
X0058743Y0054070D02*
X0063277Y0054070D01*
X0063227Y0054169D02*
X0058805Y0054169D01*
X0058866Y0054267D02*
X0063178Y0054267D01*
X0063129Y0054366D02*
X0058928Y0054366D01*
X0058990Y0054464D02*
X0063080Y0054464D01*
X0063030Y0054563D02*
X0059051Y0054563D01*
X0059113Y0054661D02*
X0062981Y0054661D01*
X0062932Y0054760D02*
X0059174Y0054760D01*
X0059236Y0054858D02*
X0062883Y0054858D01*
X0062833Y0054957D02*
X0059297Y0054957D01*
X0059359Y0055055D02*
X0062784Y0055055D01*
X0062735Y0055154D02*
X0059421Y0055154D01*
X0059482Y0055252D02*
X0062686Y0055252D01*
X0062636Y0055351D02*
X0059544Y0055351D01*
X0077745Y0078895D02*
X0081590Y0078895D01*
X0081352Y0078993D02*
X0077745Y0078993D01*
X0077745Y0079092D02*
X0081114Y0079092D01*
X0080877Y0079190D02*
X0077745Y0079190D01*
X0077745Y0079289D02*
X0080639Y0079289D01*
X0080401Y0079388D02*
X0077745Y0079388D01*
X0077745Y0079486D02*
X0080163Y0079486D01*
X0079982Y0079585D02*
X0077745Y0079585D01*
X0077745Y0079683D02*
X0079884Y0079683D01*
X0079785Y0079782D02*
X0077745Y0079782D01*
X0077745Y0079880D02*
X0079687Y0079880D01*
X0079588Y0079979D02*
X0077745Y0079979D01*
X0077745Y0080077D02*
X0079490Y0080077D01*
X0079391Y0080176D02*
X0077745Y0080176D01*
X0077745Y0080274D02*
X0079293Y0080274D01*
X0079194Y0080373D02*
X0077745Y0080373D01*
X0077745Y0080471D02*
X0079096Y0080471D01*
X0078997Y0080570D02*
X0077745Y0080570D01*
X0077745Y0080668D02*
X0078899Y0080668D01*
X0078800Y0080767D02*
X0077745Y0080767D01*
X0077745Y0080865D02*
X0078727Y0080865D01*
X0078687Y0080964D02*
X0077745Y0080964D01*
X0077745Y0081062D02*
X0078646Y0081062D01*
X0078605Y0081161D02*
X0077745Y0081161D01*
X0077745Y0081259D02*
X0078564Y0081259D01*
X0078523Y0081358D02*
X0077745Y0081358D01*
X0077745Y0081456D02*
X0078483Y0081456D01*
X0078442Y0081555D02*
X0077745Y0081555D01*
X0077745Y0081653D02*
X0078401Y0081653D01*
X0078360Y0081752D02*
X0077745Y0081752D01*
X0077745Y0081850D02*
X0078319Y0081850D01*
X0078279Y0081949D02*
X0077745Y0081949D01*
X0077745Y0082047D02*
X0078238Y0082047D01*
X0078197Y0082146D02*
X0077745Y0082146D01*
X0077745Y0082244D02*
X0078156Y0082244D01*
X0078115Y0082343D02*
X0077745Y0082343D01*
X0077745Y0082441D02*
X0078075Y0082441D01*
X0078054Y0082540D02*
X0077745Y0082540D01*
X0077745Y0082638D02*
X0078054Y0082638D01*
X0078054Y0082737D02*
X0077745Y0082737D01*
X0077745Y0082835D02*
X0078054Y0082835D01*
X0078054Y0082934D02*
X0077745Y0082934D01*
X0077745Y0083032D02*
X0078054Y0083032D01*
X0078054Y0083131D02*
X0077745Y0083131D01*
X0077745Y0083229D02*
X0078054Y0083229D01*
X0078054Y0083328D02*
X0077745Y0083328D01*
X0077745Y0083426D02*
X0078054Y0083426D01*
X0078054Y0083525D02*
X0077745Y0083525D01*
X0077745Y0083623D02*
X0078054Y0083623D01*
X0078054Y0083722D02*
X0077745Y0083722D01*
X0077745Y0083821D02*
X0078054Y0083821D01*
X0078054Y0083919D02*
X0077745Y0083919D01*
X0077745Y0084018D02*
X0078054Y0084018D01*
X0078054Y0084116D02*
X0077745Y0084116D01*
X0077745Y0084215D02*
X0078054Y0084215D01*
X0078061Y0084313D02*
X0077745Y0084313D01*
X0077745Y0084412D02*
X0078102Y0084412D01*
X0078142Y0084510D02*
X0077745Y0084510D01*
X0077745Y0084609D02*
X0078183Y0084609D01*
X0078224Y0084707D02*
X0077745Y0084707D01*
X0077745Y0084806D02*
X0078265Y0084806D01*
X0078306Y0084904D02*
X0077745Y0084904D01*
X0077745Y0085003D02*
X0078347Y0085003D01*
X0078387Y0085101D02*
X0077745Y0085101D01*
X0077662Y0085200D02*
X0078428Y0085200D01*
X0078469Y0085298D02*
X0077563Y0085298D01*
X0077465Y0085397D02*
X0078510Y0085397D01*
X0078551Y0085495D02*
X0077366Y0085495D01*
X0077268Y0085594D02*
X0078591Y0085594D01*
X0078632Y0085692D02*
X0077169Y0085692D01*
X0077071Y0085791D02*
X0078673Y0085791D01*
X0078714Y0085889D02*
X0076972Y0085889D01*
X0076874Y0085988D02*
X0078767Y0085988D01*
X0078866Y0086086D02*
X0076775Y0086086D01*
X0076677Y0086185D02*
X0078964Y0086185D01*
X0079063Y0086283D02*
X0076578Y0086283D01*
X0076480Y0086382D02*
X0079161Y0086382D01*
X0079260Y0086480D02*
X0076381Y0086480D01*
X0076283Y0086579D02*
X0079358Y0086579D01*
X0079457Y0086677D02*
X0076184Y0086677D01*
X0076086Y0086776D02*
X0079555Y0086776D01*
X0079654Y0086874D02*
X0075987Y0086874D01*
X0075889Y0086973D02*
X0079752Y0086973D01*
X0079851Y0087071D02*
X0075790Y0087071D01*
X0075692Y0087170D02*
X0079949Y0087170D01*
X0080083Y0087268D02*
X0075593Y0087268D01*
X0075495Y0087367D02*
X0080321Y0087367D01*
X0080559Y0087465D02*
X0075396Y0087465D01*
X0075298Y0087564D02*
X0080797Y0087564D01*
X0081035Y0087662D02*
X0075199Y0087662D01*
X0075101Y0087761D02*
X0081273Y0087761D01*
X0081510Y0087859D02*
X0075002Y0087859D01*
X0063595Y0098105D02*
X0090424Y0098105D01*
X0090325Y0098203D02*
X0063595Y0098203D01*
X0063595Y0098302D02*
X0090227Y0098302D01*
X0090128Y0098400D02*
X0063595Y0098400D01*
X0063595Y0098499D02*
X0090030Y0098499D01*
X0089931Y0098597D02*
X0063595Y0098597D01*
X0063595Y0098696D02*
X0089832Y0098696D01*
X0089734Y0098794D02*
X0063595Y0098794D01*
X0063595Y0098893D02*
X0078551Y0098893D01*
X0078453Y0098991D02*
X0063595Y0098991D01*
X0063595Y0099090D02*
X0078354Y0099090D01*
X0078256Y0099188D02*
X0063595Y0099188D01*
X0063595Y0099287D02*
X0078157Y0099287D01*
X0078059Y0099385D02*
X0063595Y0099385D01*
X0063595Y0099484D02*
X0078054Y0099484D01*
X0078054Y0099582D02*
X0063595Y0099582D01*
X0063595Y0099681D02*
X0078054Y0099681D01*
X0078054Y0099779D02*
X0063595Y0099779D01*
X0063595Y0099878D02*
X0078054Y0099878D01*
X0078054Y0099976D02*
X0063595Y0099976D01*
X0063595Y0100075D02*
X0078054Y0100075D01*
X0078054Y0100173D02*
X0063595Y0100173D01*
X0063595Y0100272D02*
X0078054Y0100272D01*
X0078054Y0100370D02*
X0063595Y0100370D01*
X0063595Y0100469D02*
X0078054Y0100469D01*
X0078054Y0100567D02*
X0063595Y0100567D01*
X0063595Y0100666D02*
X0078054Y0100666D01*
X0078054Y0100764D02*
X0063595Y0100764D01*
X0063595Y0100863D02*
X0078054Y0100863D01*
X0078054Y0100961D02*
X0063595Y0100961D01*
X0063595Y0101060D02*
X0078054Y0101060D01*
X0078054Y0101159D02*
X0063595Y0101159D01*
X0063595Y0101257D02*
X0078054Y0101257D01*
X0078054Y0101356D02*
X0063834Y0101356D01*
X0063932Y0101454D02*
X0078054Y0101454D01*
X0078054Y0101553D02*
X0064031Y0101553D01*
X0064129Y0101651D02*
X0078054Y0101651D01*
X0078054Y0101750D02*
X0064228Y0101750D01*
X0064326Y0101848D02*
X0078054Y0101848D01*
X0078054Y0101947D02*
X0064425Y0101947D01*
X0064523Y0102045D02*
X0078054Y0102045D01*
X0078054Y0102144D02*
X0064622Y0102144D01*
X0064720Y0102242D02*
X0078054Y0102242D01*
X0078054Y0102341D02*
X0064819Y0102341D01*
X0064845Y0102439D02*
X0078054Y0102439D01*
X0078054Y0102538D02*
X0064845Y0102538D01*
X0064845Y0102636D02*
X0078054Y0102636D01*
X0078054Y0102735D02*
X0064845Y0102735D01*
X0064845Y0102833D02*
X0078054Y0102833D01*
X0078054Y0102932D02*
X0064845Y0102932D01*
X0064845Y0103030D02*
X0078054Y0103030D01*
X0078054Y0103129D02*
X0064845Y0103129D01*
X0064845Y0103227D02*
X0078054Y0103227D01*
X0078054Y0103326D02*
X0064845Y0103326D01*
X0064845Y0103424D02*
X0078054Y0103424D01*
X0078054Y0103523D02*
X0064845Y0103523D01*
X0064845Y0103621D02*
X0078054Y0103621D01*
X0078054Y0103720D02*
X0064845Y0103720D01*
X0064845Y0103818D02*
X0078054Y0103818D01*
X0078054Y0103917D02*
X0064828Y0103917D01*
X0064729Y0104015D02*
X0078054Y0104015D01*
X0078054Y0104114D02*
X0064631Y0104114D01*
X0064532Y0104212D02*
X0078054Y0104212D01*
X0078054Y0104311D02*
X0064434Y0104311D01*
X0064335Y0104409D02*
X0078054Y0104409D01*
X0078054Y0104508D02*
X0064237Y0104508D01*
X0064138Y0104606D02*
X0078054Y0104606D01*
X0078054Y0104705D02*
X0064040Y0104705D01*
X0063941Y0104803D02*
X0078054Y0104803D01*
X0078054Y0104902D02*
X0063843Y0104902D01*
X0062148Y0104902D02*
X0043095Y0104902D01*
X0043095Y0105000D02*
X0078054Y0105000D01*
X0078054Y0105099D02*
X0043095Y0105099D01*
X0043095Y0105197D02*
X0078054Y0105197D01*
X0078054Y0105296D02*
X0043095Y0105296D01*
X0043095Y0105394D02*
X0078054Y0105394D01*
X0078054Y0105493D02*
X0043155Y0105493D01*
X0043254Y0105592D02*
X0078054Y0105592D01*
X0078054Y0105690D02*
X0043352Y0105690D01*
X0043451Y0105789D02*
X0078054Y0105789D01*
X0078054Y0105887D02*
X0043549Y0105887D01*
X0043648Y0105986D02*
X0078054Y0105986D01*
X0078054Y0106084D02*
X0043746Y0106084D01*
X0043845Y0106183D02*
X0078054Y0106183D01*
X0078054Y0106281D02*
X0043943Y0106281D01*
X0044042Y0106380D02*
X0078054Y0106380D01*
X0078050Y0106478D02*
X0044140Y0106478D01*
X0044239Y0106577D02*
X0077952Y0106577D01*
X0077853Y0106675D02*
X0044337Y0106675D01*
X0044436Y0106774D02*
X0077755Y0106774D01*
X0077656Y0106872D02*
X0044534Y0106872D01*
X0044633Y0106971D02*
X0077558Y0106971D01*
X0077459Y0107069D02*
X0044731Y0107069D01*
X0044830Y0107168D02*
X0077361Y0107168D01*
X0077262Y0107266D02*
X0044928Y0107266D01*
X0045027Y0107365D02*
X0077163Y0107365D01*
X0086639Y0098893D02*
X0089635Y0098893D01*
X0089537Y0098991D02*
X0086737Y0098991D01*
X0086836Y0099090D02*
X0089438Y0099090D01*
X0089340Y0099188D02*
X0086934Y0099188D01*
X0087033Y0099287D02*
X0089241Y0099287D01*
X0089143Y0099385D02*
X0087131Y0099385D01*
X0095595Y0092433D02*
X0103095Y0092433D01*
X0103095Y0077933D01*
X0097875Y0077893D01*
X0095595Y0079893D01*
X0095595Y0092433D01*
X0095595Y0092391D02*
X0103095Y0092391D01*
X0103095Y0092292D02*
X0095595Y0092292D01*
X0095595Y0092194D02*
X0103095Y0092194D01*
X0103095Y0092095D02*
X0095595Y0092095D01*
X0095595Y0091997D02*
X0103095Y0091997D01*
X0103095Y0091898D02*
X0095595Y0091898D01*
X0095595Y0091800D02*
X0103095Y0091800D01*
X0103095Y0091701D02*
X0095595Y0091701D01*
X0095595Y0091603D02*
X0103095Y0091603D01*
X0103095Y0091504D02*
X0095595Y0091504D01*
X0095595Y0091406D02*
X0103095Y0091406D01*
X0103095Y0091307D02*
X0095595Y0091307D01*
X0095595Y0091209D02*
X0103095Y0091209D01*
X0103095Y0091110D02*
X0095595Y0091110D01*
X0095595Y0091012D02*
X0103095Y0091012D01*
X0103095Y0090913D02*
X0095595Y0090913D01*
X0095595Y0090815D02*
X0103095Y0090815D01*
X0103095Y0090716D02*
X0095595Y0090716D01*
X0095595Y0090618D02*
X0103095Y0090618D01*
X0103095Y0090519D02*
X0095595Y0090519D01*
X0095595Y0090421D02*
X0103095Y0090421D01*
X0103095Y0090322D02*
X0095595Y0090322D01*
X0095595Y0090224D02*
X0103095Y0090224D01*
X0103095Y0090125D02*
X0095595Y0090125D01*
X0095595Y0090027D02*
X0103095Y0090027D01*
X0103095Y0089928D02*
X0095595Y0089928D01*
X0095595Y0089830D02*
X0103095Y0089830D01*
X0103095Y0089731D02*
X0095595Y0089731D01*
X0095595Y0089633D02*
X0103095Y0089633D01*
X0103095Y0089534D02*
X0095595Y0089534D01*
X0095595Y0089436D02*
X0103095Y0089436D01*
X0103095Y0089337D02*
X0095595Y0089337D01*
X0095595Y0089239D02*
X0103095Y0089239D01*
X0103095Y0089140D02*
X0095595Y0089140D01*
X0095595Y0089042D02*
X0103095Y0089042D01*
X0103095Y0088943D02*
X0095595Y0088943D01*
X0095595Y0088845D02*
X0103095Y0088845D01*
X0103095Y0088746D02*
X0095595Y0088746D01*
X0095595Y0088648D02*
X0103095Y0088648D01*
X0103095Y0088549D02*
X0095595Y0088549D01*
X0095595Y0088451D02*
X0103095Y0088451D01*
X0103095Y0088352D02*
X0095595Y0088352D01*
X0095595Y0088254D02*
X0103095Y0088254D01*
X0103095Y0088155D02*
X0095595Y0088155D01*
X0095595Y0088056D02*
X0103095Y0088056D01*
X0103095Y0087958D02*
X0095595Y0087958D01*
X0095595Y0087859D02*
X0103095Y0087859D01*
X0103095Y0087761D02*
X0095595Y0087761D01*
X0095595Y0087662D02*
X0103095Y0087662D01*
X0103095Y0087564D02*
X0095595Y0087564D01*
X0095595Y0087465D02*
X0103095Y0087465D01*
X0103095Y0087367D02*
X0095595Y0087367D01*
X0095595Y0087268D02*
X0103095Y0087268D01*
X0103095Y0087170D02*
X0095595Y0087170D01*
X0095595Y0087071D02*
X0103095Y0087071D01*
X0103095Y0086973D02*
X0095595Y0086973D01*
X0095595Y0086874D02*
X0103095Y0086874D01*
X0103095Y0086776D02*
X0095595Y0086776D01*
X0095595Y0086677D02*
X0103095Y0086677D01*
X0103095Y0086579D02*
X0095595Y0086579D01*
X0095595Y0086480D02*
X0103095Y0086480D01*
X0103095Y0086382D02*
X0095595Y0086382D01*
X0095595Y0086283D02*
X0103095Y0086283D01*
X0103095Y0086185D02*
X0095595Y0086185D01*
X0095595Y0086086D02*
X0103095Y0086086D01*
X0103095Y0085988D02*
X0095595Y0085988D01*
X0095595Y0085889D02*
X0103095Y0085889D01*
X0103095Y0085791D02*
X0095595Y0085791D01*
X0095595Y0085692D02*
X0103095Y0085692D01*
X0103095Y0085594D02*
X0095595Y0085594D01*
X0095595Y0085495D02*
X0103095Y0085495D01*
X0103095Y0085397D02*
X0095595Y0085397D01*
X0095595Y0085298D02*
X0103095Y0085298D01*
X0103095Y0085200D02*
X0095595Y0085200D01*
X0095595Y0085101D02*
X0103095Y0085101D01*
X0103095Y0085003D02*
X0095595Y0085003D01*
X0095595Y0084904D02*
X0103095Y0084904D01*
X0103095Y0084806D02*
X0095595Y0084806D01*
X0095595Y0084707D02*
X0103095Y0084707D01*
X0103095Y0084609D02*
X0095595Y0084609D01*
X0095595Y0084510D02*
X0103095Y0084510D01*
X0103095Y0084412D02*
X0095595Y0084412D01*
X0095595Y0084313D02*
X0103095Y0084313D01*
X0103095Y0084215D02*
X0095595Y0084215D01*
X0095595Y0084116D02*
X0103095Y0084116D01*
X0103095Y0084018D02*
X0095595Y0084018D01*
X0095595Y0083919D02*
X0103095Y0083919D01*
X0103095Y0083821D02*
X0095595Y0083821D01*
X0095595Y0083722D02*
X0103095Y0083722D01*
X0103095Y0083623D02*
X0095595Y0083623D01*
X0095595Y0083525D02*
X0103095Y0083525D01*
X0103095Y0083426D02*
X0095595Y0083426D01*
X0095595Y0083328D02*
X0103095Y0083328D01*
X0103095Y0083229D02*
X0095595Y0083229D01*
X0095595Y0083131D02*
X0103095Y0083131D01*
X0103095Y0083032D02*
X0095595Y0083032D01*
X0095595Y0082934D02*
X0103095Y0082934D01*
X0103095Y0082835D02*
X0095595Y0082835D01*
X0095595Y0082737D02*
X0103095Y0082737D01*
X0103095Y0082638D02*
X0095595Y0082638D01*
X0095595Y0082540D02*
X0103095Y0082540D01*
X0103095Y0082441D02*
X0095595Y0082441D01*
X0095595Y0082343D02*
X0103095Y0082343D01*
X0103095Y0082244D02*
X0095595Y0082244D01*
X0095595Y0082146D02*
X0103095Y0082146D01*
X0103095Y0082047D02*
X0095595Y0082047D01*
X0095595Y0081949D02*
X0103095Y0081949D01*
X0103095Y0081850D02*
X0095595Y0081850D01*
X0095595Y0081752D02*
X0103095Y0081752D01*
X0103095Y0081653D02*
X0095595Y0081653D01*
X0095595Y0081555D02*
X0103095Y0081555D01*
X0103095Y0081456D02*
X0095595Y0081456D01*
X0095595Y0081358D02*
X0103095Y0081358D01*
X0103095Y0081259D02*
X0095595Y0081259D01*
X0095595Y0081161D02*
X0103095Y0081161D01*
X0103095Y0081062D02*
X0095595Y0081062D01*
X0095595Y0080964D02*
X0103095Y0080964D01*
X0103065Y0080964D02*
X0097595Y0080964D01*
X0097595Y0081062D02*
X0102966Y0081062D01*
X0102868Y0081161D02*
X0097595Y0081161D01*
X0097595Y0081259D02*
X0102769Y0081259D01*
X0102670Y0081358D02*
X0097595Y0081358D01*
X0097595Y0081456D02*
X0102572Y0081456D01*
X0102473Y0081555D02*
X0097595Y0081555D01*
X0097595Y0081653D02*
X0102375Y0081653D01*
X0102426Y0081653D02*
X0097058Y0081653D01*
X0097138Y0081752D02*
X0102446Y0081752D01*
X0102465Y0081850D02*
X0097218Y0081850D01*
X0097298Y0081949D02*
X0102485Y0081949D01*
X0102504Y0082047D02*
X0097378Y0082047D01*
X0097458Y0082146D02*
X0102524Y0082146D01*
X0102543Y0082244D02*
X0097538Y0082244D01*
X0097545Y0082253D02*
X0102545Y0082253D01*
X0101095Y0074933D01*
X0101095Y0070433D01*
X0091595Y0070433D01*
X0091595Y0074933D01*
X0097545Y0082253D01*
X0097595Y0082244D02*
X0101784Y0082244D01*
X0101882Y0082146D02*
X0097595Y0082146D01*
X0097595Y0082047D02*
X0101981Y0082047D01*
X0102079Y0081949D02*
X0097595Y0081949D01*
X0097595Y0081850D02*
X0102178Y0081850D01*
X0102276Y0081752D02*
X0097595Y0081752D01*
X0097595Y0082343D02*
X0101685Y0082343D01*
X0101595Y0082433D02*
X0105595Y0078433D01*
X0114595Y0075433D01*
X0114605Y0069933D01*
X0103605Y0069933D01*
X0103595Y0070433D01*
X0097595Y0078433D01*
X0097595Y0082433D01*
X0101595Y0082433D01*
X0102407Y0081555D02*
X0096978Y0081555D01*
X0096897Y0081456D02*
X0102387Y0081456D01*
X0102368Y0081358D02*
X0096817Y0081358D01*
X0096737Y0081259D02*
X0102348Y0081259D01*
X0102329Y0081161D02*
X0096657Y0081161D01*
X0096577Y0081062D02*
X0102309Y0081062D01*
X0102290Y0080964D02*
X0096497Y0080964D01*
X0096417Y0080865D02*
X0102270Y0080865D01*
X0102251Y0080767D02*
X0096337Y0080767D01*
X0096257Y0080668D02*
X0102231Y0080668D01*
X0102212Y0080570D02*
X0096177Y0080570D01*
X0096097Y0080471D02*
X0102192Y0080471D01*
X0102173Y0080373D02*
X0096017Y0080373D01*
X0095937Y0080274D02*
X0102153Y0080274D01*
X0102134Y0080176D02*
X0095856Y0080176D01*
X0095776Y0080077D02*
X0102114Y0080077D01*
X0102095Y0079979D02*
X0095696Y0079979D01*
X0095595Y0079979D02*
X0103095Y0079979D01*
X0103095Y0080077D02*
X0095595Y0080077D01*
X0095595Y0080176D02*
X0103095Y0080176D01*
X0103095Y0080274D02*
X0095595Y0080274D01*
X0095595Y0080373D02*
X0103095Y0080373D01*
X0103095Y0080471D02*
X0095595Y0080471D01*
X0095595Y0080570D02*
X0103095Y0080570D01*
X0103095Y0080668D02*
X0095595Y0080668D01*
X0095595Y0080767D02*
X0103095Y0080767D01*
X0103095Y0080865D02*
X0095595Y0080865D01*
X0095610Y0079880D02*
X0103095Y0079880D01*
X0103095Y0079782D02*
X0095722Y0079782D01*
X0095616Y0079880D02*
X0102075Y0079880D01*
X0102056Y0079782D02*
X0095536Y0079782D01*
X0095456Y0079683D02*
X0102036Y0079683D01*
X0102017Y0079585D02*
X0095376Y0079585D01*
X0095296Y0079486D02*
X0101997Y0079486D01*
X0101978Y0079388D02*
X0095216Y0079388D01*
X0095136Y0079289D02*
X0101958Y0079289D01*
X0101938Y0079190D02*
X0095056Y0079190D01*
X0094976Y0079092D02*
X0101919Y0079092D01*
X0101899Y0078993D02*
X0094896Y0078993D01*
X0094816Y0078895D02*
X0101880Y0078895D01*
X0101860Y0078796D02*
X0094735Y0078796D01*
X0094655Y0078698D02*
X0101841Y0078698D01*
X0101821Y0078599D02*
X0094575Y0078599D01*
X0094495Y0078501D02*
X0101802Y0078501D01*
X0101782Y0078402D02*
X0094415Y0078402D01*
X0094335Y0078304D02*
X0101763Y0078304D01*
X0101743Y0078205D02*
X0094255Y0078205D01*
X0094175Y0078107D02*
X0101724Y0078107D01*
X0101704Y0078008D02*
X0094095Y0078008D01*
X0094015Y0077910D02*
X0101685Y0077910D01*
X0101665Y0077811D02*
X0093935Y0077811D01*
X0093855Y0077713D02*
X0101646Y0077713D01*
X0101626Y0077614D02*
X0093775Y0077614D01*
X0093694Y0077516D02*
X0101607Y0077516D01*
X0101587Y0077417D02*
X0093614Y0077417D01*
X0093534Y0077319D02*
X0101568Y0077319D01*
X0101548Y0077220D02*
X0093454Y0077220D01*
X0093374Y0077122D02*
X0101529Y0077122D01*
X0101509Y0077023D02*
X0093294Y0077023D01*
X0093214Y0076925D02*
X0101490Y0076925D01*
X0101470Y0076826D02*
X0093134Y0076826D01*
X0093054Y0076728D02*
X0101451Y0076728D01*
X0101431Y0076629D02*
X0092974Y0076629D01*
X0092894Y0076531D02*
X0101412Y0076531D01*
X0101392Y0076432D02*
X0092814Y0076432D01*
X0092734Y0076334D02*
X0101373Y0076334D01*
X0101353Y0076235D02*
X0092654Y0076235D01*
X0092573Y0076137D02*
X0101334Y0076137D01*
X0101314Y0076038D02*
X0092493Y0076038D01*
X0092413Y0075940D02*
X0101295Y0075940D01*
X0101275Y0075841D02*
X0092333Y0075841D01*
X0092253Y0075743D02*
X0101255Y0075743D01*
X0101236Y0075644D02*
X0092173Y0075644D01*
X0092093Y0075546D02*
X0101216Y0075546D01*
X0101197Y0075447D02*
X0092013Y0075447D01*
X0091933Y0075349D02*
X0101177Y0075349D01*
X0101158Y0075250D02*
X0091853Y0075250D01*
X0091773Y0075152D02*
X0101138Y0075152D01*
X0101119Y0075053D02*
X0091693Y0075053D01*
X0091613Y0074954D02*
X0101099Y0074954D01*
X0101095Y0074856D02*
X0091595Y0074856D01*
X0091595Y0074757D02*
X0101095Y0074757D01*
X0101095Y0074659D02*
X0091595Y0074659D01*
X0091595Y0074560D02*
X0101095Y0074560D01*
X0101095Y0074462D02*
X0091595Y0074462D01*
X0091595Y0074363D02*
X0101095Y0074363D01*
X0101095Y0074265D02*
X0091595Y0074265D01*
X0091595Y0074166D02*
X0101095Y0074166D01*
X0101095Y0074068D02*
X0091595Y0074068D01*
X0091595Y0073969D02*
X0101095Y0073969D01*
X0101095Y0073871D02*
X0091595Y0073871D01*
X0091595Y0073772D02*
X0101095Y0073772D01*
X0101091Y0073772D02*
X0114598Y0073772D01*
X0114598Y0073674D02*
X0101165Y0073674D01*
X0101095Y0073674D02*
X0091595Y0073674D01*
X0091595Y0073575D02*
X0101095Y0073575D01*
X0101095Y0073477D02*
X0091595Y0073477D01*
X0091595Y0073378D02*
X0101095Y0073378D01*
X0101095Y0073280D02*
X0091595Y0073280D01*
X0091595Y0073181D02*
X0101095Y0073181D01*
X0101095Y0073083D02*
X0091595Y0073083D01*
X0091595Y0072984D02*
X0101095Y0072984D01*
X0101095Y0072886D02*
X0091595Y0072886D01*
X0091595Y0072787D02*
X0101095Y0072787D01*
X0101095Y0072689D02*
X0091595Y0072689D01*
X0091595Y0072590D02*
X0101095Y0072590D01*
X0101095Y0072492D02*
X0091595Y0072492D01*
X0091595Y0072393D02*
X0101095Y0072393D01*
X0101095Y0072295D02*
X0091595Y0072295D01*
X0091595Y0072196D02*
X0101095Y0072196D01*
X0101095Y0072098D02*
X0091595Y0072098D01*
X0091595Y0071999D02*
X0101095Y0071999D01*
X0101095Y0071901D02*
X0091595Y0071901D01*
X0091595Y0071802D02*
X0101095Y0071802D01*
X0101095Y0071704D02*
X0091595Y0071704D01*
X0091595Y0071605D02*
X0101095Y0071605D01*
X0101095Y0071507D02*
X0091595Y0071507D01*
X0091595Y0071408D02*
X0101095Y0071408D01*
X0101095Y0071310D02*
X0091595Y0071310D01*
X0091595Y0071211D02*
X0101095Y0071211D01*
X0101095Y0071113D02*
X0091595Y0071113D01*
X0091595Y0071014D02*
X0101095Y0071014D01*
X0101095Y0070916D02*
X0091595Y0070916D01*
X0091595Y0070817D02*
X0101095Y0070817D01*
X0101095Y0070719D02*
X0091595Y0070719D01*
X0091595Y0070620D02*
X0101095Y0070620D01*
X0101095Y0070521D02*
X0091595Y0070521D01*
X0090595Y0068433D02*
X0100595Y0068433D01*
X0100595Y0064433D01*
X0104595Y0062433D01*
X0104595Y0058433D01*
X0100595Y0058433D01*
X0090595Y0064433D01*
X0090595Y0068433D01*
X0090595Y0068354D02*
X0100595Y0068354D01*
X0100595Y0068256D02*
X0090595Y0068256D01*
X0090595Y0068157D02*
X0100595Y0068157D01*
X0100595Y0068059D02*
X0090595Y0068059D01*
X0090595Y0067960D02*
X0100595Y0067960D01*
X0100595Y0067862D02*
X0090595Y0067862D01*
X0090595Y0067763D02*
X0100595Y0067763D01*
X0100595Y0067665D02*
X0090595Y0067665D01*
X0090595Y0067566D02*
X0100595Y0067566D01*
X0100595Y0067468D02*
X0090595Y0067468D01*
X0090595Y0067369D02*
X0100595Y0067369D01*
X0100595Y0067271D02*
X0090595Y0067271D01*
X0090595Y0067172D02*
X0100595Y0067172D01*
X0100595Y0067074D02*
X0090595Y0067074D01*
X0090595Y0066975D02*
X0100595Y0066975D01*
X0100595Y0066877D02*
X0090595Y0066877D01*
X0090595Y0066778D02*
X0100595Y0066778D01*
X0100595Y0066680D02*
X0090595Y0066680D01*
X0090595Y0066581D02*
X0100595Y0066581D01*
X0100595Y0066483D02*
X0090595Y0066483D01*
X0090595Y0066384D02*
X0100595Y0066384D01*
X0100595Y0066285D02*
X0090595Y0066285D01*
X0090595Y0066187D02*
X0100595Y0066187D01*
X0100595Y0066088D02*
X0090595Y0066088D01*
X0090595Y0065990D02*
X0100595Y0065990D01*
X0100595Y0065891D02*
X0090595Y0065891D01*
X0090595Y0065793D02*
X0100595Y0065793D01*
X0100595Y0065694D02*
X0090595Y0065694D01*
X0090595Y0065596D02*
X0100595Y0065596D01*
X0100595Y0065497D02*
X0090595Y0065497D01*
X0090595Y0065399D02*
X0100595Y0065399D01*
X0100595Y0065300D02*
X0090595Y0065300D01*
X0090595Y0065202D02*
X0100595Y0065202D01*
X0100595Y0065103D02*
X0090595Y0065103D01*
X0090595Y0065005D02*
X0100595Y0065005D01*
X0100595Y0064906D02*
X0090595Y0064906D01*
X0090595Y0064808D02*
X0100595Y0064808D01*
X0100595Y0064709D02*
X0090595Y0064709D01*
X0090595Y0064611D02*
X0100595Y0064611D01*
X0100595Y0064512D02*
X0090595Y0064512D01*
X0090627Y0064414D02*
X0100634Y0064414D01*
X0100831Y0064315D02*
X0090791Y0064315D01*
X0090956Y0064217D02*
X0101028Y0064217D01*
X0101225Y0064118D02*
X0091120Y0064118D01*
X0091284Y0064020D02*
X0101422Y0064020D01*
X0101619Y0063921D02*
X0091448Y0063921D01*
X0091612Y0063823D02*
X0101816Y0063823D01*
X0102013Y0063724D02*
X0091777Y0063724D01*
X0091941Y0063626D02*
X0102210Y0063626D01*
X0102407Y0063527D02*
X0092105Y0063527D01*
X0092269Y0063429D02*
X0102604Y0063429D01*
X0102801Y0063330D02*
X0092433Y0063330D01*
X0092598Y0063232D02*
X0102998Y0063232D01*
X0102991Y0063232D02*
X0113273Y0063232D01*
X0113430Y0063330D02*
X0103286Y0063330D01*
X0103195Y0063133D02*
X0092762Y0063133D01*
X0092926Y0063035D02*
X0103392Y0063035D01*
X0103589Y0062936D02*
X0093090Y0062936D01*
X0093254Y0062838D02*
X0103786Y0062838D01*
X0103983Y0062739D02*
X0093418Y0062739D01*
X0093583Y0062641D02*
X0104180Y0062641D01*
X0104377Y0062542D02*
X0093747Y0062542D01*
X0093911Y0062444D02*
X0104574Y0062444D01*
X0104595Y0062345D02*
X0094075Y0062345D01*
X0094239Y0062247D02*
X0104595Y0062247D01*
X0104595Y0062148D02*
X0094404Y0062148D01*
X0094568Y0062050D02*
X0104595Y0062050D01*
X0104595Y0061951D02*
X0094732Y0061951D01*
X0094896Y0061852D02*
X0104595Y0061852D01*
X0104595Y0061754D02*
X0095060Y0061754D01*
X0095224Y0061655D02*
X0104595Y0061655D01*
X0104595Y0061557D02*
X0095389Y0061557D01*
X0095553Y0061458D02*
X0104595Y0061458D01*
X0104595Y0061360D02*
X0095717Y0061360D01*
X0095881Y0061261D02*
X0104595Y0061261D01*
X0104595Y0061163D02*
X0096045Y0061163D01*
X0096210Y0061064D02*
X0104595Y0061064D01*
X0104595Y0060966D02*
X0096374Y0060966D01*
X0096538Y0060867D02*
X0104595Y0060867D01*
X0104595Y0060769D02*
X0096702Y0060769D01*
X0096866Y0060670D02*
X0104595Y0060670D01*
X0104595Y0060572D02*
X0097031Y0060572D01*
X0097195Y0060473D02*
X0104595Y0060473D01*
X0104595Y0060375D02*
X0097359Y0060375D01*
X0097523Y0060276D02*
X0104595Y0060276D01*
X0104595Y0060178D02*
X0097687Y0060178D01*
X0097851Y0060079D02*
X0104595Y0060079D01*
X0104595Y0059981D02*
X0098016Y0059981D01*
X0098180Y0059882D02*
X0104595Y0059882D01*
X0104595Y0059784D02*
X0098344Y0059784D01*
X0098508Y0059685D02*
X0104595Y0059685D01*
X0104595Y0059587D02*
X0098672Y0059587D01*
X0098837Y0059488D02*
X0104595Y0059488D01*
X0104595Y0059390D02*
X0099001Y0059390D01*
X0099165Y0059291D02*
X0104595Y0059291D01*
X0104595Y0059193D02*
X0099329Y0059193D01*
X0099493Y0059094D02*
X0104595Y0059094D01*
X0104595Y0058996D02*
X0099658Y0058996D01*
X0099822Y0058897D02*
X0104595Y0058897D01*
X0104595Y0058799D02*
X0099986Y0058799D01*
X0100150Y0058700D02*
X0104595Y0058700D01*
X0104595Y0058602D02*
X0100314Y0058602D01*
X0100478Y0058503D02*
X0104595Y0058503D01*
X0105595Y0058433D02*
X0100595Y0058433D01*
X0100595Y0062433D01*
X0103595Y0063433D01*
X0103595Y0068433D01*
X0113595Y0068433D01*
X0113595Y0063433D01*
X0105595Y0058433D01*
X0105707Y0058503D02*
X0100595Y0058503D01*
X0100595Y0058602D02*
X0105865Y0058602D01*
X0106022Y0058700D02*
X0100595Y0058700D01*
X0100595Y0058799D02*
X0106180Y0058799D01*
X0106338Y0058897D02*
X0100595Y0058897D01*
X0100595Y0058996D02*
X0106495Y0058996D01*
X0106653Y0059094D02*
X0100595Y0059094D01*
X0100595Y0059193D02*
X0106811Y0059193D01*
X0106968Y0059291D02*
X0100595Y0059291D01*
X0100595Y0059390D02*
X0107126Y0059390D01*
X0107283Y0059488D02*
X0100595Y0059488D01*
X0100595Y0059587D02*
X0107441Y0059587D01*
X0107599Y0059685D02*
X0100595Y0059685D01*
X0100595Y0059784D02*
X0107756Y0059784D01*
X0107914Y0059882D02*
X0100595Y0059882D01*
X0100595Y0059981D02*
X0108071Y0059981D01*
X0108229Y0060079D02*
X0100595Y0060079D01*
X0100595Y0060178D02*
X0108387Y0060178D01*
X0108544Y0060276D02*
X0100595Y0060276D01*
X0100595Y0060375D02*
X0108702Y0060375D01*
X0108860Y0060473D02*
X0100595Y0060473D01*
X0100595Y0060572D02*
X0109017Y0060572D01*
X0109175Y0060670D02*
X0100595Y0060670D01*
X0100595Y0060769D02*
X0109332Y0060769D01*
X0109490Y0060867D02*
X0100595Y0060867D01*
X0100595Y0060966D02*
X0109648Y0060966D01*
X0109805Y0061064D02*
X0100595Y0061064D01*
X0100595Y0061163D02*
X0109963Y0061163D01*
X0110120Y0061261D02*
X0100595Y0061261D01*
X0100595Y0061360D02*
X0110278Y0061360D01*
X0110436Y0061458D02*
X0100595Y0061458D01*
X0100595Y0061557D02*
X0110593Y0061557D01*
X0110751Y0061655D02*
X0100595Y0061655D01*
X0100595Y0061754D02*
X0110909Y0061754D01*
X0111066Y0061852D02*
X0100595Y0061852D01*
X0100595Y0061951D02*
X0111224Y0061951D01*
X0111381Y0062050D02*
X0100595Y0062050D01*
X0100595Y0062148D02*
X0111539Y0062148D01*
X0111697Y0062247D02*
X0100595Y0062247D01*
X0100595Y0062345D02*
X0111854Y0062345D01*
X0112012Y0062444D02*
X0100627Y0062444D01*
X0100922Y0062542D02*
X0112170Y0062542D01*
X0112327Y0062641D02*
X0101218Y0062641D01*
X0101513Y0062739D02*
X0112485Y0062739D01*
X0112642Y0062838D02*
X0101809Y0062838D01*
X0102104Y0062936D02*
X0112800Y0062936D01*
X0112958Y0063035D02*
X0102400Y0063035D01*
X0102695Y0063133D02*
X0113115Y0063133D01*
X0113588Y0063429D02*
X0103582Y0063429D01*
X0103595Y0063527D02*
X0113595Y0063527D01*
X0113595Y0063626D02*
X0103595Y0063626D01*
X0103595Y0063724D02*
X0113595Y0063724D01*
X0113595Y0063823D02*
X0103595Y0063823D01*
X0103595Y0063921D02*
X0113595Y0063921D01*
X0113595Y0064020D02*
X0103595Y0064020D01*
X0103595Y0064118D02*
X0113595Y0064118D01*
X0113595Y0064217D02*
X0103595Y0064217D01*
X0103595Y0064315D02*
X0113595Y0064315D01*
X0113595Y0064414D02*
X0103595Y0064414D01*
X0103595Y0064512D02*
X0113595Y0064512D01*
X0113595Y0064611D02*
X0103595Y0064611D01*
X0103595Y0064709D02*
X0113595Y0064709D01*
X0113595Y0064808D02*
X0103595Y0064808D01*
X0103595Y0064906D02*
X0113595Y0064906D01*
X0113595Y0065005D02*
X0103595Y0065005D01*
X0103595Y0065103D02*
X0113595Y0065103D01*
X0113595Y0065202D02*
X0103595Y0065202D01*
X0103595Y0065300D02*
X0113595Y0065300D01*
X0113595Y0065399D02*
X0103595Y0065399D01*
X0103595Y0065497D02*
X0113595Y0065497D01*
X0113595Y0065596D02*
X0103595Y0065596D01*
X0103595Y0065694D02*
X0113595Y0065694D01*
X0113595Y0065793D02*
X0103595Y0065793D01*
X0103595Y0065891D02*
X0113595Y0065891D01*
X0113595Y0065990D02*
X0103595Y0065990D01*
X0103595Y0066088D02*
X0113595Y0066088D01*
X0113595Y0066187D02*
X0103595Y0066187D01*
X0103595Y0066285D02*
X0113595Y0066285D01*
X0113595Y0066384D02*
X0103595Y0066384D01*
X0103595Y0066483D02*
X0113595Y0066483D01*
X0113595Y0066581D02*
X0103595Y0066581D01*
X0103595Y0066680D02*
X0113595Y0066680D01*
X0113595Y0066778D02*
X0103595Y0066778D01*
X0103595Y0066877D02*
X0113595Y0066877D01*
X0113595Y0066975D02*
X0103595Y0066975D01*
X0103595Y0067074D02*
X0113595Y0067074D01*
X0113595Y0067172D02*
X0103595Y0067172D01*
X0103595Y0067271D02*
X0113595Y0067271D01*
X0113595Y0067369D02*
X0103595Y0067369D01*
X0103595Y0067468D02*
X0113595Y0067468D01*
X0113595Y0067566D02*
X0103595Y0067566D01*
X0103595Y0067665D02*
X0113595Y0067665D01*
X0113595Y0067763D02*
X0103595Y0067763D01*
X0103595Y0067862D02*
X0113595Y0067862D01*
X0113595Y0067960D02*
X0103595Y0067960D01*
X0103595Y0068059D02*
X0113595Y0068059D01*
X0113595Y0068157D02*
X0103595Y0068157D01*
X0103595Y0068256D02*
X0113595Y0068256D01*
X0113595Y0068354D02*
X0103595Y0068354D01*
X0103603Y0070029D02*
X0114605Y0070029D01*
X0114605Y0070127D02*
X0103601Y0070127D01*
X0103599Y0070226D02*
X0114605Y0070226D01*
X0114604Y0070324D02*
X0103597Y0070324D01*
X0103595Y0070423D02*
X0114604Y0070423D01*
X0114604Y0070521D02*
X0103529Y0070521D01*
X0103455Y0070620D02*
X0114604Y0070620D01*
X0114604Y0070719D02*
X0103381Y0070719D01*
X0103307Y0070817D02*
X0114604Y0070817D01*
X0114603Y0070916D02*
X0103233Y0070916D01*
X0103159Y0071014D02*
X0114603Y0071014D01*
X0114603Y0071113D02*
X0103086Y0071113D01*
X0103012Y0071211D02*
X0114603Y0071211D01*
X0114603Y0071310D02*
X0102938Y0071310D01*
X0102864Y0071408D02*
X0114602Y0071408D01*
X0114602Y0071507D02*
X0102790Y0071507D01*
X0102716Y0071605D02*
X0114602Y0071605D01*
X0114602Y0071704D02*
X0102642Y0071704D01*
X0102568Y0071802D02*
X0114602Y0071802D01*
X0114602Y0071901D02*
X0102494Y0071901D01*
X0102421Y0071999D02*
X0114601Y0071999D01*
X0114601Y0072098D02*
X0102347Y0072098D01*
X0102273Y0072196D02*
X0114601Y0072196D01*
X0114601Y0072295D02*
X0102199Y0072295D01*
X0102125Y0072393D02*
X0114601Y0072393D01*
X0114600Y0072492D02*
X0102051Y0072492D01*
X0101977Y0072590D02*
X0114600Y0072590D01*
X0114600Y0072689D02*
X0101903Y0072689D01*
X0101830Y0072787D02*
X0114600Y0072787D01*
X0114600Y0072886D02*
X0101756Y0072886D01*
X0101682Y0072984D02*
X0114600Y0072984D01*
X0114599Y0073083D02*
X0101608Y0073083D01*
X0101534Y0073181D02*
X0114599Y0073181D01*
X0114599Y0073280D02*
X0101460Y0073280D01*
X0101386Y0073378D02*
X0114599Y0073378D01*
X0114599Y0073477D02*
X0101312Y0073477D01*
X0101238Y0073575D02*
X0114599Y0073575D01*
X0114598Y0073871D02*
X0101017Y0073871D01*
X0100943Y0073969D02*
X0114598Y0073969D01*
X0114598Y0074068D02*
X0100869Y0074068D01*
X0100795Y0074166D02*
X0114597Y0074166D01*
X0114597Y0074265D02*
X0100721Y0074265D01*
X0100647Y0074363D02*
X0114597Y0074363D01*
X0114597Y0074462D02*
X0100573Y0074462D01*
X0100500Y0074560D02*
X0114597Y0074560D01*
X0114597Y0074659D02*
X0100426Y0074659D01*
X0100352Y0074757D02*
X0114596Y0074757D01*
X0114596Y0074856D02*
X0100278Y0074856D01*
X0100204Y0074954D02*
X0114596Y0074954D01*
X0114596Y0075053D02*
X0100130Y0075053D01*
X0100056Y0075152D02*
X0114596Y0075152D01*
X0114595Y0075250D02*
X0099982Y0075250D01*
X0099909Y0075349D02*
X0114595Y0075349D01*
X0114553Y0075447D02*
X0099835Y0075447D01*
X0099761Y0075546D02*
X0114258Y0075546D01*
X0113962Y0075644D02*
X0099687Y0075644D01*
X0099613Y0075743D02*
X0113667Y0075743D01*
X0113371Y0075841D02*
X0099539Y0075841D01*
X0099465Y0075940D02*
X0113076Y0075940D01*
X0112780Y0076038D02*
X0099391Y0076038D01*
X0099317Y0076137D02*
X0112484Y0076137D01*
X0112189Y0076235D02*
X0099244Y0076235D01*
X0099170Y0076334D02*
X0111893Y0076334D01*
X0111598Y0076432D02*
X0099096Y0076432D01*
X0099022Y0076531D02*
X0111302Y0076531D01*
X0111007Y0076629D02*
X0098948Y0076629D01*
X0098874Y0076728D02*
X0110711Y0076728D01*
X0110416Y0076826D02*
X0098800Y0076826D01*
X0098726Y0076925D02*
X0110120Y0076925D01*
X0109825Y0077023D02*
X0098653Y0077023D01*
X0098579Y0077122D02*
X0109529Y0077122D01*
X0109234Y0077220D02*
X0098505Y0077220D01*
X0098431Y0077319D02*
X0108938Y0077319D01*
X0108643Y0077417D02*
X0098357Y0077417D01*
X0098283Y0077516D02*
X0108347Y0077516D01*
X0108051Y0077614D02*
X0098209Y0077614D01*
X0098135Y0077713D02*
X0107756Y0077713D01*
X0107460Y0077811D02*
X0098061Y0077811D01*
X0097988Y0077910D02*
X0107165Y0077910D01*
X0106869Y0078008D02*
X0097914Y0078008D01*
X0097856Y0077910D02*
X0100063Y0077910D01*
X0097840Y0078107D02*
X0106574Y0078107D01*
X0106278Y0078205D02*
X0097766Y0078205D01*
X0097692Y0078304D02*
X0105983Y0078304D01*
X0105687Y0078402D02*
X0097618Y0078402D01*
X0097595Y0078501D02*
X0105527Y0078501D01*
X0105429Y0078599D02*
X0097595Y0078599D01*
X0097595Y0078698D02*
X0105330Y0078698D01*
X0105232Y0078796D02*
X0097595Y0078796D01*
X0097595Y0078895D02*
X0105133Y0078895D01*
X0105035Y0078993D02*
X0097595Y0078993D01*
X0097595Y0079092D02*
X0104936Y0079092D01*
X0104838Y0079190D02*
X0097595Y0079190D01*
X0097595Y0079289D02*
X0104739Y0079289D01*
X0104641Y0079388D02*
X0097595Y0079388D01*
X0097595Y0079486D02*
X0104542Y0079486D01*
X0104444Y0079585D02*
X0097595Y0079585D01*
X0097595Y0079683D02*
X0104345Y0079683D01*
X0104247Y0079782D02*
X0097595Y0079782D01*
X0097595Y0079880D02*
X0104148Y0079880D01*
X0104050Y0079979D02*
X0097595Y0079979D01*
X0097595Y0080077D02*
X0103951Y0080077D01*
X0103853Y0080176D02*
X0097595Y0080176D01*
X0097595Y0080274D02*
X0103754Y0080274D01*
X0103656Y0080373D02*
X0097595Y0080373D01*
X0097595Y0080471D02*
X0103557Y0080471D01*
X0103459Y0080570D02*
X0097595Y0080570D01*
X0097595Y0080668D02*
X0103360Y0080668D01*
X0103262Y0080767D02*
X0097595Y0080767D01*
X0097595Y0080865D02*
X0103163Y0080865D01*
X0103095Y0079683D02*
X0095835Y0079683D01*
X0095947Y0079585D02*
X0103095Y0079585D01*
X0103095Y0079486D02*
X0096059Y0079486D01*
X0096171Y0079388D02*
X0103095Y0079388D01*
X0103095Y0079289D02*
X0096284Y0079289D01*
X0096396Y0079190D02*
X0103095Y0079190D01*
X0103095Y0079092D02*
X0096508Y0079092D01*
X0096621Y0078993D02*
X0103095Y0078993D01*
X0103095Y0078895D02*
X0096733Y0078895D01*
X0096845Y0078796D02*
X0103095Y0078796D01*
X0103095Y0078698D02*
X0096958Y0078698D01*
X0097070Y0078599D02*
X0103095Y0078599D01*
X0103095Y0078501D02*
X0097182Y0078501D01*
X0097295Y0078402D02*
X0103095Y0078402D01*
X0103095Y0078304D02*
X0097407Y0078304D01*
X0097519Y0078205D02*
X0103095Y0078205D01*
X0103095Y0078107D02*
X0097631Y0078107D01*
X0097744Y0078008D02*
X0103095Y0078008D01*
X0105613Y0080274D02*
X0112845Y0080274D01*
X0112845Y0080176D02*
X0105702Y0080176D01*
X0105791Y0080077D02*
X0112845Y0080077D01*
X0112845Y0079979D02*
X0105879Y0079979D01*
X0105968Y0079880D02*
X0112845Y0079880D01*
X0112845Y0079782D02*
X0106057Y0079782D01*
X0106145Y0079683D02*
X0112845Y0079683D01*
X0112845Y0079585D02*
X0106234Y0079585D01*
X0106323Y0079486D02*
X0112845Y0079486D01*
X0112845Y0079388D02*
X0106411Y0079388D01*
X0106500Y0079289D02*
X0112845Y0079289D01*
X0112845Y0079190D02*
X0106588Y0079190D01*
X0106595Y0079183D02*
X0104345Y0081683D01*
X0104345Y0092433D01*
X0108845Y0092433D01*
X0108845Y0084933D01*
X0112845Y0081183D01*
X0112845Y0079183D01*
X0106595Y0079183D01*
X0105525Y0080373D02*
X0112845Y0080373D01*
X0112845Y0080471D02*
X0105436Y0080471D01*
X0105347Y0080570D02*
X0112845Y0080570D01*
X0112845Y0080668D02*
X0105259Y0080668D01*
X0105170Y0080767D02*
X0112845Y0080767D01*
X0112845Y0080865D02*
X0105081Y0080865D01*
X0104993Y0080964D02*
X0112845Y0080964D01*
X0112845Y0081062D02*
X0104904Y0081062D01*
X0104815Y0081161D02*
X0112845Y0081161D01*
X0112764Y0081259D02*
X0104727Y0081259D01*
X0104638Y0081358D02*
X0112659Y0081358D01*
X0112554Y0081456D02*
X0104549Y0081456D01*
X0104461Y0081555D02*
X0112449Y0081555D01*
X0112344Y0081653D02*
X0104372Y0081653D01*
X0104345Y0081752D02*
X0112239Y0081752D01*
X0112133Y0081850D02*
X0104345Y0081850D01*
X0104345Y0081949D02*
X0112028Y0081949D01*
X0111923Y0082047D02*
X0104345Y0082047D01*
X0104345Y0082146D02*
X0111818Y0082146D01*
X0111713Y0082244D02*
X0104345Y0082244D01*
X0104345Y0082343D02*
X0111608Y0082343D01*
X0111503Y0082441D02*
X0104345Y0082441D01*
X0104345Y0082540D02*
X0111398Y0082540D01*
X0111293Y0082638D02*
X0104345Y0082638D01*
X0104345Y0082737D02*
X0111188Y0082737D01*
X0111083Y0082835D02*
X0104345Y0082835D01*
X0104345Y0082934D02*
X0110978Y0082934D01*
X0110873Y0083032D02*
X0104345Y0083032D01*
X0104345Y0083131D02*
X0110767Y0083131D01*
X0110662Y0083229D02*
X0104345Y0083229D01*
X0104345Y0083328D02*
X0110557Y0083328D01*
X0110452Y0083426D02*
X0104345Y0083426D01*
X0104345Y0083525D02*
X0110347Y0083525D01*
X0110242Y0083623D02*
X0104345Y0083623D01*
X0104345Y0083722D02*
X0110137Y0083722D01*
X0110032Y0083821D02*
X0104345Y0083821D01*
X0104345Y0083919D02*
X0109927Y0083919D01*
X0109822Y0084018D02*
X0104345Y0084018D01*
X0104345Y0084116D02*
X0109717Y0084116D01*
X0109612Y0084215D02*
X0104345Y0084215D01*
X0104345Y0084313D02*
X0109506Y0084313D01*
X0109401Y0084412D02*
X0104345Y0084412D01*
X0104345Y0084510D02*
X0109296Y0084510D01*
X0109191Y0084609D02*
X0104345Y0084609D01*
X0104345Y0084707D02*
X0109086Y0084707D01*
X0108981Y0084806D02*
X0104345Y0084806D01*
X0104345Y0084904D02*
X0108876Y0084904D01*
X0108845Y0085003D02*
X0104345Y0085003D01*
X0104345Y0085101D02*
X0108845Y0085101D01*
X0108845Y0085200D02*
X0104345Y0085200D01*
X0104345Y0085298D02*
X0108845Y0085298D01*
X0108845Y0085397D02*
X0104345Y0085397D01*
X0104345Y0085495D02*
X0108845Y0085495D01*
X0108845Y0085594D02*
X0104345Y0085594D01*
X0104345Y0085692D02*
X0108845Y0085692D01*
X0108845Y0085791D02*
X0104345Y0085791D01*
X0104345Y0085889D02*
X0108845Y0085889D01*
X0108845Y0085988D02*
X0104345Y0085988D01*
X0104345Y0086086D02*
X0108845Y0086086D01*
X0108845Y0086185D02*
X0104345Y0086185D01*
X0104345Y0086283D02*
X0108845Y0086283D01*
X0108845Y0086382D02*
X0104345Y0086382D01*
X0104345Y0086480D02*
X0108845Y0086480D01*
X0108845Y0086579D02*
X0104345Y0086579D01*
X0104345Y0086677D02*
X0108845Y0086677D01*
X0108845Y0086776D02*
X0104345Y0086776D01*
X0104345Y0086874D02*
X0108845Y0086874D01*
X0108845Y0086973D02*
X0104345Y0086973D01*
X0104345Y0087071D02*
X0108845Y0087071D01*
X0108845Y0087170D02*
X0104345Y0087170D01*
X0104345Y0087268D02*
X0108845Y0087268D01*
X0108845Y0087367D02*
X0104345Y0087367D01*
X0104345Y0087465D02*
X0108845Y0087465D01*
X0108845Y0087564D02*
X0104345Y0087564D01*
X0104345Y0087662D02*
X0108845Y0087662D01*
X0108845Y0087761D02*
X0104345Y0087761D01*
X0104345Y0087859D02*
X0108845Y0087859D01*
X0108845Y0087958D02*
X0104345Y0087958D01*
X0104345Y0088056D02*
X0108845Y0088056D01*
X0108845Y0088155D02*
X0104345Y0088155D01*
X0104345Y0088254D02*
X0108845Y0088254D01*
X0108845Y0088352D02*
X0104345Y0088352D01*
X0104345Y0088451D02*
X0108845Y0088451D01*
X0108845Y0088549D02*
X0104345Y0088549D01*
X0104345Y0088648D02*
X0108845Y0088648D01*
X0108845Y0088746D02*
X0104345Y0088746D01*
X0104345Y0088845D02*
X0108845Y0088845D01*
X0108845Y0088943D02*
X0104345Y0088943D01*
X0104345Y0089042D02*
X0108845Y0089042D01*
X0108845Y0089140D02*
X0104345Y0089140D01*
X0104345Y0089239D02*
X0108845Y0089239D01*
X0108845Y0089337D02*
X0104345Y0089337D01*
X0104345Y0089436D02*
X0108845Y0089436D01*
X0108845Y0089534D02*
X0104345Y0089534D01*
X0104345Y0089633D02*
X0108845Y0089633D01*
X0108845Y0089731D02*
X0104345Y0089731D01*
X0104345Y0089830D02*
X0108845Y0089830D01*
X0108845Y0089928D02*
X0104345Y0089928D01*
X0104345Y0090027D02*
X0108845Y0090027D01*
X0108845Y0090125D02*
X0104345Y0090125D01*
X0104345Y0090224D02*
X0108845Y0090224D01*
X0108845Y0090322D02*
X0104345Y0090322D01*
X0104345Y0090421D02*
X0108845Y0090421D01*
X0108845Y0090519D02*
X0104345Y0090519D01*
X0104345Y0090618D02*
X0108845Y0090618D01*
X0108845Y0090716D02*
X0104345Y0090716D01*
X0104345Y0090815D02*
X0108845Y0090815D01*
X0108845Y0090913D02*
X0104345Y0090913D01*
X0104345Y0091012D02*
X0108845Y0091012D01*
X0108845Y0091110D02*
X0104345Y0091110D01*
X0104345Y0091209D02*
X0108845Y0091209D01*
X0108845Y0091307D02*
X0104345Y0091307D01*
X0104345Y0091406D02*
X0108845Y0091406D01*
X0108845Y0091504D02*
X0104345Y0091504D01*
X0104345Y0091603D02*
X0108845Y0091603D01*
X0108845Y0091701D02*
X0104345Y0091701D01*
X0104345Y0091800D02*
X0108845Y0091800D01*
X0108845Y0091898D02*
X0104345Y0091898D01*
X0104345Y0091997D02*
X0108845Y0091997D01*
X0108845Y0092095D02*
X0104345Y0092095D01*
X0104345Y0092194D02*
X0108845Y0092194D01*
X0108845Y0092292D02*
X0104345Y0092292D01*
X0104345Y0092391D02*
X0108845Y0092391D01*
X0062058Y0101454D02*
X0055074Y0101454D01*
X0054976Y0101553D02*
X0061959Y0101553D01*
X0061861Y0101651D02*
X0054877Y0101651D01*
X0054779Y0101750D02*
X0061762Y0101750D01*
X0061664Y0101848D02*
X0054680Y0101848D01*
X0054582Y0101947D02*
X0061565Y0101947D01*
X0061467Y0102045D02*
X0054483Y0102045D01*
X0054385Y0102144D02*
X0061368Y0102144D01*
X0061270Y0102242D02*
X0054286Y0102242D01*
X0054188Y0102341D02*
X0061171Y0102341D01*
X0061145Y0102439D02*
X0054089Y0102439D01*
X0053991Y0102538D02*
X0061145Y0102538D01*
X0061145Y0102636D02*
X0053945Y0102636D01*
X0053945Y0102735D02*
X0061145Y0102735D01*
X0061145Y0102833D02*
X0053945Y0102833D01*
X0053945Y0102932D02*
X0061145Y0102932D01*
X0061145Y0103030D02*
X0053945Y0103030D01*
X0053945Y0103129D02*
X0061145Y0103129D01*
X0061145Y0103227D02*
X0053917Y0103227D01*
X0053819Y0103326D02*
X0061145Y0103326D01*
X0061145Y0103424D02*
X0053720Y0103424D01*
X0053622Y0103523D02*
X0061145Y0103523D01*
X0061145Y0103621D02*
X0053523Y0103621D01*
X0053425Y0103720D02*
X0061145Y0103720D01*
X0061145Y0103818D02*
X0053326Y0103818D01*
X0053228Y0103917D02*
X0061163Y0103917D01*
X0061261Y0104015D02*
X0053129Y0104015D01*
X0053031Y0104114D02*
X0061360Y0104114D01*
X0061458Y0104212D02*
X0052932Y0104212D01*
X0051258Y0104212D02*
X0043095Y0104212D01*
X0043095Y0104114D02*
X0051160Y0104114D01*
X0051061Y0104015D02*
X0043095Y0104015D01*
X0043095Y0103917D02*
X0050963Y0103917D01*
X0050864Y0103818D02*
X0043095Y0103818D01*
X0043095Y0103720D02*
X0050766Y0103720D01*
X0050667Y0103621D02*
X0043095Y0103621D01*
X0043095Y0103523D02*
X0050569Y0103523D01*
X0050470Y0103424D02*
X0043101Y0103424D01*
X0043167Y0103326D02*
X0050372Y0103326D01*
X0050273Y0103227D02*
X0043232Y0103227D01*
X0043298Y0103129D02*
X0050245Y0103129D01*
X0050245Y0103030D02*
X0043364Y0103030D01*
X0043429Y0102932D02*
X0050245Y0102932D01*
X0050162Y0102833D02*
X0043495Y0102833D01*
X0043561Y0102735D02*
X0050063Y0102735D01*
X0049965Y0102636D02*
X0043626Y0102636D01*
X0043692Y0102538D02*
X0049866Y0102538D01*
X0049768Y0102439D02*
X0043758Y0102439D01*
X0043823Y0102341D02*
X0049669Y0102341D01*
X0049571Y0102242D02*
X0043889Y0102242D01*
X0043955Y0102144D02*
X0049472Y0102144D01*
X0049374Y0102045D02*
X0044020Y0102045D01*
X0044086Y0101947D02*
X0049275Y0101947D01*
X0043095Y0104311D02*
X0061557Y0104311D01*
X0061655Y0104409D02*
X0043095Y0104409D01*
X0043095Y0104508D02*
X0061754Y0104508D01*
X0061852Y0104606D02*
X0043095Y0104606D01*
X0043095Y0104705D02*
X0061951Y0104705D01*
X0062049Y0104803D02*
X0043095Y0104803D01*
D20*
X0061595Y0053433D03*
D21*
X0065845Y0045933D02*
X0066337Y0045933D01*
X0067287Y0044983D01*
X0068903Y0044983D01*
X0070045Y0046125D01*
X0070045Y0046783D01*
X0074095Y0049933D01*
X0075095Y0051933D01*
X0079095Y0049433D01*
X0077095Y0045433D01*
X0077095Y0038933D01*
X0066595Y0036433D01*
X0063195Y0036533D01*
X0051135Y0036433D01*
X0050892Y0036676D01*
X0048595Y0039433D01*
X0048136Y0039433D01*
X0048097Y0039472D01*
X0048295Y0044433D01*
X0052495Y0044433D01*
X0052595Y0040933D01*
X0053095Y0040433D01*
X0055047Y0040433D01*
X0055047Y0040060D01*
X0055603Y0039504D01*
X0060327Y0039504D01*
X0060884Y0040060D01*
X0060884Y0040433D01*
X0062595Y0040433D01*
X0063095Y0040933D01*
X0063095Y0042958D01*
X0064820Y0044683D01*
X0065845Y0045708D01*
X0065845Y0045933D01*
X0065845Y0045821D02*
X0066449Y0045821D01*
X0066748Y0045523D02*
X0065660Y0045523D01*
X0065361Y0045224D02*
X0067046Y0045224D01*
X0065063Y0044926D02*
X0077095Y0044926D01*
X0077095Y0045224D02*
X0069144Y0045224D01*
X0069443Y0045523D02*
X0077140Y0045523D01*
X0077289Y0045821D02*
X0069741Y0045821D01*
X0070040Y0046120D02*
X0077439Y0046120D01*
X0077588Y0046418D02*
X0070045Y0046418D01*
X0070045Y0046717D02*
X0077737Y0046717D01*
X0077886Y0047015D02*
X0070344Y0047015D01*
X0070728Y0047314D02*
X0078036Y0047314D01*
X0078185Y0047612D02*
X0071112Y0047612D01*
X0071495Y0047911D02*
X0078334Y0047911D01*
X0078483Y0048210D02*
X0071879Y0048210D01*
X0072263Y0048508D02*
X0078633Y0048508D01*
X0078782Y0048807D02*
X0072647Y0048807D01*
X0073031Y0049105D02*
X0078931Y0049105D01*
X0079080Y0049404D02*
X0073414Y0049404D01*
X0073798Y0049702D02*
X0078665Y0049702D01*
X0078187Y0050001D02*
X0074129Y0050001D01*
X0074278Y0050299D02*
X0077710Y0050299D01*
X0077232Y0050598D02*
X0074427Y0050598D01*
X0074577Y0050896D02*
X0076754Y0050896D01*
X0076277Y0051195D02*
X0074726Y0051195D01*
X0074875Y0051493D02*
X0075799Y0051493D01*
X0075321Y0051792D02*
X0075024Y0051792D01*
X0077095Y0044627D02*
X0064764Y0044627D01*
X0064466Y0044329D02*
X0077095Y0044329D01*
X0077095Y0044030D02*
X0064167Y0044030D01*
X0063869Y0043732D02*
X0077095Y0043732D01*
X0077095Y0043433D02*
X0063570Y0043433D01*
X0063272Y0043135D02*
X0077095Y0043135D01*
X0077095Y0042836D02*
X0063095Y0042836D01*
X0063095Y0042538D02*
X0077095Y0042538D01*
X0077095Y0042239D02*
X0063095Y0042239D01*
X0063095Y0041941D02*
X0077095Y0041941D01*
X0077095Y0041642D02*
X0063095Y0041642D01*
X0063095Y0041344D02*
X0077095Y0041344D01*
X0077095Y0041045D02*
X0063095Y0041045D01*
X0062909Y0040747D02*
X0077095Y0040747D01*
X0077095Y0040448D02*
X0062610Y0040448D01*
X0060884Y0040150D02*
X0077095Y0040150D01*
X0077095Y0039851D02*
X0060674Y0039851D01*
X0060376Y0039553D02*
X0077095Y0039553D01*
X0077095Y0039254D02*
X0048744Y0039254D01*
X0048993Y0038956D02*
X0077095Y0038956D01*
X0075936Y0038657D02*
X0049242Y0038657D01*
X0049491Y0038359D02*
X0074683Y0038359D01*
X0073429Y0038060D02*
X0049739Y0038060D01*
X0049988Y0037762D02*
X0072175Y0037762D01*
X0070921Y0037463D02*
X0050237Y0037463D01*
X0050486Y0037165D02*
X0069668Y0037165D01*
X0068414Y0036866D02*
X0050734Y0036866D01*
X0051001Y0036568D02*
X0067160Y0036568D01*
X0055554Y0039553D02*
X0048100Y0039553D01*
X0048112Y0039851D02*
X0055256Y0039851D01*
X0055047Y0040150D02*
X0048124Y0040150D01*
X0048136Y0040448D02*
X0053080Y0040448D01*
X0052781Y0040747D02*
X0048148Y0040747D01*
X0048160Y0041045D02*
X0052592Y0041045D01*
X0052583Y0041344D02*
X0048172Y0041344D01*
X0048184Y0041642D02*
X0052575Y0041642D01*
X0052566Y0041941D02*
X0048195Y0041941D01*
X0048207Y0042239D02*
X0052558Y0042239D01*
X0052549Y0042538D02*
X0048219Y0042538D01*
X0048231Y0042836D02*
X0052541Y0042836D01*
X0052532Y0043135D02*
X0048243Y0043135D01*
X0048255Y0043433D02*
X0052524Y0043433D01*
X0052515Y0043732D02*
X0048267Y0043732D01*
X0048279Y0044030D02*
X0052507Y0044030D01*
X0052498Y0044329D02*
X0048291Y0044329D01*
D22*
X0093165Y0101833D03*
D23*
X0112595Y0089433D02*
X0117595Y0089433D01*
X0049095Y0035433D02*
X0045085Y0039443D01*
X0045085Y0041079D01*
D24*
X0045439Y0046433D02*
X0051595Y0046433D01*
X0051295Y0050733D02*
X0051295Y0051233D01*
X0057995Y0057933D01*
X0064595Y0057933D01*
X0066595Y0059933D01*
X0066595Y0069933D01*
X0068595Y0071933D01*
X0071595Y0071933D01*
X0074095Y0069433D02*
X0074595Y0069433D01*
X0076095Y0070933D01*
X0076095Y0084433D01*
X0067095Y0093433D01*
X0057095Y0093433D01*
X0053595Y0093433D01*
X0053595Y0093933D01*
X0053595Y0093433D02*
X0051595Y0093433D01*
X0049595Y0095433D01*
X0049595Y0099933D01*
X0052095Y0102433D01*
X0057741Y0097433D02*
X0061095Y0097433D01*
X0057095Y0093433D02*
X0058095Y0092433D01*
X0058095Y0091709D01*
X0057965Y0091579D01*
X0057595Y0091579D01*
X0049595Y0095433D02*
X0041095Y0095433D01*
X0039095Y0093433D01*
X0039095Y0077933D01*
X0038095Y0076933D01*
X0038095Y0071433D01*
X0036595Y0068433D01*
X0040095Y0067933D02*
X0041095Y0072433D01*
X0041095Y0074933D01*
X0040095Y0067933D02*
X0040095Y0051777D01*
X0045085Y0046787D01*
X0059691Y0042029D02*
X0064095Y0046433D01*
X0064095Y0050933D01*
X0064595Y0051433D01*
D25*
X0056472Y0059379D02*
X0046895Y0059379D01*
X0046895Y0058980D02*
X0046895Y0060886D01*
X0046048Y0061733D01*
X0046595Y0062280D01*
X0046595Y0064186D01*
X0045395Y0065386D01*
X0045395Y0065433D01*
X0046548Y0065433D01*
X0047895Y0066780D01*
X0047895Y0068686D01*
X0046548Y0070033D01*
X0045895Y0070033D01*
X0046348Y0070033D01*
X0047695Y0071380D01*
X0047695Y0073286D01*
X0046348Y0074633D01*
X0044442Y0074633D01*
X0043195Y0073386D01*
X0043195Y0073780D01*
X0043395Y0073980D01*
X0043395Y0075886D01*
X0042095Y0077186D01*
X0042095Y0077433D01*
X0041195Y0078333D01*
X0041195Y0090580D01*
X0041642Y0090133D01*
X0043548Y0090133D01*
X0044148Y0090733D01*
X0048391Y0090733D01*
X0053391Y0085733D01*
X0058838Y0085733D01*
X0058520Y0084965D01*
X0058520Y0083702D01*
X0059004Y0082535D01*
X0059897Y0081641D01*
X0061064Y0081158D01*
X0062327Y0081158D01*
X0063494Y0081641D01*
X0064387Y0082535D01*
X0064870Y0083702D01*
X0064870Y0084965D01*
X0064558Y0085717D01*
X0065142Y0085133D01*
X0067048Y0085133D01*
X0068395Y0086480D01*
X0068395Y0088386D01*
X0067048Y0089733D01*
X0065142Y0089733D01*
X0064542Y0089133D01*
X0060531Y0089133D01*
X0060864Y0089465D01*
X0060864Y0091333D01*
X0066225Y0091333D01*
X0072358Y0085200D01*
X0073595Y0083433D01*
X0073595Y0073186D01*
X0072548Y0074233D01*
X0070642Y0074233D01*
X0070442Y0074033D01*
X0067725Y0074033D01*
X0065725Y0072033D01*
X0064495Y0070803D01*
X0064495Y0060803D01*
X0063725Y0060033D01*
X0057125Y0060033D01*
X0049195Y0052103D01*
X0049195Y0051886D01*
X0048995Y0051686D01*
X0048995Y0049780D01*
X0049842Y0048933D01*
X0048321Y0048933D01*
X0047592Y0049662D01*
X0045180Y0049662D01*
X0042195Y0052647D01*
X0042195Y0062080D01*
X0042842Y0061433D01*
X0042295Y0060886D01*
X0042295Y0058980D01*
X0043342Y0057933D01*
X0043295Y0057886D01*
X0043295Y0055980D01*
X0044642Y0054633D01*
X0046548Y0054633D01*
X0047895Y0055980D01*
X0047895Y0057886D01*
X0046848Y0058933D01*
X0046895Y0058980D01*
X0047400Y0058381D02*
X0055473Y0058381D01*
X0054475Y0057382D02*
X0047895Y0057382D01*
X0047895Y0056384D02*
X0053476Y0056384D01*
X0052478Y0055385D02*
X0047300Y0055385D01*
X0050481Y0053388D02*
X0042195Y0053388D01*
X0042195Y0054387D02*
X0051479Y0054387D01*
X0049482Y0052390D02*
X0042452Y0052390D01*
X0043451Y0051391D02*
X0048995Y0051391D01*
X0048995Y0050393D02*
X0044449Y0050393D01*
X0047860Y0049394D02*
X0049381Y0049394D01*
X0043890Y0055385D02*
X0042195Y0055385D01*
X0042195Y0056384D02*
X0043295Y0056384D01*
X0043295Y0057382D02*
X0042195Y0057382D01*
X0042195Y0058381D02*
X0042895Y0058381D01*
X0042295Y0059379D02*
X0042195Y0059379D01*
X0042195Y0060378D02*
X0042295Y0060378D01*
X0042195Y0061377D02*
X0042786Y0061377D01*
X0046404Y0061377D02*
X0064495Y0061377D01*
X0064495Y0062375D02*
X0046595Y0062375D01*
X0046595Y0063374D02*
X0064495Y0063374D01*
X0064495Y0064372D02*
X0046409Y0064372D01*
X0045410Y0065371D02*
X0064495Y0065371D01*
X0064495Y0066369D02*
X0047484Y0066369D01*
X0047895Y0067368D02*
X0064495Y0067368D01*
X0064495Y0068366D02*
X0047895Y0068366D01*
X0047216Y0069365D02*
X0064495Y0069365D01*
X0064495Y0070363D02*
X0046678Y0070363D01*
X0045895Y0070033D02*
X0045895Y0070033D01*
X0047676Y0071362D02*
X0065054Y0071362D01*
X0066052Y0072360D02*
X0047695Y0072360D01*
X0047622Y0073359D02*
X0067051Y0073359D01*
X0069465Y0069833D02*
X0068695Y0069063D01*
X0068695Y0065286D01*
X0069242Y0065833D01*
X0071148Y0065833D01*
X0072071Y0064909D01*
X0073595Y0066433D01*
X0073595Y0067133D01*
X0073142Y0067133D01*
X0071795Y0068480D01*
X0071795Y0069633D01*
X0070642Y0069633D01*
X0070442Y0069833D01*
X0069465Y0069833D01*
X0068997Y0069365D02*
X0071795Y0069365D01*
X0071909Y0068366D02*
X0068695Y0068366D01*
X0068695Y0067368D02*
X0072908Y0067368D01*
X0073531Y0066369D02*
X0068695Y0066369D01*
X0068695Y0065371D02*
X0068780Y0065371D01*
X0071610Y0065371D02*
X0072533Y0065371D01*
X0073422Y0073359D02*
X0073595Y0073359D01*
X0073595Y0074357D02*
X0046624Y0074357D01*
X0044167Y0074357D02*
X0043395Y0074357D01*
X0043395Y0075356D02*
X0073595Y0075356D01*
X0073595Y0076354D02*
X0042927Y0076354D01*
X0042095Y0077353D02*
X0073595Y0077353D01*
X0073595Y0078351D02*
X0041195Y0078351D01*
X0041195Y0079350D02*
X0073595Y0079350D01*
X0073595Y0080348D02*
X0041195Y0080348D01*
X0041195Y0081347D02*
X0060608Y0081347D01*
X0059193Y0082345D02*
X0041195Y0082345D01*
X0041195Y0083344D02*
X0058668Y0083344D01*
X0058520Y0084342D02*
X0041195Y0084342D01*
X0041195Y0085341D02*
X0058676Y0085341D01*
X0060733Y0089335D02*
X0064744Y0089335D01*
X0066227Y0091332D02*
X0060864Y0091332D01*
X0060864Y0090333D02*
X0067225Y0090333D01*
X0067446Y0089335D02*
X0068224Y0089335D01*
X0068395Y0088336D02*
X0069222Y0088336D01*
X0068395Y0087338D02*
X0070221Y0087338D01*
X0071219Y0086339D02*
X0068254Y0086339D01*
X0067256Y0085341D02*
X0072218Y0085341D01*
X0072959Y0084342D02*
X0064870Y0084342D01*
X0064935Y0085341D02*
X0064714Y0085341D01*
X0064722Y0083344D02*
X0073595Y0083344D01*
X0073595Y0082345D02*
X0064197Y0082345D01*
X0062782Y0081347D02*
X0073595Y0081347D01*
X0052785Y0086339D02*
X0041195Y0086339D01*
X0041195Y0087338D02*
X0051786Y0087338D01*
X0050788Y0088336D02*
X0041195Y0088336D01*
X0041195Y0089335D02*
X0049789Y0089335D01*
X0048791Y0090333D02*
X0043748Y0090333D01*
X0041442Y0090333D02*
X0041195Y0090333D01*
X0046895Y0060378D02*
X0064070Y0060378D01*
D26*
X0091095Y0035933D03*
X0117595Y0089433D03*
M02*
