G75*
%MOIN*%
%OFA0B0*%
%FSLAX25Y25*%
%IPPOS*%
%LPD*%
%AMOC8*
5,1,8,0,0,1.08239X$1,22.5*
%
%ADD10C,0.00000*%
%ADD11C,0.07382*%
%ADD12C,0.02000*%
%ADD13C,0.00800*%
%ADD14C,0.03750*%
%ADD15C,0.03000*%
%ADD16C,0.04500*%
%ADD17C,0.03543*%
%ADD18C,0.01200*%
D10*
X0027595Y0028433D02*
X0027595Y0108433D01*
X0032595Y0113433D01*
X0125595Y0113433D01*
X0125595Y0023433D01*
X0032595Y0023433D01*
X0027595Y0028433D01*
D11*
X0032595Y0033276D03*
X0032595Y0043276D03*
X0032595Y0053276D03*
X0032595Y0063276D03*
X0032595Y0073394D03*
X0032595Y0083394D03*
X0032595Y0093394D03*
X0032595Y0103433D03*
X0082595Y0103433D03*
X0082595Y0093394D03*
X0082595Y0083394D03*
X0082595Y0073394D03*
X0082595Y0063276D03*
X0082595Y0053276D03*
X0082595Y0043276D03*
X0082595Y0033276D03*
X0099595Y0034433D03*
X0109595Y0034433D03*
X0119595Y0034433D03*
X0119595Y0044433D03*
X0109595Y0044433D03*
X0099595Y0044433D03*
D12*
X0090495Y0048333D03*
X0093095Y0055433D03*
X0088595Y0058933D03*
X0078095Y0048433D03*
X0076095Y0050433D03*
X0068095Y0046933D03*
X0067095Y0049433D03*
X0064595Y0051433D03*
X0061895Y0061633D03*
X0060595Y0065433D03*
X0063595Y0068633D03*
X0060595Y0072433D03*
X0057595Y0075933D03*
X0054595Y0072433D03*
X0051595Y0075933D03*
X0045395Y0072333D03*
X0043595Y0069933D03*
X0045595Y0067733D03*
X0043095Y0065933D03*
X0044295Y0063233D03*
X0044595Y0059933D03*
X0045595Y0056933D03*
X0049595Y0055733D03*
X0051295Y0050733D03*
X0051595Y0046433D03*
X0051095Y0043433D03*
X0051095Y0040933D03*
X0049095Y0035433D03*
X0053595Y0031933D03*
X0056595Y0031933D03*
X0059595Y0031933D03*
X0065095Y0033433D03*
X0041595Y0029933D03*
X0039095Y0042433D03*
X0052095Y0061633D03*
X0054595Y0065433D03*
X0057495Y0068633D03*
X0051495Y0068633D03*
X0057595Y0061633D03*
X0069395Y0067933D03*
X0071595Y0071933D03*
X0074095Y0069433D03*
X0070195Y0063533D03*
X0063595Y0075933D03*
X0066095Y0083433D03*
X0066095Y0087433D03*
X0061095Y0097433D03*
X0062995Y0103133D03*
X0052095Y0102433D03*
X0052595Y0099133D03*
X0052195Y0096733D03*
X0053595Y0093933D03*
X0048595Y0102933D03*
X0046595Y0104433D03*
X0044095Y0104433D03*
X0041095Y0103433D03*
X0042595Y0092433D03*
X0046595Y0082433D03*
X0041095Y0074933D03*
X0036595Y0068433D03*
D13*
X0038095Y0066433D02*
X0041095Y0069433D01*
X0043095Y0069433D01*
X0043595Y0069933D01*
X0043095Y0065933D02*
X0040095Y0062933D01*
X0040095Y0045433D01*
X0041595Y0043933D01*
X0041595Y0029933D01*
X0043595Y0031933D02*
X0050595Y0024933D01*
X0098095Y0024933D01*
X0099595Y0026433D01*
X0099595Y0034433D01*
X0095978Y0037733D02*
X0095449Y0037204D01*
X0094704Y0035406D01*
X0094704Y0033460D01*
X0095449Y0031663D01*
X0096825Y0030287D01*
X0097995Y0029802D01*
X0097995Y0027096D01*
X0097432Y0026533D01*
X0051258Y0026533D01*
X0045195Y0032596D01*
X0045195Y0033070D01*
X0050932Y0027333D01*
X0073258Y0027333D01*
X0075195Y0029270D01*
X0075195Y0036733D01*
X0088210Y0036733D01*
X0088123Y0036524D01*
X0088123Y0035342D01*
X0088576Y0034250D01*
X0089412Y0033414D01*
X0090504Y0032961D01*
X0091686Y0032961D01*
X0092778Y0033414D01*
X0093614Y0034250D01*
X0094067Y0035342D01*
X0094067Y0036524D01*
X0093652Y0037527D01*
X0093858Y0037733D01*
X0095978Y0037733D01*
X0095368Y0037008D02*
X0093866Y0037008D01*
X0094067Y0036209D02*
X0095037Y0036209D01*
X0094706Y0035411D02*
X0094067Y0035411D01*
X0093765Y0034612D02*
X0094704Y0034612D01*
X0094704Y0033814D02*
X0093178Y0033814D01*
X0091816Y0033015D02*
X0094889Y0033015D01*
X0095219Y0032217D02*
X0075195Y0032217D01*
X0075195Y0033015D02*
X0090374Y0033015D01*
X0089012Y0033814D02*
X0075195Y0033814D01*
X0075195Y0034612D02*
X0088426Y0034612D01*
X0088123Y0035411D02*
X0075195Y0035411D01*
X0075195Y0036209D02*
X0088123Y0036209D01*
X0089095Y0038333D02*
X0090395Y0039633D01*
X0090395Y0048233D01*
X0090495Y0048333D01*
X0091995Y0046722D02*
X0092695Y0047422D01*
X0092695Y0049244D01*
X0091406Y0050533D01*
X0089584Y0050533D01*
X0088295Y0049244D01*
X0088295Y0047422D01*
X0088795Y0046922D01*
X0088795Y0040296D01*
X0088432Y0039933D01*
X0086169Y0039933D01*
X0086741Y0040505D01*
X0087486Y0042303D01*
X0087486Y0044248D01*
X0086741Y0046046D01*
X0085366Y0047422D01*
X0083568Y0048167D01*
X0081622Y0048167D01*
X0080295Y0047617D01*
X0080295Y0048934D01*
X0081622Y0048385D01*
X0083568Y0048385D01*
X0085366Y0049129D01*
X0086741Y0050505D01*
X0087486Y0052303D01*
X0087486Y0054248D01*
X0086741Y0056046D01*
X0086054Y0056733D01*
X0089506Y0056733D01*
X0090795Y0058022D01*
X0090795Y0059844D01*
X0089506Y0061133D01*
X0087684Y0061133D01*
X0086484Y0059933D01*
X0086169Y0059933D01*
X0086741Y0060505D01*
X0087486Y0062303D01*
X0087486Y0064248D01*
X0086741Y0066046D01*
X0085366Y0067422D01*
X0083568Y0068167D01*
X0081622Y0068167D01*
X0079825Y0067422D01*
X0078449Y0066046D01*
X0077704Y0064248D01*
X0077704Y0062303D01*
X0078449Y0060505D01*
X0079021Y0059933D01*
X0077158Y0059933D01*
X0071958Y0065133D01*
X0071706Y0065133D01*
X0071106Y0065733D01*
X0069284Y0065733D01*
X0067995Y0064444D01*
X0067995Y0062622D01*
X0069284Y0061333D01*
X0071106Y0061333D01*
X0071169Y0061396D01*
X0074895Y0057670D01*
X0075832Y0056733D01*
X0079136Y0056733D01*
X0078449Y0056046D01*
X0077704Y0054248D01*
X0077704Y0052303D01*
X0077964Y0051675D01*
X0077006Y0052633D01*
X0075184Y0052633D01*
X0073895Y0051344D01*
X0073895Y0049522D01*
X0075184Y0048233D01*
X0075895Y0048233D01*
X0075895Y0047522D01*
X0077184Y0046233D01*
X0078636Y0046233D01*
X0078449Y0046046D01*
X0077704Y0044248D01*
X0077704Y0042303D01*
X0078449Y0040505D01*
X0079021Y0039933D01*
X0073832Y0039933D01*
X0072932Y0039033D01*
X0071995Y0038096D01*
X0071995Y0030596D01*
X0071932Y0030533D01*
X0052258Y0030533D01*
X0047695Y0035096D01*
X0047695Y0047596D01*
X0047195Y0048096D01*
X0047195Y0055422D01*
X0047795Y0056022D01*
X0047795Y0057844D01*
X0046706Y0058933D01*
X0046795Y0059022D01*
X0046795Y0060844D01*
X0045906Y0061733D01*
X0046495Y0062322D01*
X0046495Y0064144D01*
X0045295Y0065344D01*
X0045295Y0065533D01*
X0046506Y0065533D01*
X0047795Y0066822D01*
X0047795Y0067387D01*
X0049895Y0069487D01*
X0049895Y0074679D01*
X0048841Y0075733D01*
X0040395Y0084179D01*
X0040395Y0101233D01*
X0042006Y0101233D01*
X0043095Y0102322D01*
X0043184Y0102233D01*
X0045006Y0102233D01*
X0045345Y0102572D01*
X0045684Y0102233D01*
X0046395Y0102233D01*
X0046395Y0102022D01*
X0047684Y0100733D01*
X0049506Y0100733D01*
X0050095Y0101322D01*
X0051184Y0100233D01*
X0053006Y0100233D01*
X0054295Y0101522D01*
X0054295Y0103344D01*
X0053006Y0104633D01*
X0051184Y0104633D01*
X0050595Y0104044D01*
X0049506Y0105133D01*
X0048795Y0105133D01*
X0048795Y0105344D01*
X0047506Y0106633D01*
X0045684Y0106633D01*
X0045345Y0106294D01*
X0045006Y0106633D01*
X0043184Y0106633D01*
X0042095Y0105544D01*
X0042006Y0105633D01*
X0040395Y0105633D01*
X0040395Y0107687D01*
X0041210Y0108503D01*
X0066797Y0108633D01*
X0118850Y0108633D01*
X0120795Y0106687D01*
X0120795Y0053179D01*
X0117795Y0050179D01*
X0117795Y0048981D01*
X0116825Y0048579D01*
X0115449Y0047204D01*
X0114704Y0045406D01*
X0114704Y0043460D01*
X0115449Y0041663D01*
X0116825Y0040287D01*
X0118622Y0039542D01*
X0120568Y0039542D01*
X0122366Y0040287D01*
X0123741Y0041663D01*
X0124195Y0042758D01*
X0124195Y0036108D01*
X0123741Y0037204D01*
X0122366Y0038579D01*
X0120568Y0039324D01*
X0118622Y0039324D01*
X0116825Y0038579D01*
X0115449Y0037204D01*
X0114704Y0035406D01*
X0114704Y0033460D01*
X0115449Y0031663D01*
X0116825Y0030287D01*
X0118622Y0029542D01*
X0120568Y0029542D01*
X0122366Y0030287D01*
X0123741Y0031663D01*
X0124195Y0032758D01*
X0124195Y0024833D01*
X0100258Y0024833D01*
X0101195Y0025770D01*
X0101195Y0029802D01*
X0102366Y0030287D01*
X0103741Y0031663D01*
X0104486Y0033460D01*
X0104486Y0035406D01*
X0103868Y0036897D01*
X0104896Y0035869D01*
X0104704Y0035406D01*
X0104704Y0033460D01*
X0105449Y0031663D01*
X0106825Y0030287D01*
X0108622Y0029542D01*
X0110568Y0029542D01*
X0112366Y0030287D01*
X0113741Y0031663D01*
X0114486Y0033460D01*
X0114486Y0035406D01*
X0113741Y0037204D01*
X0112366Y0038579D01*
X0110568Y0039324D01*
X0108622Y0039324D01*
X0106825Y0038579D01*
X0106768Y0038523D01*
X0105295Y0039996D01*
X0104358Y0040933D01*
X0103012Y0040933D01*
X0103741Y0041663D01*
X0104486Y0043460D01*
X0104486Y0045406D01*
X0103741Y0047204D01*
X0102366Y0048579D01*
X0100568Y0049324D01*
X0098622Y0049324D01*
X0096825Y0048579D01*
X0095449Y0047204D01*
X0094704Y0045406D01*
X0094704Y0043460D01*
X0095449Y0041663D01*
X0096178Y0040933D01*
X0092532Y0040933D01*
X0091995Y0040396D01*
X0091995Y0046722D01*
X0091995Y0046590D02*
X0095195Y0046590D01*
X0094864Y0045791D02*
X0091995Y0045791D01*
X0091995Y0044993D02*
X0094704Y0044993D01*
X0094704Y0044194D02*
X0091995Y0044194D01*
X0091995Y0043396D02*
X0094731Y0043396D01*
X0095062Y0042597D02*
X0091995Y0042597D01*
X0091995Y0041799D02*
X0095392Y0041799D01*
X0096111Y0041000D02*
X0091995Y0041000D01*
X0093195Y0039333D02*
X0091095Y0037233D01*
X0091095Y0035933D01*
X0089095Y0038333D02*
X0074495Y0038333D01*
X0073595Y0037433D01*
X0073595Y0029933D01*
X0072595Y0028933D01*
X0051595Y0028933D01*
X0046095Y0034433D01*
X0046095Y0046933D01*
X0045595Y0047433D01*
X0045595Y0056933D01*
X0047795Y0056971D02*
X0075595Y0056971D01*
X0074796Y0057769D02*
X0047795Y0057769D01*
X0047072Y0058568D02*
X0073998Y0058568D01*
X0073199Y0059366D02*
X0046795Y0059366D01*
X0046795Y0060165D02*
X0072401Y0060165D01*
X0071602Y0060963D02*
X0046676Y0060963D01*
X0045935Y0061762D02*
X0068855Y0061762D01*
X0068057Y0062560D02*
X0046495Y0062560D01*
X0046495Y0063359D02*
X0067995Y0063359D01*
X0067995Y0064157D02*
X0046482Y0064157D01*
X0045684Y0064956D02*
X0068506Y0064956D01*
X0070195Y0063533D02*
X0071295Y0063533D01*
X0076495Y0058333D01*
X0087995Y0058333D01*
X0088595Y0058933D01*
X0086715Y0060165D02*
X0086401Y0060165D01*
X0086931Y0060963D02*
X0087514Y0060963D01*
X0087262Y0061762D02*
X0120795Y0061762D01*
X0120795Y0062560D02*
X0087486Y0062560D01*
X0087486Y0063359D02*
X0120795Y0063359D01*
X0120795Y0064157D02*
X0087486Y0064157D01*
X0087193Y0064956D02*
X0120795Y0064956D01*
X0120795Y0065754D02*
X0086862Y0065754D01*
X0086235Y0066553D02*
X0120795Y0066553D01*
X0120795Y0067351D02*
X0085436Y0067351D01*
X0084643Y0068948D02*
X0120795Y0068948D01*
X0120795Y0068150D02*
X0083609Y0068150D01*
X0083568Y0068503D02*
X0085366Y0069247D01*
X0086741Y0070623D01*
X0087486Y0072421D01*
X0087486Y0074367D01*
X0086741Y0076164D01*
X0085366Y0077540D01*
X0083568Y0078285D01*
X0081622Y0078285D01*
X0079825Y0077540D01*
X0078449Y0076164D01*
X0077704Y0074367D01*
X0077704Y0072421D01*
X0078449Y0070623D01*
X0079825Y0069247D01*
X0081622Y0068503D01*
X0083568Y0068503D01*
X0081582Y0068150D02*
X0075923Y0068150D01*
X0076295Y0068522D02*
X0075006Y0067233D01*
X0073184Y0067233D01*
X0071895Y0068522D01*
X0071895Y0069733D01*
X0070684Y0069733D01*
X0069395Y0071022D01*
X0069395Y0072844D01*
X0070684Y0074133D01*
X0072506Y0074133D01*
X0073795Y0072844D01*
X0073795Y0071633D01*
X0075006Y0071633D01*
X0076295Y0070344D01*
X0076295Y0068522D01*
X0076295Y0068948D02*
X0080547Y0068948D01*
X0079325Y0069747D02*
X0076295Y0069747D01*
X0076094Y0070545D02*
X0078527Y0070545D01*
X0078150Y0071344D02*
X0075296Y0071344D01*
X0073795Y0072142D02*
X0077820Y0072142D01*
X0077704Y0072941D02*
X0073699Y0072941D01*
X0072900Y0073739D02*
X0077704Y0073739D01*
X0077775Y0074538D02*
X0049895Y0074538D01*
X0049895Y0073739D02*
X0070290Y0073739D01*
X0069492Y0072941D02*
X0049895Y0072941D01*
X0049895Y0072142D02*
X0069395Y0072142D01*
X0069395Y0071344D02*
X0049895Y0071344D01*
X0049895Y0070545D02*
X0069872Y0070545D01*
X0070670Y0069747D02*
X0049895Y0069747D01*
X0049356Y0068948D02*
X0071895Y0068948D01*
X0072267Y0068150D02*
X0048557Y0068150D01*
X0047795Y0067351D02*
X0073066Y0067351D01*
X0075125Y0067351D02*
X0079754Y0067351D01*
X0078955Y0066553D02*
X0047526Y0066553D01*
X0046728Y0065754D02*
X0078328Y0065754D01*
X0077997Y0064956D02*
X0072135Y0064956D01*
X0072934Y0064157D02*
X0077704Y0064157D01*
X0077704Y0063359D02*
X0073732Y0063359D01*
X0074531Y0062560D02*
X0077704Y0062560D01*
X0077928Y0061762D02*
X0075329Y0061762D01*
X0076128Y0060963D02*
X0078259Y0060963D01*
X0078789Y0060165D02*
X0076926Y0060165D01*
X0078575Y0056172D02*
X0047795Y0056172D01*
X0047195Y0055374D02*
X0059717Y0055374D01*
X0060066Y0055722D02*
X0059306Y0054962D01*
X0058895Y0053970D01*
X0058895Y0052896D01*
X0059306Y0051904D01*
X0060066Y0051144D01*
X0061058Y0050733D01*
X0062132Y0050733D01*
X0062395Y0050842D01*
X0062395Y0050522D01*
X0063684Y0049233D01*
X0064895Y0049233D01*
X0064895Y0048522D01*
X0065895Y0047522D01*
X0065895Y0046022D01*
X0067184Y0044733D01*
X0069006Y0044733D01*
X0070295Y0046022D01*
X0070295Y0047844D01*
X0069295Y0048844D01*
X0069295Y0050344D01*
X0068006Y0051633D01*
X0066795Y0051633D01*
X0066795Y0052344D01*
X0065506Y0053633D01*
X0064295Y0053633D01*
X0064295Y0053970D01*
X0063884Y0054962D01*
X0063125Y0055722D01*
X0062132Y0056133D01*
X0061058Y0056133D01*
X0060066Y0055722D01*
X0059146Y0054575D02*
X0047195Y0054575D01*
X0047195Y0053777D02*
X0058895Y0053777D01*
X0058895Y0052978D02*
X0047195Y0052978D01*
X0047195Y0052179D02*
X0049630Y0052179D01*
X0049095Y0051644D02*
X0049095Y0049822D01*
X0050384Y0048533D01*
X0050584Y0048533D01*
X0049395Y0047344D01*
X0049395Y0045522D01*
X0049734Y0045183D01*
X0048895Y0044344D01*
X0048895Y0042522D01*
X0049234Y0042183D01*
X0048895Y0041844D01*
X0048895Y0040022D01*
X0050184Y0038733D01*
X0052006Y0038733D01*
X0053295Y0040022D01*
X0053295Y0041844D01*
X0052956Y0042183D01*
X0053295Y0042522D01*
X0053295Y0044344D01*
X0052956Y0044683D01*
X0053795Y0045522D01*
X0053795Y0047344D01*
X0052506Y0048633D01*
X0052306Y0048633D01*
X0053495Y0049822D01*
X0053495Y0051644D01*
X0052206Y0052933D01*
X0050384Y0052933D01*
X0049095Y0051644D01*
X0049095Y0051381D02*
X0047195Y0051381D01*
X0047195Y0050582D02*
X0049095Y0050582D01*
X0049133Y0049784D02*
X0047195Y0049784D01*
X0047195Y0048985D02*
X0049931Y0048985D01*
X0050238Y0048187D02*
X0047195Y0048187D01*
X0047695Y0047388D02*
X0049439Y0047388D01*
X0049395Y0046590D02*
X0047695Y0046590D01*
X0047695Y0045791D02*
X0049395Y0045791D01*
X0049544Y0044993D02*
X0047695Y0044993D01*
X0047695Y0044194D02*
X0048895Y0044194D01*
X0048895Y0043396D02*
X0047695Y0043396D01*
X0047695Y0042597D02*
X0048895Y0042597D01*
X0048895Y0041799D02*
X0047695Y0041799D01*
X0047695Y0041000D02*
X0048895Y0041000D01*
X0048895Y0040202D02*
X0047695Y0040202D01*
X0047695Y0039403D02*
X0049514Y0039403D01*
X0047695Y0038605D02*
X0072504Y0038605D01*
X0071995Y0037806D02*
X0047695Y0037806D01*
X0047695Y0037008D02*
X0071995Y0037008D01*
X0071995Y0036209D02*
X0047695Y0036209D01*
X0047695Y0035411D02*
X0071995Y0035411D01*
X0071995Y0034612D02*
X0048179Y0034612D01*
X0048977Y0033814D02*
X0071995Y0033814D01*
X0071995Y0033015D02*
X0049776Y0033015D01*
X0050574Y0032217D02*
X0071995Y0032217D01*
X0071995Y0031418D02*
X0051373Y0031418D01*
X0052171Y0030620D02*
X0071995Y0030620D01*
X0074149Y0028224D02*
X0097995Y0028224D01*
X0097995Y0027426D02*
X0073350Y0027426D01*
X0074947Y0029023D02*
X0097995Y0029023D01*
X0097949Y0029821D02*
X0075195Y0029821D01*
X0075195Y0030620D02*
X0096492Y0030620D01*
X0095693Y0031418D02*
X0075195Y0031418D01*
X0073303Y0039403D02*
X0052677Y0039403D01*
X0053295Y0040202D02*
X0078752Y0040202D01*
X0078244Y0041000D02*
X0053295Y0041000D01*
X0053295Y0041799D02*
X0077913Y0041799D01*
X0077704Y0042597D02*
X0053295Y0042597D01*
X0053295Y0043396D02*
X0077704Y0043396D01*
X0077704Y0044194D02*
X0053295Y0044194D01*
X0053266Y0044993D02*
X0066924Y0044993D01*
X0066126Y0045791D02*
X0053795Y0045791D01*
X0053795Y0046590D02*
X0065895Y0046590D01*
X0065895Y0047388D02*
X0053751Y0047388D01*
X0052953Y0048187D02*
X0065230Y0048187D01*
X0064895Y0048985D02*
X0052659Y0048985D01*
X0053457Y0049784D02*
X0063133Y0049784D01*
X0062395Y0050582D02*
X0053495Y0050582D01*
X0053495Y0051381D02*
X0059829Y0051381D01*
X0059192Y0052179D02*
X0052960Y0052179D01*
X0043595Y0046433D02*
X0043595Y0031933D01*
X0045195Y0033015D02*
X0045250Y0033015D01*
X0045574Y0032217D02*
X0046049Y0032217D01*
X0046373Y0031418D02*
X0046847Y0031418D01*
X0047171Y0030620D02*
X0047646Y0030620D01*
X0047970Y0029821D02*
X0048444Y0029821D01*
X0048768Y0029023D02*
X0049243Y0029023D01*
X0049567Y0028224D02*
X0050041Y0028224D01*
X0050365Y0027426D02*
X0050840Y0027426D01*
X0051164Y0026627D02*
X0097526Y0026627D01*
X0100455Y0025030D02*
X0124195Y0025030D01*
X0124195Y0025829D02*
X0101195Y0025829D01*
X0101195Y0026627D02*
X0124195Y0026627D01*
X0124195Y0027426D02*
X0101195Y0027426D01*
X0101195Y0028224D02*
X0124195Y0028224D01*
X0124195Y0029023D02*
X0101195Y0029023D01*
X0101242Y0029821D02*
X0107949Y0029821D01*
X0106492Y0030620D02*
X0102699Y0030620D01*
X0103497Y0031418D02*
X0105693Y0031418D01*
X0105219Y0032217D02*
X0103971Y0032217D01*
X0104302Y0033015D02*
X0104889Y0033015D01*
X0104704Y0033814D02*
X0104486Y0033814D01*
X0104486Y0034612D02*
X0104704Y0034612D01*
X0104706Y0035411D02*
X0104484Y0035411D01*
X0104556Y0036209D02*
X0104153Y0036209D01*
X0106686Y0038605D02*
X0106886Y0038605D01*
X0105888Y0039403D02*
X0124195Y0039403D01*
X0124195Y0038605D02*
X0122304Y0038605D01*
X0123139Y0037806D02*
X0124195Y0037806D01*
X0124195Y0037008D02*
X0123823Y0037008D01*
X0124153Y0036209D02*
X0124195Y0036209D01*
X0124195Y0032217D02*
X0123971Y0032217D01*
X0124195Y0031418D02*
X0123497Y0031418D01*
X0124195Y0030620D02*
X0122699Y0030620D01*
X0121242Y0029821D02*
X0124195Y0029821D01*
X0117949Y0029821D02*
X0111242Y0029821D01*
X0112699Y0030620D02*
X0116492Y0030620D01*
X0115693Y0031418D02*
X0113497Y0031418D01*
X0113971Y0032217D02*
X0115219Y0032217D01*
X0114889Y0033015D02*
X0114302Y0033015D01*
X0114486Y0033814D02*
X0114704Y0033814D01*
X0114704Y0034612D02*
X0114486Y0034612D01*
X0114484Y0035411D02*
X0114706Y0035411D01*
X0115037Y0036209D02*
X0114153Y0036209D01*
X0113823Y0037008D02*
X0115368Y0037008D01*
X0116052Y0037806D02*
X0113139Y0037806D01*
X0112304Y0038605D02*
X0116886Y0038605D01*
X0117030Y0040202D02*
X0112161Y0040202D01*
X0112366Y0040287D02*
X0113741Y0041663D01*
X0114486Y0043460D01*
X0114486Y0045406D01*
X0113741Y0047204D01*
X0112366Y0048579D01*
X0111195Y0049064D01*
X0111195Y0049596D01*
X0108695Y0052096D01*
X0107758Y0053033D01*
X0094758Y0053033D01*
X0094695Y0053096D01*
X0094695Y0053922D01*
X0095295Y0054522D01*
X0095295Y0056344D01*
X0094006Y0057633D01*
X0092184Y0057633D01*
X0090895Y0056344D01*
X0090895Y0054522D01*
X0091495Y0053922D01*
X0091495Y0051770D01*
X0093432Y0049833D01*
X0106432Y0049833D01*
X0107434Y0048832D01*
X0106825Y0048579D01*
X0105449Y0047204D01*
X0104704Y0045406D01*
X0104704Y0043460D01*
X0105449Y0041663D01*
X0106825Y0040287D01*
X0108622Y0039542D01*
X0110568Y0039542D01*
X0112366Y0040287D01*
X0113079Y0041000D02*
X0116111Y0041000D01*
X0115392Y0041799D02*
X0113798Y0041799D01*
X0114129Y0042597D02*
X0115062Y0042597D01*
X0114731Y0043396D02*
X0114459Y0043396D01*
X0114486Y0044194D02*
X0114704Y0044194D01*
X0114704Y0044993D02*
X0114486Y0044993D01*
X0114326Y0045791D02*
X0114864Y0045791D01*
X0115195Y0046590D02*
X0113996Y0046590D01*
X0113557Y0047388D02*
X0115634Y0047388D01*
X0116432Y0048187D02*
X0112758Y0048187D01*
X0111385Y0048985D02*
X0117795Y0048985D01*
X0117795Y0049784D02*
X0111007Y0049784D01*
X0110208Y0050582D02*
X0118199Y0050582D01*
X0118997Y0051381D02*
X0109410Y0051381D01*
X0108611Y0052179D02*
X0119796Y0052179D01*
X0120594Y0052978D02*
X0107813Y0052978D01*
X0107095Y0051433D02*
X0094095Y0051433D01*
X0093095Y0052433D01*
X0093095Y0055433D01*
X0091521Y0056971D02*
X0089744Y0056971D01*
X0090542Y0057769D02*
X0120795Y0057769D01*
X0120795Y0056971D02*
X0094669Y0056971D01*
X0095295Y0056172D02*
X0120795Y0056172D01*
X0120795Y0055374D02*
X0095295Y0055374D01*
X0095295Y0054575D02*
X0120795Y0054575D01*
X0120795Y0053777D02*
X0094695Y0053777D01*
X0091495Y0053777D02*
X0087486Y0053777D01*
X0087486Y0052978D02*
X0091495Y0052978D01*
X0091495Y0052179D02*
X0087435Y0052179D01*
X0087104Y0051381D02*
X0091884Y0051381D01*
X0092683Y0050582D02*
X0086774Y0050582D01*
X0086020Y0049784D02*
X0088835Y0049784D01*
X0088295Y0048985D02*
X0085018Y0048985D01*
X0085399Y0047388D02*
X0088329Y0047388D01*
X0088295Y0048187D02*
X0080295Y0048187D01*
X0078343Y0045791D02*
X0070065Y0045791D01*
X0070295Y0046590D02*
X0076827Y0046590D01*
X0076029Y0047388D02*
X0070295Y0047388D01*
X0069953Y0048187D02*
X0075895Y0048187D01*
X0074431Y0048985D02*
X0069295Y0048985D01*
X0069295Y0049784D02*
X0073895Y0049784D01*
X0073895Y0050582D02*
X0069057Y0050582D01*
X0068259Y0051381D02*
X0073932Y0051381D01*
X0074730Y0052179D02*
X0066795Y0052179D01*
X0066161Y0052978D02*
X0077704Y0052978D01*
X0077704Y0053777D02*
X0064295Y0053777D01*
X0064045Y0054575D02*
X0077839Y0054575D01*
X0078170Y0055374D02*
X0063473Y0055374D01*
X0069266Y0044993D02*
X0078013Y0044993D01*
X0077755Y0052179D02*
X0077460Y0052179D01*
X0086198Y0046590D02*
X0088795Y0046590D01*
X0088795Y0045791D02*
X0086847Y0045791D01*
X0087178Y0044993D02*
X0088795Y0044993D01*
X0088795Y0044194D02*
X0087486Y0044194D01*
X0087486Y0043396D02*
X0088795Y0043396D01*
X0088795Y0042597D02*
X0087486Y0042597D01*
X0087277Y0041799D02*
X0088795Y0041799D01*
X0088795Y0041000D02*
X0086947Y0041000D01*
X0086438Y0040202D02*
X0088701Y0040202D01*
X0093195Y0039333D02*
X0103695Y0039333D01*
X0108595Y0034433D01*
X0109595Y0034433D01*
X0107030Y0040202D02*
X0105089Y0040202D01*
X0106111Y0041000D02*
X0103079Y0041000D01*
X0103798Y0041799D02*
X0105392Y0041799D01*
X0105062Y0042597D02*
X0104129Y0042597D01*
X0104459Y0043396D02*
X0104731Y0043396D01*
X0104704Y0044194D02*
X0104486Y0044194D01*
X0104486Y0044993D02*
X0104704Y0044993D01*
X0104864Y0045791D02*
X0104326Y0045791D01*
X0103996Y0046590D02*
X0105195Y0046590D01*
X0105634Y0047388D02*
X0103557Y0047388D01*
X0102758Y0048187D02*
X0106432Y0048187D01*
X0107280Y0048985D02*
X0101385Y0048985D01*
X0097805Y0048985D02*
X0092695Y0048985D01*
X0092695Y0048187D02*
X0096432Y0048187D01*
X0095634Y0047388D02*
X0092662Y0047388D01*
X0092156Y0049784D02*
X0106482Y0049784D01*
X0107095Y0051433D02*
X0109595Y0048933D01*
X0109595Y0044433D01*
X0122161Y0040202D02*
X0124195Y0040202D01*
X0124195Y0041000D02*
X0123079Y0041000D01*
X0123798Y0041799D02*
X0124195Y0041799D01*
X0124195Y0042597D02*
X0124129Y0042597D01*
X0120795Y0058568D02*
X0090795Y0058568D01*
X0090795Y0059366D02*
X0120795Y0059366D01*
X0120795Y0060165D02*
X0090475Y0060165D01*
X0089676Y0060963D02*
X0120795Y0060963D01*
X0120795Y0069747D02*
X0085865Y0069747D01*
X0086664Y0070545D02*
X0120795Y0070545D01*
X0120795Y0071344D02*
X0087040Y0071344D01*
X0087371Y0072142D02*
X0120795Y0072142D01*
X0120795Y0072941D02*
X0087486Y0072941D01*
X0087486Y0073739D02*
X0120795Y0073739D01*
X0120795Y0074538D02*
X0104549Y0074538D01*
X0104337Y0074326D02*
X0105202Y0075191D01*
X0105670Y0076321D01*
X0105670Y0077545D01*
X0105202Y0078675D01*
X0104337Y0079540D01*
X0103207Y0080008D01*
X0102670Y0080008D01*
X0102670Y0081045D01*
X0102202Y0082175D01*
X0101337Y0083040D01*
X0100207Y0083508D01*
X0099670Y0083508D01*
X0099670Y0084045D01*
X0099202Y0085175D01*
X0098337Y0086040D01*
X0097207Y0086508D01*
X0095983Y0086508D01*
X0094853Y0086040D01*
X0093988Y0085175D01*
X0093520Y0084045D01*
X0093520Y0082821D01*
X0093988Y0081691D01*
X0094853Y0080826D01*
X0095983Y0080358D01*
X0096520Y0080358D01*
X0096520Y0079821D01*
X0096988Y0078691D01*
X0097853Y0077826D01*
X0098983Y0077358D01*
X0099520Y0077358D01*
X0099520Y0076321D01*
X0099988Y0075191D01*
X0100853Y0074326D01*
X0101983Y0073858D01*
X0103207Y0073858D01*
X0104337Y0074326D01*
X0105262Y0075336D02*
X0120795Y0075336D01*
X0120795Y0076135D02*
X0105593Y0076135D01*
X0105670Y0076933D02*
X0120795Y0076933D01*
X0120795Y0077732D02*
X0105593Y0077732D01*
X0105262Y0078530D02*
X0120795Y0078530D01*
X0120795Y0079329D02*
X0104548Y0079329D01*
X0102670Y0080127D02*
X0120795Y0080127D01*
X0120795Y0080926D02*
X0102670Y0080926D01*
X0102389Y0081724D02*
X0120795Y0081724D01*
X0120795Y0082523D02*
X0101854Y0082523D01*
X0100657Y0083321D02*
X0120795Y0083321D01*
X0120795Y0084120D02*
X0099639Y0084120D01*
X0099308Y0084918D02*
X0120795Y0084918D01*
X0120795Y0085717D02*
X0098660Y0085717D01*
X0094530Y0085717D02*
X0086927Y0085717D01*
X0086741Y0086164D02*
X0087486Y0084367D01*
X0087486Y0082421D01*
X0086741Y0080623D01*
X0085366Y0079247D01*
X0083568Y0078503D01*
X0081622Y0078503D01*
X0079825Y0079247D01*
X0078449Y0080623D01*
X0077704Y0082421D01*
X0077704Y0084367D01*
X0078449Y0086164D01*
X0079825Y0087540D01*
X0081622Y0088285D01*
X0083568Y0088285D01*
X0085366Y0087540D01*
X0086741Y0086164D01*
X0086390Y0086515D02*
X0116874Y0086515D01*
X0117004Y0086461D02*
X0118186Y0086461D01*
X0119278Y0086914D01*
X0120114Y0087750D01*
X0120567Y0088842D01*
X0120567Y0090024D01*
X0120114Y0091116D01*
X0119278Y0091952D01*
X0118186Y0092405D01*
X0117004Y0092405D01*
X0115912Y0091952D01*
X0115076Y0091116D01*
X0114623Y0090024D01*
X0114623Y0088842D01*
X0115076Y0087750D01*
X0115912Y0086914D01*
X0117004Y0086461D01*
X0118317Y0086515D02*
X0120795Y0086515D01*
X0120795Y0087314D02*
X0119679Y0087314D01*
X0120265Y0088112D02*
X0120795Y0088112D01*
X0120795Y0088911D02*
X0120567Y0088911D01*
X0120567Y0089710D02*
X0120795Y0089710D01*
X0120795Y0090508D02*
X0120366Y0090508D01*
X0120795Y0091307D02*
X0119924Y0091307D01*
X0120795Y0092105D02*
X0118910Y0092105D01*
X0120795Y0092904D02*
X0055677Y0092904D01*
X0055795Y0093022D02*
X0054506Y0091733D01*
X0052684Y0091733D01*
X0051395Y0093022D01*
X0051395Y0094844D01*
X0052684Y0096133D01*
X0054506Y0096133D01*
X0055795Y0094844D01*
X0055795Y0093022D01*
X0055795Y0093702D02*
X0120795Y0093702D01*
X0120795Y0094501D02*
X0055795Y0094501D01*
X0055340Y0095299D02*
X0120795Y0095299D01*
X0120795Y0096098D02*
X0054542Y0096098D01*
X0052648Y0096098D02*
X0040395Y0096098D01*
X0040395Y0096896D02*
X0120795Y0096896D01*
X0120795Y0097695D02*
X0040395Y0097695D01*
X0040395Y0098493D02*
X0120795Y0098493D01*
X0120795Y0099292D02*
X0085371Y0099292D01*
X0085366Y0099287D02*
X0086741Y0100663D01*
X0087486Y0102460D01*
X0087486Y0104406D01*
X0086741Y0106204D01*
X0085366Y0107579D01*
X0083568Y0108324D01*
X0081622Y0108324D01*
X0079825Y0107579D01*
X0078449Y0106204D01*
X0077704Y0104406D01*
X0077704Y0102460D01*
X0078449Y0100663D01*
X0079825Y0099287D01*
X0081622Y0098542D01*
X0083568Y0098542D01*
X0085366Y0099287D01*
X0086169Y0100090D02*
X0120795Y0100090D01*
X0120795Y0100889D02*
X0086835Y0100889D01*
X0087166Y0101687D02*
X0120795Y0101687D01*
X0120795Y0102486D02*
X0087486Y0102486D01*
X0087486Y0103284D02*
X0120795Y0103284D01*
X0120795Y0104083D02*
X0087486Y0104083D01*
X0087289Y0104881D02*
X0120795Y0104881D01*
X0120795Y0105680D02*
X0086958Y0105680D01*
X0086467Y0106478D02*
X0120795Y0106478D01*
X0120206Y0107277D02*
X0085668Y0107277D01*
X0084169Y0108075D02*
X0119407Y0108075D01*
X0116281Y0092105D02*
X0054878Y0092105D01*
X0052312Y0092105D02*
X0044795Y0092105D01*
X0044795Y0091522D02*
X0043506Y0090233D01*
X0041684Y0090233D01*
X0040395Y0091522D01*
X0040395Y0093344D01*
X0041684Y0094633D01*
X0043506Y0094633D01*
X0044795Y0093344D01*
X0044795Y0091522D01*
X0044580Y0091307D02*
X0115266Y0091307D01*
X0114824Y0090508D02*
X0043781Y0090508D01*
X0041409Y0090508D02*
X0040395Y0090508D01*
X0040395Y0089710D02*
X0114623Y0089710D01*
X0114623Y0088911D02*
X0067728Y0088911D01*
X0068295Y0088344D02*
X0067006Y0089633D01*
X0065184Y0089633D01*
X0063895Y0088344D01*
X0063895Y0086522D01*
X0065184Y0085233D01*
X0067006Y0085233D01*
X0068295Y0086522D01*
X0068295Y0088344D01*
X0068295Y0088112D02*
X0081207Y0088112D01*
X0079599Y0087314D02*
X0068295Y0087314D01*
X0068289Y0086515D02*
X0078800Y0086515D01*
X0078264Y0085717D02*
X0067490Y0085717D01*
X0064770Y0084945D02*
X0064770Y0083721D01*
X0064302Y0082591D01*
X0063437Y0081726D01*
X0062307Y0081258D01*
X0061083Y0081258D01*
X0059953Y0081726D01*
X0059088Y0082591D01*
X0058620Y0083721D01*
X0058620Y0084945D01*
X0059088Y0086075D01*
X0059953Y0086940D01*
X0061083Y0087408D01*
X0062307Y0087408D01*
X0063437Y0086940D01*
X0064302Y0086075D01*
X0064770Y0084945D01*
X0064770Y0084918D02*
X0077933Y0084918D01*
X0077704Y0084120D02*
X0064770Y0084120D01*
X0064604Y0083321D02*
X0077704Y0083321D01*
X0077704Y0082523D02*
X0064234Y0082523D01*
X0063433Y0081724D02*
X0077993Y0081724D01*
X0078323Y0080926D02*
X0043648Y0080926D01*
X0042849Y0081724D02*
X0059958Y0081724D01*
X0059157Y0082523D02*
X0042051Y0082523D01*
X0041252Y0083321D02*
X0058786Y0083321D01*
X0058620Y0084120D02*
X0040454Y0084120D01*
X0040395Y0084918D02*
X0058620Y0084918D01*
X0058940Y0085717D02*
X0040395Y0085717D01*
X0040395Y0086515D02*
X0059529Y0086515D01*
X0060856Y0087314D02*
X0040395Y0087314D01*
X0040395Y0088112D02*
X0063895Y0088112D01*
X0063895Y0087314D02*
X0062534Y0087314D01*
X0063861Y0086515D02*
X0063901Y0086515D01*
X0064450Y0085717D02*
X0064700Y0085717D01*
X0064462Y0088911D02*
X0040395Y0088911D01*
X0040395Y0091307D02*
X0040610Y0091307D01*
X0040395Y0092105D02*
X0040395Y0092105D01*
X0040395Y0092904D02*
X0040395Y0092904D01*
X0040395Y0093702D02*
X0040753Y0093702D01*
X0040395Y0094501D02*
X0041551Y0094501D01*
X0040395Y0095299D02*
X0051850Y0095299D01*
X0051395Y0094501D02*
X0043639Y0094501D01*
X0044437Y0093702D02*
X0051395Y0093702D01*
X0051513Y0092904D02*
X0044795Y0092904D01*
X0040395Y0099292D02*
X0079820Y0099292D01*
X0079021Y0100090D02*
X0040395Y0100090D01*
X0040395Y0100889D02*
X0047528Y0100889D01*
X0046730Y0101687D02*
X0042461Y0101687D01*
X0045259Y0102486D02*
X0045431Y0102486D01*
X0045529Y0106478D02*
X0045161Y0106478D01*
X0043029Y0106478D02*
X0040395Y0106478D01*
X0040395Y0105680D02*
X0042231Y0105680D01*
X0040395Y0107277D02*
X0079522Y0107277D01*
X0078723Y0106478D02*
X0047661Y0106478D01*
X0048460Y0105680D02*
X0078232Y0105680D01*
X0077901Y0104881D02*
X0049758Y0104881D01*
X0050557Y0104083D02*
X0050634Y0104083D01*
X0053557Y0104083D02*
X0077704Y0104083D01*
X0077704Y0103284D02*
X0054295Y0103284D01*
X0054295Y0102486D02*
X0077704Y0102486D01*
X0078024Y0101687D02*
X0054295Y0101687D01*
X0053662Y0100889D02*
X0078355Y0100889D01*
X0081022Y0108075D02*
X0040783Y0108075D01*
X0049662Y0100889D02*
X0050528Y0100889D01*
X0044446Y0080127D02*
X0078945Y0080127D01*
X0079743Y0079329D02*
X0045245Y0079329D01*
X0046043Y0078530D02*
X0081556Y0078530D01*
X0080288Y0077732D02*
X0046842Y0077732D01*
X0047640Y0076933D02*
X0079218Y0076933D01*
X0078437Y0076135D02*
X0048439Y0076135D01*
X0049237Y0075336D02*
X0078106Y0075336D01*
X0083635Y0078530D02*
X0097149Y0078530D01*
X0096724Y0079329D02*
X0085447Y0079329D01*
X0086246Y0080127D02*
X0096520Y0080127D01*
X0094754Y0080926D02*
X0086867Y0080926D01*
X0087198Y0081724D02*
X0093975Y0081724D01*
X0093644Y0082523D02*
X0087486Y0082523D01*
X0087486Y0083321D02*
X0093520Y0083321D01*
X0093551Y0084120D02*
X0087486Y0084120D01*
X0087257Y0084918D02*
X0093882Y0084918D01*
X0098081Y0077732D02*
X0084903Y0077732D01*
X0085972Y0076933D02*
X0099520Y0076933D01*
X0099597Y0076135D02*
X0086754Y0076135D01*
X0087084Y0075336D02*
X0099928Y0075336D01*
X0100642Y0074538D02*
X0087415Y0074538D01*
X0085592Y0087314D02*
X0115512Y0087314D01*
X0114926Y0088112D02*
X0083984Y0088112D01*
X0086616Y0056172D02*
X0090895Y0056172D01*
X0090895Y0055374D02*
X0087020Y0055374D01*
X0087351Y0054575D02*
X0090895Y0054575D01*
X0044595Y0059933D02*
X0042095Y0057433D01*
X0042095Y0047933D01*
X0043595Y0046433D01*
X0038095Y0044933D02*
X0038095Y0066433D01*
X0038095Y0044933D02*
X0036438Y0043276D01*
X0032595Y0043276D01*
D14*
X0061695Y0084333D03*
X0096595Y0083433D03*
X0099595Y0080433D03*
X0102595Y0076933D03*
X0110125Y0081073D03*
X0102595Y0060433D03*
D15*
X0061595Y0053433D03*
D16*
X0093165Y0101833D03*
D17*
X0117595Y0089433D03*
X0091095Y0035933D03*
D18*
X0119595Y0044433D02*
X0119595Y0049433D01*
X0122595Y0052433D01*
X0122595Y0107433D01*
X0119595Y0110433D01*
X0040595Y0110433D01*
X0038595Y0108433D01*
X0038595Y0083433D01*
X0048095Y0073933D01*
X0048095Y0070233D01*
X0045595Y0067733D01*
M02*
