%
M48
M72
T01C0.01200
T02C0.02000
T03C0.02362
T04C0.02500
T05C0.03000
T06C0.04921
%
T01
X41595Y29933
X49095Y35433
X53595Y31933
X56595Y31933
X59595Y31933
X65095Y33433
X68095Y46933
X67095Y49433
X64595Y51433
X61895Y61633
X60595Y65433
X63595Y68633
X60595Y72433
X57595Y75933
X54595Y72433
X51595Y75933
X45395Y72333
X43595Y69933
X45595Y67733
X43095Y65933
X44295Y63233
X44595Y59933
X45595Y56933
X49595Y55733
X51295Y50733
X51595Y46433
X51095Y43433
X51095Y40933
X39095Y42433
X52095Y61633
X54595Y65433
X57495Y68633
X51495Y68633
X57595Y61633
X69395Y67933
X71595Y71933
X74095Y69433
X70195Y63533
X63595Y75933
X66095Y83433
X66095Y87433
X61095Y97433
X62995Y103133
X52095Y102433
X52595Y99133
X52195Y96733
X53595Y93933
X48595Y102933
X46595Y104433
X44095Y104433
X41095Y103433
X42595Y92433
X46595Y82433
X41095Y74933
X36595Y68433
X76095Y50433
X78095Y48433
X88595Y58933
X93095Y55433
X90495Y48333
T02
X61595Y53433
T03
X91095Y35933
X117595Y89433
T04
X110125Y81073
X102595Y76933
X99595Y80433
X96595Y83433
X102595Y60433
X61695Y84333
T05
X93165Y101833
T06
X32595Y33276
X32595Y43276
X32595Y53276
X32595Y63276
X32595Y73394
X32595Y83394
X32595Y93394
X32595Y103433
X82595Y103433
X82595Y93394
X82595Y83394
X82595Y73394
X82595Y63276
X82595Y53276
X82595Y43276
X82595Y33276
X99595Y34433
X109595Y34433
X119595Y34433
X119595Y44433
X109595Y44433
X99595Y44433
M30
