G75*
%MOIN*%
%OFA0B0*%
%FSLAX25Y25*%
%IPPOS*%
%LPD*%
%AMOC8*
5,1,8,0,0,1.08239X$1,22.5*
%
%ADD10C,0.00000*%
%ADD11C,0.00394*%
%ADD12C,0.00300*%
D10*
X0027595Y0028433D02*
X0027595Y0108433D01*
X0032595Y0113433D01*
X0125595Y0113433D01*
X0125595Y0023433D01*
X0032595Y0023433D01*
X0027595Y0028433D01*
D11*
X0044039Y0038915D02*
X0049551Y0038915D01*
X0049551Y0049151D01*
X0044039Y0049151D01*
X0044039Y0038915D01*
X0052394Y0033229D02*
X0052394Y0048977D01*
X0061056Y0048977D01*
X0061056Y0033229D01*
X0052394Y0033229D01*
X0061809Y0038215D02*
X0067321Y0038215D01*
X0067321Y0048451D01*
X0061809Y0048451D01*
X0061809Y0038215D01*
X0071239Y0038315D02*
X0076751Y0038315D01*
X0076751Y0048551D01*
X0071239Y0048551D01*
X0071239Y0038315D01*
X0068028Y0056571D02*
X0065705Y0056571D01*
X0068028Y0056571D02*
X0068028Y0058854D01*
X0049446Y0056531D02*
X0047162Y0056531D01*
X0047162Y0058854D01*
X0047201Y0079012D02*
X0047201Y0081335D01*
X0049485Y0081335D01*
X0051851Y0087815D02*
X0046339Y0087815D01*
X0046339Y0098051D01*
X0051851Y0098051D01*
X0051851Y0087815D01*
X0053764Y0088559D02*
X0062426Y0088559D01*
X0062426Y0104307D01*
X0053764Y0104307D01*
X0053764Y0088559D01*
X0063339Y0089815D02*
X0068851Y0089815D01*
X0068851Y0100051D01*
X0063339Y0100051D01*
X0063339Y0089815D01*
X0065705Y0081335D02*
X0068028Y0081335D01*
X0068028Y0079012D01*
X0101839Y0092045D02*
X0107351Y0092045D01*
X0107351Y0102281D01*
X0101839Y0102281D01*
X0101839Y0092045D01*
X0109477Y0094177D02*
X0109477Y0099689D01*
X0119713Y0099689D01*
X0119713Y0094177D01*
X0109477Y0094177D01*
X0107159Y0073881D02*
X0107159Y0063645D01*
X0112671Y0063645D01*
X0112671Y0073881D01*
X0107159Y0073881D01*
D12*
X0105529Y0070062D02*
X0104828Y0070062D01*
X0104478Y0069711D01*
X0103670Y0069361D02*
X0102969Y0070062D01*
X0102969Y0067960D01*
X0103670Y0067960D02*
X0102268Y0067960D01*
X0104478Y0068310D02*
X0104828Y0067960D01*
X0105529Y0067960D01*
X0105879Y0068310D01*
X0105879Y0069711D01*
X0105529Y0070062D01*
X0079051Y0070622D02*
X0079051Y0068520D01*
X0078001Y0068520D01*
X0077650Y0068870D01*
X0077650Y0070272D01*
X0078001Y0070622D01*
X0079051Y0070622D01*
X0076842Y0070272D02*
X0076491Y0070622D01*
X0075791Y0070622D01*
X0075440Y0070272D01*
X0075440Y0069921D01*
X0075791Y0069571D01*
X0075440Y0069221D01*
X0075440Y0068870D01*
X0075791Y0068520D01*
X0076491Y0068520D01*
X0076842Y0068870D01*
X0076141Y0069571D02*
X0075791Y0069571D01*
X0060601Y0085927D02*
X0060601Y0088029D01*
X0059550Y0088029D01*
X0059200Y0087679D01*
X0059200Y0086978D01*
X0059550Y0086628D01*
X0060601Y0086628D01*
X0059901Y0086628D02*
X0059200Y0085927D01*
X0058391Y0085927D02*
X0056990Y0087328D01*
X0056990Y0087679D01*
X0057340Y0088029D01*
X0058041Y0088029D01*
X0058391Y0087679D01*
X0058391Y0085927D02*
X0056990Y0085927D01*
X0054751Y0084560D02*
X0054751Y0082809D01*
X0054400Y0082459D01*
X0053700Y0082459D01*
X0053350Y0082809D01*
X0053350Y0084560D01*
X0052541Y0083860D02*
X0051840Y0084560D01*
X0051840Y0082459D01*
X0051140Y0082459D02*
X0052541Y0082459D01*
X0041051Y0091020D02*
X0040001Y0091020D01*
X0039650Y0091370D01*
X0039650Y0092772D01*
X0040001Y0093122D01*
X0041051Y0093122D01*
X0041051Y0091020D01*
X0038842Y0091020D02*
X0037440Y0092421D01*
X0037440Y0092772D01*
X0037791Y0093122D01*
X0038491Y0093122D01*
X0038842Y0092772D01*
X0038842Y0091020D02*
X0037440Y0091020D01*
X0046740Y0099477D02*
X0046740Y0100878D01*
X0047090Y0101228D01*
X0047790Y0101228D01*
X0048141Y0100878D01*
X0048141Y0100528D01*
X0047790Y0100177D01*
X0046740Y0100177D01*
X0046740Y0099477D02*
X0047090Y0099126D01*
X0047790Y0099126D01*
X0048141Y0099477D01*
X0048949Y0099477D02*
X0049300Y0099126D01*
X0050000Y0099126D01*
X0050351Y0099477D01*
X0050351Y0100878D01*
X0050000Y0101228D01*
X0049300Y0101228D01*
X0048949Y0100878D01*
X0064740Y0101477D02*
X0065090Y0101126D01*
X0065790Y0101126D01*
X0066141Y0101477D01*
X0066141Y0101827D01*
X0065790Y0102177D01*
X0065090Y0102177D01*
X0064740Y0101827D01*
X0064740Y0101477D01*
X0065090Y0102177D02*
X0064740Y0102528D01*
X0064740Y0102878D01*
X0065090Y0103228D01*
X0065790Y0103228D01*
X0066141Y0102878D01*
X0066141Y0102528D01*
X0065790Y0102177D01*
X0066949Y0101477D02*
X0067300Y0101126D01*
X0068000Y0101126D01*
X0068351Y0101477D01*
X0068351Y0102878D01*
X0068000Y0103228D01*
X0067300Y0103228D01*
X0066949Y0102878D01*
X0072348Y0090848D02*
X0072348Y0088746D01*
X0071648Y0088746D02*
X0073049Y0088746D01*
X0073857Y0089096D02*
X0073857Y0090498D01*
X0074208Y0090848D01*
X0075259Y0090848D01*
X0075259Y0088746D01*
X0074208Y0088746D01*
X0073857Y0089096D01*
X0073049Y0090147D02*
X0072348Y0090848D01*
X0096740Y0095856D02*
X0098141Y0095856D01*
X0096740Y0097258D01*
X0096740Y0097608D01*
X0097090Y0097958D01*
X0097790Y0097958D01*
X0098141Y0097608D01*
X0098949Y0097608D02*
X0099300Y0097958D01*
X0100000Y0097958D01*
X0100351Y0097608D01*
X0100351Y0096207D01*
X0100000Y0095856D01*
X0099300Y0095856D01*
X0098949Y0096207D01*
X0112848Y0101490D02*
X0113199Y0101140D01*
X0113899Y0101140D01*
X0114250Y0101490D01*
X0115058Y0101490D02*
X0115409Y0101140D01*
X0116109Y0101140D01*
X0116459Y0101490D01*
X0116459Y0102891D01*
X0116109Y0103242D01*
X0115409Y0103242D01*
X0115058Y0102891D01*
X0114250Y0102891D02*
X0113899Y0103242D01*
X0113199Y0103242D01*
X0112848Y0102891D01*
X0112848Y0102541D01*
X0113199Y0102191D01*
X0112848Y0101840D01*
X0112848Y0101490D01*
X0113199Y0102191D02*
X0113549Y0102191D01*
X0057839Y0052111D02*
X0056788Y0052111D01*
X0056438Y0051760D01*
X0056438Y0051060D01*
X0056788Y0050710D01*
X0057839Y0050710D01*
X0057138Y0050710D02*
X0056438Y0050009D01*
X0055629Y0050009D02*
X0054228Y0050009D01*
X0054928Y0050009D02*
X0054928Y0052111D01*
X0055629Y0051410D01*
X0057839Y0052111D02*
X0057839Y0050009D01*
X0062850Y0037628D02*
X0062500Y0037278D01*
X0063901Y0035877D01*
X0063551Y0035526D01*
X0062850Y0035526D01*
X0062500Y0035877D01*
X0062500Y0037278D01*
X0062850Y0037628D02*
X0063551Y0037628D01*
X0063901Y0037278D01*
X0063901Y0035877D01*
X0064710Y0035526D02*
X0066111Y0035526D01*
X0065410Y0035526D02*
X0065410Y0037628D01*
X0066111Y0036928D01*
X0066919Y0037278D02*
X0067270Y0037628D01*
X0067970Y0037628D01*
X0068321Y0037278D01*
X0068321Y0035877D01*
X0067970Y0035526D01*
X0067270Y0035526D01*
X0066919Y0035877D01*
X0072348Y0036091D02*
X0072348Y0035390D01*
X0072699Y0035040D01*
X0073399Y0035040D01*
X0073750Y0035390D01*
X0073750Y0036091D02*
X0073049Y0036441D01*
X0072699Y0036441D01*
X0072348Y0036091D01*
X0072348Y0037142D02*
X0073750Y0037142D01*
X0073750Y0036091D01*
X0074558Y0036791D02*
X0074909Y0037142D01*
X0075609Y0037142D01*
X0075959Y0036791D01*
X0075959Y0035390D01*
X0075609Y0035040D01*
X0074909Y0035040D01*
X0074558Y0035390D01*
X0047151Y0036077D02*
X0046800Y0035726D01*
X0046100Y0035726D01*
X0045749Y0036077D01*
X0044941Y0035726D02*
X0043540Y0035726D01*
X0044240Y0035726D02*
X0044240Y0037828D01*
X0044941Y0037128D01*
X0045749Y0037478D02*
X0046100Y0037828D01*
X0046800Y0037828D01*
X0047151Y0037478D01*
X0047151Y0036077D01*
X0042731Y0035726D02*
X0041330Y0035726D01*
X0042030Y0035726D02*
X0042030Y0037828D01*
X0042731Y0037128D01*
X0041051Y0063520D02*
X0040001Y0063520D01*
X0039650Y0063870D01*
X0039650Y0065272D01*
X0040001Y0065622D01*
X0041051Y0065622D01*
X0041051Y0063520D01*
X0038842Y0064571D02*
X0037440Y0064571D01*
X0037791Y0063520D02*
X0037791Y0065622D01*
X0038842Y0064571D01*
M02*
