G75*
%MOIN*%
%OFA0B0*%
%FSLAX25Y25*%
%IPPOS*%
%LPD*%
%AMOC8*
5,1,8,0,0,1.08239X$1,22.5*
%
%ADD10C,0.00000*%
%ADD11C,0.00394*%
%ADD12C,0.00300*%
D10*
X0027595Y0028433D02*
X0027595Y0108433D01*
X0032595Y0113433D01*
X0125595Y0113433D01*
X0125595Y0023433D01*
X0032595Y0023433D01*
X0027595Y0028433D01*
D11*
X0042329Y0038815D02*
X0042329Y0049051D01*
X0047841Y0049051D01*
X0047841Y0038815D01*
X0042329Y0038815D01*
X0055209Y0039765D02*
X0055209Y0050001D01*
X0060721Y0050001D01*
X0060721Y0039765D01*
X0055209Y0039765D01*
X0093847Y0050063D02*
X0093847Y0028803D01*
X0125343Y0028803D01*
X0125343Y0050063D01*
X0093847Y0050063D01*
X0092839Y0064315D02*
X0092839Y0074551D01*
X0098351Y0074551D01*
X0098351Y0064315D01*
X0092839Y0064315D01*
X0105839Y0064315D02*
X0105839Y0074551D01*
X0111351Y0074551D01*
X0111351Y0064315D01*
X0105839Y0064315D01*
X0097934Y0091528D02*
X0096753Y0091528D01*
X0096753Y0103339D01*
X0101477Y0103339D01*
X0104627Y0107276D01*
X0108564Y0107276D01*
X0111713Y0103339D01*
X0116438Y0103339D01*
X0116438Y0091528D01*
X0115257Y0091528D01*
X0060351Y0089315D02*
X0054839Y0089315D01*
X0054839Y0099551D01*
X0060351Y0099551D01*
X0060351Y0089315D01*
D12*
X0059992Y0100140D02*
X0059291Y0100140D01*
X0058941Y0100490D01*
X0058132Y0100140D02*
X0056731Y0100140D01*
X0057431Y0100140D02*
X0057431Y0102242D01*
X0056731Y0101541D01*
X0055922Y0101891D02*
X0055572Y0102242D01*
X0054871Y0102242D01*
X0054521Y0101891D01*
X0054521Y0100490D01*
X0054871Y0100140D01*
X0055572Y0100140D01*
X0055922Y0100490D01*
X0058941Y0101891D02*
X0059291Y0102242D01*
X0059992Y0102242D01*
X0060342Y0101891D01*
X0060342Y0101541D01*
X0059992Y0101191D01*
X0060342Y0100840D01*
X0060342Y0100490D01*
X0059992Y0100140D01*
X0059992Y0101191D02*
X0059641Y0101191D01*
X0080769Y0109414D02*
X0081119Y0109063D01*
X0081469Y0109063D01*
X0081820Y0109414D01*
X0081820Y0111165D01*
X0082170Y0111165D02*
X0081469Y0111165D01*
X0082979Y0110815D02*
X0083329Y0111165D01*
X0084030Y0111165D01*
X0084380Y0110815D01*
X0084380Y0110465D01*
X0082979Y0109063D01*
X0084380Y0109063D01*
X0097489Y0106331D02*
X0097489Y0104929D01*
X0097840Y0104579D01*
X0098540Y0104579D01*
X0098890Y0104929D01*
X0098890Y0106331D01*
X0098540Y0106681D01*
X0097840Y0106681D01*
X0097489Y0106331D01*
X0098190Y0105280D02*
X0098890Y0104579D01*
X0099699Y0104579D02*
X0101100Y0104579D01*
X0100400Y0104579D02*
X0100400Y0106681D01*
X0099699Y0105980D01*
X0097951Y0077228D02*
X0096550Y0077228D01*
X0095741Y0076878D02*
X0095391Y0077228D01*
X0094690Y0077228D01*
X0094340Y0076878D01*
X0094340Y0075477D01*
X0094690Y0075126D01*
X0095391Y0075126D01*
X0095741Y0075477D01*
X0096550Y0075477D02*
X0096550Y0075126D01*
X0096550Y0075477D02*
X0097951Y0076878D01*
X0097951Y0077228D01*
X0106840Y0076878D02*
X0106840Y0075477D01*
X0107190Y0075126D01*
X0107891Y0075126D01*
X0108241Y0075477D01*
X0109050Y0075477D02*
X0109400Y0075126D01*
X0110100Y0075126D01*
X0110451Y0075477D01*
X0110451Y0075827D01*
X0110100Y0076177D01*
X0109050Y0076177D01*
X0109050Y0075477D01*
X0109050Y0076177D02*
X0109750Y0076878D01*
X0110451Y0077228D01*
X0108241Y0076878D02*
X0107891Y0077228D01*
X0107190Y0077228D01*
X0106840Y0076878D01*
X0120540Y0053862D02*
X0121241Y0053862D01*
X0120891Y0053862D02*
X0120891Y0052111D01*
X0120540Y0051760D01*
X0120190Y0051760D01*
X0119840Y0052111D01*
X0122050Y0052111D02*
X0122400Y0051760D01*
X0123100Y0051760D01*
X0123451Y0052111D01*
X0123451Y0052461D01*
X0123100Y0052811D01*
X0122750Y0052811D01*
X0123100Y0052811D02*
X0123451Y0053161D01*
X0123451Y0053512D01*
X0123100Y0053862D01*
X0122400Y0053862D01*
X0122050Y0053512D01*
X0059381Y0051587D02*
X0057980Y0051587D01*
X0059030Y0052638D01*
X0059030Y0050536D01*
X0057171Y0050887D02*
X0056821Y0050536D01*
X0056120Y0050536D01*
X0055770Y0050887D01*
X0055770Y0052288D01*
X0056120Y0052638D01*
X0056821Y0052638D01*
X0057171Y0052288D01*
X0048151Y0051378D02*
X0047800Y0051728D01*
X0047100Y0051728D01*
X0046749Y0051378D01*
X0048151Y0051378D02*
X0048151Y0051028D01*
X0046749Y0049626D01*
X0048151Y0049626D01*
X0045941Y0049626D02*
X0044540Y0049626D01*
X0045240Y0049626D02*
X0045240Y0051728D01*
X0044540Y0051028D01*
X0043731Y0051378D02*
X0043381Y0051728D01*
X0042680Y0051728D01*
X0042330Y0051378D01*
X0042330Y0049977D01*
X0042680Y0049626D01*
X0043381Y0049626D01*
X0043731Y0049977D01*
X0034380Y0108563D02*
X0032979Y0108563D01*
X0033679Y0108563D02*
X0033679Y0110665D01*
X0032979Y0109965D01*
X0032170Y0110665D02*
X0031469Y0110665D01*
X0031820Y0110665D02*
X0031820Y0108914D01*
X0031469Y0108563D01*
X0031119Y0108563D01*
X0030769Y0108914D01*
M02*
