G75*
%MOIN*%
%OFA0B0*%
%FSLAX25Y25*%
%IPPOS*%
%LPD*%
%AMOC8*
5,1,8,0,0,1.08239X$1,22.5*
%
%ADD10C,0.00000*%
%ADD11C,0.14180*%
%ADD12C,0.55118*%
%ADD13R,0.11030X0.06699*%
%ADD14R,0.06699X0.11030*%
%ADD15C,0.06400*%
%ADD16C,0.00500*%
D10*
X0013205Y0005000D02*
X0111630Y0005000D01*
X0111868Y0005003D01*
X0112106Y0005011D01*
X0112343Y0005026D01*
X0112580Y0005046D01*
X0112816Y0005072D01*
X0113052Y0005103D01*
X0113287Y0005140D01*
X0113521Y0005183D01*
X0113754Y0005232D01*
X0113986Y0005286D01*
X0114216Y0005346D01*
X0114445Y0005411D01*
X0114672Y0005482D01*
X0114897Y0005558D01*
X0115120Y0005640D01*
X0115342Y0005727D01*
X0115561Y0005819D01*
X0115778Y0005917D01*
X0115992Y0006019D01*
X0116204Y0006127D01*
X0116414Y0006241D01*
X0116620Y0006359D01*
X0116824Y0006482D01*
X0117024Y0006610D01*
X0117221Y0006742D01*
X0117416Y0006880D01*
X0117606Y0007022D01*
X0117794Y0007169D01*
X0117977Y0007320D01*
X0118157Y0007475D01*
X0118333Y0007635D01*
X0118505Y0007799D01*
X0118674Y0007968D01*
X0118838Y0008140D01*
X0118998Y0008316D01*
X0119153Y0008496D01*
X0119304Y0008679D01*
X0119451Y0008867D01*
X0119593Y0009057D01*
X0119731Y0009252D01*
X0119863Y0009449D01*
X0119991Y0009649D01*
X0120114Y0009853D01*
X0120232Y0010059D01*
X0120346Y0010269D01*
X0120454Y0010481D01*
X0120556Y0010695D01*
X0120654Y0010912D01*
X0120746Y0011131D01*
X0120833Y0011353D01*
X0120915Y0011576D01*
X0120991Y0011801D01*
X0121062Y0012028D01*
X0121127Y0012257D01*
X0121187Y0012487D01*
X0121241Y0012719D01*
X0121290Y0012952D01*
X0121333Y0013186D01*
X0121370Y0013421D01*
X0121401Y0013657D01*
X0121427Y0013893D01*
X0121447Y0014130D01*
X0121462Y0014367D01*
X0121470Y0014605D01*
X0121473Y0014843D01*
X0121472Y0014843D02*
X0121472Y0113268D01*
X0117535Y0113268D01*
X0117533Y0113076D01*
X0117526Y0112885D01*
X0117514Y0112693D01*
X0117498Y0112502D01*
X0117477Y0112312D01*
X0117451Y0112122D01*
X0117421Y0111932D01*
X0117386Y0111744D01*
X0117347Y0111556D01*
X0117303Y0111369D01*
X0117254Y0111184D01*
X0117201Y0111000D01*
X0117144Y0110817D01*
X0117082Y0110635D01*
X0117015Y0110455D01*
X0116945Y0110277D01*
X0116870Y0110100D01*
X0116790Y0109926D01*
X0116707Y0109753D01*
X0116619Y0109583D01*
X0116528Y0109414D01*
X0116432Y0109248D01*
X0116332Y0109085D01*
X0116228Y0108923D01*
X0116120Y0108765D01*
X0116009Y0108609D01*
X0115893Y0108456D01*
X0115774Y0108305D01*
X0115652Y0108158D01*
X0115525Y0108014D01*
X0115396Y0107872D01*
X0115263Y0107734D01*
X0115126Y0107599D01*
X0114986Y0107468D01*
X0114844Y0107340D01*
X0114698Y0107216D01*
X0114549Y0107095D01*
X0114397Y0106978D01*
X0114243Y0106864D01*
X0114085Y0106754D01*
X0113925Y0106649D01*
X0113763Y0106547D01*
X0113598Y0106449D01*
X0113431Y0106355D01*
X0113261Y0106265D01*
X0113090Y0106180D01*
X0112916Y0106098D01*
X0112741Y0106021D01*
X0112563Y0105948D01*
X0112384Y0105880D01*
X0112203Y0105816D01*
X0112021Y0105756D01*
X0111838Y0105701D01*
X0111653Y0105650D01*
X0111467Y0105604D01*
X0111279Y0105562D01*
X0111091Y0105525D01*
X0110902Y0105492D01*
X0110713Y0105465D01*
X0110522Y0105441D01*
X0110331Y0105423D01*
X0110140Y0105409D01*
X0109949Y0105399D01*
X0109757Y0105395D01*
X0109565Y0105395D01*
X0109373Y0105399D01*
X0109182Y0105409D01*
X0108991Y0105423D01*
X0108800Y0105441D01*
X0108609Y0105465D01*
X0108420Y0105492D01*
X0108231Y0105525D01*
X0108043Y0105562D01*
X0107855Y0105604D01*
X0107669Y0105650D01*
X0107484Y0105701D01*
X0107301Y0105756D01*
X0107119Y0105816D01*
X0106938Y0105880D01*
X0106759Y0105948D01*
X0106581Y0106021D01*
X0106406Y0106098D01*
X0106232Y0106180D01*
X0106061Y0106265D01*
X0105891Y0106355D01*
X0105724Y0106449D01*
X0105559Y0106547D01*
X0105397Y0106649D01*
X0105237Y0106754D01*
X0105079Y0106864D01*
X0104925Y0106978D01*
X0104773Y0107095D01*
X0104624Y0107216D01*
X0104478Y0107340D01*
X0104336Y0107468D01*
X0104196Y0107599D01*
X0104059Y0107734D01*
X0103926Y0107872D01*
X0103797Y0108014D01*
X0103670Y0108158D01*
X0103548Y0108305D01*
X0103429Y0108456D01*
X0103313Y0108609D01*
X0103202Y0108765D01*
X0103094Y0108923D01*
X0102990Y0109085D01*
X0102890Y0109248D01*
X0102794Y0109414D01*
X0102703Y0109583D01*
X0102615Y0109753D01*
X0102532Y0109926D01*
X0102452Y0110100D01*
X0102377Y0110277D01*
X0102307Y0110455D01*
X0102240Y0110635D01*
X0102178Y0110817D01*
X0102121Y0111000D01*
X0102068Y0111184D01*
X0102019Y0111369D01*
X0101975Y0111556D01*
X0101936Y0111744D01*
X0101901Y0111932D01*
X0101871Y0112122D01*
X0101845Y0112312D01*
X0101824Y0112502D01*
X0101808Y0112693D01*
X0101796Y0112885D01*
X0101789Y0113076D01*
X0101787Y0113268D01*
X0032890Y0113268D01*
X0003362Y0095551D01*
X0003362Y0014843D01*
X0003365Y0014605D01*
X0003373Y0014367D01*
X0003388Y0014130D01*
X0003408Y0013893D01*
X0003434Y0013657D01*
X0003465Y0013421D01*
X0003502Y0013186D01*
X0003545Y0012952D01*
X0003594Y0012719D01*
X0003648Y0012487D01*
X0003708Y0012257D01*
X0003773Y0012028D01*
X0003844Y0011801D01*
X0003920Y0011576D01*
X0004002Y0011353D01*
X0004089Y0011131D01*
X0004181Y0010912D01*
X0004279Y0010695D01*
X0004381Y0010481D01*
X0004489Y0010269D01*
X0004603Y0010059D01*
X0004721Y0009853D01*
X0004844Y0009649D01*
X0004972Y0009449D01*
X0005104Y0009252D01*
X0005242Y0009057D01*
X0005384Y0008867D01*
X0005531Y0008679D01*
X0005682Y0008496D01*
X0005837Y0008316D01*
X0005997Y0008140D01*
X0006161Y0007968D01*
X0006330Y0007799D01*
X0006502Y0007635D01*
X0006678Y0007475D01*
X0006858Y0007320D01*
X0007041Y0007169D01*
X0007229Y0007022D01*
X0007419Y0006880D01*
X0007614Y0006742D01*
X0007811Y0006610D01*
X0008011Y0006482D01*
X0008215Y0006359D01*
X0008421Y0006241D01*
X0008631Y0006127D01*
X0008843Y0006019D01*
X0009057Y0005917D01*
X0009274Y0005819D01*
X0009493Y0005727D01*
X0009715Y0005640D01*
X0009938Y0005558D01*
X0010163Y0005482D01*
X0010390Y0005411D01*
X0010619Y0005346D01*
X0010849Y0005286D01*
X0011081Y0005232D01*
X0011314Y0005183D01*
X0011548Y0005140D01*
X0011783Y0005103D01*
X0012019Y0005072D01*
X0012255Y0005046D01*
X0012492Y0005026D01*
X0012729Y0005011D01*
X0012967Y0005003D01*
X0013205Y0005000D01*
X0008283Y0014843D02*
X0008285Y0015012D01*
X0008291Y0015181D01*
X0008302Y0015350D01*
X0008316Y0015518D01*
X0008335Y0015686D01*
X0008358Y0015854D01*
X0008384Y0016021D01*
X0008415Y0016187D01*
X0008450Y0016353D01*
X0008489Y0016517D01*
X0008533Y0016681D01*
X0008580Y0016843D01*
X0008631Y0017004D01*
X0008686Y0017164D01*
X0008745Y0017323D01*
X0008807Y0017480D01*
X0008874Y0017635D01*
X0008945Y0017789D01*
X0009019Y0017941D01*
X0009097Y0018091D01*
X0009178Y0018239D01*
X0009263Y0018385D01*
X0009352Y0018529D01*
X0009444Y0018671D01*
X0009540Y0018810D01*
X0009639Y0018947D01*
X0009741Y0019082D01*
X0009847Y0019214D01*
X0009956Y0019343D01*
X0010068Y0019470D01*
X0010183Y0019594D01*
X0010301Y0019715D01*
X0010422Y0019833D01*
X0010546Y0019948D01*
X0010673Y0020060D01*
X0010802Y0020169D01*
X0010934Y0020275D01*
X0011069Y0020377D01*
X0011206Y0020476D01*
X0011345Y0020572D01*
X0011487Y0020664D01*
X0011631Y0020753D01*
X0011777Y0020838D01*
X0011925Y0020919D01*
X0012075Y0020997D01*
X0012227Y0021071D01*
X0012381Y0021142D01*
X0012536Y0021209D01*
X0012693Y0021271D01*
X0012852Y0021330D01*
X0013012Y0021385D01*
X0013173Y0021436D01*
X0013335Y0021483D01*
X0013499Y0021527D01*
X0013663Y0021566D01*
X0013829Y0021601D01*
X0013995Y0021632D01*
X0014162Y0021658D01*
X0014330Y0021681D01*
X0014498Y0021700D01*
X0014666Y0021714D01*
X0014835Y0021725D01*
X0015004Y0021731D01*
X0015173Y0021733D01*
X0015342Y0021731D01*
X0015511Y0021725D01*
X0015680Y0021714D01*
X0015848Y0021700D01*
X0016016Y0021681D01*
X0016184Y0021658D01*
X0016351Y0021632D01*
X0016517Y0021601D01*
X0016683Y0021566D01*
X0016847Y0021527D01*
X0017011Y0021483D01*
X0017173Y0021436D01*
X0017334Y0021385D01*
X0017494Y0021330D01*
X0017653Y0021271D01*
X0017810Y0021209D01*
X0017965Y0021142D01*
X0018119Y0021071D01*
X0018271Y0020997D01*
X0018421Y0020919D01*
X0018569Y0020838D01*
X0018715Y0020753D01*
X0018859Y0020664D01*
X0019001Y0020572D01*
X0019140Y0020476D01*
X0019277Y0020377D01*
X0019412Y0020275D01*
X0019544Y0020169D01*
X0019673Y0020060D01*
X0019800Y0019948D01*
X0019924Y0019833D01*
X0020045Y0019715D01*
X0020163Y0019594D01*
X0020278Y0019470D01*
X0020390Y0019343D01*
X0020499Y0019214D01*
X0020605Y0019082D01*
X0020707Y0018947D01*
X0020806Y0018810D01*
X0020902Y0018671D01*
X0020994Y0018529D01*
X0021083Y0018385D01*
X0021168Y0018239D01*
X0021249Y0018091D01*
X0021327Y0017941D01*
X0021401Y0017789D01*
X0021472Y0017635D01*
X0021539Y0017480D01*
X0021601Y0017323D01*
X0021660Y0017164D01*
X0021715Y0017004D01*
X0021766Y0016843D01*
X0021813Y0016681D01*
X0021857Y0016517D01*
X0021896Y0016353D01*
X0021931Y0016187D01*
X0021962Y0016021D01*
X0021988Y0015854D01*
X0022011Y0015686D01*
X0022030Y0015518D01*
X0022044Y0015350D01*
X0022055Y0015181D01*
X0022061Y0015012D01*
X0022063Y0014843D01*
X0022061Y0014674D01*
X0022055Y0014505D01*
X0022044Y0014336D01*
X0022030Y0014168D01*
X0022011Y0014000D01*
X0021988Y0013832D01*
X0021962Y0013665D01*
X0021931Y0013499D01*
X0021896Y0013333D01*
X0021857Y0013169D01*
X0021813Y0013005D01*
X0021766Y0012843D01*
X0021715Y0012682D01*
X0021660Y0012522D01*
X0021601Y0012363D01*
X0021539Y0012206D01*
X0021472Y0012051D01*
X0021401Y0011897D01*
X0021327Y0011745D01*
X0021249Y0011595D01*
X0021168Y0011447D01*
X0021083Y0011301D01*
X0020994Y0011157D01*
X0020902Y0011015D01*
X0020806Y0010876D01*
X0020707Y0010739D01*
X0020605Y0010604D01*
X0020499Y0010472D01*
X0020390Y0010343D01*
X0020278Y0010216D01*
X0020163Y0010092D01*
X0020045Y0009971D01*
X0019924Y0009853D01*
X0019800Y0009738D01*
X0019673Y0009626D01*
X0019544Y0009517D01*
X0019412Y0009411D01*
X0019277Y0009309D01*
X0019140Y0009210D01*
X0019001Y0009114D01*
X0018859Y0009022D01*
X0018715Y0008933D01*
X0018569Y0008848D01*
X0018421Y0008767D01*
X0018271Y0008689D01*
X0018119Y0008615D01*
X0017965Y0008544D01*
X0017810Y0008477D01*
X0017653Y0008415D01*
X0017494Y0008356D01*
X0017334Y0008301D01*
X0017173Y0008250D01*
X0017011Y0008203D01*
X0016847Y0008159D01*
X0016683Y0008120D01*
X0016517Y0008085D01*
X0016351Y0008054D01*
X0016184Y0008028D01*
X0016016Y0008005D01*
X0015848Y0007986D01*
X0015680Y0007972D01*
X0015511Y0007961D01*
X0015342Y0007955D01*
X0015173Y0007953D01*
X0015004Y0007955D01*
X0014835Y0007961D01*
X0014666Y0007972D01*
X0014498Y0007986D01*
X0014330Y0008005D01*
X0014162Y0008028D01*
X0013995Y0008054D01*
X0013829Y0008085D01*
X0013663Y0008120D01*
X0013499Y0008159D01*
X0013335Y0008203D01*
X0013173Y0008250D01*
X0013012Y0008301D01*
X0012852Y0008356D01*
X0012693Y0008415D01*
X0012536Y0008477D01*
X0012381Y0008544D01*
X0012227Y0008615D01*
X0012075Y0008689D01*
X0011925Y0008767D01*
X0011777Y0008848D01*
X0011631Y0008933D01*
X0011487Y0009022D01*
X0011345Y0009114D01*
X0011206Y0009210D01*
X0011069Y0009309D01*
X0010934Y0009411D01*
X0010802Y0009517D01*
X0010673Y0009626D01*
X0010546Y0009738D01*
X0010422Y0009853D01*
X0010301Y0009971D01*
X0010183Y0010092D01*
X0010068Y0010216D01*
X0009956Y0010343D01*
X0009847Y0010472D01*
X0009741Y0010604D01*
X0009639Y0010739D01*
X0009540Y0010876D01*
X0009444Y0011015D01*
X0009352Y0011157D01*
X0009263Y0011301D01*
X0009178Y0011447D01*
X0009097Y0011595D01*
X0009019Y0011745D01*
X0008945Y0011897D01*
X0008874Y0012051D01*
X0008807Y0012206D01*
X0008745Y0012363D01*
X0008686Y0012522D01*
X0008631Y0012682D01*
X0008580Y0012843D01*
X0008533Y0013005D01*
X0008489Y0013169D01*
X0008450Y0013333D01*
X0008415Y0013499D01*
X0008384Y0013665D01*
X0008358Y0013832D01*
X0008335Y0014000D01*
X0008316Y0014168D01*
X0008302Y0014336D01*
X0008291Y0014505D01*
X0008285Y0014674D01*
X0008283Y0014843D01*
X0102771Y0014843D02*
X0102773Y0015012D01*
X0102779Y0015181D01*
X0102790Y0015350D01*
X0102804Y0015518D01*
X0102823Y0015686D01*
X0102846Y0015854D01*
X0102872Y0016021D01*
X0102903Y0016187D01*
X0102938Y0016353D01*
X0102977Y0016517D01*
X0103021Y0016681D01*
X0103068Y0016843D01*
X0103119Y0017004D01*
X0103174Y0017164D01*
X0103233Y0017323D01*
X0103295Y0017480D01*
X0103362Y0017635D01*
X0103433Y0017789D01*
X0103507Y0017941D01*
X0103585Y0018091D01*
X0103666Y0018239D01*
X0103751Y0018385D01*
X0103840Y0018529D01*
X0103932Y0018671D01*
X0104028Y0018810D01*
X0104127Y0018947D01*
X0104229Y0019082D01*
X0104335Y0019214D01*
X0104444Y0019343D01*
X0104556Y0019470D01*
X0104671Y0019594D01*
X0104789Y0019715D01*
X0104910Y0019833D01*
X0105034Y0019948D01*
X0105161Y0020060D01*
X0105290Y0020169D01*
X0105422Y0020275D01*
X0105557Y0020377D01*
X0105694Y0020476D01*
X0105833Y0020572D01*
X0105975Y0020664D01*
X0106119Y0020753D01*
X0106265Y0020838D01*
X0106413Y0020919D01*
X0106563Y0020997D01*
X0106715Y0021071D01*
X0106869Y0021142D01*
X0107024Y0021209D01*
X0107181Y0021271D01*
X0107340Y0021330D01*
X0107500Y0021385D01*
X0107661Y0021436D01*
X0107823Y0021483D01*
X0107987Y0021527D01*
X0108151Y0021566D01*
X0108317Y0021601D01*
X0108483Y0021632D01*
X0108650Y0021658D01*
X0108818Y0021681D01*
X0108986Y0021700D01*
X0109154Y0021714D01*
X0109323Y0021725D01*
X0109492Y0021731D01*
X0109661Y0021733D01*
X0109830Y0021731D01*
X0109999Y0021725D01*
X0110168Y0021714D01*
X0110336Y0021700D01*
X0110504Y0021681D01*
X0110672Y0021658D01*
X0110839Y0021632D01*
X0111005Y0021601D01*
X0111171Y0021566D01*
X0111335Y0021527D01*
X0111499Y0021483D01*
X0111661Y0021436D01*
X0111822Y0021385D01*
X0111982Y0021330D01*
X0112141Y0021271D01*
X0112298Y0021209D01*
X0112453Y0021142D01*
X0112607Y0021071D01*
X0112759Y0020997D01*
X0112909Y0020919D01*
X0113057Y0020838D01*
X0113203Y0020753D01*
X0113347Y0020664D01*
X0113489Y0020572D01*
X0113628Y0020476D01*
X0113765Y0020377D01*
X0113900Y0020275D01*
X0114032Y0020169D01*
X0114161Y0020060D01*
X0114288Y0019948D01*
X0114412Y0019833D01*
X0114533Y0019715D01*
X0114651Y0019594D01*
X0114766Y0019470D01*
X0114878Y0019343D01*
X0114987Y0019214D01*
X0115093Y0019082D01*
X0115195Y0018947D01*
X0115294Y0018810D01*
X0115390Y0018671D01*
X0115482Y0018529D01*
X0115571Y0018385D01*
X0115656Y0018239D01*
X0115737Y0018091D01*
X0115815Y0017941D01*
X0115889Y0017789D01*
X0115960Y0017635D01*
X0116027Y0017480D01*
X0116089Y0017323D01*
X0116148Y0017164D01*
X0116203Y0017004D01*
X0116254Y0016843D01*
X0116301Y0016681D01*
X0116345Y0016517D01*
X0116384Y0016353D01*
X0116419Y0016187D01*
X0116450Y0016021D01*
X0116476Y0015854D01*
X0116499Y0015686D01*
X0116518Y0015518D01*
X0116532Y0015350D01*
X0116543Y0015181D01*
X0116549Y0015012D01*
X0116551Y0014843D01*
X0116549Y0014674D01*
X0116543Y0014505D01*
X0116532Y0014336D01*
X0116518Y0014168D01*
X0116499Y0014000D01*
X0116476Y0013832D01*
X0116450Y0013665D01*
X0116419Y0013499D01*
X0116384Y0013333D01*
X0116345Y0013169D01*
X0116301Y0013005D01*
X0116254Y0012843D01*
X0116203Y0012682D01*
X0116148Y0012522D01*
X0116089Y0012363D01*
X0116027Y0012206D01*
X0115960Y0012051D01*
X0115889Y0011897D01*
X0115815Y0011745D01*
X0115737Y0011595D01*
X0115656Y0011447D01*
X0115571Y0011301D01*
X0115482Y0011157D01*
X0115390Y0011015D01*
X0115294Y0010876D01*
X0115195Y0010739D01*
X0115093Y0010604D01*
X0114987Y0010472D01*
X0114878Y0010343D01*
X0114766Y0010216D01*
X0114651Y0010092D01*
X0114533Y0009971D01*
X0114412Y0009853D01*
X0114288Y0009738D01*
X0114161Y0009626D01*
X0114032Y0009517D01*
X0113900Y0009411D01*
X0113765Y0009309D01*
X0113628Y0009210D01*
X0113489Y0009114D01*
X0113347Y0009022D01*
X0113203Y0008933D01*
X0113057Y0008848D01*
X0112909Y0008767D01*
X0112759Y0008689D01*
X0112607Y0008615D01*
X0112453Y0008544D01*
X0112298Y0008477D01*
X0112141Y0008415D01*
X0111982Y0008356D01*
X0111822Y0008301D01*
X0111661Y0008250D01*
X0111499Y0008203D01*
X0111335Y0008159D01*
X0111171Y0008120D01*
X0111005Y0008085D01*
X0110839Y0008054D01*
X0110672Y0008028D01*
X0110504Y0008005D01*
X0110336Y0007986D01*
X0110168Y0007972D01*
X0109999Y0007961D01*
X0109830Y0007955D01*
X0109661Y0007953D01*
X0109492Y0007955D01*
X0109323Y0007961D01*
X0109154Y0007972D01*
X0108986Y0007986D01*
X0108818Y0008005D01*
X0108650Y0008028D01*
X0108483Y0008054D01*
X0108317Y0008085D01*
X0108151Y0008120D01*
X0107987Y0008159D01*
X0107823Y0008203D01*
X0107661Y0008250D01*
X0107500Y0008301D01*
X0107340Y0008356D01*
X0107181Y0008415D01*
X0107024Y0008477D01*
X0106869Y0008544D01*
X0106715Y0008615D01*
X0106563Y0008689D01*
X0106413Y0008767D01*
X0106265Y0008848D01*
X0106119Y0008933D01*
X0105975Y0009022D01*
X0105833Y0009114D01*
X0105694Y0009210D01*
X0105557Y0009309D01*
X0105422Y0009411D01*
X0105290Y0009517D01*
X0105161Y0009626D01*
X0105034Y0009738D01*
X0104910Y0009853D01*
X0104789Y0009971D01*
X0104671Y0010092D01*
X0104556Y0010216D01*
X0104444Y0010343D01*
X0104335Y0010472D01*
X0104229Y0010604D01*
X0104127Y0010739D01*
X0104028Y0010876D01*
X0103932Y0011015D01*
X0103840Y0011157D01*
X0103751Y0011301D01*
X0103666Y0011447D01*
X0103585Y0011595D01*
X0103507Y0011745D01*
X0103433Y0011897D01*
X0103362Y0012051D01*
X0103295Y0012206D01*
X0103233Y0012363D01*
X0103174Y0012522D01*
X0103119Y0012682D01*
X0103068Y0012843D01*
X0103021Y0013005D01*
X0102977Y0013169D01*
X0102938Y0013333D01*
X0102903Y0013499D01*
X0102872Y0013665D01*
X0102846Y0013832D01*
X0102823Y0014000D01*
X0102804Y0014168D01*
X0102790Y0014336D01*
X0102779Y0014505D01*
X0102773Y0014674D01*
X0102771Y0014843D01*
D11*
X0109661Y0014843D03*
X0015173Y0014843D03*
D12*
X0062417Y0064055D03*
D13*
X0062417Y0030197D03*
X0062417Y0019173D03*
X0062417Y0097913D03*
X0062417Y0108937D03*
D14*
G36*
X0049054Y0110725D02*
X0051617Y0104538D01*
X0041428Y0100317D01*
X0038865Y0106504D01*
X0049054Y0110725D01*
G37*
G36*
X0032212Y0102058D02*
X0036948Y0097322D01*
X0029150Y0089524D01*
X0024414Y0094260D01*
X0032212Y0102058D01*
G37*
G36*
X0053273Y0100541D02*
X0055836Y0094354D01*
X0045647Y0090133D01*
X0043084Y0096320D01*
X0053273Y0100541D01*
G37*
G36*
X0040007Y0094263D02*
X0044743Y0089527D01*
X0036945Y0081729D01*
X0032209Y0086465D01*
X0040007Y0094263D01*
G37*
G36*
X0019968Y0087607D02*
X0026155Y0085044D01*
X0021934Y0074855D01*
X0015747Y0077418D01*
X0019968Y0087607D01*
G37*
G36*
X0030153Y0083389D02*
X0036340Y0080826D01*
X0032119Y0070637D01*
X0025932Y0073200D01*
X0030153Y0083389D01*
G37*
X0028559Y0064055D03*
X0017535Y0064055D03*
G36*
X0025932Y0054910D02*
X0032119Y0057473D01*
X0036340Y0047284D01*
X0030153Y0044721D01*
X0025932Y0054910D01*
G37*
G36*
X0015747Y0050692D02*
X0021934Y0053255D01*
X0026155Y0043066D01*
X0019968Y0040503D01*
X0015747Y0050692D01*
G37*
G36*
X0032209Y0041645D02*
X0036945Y0046381D01*
X0044743Y0038583D01*
X0040007Y0033847D01*
X0032209Y0041645D01*
G37*
G36*
X0024414Y0033850D02*
X0029150Y0038586D01*
X0036948Y0030788D01*
X0032212Y0026052D01*
X0024414Y0033850D01*
G37*
G36*
X0038865Y0021606D02*
X0041428Y0027793D01*
X0051617Y0023572D01*
X0049054Y0017385D01*
X0038865Y0021606D01*
G37*
G36*
X0043084Y0031790D02*
X0045647Y0037977D01*
X0055836Y0033756D01*
X0053273Y0027569D01*
X0043084Y0031790D01*
G37*
G36*
X0071562Y0027569D02*
X0068999Y0033756D01*
X0079188Y0037977D01*
X0081751Y0031790D01*
X0071562Y0027569D01*
G37*
G36*
X0075781Y0017385D02*
X0073218Y0023572D01*
X0083407Y0027793D01*
X0085970Y0021606D01*
X0075781Y0017385D01*
G37*
G36*
X0092622Y0026052D02*
X0087886Y0030788D01*
X0095684Y0038586D01*
X0100420Y0033850D01*
X0092622Y0026052D01*
G37*
G36*
X0084827Y0033847D02*
X0080091Y0038583D01*
X0087889Y0046381D01*
X0092625Y0041645D01*
X0084827Y0033847D01*
G37*
G36*
X0104867Y0040503D02*
X0098680Y0043066D01*
X0102901Y0053255D01*
X0109088Y0050692D01*
X0104867Y0040503D01*
G37*
G36*
X0094682Y0044721D02*
X0088495Y0047284D01*
X0092716Y0057473D01*
X0098903Y0054910D01*
X0094682Y0044721D01*
G37*
X0096276Y0064055D03*
X0107299Y0064055D03*
G36*
X0098903Y0073200D02*
X0092716Y0070637D01*
X0088495Y0080826D01*
X0094682Y0083389D01*
X0098903Y0073200D01*
G37*
G36*
X0109088Y0077418D02*
X0102901Y0074855D01*
X0098680Y0085044D01*
X0104867Y0087607D01*
X0109088Y0077418D01*
G37*
G36*
X0092625Y0086465D02*
X0087889Y0081729D01*
X0080091Y0089527D01*
X0084827Y0094263D01*
X0092625Y0086465D01*
G37*
G36*
X0100420Y0094260D02*
X0095684Y0089524D01*
X0087886Y0097322D01*
X0092622Y0102058D01*
X0100420Y0094260D01*
G37*
G36*
X0085970Y0106504D02*
X0083407Y0100317D01*
X0073218Y0104538D01*
X0075781Y0110725D01*
X0085970Y0106504D01*
G37*
G36*
X0081751Y0096320D02*
X0079188Y0090133D01*
X0068999Y0094354D01*
X0071562Y0100541D01*
X0081751Y0096320D01*
G37*
D15*
X0113598Y0087677D03*
X0111630Y0036496D03*
D16*
X0090539Y0015890D02*
X0089976Y0016284D01*
X0089354Y0016574D01*
X0088692Y0016751D01*
X0088008Y0016811D01*
X0087324Y0016751D01*
X0086661Y0016574D01*
X0086039Y0016284D01*
X0085477Y0015890D01*
X0084992Y0015405D01*
X0084598Y0014843D01*
X0084308Y0014221D01*
X0084131Y0013558D01*
X0084071Y0012874D01*
X0084131Y0012190D01*
X0084308Y0011527D01*
X0084598Y0010906D01*
X0084992Y0010343D01*
X0085477Y0009858D01*
X0086039Y0009464D01*
X0086661Y0009174D01*
X0087324Y0008997D01*
X0088008Y0008937D01*
X0088692Y0008997D01*
X0089354Y0009174D01*
X0089976Y0009464D01*
X0090539Y0009858D01*
X0091024Y0010343D01*
X0091417Y0010906D01*
X0091707Y0011527D01*
X0091885Y0012190D01*
X0091945Y0012874D01*
X0091885Y0013558D01*
X0091707Y0014221D01*
X0091417Y0014843D01*
X0091024Y0015405D01*
X0090539Y0015890D01*
X0090428Y0015967D02*
X0085588Y0015967D01*
X0085056Y0015469D02*
X0090960Y0015469D01*
X0091328Y0014970D02*
X0084688Y0014970D01*
X0084425Y0014472D02*
X0091590Y0014472D01*
X0091774Y0013973D02*
X0084242Y0013973D01*
X0084123Y0013475D02*
X0091892Y0013475D01*
X0091936Y0012976D02*
X0084080Y0012976D01*
X0084106Y0012478D02*
X0091910Y0012478D01*
X0091828Y0011979D02*
X0084187Y0011979D01*
X0084330Y0011481D02*
X0091686Y0011481D01*
X0091453Y0010982D02*
X0084563Y0010982D01*
X0084894Y0010484D02*
X0091122Y0010484D01*
X0090666Y0009985D02*
X0085350Y0009985D01*
X0086008Y0009487D02*
X0090008Y0009487D01*
X0088592Y0008988D02*
X0087424Y0008988D01*
X0086430Y0016466D02*
X0089586Y0016466D01*
X0016221Y0087115D02*
X0015735Y0086630D01*
X0015173Y0086236D01*
X0014551Y0085946D01*
X0013888Y0085768D01*
X0013205Y0085709D01*
X0012521Y0085768D01*
X0011858Y0085946D01*
X0011236Y0086236D01*
X0010674Y0086630D01*
X0010189Y0087115D01*
X0009795Y0087677D01*
X0009505Y0088299D01*
X0009328Y0088962D01*
X0009268Y0089646D01*
X0009328Y0090329D01*
X0009505Y0090992D01*
X0009795Y0091614D01*
X0010189Y0092176D01*
X0010674Y0092662D01*
X0011236Y0093055D01*
X0011858Y0093345D01*
X0012521Y0093523D01*
X0013205Y0093583D01*
X0013888Y0093523D01*
X0014551Y0093345D01*
X0015173Y0093055D01*
X0015735Y0092662D01*
X0016221Y0092176D01*
X0016614Y0091614D01*
X0016904Y0090992D01*
X0017082Y0090329D01*
X0017142Y0089646D01*
X0017082Y0088962D01*
X0016904Y0088299D01*
X0016614Y0087677D01*
X0016221Y0087115D01*
X0016318Y0087254D02*
X0010091Y0087254D01*
X0009760Y0087753D02*
X0016650Y0087753D01*
X0016882Y0088251D02*
X0009527Y0088251D01*
X0009384Y0088750D02*
X0017025Y0088750D01*
X0017107Y0089248D02*
X0009302Y0089248D01*
X0009277Y0089747D02*
X0017133Y0089747D01*
X0017089Y0090245D02*
X0009320Y0090245D01*
X0009439Y0090744D02*
X0016971Y0090744D01*
X0016788Y0091242D02*
X0009622Y0091242D01*
X0009884Y0091741D02*
X0016525Y0091741D01*
X0016157Y0092239D02*
X0010252Y0092239D01*
X0010783Y0092738D02*
X0015626Y0092738D01*
X0014784Y0093237D02*
X0011625Y0093237D01*
X0010548Y0086756D02*
X0015861Y0086756D01*
X0015204Y0086257D02*
X0011206Y0086257D01*
X0012631Y0085759D02*
X0013778Y0085759D01*
M02*
