G75*
%MOIN*%
%OFA0B0*%
%FSLAX25Y25*%
%IPPOS*%
%LPD*%
%AMOC8*
5,1,8,0,0,1.08239X$1,22.5*
%
%ADD10C,0.00000*%
%ADD11C,0.55118*%
%ADD12C,0.06000*%
%ADD13C,0.03562*%
%ADD14C,0.04724*%
%ADD15C,0.02953*%
D10*
X0013205Y0005000D02*
X0111630Y0005000D01*
X0111868Y0005003D01*
X0112106Y0005011D01*
X0112343Y0005026D01*
X0112580Y0005046D01*
X0112816Y0005072D01*
X0113052Y0005103D01*
X0113287Y0005140D01*
X0113521Y0005183D01*
X0113754Y0005232D01*
X0113986Y0005286D01*
X0114216Y0005346D01*
X0114445Y0005411D01*
X0114672Y0005482D01*
X0114897Y0005558D01*
X0115120Y0005640D01*
X0115342Y0005727D01*
X0115561Y0005819D01*
X0115778Y0005917D01*
X0115992Y0006019D01*
X0116204Y0006127D01*
X0116414Y0006241D01*
X0116620Y0006359D01*
X0116824Y0006482D01*
X0117024Y0006610D01*
X0117221Y0006742D01*
X0117416Y0006880D01*
X0117606Y0007022D01*
X0117794Y0007169D01*
X0117977Y0007320D01*
X0118157Y0007475D01*
X0118333Y0007635D01*
X0118505Y0007799D01*
X0118674Y0007968D01*
X0118838Y0008140D01*
X0118998Y0008316D01*
X0119153Y0008496D01*
X0119304Y0008679D01*
X0119451Y0008867D01*
X0119593Y0009057D01*
X0119731Y0009252D01*
X0119863Y0009449D01*
X0119991Y0009649D01*
X0120114Y0009853D01*
X0120232Y0010059D01*
X0120346Y0010269D01*
X0120454Y0010481D01*
X0120556Y0010695D01*
X0120654Y0010912D01*
X0120746Y0011131D01*
X0120833Y0011353D01*
X0120915Y0011576D01*
X0120991Y0011801D01*
X0121062Y0012028D01*
X0121127Y0012257D01*
X0121187Y0012487D01*
X0121241Y0012719D01*
X0121290Y0012952D01*
X0121333Y0013186D01*
X0121370Y0013421D01*
X0121401Y0013657D01*
X0121427Y0013893D01*
X0121447Y0014130D01*
X0121462Y0014367D01*
X0121470Y0014605D01*
X0121473Y0014843D01*
X0121472Y0014843D02*
X0121472Y0113268D01*
X0117535Y0113268D01*
X0117533Y0113076D01*
X0117526Y0112885D01*
X0117514Y0112693D01*
X0117498Y0112502D01*
X0117477Y0112312D01*
X0117451Y0112122D01*
X0117421Y0111932D01*
X0117386Y0111744D01*
X0117347Y0111556D01*
X0117303Y0111369D01*
X0117254Y0111184D01*
X0117201Y0111000D01*
X0117144Y0110817D01*
X0117082Y0110635D01*
X0117015Y0110455D01*
X0116945Y0110277D01*
X0116870Y0110100D01*
X0116790Y0109926D01*
X0116707Y0109753D01*
X0116619Y0109583D01*
X0116528Y0109414D01*
X0116432Y0109248D01*
X0116332Y0109085D01*
X0116228Y0108923D01*
X0116120Y0108765D01*
X0116009Y0108609D01*
X0115893Y0108456D01*
X0115774Y0108305D01*
X0115652Y0108158D01*
X0115525Y0108014D01*
X0115396Y0107872D01*
X0115263Y0107734D01*
X0115126Y0107599D01*
X0114986Y0107468D01*
X0114844Y0107340D01*
X0114698Y0107216D01*
X0114549Y0107095D01*
X0114397Y0106978D01*
X0114243Y0106864D01*
X0114085Y0106754D01*
X0113925Y0106649D01*
X0113763Y0106547D01*
X0113598Y0106449D01*
X0113431Y0106355D01*
X0113261Y0106265D01*
X0113090Y0106180D01*
X0112916Y0106098D01*
X0112741Y0106021D01*
X0112563Y0105948D01*
X0112384Y0105880D01*
X0112203Y0105816D01*
X0112021Y0105756D01*
X0111838Y0105701D01*
X0111653Y0105650D01*
X0111467Y0105604D01*
X0111279Y0105562D01*
X0111091Y0105525D01*
X0110902Y0105492D01*
X0110713Y0105465D01*
X0110522Y0105441D01*
X0110331Y0105423D01*
X0110140Y0105409D01*
X0109949Y0105399D01*
X0109757Y0105395D01*
X0109565Y0105395D01*
X0109373Y0105399D01*
X0109182Y0105409D01*
X0108991Y0105423D01*
X0108800Y0105441D01*
X0108609Y0105465D01*
X0108420Y0105492D01*
X0108231Y0105525D01*
X0108043Y0105562D01*
X0107855Y0105604D01*
X0107669Y0105650D01*
X0107484Y0105701D01*
X0107301Y0105756D01*
X0107119Y0105816D01*
X0106938Y0105880D01*
X0106759Y0105948D01*
X0106581Y0106021D01*
X0106406Y0106098D01*
X0106232Y0106180D01*
X0106061Y0106265D01*
X0105891Y0106355D01*
X0105724Y0106449D01*
X0105559Y0106547D01*
X0105397Y0106649D01*
X0105237Y0106754D01*
X0105079Y0106864D01*
X0104925Y0106978D01*
X0104773Y0107095D01*
X0104624Y0107216D01*
X0104478Y0107340D01*
X0104336Y0107468D01*
X0104196Y0107599D01*
X0104059Y0107734D01*
X0103926Y0107872D01*
X0103797Y0108014D01*
X0103670Y0108158D01*
X0103548Y0108305D01*
X0103429Y0108456D01*
X0103313Y0108609D01*
X0103202Y0108765D01*
X0103094Y0108923D01*
X0102990Y0109085D01*
X0102890Y0109248D01*
X0102794Y0109414D01*
X0102703Y0109583D01*
X0102615Y0109753D01*
X0102532Y0109926D01*
X0102452Y0110100D01*
X0102377Y0110277D01*
X0102307Y0110455D01*
X0102240Y0110635D01*
X0102178Y0110817D01*
X0102121Y0111000D01*
X0102068Y0111184D01*
X0102019Y0111369D01*
X0101975Y0111556D01*
X0101936Y0111744D01*
X0101901Y0111932D01*
X0101871Y0112122D01*
X0101845Y0112312D01*
X0101824Y0112502D01*
X0101808Y0112693D01*
X0101796Y0112885D01*
X0101789Y0113076D01*
X0101787Y0113268D01*
X0032890Y0113268D01*
X0003362Y0095551D01*
X0003362Y0014843D01*
X0003365Y0014605D01*
X0003373Y0014367D01*
X0003388Y0014130D01*
X0003408Y0013893D01*
X0003434Y0013657D01*
X0003465Y0013421D01*
X0003502Y0013186D01*
X0003545Y0012952D01*
X0003594Y0012719D01*
X0003648Y0012487D01*
X0003708Y0012257D01*
X0003773Y0012028D01*
X0003844Y0011801D01*
X0003920Y0011576D01*
X0004002Y0011353D01*
X0004089Y0011131D01*
X0004181Y0010912D01*
X0004279Y0010695D01*
X0004381Y0010481D01*
X0004489Y0010269D01*
X0004603Y0010059D01*
X0004721Y0009853D01*
X0004844Y0009649D01*
X0004972Y0009449D01*
X0005104Y0009252D01*
X0005242Y0009057D01*
X0005384Y0008867D01*
X0005531Y0008679D01*
X0005682Y0008496D01*
X0005837Y0008316D01*
X0005997Y0008140D01*
X0006161Y0007968D01*
X0006330Y0007799D01*
X0006502Y0007635D01*
X0006678Y0007475D01*
X0006858Y0007320D01*
X0007041Y0007169D01*
X0007229Y0007022D01*
X0007419Y0006880D01*
X0007614Y0006742D01*
X0007811Y0006610D01*
X0008011Y0006482D01*
X0008215Y0006359D01*
X0008421Y0006241D01*
X0008631Y0006127D01*
X0008843Y0006019D01*
X0009057Y0005917D01*
X0009274Y0005819D01*
X0009493Y0005727D01*
X0009715Y0005640D01*
X0009938Y0005558D01*
X0010163Y0005482D01*
X0010390Y0005411D01*
X0010619Y0005346D01*
X0010849Y0005286D01*
X0011081Y0005232D01*
X0011314Y0005183D01*
X0011548Y0005140D01*
X0011783Y0005103D01*
X0012019Y0005072D01*
X0012255Y0005046D01*
X0012492Y0005026D01*
X0012729Y0005011D01*
X0012967Y0005003D01*
X0013205Y0005000D01*
X0008283Y0014843D02*
X0008285Y0015012D01*
X0008291Y0015181D01*
X0008302Y0015350D01*
X0008316Y0015518D01*
X0008335Y0015686D01*
X0008358Y0015854D01*
X0008384Y0016021D01*
X0008415Y0016187D01*
X0008450Y0016353D01*
X0008489Y0016517D01*
X0008533Y0016681D01*
X0008580Y0016843D01*
X0008631Y0017004D01*
X0008686Y0017164D01*
X0008745Y0017323D01*
X0008807Y0017480D01*
X0008874Y0017635D01*
X0008945Y0017789D01*
X0009019Y0017941D01*
X0009097Y0018091D01*
X0009178Y0018239D01*
X0009263Y0018385D01*
X0009352Y0018529D01*
X0009444Y0018671D01*
X0009540Y0018810D01*
X0009639Y0018947D01*
X0009741Y0019082D01*
X0009847Y0019214D01*
X0009956Y0019343D01*
X0010068Y0019470D01*
X0010183Y0019594D01*
X0010301Y0019715D01*
X0010422Y0019833D01*
X0010546Y0019948D01*
X0010673Y0020060D01*
X0010802Y0020169D01*
X0010934Y0020275D01*
X0011069Y0020377D01*
X0011206Y0020476D01*
X0011345Y0020572D01*
X0011487Y0020664D01*
X0011631Y0020753D01*
X0011777Y0020838D01*
X0011925Y0020919D01*
X0012075Y0020997D01*
X0012227Y0021071D01*
X0012381Y0021142D01*
X0012536Y0021209D01*
X0012693Y0021271D01*
X0012852Y0021330D01*
X0013012Y0021385D01*
X0013173Y0021436D01*
X0013335Y0021483D01*
X0013499Y0021527D01*
X0013663Y0021566D01*
X0013829Y0021601D01*
X0013995Y0021632D01*
X0014162Y0021658D01*
X0014330Y0021681D01*
X0014498Y0021700D01*
X0014666Y0021714D01*
X0014835Y0021725D01*
X0015004Y0021731D01*
X0015173Y0021733D01*
X0015342Y0021731D01*
X0015511Y0021725D01*
X0015680Y0021714D01*
X0015848Y0021700D01*
X0016016Y0021681D01*
X0016184Y0021658D01*
X0016351Y0021632D01*
X0016517Y0021601D01*
X0016683Y0021566D01*
X0016847Y0021527D01*
X0017011Y0021483D01*
X0017173Y0021436D01*
X0017334Y0021385D01*
X0017494Y0021330D01*
X0017653Y0021271D01*
X0017810Y0021209D01*
X0017965Y0021142D01*
X0018119Y0021071D01*
X0018271Y0020997D01*
X0018421Y0020919D01*
X0018569Y0020838D01*
X0018715Y0020753D01*
X0018859Y0020664D01*
X0019001Y0020572D01*
X0019140Y0020476D01*
X0019277Y0020377D01*
X0019412Y0020275D01*
X0019544Y0020169D01*
X0019673Y0020060D01*
X0019800Y0019948D01*
X0019924Y0019833D01*
X0020045Y0019715D01*
X0020163Y0019594D01*
X0020278Y0019470D01*
X0020390Y0019343D01*
X0020499Y0019214D01*
X0020605Y0019082D01*
X0020707Y0018947D01*
X0020806Y0018810D01*
X0020902Y0018671D01*
X0020994Y0018529D01*
X0021083Y0018385D01*
X0021168Y0018239D01*
X0021249Y0018091D01*
X0021327Y0017941D01*
X0021401Y0017789D01*
X0021472Y0017635D01*
X0021539Y0017480D01*
X0021601Y0017323D01*
X0021660Y0017164D01*
X0021715Y0017004D01*
X0021766Y0016843D01*
X0021813Y0016681D01*
X0021857Y0016517D01*
X0021896Y0016353D01*
X0021931Y0016187D01*
X0021962Y0016021D01*
X0021988Y0015854D01*
X0022011Y0015686D01*
X0022030Y0015518D01*
X0022044Y0015350D01*
X0022055Y0015181D01*
X0022061Y0015012D01*
X0022063Y0014843D01*
X0022061Y0014674D01*
X0022055Y0014505D01*
X0022044Y0014336D01*
X0022030Y0014168D01*
X0022011Y0014000D01*
X0021988Y0013832D01*
X0021962Y0013665D01*
X0021931Y0013499D01*
X0021896Y0013333D01*
X0021857Y0013169D01*
X0021813Y0013005D01*
X0021766Y0012843D01*
X0021715Y0012682D01*
X0021660Y0012522D01*
X0021601Y0012363D01*
X0021539Y0012206D01*
X0021472Y0012051D01*
X0021401Y0011897D01*
X0021327Y0011745D01*
X0021249Y0011595D01*
X0021168Y0011447D01*
X0021083Y0011301D01*
X0020994Y0011157D01*
X0020902Y0011015D01*
X0020806Y0010876D01*
X0020707Y0010739D01*
X0020605Y0010604D01*
X0020499Y0010472D01*
X0020390Y0010343D01*
X0020278Y0010216D01*
X0020163Y0010092D01*
X0020045Y0009971D01*
X0019924Y0009853D01*
X0019800Y0009738D01*
X0019673Y0009626D01*
X0019544Y0009517D01*
X0019412Y0009411D01*
X0019277Y0009309D01*
X0019140Y0009210D01*
X0019001Y0009114D01*
X0018859Y0009022D01*
X0018715Y0008933D01*
X0018569Y0008848D01*
X0018421Y0008767D01*
X0018271Y0008689D01*
X0018119Y0008615D01*
X0017965Y0008544D01*
X0017810Y0008477D01*
X0017653Y0008415D01*
X0017494Y0008356D01*
X0017334Y0008301D01*
X0017173Y0008250D01*
X0017011Y0008203D01*
X0016847Y0008159D01*
X0016683Y0008120D01*
X0016517Y0008085D01*
X0016351Y0008054D01*
X0016184Y0008028D01*
X0016016Y0008005D01*
X0015848Y0007986D01*
X0015680Y0007972D01*
X0015511Y0007961D01*
X0015342Y0007955D01*
X0015173Y0007953D01*
X0015004Y0007955D01*
X0014835Y0007961D01*
X0014666Y0007972D01*
X0014498Y0007986D01*
X0014330Y0008005D01*
X0014162Y0008028D01*
X0013995Y0008054D01*
X0013829Y0008085D01*
X0013663Y0008120D01*
X0013499Y0008159D01*
X0013335Y0008203D01*
X0013173Y0008250D01*
X0013012Y0008301D01*
X0012852Y0008356D01*
X0012693Y0008415D01*
X0012536Y0008477D01*
X0012381Y0008544D01*
X0012227Y0008615D01*
X0012075Y0008689D01*
X0011925Y0008767D01*
X0011777Y0008848D01*
X0011631Y0008933D01*
X0011487Y0009022D01*
X0011345Y0009114D01*
X0011206Y0009210D01*
X0011069Y0009309D01*
X0010934Y0009411D01*
X0010802Y0009517D01*
X0010673Y0009626D01*
X0010546Y0009738D01*
X0010422Y0009853D01*
X0010301Y0009971D01*
X0010183Y0010092D01*
X0010068Y0010216D01*
X0009956Y0010343D01*
X0009847Y0010472D01*
X0009741Y0010604D01*
X0009639Y0010739D01*
X0009540Y0010876D01*
X0009444Y0011015D01*
X0009352Y0011157D01*
X0009263Y0011301D01*
X0009178Y0011447D01*
X0009097Y0011595D01*
X0009019Y0011745D01*
X0008945Y0011897D01*
X0008874Y0012051D01*
X0008807Y0012206D01*
X0008745Y0012363D01*
X0008686Y0012522D01*
X0008631Y0012682D01*
X0008580Y0012843D01*
X0008533Y0013005D01*
X0008489Y0013169D01*
X0008450Y0013333D01*
X0008415Y0013499D01*
X0008384Y0013665D01*
X0008358Y0013832D01*
X0008335Y0014000D01*
X0008316Y0014168D01*
X0008302Y0014336D01*
X0008291Y0014505D01*
X0008285Y0014674D01*
X0008283Y0014843D01*
X0102771Y0014843D02*
X0102773Y0015012D01*
X0102779Y0015181D01*
X0102790Y0015350D01*
X0102804Y0015518D01*
X0102823Y0015686D01*
X0102846Y0015854D01*
X0102872Y0016021D01*
X0102903Y0016187D01*
X0102938Y0016353D01*
X0102977Y0016517D01*
X0103021Y0016681D01*
X0103068Y0016843D01*
X0103119Y0017004D01*
X0103174Y0017164D01*
X0103233Y0017323D01*
X0103295Y0017480D01*
X0103362Y0017635D01*
X0103433Y0017789D01*
X0103507Y0017941D01*
X0103585Y0018091D01*
X0103666Y0018239D01*
X0103751Y0018385D01*
X0103840Y0018529D01*
X0103932Y0018671D01*
X0104028Y0018810D01*
X0104127Y0018947D01*
X0104229Y0019082D01*
X0104335Y0019214D01*
X0104444Y0019343D01*
X0104556Y0019470D01*
X0104671Y0019594D01*
X0104789Y0019715D01*
X0104910Y0019833D01*
X0105034Y0019948D01*
X0105161Y0020060D01*
X0105290Y0020169D01*
X0105422Y0020275D01*
X0105557Y0020377D01*
X0105694Y0020476D01*
X0105833Y0020572D01*
X0105975Y0020664D01*
X0106119Y0020753D01*
X0106265Y0020838D01*
X0106413Y0020919D01*
X0106563Y0020997D01*
X0106715Y0021071D01*
X0106869Y0021142D01*
X0107024Y0021209D01*
X0107181Y0021271D01*
X0107340Y0021330D01*
X0107500Y0021385D01*
X0107661Y0021436D01*
X0107823Y0021483D01*
X0107987Y0021527D01*
X0108151Y0021566D01*
X0108317Y0021601D01*
X0108483Y0021632D01*
X0108650Y0021658D01*
X0108818Y0021681D01*
X0108986Y0021700D01*
X0109154Y0021714D01*
X0109323Y0021725D01*
X0109492Y0021731D01*
X0109661Y0021733D01*
X0109830Y0021731D01*
X0109999Y0021725D01*
X0110168Y0021714D01*
X0110336Y0021700D01*
X0110504Y0021681D01*
X0110672Y0021658D01*
X0110839Y0021632D01*
X0111005Y0021601D01*
X0111171Y0021566D01*
X0111335Y0021527D01*
X0111499Y0021483D01*
X0111661Y0021436D01*
X0111822Y0021385D01*
X0111982Y0021330D01*
X0112141Y0021271D01*
X0112298Y0021209D01*
X0112453Y0021142D01*
X0112607Y0021071D01*
X0112759Y0020997D01*
X0112909Y0020919D01*
X0113057Y0020838D01*
X0113203Y0020753D01*
X0113347Y0020664D01*
X0113489Y0020572D01*
X0113628Y0020476D01*
X0113765Y0020377D01*
X0113900Y0020275D01*
X0114032Y0020169D01*
X0114161Y0020060D01*
X0114288Y0019948D01*
X0114412Y0019833D01*
X0114533Y0019715D01*
X0114651Y0019594D01*
X0114766Y0019470D01*
X0114878Y0019343D01*
X0114987Y0019214D01*
X0115093Y0019082D01*
X0115195Y0018947D01*
X0115294Y0018810D01*
X0115390Y0018671D01*
X0115482Y0018529D01*
X0115571Y0018385D01*
X0115656Y0018239D01*
X0115737Y0018091D01*
X0115815Y0017941D01*
X0115889Y0017789D01*
X0115960Y0017635D01*
X0116027Y0017480D01*
X0116089Y0017323D01*
X0116148Y0017164D01*
X0116203Y0017004D01*
X0116254Y0016843D01*
X0116301Y0016681D01*
X0116345Y0016517D01*
X0116384Y0016353D01*
X0116419Y0016187D01*
X0116450Y0016021D01*
X0116476Y0015854D01*
X0116499Y0015686D01*
X0116518Y0015518D01*
X0116532Y0015350D01*
X0116543Y0015181D01*
X0116549Y0015012D01*
X0116551Y0014843D01*
X0116549Y0014674D01*
X0116543Y0014505D01*
X0116532Y0014336D01*
X0116518Y0014168D01*
X0116499Y0014000D01*
X0116476Y0013832D01*
X0116450Y0013665D01*
X0116419Y0013499D01*
X0116384Y0013333D01*
X0116345Y0013169D01*
X0116301Y0013005D01*
X0116254Y0012843D01*
X0116203Y0012682D01*
X0116148Y0012522D01*
X0116089Y0012363D01*
X0116027Y0012206D01*
X0115960Y0012051D01*
X0115889Y0011897D01*
X0115815Y0011745D01*
X0115737Y0011595D01*
X0115656Y0011447D01*
X0115571Y0011301D01*
X0115482Y0011157D01*
X0115390Y0011015D01*
X0115294Y0010876D01*
X0115195Y0010739D01*
X0115093Y0010604D01*
X0114987Y0010472D01*
X0114878Y0010343D01*
X0114766Y0010216D01*
X0114651Y0010092D01*
X0114533Y0009971D01*
X0114412Y0009853D01*
X0114288Y0009738D01*
X0114161Y0009626D01*
X0114032Y0009517D01*
X0113900Y0009411D01*
X0113765Y0009309D01*
X0113628Y0009210D01*
X0113489Y0009114D01*
X0113347Y0009022D01*
X0113203Y0008933D01*
X0113057Y0008848D01*
X0112909Y0008767D01*
X0112759Y0008689D01*
X0112607Y0008615D01*
X0112453Y0008544D01*
X0112298Y0008477D01*
X0112141Y0008415D01*
X0111982Y0008356D01*
X0111822Y0008301D01*
X0111661Y0008250D01*
X0111499Y0008203D01*
X0111335Y0008159D01*
X0111171Y0008120D01*
X0111005Y0008085D01*
X0110839Y0008054D01*
X0110672Y0008028D01*
X0110504Y0008005D01*
X0110336Y0007986D01*
X0110168Y0007972D01*
X0109999Y0007961D01*
X0109830Y0007955D01*
X0109661Y0007953D01*
X0109492Y0007955D01*
X0109323Y0007961D01*
X0109154Y0007972D01*
X0108986Y0007986D01*
X0108818Y0008005D01*
X0108650Y0008028D01*
X0108483Y0008054D01*
X0108317Y0008085D01*
X0108151Y0008120D01*
X0107987Y0008159D01*
X0107823Y0008203D01*
X0107661Y0008250D01*
X0107500Y0008301D01*
X0107340Y0008356D01*
X0107181Y0008415D01*
X0107024Y0008477D01*
X0106869Y0008544D01*
X0106715Y0008615D01*
X0106563Y0008689D01*
X0106413Y0008767D01*
X0106265Y0008848D01*
X0106119Y0008933D01*
X0105975Y0009022D01*
X0105833Y0009114D01*
X0105694Y0009210D01*
X0105557Y0009309D01*
X0105422Y0009411D01*
X0105290Y0009517D01*
X0105161Y0009626D01*
X0105034Y0009738D01*
X0104910Y0009853D01*
X0104789Y0009971D01*
X0104671Y0010092D01*
X0104556Y0010216D01*
X0104444Y0010343D01*
X0104335Y0010472D01*
X0104229Y0010604D01*
X0104127Y0010739D01*
X0104028Y0010876D01*
X0103932Y0011015D01*
X0103840Y0011157D01*
X0103751Y0011301D01*
X0103666Y0011447D01*
X0103585Y0011595D01*
X0103507Y0011745D01*
X0103433Y0011897D01*
X0103362Y0012051D01*
X0103295Y0012206D01*
X0103233Y0012363D01*
X0103174Y0012522D01*
X0103119Y0012682D01*
X0103068Y0012843D01*
X0103021Y0013005D01*
X0102977Y0013169D01*
X0102938Y0013333D01*
X0102903Y0013499D01*
X0102872Y0013665D01*
X0102846Y0013832D01*
X0102823Y0014000D01*
X0102804Y0014168D01*
X0102790Y0014336D01*
X0102779Y0014505D01*
X0102773Y0014674D01*
X0102771Y0014843D01*
D11*
X0062417Y0064055D03*
D12*
X0111630Y0036496D03*
X0113598Y0087677D03*
D13*
X0105724Y0075866D03*
X0101787Y0069961D03*
X0056512Y0101457D03*
X0038795Y0103425D03*
X0023047Y0056181D03*
X0023047Y0040433D03*
X0068323Y0026654D03*
X0086039Y0024685D03*
D14*
X0077229Y0028615D02*
X0106298Y0028615D01*
X0107795Y0029016D02*
X0104191Y0028050D01*
X0100959Y0026184D01*
X0098320Y0023545D01*
X0096454Y0020313D01*
X0095488Y0016708D01*
X0095488Y0012977D01*
X0096454Y0009372D01*
X0097037Y0008362D01*
X0027798Y0008362D01*
X0028381Y0009372D01*
X0029346Y0012977D01*
X0029346Y0016708D01*
X0028381Y0020313D01*
X0026515Y0023545D01*
X0023876Y0026184D01*
X0020644Y0028050D01*
X0017039Y0029016D01*
X0013307Y0029016D01*
X0009703Y0028050D01*
X0006724Y0026330D01*
X0006724Y0093648D01*
X0033821Y0109906D01*
X0095488Y0109906D01*
X0095488Y0109433D01*
X0096454Y0105829D01*
X0098320Y0102597D01*
X0100959Y0099958D01*
X0104191Y0098092D01*
X0107795Y0097126D01*
X0111527Y0097126D01*
X0115132Y0098092D01*
X0118110Y0099811D01*
X0118110Y0091597D01*
X0116976Y0092732D01*
X0114784Y0093639D01*
X0112412Y0093639D01*
X0110873Y0093002D01*
X0090821Y0093002D01*
X0090340Y0092802D01*
X0090227Y0092938D01*
X0089687Y0093666D01*
X0089552Y0093747D01*
X0089452Y0093868D01*
X0088648Y0094289D01*
X0079831Y0099580D01*
X0079821Y0099593D01*
X0078923Y0100125D01*
X0078028Y0100662D01*
X0078012Y0100664D01*
X0077998Y0100672D01*
X0076965Y0100820D01*
X0075933Y0100973D01*
X0075917Y0100970D01*
X0064366Y0102620D01*
X0058584Y0106474D01*
X0056506Y0106885D01*
X0054429Y0106470D01*
X0052669Y0105291D01*
X0051494Y0103529D01*
X0051083Y0101451D01*
X0051117Y0101284D01*
X0048638Y0100930D01*
X0048342Y0100972D01*
X0047598Y0100781D01*
X0046836Y0100672D01*
X0046580Y0100520D01*
X0046290Y0100446D01*
X0045675Y0099985D01*
X0045014Y0099593D01*
X0044835Y0099354D01*
X0038106Y0094308D01*
X0037748Y0094159D01*
X0037266Y0093678D01*
X0036722Y0093270D01*
X0036524Y0092936D01*
X0029736Y0086148D01*
X0029561Y0086060D01*
X0028991Y0085403D01*
X0028376Y0084788D01*
X0028301Y0084607D01*
X0028173Y0084460D01*
X0027898Y0083635D01*
X0027565Y0082831D01*
X0027565Y0082636D01*
X0023961Y0071824D01*
X0023628Y0071020D01*
X0023628Y0070825D01*
X0023567Y0070640D01*
X0023628Y0069772D01*
X0023628Y0061505D01*
X0021988Y0061505D01*
X0020031Y0060695D01*
X0018533Y0059197D01*
X0017723Y0057240D01*
X0017723Y0055122D01*
X0018533Y0053165D01*
X0020031Y0051667D01*
X0021988Y0050857D01*
X0025348Y0050857D01*
X0027565Y0045313D01*
X0027565Y0045279D01*
X0027958Y0044331D01*
X0028340Y0043378D01*
X0028363Y0043354D01*
X0028376Y0043323D01*
X0029102Y0042597D01*
X0029819Y0041862D01*
X0029850Y0041849D01*
X0038944Y0032754D01*
X0039661Y0032019D01*
X0039692Y0032006D01*
X0039716Y0031982D01*
X0040665Y0031589D01*
X0053472Y0026101D01*
X0053496Y0026077D01*
X0054444Y0025684D01*
X0055388Y0025279D01*
X0055422Y0025279D01*
X0055453Y0025266D01*
X0056480Y0025266D01*
X0057506Y0025254D01*
X0057537Y0025266D01*
X0063134Y0025266D01*
X0063809Y0023637D01*
X0065307Y0022140D01*
X0067264Y0021329D01*
X0069382Y0021329D01*
X0071339Y0022140D01*
X0072837Y0023637D01*
X0073647Y0025594D01*
X0073647Y0027080D01*
X0084170Y0031589D01*
X0085118Y0031982D01*
X0085142Y0032006D01*
X0085173Y0032019D01*
X0085890Y0032754D01*
X0095183Y0042046D01*
X0095456Y0042199D01*
X0095925Y0042789D01*
X0096459Y0043323D01*
X0096579Y0043612D01*
X0096773Y0043858D01*
X0096981Y0044583D01*
X0097269Y0045279D01*
X0097269Y0045593D01*
X0100918Y0058362D01*
X0101206Y0059059D01*
X0101206Y0059372D01*
X0101292Y0059674D01*
X0101206Y0060423D01*
X0101206Y0064239D01*
X0102674Y0065217D01*
X0102731Y0065217D01*
X0104474Y0065939D01*
X0105809Y0067274D01*
X0106531Y0069017D01*
X0106531Y0070904D01*
X0105809Y0072647D01*
X0104474Y0073982D01*
X0102731Y0074704D01*
X0101206Y0074704D01*
X0101206Y0077593D01*
X0101280Y0078407D01*
X0101206Y0078645D01*
X0101206Y0078894D01*
X0100893Y0079649D01*
X0100650Y0080430D01*
X0100491Y0080621D01*
X0100396Y0080851D01*
X0099818Y0081429D01*
X0099048Y0082353D01*
X0110873Y0082353D01*
X0112412Y0081715D01*
X0114784Y0081715D01*
X0116976Y0082623D01*
X0118110Y0083757D01*
X0118110Y0026330D01*
X0115132Y0028050D01*
X0111527Y0029016D01*
X0107795Y0029016D01*
X0108295Y0031055D02*
X0109188Y0030600D01*
X0110140Y0030291D01*
X0111129Y0030134D01*
X0111630Y0030134D01*
X0112131Y0030134D01*
X0113120Y0030291D01*
X0114072Y0030600D01*
X0114964Y0031055D01*
X0115775Y0031643D01*
X0116483Y0032351D01*
X0117071Y0033162D01*
X0117526Y0034054D01*
X0117835Y0035006D01*
X0117992Y0035995D01*
X0117992Y0036496D01*
X0111630Y0036496D01*
X0111630Y0036496D01*
X0111630Y0030134D01*
X0111630Y0036496D01*
X0111630Y0036496D01*
X0117992Y0036496D01*
X0117992Y0036997D01*
X0117835Y0037986D01*
X0117526Y0038938D01*
X0117071Y0039831D01*
X0116483Y0040641D01*
X0115775Y0041349D01*
X0114964Y0041938D01*
X0114072Y0042392D01*
X0113120Y0042702D01*
X0112131Y0042858D01*
X0111630Y0042858D01*
X0111630Y0036496D01*
X0111630Y0036496D01*
X0105268Y0036496D01*
X0105268Y0035995D01*
X0105424Y0035006D01*
X0105734Y0034054D01*
X0106188Y0033162D01*
X0106777Y0032351D01*
X0107485Y0031643D01*
X0108295Y0031055D01*
X0106099Y0033338D02*
X0086474Y0033338D01*
X0082102Y0036496D02*
X0068323Y0030591D01*
X0068323Y0026654D01*
X0072942Y0023892D02*
X0098667Y0023892D01*
X0096147Y0019169D02*
X0028687Y0019169D01*
X0029346Y0014446D02*
X0095488Y0014446D01*
X0096360Y0009723D02*
X0028475Y0009723D01*
X0026168Y0023892D02*
X0063704Y0023892D01*
X0068323Y0030591D02*
X0056512Y0030591D01*
X0042732Y0036496D01*
X0032890Y0046339D01*
X0028953Y0056181D01*
X0023047Y0056181D01*
X0019469Y0052229D02*
X0006724Y0052229D01*
X0006724Y0056952D02*
X0017723Y0056952D01*
X0023628Y0061675D02*
X0006724Y0061675D01*
X0006724Y0066398D02*
X0023628Y0066398D01*
X0023670Y0071121D02*
X0006724Y0071121D01*
X0006724Y0075844D02*
X0025301Y0075844D01*
X0026876Y0080567D02*
X0006724Y0080567D01*
X0006724Y0085290D02*
X0028878Y0085290D01*
X0032890Y0081772D02*
X0028953Y0069961D01*
X0028953Y0056181D01*
X0026688Y0047506D02*
X0006724Y0047506D01*
X0006724Y0042783D02*
X0028915Y0042783D01*
X0033638Y0038060D02*
X0006724Y0038060D01*
X0006724Y0033338D02*
X0038361Y0033338D01*
X0047606Y0028615D02*
X0018536Y0028615D01*
X0011810Y0028615D02*
X0006724Y0028615D01*
X0032890Y0081772D02*
X0040764Y0089646D01*
X0048638Y0095551D01*
X0062417Y0097520D01*
X0056512Y0101457D01*
X0051929Y0104181D02*
X0024281Y0104181D01*
X0032152Y0108904D02*
X0095630Y0108904D01*
X0097405Y0104181D02*
X0062024Y0104181D01*
X0062417Y0097520D02*
X0076197Y0095551D01*
X0086039Y0089646D01*
X0089589Y0085386D01*
X0091880Y0087677D01*
X0113598Y0087677D01*
X0118110Y0094735D02*
X0087905Y0094735D01*
X0080034Y0099458D02*
X0101824Y0099458D01*
X0117499Y0099458D02*
X0118110Y0099458D01*
X0118110Y0080567D02*
X0100536Y0080567D01*
X0101206Y0075844D02*
X0118110Y0075844D01*
X0118110Y0071121D02*
X0106441Y0071121D01*
X0105724Y0075866D02*
X0109661Y0075866D01*
X0104933Y0066398D02*
X0118110Y0066398D01*
X0118110Y0061675D02*
X0101206Y0061675D01*
X0095882Y0060118D02*
X0095882Y0066024D01*
X0095882Y0077835D01*
X0089589Y0085386D01*
X0095882Y0060118D02*
X0091945Y0046339D01*
X0082102Y0036496D01*
X0091197Y0038060D02*
X0105449Y0038060D01*
X0105424Y0037986D02*
X0105268Y0036997D01*
X0105268Y0036496D01*
X0111630Y0036496D01*
X0111630Y0036496D01*
X0111630Y0042858D01*
X0111129Y0042858D01*
X0110140Y0042702D01*
X0109188Y0042392D01*
X0108295Y0041938D01*
X0107485Y0041349D01*
X0106777Y0040641D01*
X0106188Y0039831D01*
X0105734Y0038938D01*
X0105424Y0037986D01*
X0111630Y0038060D02*
X0111630Y0038060D01*
X0111630Y0033338D02*
X0111630Y0033338D01*
X0113024Y0028615D02*
X0118110Y0028615D01*
X0118110Y0033338D02*
X0117161Y0033338D01*
X0117811Y0038060D02*
X0118110Y0038060D01*
X0118110Y0042783D02*
X0112603Y0042783D01*
X0111630Y0042783D02*
X0111630Y0042783D01*
X0110656Y0042783D02*
X0095921Y0042783D01*
X0097816Y0047506D02*
X0118110Y0047506D01*
X0118110Y0052229D02*
X0099165Y0052229D01*
X0100515Y0056952D02*
X0118110Y0056952D01*
X0044913Y0099458D02*
X0016409Y0099458D01*
X0008538Y0094735D02*
X0038676Y0094735D01*
X0033601Y0090013D02*
X0006724Y0090013D01*
X0034858Y0103425D02*
X0038795Y0103425D01*
D15*
X0095882Y0066024D02*
X0101787Y0069961D01*
M02*
