G75*
%MOIN*%
%OFA0B0*%
%FSLAX25Y25*%
%IPPOS*%
%LPD*%
%AMOC8*
5,1,8,0,0,1.08239X$1,22.5*
%
%ADD10C,0.00000*%
%ADD11C,0.55118*%
%ADD12C,0.00300*%
%ADD13C,0.00800*%
%ADD14C,0.00500*%
D10*
X0013205Y0005000D02*
X0111630Y0005000D01*
X0111868Y0005003D01*
X0112106Y0005011D01*
X0112343Y0005026D01*
X0112580Y0005046D01*
X0112816Y0005072D01*
X0113052Y0005103D01*
X0113287Y0005140D01*
X0113521Y0005183D01*
X0113754Y0005232D01*
X0113986Y0005286D01*
X0114216Y0005346D01*
X0114445Y0005411D01*
X0114672Y0005482D01*
X0114897Y0005558D01*
X0115120Y0005640D01*
X0115342Y0005727D01*
X0115561Y0005819D01*
X0115778Y0005917D01*
X0115992Y0006019D01*
X0116204Y0006127D01*
X0116414Y0006241D01*
X0116620Y0006359D01*
X0116824Y0006482D01*
X0117024Y0006610D01*
X0117221Y0006742D01*
X0117416Y0006880D01*
X0117606Y0007022D01*
X0117794Y0007169D01*
X0117977Y0007320D01*
X0118157Y0007475D01*
X0118333Y0007635D01*
X0118505Y0007799D01*
X0118674Y0007968D01*
X0118838Y0008140D01*
X0118998Y0008316D01*
X0119153Y0008496D01*
X0119304Y0008679D01*
X0119451Y0008867D01*
X0119593Y0009057D01*
X0119731Y0009252D01*
X0119863Y0009449D01*
X0119991Y0009649D01*
X0120114Y0009853D01*
X0120232Y0010059D01*
X0120346Y0010269D01*
X0120454Y0010481D01*
X0120556Y0010695D01*
X0120654Y0010912D01*
X0120746Y0011131D01*
X0120833Y0011353D01*
X0120915Y0011576D01*
X0120991Y0011801D01*
X0121062Y0012028D01*
X0121127Y0012257D01*
X0121187Y0012487D01*
X0121241Y0012719D01*
X0121290Y0012952D01*
X0121333Y0013186D01*
X0121370Y0013421D01*
X0121401Y0013657D01*
X0121427Y0013893D01*
X0121447Y0014130D01*
X0121462Y0014367D01*
X0121470Y0014605D01*
X0121473Y0014843D01*
X0121472Y0014843D02*
X0121472Y0113268D01*
X0117535Y0113268D01*
X0117533Y0113076D01*
X0117526Y0112885D01*
X0117514Y0112693D01*
X0117498Y0112502D01*
X0117477Y0112312D01*
X0117451Y0112122D01*
X0117421Y0111932D01*
X0117386Y0111744D01*
X0117347Y0111556D01*
X0117303Y0111369D01*
X0117254Y0111184D01*
X0117201Y0111000D01*
X0117144Y0110817D01*
X0117082Y0110635D01*
X0117015Y0110455D01*
X0116945Y0110277D01*
X0116870Y0110100D01*
X0116790Y0109926D01*
X0116707Y0109753D01*
X0116619Y0109583D01*
X0116528Y0109414D01*
X0116432Y0109248D01*
X0116332Y0109085D01*
X0116228Y0108923D01*
X0116120Y0108765D01*
X0116009Y0108609D01*
X0115893Y0108456D01*
X0115774Y0108305D01*
X0115652Y0108158D01*
X0115525Y0108014D01*
X0115396Y0107872D01*
X0115263Y0107734D01*
X0115126Y0107599D01*
X0114986Y0107468D01*
X0114844Y0107340D01*
X0114698Y0107216D01*
X0114549Y0107095D01*
X0114397Y0106978D01*
X0114243Y0106864D01*
X0114085Y0106754D01*
X0113925Y0106649D01*
X0113763Y0106547D01*
X0113598Y0106449D01*
X0113431Y0106355D01*
X0113261Y0106265D01*
X0113090Y0106180D01*
X0112916Y0106098D01*
X0112741Y0106021D01*
X0112563Y0105948D01*
X0112384Y0105880D01*
X0112203Y0105816D01*
X0112021Y0105756D01*
X0111838Y0105701D01*
X0111653Y0105650D01*
X0111467Y0105604D01*
X0111279Y0105562D01*
X0111091Y0105525D01*
X0110902Y0105492D01*
X0110713Y0105465D01*
X0110522Y0105441D01*
X0110331Y0105423D01*
X0110140Y0105409D01*
X0109949Y0105399D01*
X0109757Y0105395D01*
X0109565Y0105395D01*
X0109373Y0105399D01*
X0109182Y0105409D01*
X0108991Y0105423D01*
X0108800Y0105441D01*
X0108609Y0105465D01*
X0108420Y0105492D01*
X0108231Y0105525D01*
X0108043Y0105562D01*
X0107855Y0105604D01*
X0107669Y0105650D01*
X0107484Y0105701D01*
X0107301Y0105756D01*
X0107119Y0105816D01*
X0106938Y0105880D01*
X0106759Y0105948D01*
X0106581Y0106021D01*
X0106406Y0106098D01*
X0106232Y0106180D01*
X0106061Y0106265D01*
X0105891Y0106355D01*
X0105724Y0106449D01*
X0105559Y0106547D01*
X0105397Y0106649D01*
X0105237Y0106754D01*
X0105079Y0106864D01*
X0104925Y0106978D01*
X0104773Y0107095D01*
X0104624Y0107216D01*
X0104478Y0107340D01*
X0104336Y0107468D01*
X0104196Y0107599D01*
X0104059Y0107734D01*
X0103926Y0107872D01*
X0103797Y0108014D01*
X0103670Y0108158D01*
X0103548Y0108305D01*
X0103429Y0108456D01*
X0103313Y0108609D01*
X0103202Y0108765D01*
X0103094Y0108923D01*
X0102990Y0109085D01*
X0102890Y0109248D01*
X0102794Y0109414D01*
X0102703Y0109583D01*
X0102615Y0109753D01*
X0102532Y0109926D01*
X0102452Y0110100D01*
X0102377Y0110277D01*
X0102307Y0110455D01*
X0102240Y0110635D01*
X0102178Y0110817D01*
X0102121Y0111000D01*
X0102068Y0111184D01*
X0102019Y0111369D01*
X0101975Y0111556D01*
X0101936Y0111744D01*
X0101901Y0111932D01*
X0101871Y0112122D01*
X0101845Y0112312D01*
X0101824Y0112502D01*
X0101808Y0112693D01*
X0101796Y0112885D01*
X0101789Y0113076D01*
X0101787Y0113268D01*
X0032890Y0113268D01*
X0003362Y0095551D01*
X0003362Y0014843D01*
X0003365Y0014605D01*
X0003373Y0014367D01*
X0003388Y0014130D01*
X0003408Y0013893D01*
X0003434Y0013657D01*
X0003465Y0013421D01*
X0003502Y0013186D01*
X0003545Y0012952D01*
X0003594Y0012719D01*
X0003648Y0012487D01*
X0003708Y0012257D01*
X0003773Y0012028D01*
X0003844Y0011801D01*
X0003920Y0011576D01*
X0004002Y0011353D01*
X0004089Y0011131D01*
X0004181Y0010912D01*
X0004279Y0010695D01*
X0004381Y0010481D01*
X0004489Y0010269D01*
X0004603Y0010059D01*
X0004721Y0009853D01*
X0004844Y0009649D01*
X0004972Y0009449D01*
X0005104Y0009252D01*
X0005242Y0009057D01*
X0005384Y0008867D01*
X0005531Y0008679D01*
X0005682Y0008496D01*
X0005837Y0008316D01*
X0005997Y0008140D01*
X0006161Y0007968D01*
X0006330Y0007799D01*
X0006502Y0007635D01*
X0006678Y0007475D01*
X0006858Y0007320D01*
X0007041Y0007169D01*
X0007229Y0007022D01*
X0007419Y0006880D01*
X0007614Y0006742D01*
X0007811Y0006610D01*
X0008011Y0006482D01*
X0008215Y0006359D01*
X0008421Y0006241D01*
X0008631Y0006127D01*
X0008843Y0006019D01*
X0009057Y0005917D01*
X0009274Y0005819D01*
X0009493Y0005727D01*
X0009715Y0005640D01*
X0009938Y0005558D01*
X0010163Y0005482D01*
X0010390Y0005411D01*
X0010619Y0005346D01*
X0010849Y0005286D01*
X0011081Y0005232D01*
X0011314Y0005183D01*
X0011548Y0005140D01*
X0011783Y0005103D01*
X0012019Y0005072D01*
X0012255Y0005046D01*
X0012492Y0005026D01*
X0012729Y0005011D01*
X0012967Y0005003D01*
X0013205Y0005000D01*
X0008283Y0014843D02*
X0008285Y0015012D01*
X0008291Y0015181D01*
X0008302Y0015350D01*
X0008316Y0015518D01*
X0008335Y0015686D01*
X0008358Y0015854D01*
X0008384Y0016021D01*
X0008415Y0016187D01*
X0008450Y0016353D01*
X0008489Y0016517D01*
X0008533Y0016681D01*
X0008580Y0016843D01*
X0008631Y0017004D01*
X0008686Y0017164D01*
X0008745Y0017323D01*
X0008807Y0017480D01*
X0008874Y0017635D01*
X0008945Y0017789D01*
X0009019Y0017941D01*
X0009097Y0018091D01*
X0009178Y0018239D01*
X0009263Y0018385D01*
X0009352Y0018529D01*
X0009444Y0018671D01*
X0009540Y0018810D01*
X0009639Y0018947D01*
X0009741Y0019082D01*
X0009847Y0019214D01*
X0009956Y0019343D01*
X0010068Y0019470D01*
X0010183Y0019594D01*
X0010301Y0019715D01*
X0010422Y0019833D01*
X0010546Y0019948D01*
X0010673Y0020060D01*
X0010802Y0020169D01*
X0010934Y0020275D01*
X0011069Y0020377D01*
X0011206Y0020476D01*
X0011345Y0020572D01*
X0011487Y0020664D01*
X0011631Y0020753D01*
X0011777Y0020838D01*
X0011925Y0020919D01*
X0012075Y0020997D01*
X0012227Y0021071D01*
X0012381Y0021142D01*
X0012536Y0021209D01*
X0012693Y0021271D01*
X0012852Y0021330D01*
X0013012Y0021385D01*
X0013173Y0021436D01*
X0013335Y0021483D01*
X0013499Y0021527D01*
X0013663Y0021566D01*
X0013829Y0021601D01*
X0013995Y0021632D01*
X0014162Y0021658D01*
X0014330Y0021681D01*
X0014498Y0021700D01*
X0014666Y0021714D01*
X0014835Y0021725D01*
X0015004Y0021731D01*
X0015173Y0021733D01*
X0015342Y0021731D01*
X0015511Y0021725D01*
X0015680Y0021714D01*
X0015848Y0021700D01*
X0016016Y0021681D01*
X0016184Y0021658D01*
X0016351Y0021632D01*
X0016517Y0021601D01*
X0016683Y0021566D01*
X0016847Y0021527D01*
X0017011Y0021483D01*
X0017173Y0021436D01*
X0017334Y0021385D01*
X0017494Y0021330D01*
X0017653Y0021271D01*
X0017810Y0021209D01*
X0017965Y0021142D01*
X0018119Y0021071D01*
X0018271Y0020997D01*
X0018421Y0020919D01*
X0018569Y0020838D01*
X0018715Y0020753D01*
X0018859Y0020664D01*
X0019001Y0020572D01*
X0019140Y0020476D01*
X0019277Y0020377D01*
X0019412Y0020275D01*
X0019544Y0020169D01*
X0019673Y0020060D01*
X0019800Y0019948D01*
X0019924Y0019833D01*
X0020045Y0019715D01*
X0020163Y0019594D01*
X0020278Y0019470D01*
X0020390Y0019343D01*
X0020499Y0019214D01*
X0020605Y0019082D01*
X0020707Y0018947D01*
X0020806Y0018810D01*
X0020902Y0018671D01*
X0020994Y0018529D01*
X0021083Y0018385D01*
X0021168Y0018239D01*
X0021249Y0018091D01*
X0021327Y0017941D01*
X0021401Y0017789D01*
X0021472Y0017635D01*
X0021539Y0017480D01*
X0021601Y0017323D01*
X0021660Y0017164D01*
X0021715Y0017004D01*
X0021766Y0016843D01*
X0021813Y0016681D01*
X0021857Y0016517D01*
X0021896Y0016353D01*
X0021931Y0016187D01*
X0021962Y0016021D01*
X0021988Y0015854D01*
X0022011Y0015686D01*
X0022030Y0015518D01*
X0022044Y0015350D01*
X0022055Y0015181D01*
X0022061Y0015012D01*
X0022063Y0014843D01*
X0022061Y0014674D01*
X0022055Y0014505D01*
X0022044Y0014336D01*
X0022030Y0014168D01*
X0022011Y0014000D01*
X0021988Y0013832D01*
X0021962Y0013665D01*
X0021931Y0013499D01*
X0021896Y0013333D01*
X0021857Y0013169D01*
X0021813Y0013005D01*
X0021766Y0012843D01*
X0021715Y0012682D01*
X0021660Y0012522D01*
X0021601Y0012363D01*
X0021539Y0012206D01*
X0021472Y0012051D01*
X0021401Y0011897D01*
X0021327Y0011745D01*
X0021249Y0011595D01*
X0021168Y0011447D01*
X0021083Y0011301D01*
X0020994Y0011157D01*
X0020902Y0011015D01*
X0020806Y0010876D01*
X0020707Y0010739D01*
X0020605Y0010604D01*
X0020499Y0010472D01*
X0020390Y0010343D01*
X0020278Y0010216D01*
X0020163Y0010092D01*
X0020045Y0009971D01*
X0019924Y0009853D01*
X0019800Y0009738D01*
X0019673Y0009626D01*
X0019544Y0009517D01*
X0019412Y0009411D01*
X0019277Y0009309D01*
X0019140Y0009210D01*
X0019001Y0009114D01*
X0018859Y0009022D01*
X0018715Y0008933D01*
X0018569Y0008848D01*
X0018421Y0008767D01*
X0018271Y0008689D01*
X0018119Y0008615D01*
X0017965Y0008544D01*
X0017810Y0008477D01*
X0017653Y0008415D01*
X0017494Y0008356D01*
X0017334Y0008301D01*
X0017173Y0008250D01*
X0017011Y0008203D01*
X0016847Y0008159D01*
X0016683Y0008120D01*
X0016517Y0008085D01*
X0016351Y0008054D01*
X0016184Y0008028D01*
X0016016Y0008005D01*
X0015848Y0007986D01*
X0015680Y0007972D01*
X0015511Y0007961D01*
X0015342Y0007955D01*
X0015173Y0007953D01*
X0015004Y0007955D01*
X0014835Y0007961D01*
X0014666Y0007972D01*
X0014498Y0007986D01*
X0014330Y0008005D01*
X0014162Y0008028D01*
X0013995Y0008054D01*
X0013829Y0008085D01*
X0013663Y0008120D01*
X0013499Y0008159D01*
X0013335Y0008203D01*
X0013173Y0008250D01*
X0013012Y0008301D01*
X0012852Y0008356D01*
X0012693Y0008415D01*
X0012536Y0008477D01*
X0012381Y0008544D01*
X0012227Y0008615D01*
X0012075Y0008689D01*
X0011925Y0008767D01*
X0011777Y0008848D01*
X0011631Y0008933D01*
X0011487Y0009022D01*
X0011345Y0009114D01*
X0011206Y0009210D01*
X0011069Y0009309D01*
X0010934Y0009411D01*
X0010802Y0009517D01*
X0010673Y0009626D01*
X0010546Y0009738D01*
X0010422Y0009853D01*
X0010301Y0009971D01*
X0010183Y0010092D01*
X0010068Y0010216D01*
X0009956Y0010343D01*
X0009847Y0010472D01*
X0009741Y0010604D01*
X0009639Y0010739D01*
X0009540Y0010876D01*
X0009444Y0011015D01*
X0009352Y0011157D01*
X0009263Y0011301D01*
X0009178Y0011447D01*
X0009097Y0011595D01*
X0009019Y0011745D01*
X0008945Y0011897D01*
X0008874Y0012051D01*
X0008807Y0012206D01*
X0008745Y0012363D01*
X0008686Y0012522D01*
X0008631Y0012682D01*
X0008580Y0012843D01*
X0008533Y0013005D01*
X0008489Y0013169D01*
X0008450Y0013333D01*
X0008415Y0013499D01*
X0008384Y0013665D01*
X0008358Y0013832D01*
X0008335Y0014000D01*
X0008316Y0014168D01*
X0008302Y0014336D01*
X0008291Y0014505D01*
X0008285Y0014674D01*
X0008283Y0014843D01*
X0102771Y0014843D02*
X0102773Y0015012D01*
X0102779Y0015181D01*
X0102790Y0015350D01*
X0102804Y0015518D01*
X0102823Y0015686D01*
X0102846Y0015854D01*
X0102872Y0016021D01*
X0102903Y0016187D01*
X0102938Y0016353D01*
X0102977Y0016517D01*
X0103021Y0016681D01*
X0103068Y0016843D01*
X0103119Y0017004D01*
X0103174Y0017164D01*
X0103233Y0017323D01*
X0103295Y0017480D01*
X0103362Y0017635D01*
X0103433Y0017789D01*
X0103507Y0017941D01*
X0103585Y0018091D01*
X0103666Y0018239D01*
X0103751Y0018385D01*
X0103840Y0018529D01*
X0103932Y0018671D01*
X0104028Y0018810D01*
X0104127Y0018947D01*
X0104229Y0019082D01*
X0104335Y0019214D01*
X0104444Y0019343D01*
X0104556Y0019470D01*
X0104671Y0019594D01*
X0104789Y0019715D01*
X0104910Y0019833D01*
X0105034Y0019948D01*
X0105161Y0020060D01*
X0105290Y0020169D01*
X0105422Y0020275D01*
X0105557Y0020377D01*
X0105694Y0020476D01*
X0105833Y0020572D01*
X0105975Y0020664D01*
X0106119Y0020753D01*
X0106265Y0020838D01*
X0106413Y0020919D01*
X0106563Y0020997D01*
X0106715Y0021071D01*
X0106869Y0021142D01*
X0107024Y0021209D01*
X0107181Y0021271D01*
X0107340Y0021330D01*
X0107500Y0021385D01*
X0107661Y0021436D01*
X0107823Y0021483D01*
X0107987Y0021527D01*
X0108151Y0021566D01*
X0108317Y0021601D01*
X0108483Y0021632D01*
X0108650Y0021658D01*
X0108818Y0021681D01*
X0108986Y0021700D01*
X0109154Y0021714D01*
X0109323Y0021725D01*
X0109492Y0021731D01*
X0109661Y0021733D01*
X0109830Y0021731D01*
X0109999Y0021725D01*
X0110168Y0021714D01*
X0110336Y0021700D01*
X0110504Y0021681D01*
X0110672Y0021658D01*
X0110839Y0021632D01*
X0111005Y0021601D01*
X0111171Y0021566D01*
X0111335Y0021527D01*
X0111499Y0021483D01*
X0111661Y0021436D01*
X0111822Y0021385D01*
X0111982Y0021330D01*
X0112141Y0021271D01*
X0112298Y0021209D01*
X0112453Y0021142D01*
X0112607Y0021071D01*
X0112759Y0020997D01*
X0112909Y0020919D01*
X0113057Y0020838D01*
X0113203Y0020753D01*
X0113347Y0020664D01*
X0113489Y0020572D01*
X0113628Y0020476D01*
X0113765Y0020377D01*
X0113900Y0020275D01*
X0114032Y0020169D01*
X0114161Y0020060D01*
X0114288Y0019948D01*
X0114412Y0019833D01*
X0114533Y0019715D01*
X0114651Y0019594D01*
X0114766Y0019470D01*
X0114878Y0019343D01*
X0114987Y0019214D01*
X0115093Y0019082D01*
X0115195Y0018947D01*
X0115294Y0018810D01*
X0115390Y0018671D01*
X0115482Y0018529D01*
X0115571Y0018385D01*
X0115656Y0018239D01*
X0115737Y0018091D01*
X0115815Y0017941D01*
X0115889Y0017789D01*
X0115960Y0017635D01*
X0116027Y0017480D01*
X0116089Y0017323D01*
X0116148Y0017164D01*
X0116203Y0017004D01*
X0116254Y0016843D01*
X0116301Y0016681D01*
X0116345Y0016517D01*
X0116384Y0016353D01*
X0116419Y0016187D01*
X0116450Y0016021D01*
X0116476Y0015854D01*
X0116499Y0015686D01*
X0116518Y0015518D01*
X0116532Y0015350D01*
X0116543Y0015181D01*
X0116549Y0015012D01*
X0116551Y0014843D01*
X0116549Y0014674D01*
X0116543Y0014505D01*
X0116532Y0014336D01*
X0116518Y0014168D01*
X0116499Y0014000D01*
X0116476Y0013832D01*
X0116450Y0013665D01*
X0116419Y0013499D01*
X0116384Y0013333D01*
X0116345Y0013169D01*
X0116301Y0013005D01*
X0116254Y0012843D01*
X0116203Y0012682D01*
X0116148Y0012522D01*
X0116089Y0012363D01*
X0116027Y0012206D01*
X0115960Y0012051D01*
X0115889Y0011897D01*
X0115815Y0011745D01*
X0115737Y0011595D01*
X0115656Y0011447D01*
X0115571Y0011301D01*
X0115482Y0011157D01*
X0115390Y0011015D01*
X0115294Y0010876D01*
X0115195Y0010739D01*
X0115093Y0010604D01*
X0114987Y0010472D01*
X0114878Y0010343D01*
X0114766Y0010216D01*
X0114651Y0010092D01*
X0114533Y0009971D01*
X0114412Y0009853D01*
X0114288Y0009738D01*
X0114161Y0009626D01*
X0114032Y0009517D01*
X0113900Y0009411D01*
X0113765Y0009309D01*
X0113628Y0009210D01*
X0113489Y0009114D01*
X0113347Y0009022D01*
X0113203Y0008933D01*
X0113057Y0008848D01*
X0112909Y0008767D01*
X0112759Y0008689D01*
X0112607Y0008615D01*
X0112453Y0008544D01*
X0112298Y0008477D01*
X0112141Y0008415D01*
X0111982Y0008356D01*
X0111822Y0008301D01*
X0111661Y0008250D01*
X0111499Y0008203D01*
X0111335Y0008159D01*
X0111171Y0008120D01*
X0111005Y0008085D01*
X0110839Y0008054D01*
X0110672Y0008028D01*
X0110504Y0008005D01*
X0110336Y0007986D01*
X0110168Y0007972D01*
X0109999Y0007961D01*
X0109830Y0007955D01*
X0109661Y0007953D01*
X0109492Y0007955D01*
X0109323Y0007961D01*
X0109154Y0007972D01*
X0108986Y0007986D01*
X0108818Y0008005D01*
X0108650Y0008028D01*
X0108483Y0008054D01*
X0108317Y0008085D01*
X0108151Y0008120D01*
X0107987Y0008159D01*
X0107823Y0008203D01*
X0107661Y0008250D01*
X0107500Y0008301D01*
X0107340Y0008356D01*
X0107181Y0008415D01*
X0107024Y0008477D01*
X0106869Y0008544D01*
X0106715Y0008615D01*
X0106563Y0008689D01*
X0106413Y0008767D01*
X0106265Y0008848D01*
X0106119Y0008933D01*
X0105975Y0009022D01*
X0105833Y0009114D01*
X0105694Y0009210D01*
X0105557Y0009309D01*
X0105422Y0009411D01*
X0105290Y0009517D01*
X0105161Y0009626D01*
X0105034Y0009738D01*
X0104910Y0009853D01*
X0104789Y0009971D01*
X0104671Y0010092D01*
X0104556Y0010216D01*
X0104444Y0010343D01*
X0104335Y0010472D01*
X0104229Y0010604D01*
X0104127Y0010739D01*
X0104028Y0010876D01*
X0103932Y0011015D01*
X0103840Y0011157D01*
X0103751Y0011301D01*
X0103666Y0011447D01*
X0103585Y0011595D01*
X0103507Y0011745D01*
X0103433Y0011897D01*
X0103362Y0012051D01*
X0103295Y0012206D01*
X0103233Y0012363D01*
X0103174Y0012522D01*
X0103119Y0012682D01*
X0103068Y0012843D01*
X0103021Y0013005D01*
X0102977Y0013169D01*
X0102938Y0013333D01*
X0102903Y0013499D01*
X0102872Y0013665D01*
X0102846Y0013832D01*
X0102823Y0014000D01*
X0102804Y0014168D01*
X0102790Y0014336D01*
X0102779Y0014505D01*
X0102773Y0014674D01*
X0102771Y0014843D01*
D11*
X0062417Y0064055D03*
D12*
X0061456Y0064205D02*
X0061456Y0067845D01*
X0063276Y0067845D01*
X0063883Y0067239D01*
X0063883Y0066025D01*
X0063276Y0065418D01*
X0061456Y0065418D01*
X0062670Y0065418D02*
X0063883Y0064205D01*
X0065081Y0064205D02*
X0067508Y0064205D01*
X0068706Y0064205D02*
X0068706Y0066632D01*
X0069920Y0067845D01*
X0071133Y0066632D01*
X0071133Y0064205D01*
X0071133Y0066025D02*
X0068706Y0066025D01*
X0067508Y0067845D02*
X0065081Y0067845D01*
X0065081Y0064205D01*
X0065081Y0066025D02*
X0066295Y0066025D01*
X0066295Y0061940D02*
X0067508Y0060726D01*
X0067508Y0058300D01*
X0068706Y0058300D02*
X0069920Y0059513D01*
X0071133Y0058300D01*
X0071133Y0061940D01*
X0072332Y0060726D02*
X0073545Y0061940D01*
X0074758Y0060726D01*
X0074758Y0058300D01*
X0077170Y0058300D02*
X0077170Y0060120D01*
X0078383Y0061333D01*
X0078383Y0061940D01*
X0079582Y0062546D02*
X0079582Y0060120D01*
X0079582Y0058906D02*
X0079582Y0058300D01*
X0077170Y0060120D02*
X0075957Y0061333D01*
X0075957Y0061940D01*
X0074758Y0060120D02*
X0072332Y0060120D01*
X0072332Y0060726D02*
X0072332Y0058300D01*
X0068706Y0058300D02*
X0068706Y0061940D01*
X0067508Y0060120D02*
X0065081Y0060120D01*
X0065081Y0060726D02*
X0066295Y0061940D01*
X0065081Y0060726D02*
X0065081Y0058300D01*
X0060258Y0058906D02*
X0060258Y0061333D01*
X0059651Y0061940D01*
X0057831Y0061940D01*
X0057831Y0058300D01*
X0059651Y0058300D01*
X0060258Y0058906D01*
X0056633Y0058300D02*
X0054206Y0058300D01*
X0054206Y0061940D01*
X0056633Y0061940D01*
X0055419Y0060120D02*
X0054206Y0060120D01*
X0053008Y0058300D02*
X0050581Y0058300D01*
X0050581Y0061940D01*
X0051187Y0064205D02*
X0050581Y0064812D01*
X0051187Y0064205D02*
X0052401Y0064205D01*
X0053008Y0064812D01*
X0053008Y0065418D01*
X0052401Y0066025D01*
X0051187Y0066025D01*
X0050581Y0066632D01*
X0050581Y0067239D01*
X0051187Y0067845D01*
X0052401Y0067845D01*
X0053008Y0067239D01*
X0049377Y0067845D02*
X0048164Y0067845D01*
X0048771Y0067845D02*
X0048771Y0064205D01*
X0049377Y0064205D02*
X0048164Y0064205D01*
X0046966Y0064205D02*
X0046966Y0067845D01*
X0046966Y0066025D02*
X0044539Y0066025D01*
X0044539Y0064205D02*
X0044539Y0067845D01*
X0043341Y0067845D02*
X0040914Y0067845D01*
X0042127Y0067845D02*
X0042127Y0064205D01*
X0040914Y0061940D02*
X0042127Y0060726D01*
X0043341Y0061940D01*
X0043341Y0058300D01*
X0044539Y0058300D02*
X0045752Y0058300D01*
X0045146Y0058300D02*
X0045146Y0061940D01*
X0045752Y0061940D02*
X0044539Y0061940D01*
X0046956Y0061940D02*
X0046956Y0058300D01*
X0049382Y0058300D01*
X0040914Y0058300D02*
X0040914Y0061940D01*
X0057831Y0064205D02*
X0057831Y0066632D01*
X0059044Y0067845D01*
X0060258Y0066632D01*
X0060258Y0064205D01*
X0060258Y0066025D02*
X0057831Y0066025D01*
X0075957Y0067845D02*
X0078383Y0067845D01*
X0077170Y0067845D02*
X0077170Y0064205D01*
X0079582Y0064812D02*
X0080189Y0064205D01*
X0081402Y0064205D01*
X0082009Y0064812D01*
X0082009Y0067239D01*
X0081402Y0067845D01*
X0080189Y0067845D01*
X0079582Y0067239D01*
X0079582Y0064812D01*
X0086832Y0064205D02*
X0088652Y0064205D01*
X0089259Y0064812D01*
X0089259Y0065418D01*
X0088652Y0066025D01*
X0086832Y0066025D01*
X0086832Y0064205D02*
X0086832Y0067845D01*
X0088652Y0067845D01*
X0089259Y0067239D01*
X0089259Y0066632D01*
X0088652Y0066025D01*
X0090457Y0066025D02*
X0091671Y0066025D01*
X0092884Y0067845D02*
X0090457Y0067845D01*
X0090457Y0064205D01*
X0092884Y0064205D01*
D13*
X0100606Y0066417D02*
X0100606Y0061693D01*
X0102969Y0064055D01*
X0100606Y0066417D01*
X0102969Y0066811D02*
X0102969Y0064055D01*
X0102969Y0061299D01*
X0100937Y0051082D02*
X0099883Y0048536D01*
X0096796Y0047258D01*
X0098604Y0051623D01*
X0099883Y0048536D01*
X0098828Y0045990D01*
X0091091Y0038722D02*
X0087750Y0035381D01*
X0091091Y0035381D01*
X0091091Y0038722D01*
X0093040Y0037330D02*
X0091091Y0035381D01*
X0089142Y0033433D01*
X0080482Y0027645D02*
X0077936Y0026590D01*
X0074850Y0027868D01*
X0079215Y0029676D01*
X0077936Y0026590D01*
X0075390Y0025535D01*
X0065173Y0023504D02*
X0062417Y0023504D01*
X0060055Y0025866D01*
X0064780Y0025866D01*
X0062417Y0023504D01*
X0059661Y0023504D01*
X0049445Y0025535D02*
X0046898Y0026590D01*
X0045620Y0029676D01*
X0049985Y0027868D01*
X0046898Y0026590D01*
X0044352Y0027645D01*
X0035692Y0033433D02*
X0033744Y0035381D01*
X0033744Y0038722D01*
X0037084Y0035381D01*
X0033744Y0035381D01*
X0031795Y0037330D01*
X0026007Y0045990D02*
X0024952Y0048536D01*
X0026231Y0051623D01*
X0028038Y0047258D01*
X0024952Y0048536D01*
X0023897Y0051082D01*
X0021866Y0061299D02*
X0021866Y0064055D01*
X0024228Y0066417D01*
X0024228Y0061693D01*
X0021866Y0064055D01*
X0021866Y0066811D01*
X0026231Y0076488D02*
X0028038Y0080852D01*
X0024952Y0079574D01*
X0026231Y0076488D01*
X0023897Y0077028D02*
X0024952Y0079574D01*
X0026007Y0082120D01*
X0033744Y0089388D02*
X0037084Y0092729D01*
X0033744Y0092729D01*
X0033744Y0089388D01*
X0031795Y0090780D02*
X0033744Y0092729D01*
X0035692Y0094678D01*
X0044352Y0100466D02*
X0046898Y0101520D01*
X0049985Y0100242D01*
X0045620Y0098434D01*
X0046898Y0101520D01*
X0049445Y0102575D01*
X0059661Y0104606D02*
X0062417Y0104606D01*
X0064780Y0102244D01*
X0060055Y0102244D01*
X0062417Y0104606D01*
X0065173Y0104606D01*
X0075390Y0102575D02*
X0077936Y0101520D01*
X0079215Y0098434D01*
X0074850Y0100242D01*
X0077936Y0101520D01*
X0080482Y0100466D01*
X0089142Y0094678D02*
X0091091Y0092729D01*
X0091091Y0089388D01*
X0087750Y0092729D01*
X0091091Y0092729D01*
X0093040Y0090780D01*
X0098828Y0082120D02*
X0099883Y0079574D01*
X0098604Y0076488D01*
X0096796Y0080852D01*
X0099883Y0079574D01*
X0100937Y0077028D01*
D14*
X0114754Y0078963D02*
X0117756Y0078963D01*
X0116255Y0080464D02*
X0116255Y0077461D01*
X0108598Y0087677D02*
X0108600Y0087818D01*
X0108606Y0087959D01*
X0108616Y0088099D01*
X0108630Y0088239D01*
X0108648Y0088379D01*
X0108669Y0088518D01*
X0108695Y0088657D01*
X0108724Y0088795D01*
X0108758Y0088931D01*
X0108795Y0089067D01*
X0108836Y0089202D01*
X0108881Y0089336D01*
X0108930Y0089468D01*
X0108982Y0089599D01*
X0109038Y0089728D01*
X0109098Y0089855D01*
X0109161Y0089981D01*
X0109227Y0090105D01*
X0109298Y0090228D01*
X0109371Y0090348D01*
X0109448Y0090466D01*
X0109528Y0090582D01*
X0109612Y0090695D01*
X0109698Y0090806D01*
X0109788Y0090915D01*
X0109881Y0091021D01*
X0109976Y0091124D01*
X0110075Y0091225D01*
X0110176Y0091323D01*
X0110280Y0091418D01*
X0110387Y0091510D01*
X0110496Y0091599D01*
X0110608Y0091684D01*
X0110722Y0091767D01*
X0110838Y0091847D01*
X0110957Y0091923D01*
X0111078Y0091995D01*
X0111200Y0092065D01*
X0111325Y0092130D01*
X0111451Y0092193D01*
X0111579Y0092251D01*
X0111709Y0092306D01*
X0111840Y0092358D01*
X0111973Y0092405D01*
X0112107Y0092449D01*
X0112242Y0092490D01*
X0112378Y0092526D01*
X0112515Y0092558D01*
X0112653Y0092587D01*
X0112791Y0092612D01*
X0112931Y0092632D01*
X0113071Y0092649D01*
X0113211Y0092662D01*
X0113352Y0092671D01*
X0113492Y0092676D01*
X0113633Y0092677D01*
X0113774Y0092674D01*
X0113915Y0092667D01*
X0114055Y0092656D01*
X0114195Y0092641D01*
X0114335Y0092622D01*
X0114474Y0092600D01*
X0114612Y0092573D01*
X0114750Y0092543D01*
X0114886Y0092508D01*
X0115022Y0092470D01*
X0115156Y0092428D01*
X0115290Y0092382D01*
X0115422Y0092333D01*
X0115552Y0092279D01*
X0115681Y0092222D01*
X0115808Y0092162D01*
X0115934Y0092098D01*
X0116057Y0092030D01*
X0116179Y0091959D01*
X0116299Y0091885D01*
X0116416Y0091807D01*
X0116531Y0091726D01*
X0116644Y0091642D01*
X0116755Y0091555D01*
X0116863Y0091464D01*
X0116968Y0091371D01*
X0117071Y0091274D01*
X0117171Y0091175D01*
X0117268Y0091073D01*
X0117362Y0090968D01*
X0117453Y0090861D01*
X0117541Y0090751D01*
X0117626Y0090639D01*
X0117708Y0090524D01*
X0117787Y0090407D01*
X0117862Y0090288D01*
X0117934Y0090167D01*
X0118002Y0090044D01*
X0118067Y0089919D01*
X0118129Y0089792D01*
X0118186Y0089663D01*
X0118241Y0089533D01*
X0118291Y0089402D01*
X0118338Y0089269D01*
X0118381Y0089135D01*
X0118420Y0088999D01*
X0118455Y0088863D01*
X0118487Y0088726D01*
X0118514Y0088588D01*
X0118538Y0088449D01*
X0118558Y0088309D01*
X0118574Y0088169D01*
X0118586Y0088029D01*
X0118594Y0087888D01*
X0118598Y0087747D01*
X0118598Y0087607D01*
X0118594Y0087466D01*
X0118586Y0087325D01*
X0118574Y0087185D01*
X0118558Y0087045D01*
X0118538Y0086905D01*
X0118514Y0086766D01*
X0118487Y0086628D01*
X0118455Y0086491D01*
X0118420Y0086355D01*
X0118381Y0086219D01*
X0118338Y0086085D01*
X0118291Y0085952D01*
X0118241Y0085821D01*
X0118186Y0085691D01*
X0118129Y0085562D01*
X0118067Y0085435D01*
X0118002Y0085310D01*
X0117934Y0085187D01*
X0117862Y0085066D01*
X0117787Y0084947D01*
X0117708Y0084830D01*
X0117626Y0084715D01*
X0117541Y0084603D01*
X0117453Y0084493D01*
X0117362Y0084386D01*
X0117268Y0084281D01*
X0117171Y0084179D01*
X0117071Y0084080D01*
X0116968Y0083983D01*
X0116863Y0083890D01*
X0116755Y0083799D01*
X0116644Y0083712D01*
X0116531Y0083628D01*
X0116416Y0083547D01*
X0116299Y0083469D01*
X0116179Y0083395D01*
X0116057Y0083324D01*
X0115934Y0083256D01*
X0115808Y0083192D01*
X0115681Y0083132D01*
X0115552Y0083075D01*
X0115422Y0083021D01*
X0115290Y0082972D01*
X0115156Y0082926D01*
X0115022Y0082884D01*
X0114886Y0082846D01*
X0114750Y0082811D01*
X0114612Y0082781D01*
X0114474Y0082754D01*
X0114335Y0082732D01*
X0114195Y0082713D01*
X0114055Y0082698D01*
X0113915Y0082687D01*
X0113774Y0082680D01*
X0113633Y0082677D01*
X0113492Y0082678D01*
X0113352Y0082683D01*
X0113211Y0082692D01*
X0113071Y0082705D01*
X0112931Y0082722D01*
X0112791Y0082742D01*
X0112653Y0082767D01*
X0112515Y0082796D01*
X0112378Y0082828D01*
X0112242Y0082864D01*
X0112107Y0082905D01*
X0111973Y0082949D01*
X0111840Y0082996D01*
X0111709Y0083048D01*
X0111579Y0083103D01*
X0111451Y0083161D01*
X0111325Y0083224D01*
X0111200Y0083289D01*
X0111078Y0083359D01*
X0110957Y0083431D01*
X0110838Y0083507D01*
X0110722Y0083587D01*
X0110608Y0083670D01*
X0110496Y0083755D01*
X0110387Y0083844D01*
X0110280Y0083936D01*
X0110176Y0084031D01*
X0110075Y0084129D01*
X0109976Y0084230D01*
X0109881Y0084333D01*
X0109788Y0084439D01*
X0109698Y0084548D01*
X0109612Y0084659D01*
X0109528Y0084772D01*
X0109448Y0084888D01*
X0109371Y0085006D01*
X0109298Y0085126D01*
X0109227Y0085249D01*
X0109161Y0085373D01*
X0109098Y0085499D01*
X0109038Y0085626D01*
X0108982Y0085755D01*
X0108930Y0085886D01*
X0108881Y0086018D01*
X0108836Y0086152D01*
X0108795Y0086287D01*
X0108758Y0086423D01*
X0108724Y0086559D01*
X0108695Y0086697D01*
X0108669Y0086836D01*
X0108648Y0086975D01*
X0108630Y0087115D01*
X0108616Y0087255D01*
X0108606Y0087395D01*
X0108600Y0087536D01*
X0108598Y0087677D01*
X0114754Y0045498D02*
X0117756Y0045498D01*
X0106630Y0036496D02*
X0106632Y0036637D01*
X0106638Y0036778D01*
X0106648Y0036918D01*
X0106662Y0037058D01*
X0106680Y0037198D01*
X0106701Y0037337D01*
X0106727Y0037476D01*
X0106756Y0037614D01*
X0106790Y0037750D01*
X0106827Y0037886D01*
X0106868Y0038021D01*
X0106913Y0038155D01*
X0106962Y0038287D01*
X0107014Y0038418D01*
X0107070Y0038547D01*
X0107130Y0038674D01*
X0107193Y0038800D01*
X0107259Y0038924D01*
X0107330Y0039047D01*
X0107403Y0039167D01*
X0107480Y0039285D01*
X0107560Y0039401D01*
X0107644Y0039514D01*
X0107730Y0039625D01*
X0107820Y0039734D01*
X0107913Y0039840D01*
X0108008Y0039943D01*
X0108107Y0040044D01*
X0108208Y0040142D01*
X0108312Y0040237D01*
X0108419Y0040329D01*
X0108528Y0040418D01*
X0108640Y0040503D01*
X0108754Y0040586D01*
X0108870Y0040666D01*
X0108989Y0040742D01*
X0109110Y0040814D01*
X0109232Y0040884D01*
X0109357Y0040949D01*
X0109483Y0041012D01*
X0109611Y0041070D01*
X0109741Y0041125D01*
X0109872Y0041177D01*
X0110005Y0041224D01*
X0110139Y0041268D01*
X0110274Y0041309D01*
X0110410Y0041345D01*
X0110547Y0041377D01*
X0110685Y0041406D01*
X0110823Y0041431D01*
X0110963Y0041451D01*
X0111103Y0041468D01*
X0111243Y0041481D01*
X0111384Y0041490D01*
X0111524Y0041495D01*
X0111665Y0041496D01*
X0111806Y0041493D01*
X0111947Y0041486D01*
X0112087Y0041475D01*
X0112227Y0041460D01*
X0112367Y0041441D01*
X0112506Y0041419D01*
X0112644Y0041392D01*
X0112782Y0041362D01*
X0112918Y0041327D01*
X0113054Y0041289D01*
X0113188Y0041247D01*
X0113322Y0041201D01*
X0113454Y0041152D01*
X0113584Y0041098D01*
X0113713Y0041041D01*
X0113840Y0040981D01*
X0113966Y0040917D01*
X0114089Y0040849D01*
X0114211Y0040778D01*
X0114331Y0040704D01*
X0114448Y0040626D01*
X0114563Y0040545D01*
X0114676Y0040461D01*
X0114787Y0040374D01*
X0114895Y0040283D01*
X0115000Y0040190D01*
X0115103Y0040093D01*
X0115203Y0039994D01*
X0115300Y0039892D01*
X0115394Y0039787D01*
X0115485Y0039680D01*
X0115573Y0039570D01*
X0115658Y0039458D01*
X0115740Y0039343D01*
X0115819Y0039226D01*
X0115894Y0039107D01*
X0115966Y0038986D01*
X0116034Y0038863D01*
X0116099Y0038738D01*
X0116161Y0038611D01*
X0116218Y0038482D01*
X0116273Y0038352D01*
X0116323Y0038221D01*
X0116370Y0038088D01*
X0116413Y0037954D01*
X0116452Y0037818D01*
X0116487Y0037682D01*
X0116519Y0037545D01*
X0116546Y0037407D01*
X0116570Y0037268D01*
X0116590Y0037128D01*
X0116606Y0036988D01*
X0116618Y0036848D01*
X0116626Y0036707D01*
X0116630Y0036566D01*
X0116630Y0036426D01*
X0116626Y0036285D01*
X0116618Y0036144D01*
X0116606Y0036004D01*
X0116590Y0035864D01*
X0116570Y0035724D01*
X0116546Y0035585D01*
X0116519Y0035447D01*
X0116487Y0035310D01*
X0116452Y0035174D01*
X0116413Y0035038D01*
X0116370Y0034904D01*
X0116323Y0034771D01*
X0116273Y0034640D01*
X0116218Y0034510D01*
X0116161Y0034381D01*
X0116099Y0034254D01*
X0116034Y0034129D01*
X0115966Y0034006D01*
X0115894Y0033885D01*
X0115819Y0033766D01*
X0115740Y0033649D01*
X0115658Y0033534D01*
X0115573Y0033422D01*
X0115485Y0033312D01*
X0115394Y0033205D01*
X0115300Y0033100D01*
X0115203Y0032998D01*
X0115103Y0032899D01*
X0115000Y0032802D01*
X0114895Y0032709D01*
X0114787Y0032618D01*
X0114676Y0032531D01*
X0114563Y0032447D01*
X0114448Y0032366D01*
X0114331Y0032288D01*
X0114211Y0032214D01*
X0114089Y0032143D01*
X0113966Y0032075D01*
X0113840Y0032011D01*
X0113713Y0031951D01*
X0113584Y0031894D01*
X0113454Y0031840D01*
X0113322Y0031791D01*
X0113188Y0031745D01*
X0113054Y0031703D01*
X0112918Y0031665D01*
X0112782Y0031630D01*
X0112644Y0031600D01*
X0112506Y0031573D01*
X0112367Y0031551D01*
X0112227Y0031532D01*
X0112087Y0031517D01*
X0111947Y0031506D01*
X0111806Y0031499D01*
X0111665Y0031496D01*
X0111524Y0031497D01*
X0111384Y0031502D01*
X0111243Y0031511D01*
X0111103Y0031524D01*
X0110963Y0031541D01*
X0110823Y0031561D01*
X0110685Y0031586D01*
X0110547Y0031615D01*
X0110410Y0031647D01*
X0110274Y0031683D01*
X0110139Y0031724D01*
X0110005Y0031768D01*
X0109872Y0031815D01*
X0109741Y0031867D01*
X0109611Y0031922D01*
X0109483Y0031980D01*
X0109357Y0032043D01*
X0109232Y0032108D01*
X0109110Y0032178D01*
X0108989Y0032250D01*
X0108870Y0032326D01*
X0108754Y0032406D01*
X0108640Y0032489D01*
X0108528Y0032574D01*
X0108419Y0032663D01*
X0108312Y0032755D01*
X0108208Y0032850D01*
X0108107Y0032948D01*
X0108008Y0033049D01*
X0107913Y0033152D01*
X0107820Y0033258D01*
X0107730Y0033367D01*
X0107644Y0033478D01*
X0107560Y0033591D01*
X0107480Y0033707D01*
X0107403Y0033825D01*
X0107330Y0033945D01*
X0107259Y0034068D01*
X0107193Y0034192D01*
X0107130Y0034318D01*
X0107070Y0034445D01*
X0107014Y0034574D01*
X0106962Y0034705D01*
X0106913Y0034837D01*
X0106868Y0034971D01*
X0106827Y0035106D01*
X0106790Y0035242D01*
X0106756Y0035378D01*
X0106727Y0035516D01*
X0106701Y0035655D01*
X0106680Y0035794D01*
X0106662Y0035934D01*
X0106648Y0036074D01*
X0106638Y0036214D01*
X0106632Y0036355D01*
X0106630Y0036496D01*
M02*
