G75*
%MOIN*%
%OFA0B0*%
%FSLAX25Y25*%
%IPPOS*%
%LPD*%
%AMOC8*
5,1,8,0,0,1.08239X$1,22.5*
%
%ADD10C,0.00000*%
%ADD11C,0.55118*%
%ADD12C,0.00400*%
%ADD13R,0.00038X0.00722*%
%ADD14R,0.00038X0.00798*%
%ADD15R,0.00038X0.01520*%
%ADD16R,0.00038X0.01444*%
%ADD17R,0.00038X0.01938*%
%ADD18R,0.00038X0.01900*%
%ADD19R,0.00038X0.02242*%
%ADD20R,0.00038X0.02204*%
%ADD21R,0.00038X0.02356*%
%ADD22R,0.00038X0.02204*%
%ADD23R,0.00038X0.02508*%
%ADD24R,0.00038X0.02470*%
%ADD25R,0.00038X0.02432*%
%ADD26R,0.00038X0.02736*%
%ADD27R,0.00038X0.02660*%
%ADD28R,0.00038X0.02926*%
%ADD29R,0.00038X0.02850*%
%ADD30R,0.00038X0.02356*%
%ADD31R,0.00038X0.03078*%
%ADD32R,0.00038X0.03002*%
%ADD33R,0.00038X0.03192*%
%ADD34R,0.00038X0.03344*%
%ADD35R,0.00038X0.02242*%
%ADD36R,0.00038X0.03306*%
%ADD37R,0.00038X0.03458*%
%ADD38R,0.00038X0.03572*%
%ADD39R,0.00038X0.03686*%
%ADD40R,0.00038X0.03800*%
%ADD41R,0.00038X0.03762*%
%ADD42R,0.00038X0.02394*%
%ADD43R,0.00038X0.03876*%
%ADD44R,0.00038X0.03876*%
%ADD45R,0.00038X0.03952*%
%ADD46R,0.00038X0.04028*%
%ADD47R,0.00038X0.04104*%
%ADD48R,0.00038X0.04142*%
%ADD49R,0.00038X0.04218*%
%ADD50R,0.00038X0.04256*%
%ADD51R,0.00038X0.04332*%
%ADD52R,0.00038X0.04370*%
%ADD53R,0.00038X0.04446*%
%ADD54R,0.00038X0.04484*%
%ADD55R,0.00038X0.02318*%
%ADD56R,0.00038X0.04560*%
%ADD57R,0.00038X0.04598*%
%ADD58R,0.00038X0.04636*%
%ADD59R,0.00038X0.04674*%
%ADD60R,0.00038X0.04712*%
%ADD61R,0.00038X0.04750*%
%ADD62R,0.00038X0.04788*%
%ADD63R,0.00038X0.04826*%
%ADD64R,0.00038X0.04864*%
%ADD65R,0.00038X0.04902*%
%ADD66R,0.00038X0.04940*%
%ADD67R,0.00038X0.04978*%
%ADD68R,0.00038X0.05054*%
%ADD69R,0.00038X0.05016*%
%ADD70R,0.00038X0.02318*%
%ADD71R,0.00038X0.05092*%
%ADD72R,0.00038X0.02166*%
%ADD73R,0.00038X0.05130*%
%ADD74R,0.00038X0.02128*%
%ADD75R,0.00038X0.05168*%
%ADD76R,0.00038X0.02090*%
%ADD77R,0.00038X0.02470*%
%ADD78R,0.00038X0.02052*%
%ADD79R,0.00038X0.02280*%
%ADD80R,0.00038X0.02014*%
%ADD81R,0.00038X0.02128*%
%ADD82R,0.00038X0.02090*%
%ADD83R,0.00038X0.02546*%
%ADD84R,0.00038X0.02014*%
%ADD85R,0.00038X0.04712*%
%ADD86R,0.00038X0.05586*%
%ADD87R,0.00038X0.04522*%
%ADD88R,0.00038X0.04408*%
%ADD89R,0.00038X0.03990*%
%ADD90R,0.00038X0.04180*%
%ADD91R,0.00038X0.04826*%
%ADD92R,0.00038X0.05548*%
%ADD93R,0.00038X0.04940*%
%ADD94R,0.00038X0.04142*%
%ADD95R,0.00038X0.05548*%
%ADD96R,0.00038X0.05244*%
%ADD97R,0.00038X0.04066*%
%ADD98R,0.00038X0.05282*%
%ADD99R,0.00038X0.05320*%
%ADD100R,0.00038X0.05358*%
%ADD101R,0.00038X0.05434*%
%ADD102R,0.00038X0.05510*%
%ADD103R,0.00038X0.05472*%
%ADD104R,0.00038X0.04294*%
%ADD105R,0.00038X0.05624*%
%ADD106R,0.00038X0.05662*%
%ADD107R,0.00038X0.04370*%
%ADD108R,0.00038X0.05168*%
%ADD109R,0.00038X0.05700*%
%ADD110R,0.00038X0.05738*%
%ADD111R,0.00038X0.02622*%
%ADD112R,0.00038X0.05776*%
%ADD113R,0.00038X0.05814*%
%ADD114R,0.00038X0.05814*%
%ADD115R,0.00038X0.05852*%
%ADD116R,0.00038X0.03154*%
%ADD117R,0.00038X0.01976*%
%ADD118R,0.00038X0.05890*%
%ADD119R,0.00038X0.00152*%
%ADD120R,0.00038X0.05928*%
%ADD121R,0.00038X0.05966*%
%ADD122R,0.00038X0.06004*%
%ADD123R,0.00038X0.06004*%
%ADD124R,0.00038X0.06042*%
%ADD125R,0.00038X0.02774*%
%ADD126R,0.00038X0.02584*%
%ADD127R,0.00038X0.05092*%
%ADD128R,0.00038X0.04864*%
%ADD129R,0.00038X0.05054*%
%ADD130R,0.00038X0.04978*%
%ADD131R,0.00038X0.01862*%
%ADD132R,0.00038X0.01824*%
%ADD133R,0.00038X0.01786*%
%ADD134R,0.00038X0.01748*%
%ADD135R,0.00038X0.01710*%
%ADD136R,0.00038X0.01672*%
%ADD137R,0.00038X0.01634*%
%ADD138R,0.00038X0.00836*%
%ADD139R,0.00038X0.00608*%
%ADD140R,0.00038X0.01596*%
%ADD141R,0.00038X0.00646*%
%ADD142R,0.00038X0.04256*%
%ADD143R,0.00038X0.00760*%
%ADD144R,0.00038X0.03838*%
%ADD145R,0.00038X0.00684*%
%ADD146R,0.00038X0.01482*%
%ADD147R,0.00038X0.03724*%
%ADD148R,0.00038X0.04104*%
%ADD149R,0.00038X0.03648*%
%ADD150R,0.00038X0.00798*%
%ADD151R,0.00038X0.03534*%
%ADD152R,0.00038X0.00684*%
%ADD153R,0.00038X0.01368*%
%ADD154R,0.00038X0.03382*%
%ADD155R,0.00038X0.01330*%
%ADD156R,0.00038X0.03762*%
%ADD157R,0.00038X0.01292*%
%ADD158R,0.00038X0.01254*%
%ADD159R,0.00038X0.01178*%
%ADD160R,0.00038X0.03420*%
%ADD161R,0.00038X0.01140*%
%ADD162R,0.00038X0.03306*%
%ADD163R,0.00038X0.01064*%
%ADD164R,0.00038X0.00988*%
%ADD165R,0.00038X0.00874*%
%ADD166R,0.00038X0.02812*%
%ADD167R,0.00038X0.02584*%
%ADD168R,0.00038X0.00532*%
%ADD169R,0.00038X0.01520*%
%ADD170R,0.00038X0.00912*%
%ADD171R,0.00038X0.00950*%
%ADD172R,0.00038X0.00912*%
%ADD173R,0.00038X0.01026*%
%ADD174R,0.00038X0.05320*%
%ADD175R,0.00038X0.01102*%
%ADD176R,0.00038X0.05890*%
%ADD177R,0.00038X0.00570*%
%ADD178R,0.00038X0.05662*%
%ADD179R,0.00038X0.05396*%
%ADD180R,0.00038X0.00570*%
%ADD181R,0.00038X0.05206*%
%ADD182R,0.00038X0.01292*%
%ADD183R,0.00038X0.01216*%
%ADD184R,0.00038X0.03914*%
%ADD185R,0.00038X0.01140*%
%ADD186R,0.00250X0.00050*%
%ADD187R,0.00850X0.00050*%
%ADD188R,0.00550X0.00050*%
%ADD189R,0.00350X0.00050*%
%ADD190R,0.00450X0.00050*%
%ADD191R,0.00200X0.00050*%
%ADD192R,0.00700X0.00050*%
%ADD193R,0.00600X0.00050*%
%ADD194R,0.00800X0.00050*%
%ADD195R,0.00400X0.00050*%
%ADD196R,0.00900X0.00050*%
%ADD197R,0.00300X0.00050*%
%ADD198R,0.00500X0.00050*%
%ADD199R,0.01000X0.00050*%
%ADD200R,0.00950X0.00050*%
%ADD201R,0.00750X0.00050*%
%ADD202R,0.00150X0.00050*%
%ADD203R,0.00100X0.00050*%
%ADD204R,0.00650X0.00050*%
%ADD205R,0.01050X0.00050*%
%ADD206R,0.02050X0.00050*%
%ADD207R,0.01300X0.00050*%
%ADD208R,0.01350X0.00050*%
%ADD209R,0.01550X0.00050*%
%ADD210R,0.01750X0.00050*%
%ADD211R,0.01900X0.00050*%
%ADD212R,0.02000X0.00050*%
%ADD213R,0.01100X0.00050*%
%ADD214R,0.01150X0.00050*%
%ADD215R,0.01200X0.00050*%
%ADD216R,0.01700X0.00050*%
%ADD217R,0.01250X0.00050*%
%ADD218R,0.01650X0.00050*%
%ADD219R,0.02400X0.00050*%
%ADD220R,0.01400X0.00050*%
%ADD221R,0.01500X0.00050*%
%ADD222R,0.01800X0.00050*%
%ADD223R,0.01450X0.00050*%
%ADD224R,0.01850X0.00050*%
%ADD225R,0.01950X0.00050*%
%ADD226R,0.02100X0.00050*%
%ADD227R,0.01600X0.00050*%
%ADD228R,0.02150X0.00050*%
%ADD229R,0.02200X0.00050*%
%ADD230R,0.04550X0.00050*%
%ADD231R,0.22600X0.00050*%
%ADD232R,0.04600X0.00050*%
%ADD233R,0.04500X0.00050*%
%ADD234R,0.13600X0.00050*%
%ADD235R,0.13550X0.00050*%
D10*
X0013205Y0005000D02*
X0111630Y0005000D01*
X0111868Y0005003D01*
X0112106Y0005011D01*
X0112343Y0005026D01*
X0112580Y0005046D01*
X0112816Y0005072D01*
X0113052Y0005103D01*
X0113287Y0005140D01*
X0113521Y0005183D01*
X0113754Y0005232D01*
X0113986Y0005286D01*
X0114216Y0005346D01*
X0114445Y0005411D01*
X0114672Y0005482D01*
X0114897Y0005558D01*
X0115120Y0005640D01*
X0115342Y0005727D01*
X0115561Y0005819D01*
X0115778Y0005917D01*
X0115992Y0006019D01*
X0116204Y0006127D01*
X0116414Y0006241D01*
X0116620Y0006359D01*
X0116824Y0006482D01*
X0117024Y0006610D01*
X0117221Y0006742D01*
X0117416Y0006880D01*
X0117606Y0007022D01*
X0117794Y0007169D01*
X0117977Y0007320D01*
X0118157Y0007475D01*
X0118333Y0007635D01*
X0118505Y0007799D01*
X0118674Y0007968D01*
X0118838Y0008140D01*
X0118998Y0008316D01*
X0119153Y0008496D01*
X0119304Y0008679D01*
X0119451Y0008867D01*
X0119593Y0009057D01*
X0119731Y0009252D01*
X0119863Y0009449D01*
X0119991Y0009649D01*
X0120114Y0009853D01*
X0120232Y0010059D01*
X0120346Y0010269D01*
X0120454Y0010481D01*
X0120556Y0010695D01*
X0120654Y0010912D01*
X0120746Y0011131D01*
X0120833Y0011353D01*
X0120915Y0011576D01*
X0120991Y0011801D01*
X0121062Y0012028D01*
X0121127Y0012257D01*
X0121187Y0012487D01*
X0121241Y0012719D01*
X0121290Y0012952D01*
X0121333Y0013186D01*
X0121370Y0013421D01*
X0121401Y0013657D01*
X0121427Y0013893D01*
X0121447Y0014130D01*
X0121462Y0014367D01*
X0121470Y0014605D01*
X0121473Y0014843D01*
X0121472Y0014843D02*
X0121472Y0113268D01*
X0117535Y0113268D01*
X0117533Y0113076D01*
X0117526Y0112885D01*
X0117514Y0112693D01*
X0117498Y0112502D01*
X0117477Y0112312D01*
X0117451Y0112122D01*
X0117421Y0111932D01*
X0117386Y0111744D01*
X0117347Y0111556D01*
X0117303Y0111369D01*
X0117254Y0111184D01*
X0117201Y0111000D01*
X0117144Y0110817D01*
X0117082Y0110635D01*
X0117015Y0110455D01*
X0116945Y0110277D01*
X0116870Y0110100D01*
X0116790Y0109926D01*
X0116707Y0109753D01*
X0116619Y0109583D01*
X0116528Y0109414D01*
X0116432Y0109248D01*
X0116332Y0109085D01*
X0116228Y0108923D01*
X0116120Y0108765D01*
X0116009Y0108609D01*
X0115893Y0108456D01*
X0115774Y0108305D01*
X0115652Y0108158D01*
X0115525Y0108014D01*
X0115396Y0107872D01*
X0115263Y0107734D01*
X0115126Y0107599D01*
X0114986Y0107468D01*
X0114844Y0107340D01*
X0114698Y0107216D01*
X0114549Y0107095D01*
X0114397Y0106978D01*
X0114243Y0106864D01*
X0114085Y0106754D01*
X0113925Y0106649D01*
X0113763Y0106547D01*
X0113598Y0106449D01*
X0113431Y0106355D01*
X0113261Y0106265D01*
X0113090Y0106180D01*
X0112916Y0106098D01*
X0112741Y0106021D01*
X0112563Y0105948D01*
X0112384Y0105880D01*
X0112203Y0105816D01*
X0112021Y0105756D01*
X0111838Y0105701D01*
X0111653Y0105650D01*
X0111467Y0105604D01*
X0111279Y0105562D01*
X0111091Y0105525D01*
X0110902Y0105492D01*
X0110713Y0105465D01*
X0110522Y0105441D01*
X0110331Y0105423D01*
X0110140Y0105409D01*
X0109949Y0105399D01*
X0109757Y0105395D01*
X0109565Y0105395D01*
X0109373Y0105399D01*
X0109182Y0105409D01*
X0108991Y0105423D01*
X0108800Y0105441D01*
X0108609Y0105465D01*
X0108420Y0105492D01*
X0108231Y0105525D01*
X0108043Y0105562D01*
X0107855Y0105604D01*
X0107669Y0105650D01*
X0107484Y0105701D01*
X0107301Y0105756D01*
X0107119Y0105816D01*
X0106938Y0105880D01*
X0106759Y0105948D01*
X0106581Y0106021D01*
X0106406Y0106098D01*
X0106232Y0106180D01*
X0106061Y0106265D01*
X0105891Y0106355D01*
X0105724Y0106449D01*
X0105559Y0106547D01*
X0105397Y0106649D01*
X0105237Y0106754D01*
X0105079Y0106864D01*
X0104925Y0106978D01*
X0104773Y0107095D01*
X0104624Y0107216D01*
X0104478Y0107340D01*
X0104336Y0107468D01*
X0104196Y0107599D01*
X0104059Y0107734D01*
X0103926Y0107872D01*
X0103797Y0108014D01*
X0103670Y0108158D01*
X0103548Y0108305D01*
X0103429Y0108456D01*
X0103313Y0108609D01*
X0103202Y0108765D01*
X0103094Y0108923D01*
X0102990Y0109085D01*
X0102890Y0109248D01*
X0102794Y0109414D01*
X0102703Y0109583D01*
X0102615Y0109753D01*
X0102532Y0109926D01*
X0102452Y0110100D01*
X0102377Y0110277D01*
X0102307Y0110455D01*
X0102240Y0110635D01*
X0102178Y0110817D01*
X0102121Y0111000D01*
X0102068Y0111184D01*
X0102019Y0111369D01*
X0101975Y0111556D01*
X0101936Y0111744D01*
X0101901Y0111932D01*
X0101871Y0112122D01*
X0101845Y0112312D01*
X0101824Y0112502D01*
X0101808Y0112693D01*
X0101796Y0112885D01*
X0101789Y0113076D01*
X0101787Y0113268D01*
X0032890Y0113268D01*
X0003362Y0095551D01*
X0003362Y0014843D01*
X0003365Y0014605D01*
X0003373Y0014367D01*
X0003388Y0014130D01*
X0003408Y0013893D01*
X0003434Y0013657D01*
X0003465Y0013421D01*
X0003502Y0013186D01*
X0003545Y0012952D01*
X0003594Y0012719D01*
X0003648Y0012487D01*
X0003708Y0012257D01*
X0003773Y0012028D01*
X0003844Y0011801D01*
X0003920Y0011576D01*
X0004002Y0011353D01*
X0004089Y0011131D01*
X0004181Y0010912D01*
X0004279Y0010695D01*
X0004381Y0010481D01*
X0004489Y0010269D01*
X0004603Y0010059D01*
X0004721Y0009853D01*
X0004844Y0009649D01*
X0004972Y0009449D01*
X0005104Y0009252D01*
X0005242Y0009057D01*
X0005384Y0008867D01*
X0005531Y0008679D01*
X0005682Y0008496D01*
X0005837Y0008316D01*
X0005997Y0008140D01*
X0006161Y0007968D01*
X0006330Y0007799D01*
X0006502Y0007635D01*
X0006678Y0007475D01*
X0006858Y0007320D01*
X0007041Y0007169D01*
X0007229Y0007022D01*
X0007419Y0006880D01*
X0007614Y0006742D01*
X0007811Y0006610D01*
X0008011Y0006482D01*
X0008215Y0006359D01*
X0008421Y0006241D01*
X0008631Y0006127D01*
X0008843Y0006019D01*
X0009057Y0005917D01*
X0009274Y0005819D01*
X0009493Y0005727D01*
X0009715Y0005640D01*
X0009938Y0005558D01*
X0010163Y0005482D01*
X0010390Y0005411D01*
X0010619Y0005346D01*
X0010849Y0005286D01*
X0011081Y0005232D01*
X0011314Y0005183D01*
X0011548Y0005140D01*
X0011783Y0005103D01*
X0012019Y0005072D01*
X0012255Y0005046D01*
X0012492Y0005026D01*
X0012729Y0005011D01*
X0012967Y0005003D01*
X0013205Y0005000D01*
X0008283Y0014843D02*
X0008285Y0015012D01*
X0008291Y0015181D01*
X0008302Y0015350D01*
X0008316Y0015518D01*
X0008335Y0015686D01*
X0008358Y0015854D01*
X0008384Y0016021D01*
X0008415Y0016187D01*
X0008450Y0016353D01*
X0008489Y0016517D01*
X0008533Y0016681D01*
X0008580Y0016843D01*
X0008631Y0017004D01*
X0008686Y0017164D01*
X0008745Y0017323D01*
X0008807Y0017480D01*
X0008874Y0017635D01*
X0008945Y0017789D01*
X0009019Y0017941D01*
X0009097Y0018091D01*
X0009178Y0018239D01*
X0009263Y0018385D01*
X0009352Y0018529D01*
X0009444Y0018671D01*
X0009540Y0018810D01*
X0009639Y0018947D01*
X0009741Y0019082D01*
X0009847Y0019214D01*
X0009956Y0019343D01*
X0010068Y0019470D01*
X0010183Y0019594D01*
X0010301Y0019715D01*
X0010422Y0019833D01*
X0010546Y0019948D01*
X0010673Y0020060D01*
X0010802Y0020169D01*
X0010934Y0020275D01*
X0011069Y0020377D01*
X0011206Y0020476D01*
X0011345Y0020572D01*
X0011487Y0020664D01*
X0011631Y0020753D01*
X0011777Y0020838D01*
X0011925Y0020919D01*
X0012075Y0020997D01*
X0012227Y0021071D01*
X0012381Y0021142D01*
X0012536Y0021209D01*
X0012693Y0021271D01*
X0012852Y0021330D01*
X0013012Y0021385D01*
X0013173Y0021436D01*
X0013335Y0021483D01*
X0013499Y0021527D01*
X0013663Y0021566D01*
X0013829Y0021601D01*
X0013995Y0021632D01*
X0014162Y0021658D01*
X0014330Y0021681D01*
X0014498Y0021700D01*
X0014666Y0021714D01*
X0014835Y0021725D01*
X0015004Y0021731D01*
X0015173Y0021733D01*
X0015342Y0021731D01*
X0015511Y0021725D01*
X0015680Y0021714D01*
X0015848Y0021700D01*
X0016016Y0021681D01*
X0016184Y0021658D01*
X0016351Y0021632D01*
X0016517Y0021601D01*
X0016683Y0021566D01*
X0016847Y0021527D01*
X0017011Y0021483D01*
X0017173Y0021436D01*
X0017334Y0021385D01*
X0017494Y0021330D01*
X0017653Y0021271D01*
X0017810Y0021209D01*
X0017965Y0021142D01*
X0018119Y0021071D01*
X0018271Y0020997D01*
X0018421Y0020919D01*
X0018569Y0020838D01*
X0018715Y0020753D01*
X0018859Y0020664D01*
X0019001Y0020572D01*
X0019140Y0020476D01*
X0019277Y0020377D01*
X0019412Y0020275D01*
X0019544Y0020169D01*
X0019673Y0020060D01*
X0019800Y0019948D01*
X0019924Y0019833D01*
X0020045Y0019715D01*
X0020163Y0019594D01*
X0020278Y0019470D01*
X0020390Y0019343D01*
X0020499Y0019214D01*
X0020605Y0019082D01*
X0020707Y0018947D01*
X0020806Y0018810D01*
X0020902Y0018671D01*
X0020994Y0018529D01*
X0021083Y0018385D01*
X0021168Y0018239D01*
X0021249Y0018091D01*
X0021327Y0017941D01*
X0021401Y0017789D01*
X0021472Y0017635D01*
X0021539Y0017480D01*
X0021601Y0017323D01*
X0021660Y0017164D01*
X0021715Y0017004D01*
X0021766Y0016843D01*
X0021813Y0016681D01*
X0021857Y0016517D01*
X0021896Y0016353D01*
X0021931Y0016187D01*
X0021962Y0016021D01*
X0021988Y0015854D01*
X0022011Y0015686D01*
X0022030Y0015518D01*
X0022044Y0015350D01*
X0022055Y0015181D01*
X0022061Y0015012D01*
X0022063Y0014843D01*
X0022061Y0014674D01*
X0022055Y0014505D01*
X0022044Y0014336D01*
X0022030Y0014168D01*
X0022011Y0014000D01*
X0021988Y0013832D01*
X0021962Y0013665D01*
X0021931Y0013499D01*
X0021896Y0013333D01*
X0021857Y0013169D01*
X0021813Y0013005D01*
X0021766Y0012843D01*
X0021715Y0012682D01*
X0021660Y0012522D01*
X0021601Y0012363D01*
X0021539Y0012206D01*
X0021472Y0012051D01*
X0021401Y0011897D01*
X0021327Y0011745D01*
X0021249Y0011595D01*
X0021168Y0011447D01*
X0021083Y0011301D01*
X0020994Y0011157D01*
X0020902Y0011015D01*
X0020806Y0010876D01*
X0020707Y0010739D01*
X0020605Y0010604D01*
X0020499Y0010472D01*
X0020390Y0010343D01*
X0020278Y0010216D01*
X0020163Y0010092D01*
X0020045Y0009971D01*
X0019924Y0009853D01*
X0019800Y0009738D01*
X0019673Y0009626D01*
X0019544Y0009517D01*
X0019412Y0009411D01*
X0019277Y0009309D01*
X0019140Y0009210D01*
X0019001Y0009114D01*
X0018859Y0009022D01*
X0018715Y0008933D01*
X0018569Y0008848D01*
X0018421Y0008767D01*
X0018271Y0008689D01*
X0018119Y0008615D01*
X0017965Y0008544D01*
X0017810Y0008477D01*
X0017653Y0008415D01*
X0017494Y0008356D01*
X0017334Y0008301D01*
X0017173Y0008250D01*
X0017011Y0008203D01*
X0016847Y0008159D01*
X0016683Y0008120D01*
X0016517Y0008085D01*
X0016351Y0008054D01*
X0016184Y0008028D01*
X0016016Y0008005D01*
X0015848Y0007986D01*
X0015680Y0007972D01*
X0015511Y0007961D01*
X0015342Y0007955D01*
X0015173Y0007953D01*
X0015004Y0007955D01*
X0014835Y0007961D01*
X0014666Y0007972D01*
X0014498Y0007986D01*
X0014330Y0008005D01*
X0014162Y0008028D01*
X0013995Y0008054D01*
X0013829Y0008085D01*
X0013663Y0008120D01*
X0013499Y0008159D01*
X0013335Y0008203D01*
X0013173Y0008250D01*
X0013012Y0008301D01*
X0012852Y0008356D01*
X0012693Y0008415D01*
X0012536Y0008477D01*
X0012381Y0008544D01*
X0012227Y0008615D01*
X0012075Y0008689D01*
X0011925Y0008767D01*
X0011777Y0008848D01*
X0011631Y0008933D01*
X0011487Y0009022D01*
X0011345Y0009114D01*
X0011206Y0009210D01*
X0011069Y0009309D01*
X0010934Y0009411D01*
X0010802Y0009517D01*
X0010673Y0009626D01*
X0010546Y0009738D01*
X0010422Y0009853D01*
X0010301Y0009971D01*
X0010183Y0010092D01*
X0010068Y0010216D01*
X0009956Y0010343D01*
X0009847Y0010472D01*
X0009741Y0010604D01*
X0009639Y0010739D01*
X0009540Y0010876D01*
X0009444Y0011015D01*
X0009352Y0011157D01*
X0009263Y0011301D01*
X0009178Y0011447D01*
X0009097Y0011595D01*
X0009019Y0011745D01*
X0008945Y0011897D01*
X0008874Y0012051D01*
X0008807Y0012206D01*
X0008745Y0012363D01*
X0008686Y0012522D01*
X0008631Y0012682D01*
X0008580Y0012843D01*
X0008533Y0013005D01*
X0008489Y0013169D01*
X0008450Y0013333D01*
X0008415Y0013499D01*
X0008384Y0013665D01*
X0008358Y0013832D01*
X0008335Y0014000D01*
X0008316Y0014168D01*
X0008302Y0014336D01*
X0008291Y0014505D01*
X0008285Y0014674D01*
X0008283Y0014843D01*
X0102771Y0014843D02*
X0102773Y0015012D01*
X0102779Y0015181D01*
X0102790Y0015350D01*
X0102804Y0015518D01*
X0102823Y0015686D01*
X0102846Y0015854D01*
X0102872Y0016021D01*
X0102903Y0016187D01*
X0102938Y0016353D01*
X0102977Y0016517D01*
X0103021Y0016681D01*
X0103068Y0016843D01*
X0103119Y0017004D01*
X0103174Y0017164D01*
X0103233Y0017323D01*
X0103295Y0017480D01*
X0103362Y0017635D01*
X0103433Y0017789D01*
X0103507Y0017941D01*
X0103585Y0018091D01*
X0103666Y0018239D01*
X0103751Y0018385D01*
X0103840Y0018529D01*
X0103932Y0018671D01*
X0104028Y0018810D01*
X0104127Y0018947D01*
X0104229Y0019082D01*
X0104335Y0019214D01*
X0104444Y0019343D01*
X0104556Y0019470D01*
X0104671Y0019594D01*
X0104789Y0019715D01*
X0104910Y0019833D01*
X0105034Y0019948D01*
X0105161Y0020060D01*
X0105290Y0020169D01*
X0105422Y0020275D01*
X0105557Y0020377D01*
X0105694Y0020476D01*
X0105833Y0020572D01*
X0105975Y0020664D01*
X0106119Y0020753D01*
X0106265Y0020838D01*
X0106413Y0020919D01*
X0106563Y0020997D01*
X0106715Y0021071D01*
X0106869Y0021142D01*
X0107024Y0021209D01*
X0107181Y0021271D01*
X0107340Y0021330D01*
X0107500Y0021385D01*
X0107661Y0021436D01*
X0107823Y0021483D01*
X0107987Y0021527D01*
X0108151Y0021566D01*
X0108317Y0021601D01*
X0108483Y0021632D01*
X0108650Y0021658D01*
X0108818Y0021681D01*
X0108986Y0021700D01*
X0109154Y0021714D01*
X0109323Y0021725D01*
X0109492Y0021731D01*
X0109661Y0021733D01*
X0109830Y0021731D01*
X0109999Y0021725D01*
X0110168Y0021714D01*
X0110336Y0021700D01*
X0110504Y0021681D01*
X0110672Y0021658D01*
X0110839Y0021632D01*
X0111005Y0021601D01*
X0111171Y0021566D01*
X0111335Y0021527D01*
X0111499Y0021483D01*
X0111661Y0021436D01*
X0111822Y0021385D01*
X0111982Y0021330D01*
X0112141Y0021271D01*
X0112298Y0021209D01*
X0112453Y0021142D01*
X0112607Y0021071D01*
X0112759Y0020997D01*
X0112909Y0020919D01*
X0113057Y0020838D01*
X0113203Y0020753D01*
X0113347Y0020664D01*
X0113489Y0020572D01*
X0113628Y0020476D01*
X0113765Y0020377D01*
X0113900Y0020275D01*
X0114032Y0020169D01*
X0114161Y0020060D01*
X0114288Y0019948D01*
X0114412Y0019833D01*
X0114533Y0019715D01*
X0114651Y0019594D01*
X0114766Y0019470D01*
X0114878Y0019343D01*
X0114987Y0019214D01*
X0115093Y0019082D01*
X0115195Y0018947D01*
X0115294Y0018810D01*
X0115390Y0018671D01*
X0115482Y0018529D01*
X0115571Y0018385D01*
X0115656Y0018239D01*
X0115737Y0018091D01*
X0115815Y0017941D01*
X0115889Y0017789D01*
X0115960Y0017635D01*
X0116027Y0017480D01*
X0116089Y0017323D01*
X0116148Y0017164D01*
X0116203Y0017004D01*
X0116254Y0016843D01*
X0116301Y0016681D01*
X0116345Y0016517D01*
X0116384Y0016353D01*
X0116419Y0016187D01*
X0116450Y0016021D01*
X0116476Y0015854D01*
X0116499Y0015686D01*
X0116518Y0015518D01*
X0116532Y0015350D01*
X0116543Y0015181D01*
X0116549Y0015012D01*
X0116551Y0014843D01*
X0116549Y0014674D01*
X0116543Y0014505D01*
X0116532Y0014336D01*
X0116518Y0014168D01*
X0116499Y0014000D01*
X0116476Y0013832D01*
X0116450Y0013665D01*
X0116419Y0013499D01*
X0116384Y0013333D01*
X0116345Y0013169D01*
X0116301Y0013005D01*
X0116254Y0012843D01*
X0116203Y0012682D01*
X0116148Y0012522D01*
X0116089Y0012363D01*
X0116027Y0012206D01*
X0115960Y0012051D01*
X0115889Y0011897D01*
X0115815Y0011745D01*
X0115737Y0011595D01*
X0115656Y0011447D01*
X0115571Y0011301D01*
X0115482Y0011157D01*
X0115390Y0011015D01*
X0115294Y0010876D01*
X0115195Y0010739D01*
X0115093Y0010604D01*
X0114987Y0010472D01*
X0114878Y0010343D01*
X0114766Y0010216D01*
X0114651Y0010092D01*
X0114533Y0009971D01*
X0114412Y0009853D01*
X0114288Y0009738D01*
X0114161Y0009626D01*
X0114032Y0009517D01*
X0113900Y0009411D01*
X0113765Y0009309D01*
X0113628Y0009210D01*
X0113489Y0009114D01*
X0113347Y0009022D01*
X0113203Y0008933D01*
X0113057Y0008848D01*
X0112909Y0008767D01*
X0112759Y0008689D01*
X0112607Y0008615D01*
X0112453Y0008544D01*
X0112298Y0008477D01*
X0112141Y0008415D01*
X0111982Y0008356D01*
X0111822Y0008301D01*
X0111661Y0008250D01*
X0111499Y0008203D01*
X0111335Y0008159D01*
X0111171Y0008120D01*
X0111005Y0008085D01*
X0110839Y0008054D01*
X0110672Y0008028D01*
X0110504Y0008005D01*
X0110336Y0007986D01*
X0110168Y0007972D01*
X0109999Y0007961D01*
X0109830Y0007955D01*
X0109661Y0007953D01*
X0109492Y0007955D01*
X0109323Y0007961D01*
X0109154Y0007972D01*
X0108986Y0007986D01*
X0108818Y0008005D01*
X0108650Y0008028D01*
X0108483Y0008054D01*
X0108317Y0008085D01*
X0108151Y0008120D01*
X0107987Y0008159D01*
X0107823Y0008203D01*
X0107661Y0008250D01*
X0107500Y0008301D01*
X0107340Y0008356D01*
X0107181Y0008415D01*
X0107024Y0008477D01*
X0106869Y0008544D01*
X0106715Y0008615D01*
X0106563Y0008689D01*
X0106413Y0008767D01*
X0106265Y0008848D01*
X0106119Y0008933D01*
X0105975Y0009022D01*
X0105833Y0009114D01*
X0105694Y0009210D01*
X0105557Y0009309D01*
X0105422Y0009411D01*
X0105290Y0009517D01*
X0105161Y0009626D01*
X0105034Y0009738D01*
X0104910Y0009853D01*
X0104789Y0009971D01*
X0104671Y0010092D01*
X0104556Y0010216D01*
X0104444Y0010343D01*
X0104335Y0010472D01*
X0104229Y0010604D01*
X0104127Y0010739D01*
X0104028Y0010876D01*
X0103932Y0011015D01*
X0103840Y0011157D01*
X0103751Y0011301D01*
X0103666Y0011447D01*
X0103585Y0011595D01*
X0103507Y0011745D01*
X0103433Y0011897D01*
X0103362Y0012051D01*
X0103295Y0012206D01*
X0103233Y0012363D01*
X0103174Y0012522D01*
X0103119Y0012682D01*
X0103068Y0012843D01*
X0103021Y0013005D01*
X0102977Y0013169D01*
X0102938Y0013333D01*
X0102903Y0013499D01*
X0102872Y0013665D01*
X0102846Y0013832D01*
X0102823Y0014000D01*
X0102804Y0014168D01*
X0102790Y0014336D01*
X0102779Y0014505D01*
X0102773Y0014674D01*
X0102771Y0014843D01*
D11*
X0062417Y0064055D03*
D12*
X0062154Y0105594D02*
X0060974Y0105594D01*
X0062154Y0105594D02*
X0062744Y0106184D01*
X0062744Y0107364D01*
X0062154Y0107954D01*
X0060974Y0107954D01*
X0060384Y0107364D01*
X0060384Y0106774D01*
X0062744Y0106774D01*
X0064009Y0107364D02*
X0064009Y0108544D01*
X0064599Y0109134D01*
X0066369Y0109134D01*
X0066369Y0105594D01*
X0066369Y0106774D02*
X0064599Y0106774D01*
X0064009Y0107364D01*
X0065189Y0106774D02*
X0064009Y0105594D01*
X0059119Y0107954D02*
X0057939Y0105594D01*
X0056759Y0107954D01*
X0055494Y0107364D02*
X0053134Y0107364D01*
X0051868Y0107364D02*
X0049508Y0107364D01*
X0071259Y0107954D02*
X0071849Y0107364D01*
X0071259Y0106774D01*
X0071259Y0106184D01*
X0071849Y0105594D01*
X0073029Y0105594D01*
X0073619Y0106184D01*
X0074884Y0106184D02*
X0075474Y0105594D01*
X0076654Y0105594D01*
X0077244Y0106184D01*
X0074884Y0108544D01*
X0074884Y0106184D01*
X0077244Y0106184D02*
X0077244Y0108544D01*
X0076654Y0109134D01*
X0075474Y0109134D01*
X0074884Y0108544D01*
X0073619Y0108544D02*
X0073029Y0109134D01*
X0071849Y0109134D01*
X0071259Y0108544D01*
X0071259Y0107954D01*
X0071849Y0107364D02*
X0072439Y0107364D01*
X0078509Y0106184D02*
X0078509Y0108544D01*
X0079099Y0109134D01*
X0080869Y0109134D01*
X0080869Y0105594D01*
X0079099Y0105594D01*
X0078509Y0106184D01*
X0082135Y0105594D02*
X0084495Y0105594D01*
X0084495Y0109134D01*
X0082135Y0109134D01*
X0083315Y0107364D02*
X0084495Y0107364D01*
X0085760Y0105594D02*
X0088120Y0105594D01*
X0088120Y0109134D01*
X0089385Y0109134D02*
X0091745Y0109134D01*
X0091745Y0105594D01*
X0089385Y0105594D01*
X0090565Y0107364D02*
X0091745Y0107364D01*
D13*
X0015963Y0083320D03*
X0015925Y0083320D03*
X0015887Y0083320D03*
X0015811Y0083282D03*
X0015773Y0083282D03*
X0015735Y0083282D03*
X0015659Y0083244D03*
X0015621Y0083244D03*
X0015583Y0083244D03*
X0015507Y0083206D03*
X0015469Y0083206D03*
X0015431Y0083206D03*
X0015355Y0083168D03*
X0015317Y0083168D03*
X0015279Y0083168D03*
X0015203Y0083130D03*
X0015165Y0083130D03*
X0015127Y0083130D03*
X0015089Y0083130D03*
X0015051Y0083092D03*
X0015013Y0083092D03*
X0014975Y0083092D03*
X0014937Y0083092D03*
X0014899Y0083054D03*
X0014861Y0083054D03*
X0014823Y0083054D03*
X0014785Y0083054D03*
X0014747Y0083016D03*
X0014709Y0083016D03*
X0014671Y0083016D03*
X0014633Y0083016D03*
X0014595Y0082978D03*
X0014557Y0082978D03*
X0014519Y0082978D03*
X0014481Y0082978D03*
X0014443Y0082940D03*
X0014405Y0082940D03*
X0014367Y0082940D03*
X0014329Y0082940D03*
X0014291Y0082902D03*
X0014253Y0082902D03*
X0014215Y0082902D03*
X0014177Y0082902D03*
X0014101Y0082864D03*
X0014063Y0082864D03*
X0014025Y0082864D03*
X0013949Y0082826D03*
X0013911Y0082826D03*
X0013873Y0082826D03*
X0013797Y0082788D03*
X0013759Y0082788D03*
X0013721Y0082788D03*
X0014025Y0081686D03*
X0014063Y0081686D03*
X0014291Y0080584D03*
X0014329Y0080584D03*
X0014367Y0080584D03*
X0014443Y0080622D03*
X0014481Y0080622D03*
X0014519Y0080622D03*
X0014595Y0080660D03*
X0014633Y0080660D03*
X0014671Y0080660D03*
X0014747Y0080698D03*
X0014785Y0080698D03*
X0014823Y0080698D03*
X0014899Y0080736D03*
X0014937Y0080736D03*
X0014975Y0080736D03*
X0015051Y0080774D03*
X0015089Y0080774D03*
X0015127Y0080774D03*
X0015241Y0080812D03*
X0015279Y0080812D03*
X0015393Y0080850D03*
X0015431Y0080850D03*
X0015545Y0080888D03*
X0015583Y0080888D03*
X0015697Y0080926D03*
X0015735Y0080926D03*
X0015849Y0080964D03*
X0015887Y0080964D03*
X0016001Y0081002D03*
X0014215Y0080546D03*
X0014177Y0080546D03*
X0014139Y0080546D03*
X0014063Y0080508D03*
X0014025Y0080508D03*
X0013987Y0080508D03*
X0013911Y0080470D03*
X0013873Y0080470D03*
X0013835Y0080470D03*
X0013759Y0080432D03*
X0013721Y0080432D03*
X0007223Y0050564D03*
D14*
X0007223Y0066714D03*
X0013759Y0078836D03*
X0013797Y0078836D03*
X0013835Y0078836D03*
X0014063Y0078912D03*
X0014101Y0078912D03*
X0014139Y0078912D03*
X0014215Y0078950D03*
X0014253Y0078950D03*
X0014291Y0078950D03*
X0014519Y0079026D03*
X0014557Y0079026D03*
X0014595Y0079026D03*
X0014671Y0079064D03*
X0014709Y0079064D03*
X0014747Y0079064D03*
X0015013Y0079140D03*
X0015051Y0079140D03*
X0015165Y0079178D03*
X0015203Y0079178D03*
X0015469Y0079254D03*
X0015507Y0079254D03*
X0015925Y0079368D03*
X0015963Y0079368D03*
X0016229Y0079444D03*
X0016267Y0079444D03*
D15*
X0014329Y0052559D03*
X0013835Y0048531D03*
X0007261Y0050659D03*
D16*
X0013911Y0048569D03*
X0013949Y0048607D03*
X0007261Y0066771D03*
D17*
X0007299Y0050716D03*
X0013265Y0048170D03*
D18*
X0013303Y0048189D03*
X0013341Y0048227D03*
X0014291Y0052521D03*
X0007299Y0066809D03*
D19*
X0008895Y0065726D03*
X0008933Y0065726D03*
X0008971Y0065726D03*
X0009883Y0065764D03*
X0009921Y0065764D03*
X0010073Y0065802D03*
X0010111Y0065802D03*
X0010149Y0065802D03*
X0010415Y0065878D03*
X0010453Y0065878D03*
X0010491Y0065878D03*
X0010567Y0065916D03*
X0010605Y0065916D03*
X0010643Y0065916D03*
X0010681Y0065916D03*
X0010871Y0065992D03*
X0010909Y0065992D03*
X0010947Y0065992D03*
X0011023Y0066030D03*
X0011061Y0066030D03*
X0011099Y0066030D03*
X0011289Y0066106D03*
X0011327Y0066106D03*
X0011441Y0066144D03*
X0011555Y0066182D03*
X0012733Y0066676D03*
X0012771Y0066714D03*
X0012809Y0066752D03*
X0013645Y0063674D03*
X0013683Y0063674D03*
X0013797Y0063712D03*
X0013835Y0063712D03*
X0014101Y0063788D03*
X0014139Y0063788D03*
X0013379Y0063598D03*
X0013341Y0063598D03*
X0013227Y0063560D03*
X0013189Y0063560D03*
X0012923Y0063484D03*
X0012885Y0063484D03*
X0012771Y0063446D03*
X0012733Y0063446D03*
X0012619Y0063408D03*
X0012581Y0063408D03*
X0012467Y0063370D03*
X0012429Y0063370D03*
X0012315Y0063332D03*
X0012277Y0063332D03*
X0012163Y0063294D03*
X0012125Y0063294D03*
X0012011Y0063256D03*
X0011973Y0063256D03*
X0011707Y0063180D03*
X0011669Y0063180D03*
X0011555Y0063142D03*
X0011517Y0063142D03*
X0011251Y0063066D03*
X0011213Y0063066D03*
X0011099Y0063028D03*
X0011061Y0063028D03*
X0010795Y0062952D03*
X0010757Y0062952D03*
X0010643Y0062914D03*
X0010605Y0062914D03*
X0010491Y0062876D03*
X0010453Y0062876D03*
X0010339Y0062838D03*
X0010301Y0062838D03*
X0010035Y0062762D03*
X0009997Y0062762D03*
X0009883Y0062724D03*
X0009845Y0062724D03*
X0009579Y0062648D03*
X0009541Y0062648D03*
X0009427Y0062610D03*
X0009389Y0062610D03*
X0009123Y0062534D03*
X0009085Y0062534D03*
X0008971Y0062496D03*
X0008933Y0062496D03*
X0008819Y0062458D03*
X0008781Y0062458D03*
X0008667Y0062420D03*
X0008629Y0062420D03*
X0008515Y0062382D03*
X0008477Y0062382D03*
X0008363Y0062344D03*
X0008325Y0062344D03*
X0008211Y0062306D03*
X0008173Y0062306D03*
X0007907Y0062230D03*
X0007869Y0062230D03*
X0007755Y0062192D03*
X0007717Y0062192D03*
X0007451Y0062116D03*
X0007413Y0062116D03*
X0007413Y0071502D03*
X0007451Y0071502D03*
X0007717Y0071578D03*
X0007755Y0071578D03*
X0007869Y0071616D03*
X0007907Y0071616D03*
X0008173Y0071692D03*
X0008211Y0071692D03*
X0008325Y0071730D03*
X0008363Y0071730D03*
X0008629Y0071806D03*
X0008667Y0071806D03*
X0008781Y0071844D03*
X0008819Y0071844D03*
X0008933Y0071882D03*
X0008971Y0071882D03*
X0009085Y0071920D03*
X0009123Y0071920D03*
X0009199Y0071958D03*
X0012011Y0072642D03*
X0012049Y0072642D03*
X0012163Y0072680D03*
X0012201Y0072680D03*
X0012467Y0072756D03*
X0012505Y0072756D03*
X0012619Y0072794D03*
X0012657Y0072794D03*
X0012771Y0072832D03*
X0012809Y0072832D03*
X0012923Y0072870D03*
X0012961Y0072870D03*
X0013075Y0072908D03*
X0013113Y0072908D03*
X0013227Y0072946D03*
X0013265Y0072946D03*
X0013379Y0072984D03*
X0013417Y0072984D03*
X0013683Y0073060D03*
X0013721Y0073060D03*
X0013835Y0073098D03*
X0013873Y0073098D03*
X0014139Y0073174D03*
X0014177Y0073174D03*
X0014291Y0073212D03*
X0014329Y0073212D03*
X0014595Y0073288D03*
X0014633Y0073288D03*
X0014747Y0073326D03*
X0014785Y0073326D03*
X0014899Y0073364D03*
X0014937Y0073364D03*
X0015051Y0073402D03*
X0015089Y0073402D03*
X0015393Y0073478D03*
X0015545Y0073516D03*
X0015849Y0073592D03*
X0016001Y0073630D03*
X0016305Y0073706D03*
X0016457Y0073744D03*
X0012999Y0075796D03*
X0012961Y0075758D03*
X0012923Y0075720D03*
X0012809Y0075644D03*
X0012771Y0075606D03*
X0012695Y0075530D03*
X0012657Y0075492D03*
X0012391Y0075264D03*
X0014253Y0052502D03*
X0010415Y0049766D03*
X0010377Y0049766D03*
X0010263Y0049728D03*
X0010225Y0049728D03*
X0008667Y0049614D03*
X0008629Y0049652D03*
X0007337Y0050716D03*
X0008629Y0052464D03*
X0010453Y0045434D03*
X0010491Y0045434D03*
X0010339Y0045396D03*
X0010301Y0045396D03*
X0010187Y0045358D03*
X0010149Y0045358D03*
X0010035Y0045320D03*
X0009997Y0045320D03*
X0009883Y0045282D03*
X0009845Y0045282D03*
X0009731Y0045244D03*
X0009693Y0045244D03*
X0009579Y0045206D03*
X0009541Y0045206D03*
X0009275Y0045130D03*
X0009237Y0045130D03*
X0009123Y0045092D03*
X0009085Y0045092D03*
X0008819Y0045016D03*
X0008781Y0045016D03*
X0008667Y0044978D03*
X0008629Y0044978D03*
X0008363Y0044902D03*
X0008325Y0044902D03*
X0008211Y0044864D03*
X0008173Y0044864D03*
X0008059Y0044826D03*
X0008021Y0044826D03*
X0007907Y0044788D03*
X0007869Y0044788D03*
X0007603Y0044712D03*
X0007565Y0044712D03*
X0007451Y0044674D03*
X0007413Y0044674D03*
X0008021Y0041634D03*
X0008059Y0041634D03*
X0007907Y0041596D03*
X0007869Y0041596D03*
X0007755Y0041558D03*
X0007717Y0041558D03*
X0007603Y0041520D03*
X0007565Y0041520D03*
X0007451Y0041482D03*
X0007413Y0041482D03*
X0008325Y0041710D03*
X0008363Y0041710D03*
X0008477Y0041748D03*
X0008515Y0041748D03*
X0008781Y0041824D03*
X0008819Y0041824D03*
X0008933Y0041862D03*
X0008971Y0041862D03*
X0009237Y0041938D03*
X0009275Y0041938D03*
X0009389Y0041976D03*
X0009427Y0041976D03*
X0009541Y0042014D03*
X0009579Y0042014D03*
X0009693Y0042052D03*
X0009731Y0042052D03*
X0009997Y0042128D03*
X0010035Y0042128D03*
X0010149Y0042166D03*
X0010187Y0042166D03*
X0010453Y0042242D03*
X0010491Y0042242D03*
X0010605Y0042280D03*
X0010643Y0042280D03*
X0010909Y0042356D03*
X0010947Y0042356D03*
X0011061Y0042394D03*
X0011099Y0042394D03*
X0011213Y0042432D03*
X0011251Y0042432D03*
X0011365Y0042470D03*
X0011403Y0042470D03*
X0011517Y0042508D03*
X0011555Y0042508D03*
X0011669Y0042546D03*
X0011707Y0042546D03*
X0011821Y0042584D03*
X0011859Y0042584D03*
X0012125Y0042660D03*
X0012163Y0042660D03*
X0012277Y0042698D03*
X0012315Y0042698D03*
X0012581Y0042774D03*
X0012619Y0042774D03*
X0012733Y0042812D03*
X0012771Y0042812D03*
X0013037Y0042888D03*
X0013075Y0042888D03*
X0013189Y0042926D03*
X0013227Y0042926D03*
X0013341Y0042964D03*
X0013379Y0042964D03*
X0013493Y0043002D03*
X0013531Y0043002D03*
X0013797Y0043078D03*
X0013835Y0043078D03*
X0013949Y0043116D03*
X0013987Y0043116D03*
X0014747Y0043306D03*
X0014785Y0043306D03*
X0014899Y0043344D03*
X0014937Y0043344D03*
X0015051Y0043382D03*
X0015089Y0043382D03*
X0015203Y0043420D03*
X0015241Y0043420D03*
X0015355Y0043458D03*
X0015393Y0043458D03*
X0015507Y0043496D03*
X0015545Y0043496D03*
X0015659Y0043534D03*
X0015697Y0043534D03*
X0016001Y0043610D03*
X0016153Y0043648D03*
X0016457Y0043724D03*
X0011403Y0045662D03*
X0011365Y0045662D03*
X0011327Y0045662D03*
X0011251Y0045624D03*
X0011213Y0045624D03*
X0010947Y0045548D03*
X0010909Y0045548D03*
X0010795Y0045510D03*
X0010757Y0045510D03*
D20*
X0010719Y0045491D03*
X0010681Y0045491D03*
X0010567Y0045453D03*
X0010529Y0045453D03*
X0010415Y0045415D03*
X0010377Y0045415D03*
X0010111Y0045339D03*
X0010073Y0045339D03*
X0009959Y0045301D03*
X0009921Y0045301D03*
X0009655Y0045225D03*
X0009617Y0045225D03*
X0009503Y0045187D03*
X0009465Y0045187D03*
X0009351Y0045149D03*
X0009313Y0045149D03*
X0009199Y0045111D03*
X0009161Y0045111D03*
X0009047Y0045073D03*
X0009009Y0045073D03*
X0008895Y0045035D03*
X0008857Y0045035D03*
X0008743Y0044997D03*
X0008705Y0044997D03*
X0008591Y0044959D03*
X0008553Y0044959D03*
X0008439Y0044921D03*
X0008401Y0044921D03*
X0008287Y0044883D03*
X0008249Y0044883D03*
X0007983Y0044807D03*
X0007945Y0044807D03*
X0007831Y0044769D03*
X0007793Y0044769D03*
X0007679Y0044731D03*
X0007641Y0044731D03*
X0007527Y0044693D03*
X0007489Y0044693D03*
X0007375Y0044655D03*
X0008097Y0041653D03*
X0008135Y0041653D03*
X0008249Y0041691D03*
X0008287Y0041691D03*
X0008401Y0041729D03*
X0008439Y0041729D03*
X0008553Y0041767D03*
X0008591Y0041767D03*
X0008705Y0041805D03*
X0008743Y0041805D03*
X0008857Y0041843D03*
X0008895Y0041843D03*
X0009009Y0041881D03*
X0009047Y0041881D03*
X0009161Y0041919D03*
X0009199Y0041919D03*
X0009313Y0041957D03*
X0009351Y0041957D03*
X0009617Y0042033D03*
X0009655Y0042033D03*
X0009769Y0042071D03*
X0009807Y0042071D03*
X0009921Y0042109D03*
X0009959Y0042109D03*
X0010073Y0042147D03*
X0010111Y0042147D03*
X0010225Y0042185D03*
X0010263Y0042185D03*
X0010377Y0042223D03*
X0010415Y0042223D03*
X0010529Y0042261D03*
X0010567Y0042261D03*
X0010681Y0042299D03*
X0010719Y0042299D03*
X0010833Y0042337D03*
X0010871Y0042337D03*
X0010985Y0042375D03*
X0011023Y0042375D03*
X0011289Y0042451D03*
X0011327Y0042451D03*
X0011441Y0042489D03*
X0011479Y0042489D03*
X0011745Y0042565D03*
X0011783Y0042565D03*
X0011897Y0042603D03*
X0011935Y0042603D03*
X0012049Y0042641D03*
X0012087Y0042641D03*
X0012201Y0042679D03*
X0012239Y0042679D03*
X0012353Y0042717D03*
X0012391Y0042717D03*
X0012505Y0042755D03*
X0012543Y0042755D03*
X0012657Y0042793D03*
X0012695Y0042793D03*
X0012809Y0042831D03*
X0012847Y0042831D03*
X0012961Y0042869D03*
X0012999Y0042869D03*
X0013113Y0042907D03*
X0013151Y0042907D03*
X0013417Y0042983D03*
X0013455Y0042983D03*
X0013569Y0043021D03*
X0013607Y0043021D03*
X0013721Y0043059D03*
X0013759Y0043059D03*
X0013873Y0043097D03*
X0013911Y0043097D03*
X0014025Y0043135D03*
X0014063Y0043135D03*
X0014177Y0043173D03*
X0014823Y0043325D03*
X0014861Y0043325D03*
X0015127Y0043401D03*
X0015165Y0043401D03*
X0015279Y0043439D03*
X0015317Y0043439D03*
X0015583Y0043515D03*
X0015621Y0043515D03*
X0015735Y0043553D03*
X0015773Y0043553D03*
X0015887Y0043591D03*
X0015925Y0043591D03*
X0015963Y0043591D03*
X0016039Y0043629D03*
X0016077Y0043629D03*
X0016115Y0043629D03*
X0016191Y0043667D03*
X0016229Y0043667D03*
X0016267Y0043667D03*
X0016343Y0043705D03*
X0016381Y0043705D03*
X0016419Y0043705D03*
X0011289Y0045643D03*
X0011175Y0045605D03*
X0011137Y0045605D03*
X0011023Y0045567D03*
X0010985Y0045567D03*
X0010871Y0045529D03*
X0010833Y0045529D03*
X0009845Y0049633D03*
X0009807Y0049633D03*
X0009769Y0049633D03*
X0009921Y0049671D03*
X0009959Y0049671D03*
X0009997Y0049671D03*
X0010035Y0049671D03*
X0010111Y0049709D03*
X0010149Y0049709D03*
X0010187Y0049709D03*
X0010301Y0049747D03*
X0010339Y0049747D03*
X0012847Y0050659D03*
X0012885Y0050697D03*
X0007983Y0041615D03*
X0007945Y0041615D03*
X0007679Y0041539D03*
X0007641Y0041539D03*
X0007527Y0041501D03*
X0007489Y0041501D03*
X0007375Y0062097D03*
X0007489Y0062135D03*
X0007527Y0062135D03*
X0007641Y0062173D03*
X0007679Y0062173D03*
X0007793Y0062211D03*
X0007831Y0062211D03*
X0007945Y0062249D03*
X0007983Y0062249D03*
X0008097Y0062287D03*
X0008135Y0062287D03*
X0008249Y0062325D03*
X0008287Y0062325D03*
X0008553Y0062401D03*
X0008591Y0062401D03*
X0008705Y0062439D03*
X0008743Y0062439D03*
X0009009Y0062515D03*
X0009047Y0062515D03*
X0009161Y0062553D03*
X0009199Y0062553D03*
X0009313Y0062591D03*
X0009351Y0062591D03*
X0009465Y0062629D03*
X0009503Y0062629D03*
X0009617Y0062667D03*
X0009655Y0062667D03*
X0009769Y0062705D03*
X0009807Y0062705D03*
X0009921Y0062743D03*
X0009959Y0062743D03*
X0010073Y0062781D03*
X0010111Y0062781D03*
X0010225Y0062819D03*
X0010263Y0062819D03*
X0010377Y0062857D03*
X0010415Y0062857D03*
X0010681Y0062933D03*
X0010719Y0062933D03*
X0010833Y0062971D03*
X0010871Y0062971D03*
X0010985Y0063009D03*
X0011023Y0063009D03*
X0011137Y0063047D03*
X0011175Y0063047D03*
X0011289Y0063085D03*
X0011327Y0063085D03*
X0011441Y0063123D03*
X0011479Y0063123D03*
X0011593Y0063161D03*
X0011631Y0063161D03*
X0011745Y0063199D03*
X0011783Y0063199D03*
X0011897Y0063237D03*
X0011935Y0063237D03*
X0012049Y0063275D03*
X0012087Y0063275D03*
X0012353Y0063351D03*
X0012391Y0063351D03*
X0012505Y0063389D03*
X0012543Y0063389D03*
X0012809Y0063465D03*
X0012847Y0063465D03*
X0012961Y0063503D03*
X0012999Y0063503D03*
X0013113Y0063541D03*
X0013151Y0063541D03*
X0013265Y0063579D03*
X0013303Y0063579D03*
X0013417Y0063617D03*
X0013455Y0063617D03*
X0013569Y0063655D03*
X0013607Y0063655D03*
X0013721Y0063693D03*
X0013759Y0063693D03*
X0013873Y0063731D03*
X0013911Y0063731D03*
X0014025Y0063769D03*
X0014063Y0063769D03*
X0014177Y0063807D03*
X0012657Y0066619D03*
X0012619Y0066619D03*
X0012581Y0066581D03*
X0012505Y0066543D03*
X0012429Y0066505D03*
X0012353Y0066467D03*
X0012277Y0066429D03*
X0012239Y0066429D03*
X0012163Y0066391D03*
X0012087Y0066353D03*
X0012049Y0066353D03*
X0011973Y0066315D03*
X0011935Y0066315D03*
X0011783Y0066239D03*
X0011745Y0066239D03*
X0011707Y0066239D03*
X0011669Y0066201D03*
X0011631Y0066201D03*
X0011593Y0066201D03*
X0011403Y0066125D03*
X0011365Y0066125D03*
X0011251Y0066087D03*
X0010985Y0066011D03*
X0010529Y0065897D03*
X0010377Y0065859D03*
X0010187Y0065821D03*
X0010035Y0065783D03*
X0009997Y0065783D03*
X0009959Y0065783D03*
X0009617Y0065707D03*
X0009579Y0065707D03*
X0009541Y0065707D03*
X0009503Y0065707D03*
X0009465Y0065707D03*
X0009427Y0065707D03*
X0009389Y0065707D03*
X0009351Y0065707D03*
X0009313Y0065707D03*
X0009275Y0065707D03*
X0009237Y0065707D03*
X0009199Y0065707D03*
X0009161Y0065707D03*
X0009123Y0065707D03*
X0009085Y0065707D03*
X0009047Y0065707D03*
X0009009Y0065707D03*
X0007337Y0066847D03*
X0008819Y0068747D03*
X0008857Y0068785D03*
X0008135Y0071673D03*
X0008097Y0071673D03*
X0007983Y0071635D03*
X0007945Y0071635D03*
X0007831Y0071597D03*
X0007793Y0071597D03*
X0007679Y0071559D03*
X0007641Y0071559D03*
X0007527Y0071521D03*
X0007489Y0071521D03*
X0007375Y0071483D03*
X0008249Y0071711D03*
X0008287Y0071711D03*
X0008401Y0071749D03*
X0008439Y0071749D03*
X0008553Y0071787D03*
X0008591Y0071787D03*
X0008705Y0071825D03*
X0008743Y0071825D03*
X0009009Y0071901D03*
X0009047Y0071901D03*
X0009161Y0071939D03*
X0011973Y0072623D03*
X0012087Y0072661D03*
X0012125Y0072661D03*
X0012239Y0072699D03*
X0012277Y0072699D03*
X0012391Y0072737D03*
X0012429Y0072737D03*
X0012543Y0072775D03*
X0012581Y0072775D03*
X0012847Y0072851D03*
X0012885Y0072851D03*
X0012999Y0072889D03*
X0013037Y0072889D03*
X0013303Y0072965D03*
X0013341Y0072965D03*
X0013455Y0073003D03*
X0013493Y0073003D03*
X0013607Y0073041D03*
X0013645Y0073041D03*
X0013759Y0073079D03*
X0013797Y0073079D03*
X0013911Y0073117D03*
X0013949Y0073117D03*
X0014063Y0073155D03*
X0014101Y0073155D03*
X0014215Y0073193D03*
X0014253Y0073193D03*
X0014367Y0073231D03*
X0014405Y0073231D03*
X0014519Y0073269D03*
X0014557Y0073269D03*
X0014671Y0073307D03*
X0014709Y0073307D03*
X0014975Y0073383D03*
X0015013Y0073383D03*
X0015127Y0073421D03*
X0015165Y0073421D03*
X0015203Y0073421D03*
X0015279Y0073459D03*
X0015317Y0073459D03*
X0015355Y0073459D03*
X0015431Y0073497D03*
X0015469Y0073497D03*
X0015507Y0073497D03*
X0015583Y0073535D03*
X0015621Y0073535D03*
X0015659Y0073535D03*
X0015735Y0073573D03*
X0015773Y0073573D03*
X0015811Y0073573D03*
X0015887Y0073611D03*
X0015925Y0073611D03*
X0015963Y0073611D03*
X0016039Y0073649D03*
X0016077Y0073649D03*
X0016115Y0073649D03*
X0016191Y0073687D03*
X0016229Y0073687D03*
X0016267Y0073687D03*
X0016343Y0073725D03*
X0016381Y0073725D03*
X0016419Y0073725D03*
X0012581Y0075435D03*
X0012543Y0075397D03*
X0012505Y0075359D03*
X0012467Y0075321D03*
X0012429Y0075283D03*
X0012315Y0075207D03*
X0012277Y0075169D03*
X0012239Y0075131D03*
X0012201Y0075093D03*
X0012961Y0069773D03*
X0012695Y0066657D03*
D21*
X0012961Y0066885D03*
X0014367Y0068785D03*
X0009389Y0072053D03*
X0009351Y0072053D03*
X0009655Y0074751D03*
X0009693Y0074751D03*
X0009617Y0074789D03*
X0009579Y0074789D03*
X0009541Y0074789D03*
X0009503Y0074789D03*
X0009465Y0074827D03*
X0009427Y0074827D03*
X0009389Y0074827D03*
X0009351Y0074827D03*
X0009161Y0074903D03*
X0009123Y0074903D03*
X0009085Y0074903D03*
X0008971Y0074941D03*
X0008667Y0075017D03*
X0013683Y0076385D03*
X0013721Y0076423D03*
X0013797Y0076499D03*
X0013835Y0076537D03*
X0013987Y0076651D03*
X0014025Y0076689D03*
X0014063Y0076727D03*
X0014709Y0057309D03*
X0014633Y0057271D03*
X0014595Y0057271D03*
X0014557Y0057271D03*
X0014329Y0057195D03*
X0014291Y0057195D03*
X0014253Y0057195D03*
X0014025Y0057119D03*
X0013987Y0057119D03*
X0013949Y0057119D03*
X0013873Y0057081D03*
X0013835Y0057081D03*
X0013797Y0057081D03*
X0013569Y0057005D03*
X0013531Y0057005D03*
X0013493Y0057005D03*
X0013417Y0056967D03*
X0013379Y0056967D03*
X0013341Y0056967D03*
X0013113Y0056891D03*
X0013075Y0056891D03*
X0013037Y0056891D03*
X0012923Y0056853D03*
X0012885Y0056853D03*
X0012619Y0056777D03*
X0010833Y0056321D03*
X0010795Y0056321D03*
X0010757Y0056321D03*
X0010529Y0056245D03*
X0010491Y0056245D03*
X0010453Y0056245D03*
X0010225Y0056169D03*
X0010187Y0056169D03*
X0010149Y0056169D03*
X0010111Y0056169D03*
X0010073Y0056131D03*
X0010035Y0056131D03*
X0009997Y0056131D03*
X0009959Y0056131D03*
X0009769Y0056055D03*
X0009731Y0056055D03*
X0009693Y0056055D03*
X0009655Y0056055D03*
X0009617Y0056017D03*
X0009579Y0056017D03*
X0009541Y0056017D03*
X0009503Y0056017D03*
X0009313Y0055941D03*
X0009275Y0055941D03*
X0009237Y0055941D03*
X0009199Y0055941D03*
X0009123Y0055903D03*
X0009085Y0055903D03*
X0009047Y0055903D03*
X0008819Y0055827D03*
X0008781Y0055827D03*
X0008743Y0055827D03*
X0008667Y0055789D03*
X0008629Y0055789D03*
X0008591Y0055789D03*
X0008515Y0055751D03*
X0008477Y0055751D03*
X0008439Y0055751D03*
X0008363Y0055713D03*
X0008325Y0055713D03*
X0008287Y0055713D03*
X0008059Y0055637D03*
X0008021Y0055637D03*
X0007983Y0055637D03*
X0007945Y0055637D03*
X0007907Y0055599D03*
X0007869Y0055599D03*
X0007831Y0055599D03*
X0007793Y0055599D03*
X0007603Y0055523D03*
X0007565Y0055523D03*
X0007527Y0055523D03*
X0007489Y0055523D03*
X0007451Y0055485D03*
X0007413Y0055485D03*
X0007375Y0055485D03*
X0008591Y0052369D03*
X0008591Y0049709D03*
X0011707Y0045795D03*
X0013911Y0037321D03*
X0013949Y0037321D03*
X0013987Y0037321D03*
X0014063Y0037359D03*
X0014101Y0037359D03*
X0014139Y0037359D03*
X0014367Y0037435D03*
X0014405Y0037435D03*
X0014443Y0037435D03*
X0014481Y0037435D03*
X0014519Y0037473D03*
X0014557Y0037473D03*
X0013683Y0037245D03*
X0013645Y0037245D03*
X0013607Y0037245D03*
X0013379Y0037169D03*
X0013341Y0037169D03*
X0013303Y0037169D03*
X0013227Y0037131D03*
X0013189Y0037131D03*
X0013151Y0037131D03*
X0011099Y0036599D03*
X0011061Y0036599D03*
X0011023Y0036599D03*
X0010795Y0036523D03*
X0010757Y0036523D03*
X0010719Y0036523D03*
X0010643Y0036485D03*
X0010605Y0036485D03*
X0010567Y0036485D03*
X0010339Y0036409D03*
X0010301Y0036409D03*
X0010263Y0036409D03*
X0010187Y0036371D03*
X0010149Y0036371D03*
X0010111Y0036371D03*
X0009883Y0036295D03*
X0009845Y0036295D03*
X0009807Y0036295D03*
X0009579Y0036219D03*
X0009541Y0036219D03*
X0009503Y0036219D03*
X0009465Y0036219D03*
X0009427Y0036181D03*
X0009389Y0036181D03*
X0009351Y0036181D03*
X0009313Y0036181D03*
X0009123Y0036105D03*
X0009085Y0036105D03*
X0009047Y0036105D03*
X0009009Y0036105D03*
X0008971Y0036067D03*
X0008933Y0036067D03*
X0008895Y0036067D03*
X0008857Y0036067D03*
X0008667Y0035991D03*
X0008629Y0035991D03*
X0008591Y0035991D03*
X0008553Y0035991D03*
X0008515Y0035953D03*
X0008477Y0035953D03*
X0008439Y0035953D03*
X0008401Y0035953D03*
X0008211Y0035877D03*
X0008173Y0035877D03*
X0008135Y0035877D03*
X0008097Y0035877D03*
X0008059Y0035839D03*
X0008021Y0035839D03*
X0007983Y0035839D03*
X0007945Y0035839D03*
X0007907Y0035801D03*
X0007869Y0035801D03*
X0007831Y0035801D03*
X0007793Y0035801D03*
X0007755Y0035763D03*
X0007717Y0035763D03*
X0007679Y0035763D03*
X0007641Y0035763D03*
X0007451Y0035687D03*
X0007413Y0035687D03*
X0007375Y0035687D03*
D22*
X0007375Y0041463D03*
X0007793Y0041577D03*
X0007831Y0041577D03*
X0009465Y0041995D03*
X0009503Y0041995D03*
X0011137Y0042413D03*
X0011175Y0042413D03*
X0011593Y0042527D03*
X0011631Y0042527D03*
X0013265Y0042945D03*
X0013303Y0042945D03*
X0014975Y0043363D03*
X0015013Y0043363D03*
X0015431Y0043477D03*
X0015469Y0043477D03*
X0010263Y0045377D03*
X0010225Y0045377D03*
X0009807Y0045263D03*
X0009769Y0045263D03*
X0008135Y0044845D03*
X0008097Y0044845D03*
X0008705Y0049595D03*
X0011745Y0050127D03*
X0008895Y0062477D03*
X0008857Y0062477D03*
X0008439Y0062363D03*
X0008401Y0062363D03*
X0010529Y0062895D03*
X0010567Y0062895D03*
X0012201Y0063313D03*
X0012239Y0063313D03*
X0012657Y0063427D03*
X0012695Y0063427D03*
X0011897Y0066277D03*
X0011859Y0066277D03*
X0011821Y0066277D03*
X0011517Y0066163D03*
X0011479Y0066163D03*
X0009845Y0065745D03*
X0009807Y0065745D03*
X0009769Y0065745D03*
X0009731Y0065745D03*
X0009693Y0065745D03*
X0009655Y0065745D03*
X0008895Y0071863D03*
X0008857Y0071863D03*
X0012695Y0072813D03*
X0012733Y0072813D03*
X0013151Y0072927D03*
X0013189Y0072927D03*
X0014823Y0073345D03*
X0014861Y0073345D03*
X0012353Y0075245D03*
D23*
X0009655Y0072205D03*
X0009579Y0072167D03*
X0014481Y0060843D03*
X0014519Y0060843D03*
X0013075Y0060615D03*
X0012999Y0060577D03*
X0012961Y0060539D03*
X0007375Y0050735D03*
X0011935Y0045947D03*
D24*
X0011897Y0045928D03*
X0014215Y0052502D03*
X0013037Y0060596D03*
X0013113Y0060634D03*
X0014405Y0060862D03*
X0014443Y0060862D03*
X0007375Y0066866D03*
X0009541Y0072148D03*
D25*
X0009503Y0072129D03*
X0008249Y0075131D03*
X0008097Y0075169D03*
X0007983Y0075207D03*
X0007945Y0075207D03*
X0007907Y0075207D03*
X0007831Y0075245D03*
X0007793Y0075245D03*
X0007755Y0075245D03*
X0007679Y0075283D03*
X0007641Y0075283D03*
X0007603Y0075283D03*
X0007565Y0075321D03*
X0007527Y0075321D03*
X0007489Y0075321D03*
X0007451Y0075321D03*
X0007413Y0075359D03*
X0007375Y0075359D03*
X0013037Y0069659D03*
X0014177Y0060919D03*
X0014215Y0060919D03*
X0013417Y0060767D03*
X0013341Y0060729D03*
X0013303Y0060729D03*
X0013265Y0060691D03*
X0013227Y0060691D03*
X0013151Y0060653D03*
X0011821Y0045871D03*
D26*
X0012087Y0046099D03*
X0007413Y0050735D03*
X0012733Y0060349D03*
X0014671Y0060767D03*
D27*
X0014633Y0060805D03*
X0012809Y0060425D03*
X0012771Y0060387D03*
X0007413Y0066885D03*
X0014177Y0052483D03*
X0012049Y0046061D03*
D28*
X0007451Y0050754D03*
X0012619Y0060178D03*
D29*
X0012657Y0060254D03*
X0014709Y0060710D03*
X0007451Y0066904D03*
X0014139Y0052464D03*
X0012125Y0046156D03*
D30*
X0011745Y0045833D03*
X0012961Y0050811D03*
X0008211Y0055675D03*
X0008173Y0055675D03*
X0008135Y0055675D03*
X0007755Y0055561D03*
X0007717Y0055561D03*
X0007679Y0055561D03*
X0007641Y0055561D03*
X0008895Y0055865D03*
X0008933Y0055865D03*
X0008971Y0055865D03*
X0009351Y0055979D03*
X0009389Y0055979D03*
X0009427Y0055979D03*
X0009465Y0055979D03*
X0009807Y0056093D03*
X0009845Y0056093D03*
X0009883Y0056093D03*
X0009921Y0056093D03*
X0010301Y0056207D03*
X0010339Y0056207D03*
X0010377Y0056207D03*
X0010605Y0056283D03*
X0010643Y0056283D03*
X0010681Y0056283D03*
X0012695Y0056815D03*
X0012733Y0056815D03*
X0012771Y0056815D03*
X0013189Y0056929D03*
X0013227Y0056929D03*
X0013265Y0056929D03*
X0013645Y0057043D03*
X0013683Y0057043D03*
X0013721Y0057043D03*
X0014101Y0057157D03*
X0014139Y0057157D03*
X0014177Y0057157D03*
X0014405Y0057233D03*
X0014443Y0057233D03*
X0014481Y0057233D03*
X0008781Y0065783D03*
X0008743Y0068633D03*
X0009237Y0074865D03*
X0009275Y0074865D03*
X0009313Y0074865D03*
X0008819Y0074979D03*
X0013759Y0076461D03*
X0014215Y0037397D03*
X0014253Y0037397D03*
X0014291Y0037397D03*
X0014329Y0037397D03*
X0013835Y0037283D03*
X0013797Y0037283D03*
X0013759Y0037283D03*
X0013531Y0037207D03*
X0013493Y0037207D03*
X0013455Y0037207D03*
X0013075Y0037093D03*
X0013037Y0037093D03*
X0012999Y0037093D03*
X0010947Y0036561D03*
X0010909Y0036561D03*
X0010871Y0036561D03*
X0010491Y0036447D03*
X0010453Y0036447D03*
X0010415Y0036447D03*
X0010035Y0036333D03*
X0009997Y0036333D03*
X0009959Y0036333D03*
X0009731Y0036257D03*
X0009693Y0036257D03*
X0009655Y0036257D03*
X0009275Y0036143D03*
X0009237Y0036143D03*
X0009199Y0036143D03*
X0009161Y0036143D03*
X0008819Y0036029D03*
X0008781Y0036029D03*
X0008743Y0036029D03*
X0008705Y0036029D03*
X0008363Y0035915D03*
X0008325Y0035915D03*
X0008287Y0035915D03*
X0008249Y0035915D03*
X0007603Y0035725D03*
X0007565Y0035725D03*
X0007527Y0035725D03*
X0007489Y0035725D03*
D31*
X0007489Y0050754D03*
D32*
X0012163Y0046232D03*
X0014101Y0052464D03*
X0007489Y0066904D03*
X0014253Y0068728D03*
D33*
X0007527Y0066923D03*
X0014063Y0052445D03*
X0007527Y0050773D03*
D34*
X0007565Y0050773D03*
D35*
X0010073Y0049690D03*
X0011441Y0045700D03*
X0011479Y0045700D03*
X0011099Y0045586D03*
X0011061Y0045586D03*
X0010643Y0045472D03*
X0010605Y0045472D03*
X0009427Y0045168D03*
X0009389Y0045168D03*
X0008971Y0045054D03*
X0008933Y0045054D03*
X0008515Y0044940D03*
X0008477Y0044940D03*
X0007755Y0044750D03*
X0007717Y0044750D03*
X0010301Y0042204D03*
X0010339Y0042204D03*
X0010757Y0042318D03*
X0010795Y0042318D03*
X0009883Y0042090D03*
X0009845Y0042090D03*
X0009123Y0041900D03*
X0009085Y0041900D03*
X0008667Y0041786D03*
X0008629Y0041786D03*
X0008211Y0041672D03*
X0008173Y0041672D03*
X0011973Y0042622D03*
X0012011Y0042622D03*
X0012429Y0042736D03*
X0012467Y0042736D03*
X0012885Y0042850D03*
X0012923Y0042850D03*
X0013645Y0043040D03*
X0013683Y0043040D03*
X0014101Y0043154D03*
X0014139Y0043154D03*
X0015811Y0043572D03*
X0015849Y0043572D03*
X0016305Y0043686D03*
X0011403Y0063104D03*
X0011365Y0063104D03*
X0010947Y0062990D03*
X0010909Y0062990D03*
X0010187Y0062800D03*
X0010149Y0062800D03*
X0009731Y0062686D03*
X0009693Y0062686D03*
X0009275Y0062572D03*
X0009237Y0062572D03*
X0008059Y0062268D03*
X0008021Y0062268D03*
X0007603Y0062154D03*
X0007565Y0062154D03*
X0011821Y0063218D03*
X0011859Y0063218D03*
X0013037Y0063522D03*
X0013075Y0063522D03*
X0013493Y0063636D03*
X0013531Y0063636D03*
X0013949Y0063750D03*
X0013987Y0063750D03*
X0011213Y0066068D03*
X0011175Y0066068D03*
X0011137Y0066068D03*
X0010833Y0065954D03*
X0010795Y0065954D03*
X0010757Y0065954D03*
X0010719Y0065954D03*
X0010339Y0065840D03*
X0010301Y0065840D03*
X0010263Y0065840D03*
X0010225Y0065840D03*
X0008515Y0071768D03*
X0008477Y0071768D03*
X0008059Y0071654D03*
X0008021Y0071654D03*
X0007603Y0071540D03*
X0007565Y0071540D03*
X0012315Y0072718D03*
X0012353Y0072718D03*
X0013531Y0073022D03*
X0013569Y0073022D03*
X0013987Y0073136D03*
X0014025Y0073136D03*
X0014443Y0073250D03*
X0014481Y0073250D03*
X0015241Y0073440D03*
X0015697Y0073554D03*
X0016153Y0073668D03*
X0012733Y0075568D03*
X0012619Y0075454D03*
D36*
X0007565Y0066942D03*
X0014025Y0052426D03*
D37*
X0007603Y0050792D03*
X0012239Y0046498D03*
X0007603Y0066942D03*
D38*
X0007641Y0066961D03*
X0014101Y0068671D03*
X0007641Y0050811D03*
D39*
X0007679Y0050792D03*
X0010871Y0057024D03*
X0007679Y0066980D03*
X0014063Y0068652D03*
D40*
X0007717Y0050811D03*
D41*
X0007717Y0066980D03*
D42*
X0012999Y0066942D03*
X0013911Y0060900D03*
X0013949Y0060900D03*
X0013987Y0060900D03*
X0014025Y0060900D03*
X0014063Y0060900D03*
X0014101Y0060900D03*
X0014139Y0060900D03*
X0013873Y0060862D03*
X0013835Y0060862D03*
X0013797Y0060862D03*
X0013759Y0060862D03*
X0013721Y0060862D03*
X0013683Y0060824D03*
X0013645Y0060824D03*
X0013607Y0060824D03*
X0013569Y0060824D03*
X0013531Y0060786D03*
X0013493Y0060786D03*
X0013455Y0060786D03*
X0013379Y0060748D03*
X0014215Y0057176D03*
X0014063Y0057138D03*
X0013911Y0057100D03*
X0013759Y0057062D03*
X0013607Y0057024D03*
X0013455Y0056986D03*
X0013303Y0056948D03*
X0013151Y0056910D03*
X0012999Y0056872D03*
X0012961Y0056872D03*
X0012847Y0056834D03*
X0012809Y0056834D03*
X0012657Y0056796D03*
X0014367Y0057214D03*
X0014519Y0057252D03*
X0014671Y0057290D03*
X0011783Y0045852D03*
X0013873Y0037302D03*
X0013721Y0037264D03*
X0013569Y0037226D03*
X0013417Y0037188D03*
X0013265Y0037150D03*
X0013113Y0037112D03*
X0012961Y0037074D03*
X0014025Y0037340D03*
X0014177Y0037378D03*
X0010985Y0036580D03*
X0010833Y0036542D03*
X0010681Y0036504D03*
X0010529Y0036466D03*
X0010377Y0036428D03*
X0010225Y0036390D03*
X0010073Y0036352D03*
X0009921Y0036314D03*
X0009769Y0036276D03*
X0009617Y0036238D03*
X0009427Y0072072D03*
X0009465Y0072110D03*
X0009199Y0074884D03*
X0009047Y0074922D03*
X0009009Y0074922D03*
X0008933Y0074960D03*
X0008895Y0074960D03*
X0008857Y0074960D03*
X0008781Y0074998D03*
X0008743Y0074998D03*
X0008705Y0074998D03*
X0008629Y0075036D03*
X0008591Y0075036D03*
X0008553Y0075036D03*
X0008515Y0075074D03*
X0008477Y0075074D03*
X0008439Y0075074D03*
X0008401Y0075074D03*
X0008363Y0075112D03*
X0008325Y0075112D03*
X0008287Y0075112D03*
X0008211Y0075150D03*
X0008173Y0075150D03*
X0008135Y0075150D03*
X0008059Y0075188D03*
X0008021Y0075188D03*
X0007869Y0075226D03*
X0007717Y0075264D03*
X0013873Y0076556D03*
X0013911Y0076594D03*
X0013949Y0076632D03*
X0014101Y0076746D03*
X0014139Y0076784D03*
X0014177Y0076822D03*
D43*
X0013987Y0068633D03*
X0013797Y0052369D03*
X0007755Y0050811D03*
D44*
X0007755Y0066999D03*
D45*
X0007793Y0066999D03*
X0013949Y0068595D03*
X0013759Y0052369D03*
X0007793Y0050849D03*
D46*
X0007831Y0050849D03*
X0007831Y0066999D03*
X0013911Y0068595D03*
D47*
X0011441Y0073421D03*
X0011479Y0073459D03*
X0011365Y0073421D03*
X0011327Y0073421D03*
X0013683Y0052331D03*
X0007869Y0050849D03*
X0012353Y0046859D03*
X0012505Y0046897D03*
X0012657Y0046935D03*
X0012809Y0046973D03*
X0012961Y0047011D03*
X0013113Y0047049D03*
X0013151Y0047049D03*
D48*
X0013189Y0047068D03*
X0013227Y0047068D03*
X0012771Y0046954D03*
X0012733Y0046954D03*
X0012695Y0046954D03*
X0012315Y0046840D03*
X0012277Y0046840D03*
X0007869Y0067018D03*
D49*
X0007907Y0067018D03*
X0011137Y0073402D03*
X0011593Y0073516D03*
X0011631Y0073554D03*
X0007907Y0050868D03*
D50*
X0007945Y0050887D03*
X0013607Y0052331D03*
X0007945Y0067037D03*
X0011023Y0073421D03*
X0011061Y0073421D03*
X0011099Y0073421D03*
X0011669Y0073573D03*
D51*
X0011745Y0073611D03*
X0011783Y0073649D03*
X0010985Y0073421D03*
X0010947Y0073421D03*
X0010909Y0073421D03*
X0010871Y0073421D03*
X0013759Y0068557D03*
X0007983Y0067037D03*
X0007983Y0050887D03*
D52*
X0008021Y0050906D03*
X0013531Y0052312D03*
X0010985Y0057366D03*
X0016381Y0058734D03*
X0008021Y0067056D03*
X0013721Y0068538D03*
D53*
X0011023Y0057442D03*
X0013455Y0052274D03*
X0008059Y0050906D03*
D54*
X0008097Y0050925D03*
X0008059Y0067075D03*
X0010605Y0073421D03*
X0010643Y0073421D03*
X0010681Y0073421D03*
D55*
X0009313Y0072034D03*
X0009275Y0071996D03*
X0008781Y0068690D03*
X0012923Y0066828D03*
X0013265Y0076024D03*
X0013303Y0076062D03*
X0013341Y0076100D03*
X0013379Y0076138D03*
X0013417Y0076176D03*
X0013455Y0076176D03*
X0013493Y0076214D03*
X0013531Y0076252D03*
X0013569Y0076290D03*
X0013607Y0076328D03*
X0013645Y0076366D03*
X0010719Y0056302D03*
X0010567Y0056264D03*
X0010415Y0056226D03*
X0010263Y0056188D03*
X0009161Y0055922D03*
X0009009Y0055884D03*
X0008857Y0055846D03*
X0008705Y0055808D03*
X0008401Y0055732D03*
X0008249Y0055694D03*
X0008097Y0055656D03*
X0011631Y0045776D03*
X0011669Y0045776D03*
D56*
X0008135Y0050925D03*
X0013379Y0052255D03*
X0008135Y0067075D03*
X0008097Y0067075D03*
X0013607Y0068481D03*
X0010491Y0073421D03*
X0010453Y0073421D03*
D57*
X0010415Y0073440D03*
X0010377Y0073440D03*
X0011061Y0057518D03*
X0008173Y0050944D03*
D58*
X0013341Y0052255D03*
X0016305Y0058829D03*
X0008173Y0067075D03*
X0013569Y0068481D03*
X0010339Y0073421D03*
D59*
X0010301Y0073440D03*
X0010263Y0073440D03*
X0010225Y0073440D03*
X0013493Y0068462D03*
X0013531Y0068462D03*
X0008211Y0067094D03*
X0013303Y0052236D03*
X0008211Y0050944D03*
D60*
X0008249Y0050963D03*
X0013265Y0052217D03*
X0016267Y0058867D03*
X0008249Y0067113D03*
D61*
X0013455Y0068462D03*
X0010149Y0073440D03*
X0010111Y0073440D03*
X0010073Y0073440D03*
X0013227Y0052198D03*
X0008287Y0050982D03*
D62*
X0008325Y0050963D03*
X0013189Y0052217D03*
X0011137Y0057613D03*
X0008287Y0067113D03*
X0013417Y0068443D03*
X0010035Y0073421D03*
D63*
X0009997Y0073440D03*
X0009959Y0073440D03*
X0009921Y0073440D03*
X0008325Y0067132D03*
X0013151Y0052198D03*
X0008363Y0050982D03*
D64*
X0008401Y0051001D03*
X0008363Y0067151D03*
X0013341Y0068405D03*
D65*
X0013303Y0068386D03*
X0008401Y0067132D03*
X0009769Y0073440D03*
X0009807Y0073440D03*
X0009845Y0073440D03*
X0009883Y0073440D03*
X0016191Y0058924D03*
X0013075Y0052160D03*
X0013037Y0052160D03*
X0008439Y0051020D03*
D66*
X0008477Y0051001D03*
X0012999Y0052141D03*
X0008439Y0067151D03*
D67*
X0008477Y0067170D03*
X0009731Y0073440D03*
X0016153Y0058962D03*
X0008515Y0051020D03*
D68*
X0008515Y0067170D03*
X0008553Y0067170D03*
D69*
X0013189Y0068367D03*
X0011251Y0057765D03*
X0008553Y0051039D03*
D70*
X0008553Y0055770D03*
D71*
X0011289Y0057803D03*
X0011327Y0057841D03*
X0016077Y0059019D03*
X0008629Y0067189D03*
X0008591Y0067189D03*
D72*
X0008895Y0068842D03*
X0012011Y0066334D03*
X0012125Y0066372D03*
X0012201Y0066410D03*
X0012315Y0066448D03*
X0012391Y0066486D03*
X0012467Y0066524D03*
X0012543Y0066562D03*
X0012923Y0069792D03*
X0011973Y0074884D03*
X0012011Y0074922D03*
X0012049Y0074960D03*
X0012087Y0074998D03*
X0012125Y0075036D03*
X0012163Y0075074D03*
X0012923Y0053566D03*
X0008667Y0052540D03*
X0009883Y0049652D03*
X0009731Y0049614D03*
X0009693Y0049614D03*
X0009655Y0049614D03*
X0009617Y0049614D03*
X0009541Y0049576D03*
X0009503Y0049576D03*
X0009465Y0049576D03*
X0008743Y0049576D03*
X0011707Y0050108D03*
X0011783Y0050146D03*
X0011821Y0050146D03*
X0011859Y0050146D03*
X0011897Y0050184D03*
X0011935Y0050184D03*
X0012011Y0050222D03*
X0012049Y0050222D03*
X0012125Y0050260D03*
X0012733Y0050564D03*
X0012771Y0050602D03*
X0012809Y0050640D03*
D73*
X0012847Y0038442D03*
X0012885Y0038442D03*
X0012733Y0038404D03*
X0012695Y0038404D03*
X0012581Y0038366D03*
X0012543Y0038366D03*
X0012429Y0038328D03*
X0012391Y0038328D03*
X0012277Y0038290D03*
X0012239Y0038290D03*
X0012125Y0038252D03*
X0012087Y0038252D03*
X0011973Y0038214D03*
X0011935Y0038214D03*
X0011821Y0038176D03*
X0011783Y0038176D03*
X0011669Y0038138D03*
X0011631Y0038138D03*
X0011517Y0038100D03*
X0011479Y0038100D03*
X0011365Y0038062D03*
X0011327Y0038062D03*
X0011213Y0038024D03*
X0011175Y0038024D03*
X0008667Y0067208D03*
D74*
X0008971Y0068899D03*
X0012885Y0053585D03*
X0008705Y0052559D03*
X0011973Y0050203D03*
X0012087Y0050241D03*
X0012239Y0050317D03*
X0012277Y0050317D03*
X0012315Y0050317D03*
X0012353Y0050355D03*
X0012391Y0050355D03*
X0012505Y0050431D03*
X0012581Y0050469D03*
X0012619Y0050507D03*
X0012657Y0050507D03*
X0012695Y0050545D03*
X0009579Y0049595D03*
X0009427Y0049557D03*
X0009389Y0049557D03*
X0009351Y0049557D03*
X0009313Y0049557D03*
X0009275Y0049557D03*
X0008933Y0049557D03*
X0008895Y0049557D03*
X0008857Y0049557D03*
X0008819Y0049557D03*
X0008781Y0049557D03*
X0013265Y0046099D03*
X0013303Y0046099D03*
X0013341Y0046099D03*
X0013379Y0046099D03*
X0013417Y0046137D03*
X0013455Y0046137D03*
X0013493Y0046137D03*
X0013531Y0046137D03*
X0013569Y0046175D03*
X0013607Y0046175D03*
X0013645Y0046175D03*
X0013683Y0046175D03*
X0013721Y0046213D03*
X0013759Y0046213D03*
X0013797Y0046213D03*
X0013835Y0046213D03*
X0013873Y0046251D03*
X0013911Y0046251D03*
X0013949Y0046251D03*
X0013987Y0046251D03*
X0014025Y0046289D03*
X0014063Y0046289D03*
X0014101Y0046289D03*
X0014139Y0046289D03*
X0014177Y0046327D03*
D75*
X0012923Y0038461D03*
X0012809Y0038423D03*
X0012771Y0038423D03*
X0012657Y0038385D03*
X0012619Y0038385D03*
X0012505Y0038347D03*
X0012467Y0038347D03*
X0012353Y0038309D03*
X0012315Y0038309D03*
X0012201Y0038271D03*
X0012163Y0038271D03*
X0012049Y0038233D03*
X0012011Y0038233D03*
X0011745Y0038157D03*
X0011707Y0038157D03*
X0011593Y0038119D03*
X0011555Y0038119D03*
X0011441Y0038081D03*
X0011403Y0038081D03*
X0011289Y0038043D03*
X0011251Y0038043D03*
X0011137Y0038005D03*
X0011365Y0057879D03*
X0016039Y0059019D03*
X0008705Y0067227D03*
D76*
X0009009Y0068918D03*
X0012771Y0069830D03*
X0012809Y0069830D03*
X0016305Y0079444D03*
X0016343Y0079444D03*
X0016381Y0079444D03*
X0016419Y0079482D03*
X0016457Y0079482D03*
X0016495Y0079482D03*
X0016533Y0079482D03*
X0016723Y0079558D03*
X0016761Y0079558D03*
X0016799Y0079558D03*
X0016837Y0079558D03*
X0016875Y0079596D03*
X0016913Y0079596D03*
X0016951Y0079596D03*
X0016989Y0079596D03*
X0012847Y0053604D03*
X0009579Y0052996D03*
X0008743Y0052616D03*
X0012543Y0050450D03*
D77*
X0011859Y0045890D03*
X0013189Y0060672D03*
X0014253Y0060900D03*
X0014291Y0060900D03*
X0014329Y0060900D03*
X0014367Y0060900D03*
X0008743Y0065840D03*
X0009617Y0072186D03*
D78*
X0011783Y0069735D03*
X0011821Y0069735D03*
X0011935Y0069773D03*
X0011973Y0069773D03*
X0012011Y0069773D03*
X0012125Y0069811D03*
X0012163Y0069811D03*
X0012201Y0069811D03*
X0012239Y0069811D03*
X0012391Y0069849D03*
X0012429Y0069849D03*
X0012467Y0069849D03*
X0012505Y0069849D03*
X0012543Y0069849D03*
X0012581Y0069849D03*
X0012619Y0069849D03*
X0012657Y0069849D03*
X0012695Y0069849D03*
X0012733Y0069849D03*
X0010187Y0069355D03*
X0010035Y0069317D03*
X0009883Y0069279D03*
X0009617Y0069203D03*
X0009503Y0069165D03*
X0009313Y0069089D03*
X0009237Y0069051D03*
X0009161Y0069013D03*
X0009085Y0068975D03*
X0011821Y0053547D03*
X0012809Y0053623D03*
X0009693Y0053015D03*
X0009655Y0053015D03*
X0009617Y0053015D03*
X0009541Y0052977D03*
X0009503Y0052977D03*
X0009465Y0052977D03*
X0009427Y0052939D03*
X0009389Y0052939D03*
X0009351Y0052939D03*
X0009275Y0052901D03*
X0009161Y0052863D03*
X0009085Y0052825D03*
X0009009Y0052787D03*
X0008933Y0052749D03*
X0008857Y0052711D03*
X0008819Y0052673D03*
X0008781Y0052635D03*
D79*
X0012961Y0053509D03*
X0012923Y0050735D03*
X0011593Y0045757D03*
X0011555Y0045719D03*
X0011517Y0045719D03*
X0008857Y0065745D03*
X0008819Y0065745D03*
X0012847Y0066771D03*
X0012885Y0066809D03*
X0012999Y0069735D03*
X0009237Y0071977D03*
X0012847Y0075663D03*
X0012885Y0075701D03*
X0013037Y0075815D03*
X0013075Y0075853D03*
X0013113Y0075891D03*
X0013151Y0075929D03*
X0013189Y0075967D03*
X0013227Y0076005D03*
D80*
X0012353Y0069830D03*
X0012315Y0069830D03*
X0012277Y0069830D03*
X0012087Y0069792D03*
X0012049Y0069792D03*
X0011745Y0069716D03*
X0011707Y0069716D03*
X0010263Y0069374D03*
X0010225Y0069374D03*
X0009997Y0069298D03*
X0009959Y0069298D03*
X0009921Y0069298D03*
X0009845Y0069260D03*
X0009807Y0069260D03*
X0009769Y0069260D03*
X0009731Y0069222D03*
X0009693Y0069222D03*
X0009655Y0069222D03*
X0009579Y0069184D03*
X0009541Y0069184D03*
X0009465Y0069146D03*
X0009427Y0069146D03*
X0009389Y0069108D03*
X0009351Y0069108D03*
X0009275Y0069070D03*
X0009199Y0069032D03*
X0009123Y0068994D03*
X0011859Y0053566D03*
X0011897Y0053566D03*
X0011935Y0053566D03*
X0011973Y0053566D03*
X0011783Y0053528D03*
X0011745Y0053528D03*
X0011707Y0053528D03*
X0012315Y0053642D03*
X0012353Y0053642D03*
X0012695Y0053642D03*
X0012733Y0053642D03*
X0012771Y0053642D03*
X0009313Y0052920D03*
X0009237Y0052882D03*
X0009199Y0052882D03*
X0009123Y0052844D03*
X0009047Y0052806D03*
X0008971Y0052768D03*
X0008895Y0052730D03*
D81*
X0012163Y0050279D03*
X0012201Y0050279D03*
X0012429Y0050393D03*
X0012467Y0050393D03*
X0008933Y0068861D03*
X0012847Y0069811D03*
X0012885Y0069811D03*
D82*
X0009047Y0068956D03*
X0016571Y0079520D03*
X0016609Y0079520D03*
X0016647Y0079520D03*
X0016685Y0079520D03*
X0009731Y0053034D03*
X0009237Y0049538D03*
X0009199Y0049538D03*
X0009161Y0049538D03*
X0009123Y0049538D03*
X0009085Y0049538D03*
X0009047Y0049538D03*
X0009009Y0049538D03*
X0008971Y0049538D03*
D83*
X0011973Y0045966D03*
X0012885Y0060482D03*
X0012923Y0060520D03*
X0014557Y0060824D03*
X0013037Y0067018D03*
X0009693Y0072224D03*
D84*
X0011859Y0069754D03*
X0011897Y0069754D03*
X0014405Y0068804D03*
X0010149Y0069336D03*
X0010111Y0069336D03*
X0010073Y0069336D03*
X0012011Y0053604D03*
X0012049Y0053604D03*
X0012087Y0053604D03*
X0012125Y0053604D03*
X0012163Y0053604D03*
D85*
X0011099Y0057575D03*
X0010187Y0073421D03*
D86*
X0011745Y0058164D03*
X0011441Y0051704D03*
X0011327Y0051666D03*
X0011289Y0051666D03*
X0011251Y0051666D03*
X0011175Y0051628D03*
X0011137Y0051628D03*
X0011099Y0051628D03*
X0011061Y0051590D03*
X0011023Y0051590D03*
X0010985Y0051590D03*
X0010947Y0051590D03*
X0010909Y0051552D03*
X0010871Y0051552D03*
X0010833Y0051552D03*
X0010795Y0051552D03*
X0010757Y0051514D03*
X0010719Y0051514D03*
X0010681Y0051514D03*
X0010643Y0051514D03*
X0010605Y0051476D03*
X0010567Y0051476D03*
X0010529Y0051476D03*
X0010491Y0051476D03*
X0010453Y0051438D03*
D87*
X0013417Y0052274D03*
X0016343Y0058772D03*
X0013645Y0068500D03*
X0010567Y0073440D03*
X0010529Y0073440D03*
D88*
X0010719Y0073421D03*
X0010757Y0073421D03*
X0010795Y0073421D03*
X0010833Y0073421D03*
X0011859Y0073687D03*
X0011897Y0073687D03*
X0011935Y0073725D03*
X0013683Y0068519D03*
X0013493Y0052293D03*
D89*
X0010909Y0057176D03*
D90*
X0010947Y0057271D03*
X0016419Y0058639D03*
X0013645Y0052331D03*
X0013835Y0068557D03*
X0011555Y0073497D03*
X0011251Y0073421D03*
X0011213Y0073421D03*
X0011175Y0073421D03*
D91*
X0013379Y0068424D03*
X0016229Y0058924D03*
X0011175Y0057670D03*
D92*
X0015621Y0059133D03*
X0015659Y0059133D03*
X0011669Y0051761D03*
X0011631Y0051761D03*
X0011213Y0051647D03*
D93*
X0011213Y0057727D03*
D94*
X0012999Y0047030D03*
X0013037Y0047030D03*
X0013075Y0047030D03*
X0012923Y0046992D03*
X0012885Y0046992D03*
X0012847Y0046992D03*
X0012619Y0046916D03*
X0012581Y0046916D03*
X0012543Y0046916D03*
X0012467Y0046878D03*
X0012429Y0046878D03*
X0012391Y0046878D03*
X0011289Y0073402D03*
X0011517Y0073478D03*
D95*
X0011707Y0058145D03*
X0011555Y0051723D03*
X0011517Y0051723D03*
X0011479Y0051723D03*
X0011403Y0051685D03*
X0011365Y0051685D03*
D96*
X0011403Y0057917D03*
X0015963Y0059057D03*
D97*
X0013721Y0052350D03*
X0011403Y0073402D03*
D98*
X0015925Y0059076D03*
X0011441Y0057936D03*
D99*
X0011479Y0057993D03*
X0015925Y0039297D03*
X0015469Y0039183D03*
X0015127Y0039107D03*
X0014671Y0038993D03*
X0016381Y0039411D03*
D100*
X0016419Y0039430D03*
X0016457Y0039430D03*
X0016343Y0039392D03*
X0016305Y0039392D03*
X0016267Y0039392D03*
X0016191Y0039354D03*
X0016153Y0039354D03*
X0016115Y0039354D03*
X0016039Y0039316D03*
X0016001Y0039316D03*
X0015963Y0039316D03*
X0015887Y0039278D03*
X0015849Y0039278D03*
X0015811Y0039278D03*
X0015735Y0039240D03*
X0015697Y0039240D03*
X0015659Y0039240D03*
X0015583Y0039202D03*
X0015545Y0039202D03*
X0015507Y0039202D03*
X0015431Y0039164D03*
X0015393Y0039164D03*
X0015355Y0039164D03*
X0015241Y0039126D03*
X0015203Y0039126D03*
X0015165Y0039126D03*
X0015089Y0039088D03*
X0015051Y0039088D03*
X0015013Y0039088D03*
X0014937Y0039050D03*
X0014899Y0039050D03*
X0014861Y0039050D03*
X0014785Y0039012D03*
X0014747Y0039012D03*
X0014709Y0039012D03*
X0014633Y0038974D03*
X0014595Y0038974D03*
X0011517Y0058012D03*
X0015887Y0059076D03*
D101*
X0015773Y0059114D03*
X0011555Y0058050D03*
D102*
X0011669Y0058126D03*
X0015697Y0059114D03*
X0015735Y0059114D03*
X0011593Y0051742D03*
D103*
X0011593Y0058069D03*
X0011631Y0058107D03*
D104*
X0013569Y0052312D03*
X0011707Y0073592D03*
D105*
X0015545Y0059133D03*
X0015583Y0059133D03*
X0011783Y0058221D03*
D106*
X0011821Y0058240D03*
D107*
X0011821Y0073668D03*
D108*
X0011859Y0038195D03*
X0011897Y0038195D03*
D109*
X0011859Y0058259D03*
X0011935Y0058297D03*
X0015431Y0059133D03*
D110*
X0015393Y0059152D03*
X0015355Y0059152D03*
X0015317Y0059152D03*
X0011973Y0058316D03*
X0011897Y0058278D03*
D111*
X0012011Y0046004D03*
D112*
X0012011Y0058335D03*
D113*
X0012049Y0058354D03*
D114*
X0012087Y0058392D03*
X0015165Y0059152D03*
X0015203Y0059152D03*
X0015241Y0059152D03*
X0015279Y0059152D03*
D115*
X0015127Y0059133D03*
X0012163Y0058411D03*
X0012125Y0058411D03*
D116*
X0014215Y0068728D03*
X0012201Y0046346D03*
D117*
X0012201Y0053623D03*
X0012239Y0053623D03*
X0012277Y0053623D03*
X0012391Y0053661D03*
X0012429Y0053661D03*
X0012467Y0053661D03*
X0012505Y0053661D03*
X0012543Y0053661D03*
X0012581Y0053661D03*
X0012619Y0053661D03*
X0012657Y0053661D03*
D118*
X0012201Y0058430D03*
X0012239Y0058468D03*
D119*
X0012239Y0048835D03*
D120*
X0012277Y0058487D03*
X0012315Y0058487D03*
X0014861Y0059133D03*
X0014899Y0059133D03*
X0014937Y0059133D03*
X0014975Y0059133D03*
D121*
X0014823Y0059114D03*
X0014785Y0059114D03*
X0014747Y0059114D03*
X0012429Y0058544D03*
X0012391Y0058544D03*
X0012353Y0058506D03*
D122*
X0012467Y0058563D03*
X0012505Y0058563D03*
D123*
X0012543Y0058601D03*
D124*
X0012581Y0058620D03*
D125*
X0012695Y0060292D03*
D126*
X0012847Y0060463D03*
X0014595Y0060805D03*
D127*
X0013075Y0068329D03*
D128*
X0013113Y0052179D03*
D129*
X0016115Y0059000D03*
X0013151Y0068348D03*
X0013113Y0068348D03*
D130*
X0013227Y0068386D03*
X0013265Y0068386D03*
D131*
X0013379Y0048246D03*
D132*
X0013417Y0048265D03*
D133*
X0013455Y0048284D03*
X0013493Y0048322D03*
X0013531Y0048322D03*
D134*
X0013569Y0048341D03*
D135*
X0013607Y0048360D03*
X0013645Y0048398D03*
D136*
X0013683Y0048417D03*
D137*
X0013721Y0048436D03*
D138*
X0014481Y0068937D03*
X0013721Y0078817D03*
X0013873Y0078855D03*
X0014025Y0078893D03*
X0014177Y0078931D03*
X0014329Y0078969D03*
X0014481Y0079007D03*
X0014633Y0079045D03*
X0014785Y0079083D03*
X0014823Y0079083D03*
X0014937Y0079121D03*
X0014975Y0079121D03*
X0015089Y0079159D03*
X0015127Y0079159D03*
X0015241Y0079197D03*
X0015279Y0079197D03*
X0015393Y0079235D03*
X0015431Y0079235D03*
X0015545Y0079273D03*
X0015583Y0079273D03*
X0015697Y0079311D03*
X0015735Y0079311D03*
X0015849Y0079349D03*
X0015887Y0079349D03*
X0016001Y0079387D03*
X0016039Y0079387D03*
X0016153Y0079425D03*
X0016191Y0079425D03*
X0014329Y0081743D03*
X0014291Y0081743D03*
D139*
X0013721Y0081591D03*
D140*
X0013797Y0048493D03*
X0013759Y0048455D03*
D141*
X0013759Y0081610D03*
X0013797Y0081610D03*
X0013873Y0081648D03*
X0013911Y0081648D03*
D142*
X0013797Y0068557D03*
D143*
X0013797Y0080451D03*
X0013949Y0080489D03*
X0014101Y0080527D03*
X0014253Y0080565D03*
X0014405Y0080603D03*
X0014557Y0080641D03*
X0014709Y0080679D03*
X0014861Y0080717D03*
X0015013Y0080755D03*
X0015165Y0080793D03*
X0015203Y0080793D03*
X0015317Y0080831D03*
X0015355Y0080831D03*
X0015469Y0080869D03*
X0015507Y0080869D03*
X0015621Y0080907D03*
X0015659Y0080907D03*
X0015773Y0080945D03*
X0015811Y0080945D03*
X0015925Y0080983D03*
X0015963Y0080983D03*
X0014139Y0081705D03*
X0014101Y0081705D03*
X0013835Y0082807D03*
X0013987Y0082845D03*
X0014139Y0082883D03*
X0015241Y0083149D03*
X0015393Y0083187D03*
X0015545Y0083225D03*
X0015697Y0083263D03*
X0015849Y0083301D03*
X0014329Y0049025D03*
D144*
X0013835Y0052388D03*
D145*
X0013835Y0081629D03*
D146*
X0013873Y0048550D03*
D147*
X0013873Y0052407D03*
D148*
X0013873Y0068595D03*
D149*
X0013911Y0052407D03*
D150*
X0014367Y0052616D03*
X0013987Y0078874D03*
X0013949Y0078874D03*
X0013911Y0078874D03*
X0014367Y0078988D03*
X0014405Y0078988D03*
X0014443Y0078988D03*
X0014861Y0079102D03*
X0014899Y0079102D03*
X0015317Y0079216D03*
X0015355Y0079216D03*
X0015621Y0079292D03*
X0015659Y0079292D03*
X0015773Y0079330D03*
X0015811Y0079330D03*
X0016077Y0079406D03*
X0016115Y0079406D03*
X0014253Y0081724D03*
X0014215Y0081724D03*
X0014177Y0081724D03*
D151*
X0013949Y0052426D03*
D152*
X0013949Y0081667D03*
X0013987Y0081667D03*
D153*
X0013987Y0048645D03*
D154*
X0013987Y0052426D03*
D155*
X0014025Y0048664D03*
X0016039Y0081306D03*
X0016077Y0081306D03*
X0016115Y0081306D03*
X0016039Y0083054D03*
X0016001Y0083054D03*
X0016153Y0083092D03*
D156*
X0014025Y0068652D03*
D157*
X0016077Y0083073D03*
X0016115Y0083073D03*
X0016305Y0083149D03*
X0014063Y0048683D03*
D158*
X0014101Y0048740D03*
X0016305Y0081344D03*
X0016343Y0081344D03*
X0016381Y0081344D03*
X0016419Y0081344D03*
X0016457Y0081382D03*
X0016495Y0081382D03*
X0016533Y0081382D03*
X0016571Y0081382D03*
X0016267Y0083130D03*
X0016343Y0083168D03*
X0016381Y0083168D03*
X0016457Y0083206D03*
X0016495Y0083206D03*
D159*
X0016685Y0083282D03*
X0016723Y0083282D03*
X0016761Y0083320D03*
X0016799Y0083320D03*
X0016837Y0083320D03*
X0016913Y0083358D03*
X0016875Y0081420D03*
X0016837Y0081420D03*
X0016799Y0081420D03*
X0016761Y0081420D03*
X0014139Y0048778D03*
D160*
X0014139Y0068671D03*
D161*
X0016913Y0081439D03*
X0016951Y0081439D03*
X0016989Y0081439D03*
X0016875Y0083339D03*
X0015051Y0081933D03*
X0014177Y0048797D03*
D162*
X0014177Y0068690D03*
D163*
X0014861Y0081895D03*
X0014899Y0081895D03*
X0014937Y0081895D03*
X0014215Y0048835D03*
D164*
X0014253Y0048911D03*
X0014709Y0081857D03*
X0014747Y0081857D03*
D165*
X0014405Y0081762D03*
X0014367Y0081762D03*
X0014291Y0048968D03*
D166*
X0014291Y0068747D03*
D167*
X0014329Y0068747D03*
D168*
X0015089Y0081629D03*
X0015127Y0081629D03*
X0015165Y0081629D03*
X0015203Y0081629D03*
X0015241Y0081667D03*
X0015279Y0081667D03*
X0015317Y0081667D03*
X0015355Y0081667D03*
X0015393Y0081667D03*
X0015431Y0081667D03*
X0015469Y0081667D03*
X0015507Y0081667D03*
X0015545Y0081667D03*
X0015583Y0081667D03*
X0015621Y0081667D03*
X0015659Y0081667D03*
X0015697Y0081667D03*
X0015735Y0081667D03*
X0015773Y0081667D03*
X0015811Y0081667D03*
X0015887Y0081705D03*
X0015925Y0081705D03*
X0015963Y0081705D03*
X0016001Y0081705D03*
X0015621Y0082465D03*
X0015583Y0082465D03*
X0015659Y0082503D03*
X0015697Y0082503D03*
X0015735Y0082541D03*
X0015773Y0082541D03*
X0015849Y0082579D03*
X0015925Y0082617D03*
X0015963Y0082617D03*
X0015507Y0082427D03*
X0015469Y0082427D03*
X0015431Y0082389D03*
X0015393Y0082389D03*
X0015355Y0082351D03*
X0015317Y0082351D03*
X0015279Y0082313D03*
X0015241Y0082313D03*
X0015165Y0082275D03*
X0015127Y0082275D03*
X0015089Y0082237D03*
X0014367Y0049139D03*
D169*
X0014443Y0068861D03*
D170*
X0014443Y0081781D03*
X0014481Y0081781D03*
D171*
X0014519Y0081800D03*
X0014633Y0081838D03*
X0014671Y0081838D03*
D172*
X0014595Y0081819D03*
X0014557Y0081819D03*
D173*
X0014785Y0081876D03*
X0014823Y0081876D03*
D174*
X0016229Y0039373D03*
X0016077Y0039335D03*
X0015773Y0039259D03*
X0015621Y0039221D03*
X0015317Y0039145D03*
X0015279Y0039145D03*
X0014975Y0039069D03*
X0014823Y0039031D03*
D175*
X0014975Y0081914D03*
X0015013Y0081914D03*
D176*
X0015013Y0059152D03*
X0015051Y0059152D03*
X0015089Y0059152D03*
D177*
X0015203Y0082294D03*
X0015545Y0082446D03*
X0015811Y0082560D03*
X0015887Y0082598D03*
D178*
X0015507Y0059152D03*
X0015469Y0059152D03*
D179*
X0015811Y0059095D03*
X0015849Y0059095D03*
D180*
X0015849Y0081686D03*
D181*
X0016001Y0059038D03*
D182*
X0016153Y0081325D03*
X0016191Y0081325D03*
X0016229Y0081325D03*
X0016267Y0081325D03*
X0016229Y0083111D03*
X0016191Y0083111D03*
D183*
X0016419Y0083187D03*
X0016533Y0083225D03*
X0016571Y0083225D03*
X0016609Y0083263D03*
X0016647Y0083263D03*
X0016647Y0081401D03*
X0016609Y0081401D03*
X0016685Y0081401D03*
X0016723Y0081401D03*
D184*
X0016457Y0058506D03*
D185*
X0016951Y0083377D03*
X0016989Y0083377D03*
D186*
X0083282Y0010400D03*
X0082532Y0007650D03*
X0082682Y0007100D03*
X0082682Y0007050D03*
X0082682Y0007000D03*
X0082682Y0006950D03*
X0082682Y0006900D03*
X0082682Y0006850D03*
X0082682Y0006800D03*
X0082682Y0006750D03*
X0082682Y0006700D03*
X0082682Y0006450D03*
X0082682Y0006400D03*
X0082682Y0006350D03*
X0082682Y0006300D03*
X0082682Y0006250D03*
X0082682Y0006200D03*
X0082682Y0006150D03*
X0082682Y0006100D03*
X0082682Y0006050D03*
X0083432Y0006050D03*
X0083432Y0006100D03*
X0083432Y0006150D03*
X0083432Y0006200D03*
X0083432Y0006250D03*
X0083432Y0006300D03*
X0083432Y0006350D03*
X0083432Y0006400D03*
X0083432Y0006450D03*
X0083432Y0006700D03*
X0083432Y0006750D03*
X0083432Y0006800D03*
X0083432Y0006850D03*
X0083432Y0006900D03*
X0083432Y0006950D03*
X0083432Y0007000D03*
X0083432Y0007050D03*
X0083432Y0007100D03*
X0086082Y0006900D03*
X0086082Y0006850D03*
X0086082Y0006800D03*
X0086082Y0006350D03*
X0086082Y0006300D03*
X0086432Y0006000D03*
X0086782Y0006300D03*
X0086782Y0006350D03*
X0086832Y0006450D03*
X0086832Y0006500D03*
X0086832Y0006550D03*
X0086832Y0006600D03*
X0086832Y0006650D03*
X0086832Y0006700D03*
X0086782Y0006800D03*
X0086782Y0006850D03*
X0087432Y0007650D03*
X0090032Y0006900D03*
X0090032Y0006850D03*
X0090032Y0006800D03*
X0090032Y0006750D03*
X0090032Y0006700D03*
X0090032Y0006450D03*
X0090032Y0006400D03*
X0090032Y0006350D03*
X0090032Y0006300D03*
X0090032Y0006250D03*
X0092932Y0006250D03*
X0092932Y0006300D03*
X0092932Y0006350D03*
X0092932Y0006400D03*
X0092932Y0006450D03*
X0092932Y0006500D03*
X0092932Y0006550D03*
X0092932Y0006600D03*
X0092932Y0006650D03*
X0092932Y0006700D03*
X0092932Y0006750D03*
X0092932Y0006800D03*
X0092932Y0006850D03*
X0092932Y0006900D03*
X0092932Y0006200D03*
X0092932Y0006150D03*
X0092932Y0006100D03*
X0092932Y0006050D03*
X0089632Y0010400D03*
X0079982Y0006700D03*
X0079982Y0006650D03*
X0079982Y0006600D03*
X0079982Y0006550D03*
X0079982Y0006500D03*
X0079982Y0006450D03*
X0079982Y0006400D03*
X0079982Y0006350D03*
X0079982Y0006300D03*
X0079982Y0006250D03*
X0079982Y0006200D03*
X0079982Y0006150D03*
X0079982Y0006100D03*
X0079982Y0006050D03*
X0079532Y0006400D03*
X0079532Y0006450D03*
X0079582Y0006500D03*
X0079582Y0006550D03*
X0079632Y0006600D03*
X0079632Y0006650D03*
X0079682Y0006700D03*
X0079232Y0006700D03*
X0079232Y0006750D03*
X0079232Y0006800D03*
X0079232Y0006850D03*
X0079232Y0006900D03*
X0079232Y0006950D03*
X0079232Y0007000D03*
X0079232Y0007050D03*
X0079232Y0007100D03*
X0079232Y0006650D03*
X0079232Y0006600D03*
X0079232Y0006550D03*
X0079232Y0006500D03*
X0079232Y0006450D03*
X0079232Y0006400D03*
X0076582Y0006450D03*
X0076582Y0006500D03*
X0076582Y0006550D03*
X0076582Y0006600D03*
X0076582Y0006650D03*
X0076582Y0006700D03*
X0076532Y0006800D03*
X0076532Y0006850D03*
X0076532Y0006350D03*
X0076482Y0006250D03*
X0076132Y0006000D03*
X0075782Y0006300D03*
X0075732Y0006400D03*
X0075732Y0006450D03*
X0075732Y0006500D03*
X0075732Y0006550D03*
X0075732Y0006600D03*
X0075732Y0006650D03*
X0075732Y0006700D03*
X0075732Y0006750D03*
X0075732Y0006800D03*
X0075782Y0006850D03*
X0073082Y0006850D03*
X0073082Y0006900D03*
X0073082Y0006950D03*
X0073082Y0007000D03*
X0073082Y0007050D03*
X0073082Y0007100D03*
X0073082Y0006800D03*
X0073082Y0006750D03*
X0073082Y0006700D03*
X0073082Y0006650D03*
X0073082Y0006600D03*
X0073082Y0006550D03*
X0073082Y0006500D03*
X0073082Y0006450D03*
X0073082Y0006400D03*
X0073082Y0006350D03*
X0073082Y0006300D03*
X0073082Y0006250D03*
X0069982Y0006400D03*
X0069982Y0006450D03*
X0069982Y0006500D03*
X0069982Y0006550D03*
X0069982Y0006600D03*
X0069982Y0006650D03*
X0069982Y0006700D03*
X0069982Y0006750D03*
X0069932Y0006850D03*
X0069932Y0006350D03*
X0069932Y0006300D03*
X0069532Y0006000D03*
X0069182Y0006300D03*
X0069132Y0006400D03*
X0069132Y0006450D03*
X0069132Y0006500D03*
X0069132Y0006550D03*
X0069132Y0006600D03*
X0069132Y0006650D03*
X0069132Y0006700D03*
X0069132Y0006750D03*
X0069182Y0006850D03*
X0066532Y0006800D03*
X0066532Y0006750D03*
X0066532Y0006700D03*
X0066532Y0006450D03*
X0066532Y0006400D03*
X0066532Y0006350D03*
X0066182Y0006000D03*
X0065782Y0006300D03*
X0065782Y0006350D03*
X0065782Y0006400D03*
X0065782Y0006800D03*
X0065782Y0006850D03*
X0064132Y0008300D03*
X0063182Y0007100D03*
X0063132Y0007000D03*
X0063082Y0006900D03*
X0063032Y0006800D03*
X0062982Y0006750D03*
X0062982Y0006700D03*
X0062832Y0006450D03*
X0062832Y0006400D03*
X0062832Y0006350D03*
X0062832Y0006300D03*
X0062832Y0006250D03*
X0062832Y0006200D03*
X0062832Y0006150D03*
X0062832Y0006100D03*
X0062832Y0006050D03*
X0062682Y0006700D03*
X0062682Y0006750D03*
X0062632Y0006800D03*
X0062632Y0006850D03*
X0062582Y0006900D03*
X0062532Y0007000D03*
X0062482Y0007100D03*
D187*
X0062732Y0008200D03*
X0063932Y0008150D03*
X0064032Y0009500D03*
X0063982Y0009900D03*
X0065532Y0009850D03*
X0065532Y0009200D03*
X0066132Y0007000D03*
X0069532Y0007000D03*
X0070982Y0007650D03*
X0071032Y0007700D03*
X0071082Y0007750D03*
X0071132Y0007800D03*
X0071382Y0008100D03*
X0071432Y0008150D03*
X0071482Y0008200D03*
X0071532Y0008250D03*
X0071832Y0008600D03*
X0071882Y0008650D03*
X0071932Y0008700D03*
X0071932Y0009450D03*
X0071882Y0009500D03*
X0071832Y0009550D03*
X0071482Y0009950D03*
X0071432Y0010000D03*
X0071382Y0010050D03*
X0071332Y0010100D03*
X0071132Y0010350D03*
X0071082Y0010400D03*
X0071032Y0010450D03*
X0074182Y0008200D03*
X0075482Y0009500D03*
X0075432Y0009900D03*
X0076132Y0007000D03*
X0072782Y0006200D03*
X0072782Y0006150D03*
X0072782Y0006100D03*
X0072782Y0006050D03*
X0082532Y0008300D03*
X0082532Y0008350D03*
X0084082Y0008350D03*
X0087732Y0008250D03*
X0089332Y0009850D03*
X0089732Y0006200D03*
X0089732Y0006150D03*
X0089732Y0006100D03*
X0089732Y0006050D03*
D188*
X0087582Y0007950D03*
X0086432Y0006050D03*
X0084082Y0008000D03*
X0082532Y0008000D03*
X0079832Y0006750D03*
X0076132Y0006050D03*
X0069532Y0006050D03*
X0062782Y0009850D03*
X0089482Y0010150D03*
D189*
X0089582Y0010300D03*
X0087482Y0007750D03*
X0082532Y0007750D03*
X0082532Y0007800D03*
X0079932Y0007100D03*
X0079932Y0007050D03*
X0079282Y0006100D03*
X0079282Y0006050D03*
X0076432Y0006200D03*
X0076132Y0007150D03*
X0074182Y0009800D03*
X0069832Y0006200D03*
X0066432Y0006200D03*
X0065832Y0006200D03*
X0066132Y0007150D03*
X0062832Y0006550D03*
X0062832Y0006500D03*
X0062732Y0009800D03*
D190*
X0064082Y0008250D03*
X0062832Y0006650D03*
X0062832Y0006600D03*
X0065882Y0006600D03*
X0065882Y0006550D03*
X0065882Y0006500D03*
X0065882Y0006450D03*
X0066182Y0006050D03*
X0079332Y0006200D03*
X0079332Y0006250D03*
X0079882Y0006850D03*
X0079882Y0006900D03*
X0082532Y0007900D03*
X0084082Y0007900D03*
X0083282Y0010150D03*
X0087532Y0007850D03*
X0089532Y0010250D03*
D191*
X0089657Y0010450D03*
X0087407Y0007600D03*
X0086057Y0006400D03*
X0084057Y0007600D03*
X0084057Y0007650D03*
X0082557Y0007600D03*
X0083307Y0010450D03*
X0065757Y0006100D03*
X0065757Y0006050D03*
X0062657Y0009750D03*
D192*
X0062657Y0008500D03*
X0062657Y0008450D03*
X0062657Y0008400D03*
X0062657Y0008350D03*
X0062657Y0008300D03*
X0064107Y0009600D03*
X0064107Y0009650D03*
X0064107Y0009700D03*
X0064107Y0009750D03*
X0064107Y0009800D03*
X0065407Y0009700D03*
X0065407Y0009650D03*
X0065407Y0009600D03*
X0065407Y0009450D03*
X0065407Y0009400D03*
X0065407Y0009350D03*
X0065807Y0008300D03*
X0065757Y0008200D03*
X0065707Y0008100D03*
X0065657Y0008000D03*
X0065607Y0007900D03*
X0065507Y0007650D03*
X0065457Y0007600D03*
X0066907Y0007650D03*
X0066907Y0007700D03*
X0066907Y0007750D03*
X0066907Y0007800D03*
X0066907Y0007850D03*
X0066907Y0007900D03*
X0066907Y0007950D03*
X0066907Y0008000D03*
X0066907Y0008050D03*
X0066907Y0008100D03*
X0066907Y0008150D03*
X0066907Y0008200D03*
X0066907Y0008250D03*
X0066907Y0008300D03*
X0066907Y0008350D03*
X0066907Y0008400D03*
X0066907Y0008450D03*
X0066907Y0008500D03*
X0066907Y0009200D03*
X0066907Y0009250D03*
X0066907Y0009300D03*
X0066907Y0009750D03*
X0066907Y0009800D03*
X0066907Y0009850D03*
X0069557Y0006100D03*
X0074107Y0008300D03*
X0074107Y0008350D03*
X0074107Y0008400D03*
X0074107Y0008450D03*
X0074107Y0008500D03*
X0074857Y0007550D03*
X0075557Y0009600D03*
X0075557Y0009650D03*
X0075557Y0009700D03*
X0075557Y0009750D03*
X0075557Y0009800D03*
X0076157Y0006100D03*
X0082107Y0009100D03*
X0082107Y0009150D03*
X0082057Y0009200D03*
X0082057Y0009250D03*
X0082007Y0009300D03*
X0082007Y0009350D03*
X0081957Y0009450D03*
X0081907Y0009550D03*
X0081907Y0009600D03*
X0081857Y0009700D03*
X0081807Y0009800D03*
X0081707Y0010050D03*
X0081657Y0010150D03*
X0081607Y0010250D03*
X0081557Y0010350D03*
X0081557Y0010400D03*
X0081507Y0010450D03*
X0082157Y0009050D03*
X0082157Y0009000D03*
X0082557Y0008150D03*
X0084057Y0008150D03*
X0084457Y0009000D03*
X0084457Y0009050D03*
X0084507Y0009100D03*
X0084507Y0009150D03*
X0084557Y0009200D03*
X0084557Y0009250D03*
X0084607Y0009350D03*
X0084607Y0009400D03*
X0084657Y0009450D03*
X0084657Y0009500D03*
X0084707Y0009600D03*
X0084757Y0009700D03*
X0084907Y0010050D03*
X0084957Y0010150D03*
X0085057Y0010400D03*
X0083307Y0009900D03*
X0083307Y0009850D03*
X0086407Y0007050D03*
X0086407Y0006100D03*
X0087657Y0008100D03*
X0087657Y0009100D03*
X0087657Y0009150D03*
X0087657Y0009200D03*
X0087657Y0009250D03*
X0087657Y0009300D03*
X0087657Y0009350D03*
X0087657Y0009400D03*
X0087657Y0009450D03*
X0087657Y0009500D03*
X0087657Y0009550D03*
X0087657Y0009600D03*
X0087657Y0009650D03*
X0087657Y0009700D03*
X0087657Y0009750D03*
X0087657Y0009800D03*
X0087657Y0009850D03*
X0087657Y0009900D03*
X0087657Y0009950D03*
X0087657Y0010000D03*
X0087657Y0010050D03*
X0087657Y0010100D03*
X0087657Y0010150D03*
X0087657Y0010200D03*
X0087657Y0010250D03*
X0087657Y0010300D03*
X0089407Y0010000D03*
X0093007Y0009850D03*
X0093007Y0009800D03*
X0093007Y0009750D03*
X0093007Y0009700D03*
X0093007Y0009650D03*
X0093007Y0009600D03*
X0093007Y0009550D03*
X0093007Y0009500D03*
X0093007Y0009450D03*
X0093007Y0009400D03*
X0093007Y0009350D03*
X0093007Y0009300D03*
X0093007Y0009250D03*
X0093007Y0009200D03*
X0093007Y0009150D03*
X0093007Y0009100D03*
X0093007Y0009050D03*
X0093007Y0009000D03*
X0093007Y0008950D03*
X0093007Y0008900D03*
X0093007Y0008850D03*
X0093007Y0008800D03*
X0093007Y0008750D03*
X0093007Y0008700D03*
X0093007Y0008650D03*
X0093007Y0008600D03*
X0093007Y0008550D03*
X0093007Y0008500D03*
X0093007Y0008450D03*
X0093007Y0008400D03*
X0093007Y0008350D03*
X0093007Y0008300D03*
X0093007Y0008250D03*
X0093007Y0008200D03*
X0093007Y0008150D03*
X0093007Y0008100D03*
X0093007Y0008050D03*
X0093007Y0008000D03*
X0093007Y0007950D03*
X0093007Y0007900D03*
X0093007Y0007850D03*
X0093007Y0007800D03*
X0093007Y0007750D03*
X0093007Y0007700D03*
X0093007Y0007650D03*
X0093007Y0007600D03*
D193*
X0089457Y0010100D03*
X0087607Y0008000D03*
X0086407Y0007100D03*
X0084057Y0008050D03*
X0082557Y0008050D03*
X0083307Y0009950D03*
X0083307Y0010000D03*
X0078457Y0010000D03*
X0078457Y0010050D03*
X0078457Y0010100D03*
X0078457Y0010150D03*
X0078457Y0010200D03*
X0078457Y0010250D03*
X0078457Y0010300D03*
X0078457Y0010350D03*
X0078457Y0010400D03*
X0078457Y0010450D03*
X0078457Y0009950D03*
X0078457Y0009900D03*
X0078457Y0009850D03*
X0078457Y0009800D03*
X0078457Y0009750D03*
X0078457Y0009700D03*
X0078457Y0009650D03*
X0078457Y0009600D03*
X0078457Y0009550D03*
X0078457Y0009500D03*
X0078457Y0009450D03*
X0078457Y0009400D03*
X0078457Y0009350D03*
X0076157Y0007100D03*
X0069557Y0007100D03*
X0066107Y0007100D03*
X0066207Y0006100D03*
X0064057Y0008200D03*
D194*
X0062707Y0008600D03*
X0062907Y0009900D03*
X0069557Y0006150D03*
X0070957Y0007600D03*
X0071157Y0007850D03*
X0071207Y0007900D03*
X0071257Y0007950D03*
X0071307Y0008000D03*
X0071357Y0008050D03*
X0071557Y0008300D03*
X0071607Y0008350D03*
X0071657Y0008400D03*
X0071707Y0008450D03*
X0071757Y0008500D03*
X0071807Y0008550D03*
X0071807Y0009600D03*
X0071757Y0009650D03*
X0071707Y0009700D03*
X0071657Y0009750D03*
X0071607Y0009800D03*
X0071557Y0009850D03*
X0071507Y0009900D03*
X0071307Y0010150D03*
X0071257Y0010200D03*
X0071207Y0010250D03*
X0071157Y0010300D03*
X0074357Y0009900D03*
X0074157Y0008600D03*
X0076157Y0006150D03*
X0083307Y0009700D03*
X0083307Y0009750D03*
X0084057Y0008300D03*
X0084057Y0008250D03*
X0086407Y0007000D03*
X0086407Y0006150D03*
X0087707Y0008200D03*
X0089757Y0007100D03*
X0089757Y0007050D03*
X0089757Y0007000D03*
X0089757Y0006950D03*
X0089757Y0006650D03*
X0089757Y0006600D03*
X0089757Y0006550D03*
X0089757Y0006500D03*
X0089357Y0009900D03*
D195*
X0087507Y0007800D03*
X0086407Y0007150D03*
X0084057Y0007800D03*
X0084057Y0007850D03*
X0082557Y0007850D03*
X0079907Y0007000D03*
X0079907Y0006950D03*
X0079307Y0006150D03*
X0075557Y0008250D03*
X0069557Y0007150D03*
X0083307Y0010200D03*
X0083307Y0010250D03*
D196*
X0083307Y0009650D03*
X0083307Y0009600D03*
X0084057Y0008400D03*
X0082557Y0008400D03*
X0089307Y0009800D03*
X0075407Y0009450D03*
X0075357Y0008150D03*
X0074207Y0008650D03*
X0066107Y0006150D03*
X0062757Y0008650D03*
X0063957Y0009450D03*
D197*
X0063157Y0007050D03*
X0063107Y0006950D03*
X0063057Y0006850D03*
X0062557Y0006950D03*
X0062507Y0007050D03*
X0065807Y0006900D03*
X0065857Y0006950D03*
X0066407Y0006950D03*
X0066457Y0006900D03*
X0066507Y0006850D03*
X0066557Y0006650D03*
X0066557Y0006600D03*
X0066557Y0006550D03*
X0066557Y0006500D03*
X0066507Y0006300D03*
X0066457Y0006250D03*
X0065807Y0006250D03*
X0069157Y0006350D03*
X0069207Y0006250D03*
X0069257Y0006200D03*
X0069157Y0006800D03*
X0069207Y0006900D03*
X0069257Y0006950D03*
X0069857Y0006950D03*
X0069907Y0006900D03*
X0069957Y0006800D03*
X0069907Y0006250D03*
X0075757Y0006350D03*
X0075807Y0006250D03*
X0075857Y0006200D03*
X0076507Y0006300D03*
X0076557Y0006400D03*
X0076557Y0006750D03*
X0076507Y0006900D03*
X0076457Y0006950D03*
X0075857Y0006950D03*
X0075807Y0006900D03*
X0075607Y0008300D03*
X0082557Y0007700D03*
X0084057Y0007700D03*
X0084057Y0007750D03*
X0086107Y0006950D03*
X0086707Y0006950D03*
X0086757Y0006900D03*
X0086807Y0006750D03*
X0086807Y0006400D03*
X0086757Y0006250D03*
X0086707Y0006200D03*
X0086157Y0006200D03*
X0086107Y0006250D03*
X0087457Y0007700D03*
X0089607Y0010350D03*
X0083307Y0010350D03*
X0083307Y0010300D03*
D198*
X0083307Y0010100D03*
X0083307Y0010050D03*
X0084057Y0007950D03*
X0082557Y0007950D03*
X0079857Y0006800D03*
X0079357Y0006350D03*
X0079357Y0006300D03*
X0074257Y0009850D03*
X0087557Y0007900D03*
X0089507Y0010200D03*
D199*
X0089257Y0009700D03*
X0087807Y0008350D03*
X0084057Y0008500D03*
X0083307Y0009500D03*
X0083307Y0009550D03*
X0082557Y0008500D03*
X0083057Y0006650D03*
X0083057Y0006600D03*
X0083057Y0006550D03*
X0083057Y0006500D03*
D200*
X0082532Y0008450D03*
X0084082Y0008450D03*
X0087782Y0008300D03*
X0089282Y0009750D03*
X0092932Y0007100D03*
X0092932Y0007050D03*
X0092932Y0007000D03*
X0092932Y0006950D03*
D201*
X0089382Y0009950D03*
X0087682Y0008150D03*
X0084582Y0009300D03*
X0084682Y0009550D03*
X0084732Y0009650D03*
X0084782Y0009750D03*
X0084782Y0009800D03*
X0084832Y0009850D03*
X0084832Y0009900D03*
X0084882Y0009950D03*
X0084882Y0010000D03*
X0084932Y0010100D03*
X0084982Y0010200D03*
X0084982Y0010250D03*
X0085032Y0010300D03*
X0085032Y0010350D03*
X0085082Y0010450D03*
X0083282Y0009800D03*
X0081982Y0009400D03*
X0081932Y0009500D03*
X0081882Y0009650D03*
X0081832Y0009750D03*
X0081782Y0009850D03*
X0081782Y0009900D03*
X0081732Y0009950D03*
X0081732Y0010000D03*
X0081682Y0010100D03*
X0081632Y0010200D03*
X0081582Y0010300D03*
X0082532Y0008250D03*
X0082532Y0008200D03*
X0084082Y0008200D03*
X0076132Y0007050D03*
X0074132Y0008250D03*
X0074132Y0008550D03*
X0075532Y0009550D03*
X0075532Y0009850D03*
X0074882Y0010500D03*
X0069532Y0007050D03*
X0066132Y0007050D03*
X0065532Y0007700D03*
X0065532Y0007750D03*
X0065582Y0007800D03*
X0065582Y0007850D03*
X0065632Y0007950D03*
X0065682Y0008050D03*
X0065732Y0008150D03*
X0065782Y0008250D03*
X0065832Y0008350D03*
X0065832Y0008400D03*
X0065882Y0008450D03*
X0065882Y0008500D03*
X0065482Y0009250D03*
X0065432Y0009300D03*
X0065432Y0009750D03*
X0065482Y0009800D03*
X0064082Y0009850D03*
X0064082Y0009550D03*
X0063432Y0010500D03*
X0062682Y0008550D03*
X0062682Y0008250D03*
D202*
X0074132Y0009750D03*
X0087382Y0007550D03*
X0089682Y0010500D03*
D203*
X0084057Y0007550D03*
X0082557Y0007550D03*
X0075657Y0008350D03*
X0064207Y0008350D03*
D204*
X0063382Y0007550D03*
X0065382Y0009500D03*
X0065382Y0009550D03*
X0066932Y0009550D03*
X0066932Y0009600D03*
X0066932Y0009650D03*
X0066932Y0009700D03*
X0066932Y0009500D03*
X0066932Y0009450D03*
X0066932Y0009400D03*
X0066932Y0009350D03*
X0066932Y0007600D03*
X0069632Y0008200D03*
X0069632Y0008250D03*
X0069632Y0008300D03*
X0069632Y0008350D03*
X0069632Y0008400D03*
X0069632Y0008450D03*
X0069632Y0008500D03*
X0069632Y0008550D03*
X0069632Y0008600D03*
X0069632Y0008650D03*
X0069632Y0008700D03*
X0069632Y0009350D03*
X0069632Y0009400D03*
X0069632Y0009450D03*
X0069632Y0009500D03*
X0069632Y0009550D03*
X0069632Y0009600D03*
X0069632Y0009650D03*
X0069632Y0009700D03*
X0069632Y0009750D03*
X0069632Y0009800D03*
X0069632Y0009850D03*
X0072732Y0009850D03*
X0072732Y0009900D03*
X0072732Y0009950D03*
X0072732Y0010000D03*
X0072732Y0010050D03*
X0072732Y0010100D03*
X0072732Y0010150D03*
X0072732Y0010200D03*
X0072732Y0010250D03*
X0072732Y0010300D03*
X0072732Y0010350D03*
X0072732Y0010400D03*
X0072732Y0010450D03*
X0072732Y0009800D03*
X0072732Y0009750D03*
X0072732Y0009700D03*
X0072732Y0009650D03*
X0072732Y0009600D03*
X0072732Y0009550D03*
X0072732Y0009500D03*
X0072732Y0009450D03*
X0072732Y0008700D03*
X0072732Y0008650D03*
X0072732Y0008600D03*
X0072732Y0008550D03*
X0072732Y0008500D03*
X0072732Y0008450D03*
X0072732Y0008400D03*
X0072732Y0008350D03*
X0072732Y0008300D03*
X0072732Y0008250D03*
X0072732Y0008200D03*
X0072732Y0008150D03*
X0072732Y0008100D03*
X0072732Y0008050D03*
X0072732Y0008000D03*
X0072732Y0007950D03*
X0072732Y0007900D03*
X0072732Y0007850D03*
X0072732Y0007800D03*
X0072732Y0007750D03*
X0072732Y0007700D03*
X0072732Y0007650D03*
X0072732Y0007600D03*
X0075482Y0008200D03*
X0076982Y0008200D03*
X0076982Y0008250D03*
X0076982Y0008300D03*
X0076982Y0008350D03*
X0076982Y0008400D03*
X0076982Y0008450D03*
X0076982Y0008500D03*
X0076982Y0008550D03*
X0076982Y0008600D03*
X0076982Y0008650D03*
X0076982Y0008700D03*
X0076982Y0008750D03*
X0076982Y0008800D03*
X0076982Y0008850D03*
X0076982Y0008900D03*
X0076982Y0008950D03*
X0076982Y0009000D03*
X0076982Y0009050D03*
X0076982Y0009100D03*
X0076982Y0009150D03*
X0076982Y0009200D03*
X0076982Y0009250D03*
X0076982Y0009300D03*
X0076982Y0009350D03*
X0076982Y0009400D03*
X0076982Y0009450D03*
X0076982Y0009500D03*
X0076982Y0009550D03*
X0076982Y0009600D03*
X0076982Y0009650D03*
X0076982Y0009700D03*
X0076982Y0009750D03*
X0076982Y0009800D03*
X0076982Y0009850D03*
X0076982Y0009900D03*
X0076982Y0009950D03*
X0076982Y0010000D03*
X0076982Y0010050D03*
X0076982Y0010100D03*
X0076982Y0010150D03*
X0076982Y0010200D03*
X0076982Y0010250D03*
X0076982Y0010300D03*
X0076982Y0010350D03*
X0076982Y0010400D03*
X0076982Y0010450D03*
X0076982Y0008150D03*
X0076982Y0008100D03*
X0076982Y0008050D03*
X0076982Y0008000D03*
X0076982Y0007950D03*
X0076982Y0007900D03*
X0076982Y0007850D03*
X0076982Y0007800D03*
X0076982Y0007750D03*
X0076982Y0007700D03*
X0076982Y0007650D03*
X0076982Y0007600D03*
X0078482Y0007600D03*
X0078482Y0007650D03*
X0078482Y0007700D03*
X0078482Y0007750D03*
X0078482Y0007800D03*
X0078482Y0007850D03*
X0078482Y0007900D03*
X0078482Y0007950D03*
X0078482Y0008000D03*
X0078482Y0008050D03*
X0078482Y0008100D03*
X0078482Y0008150D03*
X0078482Y0008200D03*
X0078482Y0008250D03*
X0078482Y0008300D03*
X0078482Y0008350D03*
X0078482Y0008400D03*
X0078482Y0008450D03*
X0078482Y0008500D03*
X0078482Y0008550D03*
X0078482Y0008600D03*
X0078482Y0008650D03*
X0080232Y0008650D03*
X0080232Y0008600D03*
X0080232Y0008550D03*
X0080232Y0008500D03*
X0080232Y0008450D03*
X0080232Y0008400D03*
X0080232Y0008350D03*
X0080232Y0008300D03*
X0080232Y0008250D03*
X0080232Y0008200D03*
X0080232Y0008150D03*
X0080232Y0008100D03*
X0080232Y0008050D03*
X0080232Y0008000D03*
X0080232Y0007950D03*
X0080232Y0007900D03*
X0080232Y0007850D03*
X0080232Y0007800D03*
X0080232Y0007750D03*
X0080232Y0007700D03*
X0080232Y0007650D03*
X0080232Y0007600D03*
X0080232Y0009350D03*
X0080232Y0009400D03*
X0080232Y0009450D03*
X0080232Y0009500D03*
X0080232Y0009550D03*
X0080232Y0009600D03*
X0080232Y0009650D03*
X0080232Y0009700D03*
X0080232Y0009750D03*
X0080232Y0009800D03*
X0080232Y0009850D03*
X0080232Y0009900D03*
X0080232Y0009950D03*
X0080232Y0010000D03*
X0080232Y0010050D03*
X0080232Y0010100D03*
X0080232Y0010150D03*
X0080232Y0010200D03*
X0080232Y0010250D03*
X0080232Y0010300D03*
X0080232Y0010350D03*
X0080232Y0010400D03*
X0080232Y0010450D03*
X0082932Y0009000D03*
X0083682Y0009000D03*
X0084082Y0008100D03*
X0082532Y0008100D03*
X0087632Y0008050D03*
X0089432Y0008050D03*
X0089432Y0008100D03*
X0089432Y0008150D03*
X0089432Y0008200D03*
X0089432Y0008250D03*
X0089432Y0008300D03*
X0089432Y0008350D03*
X0089432Y0008400D03*
X0089432Y0008450D03*
X0089432Y0008500D03*
X0089432Y0008550D03*
X0089432Y0008600D03*
X0089432Y0008650D03*
X0089432Y0008700D03*
X0089432Y0008750D03*
X0089432Y0008800D03*
X0089432Y0008850D03*
X0089432Y0008900D03*
X0089432Y0008950D03*
X0089432Y0009000D03*
X0089432Y0009050D03*
X0089432Y0010050D03*
X0090932Y0010050D03*
X0090932Y0010100D03*
X0090932Y0010150D03*
X0090932Y0010200D03*
X0090932Y0010250D03*
X0090932Y0010300D03*
X0090932Y0010350D03*
X0090932Y0010400D03*
X0090932Y0010450D03*
X0090932Y0010000D03*
X0090932Y0009950D03*
X0090932Y0009900D03*
X0090932Y0009850D03*
X0090932Y0009800D03*
X0090932Y0009750D03*
X0090932Y0009700D03*
X0090932Y0009650D03*
X0090932Y0009600D03*
X0090932Y0009550D03*
X0090932Y0009500D03*
X0090932Y0009450D03*
X0090932Y0009400D03*
X0090932Y0009350D03*
X0090932Y0009300D03*
X0090932Y0009250D03*
X0090932Y0009200D03*
X0090932Y0009150D03*
X0090932Y0009100D03*
X0090932Y0009050D03*
X0090932Y0009000D03*
X0090932Y0008950D03*
X0090932Y0008900D03*
X0090932Y0008850D03*
X0090932Y0008800D03*
X0090932Y0008750D03*
X0090932Y0008700D03*
X0090932Y0008650D03*
X0090932Y0008600D03*
X0090932Y0008550D03*
X0090932Y0008500D03*
X0090932Y0008450D03*
X0090932Y0008400D03*
X0090932Y0008350D03*
X0090932Y0008300D03*
X0090932Y0008250D03*
X0090932Y0008200D03*
X0090932Y0008150D03*
X0090932Y0008100D03*
X0090932Y0008050D03*
X0090932Y0008000D03*
X0090932Y0007950D03*
X0090932Y0007900D03*
X0090932Y0007850D03*
X0090932Y0007800D03*
X0090932Y0007750D03*
X0090932Y0007700D03*
X0090932Y0007650D03*
X0090932Y0007600D03*
X0089432Y0007600D03*
X0089432Y0007650D03*
X0089432Y0007700D03*
X0089432Y0007750D03*
X0089432Y0007800D03*
X0089432Y0007850D03*
X0089432Y0007900D03*
X0089432Y0007950D03*
X0089432Y0008000D03*
X0087632Y0010350D03*
X0087632Y0010400D03*
X0087632Y0010450D03*
D205*
X0089232Y0009650D03*
X0087832Y0008400D03*
X0084082Y0008550D03*
X0083282Y0009450D03*
X0082532Y0008550D03*
X0075332Y0009400D03*
X0074282Y0008700D03*
X0074882Y0007600D03*
X0063882Y0009400D03*
X0062832Y0008700D03*
X0062832Y0008150D03*
X0063432Y0007600D03*
D206*
X0063482Y0007900D03*
X0063432Y0007950D03*
X0063432Y0008000D03*
X0063382Y0008050D03*
X0063382Y0008100D03*
X0066232Y0009000D03*
X0066232Y0010050D03*
X0068932Y0010050D03*
X0068932Y0010100D03*
X0068932Y0010150D03*
X0068932Y0010200D03*
X0068932Y0010250D03*
X0068932Y0010300D03*
X0068932Y0010350D03*
X0068932Y0010400D03*
X0068932Y0010450D03*
X0068932Y0010000D03*
X0068932Y0009950D03*
X0068932Y0009900D03*
X0068932Y0008150D03*
X0068932Y0008100D03*
X0068932Y0008050D03*
X0068932Y0008000D03*
X0068932Y0007950D03*
X0068932Y0007900D03*
X0068932Y0007850D03*
X0068932Y0007800D03*
X0068932Y0007750D03*
X0068932Y0007700D03*
X0068932Y0007650D03*
X0068932Y0007600D03*
X0074832Y0008050D03*
X0074832Y0008100D03*
X0074882Y0008000D03*
X0074882Y0007950D03*
X0074932Y0007900D03*
D207*
X0074907Y0007650D03*
X0072407Y0008950D03*
X0072407Y0009200D03*
X0083307Y0009200D03*
X0083307Y0009150D03*
X0084057Y0008850D03*
X0087957Y0008650D03*
X0089107Y0009450D03*
D208*
X0089082Y0009400D03*
X0087982Y0008700D03*
X0084082Y0008900D03*
X0083282Y0009100D03*
X0082532Y0008900D03*
X0082532Y0008850D03*
X0074532Y0008850D03*
X0072382Y0008900D03*
X0072382Y0009250D03*
X0063432Y0007650D03*
X0063082Y0008850D03*
D209*
X0063232Y0008950D03*
X0063282Y0009000D03*
X0063382Y0009050D03*
X0063432Y0009100D03*
X0063332Y0010350D03*
X0063482Y0007700D03*
X0074682Y0008950D03*
X0074832Y0009050D03*
X0074882Y0009100D03*
X0074932Y0007700D03*
X0088082Y0008900D03*
X0088982Y0009200D03*
D210*
X0088182Y0009050D03*
X0074932Y0007750D03*
X0074782Y0010300D03*
X0066382Y0010350D03*
X0066382Y0008700D03*
X0063482Y0007750D03*
X0063332Y0010300D03*
D211*
X0063307Y0010250D03*
X0063357Y0010150D03*
X0063407Y0010050D03*
X0063507Y0007800D03*
X0066307Y0010250D03*
X0074807Y0010200D03*
X0074807Y0010150D03*
X0074857Y0010050D03*
X0074907Y0009950D03*
X0074957Y0007800D03*
D212*
X0074957Y0007850D03*
X0066257Y0008900D03*
X0066257Y0008950D03*
X0066257Y0010100D03*
X0066257Y0010150D03*
X0063507Y0007850D03*
D213*
X0062907Y0008750D03*
X0063407Y0010450D03*
X0074357Y0008750D03*
X0074307Y0008150D03*
X0074857Y0010450D03*
X0082557Y0008600D03*
X0083307Y0009350D03*
X0083307Y0009400D03*
X0084057Y0008600D03*
X0087857Y0008450D03*
D214*
X0087882Y0008500D03*
X0089182Y0009600D03*
X0084082Y0008650D03*
X0082532Y0008650D03*
X0082532Y0008700D03*
X0075282Y0009350D03*
X0063832Y0009350D03*
D215*
X0072457Y0009100D03*
X0072457Y0009050D03*
X0083307Y0009250D03*
X0083307Y0009300D03*
X0084057Y0008700D03*
X0087907Y0008550D03*
X0089157Y0009550D03*
D216*
X0088157Y0009000D03*
X0069107Y0009000D03*
X0069107Y0009050D03*
X0069107Y0009100D03*
X0069107Y0009150D03*
X0069107Y0009200D03*
X0069107Y0009250D03*
X0069107Y0009300D03*
X0069107Y0008950D03*
X0069107Y0008900D03*
X0069107Y0008850D03*
X0069107Y0008800D03*
X0069107Y0008750D03*
X0066407Y0008600D03*
X0066407Y0008550D03*
D217*
X0063732Y0009300D03*
X0062982Y0008800D03*
X0072432Y0009000D03*
X0072432Y0009150D03*
X0074432Y0008800D03*
X0075182Y0009300D03*
X0082532Y0008800D03*
X0082532Y0008750D03*
X0084082Y0008750D03*
X0084082Y0008800D03*
X0087932Y0008600D03*
X0089132Y0009500D03*
D218*
X0088932Y0009100D03*
X0088132Y0008950D03*
X0066432Y0008650D03*
X0066432Y0010400D03*
D219*
X0079357Y0009300D03*
X0079357Y0009250D03*
X0079357Y0009200D03*
X0079357Y0009150D03*
X0079357Y0009100D03*
X0079357Y0009050D03*
X0079357Y0009000D03*
X0079357Y0008950D03*
X0079357Y0008900D03*
X0079357Y0008850D03*
X0079357Y0008800D03*
X0079357Y0008750D03*
X0079357Y0008700D03*
D220*
X0082557Y0008950D03*
X0083307Y0009050D03*
X0084057Y0008950D03*
X0088007Y0008750D03*
X0089057Y0009350D03*
X0075107Y0009250D03*
X0074807Y0010400D03*
X0072357Y0009300D03*
X0072357Y0008850D03*
X0063657Y0009250D03*
X0063357Y0010400D03*
D221*
X0063507Y0009150D03*
X0066507Y0010450D03*
X0072307Y0009400D03*
X0072307Y0008750D03*
X0074757Y0009000D03*
X0074957Y0009150D03*
X0088057Y0008850D03*
X0089007Y0009250D03*
D222*
X0066357Y0008750D03*
X0066357Y0010300D03*
D223*
X0063582Y0009200D03*
X0063132Y0008900D03*
X0072332Y0008800D03*
X0072332Y0009350D03*
X0074632Y0008900D03*
X0075032Y0009200D03*
X0088032Y0008800D03*
X0089032Y0009300D03*
D224*
X0074782Y0010250D03*
X0066332Y0008800D03*
X0063332Y0010200D03*
D225*
X0063382Y0010100D03*
X0063432Y0010000D03*
X0063432Y0009950D03*
X0066282Y0010200D03*
X0066282Y0008850D03*
X0074832Y0010100D03*
X0074882Y0010000D03*
D226*
X0066207Y0010000D03*
X0066207Y0009950D03*
X0066207Y0009100D03*
X0066207Y0009050D03*
D227*
X0074807Y0010350D03*
X0088957Y0009150D03*
D228*
X0066182Y0009150D03*
X0066182Y0009900D03*
D229*
X0093007Y0009900D03*
X0093007Y0009950D03*
X0093007Y0010000D03*
X0093007Y0010050D03*
X0093007Y0010100D03*
X0093007Y0010150D03*
X0093007Y0010200D03*
X0093007Y0010250D03*
X0093007Y0010300D03*
X0093007Y0010350D03*
X0093007Y0010400D03*
X0093007Y0010450D03*
D230*
X0091632Y0012500D03*
X0091632Y0012550D03*
X0091632Y0012600D03*
X0091632Y0012650D03*
X0091632Y0012700D03*
X0091632Y0012750D03*
X0091632Y0012800D03*
X0091632Y0012850D03*
X0091632Y0012900D03*
X0091632Y0012950D03*
X0091632Y0013000D03*
X0091632Y0013050D03*
X0091632Y0013100D03*
X0091632Y0013150D03*
X0091632Y0013200D03*
X0091632Y0013250D03*
X0091632Y0013300D03*
X0091632Y0013350D03*
X0091632Y0013400D03*
X0091632Y0013450D03*
X0091632Y0013500D03*
X0091632Y0013550D03*
X0091632Y0013600D03*
X0091632Y0013650D03*
X0091632Y0013700D03*
X0091632Y0013750D03*
X0091632Y0013800D03*
X0091632Y0013850D03*
X0091632Y0013900D03*
X0091632Y0013950D03*
X0091632Y0014000D03*
X0091632Y0014050D03*
X0091632Y0014100D03*
X0091632Y0014150D03*
X0091632Y0014200D03*
X0091632Y0014250D03*
X0091632Y0014300D03*
X0091632Y0014350D03*
X0091632Y0014400D03*
X0091632Y0014450D03*
X0091632Y0014500D03*
X0091632Y0014550D03*
X0091632Y0014600D03*
X0091632Y0014650D03*
X0091632Y0014700D03*
X0091632Y0014750D03*
X0091632Y0014800D03*
X0091632Y0014850D03*
X0091632Y0014900D03*
X0091632Y0014950D03*
X0091632Y0015000D03*
X0091632Y0015050D03*
X0091632Y0015100D03*
X0091632Y0015150D03*
X0091632Y0015200D03*
X0091632Y0015250D03*
X0091632Y0015300D03*
X0091632Y0015350D03*
X0091632Y0015400D03*
X0091632Y0015450D03*
X0091632Y0015500D03*
X0091632Y0015550D03*
X0091632Y0015600D03*
X0091632Y0015650D03*
X0091632Y0015700D03*
X0091632Y0015750D03*
X0091632Y0015800D03*
X0091632Y0015850D03*
X0091632Y0015900D03*
X0091632Y0015950D03*
X0091632Y0016000D03*
X0091632Y0016050D03*
X0091632Y0016100D03*
X0091632Y0016150D03*
X0091632Y0016200D03*
X0091632Y0016250D03*
X0091632Y0016300D03*
X0091632Y0016350D03*
X0091632Y0016400D03*
X0091632Y0016450D03*
X0091632Y0016500D03*
X0091632Y0016550D03*
X0091632Y0016600D03*
X0091632Y0016650D03*
X0091632Y0016700D03*
X0091632Y0016750D03*
X0091632Y0016800D03*
X0091632Y0016850D03*
X0091632Y0016900D03*
X0091632Y0016950D03*
X0091632Y0017000D03*
X0091632Y0017050D03*
X0091632Y0017100D03*
X0091632Y0017150D03*
X0091632Y0017200D03*
X0091632Y0017250D03*
X0091632Y0017300D03*
X0091632Y0017350D03*
X0091632Y0017400D03*
X0091632Y0017450D03*
X0091632Y0017500D03*
X0091632Y0017550D03*
X0091632Y0017600D03*
X0091632Y0017650D03*
X0091632Y0017700D03*
X0091632Y0017750D03*
X0091632Y0017800D03*
X0091632Y0017850D03*
X0091632Y0017900D03*
X0091632Y0017950D03*
X0091632Y0018000D03*
X0091632Y0018050D03*
X0091632Y0018100D03*
X0091632Y0018150D03*
X0091632Y0018200D03*
X0091632Y0018250D03*
X0091632Y0018300D03*
X0091632Y0018350D03*
X0091632Y0018400D03*
X0091632Y0018450D03*
X0091632Y0018500D03*
X0091632Y0018550D03*
X0091632Y0018600D03*
X0091632Y0018650D03*
X0091632Y0018700D03*
X0091632Y0018750D03*
X0091632Y0018800D03*
X0091632Y0018850D03*
X0091632Y0018900D03*
X0091632Y0018950D03*
X0091632Y0019000D03*
X0091632Y0019050D03*
X0091632Y0019100D03*
X0091632Y0019150D03*
X0091632Y0019200D03*
X0091632Y0019250D03*
X0091632Y0019300D03*
X0091632Y0019350D03*
X0091632Y0019400D03*
X0091632Y0019450D03*
X0091632Y0019500D03*
X0091632Y0019550D03*
X0091632Y0019600D03*
X0091632Y0019650D03*
X0091632Y0019700D03*
X0091632Y0019750D03*
X0091632Y0019800D03*
X0091632Y0019850D03*
X0091632Y0019900D03*
X0091632Y0019950D03*
X0091632Y0020000D03*
X0091632Y0020050D03*
X0091632Y0020100D03*
X0091632Y0020150D03*
X0091632Y0020200D03*
X0091632Y0020250D03*
X0091632Y0020300D03*
X0091632Y0020350D03*
X0091632Y0020400D03*
X0091632Y0020450D03*
X0091632Y0020500D03*
X0091632Y0020550D03*
X0091632Y0020600D03*
X0091632Y0020650D03*
X0091632Y0020700D03*
X0091632Y0020750D03*
X0091632Y0020800D03*
X0091632Y0020850D03*
X0091632Y0020900D03*
X0091632Y0020950D03*
X0091632Y0021000D03*
X0091632Y0021050D03*
X0091632Y0021100D03*
X0091632Y0021150D03*
X0091632Y0021200D03*
X0091632Y0021250D03*
X0091632Y0021300D03*
X0091632Y0021350D03*
X0091632Y0021400D03*
X0091632Y0021450D03*
X0091632Y0021500D03*
X0091632Y0021550D03*
X0091632Y0021600D03*
X0091632Y0021650D03*
X0091632Y0021700D03*
X0091632Y0021750D03*
X0091632Y0021800D03*
X0091632Y0021850D03*
X0091632Y0021900D03*
X0091632Y0021950D03*
X0091632Y0022000D03*
X0091632Y0022050D03*
X0091632Y0022100D03*
X0091632Y0022150D03*
X0091632Y0022200D03*
X0091632Y0022250D03*
X0091632Y0022300D03*
X0091632Y0022350D03*
X0091632Y0022400D03*
X0091632Y0022450D03*
X0091632Y0022500D03*
X0091632Y0022550D03*
X0091632Y0022600D03*
X0091632Y0022650D03*
X0091632Y0022700D03*
X0091632Y0022750D03*
X0091632Y0022800D03*
X0091632Y0022850D03*
X0091632Y0022900D03*
X0091632Y0022950D03*
X0091632Y0023000D03*
X0091632Y0023050D03*
X0091632Y0023100D03*
X0091632Y0023150D03*
X0091632Y0023200D03*
X0091632Y0023250D03*
X0091632Y0023300D03*
X0091632Y0023350D03*
X0091632Y0023400D03*
X0091632Y0023450D03*
X0091632Y0023500D03*
X0091632Y0023550D03*
X0091632Y0023600D03*
X0091632Y0023650D03*
X0091632Y0023700D03*
X0091632Y0023750D03*
X0091632Y0023800D03*
X0091632Y0023850D03*
X0091632Y0023900D03*
X0091632Y0023950D03*
X0091632Y0024000D03*
X0091632Y0024050D03*
X0091632Y0024100D03*
X0091632Y0024150D03*
X0091632Y0024200D03*
X0091632Y0024250D03*
X0091632Y0024300D03*
X0091632Y0024350D03*
X0091632Y0024400D03*
X0091632Y0024450D03*
X0091632Y0024500D03*
X0091632Y0024550D03*
X0091632Y0024600D03*
X0091632Y0024650D03*
X0091632Y0024700D03*
X0091632Y0024750D03*
X0091632Y0024800D03*
X0091632Y0024850D03*
X0091632Y0024900D03*
X0091632Y0024950D03*
X0091632Y0025000D03*
X0091632Y0025050D03*
X0091632Y0025100D03*
X0091632Y0025150D03*
X0091632Y0025200D03*
X0091632Y0025250D03*
X0091632Y0025300D03*
X0091632Y0025350D03*
X0091632Y0025400D03*
X0091632Y0025450D03*
X0091632Y0025500D03*
X0091632Y0025550D03*
X0091632Y0025600D03*
X0091632Y0025650D03*
X0091632Y0025700D03*
X0091632Y0025750D03*
X0091632Y0025800D03*
X0091632Y0025850D03*
X0091632Y0025900D03*
X0091632Y0025950D03*
X0091632Y0026000D03*
D231*
X0073657Y0017050D03*
X0073657Y0017000D03*
X0073657Y0016950D03*
X0073657Y0016900D03*
X0073657Y0016850D03*
X0073657Y0016800D03*
X0073657Y0016750D03*
X0073657Y0016700D03*
X0073657Y0016650D03*
X0073657Y0016600D03*
X0073657Y0016550D03*
X0073657Y0016500D03*
X0073657Y0016450D03*
X0073657Y0016400D03*
X0073657Y0016350D03*
X0073657Y0016300D03*
X0073657Y0016250D03*
X0073657Y0016200D03*
X0073657Y0016150D03*
X0073657Y0016100D03*
X0073657Y0016050D03*
X0073657Y0016000D03*
X0073657Y0015950D03*
X0073657Y0015900D03*
X0073657Y0015850D03*
X0073657Y0015800D03*
X0073657Y0015750D03*
X0073657Y0015700D03*
X0073657Y0015650D03*
X0073657Y0015600D03*
X0073657Y0015550D03*
X0073657Y0015500D03*
X0073657Y0015450D03*
X0073657Y0015400D03*
X0073657Y0015350D03*
X0073657Y0015300D03*
X0073657Y0015250D03*
X0073657Y0015200D03*
X0073657Y0015150D03*
X0073657Y0015100D03*
X0073657Y0015050D03*
X0073657Y0015000D03*
X0073657Y0014950D03*
X0073657Y0014900D03*
X0073657Y0014850D03*
X0073657Y0014800D03*
X0073657Y0014750D03*
X0073657Y0014700D03*
X0073657Y0014650D03*
X0073657Y0014600D03*
X0073657Y0014550D03*
X0073657Y0014500D03*
X0073657Y0014450D03*
X0073657Y0014400D03*
X0073657Y0014350D03*
X0073657Y0014300D03*
X0073657Y0014250D03*
X0073657Y0014200D03*
X0073657Y0014150D03*
X0073657Y0014100D03*
X0073657Y0014050D03*
X0073657Y0014000D03*
X0073657Y0013950D03*
X0073657Y0013900D03*
X0073657Y0013850D03*
X0073657Y0013800D03*
X0073657Y0013750D03*
X0073657Y0013700D03*
X0073657Y0013650D03*
X0073657Y0013600D03*
X0073657Y0013550D03*
X0073657Y0013500D03*
X0073657Y0013450D03*
X0073657Y0013400D03*
X0073657Y0013350D03*
X0073657Y0013300D03*
X0073657Y0013250D03*
X0073657Y0013200D03*
X0073657Y0013150D03*
X0073657Y0013100D03*
X0073657Y0013050D03*
X0073657Y0013000D03*
X0073657Y0012950D03*
X0073657Y0012900D03*
X0073657Y0012850D03*
X0073657Y0012800D03*
X0073657Y0012750D03*
X0073657Y0012700D03*
X0073657Y0012650D03*
X0073657Y0012600D03*
X0073657Y0012550D03*
X0073657Y0012500D03*
D232*
X0073657Y0017100D03*
X0073657Y0017150D03*
X0073657Y0017200D03*
X0073657Y0017250D03*
X0073657Y0017300D03*
X0073657Y0017350D03*
X0073657Y0017400D03*
X0073657Y0017450D03*
X0073657Y0017500D03*
X0073657Y0017550D03*
X0073657Y0017600D03*
X0073657Y0017650D03*
X0073657Y0017700D03*
X0073657Y0017750D03*
X0073657Y0017800D03*
X0073657Y0017850D03*
X0073657Y0017900D03*
X0073657Y0017950D03*
X0073657Y0018000D03*
X0073657Y0018050D03*
X0073657Y0018100D03*
X0073657Y0018150D03*
X0073657Y0018200D03*
X0073657Y0018250D03*
X0073657Y0018300D03*
X0073657Y0018350D03*
X0073657Y0018400D03*
X0073657Y0018450D03*
X0073657Y0018500D03*
X0073657Y0018550D03*
X0073657Y0018600D03*
X0073657Y0018650D03*
X0073657Y0018700D03*
X0073657Y0018750D03*
X0073657Y0018800D03*
X0073657Y0018850D03*
X0073657Y0018900D03*
X0073657Y0018950D03*
X0073657Y0019000D03*
X0073657Y0019050D03*
X0073657Y0019100D03*
X0073657Y0019150D03*
X0073657Y0019200D03*
X0073657Y0019250D03*
X0073657Y0019300D03*
X0073657Y0019350D03*
X0073657Y0019400D03*
X0073657Y0019450D03*
X0073657Y0019500D03*
X0073657Y0019550D03*
X0073657Y0019600D03*
X0073657Y0019650D03*
X0073657Y0019700D03*
X0073657Y0019750D03*
X0073657Y0019800D03*
X0073657Y0019850D03*
X0073657Y0019900D03*
X0073657Y0019950D03*
X0073657Y0020000D03*
X0073657Y0020050D03*
X0073657Y0020100D03*
X0073657Y0020150D03*
X0073657Y0020200D03*
X0073657Y0020250D03*
X0073657Y0020300D03*
X0073657Y0020350D03*
X0073657Y0020400D03*
X0073657Y0020450D03*
X0073657Y0020500D03*
X0073657Y0020550D03*
X0073657Y0020600D03*
X0073657Y0020650D03*
X0073657Y0020700D03*
X0073657Y0020750D03*
X0073657Y0020800D03*
X0073657Y0020850D03*
X0073657Y0020900D03*
X0073657Y0020950D03*
X0073657Y0021000D03*
X0073657Y0021050D03*
X0073657Y0021100D03*
X0073657Y0021150D03*
X0073657Y0021200D03*
X0073657Y0021250D03*
X0073657Y0021300D03*
X0073657Y0021350D03*
X0073657Y0021400D03*
X0073657Y0021450D03*
X0073657Y0021500D03*
X0073657Y0021550D03*
X0073657Y0021600D03*
X0073657Y0021650D03*
X0073657Y0021700D03*
X0073657Y0021750D03*
X0073657Y0021800D03*
X0073657Y0021850D03*
X0073657Y0021900D03*
X0073657Y0021950D03*
X0073657Y0022000D03*
X0073657Y0022050D03*
X0073657Y0022100D03*
X0073657Y0022150D03*
X0073657Y0022200D03*
X0073657Y0022250D03*
X0073657Y0022300D03*
X0073657Y0022350D03*
X0073657Y0022400D03*
X0073657Y0022450D03*
X0073657Y0022500D03*
X0073657Y0022550D03*
X0073657Y0022600D03*
X0073657Y0022650D03*
X0073657Y0022700D03*
X0073657Y0022750D03*
X0073657Y0022800D03*
X0073657Y0022850D03*
X0073657Y0022900D03*
X0073657Y0022950D03*
X0073657Y0023000D03*
X0073657Y0023050D03*
X0073657Y0023100D03*
X0073657Y0023150D03*
X0073657Y0023200D03*
X0073657Y0023250D03*
X0073657Y0023300D03*
X0073657Y0023350D03*
X0073657Y0023400D03*
X0073657Y0023450D03*
X0073657Y0023500D03*
X0073657Y0023550D03*
X0073657Y0023600D03*
X0073657Y0023650D03*
X0073657Y0023700D03*
X0073657Y0023750D03*
X0073657Y0023800D03*
X0073657Y0023850D03*
X0073657Y0023900D03*
X0073657Y0023950D03*
X0073657Y0024000D03*
X0073657Y0024050D03*
X0073657Y0024100D03*
X0073657Y0024150D03*
X0073657Y0024200D03*
X0073657Y0024250D03*
X0073657Y0024300D03*
X0073657Y0024350D03*
X0073657Y0024400D03*
X0073657Y0024450D03*
X0073657Y0024500D03*
X0073657Y0024550D03*
X0073657Y0024600D03*
X0073657Y0024650D03*
X0073657Y0024700D03*
X0073657Y0024750D03*
X0073657Y0024800D03*
X0073657Y0024850D03*
X0073657Y0024900D03*
X0073657Y0024950D03*
X0073657Y0025000D03*
X0073657Y0025050D03*
X0073657Y0025100D03*
X0073657Y0025150D03*
X0073657Y0025200D03*
X0073657Y0025250D03*
X0073657Y0025300D03*
X0073657Y0025350D03*
X0073657Y0025400D03*
X0073657Y0025450D03*
X0073657Y0025500D03*
X0073657Y0025550D03*
X0073657Y0025600D03*
X0073657Y0025650D03*
X0073657Y0025700D03*
X0073657Y0025750D03*
X0073657Y0025800D03*
X0073657Y0025850D03*
X0073657Y0025900D03*
X0073657Y0025950D03*
X0073657Y0026000D03*
X0073657Y0026050D03*
X0073657Y0026100D03*
X0073657Y0026150D03*
X0073657Y0026200D03*
X0073657Y0026250D03*
X0073657Y0026300D03*
X0073657Y0026350D03*
X0073657Y0026400D03*
X0073657Y0026450D03*
X0073657Y0026500D03*
X0073657Y0026550D03*
X0073657Y0026600D03*
X0073657Y0026650D03*
X0073657Y0026700D03*
X0073657Y0026750D03*
X0073657Y0026800D03*
X0073657Y0026850D03*
X0073657Y0026900D03*
X0073657Y0026950D03*
X0073657Y0027000D03*
X0073657Y0027050D03*
X0073657Y0027100D03*
X0073657Y0027150D03*
X0073657Y0027200D03*
X0073657Y0027250D03*
X0073657Y0027300D03*
X0073657Y0027350D03*
X0073657Y0027400D03*
X0073657Y0027450D03*
X0073657Y0027500D03*
X0073657Y0027550D03*
X0073657Y0027600D03*
X0073657Y0027650D03*
X0073657Y0027700D03*
X0073657Y0027750D03*
X0073657Y0027800D03*
X0073657Y0027850D03*
X0073657Y0027900D03*
X0073657Y0027950D03*
X0073657Y0028000D03*
X0073657Y0028050D03*
X0073657Y0028100D03*
X0073657Y0028150D03*
X0073657Y0028200D03*
X0073657Y0028250D03*
X0073657Y0028300D03*
X0073657Y0028350D03*
X0073657Y0028400D03*
X0073657Y0028450D03*
X0073657Y0028500D03*
X0073657Y0028550D03*
X0073657Y0028600D03*
X0073657Y0028650D03*
X0073657Y0028700D03*
X0073657Y0028750D03*
X0073657Y0028800D03*
X0073657Y0028850D03*
X0073657Y0028900D03*
X0073657Y0028950D03*
X0073657Y0029000D03*
X0073657Y0029050D03*
X0073657Y0029100D03*
X0073657Y0029150D03*
X0073657Y0029200D03*
X0073657Y0029250D03*
X0073657Y0029300D03*
X0073657Y0029350D03*
X0073657Y0029400D03*
X0073657Y0029450D03*
X0073657Y0029500D03*
X0073657Y0029550D03*
X0073657Y0029600D03*
X0073657Y0029650D03*
X0073657Y0029700D03*
X0073657Y0029750D03*
X0073657Y0029800D03*
X0073657Y0029850D03*
X0073657Y0029900D03*
X0073657Y0029950D03*
X0073657Y0030000D03*
X0073657Y0030050D03*
X0073657Y0030100D03*
X0073657Y0030150D03*
X0073657Y0030200D03*
X0073657Y0030250D03*
X0073657Y0030300D03*
X0073657Y0030350D03*
X0073657Y0030400D03*
X0073657Y0030450D03*
X0073657Y0030500D03*
X0073657Y0030550D03*
X0073657Y0030600D03*
X0073657Y0030650D03*
X0073657Y0030700D03*
X0073657Y0030750D03*
X0073657Y0030800D03*
X0073657Y0030850D03*
X0073657Y0030900D03*
X0073657Y0030950D03*
X0073657Y0031000D03*
X0073657Y0031050D03*
X0073657Y0031100D03*
X0073657Y0031150D03*
X0073657Y0031200D03*
X0073657Y0031250D03*
X0073657Y0031300D03*
X0073657Y0031350D03*
X0073657Y0031400D03*
X0073657Y0031450D03*
X0073657Y0031500D03*
X0073657Y0031550D03*
X0073657Y0031600D03*
X0073657Y0031650D03*
X0073657Y0031700D03*
X0073657Y0031750D03*
X0073657Y0031800D03*
X0073657Y0031850D03*
X0073657Y0031900D03*
X0073657Y0031950D03*
X0073657Y0032000D03*
X0073657Y0032050D03*
X0073657Y0032100D03*
X0073657Y0032150D03*
X0073657Y0032200D03*
X0073657Y0032250D03*
X0073657Y0032300D03*
X0073657Y0032350D03*
X0073657Y0032400D03*
X0073657Y0032450D03*
X0073657Y0032500D03*
X0073657Y0032550D03*
X0073657Y0032600D03*
X0073657Y0032650D03*
X0073657Y0032700D03*
X0073657Y0032750D03*
X0073657Y0032800D03*
X0073657Y0032850D03*
X0073657Y0032900D03*
X0073657Y0032950D03*
X0073657Y0033000D03*
X0073657Y0033050D03*
X0073657Y0033100D03*
X0073657Y0033150D03*
X0073657Y0033200D03*
X0073657Y0033250D03*
X0073657Y0033300D03*
X0073657Y0033350D03*
X0073657Y0033400D03*
X0073657Y0033450D03*
X0073657Y0033500D03*
X0073657Y0033550D03*
X0073657Y0033600D03*
X0073657Y0033650D03*
X0073657Y0033700D03*
X0073657Y0033750D03*
X0073657Y0033800D03*
X0073657Y0033850D03*
X0073657Y0033900D03*
X0073657Y0033950D03*
X0073657Y0034000D03*
X0073657Y0034050D03*
X0073657Y0034100D03*
X0073657Y0034150D03*
X0073657Y0034200D03*
X0073657Y0034250D03*
X0073657Y0034300D03*
X0073657Y0034350D03*
X0073657Y0034400D03*
X0073657Y0034450D03*
X0073657Y0034500D03*
X0073657Y0034550D03*
X0073657Y0034600D03*
X0073657Y0034650D03*
X0073657Y0034700D03*
X0073657Y0034750D03*
X0073657Y0034800D03*
X0073657Y0034850D03*
X0073657Y0034900D03*
X0073657Y0034950D03*
X0082657Y0026000D03*
X0082657Y0025950D03*
X0082657Y0025900D03*
X0082657Y0025850D03*
X0082657Y0025800D03*
X0082657Y0025750D03*
X0082657Y0025700D03*
X0082657Y0025650D03*
X0082657Y0025600D03*
X0082657Y0025550D03*
X0082657Y0025500D03*
X0082657Y0025450D03*
X0082657Y0025400D03*
X0082657Y0025350D03*
X0082657Y0025300D03*
X0082657Y0025250D03*
X0082657Y0025200D03*
X0082657Y0025150D03*
X0082657Y0025100D03*
X0082657Y0025050D03*
X0082657Y0025000D03*
X0082657Y0024950D03*
X0082657Y0024900D03*
X0082657Y0024850D03*
X0082657Y0024800D03*
X0082657Y0024750D03*
X0082657Y0024700D03*
X0082657Y0024650D03*
X0082657Y0024600D03*
X0082657Y0024550D03*
X0082657Y0024500D03*
X0082657Y0024450D03*
X0082657Y0024400D03*
X0082657Y0024350D03*
X0082657Y0024300D03*
X0082657Y0024250D03*
X0082657Y0024200D03*
X0082657Y0024150D03*
X0082657Y0024100D03*
X0082657Y0024050D03*
X0082657Y0024000D03*
X0082657Y0023950D03*
X0082657Y0023900D03*
X0082657Y0023850D03*
X0082657Y0023800D03*
X0082657Y0023750D03*
X0082657Y0023700D03*
X0082657Y0023650D03*
X0082657Y0023600D03*
X0082657Y0023550D03*
X0082657Y0023500D03*
X0082657Y0023450D03*
X0082657Y0023400D03*
X0082657Y0023350D03*
X0082657Y0023300D03*
X0082657Y0023250D03*
X0082657Y0023200D03*
X0082657Y0023150D03*
X0082657Y0023100D03*
X0082657Y0023050D03*
X0082657Y0023000D03*
X0082657Y0022950D03*
X0082657Y0022900D03*
X0082657Y0022850D03*
X0082657Y0022800D03*
X0082657Y0022750D03*
X0082657Y0022700D03*
X0082657Y0022650D03*
X0082657Y0022600D03*
X0082657Y0022550D03*
X0082657Y0022500D03*
X0082657Y0022450D03*
X0082657Y0022400D03*
X0082657Y0022350D03*
X0082657Y0022300D03*
X0082657Y0022250D03*
X0082657Y0022200D03*
X0082657Y0022150D03*
X0082657Y0022100D03*
X0082657Y0022050D03*
X0082657Y0022000D03*
X0082657Y0021950D03*
X0082657Y0021900D03*
X0082657Y0021850D03*
X0082657Y0021800D03*
X0082657Y0021750D03*
X0082657Y0021700D03*
X0082657Y0021650D03*
X0082657Y0021600D03*
X0082657Y0021550D03*
X0082657Y0021500D03*
X0082657Y0021450D03*
X0082657Y0021400D03*
X0082657Y0021350D03*
X0082657Y0021300D03*
X0082657Y0021250D03*
X0082657Y0021200D03*
X0082657Y0021150D03*
X0082657Y0021100D03*
X0082657Y0021050D03*
X0082657Y0021000D03*
X0082657Y0020950D03*
X0082657Y0020900D03*
X0082657Y0020850D03*
X0082657Y0020800D03*
X0082657Y0020750D03*
X0082657Y0020700D03*
X0082657Y0020650D03*
X0082657Y0020600D03*
X0082657Y0020550D03*
X0082657Y0020500D03*
X0082657Y0020450D03*
X0082657Y0020400D03*
X0082657Y0020350D03*
X0082657Y0020300D03*
X0082657Y0020250D03*
X0082657Y0020200D03*
X0082657Y0020150D03*
X0082657Y0020100D03*
X0082657Y0020050D03*
X0082657Y0020000D03*
X0082657Y0019950D03*
X0082657Y0019900D03*
X0082657Y0019850D03*
X0082657Y0019800D03*
X0082657Y0019750D03*
X0082657Y0019700D03*
X0082657Y0019650D03*
X0082657Y0019600D03*
X0082657Y0019550D03*
X0082657Y0019500D03*
X0082657Y0019450D03*
X0082657Y0019400D03*
X0082657Y0019350D03*
X0082657Y0019300D03*
X0082657Y0019250D03*
X0082657Y0019200D03*
X0082657Y0019150D03*
X0082657Y0019100D03*
X0082657Y0019050D03*
X0082657Y0019000D03*
X0082657Y0018950D03*
X0082657Y0018900D03*
X0082657Y0018850D03*
X0082657Y0018800D03*
X0082657Y0018750D03*
X0082657Y0018700D03*
X0082657Y0018650D03*
X0082657Y0018600D03*
X0082657Y0018550D03*
X0082657Y0018500D03*
X0082657Y0018450D03*
X0082657Y0018400D03*
X0082657Y0018350D03*
X0082657Y0018300D03*
X0082657Y0018250D03*
X0082657Y0018200D03*
X0082657Y0018150D03*
X0082657Y0018100D03*
X0082657Y0018050D03*
X0082657Y0018000D03*
X0082657Y0017950D03*
X0082657Y0017900D03*
X0082657Y0017850D03*
X0082657Y0017800D03*
X0082657Y0017750D03*
X0082657Y0017700D03*
X0082657Y0017650D03*
X0082657Y0017600D03*
X0082657Y0017550D03*
X0082657Y0017500D03*
X0082657Y0017450D03*
X0082657Y0017400D03*
X0082657Y0017350D03*
X0082657Y0017300D03*
X0082657Y0017250D03*
X0082657Y0017200D03*
X0082657Y0017150D03*
X0082657Y0017100D03*
D233*
X0064607Y0017100D03*
X0064607Y0017150D03*
X0064607Y0017200D03*
X0064607Y0017250D03*
X0064607Y0017300D03*
X0064607Y0017350D03*
X0064607Y0017400D03*
X0064607Y0017450D03*
X0064607Y0017500D03*
X0064607Y0017550D03*
X0064607Y0017600D03*
X0064607Y0017650D03*
X0064607Y0017700D03*
X0064607Y0017750D03*
X0064607Y0017800D03*
X0064607Y0017850D03*
X0064607Y0017900D03*
X0064607Y0017950D03*
X0064607Y0018000D03*
X0064607Y0018050D03*
X0064607Y0018100D03*
X0064607Y0018150D03*
X0064607Y0018200D03*
X0064607Y0018250D03*
X0064607Y0018300D03*
X0064607Y0018350D03*
X0064607Y0018400D03*
X0064607Y0018450D03*
X0064607Y0018500D03*
X0064607Y0018550D03*
X0064607Y0018600D03*
X0064607Y0018650D03*
X0064607Y0018700D03*
X0064607Y0018750D03*
X0064607Y0018800D03*
X0064607Y0018850D03*
X0064607Y0018900D03*
X0064607Y0018950D03*
X0064607Y0019000D03*
X0064607Y0019050D03*
X0064607Y0019100D03*
X0064607Y0019150D03*
X0064607Y0019200D03*
X0064607Y0019250D03*
X0064607Y0019300D03*
X0064607Y0019350D03*
X0064607Y0019400D03*
X0064607Y0019450D03*
X0064607Y0019500D03*
X0064607Y0019550D03*
X0064607Y0019600D03*
X0064607Y0019650D03*
X0064607Y0019700D03*
X0064607Y0019750D03*
X0064607Y0019800D03*
X0064607Y0019850D03*
X0064607Y0019900D03*
X0064607Y0019950D03*
X0064607Y0020000D03*
X0064607Y0020050D03*
X0064607Y0020100D03*
X0064607Y0020150D03*
X0064607Y0020200D03*
X0064607Y0020250D03*
X0064607Y0020300D03*
X0064607Y0020350D03*
X0064607Y0020400D03*
X0064607Y0020450D03*
X0064607Y0020500D03*
X0064607Y0020550D03*
X0064607Y0020600D03*
X0064607Y0020650D03*
X0064607Y0020700D03*
X0064607Y0020750D03*
X0064607Y0020800D03*
X0064607Y0020850D03*
X0064607Y0020900D03*
X0064607Y0020950D03*
X0064607Y0021000D03*
X0064607Y0021050D03*
X0064607Y0021100D03*
X0064607Y0021150D03*
X0064607Y0021200D03*
X0064607Y0021250D03*
X0064607Y0021300D03*
X0064607Y0021350D03*
X0064607Y0021400D03*
X0064607Y0021450D03*
X0064607Y0021500D03*
X0064607Y0021550D03*
X0064607Y0021600D03*
X0064607Y0021650D03*
X0064607Y0021700D03*
X0064607Y0021750D03*
X0064607Y0021800D03*
X0064607Y0021850D03*
X0064607Y0021900D03*
X0064607Y0021950D03*
X0064607Y0022000D03*
X0064607Y0022050D03*
X0064607Y0022100D03*
X0064607Y0022150D03*
X0064607Y0022200D03*
X0064607Y0022250D03*
X0064607Y0022300D03*
X0064607Y0022350D03*
X0064607Y0022400D03*
X0064607Y0022450D03*
X0064607Y0022500D03*
X0064607Y0022550D03*
X0064607Y0022600D03*
X0064607Y0022650D03*
X0064607Y0022700D03*
X0064607Y0022750D03*
X0064607Y0022800D03*
X0064607Y0022850D03*
X0064607Y0022900D03*
X0064607Y0022950D03*
X0064607Y0023000D03*
X0064607Y0023050D03*
X0064607Y0023100D03*
X0064607Y0023150D03*
X0064607Y0023200D03*
X0064607Y0023250D03*
X0064607Y0023300D03*
X0064607Y0023350D03*
X0064607Y0023400D03*
X0064607Y0023450D03*
X0064607Y0023500D03*
X0064607Y0023550D03*
X0064607Y0023600D03*
X0064607Y0023650D03*
X0064607Y0023700D03*
X0064607Y0023750D03*
X0064607Y0023800D03*
X0064607Y0023850D03*
X0064607Y0023900D03*
X0064607Y0023950D03*
X0064607Y0024000D03*
X0064607Y0024050D03*
X0064607Y0024100D03*
X0064607Y0024150D03*
X0064607Y0024200D03*
X0064607Y0024250D03*
X0064607Y0024300D03*
X0064607Y0024350D03*
X0064607Y0024400D03*
X0064607Y0024450D03*
X0064607Y0024500D03*
X0064607Y0024550D03*
X0064607Y0024600D03*
X0064607Y0024650D03*
X0064607Y0024700D03*
X0064607Y0024750D03*
X0064607Y0024800D03*
X0064607Y0024850D03*
X0064607Y0024900D03*
X0064607Y0024950D03*
X0064607Y0025000D03*
X0064607Y0025050D03*
X0064607Y0025100D03*
X0064607Y0025150D03*
X0064607Y0025200D03*
X0064607Y0025250D03*
X0064607Y0025300D03*
X0064607Y0025350D03*
X0064607Y0025400D03*
X0064607Y0025450D03*
X0064607Y0025500D03*
X0064607Y0025550D03*
X0064607Y0025600D03*
X0064607Y0025650D03*
X0064607Y0025700D03*
X0064607Y0025750D03*
X0064607Y0025800D03*
X0064607Y0025850D03*
X0064607Y0025900D03*
X0064607Y0025950D03*
X0064607Y0026000D03*
X0064607Y0026050D03*
X0064607Y0026100D03*
X0064607Y0026150D03*
X0064607Y0026200D03*
X0064607Y0026250D03*
X0064607Y0026300D03*
X0064607Y0026350D03*
X0064607Y0026400D03*
X0064607Y0026450D03*
X0064607Y0026500D03*
X0064607Y0026550D03*
X0064607Y0026600D03*
X0064607Y0026650D03*
X0064607Y0026700D03*
X0064607Y0026750D03*
X0064607Y0026800D03*
X0064607Y0026850D03*
X0064607Y0026900D03*
X0064607Y0026950D03*
X0064607Y0027000D03*
X0064607Y0027050D03*
X0064607Y0027100D03*
X0064607Y0027150D03*
X0064607Y0027200D03*
X0064607Y0027250D03*
X0064607Y0027300D03*
X0064607Y0027350D03*
X0064607Y0027400D03*
X0064607Y0027450D03*
X0064607Y0027500D03*
X0064607Y0027550D03*
X0064607Y0027600D03*
X0064607Y0027650D03*
X0064607Y0027700D03*
X0064607Y0027750D03*
X0064607Y0027800D03*
X0064607Y0027850D03*
X0064607Y0027900D03*
X0064607Y0027950D03*
X0064607Y0028000D03*
X0064607Y0028050D03*
X0064607Y0028100D03*
X0064607Y0028150D03*
X0064607Y0028200D03*
X0064607Y0028250D03*
X0064607Y0028300D03*
X0064607Y0028350D03*
X0064607Y0028400D03*
X0064607Y0028450D03*
X0064607Y0028500D03*
X0064607Y0028550D03*
X0064607Y0028600D03*
X0064607Y0028650D03*
X0064607Y0028700D03*
X0064607Y0028750D03*
X0064607Y0028800D03*
X0064607Y0028850D03*
X0064607Y0028900D03*
X0064607Y0028950D03*
X0064607Y0029000D03*
X0064607Y0029050D03*
X0064607Y0029100D03*
X0064607Y0029150D03*
X0064607Y0029200D03*
X0064607Y0029250D03*
X0064607Y0029300D03*
X0064607Y0029350D03*
X0064607Y0029400D03*
X0064607Y0029450D03*
X0064607Y0029500D03*
X0064607Y0029550D03*
X0064607Y0029600D03*
X0064607Y0029650D03*
X0064607Y0029700D03*
X0064607Y0029750D03*
X0064607Y0029800D03*
X0064607Y0029850D03*
X0064607Y0029900D03*
X0064607Y0029950D03*
X0064607Y0030000D03*
X0064607Y0030050D03*
X0064607Y0030100D03*
X0064607Y0030150D03*
X0064607Y0030200D03*
X0064607Y0030250D03*
X0064607Y0030300D03*
X0064607Y0030350D03*
X0064607Y0030400D03*
X0064607Y0030450D03*
X0064607Y0030500D03*
X0064607Y0030550D03*
X0064607Y0030600D03*
X0064607Y0030650D03*
X0064607Y0030700D03*
X0064607Y0030750D03*
X0064607Y0030800D03*
X0064607Y0030850D03*
X0064607Y0030900D03*
X0064607Y0030950D03*
X0064607Y0031000D03*
X0064607Y0031050D03*
X0064607Y0031100D03*
X0064607Y0031150D03*
X0064607Y0031200D03*
X0064607Y0031250D03*
X0064607Y0031300D03*
X0064607Y0031350D03*
X0064607Y0031400D03*
X0064607Y0031450D03*
X0064607Y0031500D03*
X0064607Y0031550D03*
X0064607Y0031600D03*
X0064607Y0031650D03*
X0064607Y0031700D03*
X0064607Y0031750D03*
X0064607Y0031800D03*
X0064607Y0031850D03*
X0064607Y0031900D03*
X0064607Y0031950D03*
X0064607Y0032000D03*
X0064607Y0032050D03*
X0064607Y0032100D03*
X0064607Y0032150D03*
X0064607Y0032200D03*
X0064607Y0032250D03*
X0064607Y0032300D03*
X0064607Y0032350D03*
X0064607Y0032400D03*
X0064607Y0032450D03*
X0064607Y0032500D03*
X0064607Y0032550D03*
X0064607Y0032600D03*
X0064607Y0032650D03*
X0064607Y0032700D03*
X0064607Y0032750D03*
X0064607Y0032800D03*
X0064607Y0032850D03*
X0064607Y0032900D03*
X0064607Y0032950D03*
X0064607Y0033000D03*
X0064607Y0033050D03*
X0064607Y0033100D03*
X0064607Y0033150D03*
X0064607Y0033200D03*
X0064607Y0033250D03*
X0064607Y0033300D03*
X0064607Y0033350D03*
X0064607Y0033400D03*
X0064607Y0033450D03*
X0064607Y0033500D03*
X0064607Y0033550D03*
X0064607Y0033600D03*
X0064607Y0033650D03*
X0064607Y0033700D03*
X0064607Y0033750D03*
X0064607Y0033800D03*
X0064607Y0033850D03*
X0064607Y0033900D03*
X0064607Y0033950D03*
X0064607Y0034000D03*
X0064607Y0034050D03*
X0064607Y0034100D03*
X0064607Y0034150D03*
X0064607Y0034200D03*
X0064607Y0034250D03*
X0064607Y0034300D03*
X0064607Y0034350D03*
X0064607Y0034400D03*
X0064607Y0034450D03*
X0064607Y0034500D03*
X0064607Y0034550D03*
X0064607Y0034600D03*
X0064607Y0034650D03*
X0064607Y0034700D03*
X0064607Y0034750D03*
X0064607Y0034800D03*
X0064607Y0034850D03*
X0064607Y0034900D03*
X0064607Y0034950D03*
D234*
X0087157Y0030450D03*
D235*
X0087132Y0030500D03*
X0087132Y0030550D03*
X0087132Y0030600D03*
X0087132Y0030650D03*
X0087132Y0030700D03*
X0087132Y0030750D03*
X0087132Y0030800D03*
X0087132Y0030850D03*
X0087132Y0030900D03*
X0087132Y0030950D03*
X0087132Y0031000D03*
X0087132Y0031050D03*
X0087132Y0031100D03*
X0087132Y0031150D03*
X0087132Y0031200D03*
X0087132Y0031250D03*
X0087132Y0031300D03*
X0087132Y0031350D03*
X0087132Y0031400D03*
X0087132Y0031450D03*
X0087132Y0031500D03*
X0087132Y0031550D03*
X0087132Y0031600D03*
X0087132Y0031650D03*
X0087132Y0031700D03*
X0087132Y0031750D03*
X0087132Y0031800D03*
X0087132Y0031850D03*
X0087132Y0031900D03*
X0087132Y0031950D03*
X0087132Y0032000D03*
X0087132Y0032050D03*
X0087132Y0032100D03*
X0087132Y0032150D03*
X0087132Y0032200D03*
X0087132Y0032250D03*
X0087132Y0032300D03*
X0087132Y0032350D03*
X0087132Y0032400D03*
X0087132Y0032450D03*
X0087132Y0032500D03*
X0087132Y0032550D03*
X0087132Y0032600D03*
X0087132Y0032650D03*
X0087132Y0032700D03*
X0087132Y0032750D03*
X0087132Y0032800D03*
X0087132Y0032850D03*
X0087132Y0032900D03*
X0087132Y0032950D03*
X0087132Y0033000D03*
X0087132Y0033050D03*
X0087132Y0033100D03*
X0087132Y0033150D03*
X0087132Y0033200D03*
X0087132Y0033250D03*
X0087132Y0033300D03*
X0087132Y0033350D03*
X0087132Y0033400D03*
X0087132Y0033450D03*
X0087132Y0033500D03*
X0087132Y0033550D03*
X0087132Y0033600D03*
X0087132Y0033650D03*
X0087132Y0033700D03*
X0087132Y0033750D03*
X0087132Y0033800D03*
X0087132Y0033850D03*
X0087132Y0033900D03*
X0087132Y0033950D03*
X0087132Y0034000D03*
X0087132Y0034050D03*
X0087132Y0034100D03*
X0087132Y0034150D03*
X0087132Y0034200D03*
X0087132Y0034250D03*
X0087132Y0034300D03*
X0087132Y0034350D03*
X0087132Y0034400D03*
X0087132Y0034450D03*
X0087132Y0034500D03*
X0087132Y0034550D03*
X0087132Y0034600D03*
X0087132Y0034650D03*
X0087132Y0034700D03*
X0087132Y0034750D03*
X0087132Y0034800D03*
X0087132Y0034850D03*
X0087132Y0034900D03*
X0087132Y0034950D03*
M02*
