%
M48
M72
T01C0.01200
T02C0.02362
T03C0.03740
T04C0.04921
T05C0.13780
%
T01
X37597Y19510
X60038Y31715
X66337Y41164
X72636Y7306
X129925Y6187
X145281Y20900
X146031Y30150
X146531Y43150
X151063Y58880
X150276Y66754
X151457Y71872
X141220Y78959
X136990Y72266
X130984Y58880
X112480Y77778
X117598Y83683
X124291Y89983
X128622Y93526
X137677Y93920
X130591Y106912
X122900Y118900
X125079Y123841
X114843Y119904
X106181Y126203
X105394Y138014
X114031Y153200
X122231Y147800
X129231Y154200
X142231Y160600
X144631Y164400
X147631Y160600
X159724Y147857
X157362Y144907
X160631Y143400
X159912Y139976
X158631Y136200
X158631Y133000
X159724Y128172
X151063Y125022
X142402Y130928
X135315Y131321
X138071Y124628
X136102Y140770
X148631Y140600
X171535Y142345
X171535Y138014
X176260Y138014
X176260Y142345
X180984Y142345
X180984Y138014
X180984Y146676
X180984Y151400
X180984Y155337
X176260Y155337
X176260Y151400
X176260Y146676
X171535Y146676
X171535Y151400
X171535Y155337
X192795Y155337
X192008Y147857
X193976Y145494
X195551Y134077
X195157Y130140
X190433Y104943
X175866Y88014
X156575Y86439
X162087Y112817
X192402Y163605
X170631Y195600
X86496Y121085
X81031Y116900
X83740Y114786
X79781Y110400
X70631Y115400
X67992Y108093
X73898Y102187
X60512Y100613
X48701Y101794
X38071Y91557
X68031Y124400
X54831Y141000
X47520Y148250
X41031Y160200
X32031Y139900
X68031Y155400
X73898Y152187
X79281Y144150
X103031Y76597
X91614Y75022
X87677Y75809
T02
X95431Y49005
X105431Y49005
X105431Y24595
X95431Y24595
T03
X93148Y36800
T04
X168619Y34069
X168619Y44108
X168619Y54108
X168619Y64108
X168619Y74226
X168619Y84226
X20031Y101400
X10031Y101400
X10031Y111400
X10031Y121400
X20031Y121400
X20031Y111400
T05
X18780Y17148
X184134Y17148
X184134Y182502
X18780Y182502
M30
