G75*
%MOIN*%
%OFA0B0*%
%FSLAX25Y25*%
%IPPOS*%
%LPD*%
%AMOC8*
5,1,8,0,0,1.08239X$1,22.5*
%
%ADD10C,0.00800*%
%ADD11C,0.00000*%
%ADD12C,0.14180*%
%ADD13R,0.03550X0.04337*%
%ADD14R,0.04337X0.03550*%
%ADD15R,0.05124X0.16148*%
%ADD16R,0.07093X0.14573*%
%ADD17R,0.04337X0.16148*%
%ADD18R,0.07782X0.07782*%
%ADD19C,0.07782*%
%ADD20R,0.04337X0.04731*%
%ADD21R,0.05912X0.04337*%
%ADD22R,0.22054X0.06306*%
%ADD23R,0.05124X0.05124*%
%ADD24R,0.06699X0.06306*%
%ADD25R,0.03943X0.04337*%
%ADD26R,0.04337X0.03943*%
%ADD27R,0.05124X0.07487*%
%ADD28R,0.02762X0.09061*%
%ADD29C,0.04140*%
%ADD30C,0.03962*%
%ADD31R,0.02369X0.06699*%
%ADD32R,0.06502X0.01384*%
%ADD33R,0.12605X0.20794*%
%ADD34R,0.04337X0.03156*%
D10*
X0003031Y0009274D02*
X0003031Y0190376D01*
X0003032Y0190376D02*
X0003034Y0190566D01*
X0003041Y0190756D01*
X0003053Y0190946D01*
X0003069Y0191136D01*
X0003089Y0191325D01*
X0003115Y0191514D01*
X0003144Y0191702D01*
X0003179Y0191889D01*
X0003218Y0192075D01*
X0003261Y0192260D01*
X0003309Y0192445D01*
X0003361Y0192628D01*
X0003417Y0192809D01*
X0003478Y0192989D01*
X0003544Y0193168D01*
X0003613Y0193345D01*
X0003687Y0193521D01*
X0003765Y0193694D01*
X0003848Y0193866D01*
X0003934Y0194035D01*
X0004024Y0194203D01*
X0004119Y0194368D01*
X0004217Y0194531D01*
X0004320Y0194691D01*
X0004426Y0194849D01*
X0004536Y0195004D01*
X0004649Y0195157D01*
X0004767Y0195307D01*
X0004888Y0195453D01*
X0005012Y0195597D01*
X0005140Y0195738D01*
X0005271Y0195876D01*
X0005406Y0196011D01*
X0005544Y0196142D01*
X0005685Y0196270D01*
X0005829Y0196394D01*
X0005975Y0196515D01*
X0006125Y0196633D01*
X0006278Y0196746D01*
X0006433Y0196856D01*
X0006591Y0196962D01*
X0006751Y0197065D01*
X0006914Y0197163D01*
X0007079Y0197258D01*
X0007247Y0197348D01*
X0007416Y0197434D01*
X0007588Y0197517D01*
X0007761Y0197595D01*
X0007937Y0197669D01*
X0008114Y0197738D01*
X0008293Y0197804D01*
X0008473Y0197865D01*
X0008654Y0197921D01*
X0008837Y0197973D01*
X0009022Y0198021D01*
X0009207Y0198064D01*
X0009393Y0198103D01*
X0009580Y0198138D01*
X0009768Y0198167D01*
X0009957Y0198193D01*
X0010146Y0198213D01*
X0010336Y0198229D01*
X0010526Y0198241D01*
X0010716Y0198248D01*
X0010906Y0198250D01*
X0192008Y0198250D01*
X0192198Y0198248D01*
X0192388Y0198241D01*
X0192578Y0198229D01*
X0192768Y0198213D01*
X0192957Y0198193D01*
X0193146Y0198167D01*
X0193334Y0198138D01*
X0193521Y0198103D01*
X0193707Y0198064D01*
X0193892Y0198021D01*
X0194077Y0197973D01*
X0194260Y0197921D01*
X0194441Y0197865D01*
X0194621Y0197804D01*
X0194800Y0197738D01*
X0194977Y0197669D01*
X0195153Y0197595D01*
X0195326Y0197517D01*
X0195498Y0197434D01*
X0195667Y0197348D01*
X0195835Y0197258D01*
X0196000Y0197163D01*
X0196163Y0197065D01*
X0196323Y0196962D01*
X0196481Y0196856D01*
X0196636Y0196746D01*
X0196789Y0196633D01*
X0196939Y0196515D01*
X0197085Y0196394D01*
X0197229Y0196270D01*
X0197370Y0196142D01*
X0197508Y0196011D01*
X0197643Y0195876D01*
X0197774Y0195738D01*
X0197902Y0195597D01*
X0198026Y0195453D01*
X0198147Y0195307D01*
X0198265Y0195157D01*
X0198378Y0195004D01*
X0198488Y0194849D01*
X0198594Y0194691D01*
X0198697Y0194531D01*
X0198795Y0194368D01*
X0198890Y0194203D01*
X0198980Y0194035D01*
X0199066Y0193866D01*
X0199149Y0193694D01*
X0199227Y0193521D01*
X0199301Y0193345D01*
X0199370Y0193168D01*
X0199436Y0192989D01*
X0199497Y0192809D01*
X0199553Y0192628D01*
X0199605Y0192445D01*
X0199653Y0192260D01*
X0199696Y0192075D01*
X0199735Y0191889D01*
X0199770Y0191702D01*
X0199799Y0191514D01*
X0199825Y0191325D01*
X0199845Y0191136D01*
X0199861Y0190946D01*
X0199873Y0190756D01*
X0199880Y0190566D01*
X0199882Y0190376D01*
X0199882Y0009274D01*
X0199880Y0009084D01*
X0199873Y0008894D01*
X0199861Y0008704D01*
X0199845Y0008514D01*
X0199825Y0008325D01*
X0199799Y0008136D01*
X0199770Y0007948D01*
X0199735Y0007761D01*
X0199696Y0007575D01*
X0199653Y0007390D01*
X0199605Y0007205D01*
X0199553Y0007022D01*
X0199497Y0006841D01*
X0199436Y0006661D01*
X0199370Y0006482D01*
X0199301Y0006305D01*
X0199227Y0006129D01*
X0199149Y0005956D01*
X0199066Y0005784D01*
X0198980Y0005615D01*
X0198890Y0005447D01*
X0198795Y0005282D01*
X0198697Y0005119D01*
X0198594Y0004959D01*
X0198488Y0004801D01*
X0198378Y0004646D01*
X0198265Y0004493D01*
X0198147Y0004343D01*
X0198026Y0004197D01*
X0197902Y0004053D01*
X0197774Y0003912D01*
X0197643Y0003774D01*
X0197508Y0003639D01*
X0197370Y0003508D01*
X0197229Y0003380D01*
X0197085Y0003256D01*
X0196939Y0003135D01*
X0196789Y0003017D01*
X0196636Y0002904D01*
X0196481Y0002794D01*
X0196323Y0002688D01*
X0196163Y0002585D01*
X0196000Y0002487D01*
X0195835Y0002392D01*
X0195667Y0002302D01*
X0195498Y0002216D01*
X0195326Y0002133D01*
X0195153Y0002055D01*
X0194977Y0001981D01*
X0194800Y0001912D01*
X0194621Y0001846D01*
X0194441Y0001785D01*
X0194260Y0001729D01*
X0194077Y0001677D01*
X0193892Y0001629D01*
X0193707Y0001586D01*
X0193521Y0001547D01*
X0193334Y0001512D01*
X0193146Y0001483D01*
X0192957Y0001457D01*
X0192768Y0001437D01*
X0192578Y0001421D01*
X0192388Y0001409D01*
X0192198Y0001402D01*
X0192008Y0001400D01*
X0010906Y0001400D01*
X0010716Y0001402D01*
X0010526Y0001409D01*
X0010336Y0001421D01*
X0010146Y0001437D01*
X0009957Y0001457D01*
X0009768Y0001483D01*
X0009580Y0001512D01*
X0009393Y0001547D01*
X0009207Y0001586D01*
X0009022Y0001629D01*
X0008837Y0001677D01*
X0008654Y0001729D01*
X0008473Y0001785D01*
X0008293Y0001846D01*
X0008114Y0001912D01*
X0007937Y0001981D01*
X0007761Y0002055D01*
X0007588Y0002133D01*
X0007416Y0002216D01*
X0007247Y0002302D01*
X0007079Y0002392D01*
X0006914Y0002487D01*
X0006751Y0002585D01*
X0006591Y0002688D01*
X0006433Y0002794D01*
X0006278Y0002904D01*
X0006125Y0003017D01*
X0005975Y0003135D01*
X0005829Y0003256D01*
X0005685Y0003380D01*
X0005544Y0003508D01*
X0005406Y0003639D01*
X0005271Y0003774D01*
X0005140Y0003912D01*
X0005012Y0004053D01*
X0004888Y0004197D01*
X0004767Y0004343D01*
X0004649Y0004493D01*
X0004536Y0004646D01*
X0004426Y0004801D01*
X0004320Y0004959D01*
X0004217Y0005119D01*
X0004119Y0005282D01*
X0004024Y0005447D01*
X0003934Y0005615D01*
X0003848Y0005784D01*
X0003765Y0005956D01*
X0003687Y0006129D01*
X0003613Y0006305D01*
X0003544Y0006482D01*
X0003478Y0006661D01*
X0003417Y0006841D01*
X0003361Y0007022D01*
X0003309Y0007205D01*
X0003261Y0007390D01*
X0003218Y0007575D01*
X0003179Y0007761D01*
X0003144Y0007948D01*
X0003115Y0008136D01*
X0003089Y0008325D01*
X0003069Y0008514D01*
X0003053Y0008704D01*
X0003041Y0008894D01*
X0003034Y0009084D01*
X0003032Y0009274D01*
D11*
X0011890Y0017148D02*
X0011892Y0017317D01*
X0011898Y0017486D01*
X0011909Y0017655D01*
X0011923Y0017823D01*
X0011942Y0017991D01*
X0011965Y0018159D01*
X0011991Y0018326D01*
X0012022Y0018492D01*
X0012057Y0018658D01*
X0012096Y0018822D01*
X0012140Y0018986D01*
X0012187Y0019148D01*
X0012238Y0019309D01*
X0012293Y0019469D01*
X0012352Y0019628D01*
X0012414Y0019785D01*
X0012481Y0019940D01*
X0012552Y0020094D01*
X0012626Y0020246D01*
X0012704Y0020396D01*
X0012785Y0020544D01*
X0012870Y0020690D01*
X0012959Y0020834D01*
X0013051Y0020976D01*
X0013147Y0021115D01*
X0013246Y0021252D01*
X0013348Y0021387D01*
X0013454Y0021519D01*
X0013563Y0021648D01*
X0013675Y0021775D01*
X0013790Y0021899D01*
X0013908Y0022020D01*
X0014029Y0022138D01*
X0014153Y0022253D01*
X0014280Y0022365D01*
X0014409Y0022474D01*
X0014541Y0022580D01*
X0014676Y0022682D01*
X0014813Y0022781D01*
X0014952Y0022877D01*
X0015094Y0022969D01*
X0015238Y0023058D01*
X0015384Y0023143D01*
X0015532Y0023224D01*
X0015682Y0023302D01*
X0015834Y0023376D01*
X0015988Y0023447D01*
X0016143Y0023514D01*
X0016300Y0023576D01*
X0016459Y0023635D01*
X0016619Y0023690D01*
X0016780Y0023741D01*
X0016942Y0023788D01*
X0017106Y0023832D01*
X0017270Y0023871D01*
X0017436Y0023906D01*
X0017602Y0023937D01*
X0017769Y0023963D01*
X0017937Y0023986D01*
X0018105Y0024005D01*
X0018273Y0024019D01*
X0018442Y0024030D01*
X0018611Y0024036D01*
X0018780Y0024038D01*
X0018949Y0024036D01*
X0019118Y0024030D01*
X0019287Y0024019D01*
X0019455Y0024005D01*
X0019623Y0023986D01*
X0019791Y0023963D01*
X0019958Y0023937D01*
X0020124Y0023906D01*
X0020290Y0023871D01*
X0020454Y0023832D01*
X0020618Y0023788D01*
X0020780Y0023741D01*
X0020941Y0023690D01*
X0021101Y0023635D01*
X0021260Y0023576D01*
X0021417Y0023514D01*
X0021572Y0023447D01*
X0021726Y0023376D01*
X0021878Y0023302D01*
X0022028Y0023224D01*
X0022176Y0023143D01*
X0022322Y0023058D01*
X0022466Y0022969D01*
X0022608Y0022877D01*
X0022747Y0022781D01*
X0022884Y0022682D01*
X0023019Y0022580D01*
X0023151Y0022474D01*
X0023280Y0022365D01*
X0023407Y0022253D01*
X0023531Y0022138D01*
X0023652Y0022020D01*
X0023770Y0021899D01*
X0023885Y0021775D01*
X0023997Y0021648D01*
X0024106Y0021519D01*
X0024212Y0021387D01*
X0024314Y0021252D01*
X0024413Y0021115D01*
X0024509Y0020976D01*
X0024601Y0020834D01*
X0024690Y0020690D01*
X0024775Y0020544D01*
X0024856Y0020396D01*
X0024934Y0020246D01*
X0025008Y0020094D01*
X0025079Y0019940D01*
X0025146Y0019785D01*
X0025208Y0019628D01*
X0025267Y0019469D01*
X0025322Y0019309D01*
X0025373Y0019148D01*
X0025420Y0018986D01*
X0025464Y0018822D01*
X0025503Y0018658D01*
X0025538Y0018492D01*
X0025569Y0018326D01*
X0025595Y0018159D01*
X0025618Y0017991D01*
X0025637Y0017823D01*
X0025651Y0017655D01*
X0025662Y0017486D01*
X0025668Y0017317D01*
X0025670Y0017148D01*
X0025668Y0016979D01*
X0025662Y0016810D01*
X0025651Y0016641D01*
X0025637Y0016473D01*
X0025618Y0016305D01*
X0025595Y0016137D01*
X0025569Y0015970D01*
X0025538Y0015804D01*
X0025503Y0015638D01*
X0025464Y0015474D01*
X0025420Y0015310D01*
X0025373Y0015148D01*
X0025322Y0014987D01*
X0025267Y0014827D01*
X0025208Y0014668D01*
X0025146Y0014511D01*
X0025079Y0014356D01*
X0025008Y0014202D01*
X0024934Y0014050D01*
X0024856Y0013900D01*
X0024775Y0013752D01*
X0024690Y0013606D01*
X0024601Y0013462D01*
X0024509Y0013320D01*
X0024413Y0013181D01*
X0024314Y0013044D01*
X0024212Y0012909D01*
X0024106Y0012777D01*
X0023997Y0012648D01*
X0023885Y0012521D01*
X0023770Y0012397D01*
X0023652Y0012276D01*
X0023531Y0012158D01*
X0023407Y0012043D01*
X0023280Y0011931D01*
X0023151Y0011822D01*
X0023019Y0011716D01*
X0022884Y0011614D01*
X0022747Y0011515D01*
X0022608Y0011419D01*
X0022466Y0011327D01*
X0022322Y0011238D01*
X0022176Y0011153D01*
X0022028Y0011072D01*
X0021878Y0010994D01*
X0021726Y0010920D01*
X0021572Y0010849D01*
X0021417Y0010782D01*
X0021260Y0010720D01*
X0021101Y0010661D01*
X0020941Y0010606D01*
X0020780Y0010555D01*
X0020618Y0010508D01*
X0020454Y0010464D01*
X0020290Y0010425D01*
X0020124Y0010390D01*
X0019958Y0010359D01*
X0019791Y0010333D01*
X0019623Y0010310D01*
X0019455Y0010291D01*
X0019287Y0010277D01*
X0019118Y0010266D01*
X0018949Y0010260D01*
X0018780Y0010258D01*
X0018611Y0010260D01*
X0018442Y0010266D01*
X0018273Y0010277D01*
X0018105Y0010291D01*
X0017937Y0010310D01*
X0017769Y0010333D01*
X0017602Y0010359D01*
X0017436Y0010390D01*
X0017270Y0010425D01*
X0017106Y0010464D01*
X0016942Y0010508D01*
X0016780Y0010555D01*
X0016619Y0010606D01*
X0016459Y0010661D01*
X0016300Y0010720D01*
X0016143Y0010782D01*
X0015988Y0010849D01*
X0015834Y0010920D01*
X0015682Y0010994D01*
X0015532Y0011072D01*
X0015384Y0011153D01*
X0015238Y0011238D01*
X0015094Y0011327D01*
X0014952Y0011419D01*
X0014813Y0011515D01*
X0014676Y0011614D01*
X0014541Y0011716D01*
X0014409Y0011822D01*
X0014280Y0011931D01*
X0014153Y0012043D01*
X0014029Y0012158D01*
X0013908Y0012276D01*
X0013790Y0012397D01*
X0013675Y0012521D01*
X0013563Y0012648D01*
X0013454Y0012777D01*
X0013348Y0012909D01*
X0013246Y0013044D01*
X0013147Y0013181D01*
X0013051Y0013320D01*
X0012959Y0013462D01*
X0012870Y0013606D01*
X0012785Y0013752D01*
X0012704Y0013900D01*
X0012626Y0014050D01*
X0012552Y0014202D01*
X0012481Y0014356D01*
X0012414Y0014511D01*
X0012352Y0014668D01*
X0012293Y0014827D01*
X0012238Y0014987D01*
X0012187Y0015148D01*
X0012140Y0015310D01*
X0012096Y0015474D01*
X0012057Y0015638D01*
X0012022Y0015804D01*
X0011991Y0015970D01*
X0011965Y0016137D01*
X0011942Y0016305D01*
X0011923Y0016473D01*
X0011909Y0016641D01*
X0011898Y0016810D01*
X0011892Y0016979D01*
X0011890Y0017148D01*
X0091278Y0036800D02*
X0091280Y0036886D01*
X0091286Y0036973D01*
X0091296Y0037058D01*
X0091310Y0037144D01*
X0091328Y0037228D01*
X0091349Y0037312D01*
X0091375Y0037394D01*
X0091404Y0037476D01*
X0091437Y0037555D01*
X0091474Y0037634D01*
X0091514Y0037710D01*
X0091558Y0037784D01*
X0091605Y0037857D01*
X0091656Y0037927D01*
X0091709Y0037995D01*
X0091766Y0038060D01*
X0091826Y0038122D01*
X0091888Y0038182D01*
X0091953Y0038239D01*
X0092021Y0038292D01*
X0092091Y0038343D01*
X0092164Y0038390D01*
X0092238Y0038434D01*
X0092314Y0038474D01*
X0092393Y0038511D01*
X0092472Y0038544D01*
X0092554Y0038573D01*
X0092636Y0038599D01*
X0092720Y0038620D01*
X0092804Y0038638D01*
X0092890Y0038652D01*
X0092975Y0038662D01*
X0093062Y0038668D01*
X0093148Y0038670D01*
X0093234Y0038668D01*
X0093321Y0038662D01*
X0093406Y0038652D01*
X0093492Y0038638D01*
X0093576Y0038620D01*
X0093660Y0038599D01*
X0093742Y0038573D01*
X0093824Y0038544D01*
X0093903Y0038511D01*
X0093982Y0038474D01*
X0094058Y0038434D01*
X0094132Y0038390D01*
X0094205Y0038343D01*
X0094275Y0038292D01*
X0094343Y0038239D01*
X0094408Y0038182D01*
X0094470Y0038122D01*
X0094530Y0038060D01*
X0094587Y0037995D01*
X0094640Y0037927D01*
X0094691Y0037857D01*
X0094738Y0037784D01*
X0094782Y0037710D01*
X0094822Y0037634D01*
X0094859Y0037555D01*
X0094892Y0037476D01*
X0094921Y0037394D01*
X0094947Y0037312D01*
X0094968Y0037228D01*
X0094986Y0037144D01*
X0095000Y0037058D01*
X0095010Y0036973D01*
X0095016Y0036886D01*
X0095018Y0036800D01*
X0095016Y0036714D01*
X0095010Y0036627D01*
X0095000Y0036542D01*
X0094986Y0036456D01*
X0094968Y0036372D01*
X0094947Y0036288D01*
X0094921Y0036206D01*
X0094892Y0036124D01*
X0094859Y0036045D01*
X0094822Y0035966D01*
X0094782Y0035890D01*
X0094738Y0035816D01*
X0094691Y0035743D01*
X0094640Y0035673D01*
X0094587Y0035605D01*
X0094530Y0035540D01*
X0094470Y0035478D01*
X0094408Y0035418D01*
X0094343Y0035361D01*
X0094275Y0035308D01*
X0094205Y0035257D01*
X0094132Y0035210D01*
X0094058Y0035166D01*
X0093982Y0035126D01*
X0093903Y0035089D01*
X0093824Y0035056D01*
X0093742Y0035027D01*
X0093660Y0035001D01*
X0093576Y0034980D01*
X0093492Y0034962D01*
X0093406Y0034948D01*
X0093321Y0034938D01*
X0093234Y0034932D01*
X0093148Y0034930D01*
X0093062Y0034932D01*
X0092975Y0034938D01*
X0092890Y0034948D01*
X0092804Y0034962D01*
X0092720Y0034980D01*
X0092636Y0035001D01*
X0092554Y0035027D01*
X0092472Y0035056D01*
X0092393Y0035089D01*
X0092314Y0035126D01*
X0092238Y0035166D01*
X0092164Y0035210D01*
X0092091Y0035257D01*
X0092021Y0035308D01*
X0091953Y0035361D01*
X0091888Y0035418D01*
X0091826Y0035478D01*
X0091766Y0035540D01*
X0091709Y0035605D01*
X0091656Y0035673D01*
X0091605Y0035743D01*
X0091558Y0035816D01*
X0091514Y0035890D01*
X0091474Y0035966D01*
X0091437Y0036045D01*
X0091404Y0036124D01*
X0091375Y0036206D01*
X0091349Y0036288D01*
X0091328Y0036372D01*
X0091310Y0036456D01*
X0091296Y0036542D01*
X0091286Y0036627D01*
X0091280Y0036714D01*
X0091278Y0036800D01*
X0177244Y0017148D02*
X0177246Y0017317D01*
X0177252Y0017486D01*
X0177263Y0017655D01*
X0177277Y0017823D01*
X0177296Y0017991D01*
X0177319Y0018159D01*
X0177345Y0018326D01*
X0177376Y0018492D01*
X0177411Y0018658D01*
X0177450Y0018822D01*
X0177494Y0018986D01*
X0177541Y0019148D01*
X0177592Y0019309D01*
X0177647Y0019469D01*
X0177706Y0019628D01*
X0177768Y0019785D01*
X0177835Y0019940D01*
X0177906Y0020094D01*
X0177980Y0020246D01*
X0178058Y0020396D01*
X0178139Y0020544D01*
X0178224Y0020690D01*
X0178313Y0020834D01*
X0178405Y0020976D01*
X0178501Y0021115D01*
X0178600Y0021252D01*
X0178702Y0021387D01*
X0178808Y0021519D01*
X0178917Y0021648D01*
X0179029Y0021775D01*
X0179144Y0021899D01*
X0179262Y0022020D01*
X0179383Y0022138D01*
X0179507Y0022253D01*
X0179634Y0022365D01*
X0179763Y0022474D01*
X0179895Y0022580D01*
X0180030Y0022682D01*
X0180167Y0022781D01*
X0180306Y0022877D01*
X0180448Y0022969D01*
X0180592Y0023058D01*
X0180738Y0023143D01*
X0180886Y0023224D01*
X0181036Y0023302D01*
X0181188Y0023376D01*
X0181342Y0023447D01*
X0181497Y0023514D01*
X0181654Y0023576D01*
X0181813Y0023635D01*
X0181973Y0023690D01*
X0182134Y0023741D01*
X0182296Y0023788D01*
X0182460Y0023832D01*
X0182624Y0023871D01*
X0182790Y0023906D01*
X0182956Y0023937D01*
X0183123Y0023963D01*
X0183291Y0023986D01*
X0183459Y0024005D01*
X0183627Y0024019D01*
X0183796Y0024030D01*
X0183965Y0024036D01*
X0184134Y0024038D01*
X0184303Y0024036D01*
X0184472Y0024030D01*
X0184641Y0024019D01*
X0184809Y0024005D01*
X0184977Y0023986D01*
X0185145Y0023963D01*
X0185312Y0023937D01*
X0185478Y0023906D01*
X0185644Y0023871D01*
X0185808Y0023832D01*
X0185972Y0023788D01*
X0186134Y0023741D01*
X0186295Y0023690D01*
X0186455Y0023635D01*
X0186614Y0023576D01*
X0186771Y0023514D01*
X0186926Y0023447D01*
X0187080Y0023376D01*
X0187232Y0023302D01*
X0187382Y0023224D01*
X0187530Y0023143D01*
X0187676Y0023058D01*
X0187820Y0022969D01*
X0187962Y0022877D01*
X0188101Y0022781D01*
X0188238Y0022682D01*
X0188373Y0022580D01*
X0188505Y0022474D01*
X0188634Y0022365D01*
X0188761Y0022253D01*
X0188885Y0022138D01*
X0189006Y0022020D01*
X0189124Y0021899D01*
X0189239Y0021775D01*
X0189351Y0021648D01*
X0189460Y0021519D01*
X0189566Y0021387D01*
X0189668Y0021252D01*
X0189767Y0021115D01*
X0189863Y0020976D01*
X0189955Y0020834D01*
X0190044Y0020690D01*
X0190129Y0020544D01*
X0190210Y0020396D01*
X0190288Y0020246D01*
X0190362Y0020094D01*
X0190433Y0019940D01*
X0190500Y0019785D01*
X0190562Y0019628D01*
X0190621Y0019469D01*
X0190676Y0019309D01*
X0190727Y0019148D01*
X0190774Y0018986D01*
X0190818Y0018822D01*
X0190857Y0018658D01*
X0190892Y0018492D01*
X0190923Y0018326D01*
X0190949Y0018159D01*
X0190972Y0017991D01*
X0190991Y0017823D01*
X0191005Y0017655D01*
X0191016Y0017486D01*
X0191022Y0017317D01*
X0191024Y0017148D01*
X0191022Y0016979D01*
X0191016Y0016810D01*
X0191005Y0016641D01*
X0190991Y0016473D01*
X0190972Y0016305D01*
X0190949Y0016137D01*
X0190923Y0015970D01*
X0190892Y0015804D01*
X0190857Y0015638D01*
X0190818Y0015474D01*
X0190774Y0015310D01*
X0190727Y0015148D01*
X0190676Y0014987D01*
X0190621Y0014827D01*
X0190562Y0014668D01*
X0190500Y0014511D01*
X0190433Y0014356D01*
X0190362Y0014202D01*
X0190288Y0014050D01*
X0190210Y0013900D01*
X0190129Y0013752D01*
X0190044Y0013606D01*
X0189955Y0013462D01*
X0189863Y0013320D01*
X0189767Y0013181D01*
X0189668Y0013044D01*
X0189566Y0012909D01*
X0189460Y0012777D01*
X0189351Y0012648D01*
X0189239Y0012521D01*
X0189124Y0012397D01*
X0189006Y0012276D01*
X0188885Y0012158D01*
X0188761Y0012043D01*
X0188634Y0011931D01*
X0188505Y0011822D01*
X0188373Y0011716D01*
X0188238Y0011614D01*
X0188101Y0011515D01*
X0187962Y0011419D01*
X0187820Y0011327D01*
X0187676Y0011238D01*
X0187530Y0011153D01*
X0187382Y0011072D01*
X0187232Y0010994D01*
X0187080Y0010920D01*
X0186926Y0010849D01*
X0186771Y0010782D01*
X0186614Y0010720D01*
X0186455Y0010661D01*
X0186295Y0010606D01*
X0186134Y0010555D01*
X0185972Y0010508D01*
X0185808Y0010464D01*
X0185644Y0010425D01*
X0185478Y0010390D01*
X0185312Y0010359D01*
X0185145Y0010333D01*
X0184977Y0010310D01*
X0184809Y0010291D01*
X0184641Y0010277D01*
X0184472Y0010266D01*
X0184303Y0010260D01*
X0184134Y0010258D01*
X0183965Y0010260D01*
X0183796Y0010266D01*
X0183627Y0010277D01*
X0183459Y0010291D01*
X0183291Y0010310D01*
X0183123Y0010333D01*
X0182956Y0010359D01*
X0182790Y0010390D01*
X0182624Y0010425D01*
X0182460Y0010464D01*
X0182296Y0010508D01*
X0182134Y0010555D01*
X0181973Y0010606D01*
X0181813Y0010661D01*
X0181654Y0010720D01*
X0181497Y0010782D01*
X0181342Y0010849D01*
X0181188Y0010920D01*
X0181036Y0010994D01*
X0180886Y0011072D01*
X0180738Y0011153D01*
X0180592Y0011238D01*
X0180448Y0011327D01*
X0180306Y0011419D01*
X0180167Y0011515D01*
X0180030Y0011614D01*
X0179895Y0011716D01*
X0179763Y0011822D01*
X0179634Y0011931D01*
X0179507Y0012043D01*
X0179383Y0012158D01*
X0179262Y0012276D01*
X0179144Y0012397D01*
X0179029Y0012521D01*
X0178917Y0012648D01*
X0178808Y0012777D01*
X0178702Y0012909D01*
X0178600Y0013044D01*
X0178501Y0013181D01*
X0178405Y0013320D01*
X0178313Y0013462D01*
X0178224Y0013606D01*
X0178139Y0013752D01*
X0178058Y0013900D01*
X0177980Y0014050D01*
X0177906Y0014202D01*
X0177835Y0014356D01*
X0177768Y0014511D01*
X0177706Y0014668D01*
X0177647Y0014827D01*
X0177592Y0014987D01*
X0177541Y0015148D01*
X0177494Y0015310D01*
X0177450Y0015474D01*
X0177411Y0015638D01*
X0177376Y0015804D01*
X0177345Y0015970D01*
X0177319Y0016137D01*
X0177296Y0016305D01*
X0177277Y0016473D01*
X0177263Y0016641D01*
X0177252Y0016810D01*
X0177246Y0016979D01*
X0177244Y0017148D01*
X0177244Y0182502D02*
X0177246Y0182671D01*
X0177252Y0182840D01*
X0177263Y0183009D01*
X0177277Y0183177D01*
X0177296Y0183345D01*
X0177319Y0183513D01*
X0177345Y0183680D01*
X0177376Y0183846D01*
X0177411Y0184012D01*
X0177450Y0184176D01*
X0177494Y0184340D01*
X0177541Y0184502D01*
X0177592Y0184663D01*
X0177647Y0184823D01*
X0177706Y0184982D01*
X0177768Y0185139D01*
X0177835Y0185294D01*
X0177906Y0185448D01*
X0177980Y0185600D01*
X0178058Y0185750D01*
X0178139Y0185898D01*
X0178224Y0186044D01*
X0178313Y0186188D01*
X0178405Y0186330D01*
X0178501Y0186469D01*
X0178600Y0186606D01*
X0178702Y0186741D01*
X0178808Y0186873D01*
X0178917Y0187002D01*
X0179029Y0187129D01*
X0179144Y0187253D01*
X0179262Y0187374D01*
X0179383Y0187492D01*
X0179507Y0187607D01*
X0179634Y0187719D01*
X0179763Y0187828D01*
X0179895Y0187934D01*
X0180030Y0188036D01*
X0180167Y0188135D01*
X0180306Y0188231D01*
X0180448Y0188323D01*
X0180592Y0188412D01*
X0180738Y0188497D01*
X0180886Y0188578D01*
X0181036Y0188656D01*
X0181188Y0188730D01*
X0181342Y0188801D01*
X0181497Y0188868D01*
X0181654Y0188930D01*
X0181813Y0188989D01*
X0181973Y0189044D01*
X0182134Y0189095D01*
X0182296Y0189142D01*
X0182460Y0189186D01*
X0182624Y0189225D01*
X0182790Y0189260D01*
X0182956Y0189291D01*
X0183123Y0189317D01*
X0183291Y0189340D01*
X0183459Y0189359D01*
X0183627Y0189373D01*
X0183796Y0189384D01*
X0183965Y0189390D01*
X0184134Y0189392D01*
X0184303Y0189390D01*
X0184472Y0189384D01*
X0184641Y0189373D01*
X0184809Y0189359D01*
X0184977Y0189340D01*
X0185145Y0189317D01*
X0185312Y0189291D01*
X0185478Y0189260D01*
X0185644Y0189225D01*
X0185808Y0189186D01*
X0185972Y0189142D01*
X0186134Y0189095D01*
X0186295Y0189044D01*
X0186455Y0188989D01*
X0186614Y0188930D01*
X0186771Y0188868D01*
X0186926Y0188801D01*
X0187080Y0188730D01*
X0187232Y0188656D01*
X0187382Y0188578D01*
X0187530Y0188497D01*
X0187676Y0188412D01*
X0187820Y0188323D01*
X0187962Y0188231D01*
X0188101Y0188135D01*
X0188238Y0188036D01*
X0188373Y0187934D01*
X0188505Y0187828D01*
X0188634Y0187719D01*
X0188761Y0187607D01*
X0188885Y0187492D01*
X0189006Y0187374D01*
X0189124Y0187253D01*
X0189239Y0187129D01*
X0189351Y0187002D01*
X0189460Y0186873D01*
X0189566Y0186741D01*
X0189668Y0186606D01*
X0189767Y0186469D01*
X0189863Y0186330D01*
X0189955Y0186188D01*
X0190044Y0186044D01*
X0190129Y0185898D01*
X0190210Y0185750D01*
X0190288Y0185600D01*
X0190362Y0185448D01*
X0190433Y0185294D01*
X0190500Y0185139D01*
X0190562Y0184982D01*
X0190621Y0184823D01*
X0190676Y0184663D01*
X0190727Y0184502D01*
X0190774Y0184340D01*
X0190818Y0184176D01*
X0190857Y0184012D01*
X0190892Y0183846D01*
X0190923Y0183680D01*
X0190949Y0183513D01*
X0190972Y0183345D01*
X0190991Y0183177D01*
X0191005Y0183009D01*
X0191016Y0182840D01*
X0191022Y0182671D01*
X0191024Y0182502D01*
X0191022Y0182333D01*
X0191016Y0182164D01*
X0191005Y0181995D01*
X0190991Y0181827D01*
X0190972Y0181659D01*
X0190949Y0181491D01*
X0190923Y0181324D01*
X0190892Y0181158D01*
X0190857Y0180992D01*
X0190818Y0180828D01*
X0190774Y0180664D01*
X0190727Y0180502D01*
X0190676Y0180341D01*
X0190621Y0180181D01*
X0190562Y0180022D01*
X0190500Y0179865D01*
X0190433Y0179710D01*
X0190362Y0179556D01*
X0190288Y0179404D01*
X0190210Y0179254D01*
X0190129Y0179106D01*
X0190044Y0178960D01*
X0189955Y0178816D01*
X0189863Y0178674D01*
X0189767Y0178535D01*
X0189668Y0178398D01*
X0189566Y0178263D01*
X0189460Y0178131D01*
X0189351Y0178002D01*
X0189239Y0177875D01*
X0189124Y0177751D01*
X0189006Y0177630D01*
X0188885Y0177512D01*
X0188761Y0177397D01*
X0188634Y0177285D01*
X0188505Y0177176D01*
X0188373Y0177070D01*
X0188238Y0176968D01*
X0188101Y0176869D01*
X0187962Y0176773D01*
X0187820Y0176681D01*
X0187676Y0176592D01*
X0187530Y0176507D01*
X0187382Y0176426D01*
X0187232Y0176348D01*
X0187080Y0176274D01*
X0186926Y0176203D01*
X0186771Y0176136D01*
X0186614Y0176074D01*
X0186455Y0176015D01*
X0186295Y0175960D01*
X0186134Y0175909D01*
X0185972Y0175862D01*
X0185808Y0175818D01*
X0185644Y0175779D01*
X0185478Y0175744D01*
X0185312Y0175713D01*
X0185145Y0175687D01*
X0184977Y0175664D01*
X0184809Y0175645D01*
X0184641Y0175631D01*
X0184472Y0175620D01*
X0184303Y0175614D01*
X0184134Y0175612D01*
X0183965Y0175614D01*
X0183796Y0175620D01*
X0183627Y0175631D01*
X0183459Y0175645D01*
X0183291Y0175664D01*
X0183123Y0175687D01*
X0182956Y0175713D01*
X0182790Y0175744D01*
X0182624Y0175779D01*
X0182460Y0175818D01*
X0182296Y0175862D01*
X0182134Y0175909D01*
X0181973Y0175960D01*
X0181813Y0176015D01*
X0181654Y0176074D01*
X0181497Y0176136D01*
X0181342Y0176203D01*
X0181188Y0176274D01*
X0181036Y0176348D01*
X0180886Y0176426D01*
X0180738Y0176507D01*
X0180592Y0176592D01*
X0180448Y0176681D01*
X0180306Y0176773D01*
X0180167Y0176869D01*
X0180030Y0176968D01*
X0179895Y0177070D01*
X0179763Y0177176D01*
X0179634Y0177285D01*
X0179507Y0177397D01*
X0179383Y0177512D01*
X0179262Y0177630D01*
X0179144Y0177751D01*
X0179029Y0177875D01*
X0178917Y0178002D01*
X0178808Y0178131D01*
X0178702Y0178263D01*
X0178600Y0178398D01*
X0178501Y0178535D01*
X0178405Y0178674D01*
X0178313Y0178816D01*
X0178224Y0178960D01*
X0178139Y0179106D01*
X0178058Y0179254D01*
X0177980Y0179404D01*
X0177906Y0179556D01*
X0177835Y0179710D01*
X0177768Y0179865D01*
X0177706Y0180022D01*
X0177647Y0180181D01*
X0177592Y0180341D01*
X0177541Y0180502D01*
X0177494Y0180664D01*
X0177450Y0180828D01*
X0177411Y0180992D01*
X0177376Y0181158D01*
X0177345Y0181324D01*
X0177319Y0181491D01*
X0177296Y0181659D01*
X0177277Y0181827D01*
X0177263Y0181995D01*
X0177252Y0182164D01*
X0177246Y0182333D01*
X0177244Y0182502D01*
X0011890Y0182502D02*
X0011892Y0182671D01*
X0011898Y0182840D01*
X0011909Y0183009D01*
X0011923Y0183177D01*
X0011942Y0183345D01*
X0011965Y0183513D01*
X0011991Y0183680D01*
X0012022Y0183846D01*
X0012057Y0184012D01*
X0012096Y0184176D01*
X0012140Y0184340D01*
X0012187Y0184502D01*
X0012238Y0184663D01*
X0012293Y0184823D01*
X0012352Y0184982D01*
X0012414Y0185139D01*
X0012481Y0185294D01*
X0012552Y0185448D01*
X0012626Y0185600D01*
X0012704Y0185750D01*
X0012785Y0185898D01*
X0012870Y0186044D01*
X0012959Y0186188D01*
X0013051Y0186330D01*
X0013147Y0186469D01*
X0013246Y0186606D01*
X0013348Y0186741D01*
X0013454Y0186873D01*
X0013563Y0187002D01*
X0013675Y0187129D01*
X0013790Y0187253D01*
X0013908Y0187374D01*
X0014029Y0187492D01*
X0014153Y0187607D01*
X0014280Y0187719D01*
X0014409Y0187828D01*
X0014541Y0187934D01*
X0014676Y0188036D01*
X0014813Y0188135D01*
X0014952Y0188231D01*
X0015094Y0188323D01*
X0015238Y0188412D01*
X0015384Y0188497D01*
X0015532Y0188578D01*
X0015682Y0188656D01*
X0015834Y0188730D01*
X0015988Y0188801D01*
X0016143Y0188868D01*
X0016300Y0188930D01*
X0016459Y0188989D01*
X0016619Y0189044D01*
X0016780Y0189095D01*
X0016942Y0189142D01*
X0017106Y0189186D01*
X0017270Y0189225D01*
X0017436Y0189260D01*
X0017602Y0189291D01*
X0017769Y0189317D01*
X0017937Y0189340D01*
X0018105Y0189359D01*
X0018273Y0189373D01*
X0018442Y0189384D01*
X0018611Y0189390D01*
X0018780Y0189392D01*
X0018949Y0189390D01*
X0019118Y0189384D01*
X0019287Y0189373D01*
X0019455Y0189359D01*
X0019623Y0189340D01*
X0019791Y0189317D01*
X0019958Y0189291D01*
X0020124Y0189260D01*
X0020290Y0189225D01*
X0020454Y0189186D01*
X0020618Y0189142D01*
X0020780Y0189095D01*
X0020941Y0189044D01*
X0021101Y0188989D01*
X0021260Y0188930D01*
X0021417Y0188868D01*
X0021572Y0188801D01*
X0021726Y0188730D01*
X0021878Y0188656D01*
X0022028Y0188578D01*
X0022176Y0188497D01*
X0022322Y0188412D01*
X0022466Y0188323D01*
X0022608Y0188231D01*
X0022747Y0188135D01*
X0022884Y0188036D01*
X0023019Y0187934D01*
X0023151Y0187828D01*
X0023280Y0187719D01*
X0023407Y0187607D01*
X0023531Y0187492D01*
X0023652Y0187374D01*
X0023770Y0187253D01*
X0023885Y0187129D01*
X0023997Y0187002D01*
X0024106Y0186873D01*
X0024212Y0186741D01*
X0024314Y0186606D01*
X0024413Y0186469D01*
X0024509Y0186330D01*
X0024601Y0186188D01*
X0024690Y0186044D01*
X0024775Y0185898D01*
X0024856Y0185750D01*
X0024934Y0185600D01*
X0025008Y0185448D01*
X0025079Y0185294D01*
X0025146Y0185139D01*
X0025208Y0184982D01*
X0025267Y0184823D01*
X0025322Y0184663D01*
X0025373Y0184502D01*
X0025420Y0184340D01*
X0025464Y0184176D01*
X0025503Y0184012D01*
X0025538Y0183846D01*
X0025569Y0183680D01*
X0025595Y0183513D01*
X0025618Y0183345D01*
X0025637Y0183177D01*
X0025651Y0183009D01*
X0025662Y0182840D01*
X0025668Y0182671D01*
X0025670Y0182502D01*
X0025668Y0182333D01*
X0025662Y0182164D01*
X0025651Y0181995D01*
X0025637Y0181827D01*
X0025618Y0181659D01*
X0025595Y0181491D01*
X0025569Y0181324D01*
X0025538Y0181158D01*
X0025503Y0180992D01*
X0025464Y0180828D01*
X0025420Y0180664D01*
X0025373Y0180502D01*
X0025322Y0180341D01*
X0025267Y0180181D01*
X0025208Y0180022D01*
X0025146Y0179865D01*
X0025079Y0179710D01*
X0025008Y0179556D01*
X0024934Y0179404D01*
X0024856Y0179254D01*
X0024775Y0179106D01*
X0024690Y0178960D01*
X0024601Y0178816D01*
X0024509Y0178674D01*
X0024413Y0178535D01*
X0024314Y0178398D01*
X0024212Y0178263D01*
X0024106Y0178131D01*
X0023997Y0178002D01*
X0023885Y0177875D01*
X0023770Y0177751D01*
X0023652Y0177630D01*
X0023531Y0177512D01*
X0023407Y0177397D01*
X0023280Y0177285D01*
X0023151Y0177176D01*
X0023019Y0177070D01*
X0022884Y0176968D01*
X0022747Y0176869D01*
X0022608Y0176773D01*
X0022466Y0176681D01*
X0022322Y0176592D01*
X0022176Y0176507D01*
X0022028Y0176426D01*
X0021878Y0176348D01*
X0021726Y0176274D01*
X0021572Y0176203D01*
X0021417Y0176136D01*
X0021260Y0176074D01*
X0021101Y0176015D01*
X0020941Y0175960D01*
X0020780Y0175909D01*
X0020618Y0175862D01*
X0020454Y0175818D01*
X0020290Y0175779D01*
X0020124Y0175744D01*
X0019958Y0175713D01*
X0019791Y0175687D01*
X0019623Y0175664D01*
X0019455Y0175645D01*
X0019287Y0175631D01*
X0019118Y0175620D01*
X0018949Y0175614D01*
X0018780Y0175612D01*
X0018611Y0175614D01*
X0018442Y0175620D01*
X0018273Y0175631D01*
X0018105Y0175645D01*
X0017937Y0175664D01*
X0017769Y0175687D01*
X0017602Y0175713D01*
X0017436Y0175744D01*
X0017270Y0175779D01*
X0017106Y0175818D01*
X0016942Y0175862D01*
X0016780Y0175909D01*
X0016619Y0175960D01*
X0016459Y0176015D01*
X0016300Y0176074D01*
X0016143Y0176136D01*
X0015988Y0176203D01*
X0015834Y0176274D01*
X0015682Y0176348D01*
X0015532Y0176426D01*
X0015384Y0176507D01*
X0015238Y0176592D01*
X0015094Y0176681D01*
X0014952Y0176773D01*
X0014813Y0176869D01*
X0014676Y0176968D01*
X0014541Y0177070D01*
X0014409Y0177176D01*
X0014280Y0177285D01*
X0014153Y0177397D01*
X0014029Y0177512D01*
X0013908Y0177630D01*
X0013790Y0177751D01*
X0013675Y0177875D01*
X0013563Y0178002D01*
X0013454Y0178131D01*
X0013348Y0178263D01*
X0013246Y0178398D01*
X0013147Y0178535D01*
X0013051Y0178674D01*
X0012959Y0178816D01*
X0012870Y0178960D01*
X0012785Y0179106D01*
X0012704Y0179254D01*
X0012626Y0179404D01*
X0012552Y0179556D01*
X0012481Y0179710D01*
X0012414Y0179865D01*
X0012352Y0180022D01*
X0012293Y0180181D01*
X0012238Y0180341D01*
X0012187Y0180502D01*
X0012140Y0180664D01*
X0012096Y0180828D01*
X0012057Y0180992D01*
X0012022Y0181158D01*
X0011991Y0181324D01*
X0011965Y0181491D01*
X0011942Y0181659D01*
X0011923Y0181827D01*
X0011909Y0181995D01*
X0011898Y0182164D01*
X0011892Y0182333D01*
X0011890Y0182502D01*
D12*
X0018780Y0182502D03*
X0184134Y0182502D03*
X0184134Y0017148D03*
X0018780Y0017148D03*
D13*
X0043337Y0036229D03*
X0049046Y0036229D03*
X0056077Y0036400D03*
X0061786Y0036400D03*
X0140427Y0058900D03*
X0146136Y0058900D03*
X0146136Y0065400D03*
X0140427Y0065400D03*
G36*
X0052714Y0132026D02*
X0055225Y0134537D01*
X0058290Y0131472D01*
X0055779Y0128961D01*
X0052714Y0132026D01*
G37*
G36*
X0048678Y0127990D02*
X0051189Y0130501D01*
X0054254Y0127436D01*
X0051743Y0124925D01*
X0048678Y0127990D01*
G37*
G36*
X0041705Y0134116D02*
X0044216Y0136627D01*
X0047281Y0133562D01*
X0044770Y0131051D01*
X0041705Y0134116D01*
G37*
G36*
X0045742Y0138153D02*
X0048253Y0140664D01*
X0051318Y0137599D01*
X0048807Y0135088D01*
X0045742Y0138153D01*
G37*
X0160998Y0179869D03*
X0166707Y0179869D03*
D14*
X0154613Y0176998D03*
X0154613Y0171290D03*
D15*
X0087110Y0166106D03*
X0079236Y0166106D03*
X0071362Y0166106D03*
X0063488Y0166106D03*
X0055614Y0166106D03*
X0047740Y0166106D03*
D16*
X0038488Y0189138D03*
X0096362Y0189138D03*
X0104966Y0189044D03*
X0147092Y0189044D03*
D17*
X0137840Y0166013D03*
X0129966Y0166013D03*
X0122092Y0166013D03*
X0114218Y0166013D03*
D18*
X0010031Y0101400D03*
X0168619Y0034069D03*
D19*
X0168619Y0044108D03*
X0168619Y0054108D03*
X0168619Y0064108D03*
X0168619Y0074226D03*
X0168619Y0084226D03*
X0020031Y0101400D03*
X0020031Y0111400D03*
X0010031Y0111400D03*
X0010031Y0121400D03*
X0020031Y0121400D03*
D20*
X0126031Y0031246D03*
X0126031Y0024554D03*
D21*
X0132701Y0027400D03*
X0141362Y0024054D03*
X0141362Y0030746D03*
D22*
G36*
X0047903Y0107010D02*
X0063496Y0122603D01*
X0067955Y0118144D01*
X0052362Y0102551D01*
X0047903Y0107010D01*
G37*
G36*
X0071566Y0130673D02*
X0087159Y0146266D01*
X0091618Y0141807D01*
X0076025Y0126214D01*
X0071566Y0130673D01*
G37*
D23*
X0173571Y0107904D03*
X0184594Y0107904D03*
D24*
X0179083Y0120699D03*
D25*
X0165681Y0119150D03*
X0159382Y0119150D03*
X0151931Y0119400D03*
X0145632Y0119400D03*
X0138181Y0119400D03*
X0131882Y0119400D03*
X0140382Y0071900D03*
X0146681Y0071900D03*
X0148681Y0049400D03*
X0142382Y0049400D03*
X0141181Y0010400D03*
X0134882Y0010400D03*
G36*
X0043635Y0126718D02*
X0046422Y0123931D01*
X0043357Y0120866D01*
X0040570Y0123653D01*
X0043635Y0126718D01*
G37*
G36*
X0039180Y0131172D02*
X0041967Y0128385D01*
X0038902Y0125320D01*
X0036115Y0128107D01*
X0039180Y0131172D01*
G37*
X0027181Y0141400D03*
X0020882Y0141400D03*
D26*
X0126031Y0016050D03*
X0126031Y0009750D03*
D27*
X0143681Y0136774D03*
X0153130Y0136774D03*
X0152736Y0146668D03*
X0143287Y0146668D03*
D28*
X0143031Y0107136D03*
X0148031Y0107136D03*
X0153031Y0107136D03*
X0138031Y0107136D03*
X0138031Y0086664D03*
X0143031Y0086664D03*
X0148031Y0086664D03*
X0153031Y0086664D03*
D29*
X0093148Y0036800D03*
D30*
X0095431Y0024595D03*
X0105431Y0024595D03*
X0105431Y0049005D03*
X0095431Y0049005D03*
D31*
G36*
X0098229Y0082683D02*
X0099904Y0081008D01*
X0095169Y0076273D01*
X0093494Y0077948D01*
X0098229Y0082683D01*
G37*
G36*
X0096002Y0084910D02*
X0097677Y0083235D01*
X0092942Y0078500D01*
X0091267Y0080175D01*
X0096002Y0084910D01*
G37*
G36*
X0093775Y0087137D02*
X0095450Y0085462D01*
X0090715Y0080727D01*
X0089040Y0082402D01*
X0093775Y0087137D01*
G37*
G36*
X0091548Y0089364D02*
X0093223Y0087689D01*
X0088488Y0082954D01*
X0086813Y0084629D01*
X0091548Y0089364D01*
G37*
G36*
X0089320Y0091591D02*
X0090995Y0089916D01*
X0086260Y0085181D01*
X0084585Y0086856D01*
X0089320Y0091591D01*
G37*
G36*
X0086815Y0094097D02*
X0088490Y0092422D01*
X0083755Y0087687D01*
X0082080Y0089362D01*
X0086815Y0094097D01*
G37*
G36*
X0084866Y0096045D02*
X0086541Y0094370D01*
X0081806Y0089635D01*
X0080131Y0091310D01*
X0084866Y0096045D01*
G37*
G36*
X0082639Y0098272D02*
X0084314Y0096597D01*
X0079579Y0091862D01*
X0077904Y0093537D01*
X0082639Y0098272D01*
G37*
G36*
X0077904Y0106063D02*
X0079579Y0107738D01*
X0084314Y0103003D01*
X0082639Y0101328D01*
X0077904Y0106063D01*
G37*
G36*
X0080131Y0108290D02*
X0081806Y0109965D01*
X0086541Y0105230D01*
X0084866Y0103555D01*
X0080131Y0108290D01*
G37*
G36*
X0082358Y0110517D02*
X0084033Y0112192D01*
X0088768Y0107457D01*
X0087093Y0105782D01*
X0082358Y0110517D01*
G37*
G36*
X0084585Y0112744D02*
X0086260Y0114419D01*
X0090995Y0109684D01*
X0089320Y0108009D01*
X0084585Y0112744D01*
G37*
G36*
X0086813Y0114971D02*
X0088488Y0116646D01*
X0093223Y0111911D01*
X0091548Y0110236D01*
X0086813Y0114971D01*
G37*
G36*
X0089040Y0117198D02*
X0090715Y0118873D01*
X0095450Y0114138D01*
X0093775Y0112463D01*
X0089040Y0117198D01*
G37*
G36*
X0091267Y0119425D02*
X0092942Y0121100D01*
X0097677Y0116365D01*
X0096002Y0114690D01*
X0091267Y0119425D01*
G37*
G36*
X0093494Y0121652D02*
X0095169Y0123327D01*
X0099904Y0118592D01*
X0098229Y0116917D01*
X0093494Y0121652D01*
G37*
G36*
X0104356Y0116639D02*
X0102681Y0118314D01*
X0107416Y0123049D01*
X0109091Y0121374D01*
X0104356Y0116639D01*
G37*
G36*
X0106583Y0114412D02*
X0104908Y0116087D01*
X0109643Y0120822D01*
X0111318Y0119147D01*
X0106583Y0114412D01*
G37*
G36*
X0108810Y0112185D02*
X0107135Y0113860D01*
X0111870Y0118595D01*
X0113545Y0116920D01*
X0108810Y0112185D01*
G37*
G36*
X0111037Y0109958D02*
X0109362Y0111633D01*
X0114097Y0116368D01*
X0115772Y0114693D01*
X0111037Y0109958D01*
G37*
G36*
X0113264Y0107731D02*
X0111589Y0109406D01*
X0116324Y0114141D01*
X0117999Y0112466D01*
X0113264Y0107731D01*
G37*
G36*
X0115491Y0105503D02*
X0113816Y0107178D01*
X0118551Y0111913D01*
X0120226Y0110238D01*
X0115491Y0105503D01*
G37*
G36*
X0117718Y0103276D02*
X0116043Y0104951D01*
X0120778Y0109686D01*
X0122453Y0108011D01*
X0117718Y0103276D01*
G37*
G36*
X0119945Y0101049D02*
X0118270Y0102724D01*
X0123005Y0107459D01*
X0124680Y0105784D01*
X0119945Y0101049D01*
G37*
G36*
X0124959Y0093537D02*
X0123284Y0091862D01*
X0118549Y0096597D01*
X0120224Y0098272D01*
X0124959Y0093537D01*
G37*
G36*
X0122732Y0091310D02*
X0121057Y0089635D01*
X0116322Y0094370D01*
X0117997Y0096045D01*
X0122732Y0091310D01*
G37*
G36*
X0120505Y0089083D02*
X0118830Y0087408D01*
X0114095Y0092143D01*
X0115770Y0093818D01*
X0120505Y0089083D01*
G37*
G36*
X0118278Y0086856D02*
X0116603Y0085181D01*
X0111868Y0089916D01*
X0113543Y0091591D01*
X0118278Y0086856D01*
G37*
G36*
X0116050Y0084629D02*
X0114375Y0082954D01*
X0109640Y0087689D01*
X0111315Y0089364D01*
X0116050Y0084629D01*
G37*
G36*
X0113823Y0082402D02*
X0112148Y0080727D01*
X0107413Y0085462D01*
X0109088Y0087137D01*
X0113823Y0082402D01*
G37*
G36*
X0111596Y0080175D02*
X0109921Y0078500D01*
X0105186Y0083235D01*
X0106861Y0084910D01*
X0111596Y0080175D01*
G37*
G36*
X0109369Y0077948D02*
X0107694Y0076273D01*
X0102959Y0081008D01*
X0104634Y0082683D01*
X0109369Y0077948D01*
G37*
D32*
X0165236Y0130081D03*
X0165236Y0132640D03*
X0165236Y0135199D03*
X0165236Y0137758D03*
X0165236Y0140317D03*
X0165236Y0142876D03*
X0165236Y0145435D03*
X0165236Y0147994D03*
X0165236Y0150554D03*
X0165236Y0153113D03*
X0165236Y0155672D03*
X0165236Y0158231D03*
X0165236Y0160790D03*
X0165236Y0163349D03*
X0187283Y0163349D03*
X0187283Y0160790D03*
X0187283Y0158231D03*
X0187283Y0155672D03*
X0187283Y0153113D03*
X0187283Y0150554D03*
X0187283Y0147994D03*
X0187283Y0145435D03*
X0187283Y0142876D03*
X0187283Y0140317D03*
X0187283Y0137758D03*
X0187283Y0135199D03*
X0187283Y0132640D03*
X0187283Y0130081D03*
D33*
X0176260Y0146715D03*
D34*
X0071156Y0019140D03*
X0071156Y0015400D03*
X0071156Y0011660D03*
X0061707Y0011660D03*
X0061707Y0019140D03*
X0053156Y0019640D03*
X0053156Y0012160D03*
X0043707Y0012160D03*
X0043707Y0015900D03*
X0043707Y0019640D03*
M02*
