G75*
%MOIN*%
%OFA0B0*%
%FSLAX25Y25*%
%IPPOS*%
%LPD*%
%AMOC8*
5,1,8,0,0,1.08239X$1,22.5*
%
%ADD10C,0.00800*%
%ADD11C,0.00000*%
%ADD12C,0.00400*%
%ADD13C,0.00394*%
%ADD14C,0.00500*%
%ADD15C,0.00197*%
%ADD16R,0.00950X0.00050*%
%ADD17R,0.01050X0.00050*%
%ADD18R,0.02000X0.00050*%
%ADD19R,0.01900X0.00050*%
%ADD20R,0.02550X0.00050*%
%ADD21R,0.02500X0.00050*%
%ADD22R,0.02950X0.00050*%
%ADD23R,0.02900X0.00050*%
%ADD24R,0.03100X0.00050*%
%ADD25R,0.03300X0.00050*%
%ADD26R,0.03250X0.00050*%
%ADD27R,0.03200X0.00050*%
%ADD28R,0.03600X0.00050*%
%ADD29R,0.03500X0.00050*%
%ADD30R,0.03850X0.00050*%
%ADD31R,0.03750X0.00050*%
%ADD32R,0.04050X0.00050*%
%ADD33R,0.03950X0.00050*%
%ADD34R,0.04200X0.00050*%
%ADD35R,0.04400X0.00050*%
%ADD36R,0.04350X0.00050*%
%ADD37R,0.04550X0.00050*%
%ADD38R,0.04700X0.00050*%
%ADD39R,0.04850X0.00050*%
%ADD40R,0.05000X0.00050*%
%ADD41R,0.04950X0.00050*%
%ADD42R,0.03150X0.00050*%
%ADD43R,0.05100X0.00050*%
%ADD44R,0.05200X0.00050*%
%ADD45R,0.05300X0.00050*%
%ADD46R,0.05400X0.00050*%
%ADD47R,0.05450X0.00050*%
%ADD48R,0.05550X0.00050*%
%ADD49R,0.05600X0.00050*%
%ADD50R,0.05700X0.00050*%
%ADD51R,0.05750X0.00050*%
%ADD52R,0.05850X0.00050*%
%ADD53R,0.05900X0.00050*%
%ADD54R,0.03050X0.00050*%
%ADD55R,0.06000X0.00050*%
%ADD56R,0.06050X0.00050*%
%ADD57R,0.06100X0.00050*%
%ADD58R,0.06150X0.00050*%
%ADD59R,0.06200X0.00050*%
%ADD60R,0.06250X0.00050*%
%ADD61R,0.06300X0.00050*%
%ADD62R,0.06350X0.00050*%
%ADD63R,0.06400X0.00050*%
%ADD64R,0.06450X0.00050*%
%ADD65R,0.06500X0.00050*%
%ADD66R,0.06550X0.00050*%
%ADD67R,0.06650X0.00050*%
%ADD68R,0.06600X0.00050*%
%ADD69R,0.06700X0.00050*%
%ADD70R,0.02850X0.00050*%
%ADD71R,0.06750X0.00050*%
%ADD72R,0.02800X0.00050*%
%ADD73R,0.06800X0.00050*%
%ADD74R,0.02750X0.00050*%
%ADD75R,0.02700X0.00050*%
%ADD76R,0.03000X0.00050*%
%ADD77R,0.02650X0.00050*%
%ADD78R,0.03350X0.00050*%
%ADD79R,0.07350X0.00050*%
%ADD80R,0.05950X0.00050*%
%ADD81R,0.05800X0.00050*%
%ADD82R,0.05250X0.00050*%
%ADD83R,0.05500X0.00050*%
%ADD84R,0.07300X0.00050*%
%ADD85R,0.06900X0.00050*%
%ADD86R,0.05350X0.00050*%
%ADD87R,0.06950X0.00050*%
%ADD88R,0.07000X0.00050*%
%ADD89R,0.07050X0.00050*%
%ADD90R,0.07150X0.00050*%
%ADD91R,0.07250X0.00050*%
%ADD92R,0.07200X0.00050*%
%ADD93R,0.05650X0.00050*%
%ADD94R,0.07400X0.00050*%
%ADD95R,0.07450X0.00050*%
%ADD96R,0.07500X0.00050*%
%ADD97R,0.07550X0.00050*%
%ADD98R,0.03450X0.00050*%
%ADD99R,0.07600X0.00050*%
%ADD100R,0.07650X0.00050*%
%ADD101R,0.07700X0.00050*%
%ADD102R,0.04150X0.00050*%
%ADD103R,0.02600X0.00050*%
%ADD104R,0.07750X0.00050*%
%ADD105R,0.00200X0.00050*%
%ADD106R,0.07800X0.00050*%
%ADD107R,0.07850X0.00050*%
%ADD108R,0.07900X0.00050*%
%ADD109R,0.07950X0.00050*%
%ADD110R,0.03650X0.00050*%
%ADD111R,0.03400X0.00050*%
%ADD112R,0.02450X0.00050*%
%ADD113R,0.02400X0.00050*%
%ADD114R,0.02350X0.00050*%
%ADD115R,0.02300X0.00050*%
%ADD116R,0.02250X0.00050*%
%ADD117R,0.02200X0.00050*%
%ADD118R,0.02150X0.00050*%
%ADD119R,0.01100X0.00050*%
%ADD120R,0.00800X0.00050*%
%ADD121R,0.02100X0.00050*%
%ADD122R,0.00850X0.00050*%
%ADD123R,0.01000X0.00050*%
%ADD124R,0.05050X0.00050*%
%ADD125R,0.00900X0.00050*%
%ADD126R,0.01950X0.00050*%
%ADD127R,0.04900X0.00050*%
%ADD128R,0.04800X0.00050*%
%ADD129R,0.04650X0.00050*%
%ADD130R,0.01800X0.00050*%
%ADD131R,0.04450X0.00050*%
%ADD132R,0.01750X0.00050*%
%ADD133R,0.01700X0.00050*%
%ADD134R,0.01650X0.00050*%
%ADD135R,0.01550X0.00050*%
%ADD136R,0.04500X0.00050*%
%ADD137R,0.01500X0.00050*%
%ADD138R,0.01400X0.00050*%
%ADD139R,0.01300X0.00050*%
%ADD140R,0.01150X0.00050*%
%ADD141R,0.03700X0.00050*%
%ADD142R,0.00700X0.00050*%
%ADD143R,0.01200X0.00050*%
%ADD144R,0.01250X0.00050*%
%ADD145R,0.01350X0.00050*%
%ADD146R,0.01450X0.00050*%
%ADD147R,0.00750X0.00050*%
%ADD148R,0.07100X0.00050*%
%ADD149R,0.06850X0.00050*%
%ADD150R,0.01600X0.00050*%
%ADD151R,0.05150X0.00050*%
%ADD152C,0.01181*%
%ADD153C,0.01575*%
%ADD154C,0.00200*%
%ADD155R,0.00250X0.00050*%
%ADD156R,0.00550X0.00050*%
%ADD157R,0.00350X0.00050*%
%ADD158R,0.00450X0.00050*%
%ADD159R,0.00600X0.00050*%
%ADD160R,0.00400X0.00050*%
%ADD161R,0.00300X0.00050*%
%ADD162R,0.00500X0.00050*%
%ADD163R,0.00150X0.00050*%
%ADD164R,0.00100X0.00050*%
%ADD165R,0.00650X0.00050*%
%ADD166R,0.02050X0.00050*%
%ADD167R,0.01850X0.00050*%
%ADD168R,0.22600X0.00050*%
%ADD169R,0.04600X0.00050*%
%ADD170R,0.13600X0.00050*%
%ADD171R,0.13550X0.00050*%
D10*
X0003031Y0009274D02*
X0003031Y0190376D01*
X0003032Y0190376D02*
X0003034Y0190566D01*
X0003041Y0190756D01*
X0003053Y0190946D01*
X0003069Y0191136D01*
X0003089Y0191325D01*
X0003115Y0191514D01*
X0003144Y0191702D01*
X0003179Y0191889D01*
X0003218Y0192075D01*
X0003261Y0192260D01*
X0003309Y0192445D01*
X0003361Y0192628D01*
X0003417Y0192809D01*
X0003478Y0192989D01*
X0003544Y0193168D01*
X0003613Y0193345D01*
X0003687Y0193521D01*
X0003765Y0193694D01*
X0003848Y0193866D01*
X0003934Y0194035D01*
X0004024Y0194203D01*
X0004119Y0194368D01*
X0004217Y0194531D01*
X0004320Y0194691D01*
X0004426Y0194849D01*
X0004536Y0195004D01*
X0004649Y0195157D01*
X0004767Y0195307D01*
X0004888Y0195453D01*
X0005012Y0195597D01*
X0005140Y0195738D01*
X0005271Y0195876D01*
X0005406Y0196011D01*
X0005544Y0196142D01*
X0005685Y0196270D01*
X0005829Y0196394D01*
X0005975Y0196515D01*
X0006125Y0196633D01*
X0006278Y0196746D01*
X0006433Y0196856D01*
X0006591Y0196962D01*
X0006751Y0197065D01*
X0006914Y0197163D01*
X0007079Y0197258D01*
X0007247Y0197348D01*
X0007416Y0197434D01*
X0007588Y0197517D01*
X0007761Y0197595D01*
X0007937Y0197669D01*
X0008114Y0197738D01*
X0008293Y0197804D01*
X0008473Y0197865D01*
X0008654Y0197921D01*
X0008837Y0197973D01*
X0009022Y0198021D01*
X0009207Y0198064D01*
X0009393Y0198103D01*
X0009580Y0198138D01*
X0009768Y0198167D01*
X0009957Y0198193D01*
X0010146Y0198213D01*
X0010336Y0198229D01*
X0010526Y0198241D01*
X0010716Y0198248D01*
X0010906Y0198250D01*
X0192008Y0198250D01*
X0192198Y0198248D01*
X0192388Y0198241D01*
X0192578Y0198229D01*
X0192768Y0198213D01*
X0192957Y0198193D01*
X0193146Y0198167D01*
X0193334Y0198138D01*
X0193521Y0198103D01*
X0193707Y0198064D01*
X0193892Y0198021D01*
X0194077Y0197973D01*
X0194260Y0197921D01*
X0194441Y0197865D01*
X0194621Y0197804D01*
X0194800Y0197738D01*
X0194977Y0197669D01*
X0195153Y0197595D01*
X0195326Y0197517D01*
X0195498Y0197434D01*
X0195667Y0197348D01*
X0195835Y0197258D01*
X0196000Y0197163D01*
X0196163Y0197065D01*
X0196323Y0196962D01*
X0196481Y0196856D01*
X0196636Y0196746D01*
X0196789Y0196633D01*
X0196939Y0196515D01*
X0197085Y0196394D01*
X0197229Y0196270D01*
X0197370Y0196142D01*
X0197508Y0196011D01*
X0197643Y0195876D01*
X0197774Y0195738D01*
X0197902Y0195597D01*
X0198026Y0195453D01*
X0198147Y0195307D01*
X0198265Y0195157D01*
X0198378Y0195004D01*
X0198488Y0194849D01*
X0198594Y0194691D01*
X0198697Y0194531D01*
X0198795Y0194368D01*
X0198890Y0194203D01*
X0198980Y0194035D01*
X0199066Y0193866D01*
X0199149Y0193694D01*
X0199227Y0193521D01*
X0199301Y0193345D01*
X0199370Y0193168D01*
X0199436Y0192989D01*
X0199497Y0192809D01*
X0199553Y0192628D01*
X0199605Y0192445D01*
X0199653Y0192260D01*
X0199696Y0192075D01*
X0199735Y0191889D01*
X0199770Y0191702D01*
X0199799Y0191514D01*
X0199825Y0191325D01*
X0199845Y0191136D01*
X0199861Y0190946D01*
X0199873Y0190756D01*
X0199880Y0190566D01*
X0199882Y0190376D01*
X0199882Y0009274D01*
X0199880Y0009084D01*
X0199873Y0008894D01*
X0199861Y0008704D01*
X0199845Y0008514D01*
X0199825Y0008325D01*
X0199799Y0008136D01*
X0199770Y0007948D01*
X0199735Y0007761D01*
X0199696Y0007575D01*
X0199653Y0007390D01*
X0199605Y0007205D01*
X0199553Y0007022D01*
X0199497Y0006841D01*
X0199436Y0006661D01*
X0199370Y0006482D01*
X0199301Y0006305D01*
X0199227Y0006129D01*
X0199149Y0005956D01*
X0199066Y0005784D01*
X0198980Y0005615D01*
X0198890Y0005447D01*
X0198795Y0005282D01*
X0198697Y0005119D01*
X0198594Y0004959D01*
X0198488Y0004801D01*
X0198378Y0004646D01*
X0198265Y0004493D01*
X0198147Y0004343D01*
X0198026Y0004197D01*
X0197902Y0004053D01*
X0197774Y0003912D01*
X0197643Y0003774D01*
X0197508Y0003639D01*
X0197370Y0003508D01*
X0197229Y0003380D01*
X0197085Y0003256D01*
X0196939Y0003135D01*
X0196789Y0003017D01*
X0196636Y0002904D01*
X0196481Y0002794D01*
X0196323Y0002688D01*
X0196163Y0002585D01*
X0196000Y0002487D01*
X0195835Y0002392D01*
X0195667Y0002302D01*
X0195498Y0002216D01*
X0195326Y0002133D01*
X0195153Y0002055D01*
X0194977Y0001981D01*
X0194800Y0001912D01*
X0194621Y0001846D01*
X0194441Y0001785D01*
X0194260Y0001729D01*
X0194077Y0001677D01*
X0193892Y0001629D01*
X0193707Y0001586D01*
X0193521Y0001547D01*
X0193334Y0001512D01*
X0193146Y0001483D01*
X0192957Y0001457D01*
X0192768Y0001437D01*
X0192578Y0001421D01*
X0192388Y0001409D01*
X0192198Y0001402D01*
X0192008Y0001400D01*
X0010906Y0001400D01*
X0010716Y0001402D01*
X0010526Y0001409D01*
X0010336Y0001421D01*
X0010146Y0001437D01*
X0009957Y0001457D01*
X0009768Y0001483D01*
X0009580Y0001512D01*
X0009393Y0001547D01*
X0009207Y0001586D01*
X0009022Y0001629D01*
X0008837Y0001677D01*
X0008654Y0001729D01*
X0008473Y0001785D01*
X0008293Y0001846D01*
X0008114Y0001912D01*
X0007937Y0001981D01*
X0007761Y0002055D01*
X0007588Y0002133D01*
X0007416Y0002216D01*
X0007247Y0002302D01*
X0007079Y0002392D01*
X0006914Y0002487D01*
X0006751Y0002585D01*
X0006591Y0002688D01*
X0006433Y0002794D01*
X0006278Y0002904D01*
X0006125Y0003017D01*
X0005975Y0003135D01*
X0005829Y0003256D01*
X0005685Y0003380D01*
X0005544Y0003508D01*
X0005406Y0003639D01*
X0005271Y0003774D01*
X0005140Y0003912D01*
X0005012Y0004053D01*
X0004888Y0004197D01*
X0004767Y0004343D01*
X0004649Y0004493D01*
X0004536Y0004646D01*
X0004426Y0004801D01*
X0004320Y0004959D01*
X0004217Y0005119D01*
X0004119Y0005282D01*
X0004024Y0005447D01*
X0003934Y0005615D01*
X0003848Y0005784D01*
X0003765Y0005956D01*
X0003687Y0006129D01*
X0003613Y0006305D01*
X0003544Y0006482D01*
X0003478Y0006661D01*
X0003417Y0006841D01*
X0003361Y0007022D01*
X0003309Y0007205D01*
X0003261Y0007390D01*
X0003218Y0007575D01*
X0003179Y0007761D01*
X0003144Y0007948D01*
X0003115Y0008136D01*
X0003089Y0008325D01*
X0003069Y0008514D01*
X0003053Y0008704D01*
X0003041Y0008894D01*
X0003034Y0009084D01*
X0003032Y0009274D01*
D11*
X0011890Y0017148D02*
X0011892Y0017317D01*
X0011898Y0017486D01*
X0011909Y0017655D01*
X0011923Y0017823D01*
X0011942Y0017991D01*
X0011965Y0018159D01*
X0011991Y0018326D01*
X0012022Y0018492D01*
X0012057Y0018658D01*
X0012096Y0018822D01*
X0012140Y0018986D01*
X0012187Y0019148D01*
X0012238Y0019309D01*
X0012293Y0019469D01*
X0012352Y0019628D01*
X0012414Y0019785D01*
X0012481Y0019940D01*
X0012552Y0020094D01*
X0012626Y0020246D01*
X0012704Y0020396D01*
X0012785Y0020544D01*
X0012870Y0020690D01*
X0012959Y0020834D01*
X0013051Y0020976D01*
X0013147Y0021115D01*
X0013246Y0021252D01*
X0013348Y0021387D01*
X0013454Y0021519D01*
X0013563Y0021648D01*
X0013675Y0021775D01*
X0013790Y0021899D01*
X0013908Y0022020D01*
X0014029Y0022138D01*
X0014153Y0022253D01*
X0014280Y0022365D01*
X0014409Y0022474D01*
X0014541Y0022580D01*
X0014676Y0022682D01*
X0014813Y0022781D01*
X0014952Y0022877D01*
X0015094Y0022969D01*
X0015238Y0023058D01*
X0015384Y0023143D01*
X0015532Y0023224D01*
X0015682Y0023302D01*
X0015834Y0023376D01*
X0015988Y0023447D01*
X0016143Y0023514D01*
X0016300Y0023576D01*
X0016459Y0023635D01*
X0016619Y0023690D01*
X0016780Y0023741D01*
X0016942Y0023788D01*
X0017106Y0023832D01*
X0017270Y0023871D01*
X0017436Y0023906D01*
X0017602Y0023937D01*
X0017769Y0023963D01*
X0017937Y0023986D01*
X0018105Y0024005D01*
X0018273Y0024019D01*
X0018442Y0024030D01*
X0018611Y0024036D01*
X0018780Y0024038D01*
X0018949Y0024036D01*
X0019118Y0024030D01*
X0019287Y0024019D01*
X0019455Y0024005D01*
X0019623Y0023986D01*
X0019791Y0023963D01*
X0019958Y0023937D01*
X0020124Y0023906D01*
X0020290Y0023871D01*
X0020454Y0023832D01*
X0020618Y0023788D01*
X0020780Y0023741D01*
X0020941Y0023690D01*
X0021101Y0023635D01*
X0021260Y0023576D01*
X0021417Y0023514D01*
X0021572Y0023447D01*
X0021726Y0023376D01*
X0021878Y0023302D01*
X0022028Y0023224D01*
X0022176Y0023143D01*
X0022322Y0023058D01*
X0022466Y0022969D01*
X0022608Y0022877D01*
X0022747Y0022781D01*
X0022884Y0022682D01*
X0023019Y0022580D01*
X0023151Y0022474D01*
X0023280Y0022365D01*
X0023407Y0022253D01*
X0023531Y0022138D01*
X0023652Y0022020D01*
X0023770Y0021899D01*
X0023885Y0021775D01*
X0023997Y0021648D01*
X0024106Y0021519D01*
X0024212Y0021387D01*
X0024314Y0021252D01*
X0024413Y0021115D01*
X0024509Y0020976D01*
X0024601Y0020834D01*
X0024690Y0020690D01*
X0024775Y0020544D01*
X0024856Y0020396D01*
X0024934Y0020246D01*
X0025008Y0020094D01*
X0025079Y0019940D01*
X0025146Y0019785D01*
X0025208Y0019628D01*
X0025267Y0019469D01*
X0025322Y0019309D01*
X0025373Y0019148D01*
X0025420Y0018986D01*
X0025464Y0018822D01*
X0025503Y0018658D01*
X0025538Y0018492D01*
X0025569Y0018326D01*
X0025595Y0018159D01*
X0025618Y0017991D01*
X0025637Y0017823D01*
X0025651Y0017655D01*
X0025662Y0017486D01*
X0025668Y0017317D01*
X0025670Y0017148D01*
X0025668Y0016979D01*
X0025662Y0016810D01*
X0025651Y0016641D01*
X0025637Y0016473D01*
X0025618Y0016305D01*
X0025595Y0016137D01*
X0025569Y0015970D01*
X0025538Y0015804D01*
X0025503Y0015638D01*
X0025464Y0015474D01*
X0025420Y0015310D01*
X0025373Y0015148D01*
X0025322Y0014987D01*
X0025267Y0014827D01*
X0025208Y0014668D01*
X0025146Y0014511D01*
X0025079Y0014356D01*
X0025008Y0014202D01*
X0024934Y0014050D01*
X0024856Y0013900D01*
X0024775Y0013752D01*
X0024690Y0013606D01*
X0024601Y0013462D01*
X0024509Y0013320D01*
X0024413Y0013181D01*
X0024314Y0013044D01*
X0024212Y0012909D01*
X0024106Y0012777D01*
X0023997Y0012648D01*
X0023885Y0012521D01*
X0023770Y0012397D01*
X0023652Y0012276D01*
X0023531Y0012158D01*
X0023407Y0012043D01*
X0023280Y0011931D01*
X0023151Y0011822D01*
X0023019Y0011716D01*
X0022884Y0011614D01*
X0022747Y0011515D01*
X0022608Y0011419D01*
X0022466Y0011327D01*
X0022322Y0011238D01*
X0022176Y0011153D01*
X0022028Y0011072D01*
X0021878Y0010994D01*
X0021726Y0010920D01*
X0021572Y0010849D01*
X0021417Y0010782D01*
X0021260Y0010720D01*
X0021101Y0010661D01*
X0020941Y0010606D01*
X0020780Y0010555D01*
X0020618Y0010508D01*
X0020454Y0010464D01*
X0020290Y0010425D01*
X0020124Y0010390D01*
X0019958Y0010359D01*
X0019791Y0010333D01*
X0019623Y0010310D01*
X0019455Y0010291D01*
X0019287Y0010277D01*
X0019118Y0010266D01*
X0018949Y0010260D01*
X0018780Y0010258D01*
X0018611Y0010260D01*
X0018442Y0010266D01*
X0018273Y0010277D01*
X0018105Y0010291D01*
X0017937Y0010310D01*
X0017769Y0010333D01*
X0017602Y0010359D01*
X0017436Y0010390D01*
X0017270Y0010425D01*
X0017106Y0010464D01*
X0016942Y0010508D01*
X0016780Y0010555D01*
X0016619Y0010606D01*
X0016459Y0010661D01*
X0016300Y0010720D01*
X0016143Y0010782D01*
X0015988Y0010849D01*
X0015834Y0010920D01*
X0015682Y0010994D01*
X0015532Y0011072D01*
X0015384Y0011153D01*
X0015238Y0011238D01*
X0015094Y0011327D01*
X0014952Y0011419D01*
X0014813Y0011515D01*
X0014676Y0011614D01*
X0014541Y0011716D01*
X0014409Y0011822D01*
X0014280Y0011931D01*
X0014153Y0012043D01*
X0014029Y0012158D01*
X0013908Y0012276D01*
X0013790Y0012397D01*
X0013675Y0012521D01*
X0013563Y0012648D01*
X0013454Y0012777D01*
X0013348Y0012909D01*
X0013246Y0013044D01*
X0013147Y0013181D01*
X0013051Y0013320D01*
X0012959Y0013462D01*
X0012870Y0013606D01*
X0012785Y0013752D01*
X0012704Y0013900D01*
X0012626Y0014050D01*
X0012552Y0014202D01*
X0012481Y0014356D01*
X0012414Y0014511D01*
X0012352Y0014668D01*
X0012293Y0014827D01*
X0012238Y0014987D01*
X0012187Y0015148D01*
X0012140Y0015310D01*
X0012096Y0015474D01*
X0012057Y0015638D01*
X0012022Y0015804D01*
X0011991Y0015970D01*
X0011965Y0016137D01*
X0011942Y0016305D01*
X0011923Y0016473D01*
X0011909Y0016641D01*
X0011898Y0016810D01*
X0011892Y0016979D01*
X0011890Y0017148D01*
X0091278Y0036800D02*
X0091280Y0036886D01*
X0091286Y0036973D01*
X0091296Y0037058D01*
X0091310Y0037144D01*
X0091328Y0037228D01*
X0091349Y0037312D01*
X0091375Y0037394D01*
X0091404Y0037476D01*
X0091437Y0037555D01*
X0091474Y0037634D01*
X0091514Y0037710D01*
X0091558Y0037784D01*
X0091605Y0037857D01*
X0091656Y0037927D01*
X0091709Y0037995D01*
X0091766Y0038060D01*
X0091826Y0038122D01*
X0091888Y0038182D01*
X0091953Y0038239D01*
X0092021Y0038292D01*
X0092091Y0038343D01*
X0092164Y0038390D01*
X0092238Y0038434D01*
X0092314Y0038474D01*
X0092393Y0038511D01*
X0092472Y0038544D01*
X0092554Y0038573D01*
X0092636Y0038599D01*
X0092720Y0038620D01*
X0092804Y0038638D01*
X0092890Y0038652D01*
X0092975Y0038662D01*
X0093062Y0038668D01*
X0093148Y0038670D01*
X0093234Y0038668D01*
X0093321Y0038662D01*
X0093406Y0038652D01*
X0093492Y0038638D01*
X0093576Y0038620D01*
X0093660Y0038599D01*
X0093742Y0038573D01*
X0093824Y0038544D01*
X0093903Y0038511D01*
X0093982Y0038474D01*
X0094058Y0038434D01*
X0094132Y0038390D01*
X0094205Y0038343D01*
X0094275Y0038292D01*
X0094343Y0038239D01*
X0094408Y0038182D01*
X0094470Y0038122D01*
X0094530Y0038060D01*
X0094587Y0037995D01*
X0094640Y0037927D01*
X0094691Y0037857D01*
X0094738Y0037784D01*
X0094782Y0037710D01*
X0094822Y0037634D01*
X0094859Y0037555D01*
X0094892Y0037476D01*
X0094921Y0037394D01*
X0094947Y0037312D01*
X0094968Y0037228D01*
X0094986Y0037144D01*
X0095000Y0037058D01*
X0095010Y0036973D01*
X0095016Y0036886D01*
X0095018Y0036800D01*
X0095016Y0036714D01*
X0095010Y0036627D01*
X0095000Y0036542D01*
X0094986Y0036456D01*
X0094968Y0036372D01*
X0094947Y0036288D01*
X0094921Y0036206D01*
X0094892Y0036124D01*
X0094859Y0036045D01*
X0094822Y0035966D01*
X0094782Y0035890D01*
X0094738Y0035816D01*
X0094691Y0035743D01*
X0094640Y0035673D01*
X0094587Y0035605D01*
X0094530Y0035540D01*
X0094470Y0035478D01*
X0094408Y0035418D01*
X0094343Y0035361D01*
X0094275Y0035308D01*
X0094205Y0035257D01*
X0094132Y0035210D01*
X0094058Y0035166D01*
X0093982Y0035126D01*
X0093903Y0035089D01*
X0093824Y0035056D01*
X0093742Y0035027D01*
X0093660Y0035001D01*
X0093576Y0034980D01*
X0093492Y0034962D01*
X0093406Y0034948D01*
X0093321Y0034938D01*
X0093234Y0034932D01*
X0093148Y0034930D01*
X0093062Y0034932D01*
X0092975Y0034938D01*
X0092890Y0034948D01*
X0092804Y0034962D01*
X0092720Y0034980D01*
X0092636Y0035001D01*
X0092554Y0035027D01*
X0092472Y0035056D01*
X0092393Y0035089D01*
X0092314Y0035126D01*
X0092238Y0035166D01*
X0092164Y0035210D01*
X0092091Y0035257D01*
X0092021Y0035308D01*
X0091953Y0035361D01*
X0091888Y0035418D01*
X0091826Y0035478D01*
X0091766Y0035540D01*
X0091709Y0035605D01*
X0091656Y0035673D01*
X0091605Y0035743D01*
X0091558Y0035816D01*
X0091514Y0035890D01*
X0091474Y0035966D01*
X0091437Y0036045D01*
X0091404Y0036124D01*
X0091375Y0036206D01*
X0091349Y0036288D01*
X0091328Y0036372D01*
X0091310Y0036456D01*
X0091296Y0036542D01*
X0091286Y0036627D01*
X0091280Y0036714D01*
X0091278Y0036800D01*
X0177244Y0017148D02*
X0177246Y0017317D01*
X0177252Y0017486D01*
X0177263Y0017655D01*
X0177277Y0017823D01*
X0177296Y0017991D01*
X0177319Y0018159D01*
X0177345Y0018326D01*
X0177376Y0018492D01*
X0177411Y0018658D01*
X0177450Y0018822D01*
X0177494Y0018986D01*
X0177541Y0019148D01*
X0177592Y0019309D01*
X0177647Y0019469D01*
X0177706Y0019628D01*
X0177768Y0019785D01*
X0177835Y0019940D01*
X0177906Y0020094D01*
X0177980Y0020246D01*
X0178058Y0020396D01*
X0178139Y0020544D01*
X0178224Y0020690D01*
X0178313Y0020834D01*
X0178405Y0020976D01*
X0178501Y0021115D01*
X0178600Y0021252D01*
X0178702Y0021387D01*
X0178808Y0021519D01*
X0178917Y0021648D01*
X0179029Y0021775D01*
X0179144Y0021899D01*
X0179262Y0022020D01*
X0179383Y0022138D01*
X0179507Y0022253D01*
X0179634Y0022365D01*
X0179763Y0022474D01*
X0179895Y0022580D01*
X0180030Y0022682D01*
X0180167Y0022781D01*
X0180306Y0022877D01*
X0180448Y0022969D01*
X0180592Y0023058D01*
X0180738Y0023143D01*
X0180886Y0023224D01*
X0181036Y0023302D01*
X0181188Y0023376D01*
X0181342Y0023447D01*
X0181497Y0023514D01*
X0181654Y0023576D01*
X0181813Y0023635D01*
X0181973Y0023690D01*
X0182134Y0023741D01*
X0182296Y0023788D01*
X0182460Y0023832D01*
X0182624Y0023871D01*
X0182790Y0023906D01*
X0182956Y0023937D01*
X0183123Y0023963D01*
X0183291Y0023986D01*
X0183459Y0024005D01*
X0183627Y0024019D01*
X0183796Y0024030D01*
X0183965Y0024036D01*
X0184134Y0024038D01*
X0184303Y0024036D01*
X0184472Y0024030D01*
X0184641Y0024019D01*
X0184809Y0024005D01*
X0184977Y0023986D01*
X0185145Y0023963D01*
X0185312Y0023937D01*
X0185478Y0023906D01*
X0185644Y0023871D01*
X0185808Y0023832D01*
X0185972Y0023788D01*
X0186134Y0023741D01*
X0186295Y0023690D01*
X0186455Y0023635D01*
X0186614Y0023576D01*
X0186771Y0023514D01*
X0186926Y0023447D01*
X0187080Y0023376D01*
X0187232Y0023302D01*
X0187382Y0023224D01*
X0187530Y0023143D01*
X0187676Y0023058D01*
X0187820Y0022969D01*
X0187962Y0022877D01*
X0188101Y0022781D01*
X0188238Y0022682D01*
X0188373Y0022580D01*
X0188505Y0022474D01*
X0188634Y0022365D01*
X0188761Y0022253D01*
X0188885Y0022138D01*
X0189006Y0022020D01*
X0189124Y0021899D01*
X0189239Y0021775D01*
X0189351Y0021648D01*
X0189460Y0021519D01*
X0189566Y0021387D01*
X0189668Y0021252D01*
X0189767Y0021115D01*
X0189863Y0020976D01*
X0189955Y0020834D01*
X0190044Y0020690D01*
X0190129Y0020544D01*
X0190210Y0020396D01*
X0190288Y0020246D01*
X0190362Y0020094D01*
X0190433Y0019940D01*
X0190500Y0019785D01*
X0190562Y0019628D01*
X0190621Y0019469D01*
X0190676Y0019309D01*
X0190727Y0019148D01*
X0190774Y0018986D01*
X0190818Y0018822D01*
X0190857Y0018658D01*
X0190892Y0018492D01*
X0190923Y0018326D01*
X0190949Y0018159D01*
X0190972Y0017991D01*
X0190991Y0017823D01*
X0191005Y0017655D01*
X0191016Y0017486D01*
X0191022Y0017317D01*
X0191024Y0017148D01*
X0191022Y0016979D01*
X0191016Y0016810D01*
X0191005Y0016641D01*
X0190991Y0016473D01*
X0190972Y0016305D01*
X0190949Y0016137D01*
X0190923Y0015970D01*
X0190892Y0015804D01*
X0190857Y0015638D01*
X0190818Y0015474D01*
X0190774Y0015310D01*
X0190727Y0015148D01*
X0190676Y0014987D01*
X0190621Y0014827D01*
X0190562Y0014668D01*
X0190500Y0014511D01*
X0190433Y0014356D01*
X0190362Y0014202D01*
X0190288Y0014050D01*
X0190210Y0013900D01*
X0190129Y0013752D01*
X0190044Y0013606D01*
X0189955Y0013462D01*
X0189863Y0013320D01*
X0189767Y0013181D01*
X0189668Y0013044D01*
X0189566Y0012909D01*
X0189460Y0012777D01*
X0189351Y0012648D01*
X0189239Y0012521D01*
X0189124Y0012397D01*
X0189006Y0012276D01*
X0188885Y0012158D01*
X0188761Y0012043D01*
X0188634Y0011931D01*
X0188505Y0011822D01*
X0188373Y0011716D01*
X0188238Y0011614D01*
X0188101Y0011515D01*
X0187962Y0011419D01*
X0187820Y0011327D01*
X0187676Y0011238D01*
X0187530Y0011153D01*
X0187382Y0011072D01*
X0187232Y0010994D01*
X0187080Y0010920D01*
X0186926Y0010849D01*
X0186771Y0010782D01*
X0186614Y0010720D01*
X0186455Y0010661D01*
X0186295Y0010606D01*
X0186134Y0010555D01*
X0185972Y0010508D01*
X0185808Y0010464D01*
X0185644Y0010425D01*
X0185478Y0010390D01*
X0185312Y0010359D01*
X0185145Y0010333D01*
X0184977Y0010310D01*
X0184809Y0010291D01*
X0184641Y0010277D01*
X0184472Y0010266D01*
X0184303Y0010260D01*
X0184134Y0010258D01*
X0183965Y0010260D01*
X0183796Y0010266D01*
X0183627Y0010277D01*
X0183459Y0010291D01*
X0183291Y0010310D01*
X0183123Y0010333D01*
X0182956Y0010359D01*
X0182790Y0010390D01*
X0182624Y0010425D01*
X0182460Y0010464D01*
X0182296Y0010508D01*
X0182134Y0010555D01*
X0181973Y0010606D01*
X0181813Y0010661D01*
X0181654Y0010720D01*
X0181497Y0010782D01*
X0181342Y0010849D01*
X0181188Y0010920D01*
X0181036Y0010994D01*
X0180886Y0011072D01*
X0180738Y0011153D01*
X0180592Y0011238D01*
X0180448Y0011327D01*
X0180306Y0011419D01*
X0180167Y0011515D01*
X0180030Y0011614D01*
X0179895Y0011716D01*
X0179763Y0011822D01*
X0179634Y0011931D01*
X0179507Y0012043D01*
X0179383Y0012158D01*
X0179262Y0012276D01*
X0179144Y0012397D01*
X0179029Y0012521D01*
X0178917Y0012648D01*
X0178808Y0012777D01*
X0178702Y0012909D01*
X0178600Y0013044D01*
X0178501Y0013181D01*
X0178405Y0013320D01*
X0178313Y0013462D01*
X0178224Y0013606D01*
X0178139Y0013752D01*
X0178058Y0013900D01*
X0177980Y0014050D01*
X0177906Y0014202D01*
X0177835Y0014356D01*
X0177768Y0014511D01*
X0177706Y0014668D01*
X0177647Y0014827D01*
X0177592Y0014987D01*
X0177541Y0015148D01*
X0177494Y0015310D01*
X0177450Y0015474D01*
X0177411Y0015638D01*
X0177376Y0015804D01*
X0177345Y0015970D01*
X0177319Y0016137D01*
X0177296Y0016305D01*
X0177277Y0016473D01*
X0177263Y0016641D01*
X0177252Y0016810D01*
X0177246Y0016979D01*
X0177244Y0017148D01*
X0177244Y0182502D02*
X0177246Y0182671D01*
X0177252Y0182840D01*
X0177263Y0183009D01*
X0177277Y0183177D01*
X0177296Y0183345D01*
X0177319Y0183513D01*
X0177345Y0183680D01*
X0177376Y0183846D01*
X0177411Y0184012D01*
X0177450Y0184176D01*
X0177494Y0184340D01*
X0177541Y0184502D01*
X0177592Y0184663D01*
X0177647Y0184823D01*
X0177706Y0184982D01*
X0177768Y0185139D01*
X0177835Y0185294D01*
X0177906Y0185448D01*
X0177980Y0185600D01*
X0178058Y0185750D01*
X0178139Y0185898D01*
X0178224Y0186044D01*
X0178313Y0186188D01*
X0178405Y0186330D01*
X0178501Y0186469D01*
X0178600Y0186606D01*
X0178702Y0186741D01*
X0178808Y0186873D01*
X0178917Y0187002D01*
X0179029Y0187129D01*
X0179144Y0187253D01*
X0179262Y0187374D01*
X0179383Y0187492D01*
X0179507Y0187607D01*
X0179634Y0187719D01*
X0179763Y0187828D01*
X0179895Y0187934D01*
X0180030Y0188036D01*
X0180167Y0188135D01*
X0180306Y0188231D01*
X0180448Y0188323D01*
X0180592Y0188412D01*
X0180738Y0188497D01*
X0180886Y0188578D01*
X0181036Y0188656D01*
X0181188Y0188730D01*
X0181342Y0188801D01*
X0181497Y0188868D01*
X0181654Y0188930D01*
X0181813Y0188989D01*
X0181973Y0189044D01*
X0182134Y0189095D01*
X0182296Y0189142D01*
X0182460Y0189186D01*
X0182624Y0189225D01*
X0182790Y0189260D01*
X0182956Y0189291D01*
X0183123Y0189317D01*
X0183291Y0189340D01*
X0183459Y0189359D01*
X0183627Y0189373D01*
X0183796Y0189384D01*
X0183965Y0189390D01*
X0184134Y0189392D01*
X0184303Y0189390D01*
X0184472Y0189384D01*
X0184641Y0189373D01*
X0184809Y0189359D01*
X0184977Y0189340D01*
X0185145Y0189317D01*
X0185312Y0189291D01*
X0185478Y0189260D01*
X0185644Y0189225D01*
X0185808Y0189186D01*
X0185972Y0189142D01*
X0186134Y0189095D01*
X0186295Y0189044D01*
X0186455Y0188989D01*
X0186614Y0188930D01*
X0186771Y0188868D01*
X0186926Y0188801D01*
X0187080Y0188730D01*
X0187232Y0188656D01*
X0187382Y0188578D01*
X0187530Y0188497D01*
X0187676Y0188412D01*
X0187820Y0188323D01*
X0187962Y0188231D01*
X0188101Y0188135D01*
X0188238Y0188036D01*
X0188373Y0187934D01*
X0188505Y0187828D01*
X0188634Y0187719D01*
X0188761Y0187607D01*
X0188885Y0187492D01*
X0189006Y0187374D01*
X0189124Y0187253D01*
X0189239Y0187129D01*
X0189351Y0187002D01*
X0189460Y0186873D01*
X0189566Y0186741D01*
X0189668Y0186606D01*
X0189767Y0186469D01*
X0189863Y0186330D01*
X0189955Y0186188D01*
X0190044Y0186044D01*
X0190129Y0185898D01*
X0190210Y0185750D01*
X0190288Y0185600D01*
X0190362Y0185448D01*
X0190433Y0185294D01*
X0190500Y0185139D01*
X0190562Y0184982D01*
X0190621Y0184823D01*
X0190676Y0184663D01*
X0190727Y0184502D01*
X0190774Y0184340D01*
X0190818Y0184176D01*
X0190857Y0184012D01*
X0190892Y0183846D01*
X0190923Y0183680D01*
X0190949Y0183513D01*
X0190972Y0183345D01*
X0190991Y0183177D01*
X0191005Y0183009D01*
X0191016Y0182840D01*
X0191022Y0182671D01*
X0191024Y0182502D01*
X0191022Y0182333D01*
X0191016Y0182164D01*
X0191005Y0181995D01*
X0190991Y0181827D01*
X0190972Y0181659D01*
X0190949Y0181491D01*
X0190923Y0181324D01*
X0190892Y0181158D01*
X0190857Y0180992D01*
X0190818Y0180828D01*
X0190774Y0180664D01*
X0190727Y0180502D01*
X0190676Y0180341D01*
X0190621Y0180181D01*
X0190562Y0180022D01*
X0190500Y0179865D01*
X0190433Y0179710D01*
X0190362Y0179556D01*
X0190288Y0179404D01*
X0190210Y0179254D01*
X0190129Y0179106D01*
X0190044Y0178960D01*
X0189955Y0178816D01*
X0189863Y0178674D01*
X0189767Y0178535D01*
X0189668Y0178398D01*
X0189566Y0178263D01*
X0189460Y0178131D01*
X0189351Y0178002D01*
X0189239Y0177875D01*
X0189124Y0177751D01*
X0189006Y0177630D01*
X0188885Y0177512D01*
X0188761Y0177397D01*
X0188634Y0177285D01*
X0188505Y0177176D01*
X0188373Y0177070D01*
X0188238Y0176968D01*
X0188101Y0176869D01*
X0187962Y0176773D01*
X0187820Y0176681D01*
X0187676Y0176592D01*
X0187530Y0176507D01*
X0187382Y0176426D01*
X0187232Y0176348D01*
X0187080Y0176274D01*
X0186926Y0176203D01*
X0186771Y0176136D01*
X0186614Y0176074D01*
X0186455Y0176015D01*
X0186295Y0175960D01*
X0186134Y0175909D01*
X0185972Y0175862D01*
X0185808Y0175818D01*
X0185644Y0175779D01*
X0185478Y0175744D01*
X0185312Y0175713D01*
X0185145Y0175687D01*
X0184977Y0175664D01*
X0184809Y0175645D01*
X0184641Y0175631D01*
X0184472Y0175620D01*
X0184303Y0175614D01*
X0184134Y0175612D01*
X0183965Y0175614D01*
X0183796Y0175620D01*
X0183627Y0175631D01*
X0183459Y0175645D01*
X0183291Y0175664D01*
X0183123Y0175687D01*
X0182956Y0175713D01*
X0182790Y0175744D01*
X0182624Y0175779D01*
X0182460Y0175818D01*
X0182296Y0175862D01*
X0182134Y0175909D01*
X0181973Y0175960D01*
X0181813Y0176015D01*
X0181654Y0176074D01*
X0181497Y0176136D01*
X0181342Y0176203D01*
X0181188Y0176274D01*
X0181036Y0176348D01*
X0180886Y0176426D01*
X0180738Y0176507D01*
X0180592Y0176592D01*
X0180448Y0176681D01*
X0180306Y0176773D01*
X0180167Y0176869D01*
X0180030Y0176968D01*
X0179895Y0177070D01*
X0179763Y0177176D01*
X0179634Y0177285D01*
X0179507Y0177397D01*
X0179383Y0177512D01*
X0179262Y0177630D01*
X0179144Y0177751D01*
X0179029Y0177875D01*
X0178917Y0178002D01*
X0178808Y0178131D01*
X0178702Y0178263D01*
X0178600Y0178398D01*
X0178501Y0178535D01*
X0178405Y0178674D01*
X0178313Y0178816D01*
X0178224Y0178960D01*
X0178139Y0179106D01*
X0178058Y0179254D01*
X0177980Y0179404D01*
X0177906Y0179556D01*
X0177835Y0179710D01*
X0177768Y0179865D01*
X0177706Y0180022D01*
X0177647Y0180181D01*
X0177592Y0180341D01*
X0177541Y0180502D01*
X0177494Y0180664D01*
X0177450Y0180828D01*
X0177411Y0180992D01*
X0177376Y0181158D01*
X0177345Y0181324D01*
X0177319Y0181491D01*
X0177296Y0181659D01*
X0177277Y0181827D01*
X0177263Y0181995D01*
X0177252Y0182164D01*
X0177246Y0182333D01*
X0177244Y0182502D01*
X0011890Y0182502D02*
X0011892Y0182671D01*
X0011898Y0182840D01*
X0011909Y0183009D01*
X0011923Y0183177D01*
X0011942Y0183345D01*
X0011965Y0183513D01*
X0011991Y0183680D01*
X0012022Y0183846D01*
X0012057Y0184012D01*
X0012096Y0184176D01*
X0012140Y0184340D01*
X0012187Y0184502D01*
X0012238Y0184663D01*
X0012293Y0184823D01*
X0012352Y0184982D01*
X0012414Y0185139D01*
X0012481Y0185294D01*
X0012552Y0185448D01*
X0012626Y0185600D01*
X0012704Y0185750D01*
X0012785Y0185898D01*
X0012870Y0186044D01*
X0012959Y0186188D01*
X0013051Y0186330D01*
X0013147Y0186469D01*
X0013246Y0186606D01*
X0013348Y0186741D01*
X0013454Y0186873D01*
X0013563Y0187002D01*
X0013675Y0187129D01*
X0013790Y0187253D01*
X0013908Y0187374D01*
X0014029Y0187492D01*
X0014153Y0187607D01*
X0014280Y0187719D01*
X0014409Y0187828D01*
X0014541Y0187934D01*
X0014676Y0188036D01*
X0014813Y0188135D01*
X0014952Y0188231D01*
X0015094Y0188323D01*
X0015238Y0188412D01*
X0015384Y0188497D01*
X0015532Y0188578D01*
X0015682Y0188656D01*
X0015834Y0188730D01*
X0015988Y0188801D01*
X0016143Y0188868D01*
X0016300Y0188930D01*
X0016459Y0188989D01*
X0016619Y0189044D01*
X0016780Y0189095D01*
X0016942Y0189142D01*
X0017106Y0189186D01*
X0017270Y0189225D01*
X0017436Y0189260D01*
X0017602Y0189291D01*
X0017769Y0189317D01*
X0017937Y0189340D01*
X0018105Y0189359D01*
X0018273Y0189373D01*
X0018442Y0189384D01*
X0018611Y0189390D01*
X0018780Y0189392D01*
X0018949Y0189390D01*
X0019118Y0189384D01*
X0019287Y0189373D01*
X0019455Y0189359D01*
X0019623Y0189340D01*
X0019791Y0189317D01*
X0019958Y0189291D01*
X0020124Y0189260D01*
X0020290Y0189225D01*
X0020454Y0189186D01*
X0020618Y0189142D01*
X0020780Y0189095D01*
X0020941Y0189044D01*
X0021101Y0188989D01*
X0021260Y0188930D01*
X0021417Y0188868D01*
X0021572Y0188801D01*
X0021726Y0188730D01*
X0021878Y0188656D01*
X0022028Y0188578D01*
X0022176Y0188497D01*
X0022322Y0188412D01*
X0022466Y0188323D01*
X0022608Y0188231D01*
X0022747Y0188135D01*
X0022884Y0188036D01*
X0023019Y0187934D01*
X0023151Y0187828D01*
X0023280Y0187719D01*
X0023407Y0187607D01*
X0023531Y0187492D01*
X0023652Y0187374D01*
X0023770Y0187253D01*
X0023885Y0187129D01*
X0023997Y0187002D01*
X0024106Y0186873D01*
X0024212Y0186741D01*
X0024314Y0186606D01*
X0024413Y0186469D01*
X0024509Y0186330D01*
X0024601Y0186188D01*
X0024690Y0186044D01*
X0024775Y0185898D01*
X0024856Y0185750D01*
X0024934Y0185600D01*
X0025008Y0185448D01*
X0025079Y0185294D01*
X0025146Y0185139D01*
X0025208Y0184982D01*
X0025267Y0184823D01*
X0025322Y0184663D01*
X0025373Y0184502D01*
X0025420Y0184340D01*
X0025464Y0184176D01*
X0025503Y0184012D01*
X0025538Y0183846D01*
X0025569Y0183680D01*
X0025595Y0183513D01*
X0025618Y0183345D01*
X0025637Y0183177D01*
X0025651Y0183009D01*
X0025662Y0182840D01*
X0025668Y0182671D01*
X0025670Y0182502D01*
X0025668Y0182333D01*
X0025662Y0182164D01*
X0025651Y0181995D01*
X0025637Y0181827D01*
X0025618Y0181659D01*
X0025595Y0181491D01*
X0025569Y0181324D01*
X0025538Y0181158D01*
X0025503Y0180992D01*
X0025464Y0180828D01*
X0025420Y0180664D01*
X0025373Y0180502D01*
X0025322Y0180341D01*
X0025267Y0180181D01*
X0025208Y0180022D01*
X0025146Y0179865D01*
X0025079Y0179710D01*
X0025008Y0179556D01*
X0024934Y0179404D01*
X0024856Y0179254D01*
X0024775Y0179106D01*
X0024690Y0178960D01*
X0024601Y0178816D01*
X0024509Y0178674D01*
X0024413Y0178535D01*
X0024314Y0178398D01*
X0024212Y0178263D01*
X0024106Y0178131D01*
X0023997Y0178002D01*
X0023885Y0177875D01*
X0023770Y0177751D01*
X0023652Y0177630D01*
X0023531Y0177512D01*
X0023407Y0177397D01*
X0023280Y0177285D01*
X0023151Y0177176D01*
X0023019Y0177070D01*
X0022884Y0176968D01*
X0022747Y0176869D01*
X0022608Y0176773D01*
X0022466Y0176681D01*
X0022322Y0176592D01*
X0022176Y0176507D01*
X0022028Y0176426D01*
X0021878Y0176348D01*
X0021726Y0176274D01*
X0021572Y0176203D01*
X0021417Y0176136D01*
X0021260Y0176074D01*
X0021101Y0176015D01*
X0020941Y0175960D01*
X0020780Y0175909D01*
X0020618Y0175862D01*
X0020454Y0175818D01*
X0020290Y0175779D01*
X0020124Y0175744D01*
X0019958Y0175713D01*
X0019791Y0175687D01*
X0019623Y0175664D01*
X0019455Y0175645D01*
X0019287Y0175631D01*
X0019118Y0175620D01*
X0018949Y0175614D01*
X0018780Y0175612D01*
X0018611Y0175614D01*
X0018442Y0175620D01*
X0018273Y0175631D01*
X0018105Y0175645D01*
X0017937Y0175664D01*
X0017769Y0175687D01*
X0017602Y0175713D01*
X0017436Y0175744D01*
X0017270Y0175779D01*
X0017106Y0175818D01*
X0016942Y0175862D01*
X0016780Y0175909D01*
X0016619Y0175960D01*
X0016459Y0176015D01*
X0016300Y0176074D01*
X0016143Y0176136D01*
X0015988Y0176203D01*
X0015834Y0176274D01*
X0015682Y0176348D01*
X0015532Y0176426D01*
X0015384Y0176507D01*
X0015238Y0176592D01*
X0015094Y0176681D01*
X0014952Y0176773D01*
X0014813Y0176869D01*
X0014676Y0176968D01*
X0014541Y0177070D01*
X0014409Y0177176D01*
X0014280Y0177285D01*
X0014153Y0177397D01*
X0014029Y0177512D01*
X0013908Y0177630D01*
X0013790Y0177751D01*
X0013675Y0177875D01*
X0013563Y0178002D01*
X0013454Y0178131D01*
X0013348Y0178263D01*
X0013246Y0178398D01*
X0013147Y0178535D01*
X0013051Y0178674D01*
X0012959Y0178816D01*
X0012870Y0178960D01*
X0012785Y0179106D01*
X0012704Y0179254D01*
X0012626Y0179404D01*
X0012552Y0179556D01*
X0012481Y0179710D01*
X0012414Y0179865D01*
X0012352Y0180022D01*
X0012293Y0180181D01*
X0012238Y0180341D01*
X0012187Y0180502D01*
X0012140Y0180664D01*
X0012096Y0180828D01*
X0012057Y0180992D01*
X0012022Y0181158D01*
X0011991Y0181324D01*
X0011965Y0181491D01*
X0011942Y0181659D01*
X0011923Y0181827D01*
X0011909Y0181995D01*
X0011898Y0182164D01*
X0011892Y0182333D01*
X0011890Y0182502D01*
D12*
X0045395Y0153681D02*
X0045985Y0153091D01*
X0046575Y0153091D01*
X0047165Y0153681D01*
X0047165Y0156631D01*
X0046575Y0156631D02*
X0047755Y0156631D01*
X0049020Y0155451D02*
X0050200Y0156631D01*
X0050200Y0153091D01*
X0049020Y0153091D02*
X0051380Y0153091D01*
X0052694Y0150682D02*
X0053874Y0149502D01*
X0055055Y0150682D01*
X0055055Y0147142D01*
X0056320Y0147732D02*
X0056910Y0147142D01*
X0058090Y0147142D01*
X0058680Y0147732D01*
X0058680Y0150092D01*
X0058090Y0150682D01*
X0056910Y0150682D01*
X0056320Y0150092D01*
X0056320Y0147732D01*
X0052694Y0147142D02*
X0052694Y0150682D01*
X0059945Y0150682D02*
X0059945Y0147142D01*
X0061715Y0147142D01*
X0062305Y0147732D01*
X0062305Y0150092D01*
X0061715Y0150682D01*
X0059945Y0150682D01*
X0067195Y0150682D02*
X0069555Y0150682D01*
X0068375Y0150682D02*
X0068375Y0147142D01*
X0070820Y0147732D02*
X0071410Y0147142D01*
X0072590Y0147142D01*
X0073180Y0147732D01*
X0073180Y0150092D01*
X0072590Y0150682D01*
X0071410Y0150682D01*
X0070820Y0150092D01*
X0070820Y0147732D01*
X0074445Y0147732D02*
X0074445Y0150092D01*
X0075035Y0150682D01*
X0076215Y0150682D01*
X0076805Y0150092D01*
X0076805Y0147732D01*
X0076215Y0147142D01*
X0075035Y0147142D01*
X0074445Y0147732D01*
X0078070Y0147142D02*
X0078070Y0150682D01*
X0078070Y0147142D02*
X0080430Y0147142D01*
X0098804Y0124521D02*
X0098804Y0121571D01*
X0099394Y0120981D01*
X0100574Y0120981D01*
X0101164Y0121571D01*
X0101164Y0124521D01*
X0102429Y0123931D02*
X0103019Y0124521D01*
X0104199Y0124521D01*
X0104789Y0123931D01*
X0104789Y0123341D01*
X0104199Y0122751D01*
X0104789Y0122161D01*
X0104789Y0121571D01*
X0104199Y0120981D01*
X0103019Y0120981D01*
X0102429Y0121571D01*
X0103609Y0122751D02*
X0104199Y0122751D01*
X0126231Y0146942D02*
X0126231Y0150482D01*
X0127412Y0149302D01*
X0128592Y0150482D01*
X0128592Y0146942D01*
X0129857Y0147532D02*
X0129857Y0149892D01*
X0130447Y0150482D01*
X0131627Y0150482D01*
X0132217Y0149892D01*
X0132217Y0147532D01*
X0131627Y0146942D01*
X0130447Y0146942D01*
X0129857Y0147532D01*
X0133482Y0150482D02*
X0135842Y0150482D01*
X0134662Y0150482D02*
X0134662Y0146942D01*
X0109405Y0154140D02*
X0108815Y0153550D01*
X0107635Y0153550D01*
X0107045Y0154140D01*
X0108225Y0155320D02*
X0108815Y0155320D01*
X0109405Y0154730D01*
X0109405Y0154140D01*
X0108815Y0155320D02*
X0109405Y0155910D01*
X0109405Y0156500D01*
X0108815Y0157090D01*
X0107635Y0157090D01*
X0107045Y0156500D01*
X0105780Y0157090D02*
X0104600Y0157090D01*
X0105190Y0157090D02*
X0105190Y0154140D01*
X0104600Y0153550D01*
X0104010Y0153550D01*
X0103420Y0154140D01*
X0130017Y0112527D02*
X0130017Y0109577D01*
X0130607Y0108987D01*
X0131787Y0108987D01*
X0132377Y0109577D01*
X0132377Y0112527D01*
X0133642Y0111347D02*
X0134822Y0112527D01*
X0134822Y0108987D01*
X0133642Y0108987D02*
X0136002Y0108987D01*
X0096519Y0057457D02*
X0095339Y0057457D01*
X0094749Y0056867D01*
X0093484Y0057457D02*
X0093484Y0054507D01*
X0092894Y0053917D01*
X0091714Y0053917D01*
X0091124Y0054507D01*
X0091124Y0057457D01*
X0094749Y0053917D02*
X0097109Y0056277D01*
X0097109Y0056867D01*
X0096519Y0057457D01*
X0097109Y0053917D02*
X0094749Y0053917D01*
X0085150Y0055535D02*
X0082790Y0055535D01*
X0081525Y0055535D02*
X0079165Y0055535D01*
X0077900Y0056125D02*
X0076720Y0053765D01*
X0075540Y0056125D01*
X0074275Y0055535D02*
X0074275Y0054945D01*
X0071915Y0054945D01*
X0071915Y0054355D02*
X0071915Y0055535D01*
X0072505Y0056125D01*
X0073685Y0056125D01*
X0074275Y0055535D01*
X0073685Y0053765D02*
X0072505Y0053765D01*
X0071915Y0054355D01*
X0070649Y0053765D02*
X0069469Y0054945D01*
X0070059Y0054945D02*
X0068289Y0054945D01*
X0068289Y0053765D02*
X0068289Y0057305D01*
X0070059Y0057305D01*
X0070649Y0056715D01*
X0070649Y0055535D01*
X0070059Y0054945D01*
X0063399Y0053765D02*
X0061039Y0053765D01*
X0062219Y0053765D02*
X0062219Y0057305D01*
X0061039Y0056125D01*
X0059774Y0056715D02*
X0057414Y0054355D01*
X0058004Y0053765D01*
X0059184Y0053765D01*
X0059774Y0054355D01*
X0059774Y0056715D01*
X0059184Y0057305D01*
X0058004Y0057305D01*
X0057414Y0056715D01*
X0057414Y0054355D01*
X0056149Y0054355D02*
X0055559Y0053765D01*
X0053789Y0053765D01*
X0053789Y0057305D01*
X0055559Y0057305D01*
X0056149Y0056715D01*
X0056149Y0054355D01*
X0052524Y0057305D02*
X0050164Y0057305D01*
X0050164Y0053765D01*
X0048899Y0053765D02*
X0046539Y0053765D01*
X0046539Y0057305D01*
X0048899Y0057305D01*
X0047719Y0055535D02*
X0046539Y0055535D01*
X0050164Y0055535D02*
X0051344Y0055535D01*
X0050119Y0028290D02*
X0050709Y0027700D01*
X0050709Y0026520D01*
X0050119Y0025930D01*
X0048349Y0025930D01*
X0049529Y0025930D02*
X0050709Y0024750D01*
X0051974Y0024750D02*
X0054334Y0024750D01*
X0053154Y0024750D02*
X0053154Y0028290D01*
X0051974Y0027110D01*
X0050119Y0028290D02*
X0048349Y0028290D01*
X0048349Y0024750D01*
X0047084Y0025930D02*
X0047084Y0028290D01*
X0044724Y0028290D02*
X0044724Y0025930D01*
X0045904Y0024750D01*
X0047084Y0025930D01*
X0062974Y0024840D02*
X0063564Y0024250D01*
X0064744Y0024250D01*
X0065334Y0024840D01*
X0065334Y0027790D01*
X0066599Y0027790D02*
X0066599Y0026020D01*
X0067779Y0026610D01*
X0068369Y0026610D01*
X0068959Y0026020D01*
X0068959Y0024840D01*
X0068369Y0024250D01*
X0067189Y0024250D01*
X0066599Y0024840D01*
X0066599Y0027790D02*
X0068959Y0027790D01*
X0062974Y0027790D02*
X0062974Y0024840D01*
X0134680Y0036174D02*
X0135270Y0035584D01*
X0136450Y0035584D01*
X0137040Y0036174D01*
X0137040Y0038534D01*
X0136450Y0039124D01*
X0135270Y0039124D01*
X0134680Y0038534D01*
X0134680Y0036174D01*
X0135860Y0036764D02*
X0137040Y0035584D01*
X0138305Y0035584D02*
X0140665Y0035584D01*
X0139485Y0035584D02*
X0139485Y0039124D01*
X0138305Y0037944D01*
X0164199Y0022687D02*
X0164789Y0022097D01*
X0165379Y0022097D01*
X0165969Y0022687D01*
X0165969Y0025637D01*
X0165379Y0025637D02*
X0166559Y0025637D01*
X0167824Y0023867D02*
X0170184Y0023867D01*
X0169594Y0022097D02*
X0169594Y0025637D01*
X0167824Y0023867D01*
X0058082Y0098597D02*
X0057665Y0098180D01*
X0054328Y0098180D01*
X0055996Y0096511D01*
X0058082Y0098597D02*
X0058082Y0099431D01*
X0057248Y0100266D01*
X0056414Y0100266D01*
X0055519Y0101160D02*
X0053850Y0099491D01*
X0053016Y0099491D01*
X0052181Y0100326D01*
X0052181Y0101160D01*
X0053850Y0102829D01*
X0054685Y0102829D01*
X0055519Y0101995D01*
X0055519Y0101160D01*
X0053433Y0100743D02*
X0053433Y0099074D01*
X0011311Y0128277D02*
X0008951Y0128277D01*
X0011311Y0130637D01*
X0011311Y0131227D01*
X0010721Y0131817D01*
X0009541Y0131817D01*
X0008951Y0131227D01*
X0007686Y0131817D02*
X0006506Y0131817D01*
X0007096Y0131817D02*
X0007096Y0128867D01*
X0006506Y0128277D01*
X0005916Y0128277D01*
X0005326Y0128867D01*
X0168631Y0167590D02*
X0169221Y0167000D01*
X0170402Y0167000D01*
X0170992Y0167590D01*
X0170992Y0170540D01*
X0172257Y0168770D02*
X0174617Y0168770D01*
X0174027Y0167000D02*
X0174027Y0170540D01*
X0172257Y0168770D01*
X0168631Y0167590D02*
X0168631Y0170540D01*
D13*
X0167598Y0165809D02*
X0184921Y0165809D01*
X0184921Y0164825D01*
X0167598Y0164825D02*
X0167598Y0165809D01*
X0157369Y0169026D02*
X0151857Y0169026D01*
X0151857Y0179262D01*
X0157369Y0179262D01*
X0157369Y0169026D01*
X0158735Y0177113D02*
X0158735Y0182625D01*
X0168971Y0182625D01*
X0168971Y0177113D01*
X0158735Y0177113D01*
X0155886Y0150998D02*
X0140138Y0150998D01*
X0140138Y0142337D01*
X0155886Y0142337D01*
X0155886Y0150998D01*
X0156280Y0141105D02*
X0156280Y0132443D01*
X0140531Y0132443D01*
X0140531Y0141105D01*
X0156280Y0141105D01*
X0167598Y0128605D02*
X0167598Y0127620D01*
X0184921Y0127620D01*
X0184921Y0128605D01*
X0168437Y0122103D02*
X0168437Y0116197D01*
X0156626Y0116197D01*
X0156626Y0122103D01*
X0168437Y0122103D01*
X0154687Y0122353D02*
X0154687Y0116447D01*
X0142876Y0116447D01*
X0142876Y0122353D01*
X0154687Y0122353D01*
X0140937Y0122353D02*
X0140937Y0116447D01*
X0129126Y0116447D01*
X0129126Y0122353D01*
X0140937Y0122353D01*
X0136083Y0105955D02*
X0132539Y0105955D01*
X0132539Y0087845D01*
X0136083Y0087845D01*
X0137626Y0074853D02*
X0149437Y0074853D01*
X0149437Y0068947D01*
X0137626Y0068947D01*
X0137626Y0074853D01*
X0138163Y0068156D02*
X0148400Y0068156D01*
X0148400Y0062644D01*
X0138163Y0062644D01*
X0138163Y0068156D01*
X0138163Y0061656D02*
X0148400Y0061656D01*
X0148400Y0056144D01*
X0138163Y0056144D01*
X0138163Y0061656D01*
X0139626Y0052353D02*
X0151437Y0052353D01*
X0151437Y0046447D01*
X0139626Y0046447D01*
X0139626Y0052353D01*
X0140181Y0033699D02*
X0133882Y0033699D01*
X0133882Y0030156D01*
X0133882Y0024644D02*
X0133882Y0021101D01*
X0140181Y0021101D01*
X0140181Y0021298D01*
X0140575Y0026770D02*
X0140575Y0028030D01*
X0140181Y0033502D02*
X0140181Y0033699D01*
X0128984Y0018806D02*
X0128984Y0006994D01*
X0123079Y0006994D01*
X0123079Y0018806D01*
X0128984Y0018806D01*
X0132126Y0013353D02*
X0143937Y0013353D01*
X0143937Y0007447D01*
X0132126Y0007447D01*
X0132126Y0013353D01*
X0109683Y0020461D02*
X0091180Y0020461D01*
X0091180Y0034438D01*
X0091180Y0039556D02*
X0091180Y0053139D01*
X0109683Y0053139D01*
X0109683Y0020461D01*
X0102006Y0041918D02*
X0097282Y0044674D01*
X0102006Y0047430D01*
X0102006Y0041918D01*
X0103975Y0044674D02*
X0097282Y0044674D01*
X0097282Y0043493D01*
X0097282Y0044674D02*
X0095707Y0044674D01*
X0097282Y0044674D02*
X0097282Y0045855D01*
X0064050Y0039156D02*
X0064050Y0033644D01*
X0053813Y0033644D01*
X0053813Y0039156D01*
X0064050Y0039156D01*
X0051309Y0038985D02*
X0051309Y0033473D01*
X0041073Y0033473D01*
X0041073Y0038985D01*
X0051309Y0038985D01*
X0025661Y0095652D02*
X0004402Y0095652D01*
X0004402Y0127148D01*
X0025661Y0127148D01*
X0025661Y0095652D01*
X0045540Y0115222D02*
X0078668Y0148350D01*
X0083401Y0143617D01*
X0089247Y0138328D02*
X0093980Y0133595D01*
X0060573Y0100189D01*
X0055841Y0104921D01*
X0050273Y0110489D02*
X0045540Y0115222D01*
X0043356Y0119755D02*
X0035005Y0128107D01*
X0039181Y0132282D01*
X0047532Y0123931D01*
X0043356Y0119755D01*
X0047916Y0128061D02*
X0055155Y0135299D01*
X0059052Y0131401D01*
X0051814Y0124163D01*
X0047916Y0128061D01*
X0044841Y0130290D02*
X0040943Y0134187D01*
X0048182Y0141425D01*
X0052079Y0137528D01*
X0044841Y0130290D01*
X0029937Y0138447D02*
X0018126Y0138447D01*
X0018126Y0144353D01*
X0029937Y0144353D01*
X0029937Y0138447D01*
X0154980Y0105955D02*
X0158524Y0105955D01*
X0158524Y0087845D01*
X0154980Y0087845D01*
D14*
X0121475Y0099800D02*
X0120640Y0100635D01*
X0121475Y0099800D02*
X0120640Y0098965D01*
X0102267Y0080591D02*
X0101431Y0079756D01*
X0100596Y0080591D01*
X0082223Y0098965D02*
X0081388Y0099800D01*
X0082223Y0100635D01*
X0100040Y0117895D02*
X0102267Y0117895D01*
X0100102Y0163350D02*
X0090654Y0163350D01*
X0100102Y0163350D02*
X0100102Y0180673D01*
X0101620Y0180973D02*
X0101620Y0163650D01*
X0111069Y0163650D01*
X0140990Y0163257D02*
X0150832Y0163257D01*
X0150832Y0180973D01*
X0142958Y0195934D02*
X0109100Y0195934D01*
X0092228Y0196028D02*
X0042622Y0196028D01*
X0034748Y0180673D02*
X0034748Y0163350D01*
X0044197Y0163350D01*
X0044494Y0023774D02*
X0044494Y0021806D01*
X0044494Y0023774D02*
X0052369Y0023774D01*
X0052369Y0021806D01*
X0052369Y0017475D02*
X0052369Y0014325D01*
X0052369Y0009994D02*
X0052369Y0008026D01*
X0044494Y0008026D01*
X0044494Y0009994D01*
X0062494Y0009494D02*
X0062494Y0007526D01*
X0070369Y0007526D01*
X0070369Y0009494D01*
X0062494Y0013825D02*
X0062494Y0016975D01*
X0062494Y0021306D02*
X0062494Y0023274D01*
X0070369Y0023274D01*
X0070369Y0021306D01*
D15*
X0125638Y0027506D02*
X0126031Y0028294D01*
X0126031Y0028569D01*
X0126031Y0028294D02*
X0125638Y0028294D01*
X0126031Y0028294D02*
X0126425Y0028294D01*
X0126031Y0028294D02*
X0126425Y0027506D01*
X0126031Y0027506D01*
X0126031Y0027250D01*
X0126031Y0027506D02*
X0125638Y0027506D01*
D16*
X0070490Y0075264D03*
X0070490Y0075314D03*
X0070490Y0075364D03*
X0070540Y0075464D03*
X0070540Y0075514D03*
X0070540Y0075564D03*
X0070590Y0075664D03*
X0070590Y0075714D03*
X0070590Y0075764D03*
X0070590Y0075814D03*
X0070640Y0075864D03*
X0070640Y0075914D03*
X0070640Y0075964D03*
X0070640Y0076014D03*
X0070690Y0076064D03*
X0070690Y0076114D03*
X0070690Y0076164D03*
X0070690Y0076214D03*
X0070740Y0076264D03*
X0070740Y0076314D03*
X0070740Y0076364D03*
X0070740Y0076414D03*
X0070790Y0076464D03*
X0070790Y0076514D03*
X0070790Y0076564D03*
X0070790Y0076614D03*
X0070840Y0076664D03*
X0070840Y0076714D03*
X0070840Y0076764D03*
X0070840Y0076814D03*
X0070890Y0076864D03*
X0070890Y0076914D03*
X0070890Y0076964D03*
X0070890Y0077014D03*
X0070940Y0077114D03*
X0070940Y0077164D03*
X0070940Y0077214D03*
X0070990Y0077314D03*
X0070990Y0077364D03*
X0070990Y0077414D03*
X0071040Y0077514D03*
X0071040Y0077564D03*
X0071040Y0077614D03*
X0071090Y0077714D03*
X0071090Y0077764D03*
X0071090Y0077814D03*
X0071140Y0077914D03*
X0071140Y0077964D03*
X0071140Y0078014D03*
X0070440Y0075164D03*
X0070440Y0075114D03*
X0070440Y0075064D03*
X0068990Y0075464D03*
X0068990Y0075514D03*
X0067540Y0075814D03*
X0067540Y0075864D03*
X0067540Y0075914D03*
X0067590Y0076014D03*
X0067590Y0076064D03*
X0067590Y0076114D03*
X0067640Y0076214D03*
X0067640Y0076264D03*
X0067640Y0076314D03*
X0067690Y0076414D03*
X0067690Y0076464D03*
X0067690Y0076514D03*
X0067740Y0076614D03*
X0067740Y0076664D03*
X0067740Y0076714D03*
X0067790Y0076814D03*
X0067790Y0076864D03*
X0067790Y0076914D03*
X0067840Y0077064D03*
X0067840Y0077114D03*
X0067890Y0077264D03*
X0067890Y0077314D03*
X0067940Y0077464D03*
X0067940Y0077514D03*
X0067990Y0077664D03*
X0067990Y0077714D03*
X0068040Y0077864D03*
X0068040Y0077914D03*
X0068090Y0078064D03*
X0067490Y0075714D03*
X0067490Y0075664D03*
X0067490Y0075614D03*
X0067440Y0075514D03*
X0067440Y0075464D03*
X0067440Y0075414D03*
X0067390Y0075314D03*
X0067390Y0075264D03*
X0067390Y0075214D03*
X0067340Y0075114D03*
X0067340Y0075064D03*
X0028040Y0066514D03*
X0018350Y0034378D03*
X0016800Y0034378D03*
X0013100Y0034228D03*
X0011600Y0035678D03*
X0007950Y0033028D03*
X0007950Y0032978D03*
X0007950Y0032928D03*
X0007950Y0032878D03*
D17*
X0011650Y0035578D03*
X0013050Y0034328D03*
X0016800Y0034478D03*
X0017600Y0035378D03*
X0018350Y0034478D03*
X0025550Y0035328D03*
X0026600Y0034628D03*
X0026000Y0033528D03*
X0037000Y0035328D03*
X0038050Y0034628D03*
X0038050Y0034078D03*
X0037450Y0033528D03*
X0049290Y0066514D03*
X0065240Y0075114D03*
X0065240Y0075164D03*
X0065240Y0075214D03*
X0065290Y0075314D03*
X0065290Y0075364D03*
X0065290Y0075414D03*
X0065340Y0075514D03*
X0065340Y0075564D03*
X0065340Y0075614D03*
X0065390Y0075714D03*
X0065390Y0075764D03*
X0065390Y0075814D03*
X0065440Y0075914D03*
X0065440Y0075964D03*
X0065440Y0076014D03*
X0065490Y0076114D03*
X0065490Y0076164D03*
X0065490Y0076214D03*
X0065540Y0076314D03*
X0065540Y0076364D03*
X0065540Y0076414D03*
X0065590Y0076564D03*
X0065590Y0076614D03*
X0065640Y0076764D03*
X0065640Y0076814D03*
X0065690Y0076964D03*
X0065690Y0077014D03*
X0065740Y0077164D03*
X0065740Y0077214D03*
X0065790Y0077364D03*
X0065790Y0077414D03*
X0065840Y0077564D03*
X0065840Y0077614D03*
X0065890Y0077764D03*
X0065890Y0077814D03*
X0065940Y0077964D03*
X0065940Y0078014D03*
X0065990Y0078164D03*
X0065990Y0078214D03*
X0066040Y0078364D03*
X0066040Y0078414D03*
X0069040Y0075764D03*
X0069040Y0075714D03*
X0069040Y0075664D03*
X0030740Y0075914D03*
D18*
X0030665Y0075864D03*
X0025365Y0075214D03*
X0028165Y0066564D03*
X0052115Y0076014D03*
X0034625Y0036078D03*
X0034625Y0036028D03*
X0034625Y0034878D03*
X0034625Y0034828D03*
X0037375Y0033778D03*
X0025925Y0033778D03*
D19*
X0025925Y0033728D03*
X0025975Y0035878D03*
X0026025Y0035978D03*
X0026075Y0036078D03*
X0026075Y0036128D03*
X0034575Y0036178D03*
X0037475Y0035978D03*
X0037525Y0036078D03*
X0037575Y0036178D03*
X0037375Y0033728D03*
X0049365Y0066564D03*
X0025465Y0075364D03*
X0025415Y0075314D03*
D20*
X0024890Y0074464D03*
X0028240Y0066614D03*
D21*
X0024915Y0074514D03*
X0024965Y0074564D03*
X0030615Y0075814D03*
X0049415Y0066614D03*
D22*
X0047990Y0068714D03*
X0047990Y0068764D03*
X0047990Y0068814D03*
X0048040Y0070014D03*
X0048040Y0070064D03*
X0048090Y0070264D03*
X0048090Y0070314D03*
X0048090Y0070364D03*
X0048140Y0070464D03*
X0048140Y0070514D03*
X0048140Y0070564D03*
X0048140Y0070614D03*
X0048190Y0070714D03*
X0048190Y0070764D03*
X0048190Y0070814D03*
X0048240Y0070914D03*
X0048240Y0070964D03*
X0048240Y0071014D03*
X0048240Y0071064D03*
X0048290Y0071114D03*
X0048290Y0071164D03*
X0048290Y0071214D03*
X0048290Y0071264D03*
X0048340Y0071314D03*
X0048340Y0071364D03*
X0048340Y0071414D03*
X0048390Y0071514D03*
X0048390Y0071564D03*
X0048390Y0071614D03*
X0048440Y0071664D03*
X0048440Y0071714D03*
X0048440Y0071764D03*
X0048490Y0071864D03*
X0048490Y0071914D03*
X0048540Y0072064D03*
X0048590Y0072214D03*
X0049240Y0073764D03*
X0049290Y0073814D03*
X0049340Y0073864D03*
X0045290Y0074964D03*
X0045290Y0075014D03*
X0045340Y0075164D03*
X0045340Y0075214D03*
X0045390Y0075364D03*
X0045390Y0075414D03*
X0045440Y0075564D03*
X0045440Y0075614D03*
X0045240Y0074814D03*
X0045240Y0074764D03*
X0045190Y0074614D03*
X0045190Y0074564D03*
X0045140Y0074414D03*
X0045140Y0074364D03*
X0045090Y0074214D03*
X0045090Y0074164D03*
X0045040Y0074014D03*
X0045040Y0073964D03*
X0044990Y0073814D03*
X0044990Y0073764D03*
X0044940Y0073614D03*
X0044940Y0073564D03*
X0044890Y0073414D03*
X0044890Y0073364D03*
X0044840Y0073214D03*
X0044840Y0073164D03*
X0044790Y0073014D03*
X0044790Y0072964D03*
X0044740Y0072814D03*
X0044740Y0072764D03*
X0044690Y0072614D03*
X0044690Y0072564D03*
X0044640Y0072414D03*
X0044640Y0072364D03*
X0044590Y0072214D03*
X0044590Y0072164D03*
X0044540Y0072014D03*
X0044540Y0071964D03*
X0044490Y0071814D03*
X0044490Y0071764D03*
X0044440Y0071614D03*
X0044440Y0071564D03*
X0044390Y0071414D03*
X0044390Y0071364D03*
X0044340Y0071214D03*
X0044340Y0071164D03*
X0044290Y0071014D03*
X0044290Y0070964D03*
X0044240Y0070814D03*
X0044240Y0070764D03*
X0044190Y0070614D03*
X0044190Y0070564D03*
X0044140Y0070414D03*
X0044140Y0070364D03*
X0044090Y0070214D03*
X0044090Y0070164D03*
X0044040Y0070014D03*
X0044040Y0069964D03*
X0043990Y0069814D03*
X0043990Y0069764D03*
X0043940Y0069614D03*
X0043940Y0069564D03*
X0043890Y0069414D03*
X0043890Y0069364D03*
X0043840Y0069214D03*
X0043840Y0069164D03*
X0043790Y0069014D03*
X0043790Y0068964D03*
X0043740Y0068814D03*
X0043740Y0068764D03*
X0043690Y0068614D03*
X0043690Y0068564D03*
X0043640Y0068414D03*
X0043640Y0068364D03*
X0043590Y0068214D03*
X0043590Y0068164D03*
X0043540Y0068014D03*
X0043540Y0067964D03*
X0043490Y0067814D03*
X0043490Y0067764D03*
X0043440Y0067614D03*
X0043440Y0067564D03*
X0043390Y0067414D03*
X0043390Y0067364D03*
X0043340Y0067214D03*
X0043340Y0067164D03*
X0043290Y0067014D03*
X0043290Y0066964D03*
X0043240Y0066814D03*
X0043240Y0066764D03*
X0055590Y0066764D03*
X0055590Y0066814D03*
X0055640Y0066964D03*
X0055640Y0067014D03*
X0055690Y0067164D03*
X0055690Y0067214D03*
X0055740Y0067364D03*
X0055740Y0067414D03*
X0055790Y0067564D03*
X0055790Y0067614D03*
X0055840Y0067764D03*
X0055840Y0067814D03*
X0055890Y0067964D03*
X0055890Y0068014D03*
X0055940Y0068164D03*
X0055940Y0068214D03*
X0055990Y0068364D03*
X0055990Y0068414D03*
X0056040Y0068564D03*
X0056040Y0068614D03*
X0056090Y0068764D03*
X0056090Y0068814D03*
X0056140Y0068964D03*
X0056140Y0069014D03*
X0056190Y0069114D03*
X0057090Y0072814D03*
X0057090Y0072864D03*
X0057140Y0073014D03*
X0057140Y0073064D03*
X0057190Y0073214D03*
X0057190Y0073264D03*
X0057240Y0073414D03*
X0057240Y0073464D03*
X0057290Y0073614D03*
X0057290Y0073664D03*
X0057340Y0073814D03*
X0057340Y0073864D03*
X0057390Y0074014D03*
X0057390Y0074064D03*
X0057440Y0074214D03*
X0057440Y0074264D03*
X0057490Y0074414D03*
X0057490Y0074464D03*
X0057540Y0074614D03*
X0057540Y0074664D03*
X0057590Y0074814D03*
X0057590Y0074864D03*
X0057640Y0075014D03*
X0057640Y0075064D03*
X0057690Y0075214D03*
X0057690Y0075264D03*
X0057740Y0075414D03*
X0057740Y0075464D03*
X0057790Y0075614D03*
X0057790Y0075664D03*
X0057840Y0075814D03*
X0057840Y0075864D03*
X0057890Y0076014D03*
X0057890Y0076064D03*
X0057940Y0076214D03*
X0057940Y0076264D03*
X0057990Y0076414D03*
X0057990Y0076464D03*
X0058040Y0076614D03*
X0058040Y0076664D03*
X0058090Y0076814D03*
X0058090Y0076864D03*
X0058140Y0077064D03*
X0058190Y0077264D03*
X0058240Y0077464D03*
X0058290Y0077664D03*
X0058340Y0077864D03*
X0058390Y0078064D03*
X0058440Y0078264D03*
X0058490Y0078464D03*
X0058540Y0078664D03*
X0061240Y0074114D03*
X0061190Y0074064D03*
X0061140Y0074014D03*
X0061040Y0073864D03*
X0060990Y0073814D03*
X0060940Y0073764D03*
X0060890Y0073714D03*
X0060840Y0073664D03*
X0060790Y0073614D03*
X0060540Y0073314D03*
X0030590Y0075764D03*
X0026990Y0070714D03*
X0026990Y0070664D03*
X0026940Y0070514D03*
X0026940Y0070464D03*
X0026890Y0070264D03*
X0026790Y0068414D03*
X0026840Y0068364D03*
X0028240Y0066664D03*
X0030540Y0068364D03*
X0021290Y0070764D03*
X0021290Y0070814D03*
X0021340Y0070964D03*
X0021340Y0071014D03*
X0021390Y0071164D03*
X0021390Y0071214D03*
X0021440Y0071364D03*
X0021440Y0071414D03*
X0021490Y0071564D03*
X0021490Y0071614D03*
X0021540Y0071764D03*
X0021540Y0071814D03*
X0021590Y0071914D03*
X0021590Y0071964D03*
X0021590Y0072014D03*
X0021640Y0072064D03*
X0021640Y0072114D03*
X0021240Y0070614D03*
X0021240Y0070564D03*
X0021190Y0070414D03*
X0021190Y0070364D03*
X0021140Y0070214D03*
X0021140Y0070164D03*
X0021090Y0070014D03*
X0021090Y0069964D03*
X0021040Y0069814D03*
X0021040Y0069764D03*
X0020990Y0069614D03*
X0020990Y0069564D03*
X0020940Y0069414D03*
X0020940Y0069364D03*
X0020890Y0069214D03*
X0020890Y0069164D03*
X0020840Y0069014D03*
X0020840Y0068964D03*
X0020790Y0068814D03*
X0020790Y0068764D03*
X0020740Y0068614D03*
X0020740Y0068564D03*
X0020690Y0068414D03*
X0020690Y0068364D03*
X0020640Y0068214D03*
X0020640Y0068164D03*
X0020590Y0068014D03*
X0020590Y0067964D03*
X0020540Y0067814D03*
X0020540Y0067764D03*
X0020490Y0067614D03*
X0020490Y0067564D03*
X0020440Y0067414D03*
X0020440Y0067364D03*
X0020390Y0067214D03*
X0020390Y0067164D03*
X0020340Y0067014D03*
X0020340Y0066964D03*
X0020290Y0066814D03*
X0020290Y0066764D03*
X0016340Y0067764D03*
X0016340Y0067814D03*
X0016390Y0067964D03*
X0016390Y0068014D03*
X0016440Y0068164D03*
X0016440Y0068214D03*
X0016490Y0068364D03*
X0016490Y0068414D03*
X0016540Y0068564D03*
X0016540Y0068614D03*
X0016590Y0068764D03*
X0016590Y0068814D03*
X0016640Y0068964D03*
X0016640Y0069014D03*
X0016690Y0069164D03*
X0016690Y0069214D03*
X0016740Y0069364D03*
X0016740Y0069414D03*
X0016790Y0069564D03*
X0016790Y0069614D03*
X0016840Y0069764D03*
X0016840Y0069814D03*
X0016890Y0069964D03*
X0016890Y0070014D03*
X0016940Y0070164D03*
X0016940Y0070214D03*
X0016990Y0070364D03*
X0016990Y0070414D03*
X0017040Y0070564D03*
X0017040Y0070614D03*
X0017090Y0070764D03*
X0017090Y0070814D03*
X0017140Y0070964D03*
X0017140Y0071014D03*
X0017190Y0071164D03*
X0017190Y0071214D03*
X0017240Y0071364D03*
X0017240Y0071414D03*
X0017290Y0071564D03*
X0017290Y0071614D03*
X0017340Y0071764D03*
X0017340Y0071814D03*
X0017390Y0071964D03*
X0017390Y0072014D03*
X0017440Y0072164D03*
X0017440Y0072214D03*
X0017490Y0072364D03*
X0017490Y0072414D03*
X0017540Y0072564D03*
X0017540Y0072614D03*
X0017590Y0072764D03*
X0017590Y0072814D03*
X0017640Y0072964D03*
X0017640Y0073014D03*
X0017690Y0073164D03*
X0017690Y0073214D03*
X0017740Y0073364D03*
X0017740Y0073414D03*
X0017790Y0073564D03*
X0017790Y0073614D03*
X0017840Y0073764D03*
X0017840Y0073814D03*
X0017890Y0073964D03*
X0017890Y0074014D03*
X0017940Y0074164D03*
X0017940Y0074214D03*
X0017990Y0074364D03*
X0017990Y0074414D03*
X0018040Y0074564D03*
X0018040Y0074614D03*
X0018090Y0074764D03*
X0018090Y0074814D03*
X0018140Y0074964D03*
X0018140Y0075014D03*
X0018190Y0075164D03*
X0018190Y0075214D03*
X0018240Y0075364D03*
X0018240Y0075414D03*
X0018290Y0075564D03*
X0018290Y0075614D03*
X0018490Y0076414D03*
X0018490Y0076464D03*
X0018540Y0076614D03*
X0018540Y0076664D03*
X0018590Y0076814D03*
X0018590Y0076864D03*
X0018640Y0077014D03*
X0018640Y0077064D03*
X0018690Y0077214D03*
X0018690Y0077264D03*
X0018740Y0077414D03*
X0018740Y0077464D03*
X0018790Y0077614D03*
X0018790Y0077664D03*
X0018840Y0077814D03*
X0018840Y0077864D03*
X0018890Y0078064D03*
X0018940Y0078264D03*
X0018990Y0078464D03*
X0019040Y0078664D03*
X0016290Y0067614D03*
X0016290Y0067564D03*
X0016240Y0067414D03*
X0016240Y0067364D03*
X0016190Y0067214D03*
X0016190Y0067164D03*
X0016140Y0067014D03*
X0016140Y0066964D03*
X0016090Y0066814D03*
X0016090Y0066764D03*
D23*
X0016065Y0066714D03*
X0016115Y0066864D03*
X0016115Y0066914D03*
X0016165Y0067064D03*
X0016165Y0067114D03*
X0016215Y0067264D03*
X0016215Y0067314D03*
X0016265Y0067464D03*
X0016265Y0067514D03*
X0016315Y0067664D03*
X0016315Y0067714D03*
X0016365Y0067864D03*
X0016365Y0067914D03*
X0016415Y0068064D03*
X0016415Y0068114D03*
X0016465Y0068264D03*
X0016465Y0068314D03*
X0016515Y0068464D03*
X0016515Y0068514D03*
X0016565Y0068664D03*
X0016565Y0068714D03*
X0016615Y0068864D03*
X0016615Y0068914D03*
X0016665Y0069064D03*
X0016665Y0069114D03*
X0016715Y0069264D03*
X0016715Y0069314D03*
X0016765Y0069464D03*
X0016765Y0069514D03*
X0016815Y0069664D03*
X0016815Y0069714D03*
X0016865Y0069864D03*
X0016865Y0069914D03*
X0016915Y0070064D03*
X0016915Y0070114D03*
X0016965Y0070264D03*
X0016965Y0070314D03*
X0017015Y0070464D03*
X0017015Y0070514D03*
X0017065Y0070664D03*
X0017065Y0070714D03*
X0017115Y0070864D03*
X0017115Y0070914D03*
X0017165Y0071064D03*
X0017165Y0071114D03*
X0017215Y0071264D03*
X0017215Y0071314D03*
X0017265Y0071464D03*
X0017265Y0071514D03*
X0017315Y0071664D03*
X0017315Y0071714D03*
X0017365Y0071864D03*
X0017365Y0071914D03*
X0017415Y0072064D03*
X0017415Y0072114D03*
X0017465Y0072264D03*
X0017465Y0072314D03*
X0017515Y0072464D03*
X0017515Y0072514D03*
X0017565Y0072664D03*
X0017565Y0072714D03*
X0017615Y0072864D03*
X0017615Y0072914D03*
X0017665Y0073064D03*
X0017665Y0073114D03*
X0017715Y0073264D03*
X0017715Y0073314D03*
X0017765Y0073464D03*
X0017765Y0073514D03*
X0017815Y0073664D03*
X0017815Y0073714D03*
X0017865Y0073864D03*
X0017865Y0073914D03*
X0017915Y0074064D03*
X0017915Y0074114D03*
X0017965Y0074264D03*
X0017965Y0074314D03*
X0018015Y0074464D03*
X0018015Y0074514D03*
X0018065Y0074664D03*
X0018065Y0074714D03*
X0018115Y0074864D03*
X0018115Y0074914D03*
X0018165Y0075064D03*
X0018165Y0075114D03*
X0018215Y0075264D03*
X0018215Y0075314D03*
X0018265Y0075464D03*
X0018265Y0075514D03*
X0018315Y0075664D03*
X0018515Y0076514D03*
X0018515Y0076564D03*
X0018565Y0076714D03*
X0018565Y0076764D03*
X0018615Y0076914D03*
X0018615Y0076964D03*
X0018665Y0077114D03*
X0018665Y0077164D03*
X0018715Y0077314D03*
X0018715Y0077364D03*
X0018765Y0077514D03*
X0018765Y0077564D03*
X0018815Y0077714D03*
X0018815Y0077764D03*
X0018865Y0077914D03*
X0018865Y0077964D03*
X0018865Y0078014D03*
X0018915Y0078114D03*
X0018915Y0078164D03*
X0018915Y0078214D03*
X0018965Y0078314D03*
X0018965Y0078364D03*
X0018965Y0078414D03*
X0019015Y0078514D03*
X0019015Y0078564D03*
X0019015Y0078614D03*
X0021565Y0071864D03*
X0021515Y0071714D03*
X0021515Y0071664D03*
X0021465Y0071514D03*
X0021465Y0071464D03*
X0021415Y0071314D03*
X0021415Y0071264D03*
X0021365Y0071114D03*
X0021365Y0071064D03*
X0021315Y0070914D03*
X0021315Y0070864D03*
X0021265Y0070714D03*
X0021265Y0070664D03*
X0021215Y0070514D03*
X0021215Y0070464D03*
X0021165Y0070314D03*
X0021165Y0070264D03*
X0021115Y0070114D03*
X0021115Y0070064D03*
X0021065Y0069914D03*
X0021065Y0069864D03*
X0021015Y0069714D03*
X0021015Y0069664D03*
X0020965Y0069514D03*
X0020965Y0069464D03*
X0020915Y0069314D03*
X0020915Y0069264D03*
X0020865Y0069114D03*
X0020865Y0069064D03*
X0020815Y0068914D03*
X0020815Y0068864D03*
X0020765Y0068714D03*
X0020765Y0068664D03*
X0020715Y0068514D03*
X0020715Y0068464D03*
X0020665Y0068314D03*
X0020665Y0068264D03*
X0020615Y0068114D03*
X0020615Y0068064D03*
X0020565Y0067914D03*
X0020565Y0067864D03*
X0020515Y0067714D03*
X0020515Y0067664D03*
X0020465Y0067514D03*
X0020465Y0067464D03*
X0020415Y0067314D03*
X0020415Y0067264D03*
X0020365Y0067114D03*
X0020365Y0067064D03*
X0020315Y0066914D03*
X0020315Y0066864D03*
X0020265Y0066714D03*
X0026765Y0068464D03*
X0026815Y0069864D03*
X0026815Y0069914D03*
X0026815Y0069964D03*
X0026865Y0070064D03*
X0026865Y0070114D03*
X0026865Y0070164D03*
X0026865Y0070214D03*
X0026915Y0070314D03*
X0026915Y0070364D03*
X0026915Y0070414D03*
X0026965Y0070564D03*
X0026965Y0070614D03*
X0027465Y0072464D03*
X0028165Y0073914D03*
X0028215Y0073964D03*
X0044015Y0069914D03*
X0044015Y0069864D03*
X0043965Y0069714D03*
X0043965Y0069664D03*
X0043915Y0069514D03*
X0043915Y0069464D03*
X0043865Y0069314D03*
X0043865Y0069264D03*
X0043815Y0069114D03*
X0043815Y0069064D03*
X0043765Y0068914D03*
X0043765Y0068864D03*
X0043715Y0068714D03*
X0043715Y0068664D03*
X0043665Y0068514D03*
X0043665Y0068464D03*
X0043615Y0068314D03*
X0043615Y0068264D03*
X0043565Y0068114D03*
X0043565Y0068064D03*
X0043515Y0067914D03*
X0043515Y0067864D03*
X0043465Y0067714D03*
X0043465Y0067664D03*
X0043415Y0067514D03*
X0043415Y0067464D03*
X0043365Y0067314D03*
X0043365Y0067264D03*
X0043315Y0067114D03*
X0043315Y0067064D03*
X0043265Y0066914D03*
X0043265Y0066864D03*
X0043215Y0066714D03*
X0044065Y0070064D03*
X0044065Y0070114D03*
X0044115Y0070264D03*
X0044115Y0070314D03*
X0044165Y0070464D03*
X0044165Y0070514D03*
X0044215Y0070664D03*
X0044215Y0070714D03*
X0044265Y0070864D03*
X0044265Y0070914D03*
X0044315Y0071064D03*
X0044315Y0071114D03*
X0044365Y0071264D03*
X0044365Y0071314D03*
X0044415Y0071464D03*
X0044415Y0071514D03*
X0044465Y0071664D03*
X0044465Y0071714D03*
X0044515Y0071864D03*
X0044515Y0071914D03*
X0044565Y0072064D03*
X0044565Y0072114D03*
X0044615Y0072264D03*
X0044615Y0072314D03*
X0044665Y0072464D03*
X0044665Y0072514D03*
X0044715Y0072664D03*
X0044715Y0072714D03*
X0044765Y0072864D03*
X0044765Y0072914D03*
X0044815Y0073064D03*
X0044815Y0073114D03*
X0044865Y0073264D03*
X0044865Y0073314D03*
X0044915Y0073464D03*
X0044915Y0073514D03*
X0044965Y0073664D03*
X0044965Y0073714D03*
X0045015Y0073864D03*
X0045015Y0073914D03*
X0045065Y0074064D03*
X0045065Y0074114D03*
X0045115Y0074264D03*
X0045115Y0074314D03*
X0045165Y0074464D03*
X0045165Y0074514D03*
X0045215Y0074664D03*
X0045215Y0074714D03*
X0045265Y0074864D03*
X0045265Y0074914D03*
X0045315Y0075064D03*
X0045315Y0075114D03*
X0045365Y0075264D03*
X0045365Y0075314D03*
X0045415Y0075464D03*
X0045415Y0075514D03*
X0045465Y0075664D03*
X0049165Y0073664D03*
X0049165Y0073614D03*
X0049115Y0073564D03*
X0049065Y0073464D03*
X0049015Y0073364D03*
X0048965Y0073264D03*
X0048915Y0073164D03*
X0048915Y0073114D03*
X0048865Y0073014D03*
X0048815Y0072914D03*
X0048815Y0072864D03*
X0048765Y0072764D03*
X0048765Y0072714D03*
X0048715Y0072664D03*
X0048715Y0072614D03*
X0048715Y0072564D03*
X0048665Y0072514D03*
X0048665Y0072464D03*
X0048665Y0072414D03*
X0048615Y0072364D03*
X0048615Y0072314D03*
X0048615Y0072264D03*
X0048565Y0072164D03*
X0048565Y0072114D03*
X0048515Y0072014D03*
X0048515Y0071964D03*
X0048465Y0071814D03*
X0048365Y0071464D03*
X0048215Y0070864D03*
X0048165Y0070664D03*
X0048115Y0070414D03*
X0048065Y0070214D03*
X0048065Y0070164D03*
X0048065Y0070114D03*
X0048015Y0069964D03*
X0048015Y0069914D03*
X0048015Y0069864D03*
X0048015Y0069814D03*
X0048015Y0069764D03*
X0048015Y0069714D03*
X0047965Y0069664D03*
X0047965Y0069614D03*
X0047965Y0069564D03*
X0047965Y0069514D03*
X0047965Y0069464D03*
X0047965Y0069414D03*
X0047965Y0069364D03*
X0047965Y0069314D03*
X0047965Y0069264D03*
X0047965Y0069214D03*
X0047965Y0069164D03*
X0047965Y0069114D03*
X0047965Y0069064D03*
X0047965Y0069014D03*
X0047965Y0068964D03*
X0047965Y0068914D03*
X0047965Y0068864D03*
X0049465Y0066664D03*
X0051965Y0068614D03*
X0052015Y0068664D03*
X0055815Y0067714D03*
X0055815Y0067664D03*
X0055765Y0067514D03*
X0055765Y0067464D03*
X0055715Y0067314D03*
X0055715Y0067264D03*
X0055665Y0067114D03*
X0055665Y0067064D03*
X0055615Y0066914D03*
X0055615Y0066864D03*
X0055565Y0066714D03*
X0055865Y0067864D03*
X0055865Y0067914D03*
X0055915Y0068064D03*
X0055915Y0068114D03*
X0055965Y0068264D03*
X0055965Y0068314D03*
X0056015Y0068464D03*
X0056015Y0068514D03*
X0056065Y0068664D03*
X0056065Y0068714D03*
X0056115Y0068864D03*
X0056115Y0068914D03*
X0056165Y0069064D03*
X0057065Y0072764D03*
X0057115Y0072914D03*
X0057115Y0072964D03*
X0057165Y0073114D03*
X0057165Y0073164D03*
X0057215Y0073314D03*
X0057215Y0073364D03*
X0057265Y0073514D03*
X0057265Y0073564D03*
X0057315Y0073714D03*
X0057315Y0073764D03*
X0057365Y0073914D03*
X0057365Y0073964D03*
X0057415Y0074114D03*
X0057415Y0074164D03*
X0057465Y0074314D03*
X0057465Y0074364D03*
X0057515Y0074514D03*
X0057515Y0074564D03*
X0057565Y0074714D03*
X0057565Y0074764D03*
X0057615Y0074914D03*
X0057615Y0074964D03*
X0057665Y0075114D03*
X0057665Y0075164D03*
X0057715Y0075314D03*
X0057715Y0075364D03*
X0057765Y0075514D03*
X0057765Y0075564D03*
X0057815Y0075714D03*
X0057815Y0075764D03*
X0057865Y0075914D03*
X0057865Y0075964D03*
X0057915Y0076114D03*
X0057915Y0076164D03*
X0057965Y0076314D03*
X0057965Y0076364D03*
X0058015Y0076514D03*
X0058015Y0076564D03*
X0058065Y0076714D03*
X0058065Y0076764D03*
X0058115Y0076914D03*
X0058115Y0076964D03*
X0058115Y0077014D03*
X0058165Y0077114D03*
X0058165Y0077164D03*
X0058165Y0077214D03*
X0058215Y0077314D03*
X0058215Y0077364D03*
X0058215Y0077414D03*
X0058265Y0077514D03*
X0058265Y0077564D03*
X0058265Y0077614D03*
X0058315Y0077714D03*
X0058315Y0077764D03*
X0058315Y0077814D03*
X0058365Y0077914D03*
X0058365Y0077964D03*
X0058365Y0078014D03*
X0058415Y0078114D03*
X0058415Y0078164D03*
X0058415Y0078214D03*
X0058465Y0078314D03*
X0058465Y0078364D03*
X0058465Y0078414D03*
X0058515Y0078514D03*
X0058515Y0078564D03*
X0058515Y0078614D03*
X0060765Y0073564D03*
X0060715Y0073514D03*
X0060665Y0073464D03*
X0060615Y0073414D03*
X0060565Y0073364D03*
X0060515Y0073264D03*
X0060465Y0073214D03*
X0060415Y0073164D03*
X0060365Y0073114D03*
X0060315Y0073064D03*
X0053315Y0074064D03*
X0049215Y0073714D03*
D24*
X0049515Y0074064D03*
X0052015Y0075914D03*
X0051815Y0068514D03*
X0048065Y0068564D03*
X0056315Y0069314D03*
X0056315Y0069364D03*
X0059865Y0069714D03*
X0059865Y0069764D03*
X0059915Y0069664D03*
X0059915Y0069614D03*
X0059915Y0069564D03*
X0059915Y0069514D03*
X0059965Y0069464D03*
X0059965Y0069414D03*
X0059965Y0069364D03*
X0059965Y0069314D03*
X0060015Y0069264D03*
X0060015Y0069214D03*
X0060015Y0069164D03*
X0060065Y0069064D03*
X0060065Y0069014D03*
X0060065Y0068964D03*
X0060115Y0068814D03*
X0060165Y0068614D03*
X0060215Y0068414D03*
X0062015Y0075014D03*
X0062065Y0075064D03*
X0062115Y0075114D03*
X0062165Y0075164D03*
X0062215Y0075214D03*
X0062365Y0075414D03*
X0062415Y0075464D03*
X0062465Y0075514D03*
X0036915Y0076364D03*
X0036865Y0076264D03*
X0036865Y0076214D03*
X0036865Y0076164D03*
X0036815Y0076064D03*
X0036815Y0076014D03*
X0036815Y0075964D03*
X0036765Y0075864D03*
X0036765Y0075814D03*
X0036765Y0075764D03*
X0036715Y0075664D03*
X0036715Y0075614D03*
X0036715Y0075564D03*
X0036665Y0075464D03*
X0036665Y0075414D03*
X0036665Y0075364D03*
X0036615Y0075264D03*
X0036615Y0075214D03*
X0036615Y0075164D03*
X0036565Y0075064D03*
X0036565Y0075014D03*
X0036565Y0074964D03*
X0036515Y0074864D03*
X0036515Y0074814D03*
X0036515Y0074764D03*
X0036465Y0074664D03*
X0036465Y0074614D03*
X0036465Y0074564D03*
X0036415Y0074464D03*
X0036415Y0074414D03*
X0036415Y0074364D03*
X0036365Y0074264D03*
X0036365Y0074214D03*
X0036365Y0074164D03*
X0036315Y0074014D03*
X0036315Y0073964D03*
X0036265Y0073814D03*
X0036265Y0073764D03*
X0036265Y0073714D03*
X0036215Y0073614D03*
X0035615Y0071264D03*
X0035615Y0071214D03*
X0035615Y0071164D03*
X0035565Y0071064D03*
X0035565Y0071014D03*
X0035565Y0070964D03*
X0035515Y0070864D03*
X0035515Y0070814D03*
X0035515Y0070764D03*
X0035465Y0070664D03*
X0035465Y0070614D03*
X0035465Y0070564D03*
X0035415Y0070464D03*
X0035415Y0070414D03*
X0035415Y0070364D03*
X0035415Y0070314D03*
X0035365Y0070264D03*
X0035365Y0070214D03*
X0035365Y0070164D03*
X0035365Y0070114D03*
X0035315Y0070064D03*
X0035315Y0070014D03*
X0035315Y0069964D03*
X0035315Y0069914D03*
X0035265Y0069864D03*
X0035265Y0069814D03*
X0035265Y0069764D03*
X0035265Y0069714D03*
X0035215Y0069664D03*
X0035215Y0069614D03*
X0035215Y0069564D03*
X0035215Y0069514D03*
X0035165Y0069464D03*
X0035165Y0069414D03*
X0035165Y0069364D03*
X0035165Y0069314D03*
X0035115Y0069264D03*
X0035115Y0069214D03*
X0035115Y0069164D03*
X0035115Y0069114D03*
X0035065Y0069014D03*
X0035065Y0068964D03*
X0035065Y0068914D03*
X0035015Y0068814D03*
X0035015Y0068764D03*
X0035015Y0068714D03*
X0034965Y0068614D03*
X0034965Y0068564D03*
X0034965Y0068514D03*
X0034915Y0068414D03*
X0034915Y0068364D03*
X0034915Y0068314D03*
X0034865Y0068214D03*
X0034865Y0068164D03*
X0034865Y0068114D03*
X0034815Y0068014D03*
X0034815Y0067964D03*
X0034815Y0067914D03*
X0034765Y0067814D03*
X0034765Y0067764D03*
X0034765Y0067714D03*
X0034715Y0067614D03*
X0034715Y0067564D03*
X0034715Y0067514D03*
X0034715Y0067464D03*
X0034665Y0067414D03*
X0034665Y0067364D03*
X0034665Y0067314D03*
X0034665Y0067264D03*
X0034615Y0067214D03*
X0034615Y0067164D03*
X0034615Y0067114D03*
X0034615Y0067064D03*
X0034565Y0067014D03*
X0034565Y0066964D03*
X0034565Y0066914D03*
X0034565Y0066864D03*
X0034515Y0066814D03*
X0034515Y0066764D03*
X0034515Y0066714D03*
X0030415Y0068314D03*
X0026915Y0068314D03*
X0028365Y0074064D03*
X0021815Y0072464D03*
X0021765Y0072414D03*
X0010565Y0075114D03*
X0010565Y0075164D03*
X0010565Y0075214D03*
X0010615Y0075314D03*
X0010615Y0075364D03*
X0010615Y0075414D03*
X0010665Y0075514D03*
X0010665Y0075564D03*
X0010665Y0075614D03*
X0010715Y0075714D03*
X0010715Y0075764D03*
X0010715Y0075814D03*
X0010715Y0075864D03*
X0010765Y0075914D03*
X0010765Y0075964D03*
X0010765Y0076014D03*
X0010765Y0076064D03*
X0010815Y0076114D03*
X0010815Y0076164D03*
X0010515Y0075014D03*
X0010515Y0074964D03*
X0010515Y0074914D03*
X0010465Y0074814D03*
X0010465Y0074764D03*
X0010465Y0074714D03*
X0010415Y0074614D03*
X0010415Y0074564D03*
X0010415Y0074514D03*
X0010365Y0074414D03*
X0010365Y0074364D03*
X0010365Y0074314D03*
X0010315Y0074214D03*
X0010315Y0074164D03*
X0010315Y0074114D03*
X0009665Y0071614D03*
X0009665Y0071564D03*
X0009665Y0071514D03*
X0009615Y0071414D03*
X0009615Y0071364D03*
X0009615Y0071314D03*
X0009565Y0071214D03*
X0009565Y0071164D03*
X0009565Y0071114D03*
X0009515Y0071014D03*
X0009515Y0070964D03*
X0009515Y0070914D03*
X0009465Y0070814D03*
X0009465Y0070764D03*
X0009465Y0070714D03*
X0009415Y0070614D03*
X0009415Y0070564D03*
X0009415Y0070514D03*
X0009365Y0070414D03*
X0009365Y0070364D03*
X0009365Y0070314D03*
X0009315Y0070214D03*
X0009315Y0070164D03*
X0009315Y0070114D03*
X0009265Y0070014D03*
X0009265Y0069964D03*
X0009265Y0069914D03*
X0009215Y0069814D03*
X0009215Y0069764D03*
X0009215Y0069714D03*
X0009165Y0069614D03*
X0009165Y0069564D03*
X0009165Y0069514D03*
X0009165Y0069464D03*
X0009115Y0069414D03*
X0009115Y0069364D03*
X0009115Y0069314D03*
X0009115Y0069264D03*
X0009065Y0069214D03*
X0009065Y0069164D03*
X0009065Y0069114D03*
X0009065Y0069064D03*
X0009015Y0069014D03*
X0009015Y0068964D03*
X0009015Y0068914D03*
X0009015Y0068864D03*
X0008965Y0068814D03*
X0008965Y0068764D03*
X0008965Y0068714D03*
X0008965Y0068664D03*
X0008915Y0068614D03*
X0008915Y0068564D03*
X0008915Y0068514D03*
X0008915Y0068464D03*
X0008865Y0068414D03*
X0008865Y0068364D03*
X0008865Y0068314D03*
X0008865Y0068264D03*
X0008815Y0068214D03*
X0008815Y0068164D03*
X0008815Y0068114D03*
X0008815Y0068064D03*
X0008765Y0068014D03*
X0008765Y0067964D03*
X0008765Y0067914D03*
X0008765Y0067864D03*
X0008715Y0067814D03*
X0008715Y0067764D03*
X0008715Y0067714D03*
X0008715Y0067664D03*
X0008665Y0067614D03*
X0008665Y0067564D03*
X0008665Y0067514D03*
X0008665Y0067464D03*
X0008615Y0067414D03*
X0008615Y0067364D03*
X0008615Y0067314D03*
X0008615Y0067264D03*
X0008565Y0067214D03*
X0008565Y0067164D03*
X0008565Y0067114D03*
X0008565Y0067064D03*
X0008515Y0067014D03*
X0008515Y0066964D03*
X0008515Y0066914D03*
X0008515Y0066864D03*
X0008465Y0066814D03*
X0008465Y0066764D03*
X0008465Y0066714D03*
D25*
X0021965Y0072714D03*
X0028265Y0066714D03*
X0041165Y0074064D03*
X0041215Y0074114D03*
X0041265Y0074214D03*
X0041565Y0076064D03*
X0041565Y0076114D03*
X0056465Y0069614D03*
X0056515Y0069714D03*
D26*
X0056490Y0069664D03*
X0056440Y0069564D03*
X0049490Y0066714D03*
X0048140Y0068514D03*
X0041240Y0074164D03*
X0041290Y0074264D03*
X0041340Y0074364D03*
X0041640Y0075764D03*
X0041640Y0075814D03*
X0041640Y0075864D03*
X0041640Y0075914D03*
X0041590Y0075964D03*
X0041590Y0076014D03*
X0030590Y0075714D03*
X0021940Y0072664D03*
X0021890Y0072614D03*
D27*
X0021865Y0072564D03*
X0041315Y0074314D03*
X0041365Y0074414D03*
X0041365Y0074464D03*
X0041415Y0074514D03*
X0041415Y0074564D03*
X0041465Y0074664D03*
X0041665Y0075664D03*
X0041665Y0075714D03*
X0053165Y0074164D03*
X0056415Y0069514D03*
X0060365Y0067864D03*
X0060415Y0067664D03*
X0060465Y0067514D03*
X0060465Y0067464D03*
X0060465Y0067414D03*
X0060515Y0067314D03*
X0060515Y0067264D03*
X0060515Y0067214D03*
X0060565Y0067114D03*
X0060565Y0067064D03*
X0060565Y0067014D03*
X0060615Y0066964D03*
X0060615Y0066914D03*
X0060615Y0066864D03*
X0060615Y0066814D03*
X0060665Y0066764D03*
X0060665Y0066714D03*
D28*
X0040915Y0073764D03*
X0041465Y0076314D03*
X0028265Y0066764D03*
X0022165Y0072914D03*
D29*
X0022115Y0072864D03*
X0030565Y0075664D03*
X0040965Y0073814D03*
X0041015Y0073864D03*
X0041515Y0076264D03*
X0049515Y0066764D03*
D30*
X0040690Y0073614D03*
X0028290Y0066814D03*
D31*
X0022240Y0072964D03*
X0030540Y0075614D03*
X0040790Y0073664D03*
X0041390Y0076364D03*
X0049540Y0066814D03*
D32*
X0028290Y0066864D03*
D33*
X0022340Y0073014D03*
X0030540Y0075564D03*
X0049540Y0066864D03*
X0051940Y0075764D03*
D34*
X0049565Y0066914D03*
X0030515Y0075514D03*
X0028315Y0066914D03*
D35*
X0028315Y0066964D03*
D36*
X0030490Y0075464D03*
X0049590Y0066964D03*
X0051890Y0075664D03*
D37*
X0049590Y0067014D03*
X0028340Y0067014D03*
X0022690Y0073114D03*
X0009250Y0051928D03*
X0009250Y0051878D03*
X0009250Y0051828D03*
X0009250Y0051778D03*
X0009250Y0051728D03*
X0009250Y0051678D03*
X0009250Y0051628D03*
X0009250Y0051578D03*
X0009250Y0051528D03*
X0009250Y0051478D03*
X0009250Y0051428D03*
X0009250Y0051378D03*
X0009250Y0051328D03*
X0009250Y0051278D03*
X0009250Y0051228D03*
X0009250Y0051178D03*
X0009250Y0051128D03*
X0009250Y0051078D03*
X0009250Y0051028D03*
X0009250Y0050978D03*
X0009250Y0050928D03*
X0009250Y0050878D03*
X0009250Y0050828D03*
X0009250Y0050778D03*
X0009250Y0050728D03*
X0009250Y0050678D03*
X0009250Y0050628D03*
X0009250Y0050578D03*
X0009250Y0050528D03*
X0009250Y0050478D03*
X0009250Y0050428D03*
X0009250Y0050378D03*
X0009250Y0050328D03*
X0009250Y0050278D03*
X0009250Y0050228D03*
X0009250Y0050178D03*
X0009250Y0050128D03*
X0009250Y0050078D03*
X0009250Y0050028D03*
X0009250Y0049978D03*
X0009250Y0049928D03*
X0009250Y0049878D03*
X0009250Y0049828D03*
X0009250Y0049778D03*
X0009250Y0049728D03*
X0009250Y0049678D03*
X0009250Y0049628D03*
X0009250Y0049578D03*
X0009250Y0049528D03*
X0009250Y0049478D03*
X0009250Y0049428D03*
X0009250Y0049378D03*
X0009250Y0049328D03*
X0009250Y0049278D03*
X0009250Y0049228D03*
X0009250Y0049178D03*
X0009250Y0049128D03*
X0009250Y0049078D03*
X0009250Y0049028D03*
X0009250Y0048978D03*
X0009250Y0048928D03*
X0009250Y0048878D03*
X0009250Y0048828D03*
X0009250Y0048778D03*
X0009250Y0048728D03*
X0009250Y0048678D03*
X0009250Y0048628D03*
X0009250Y0048578D03*
X0009250Y0048528D03*
X0009250Y0048478D03*
X0009250Y0048428D03*
X0009250Y0048378D03*
X0009250Y0048328D03*
X0009250Y0048278D03*
X0009250Y0048228D03*
X0009250Y0048178D03*
X0009250Y0048128D03*
X0009250Y0048078D03*
X0009250Y0048028D03*
X0009250Y0047978D03*
X0009250Y0047928D03*
X0009250Y0047878D03*
X0009250Y0047828D03*
X0009250Y0047778D03*
X0009250Y0047728D03*
X0009250Y0047678D03*
X0009250Y0047628D03*
X0009250Y0047578D03*
X0009250Y0047528D03*
X0009250Y0047478D03*
X0009250Y0047428D03*
X0009250Y0047378D03*
X0009250Y0047328D03*
X0009250Y0047278D03*
X0009250Y0047228D03*
X0009250Y0047178D03*
X0009250Y0047128D03*
X0009250Y0047078D03*
X0009250Y0047028D03*
X0009250Y0046978D03*
X0009250Y0046928D03*
X0009250Y0046878D03*
X0009250Y0046828D03*
X0009250Y0046778D03*
X0009250Y0046728D03*
X0009250Y0046678D03*
X0009250Y0046628D03*
X0009250Y0046578D03*
X0009250Y0046528D03*
X0009250Y0046478D03*
X0009250Y0046428D03*
X0009250Y0046378D03*
X0009250Y0046328D03*
X0009250Y0046278D03*
X0009250Y0046228D03*
X0009250Y0046178D03*
X0009250Y0046128D03*
X0009250Y0046078D03*
X0009250Y0046028D03*
X0009250Y0045978D03*
X0009250Y0045928D03*
X0009250Y0045878D03*
X0009250Y0045828D03*
X0009250Y0045778D03*
X0009250Y0045728D03*
X0009250Y0045678D03*
X0009250Y0045628D03*
X0009250Y0045578D03*
X0009250Y0045528D03*
X0009250Y0045478D03*
X0009250Y0045428D03*
X0009250Y0045378D03*
X0009250Y0045328D03*
X0009250Y0045278D03*
X0009250Y0045228D03*
X0009250Y0045178D03*
X0009250Y0045128D03*
X0009250Y0045078D03*
X0009250Y0045028D03*
X0009250Y0044978D03*
X0009250Y0044928D03*
X0009250Y0044878D03*
X0009250Y0044828D03*
X0009250Y0044778D03*
X0009250Y0044728D03*
X0009250Y0044678D03*
X0009250Y0044628D03*
X0009250Y0044578D03*
X0009250Y0044528D03*
X0009250Y0044478D03*
X0009250Y0044428D03*
X0009250Y0044378D03*
X0009250Y0044328D03*
X0009250Y0044278D03*
X0009250Y0044228D03*
X0009250Y0044178D03*
X0009250Y0044128D03*
X0009250Y0044078D03*
X0009250Y0044028D03*
X0009250Y0043978D03*
X0009250Y0043928D03*
X0009250Y0043878D03*
X0009250Y0043828D03*
X0009250Y0043778D03*
X0009250Y0043728D03*
X0009250Y0043678D03*
X0009250Y0043628D03*
X0009250Y0043578D03*
X0009250Y0043528D03*
X0009250Y0043478D03*
X0009250Y0043428D03*
X0009250Y0043378D03*
X0009250Y0043328D03*
X0009250Y0043278D03*
X0009250Y0043228D03*
X0009250Y0043178D03*
X0009250Y0043128D03*
X0009250Y0043078D03*
X0009250Y0043028D03*
X0009250Y0042978D03*
X0009250Y0042928D03*
X0009250Y0042878D03*
X0009250Y0042828D03*
X0009250Y0042778D03*
X0009250Y0042728D03*
X0009250Y0042678D03*
X0009250Y0042628D03*
X0009250Y0042578D03*
X0009250Y0042528D03*
X0009250Y0042478D03*
X0009250Y0042428D03*
X0009250Y0042378D03*
X0009250Y0042328D03*
X0009250Y0042278D03*
X0009250Y0042228D03*
X0009250Y0042178D03*
X0009250Y0042128D03*
X0009250Y0042078D03*
X0009250Y0042028D03*
X0009250Y0041978D03*
X0009250Y0041928D03*
X0009250Y0041878D03*
X0009250Y0041828D03*
X0009250Y0041778D03*
X0009250Y0041728D03*
X0009250Y0041678D03*
X0009250Y0041628D03*
X0009250Y0041578D03*
X0009250Y0041528D03*
X0009250Y0041478D03*
X0009250Y0041428D03*
X0009250Y0041378D03*
X0009250Y0041328D03*
X0009250Y0041278D03*
X0009250Y0041228D03*
X0009250Y0041178D03*
X0009250Y0041128D03*
X0009250Y0041078D03*
X0009250Y0041028D03*
X0009250Y0040978D03*
X0009250Y0040928D03*
X0009250Y0040878D03*
X0009250Y0040828D03*
X0009250Y0040778D03*
X0009250Y0040728D03*
X0009250Y0040678D03*
X0009250Y0040628D03*
X0009250Y0040578D03*
X0009250Y0040528D03*
X0009250Y0040478D03*
X0009250Y0040428D03*
X0009250Y0040378D03*
X0009250Y0040328D03*
X0009250Y0040278D03*
X0009250Y0040228D03*
X0009250Y0040178D03*
X0009250Y0040128D03*
X0009250Y0040078D03*
X0009250Y0040028D03*
X0009250Y0039978D03*
X0009250Y0039928D03*
X0009250Y0039878D03*
X0009250Y0039828D03*
X0009250Y0039778D03*
X0009250Y0039728D03*
X0009250Y0039678D03*
X0009250Y0039628D03*
X0009250Y0039578D03*
X0009250Y0039528D03*
X0009250Y0039478D03*
X0009250Y0039428D03*
X0009250Y0039378D03*
X0009250Y0039328D03*
X0009250Y0039278D03*
X0009250Y0039228D03*
X0009250Y0039178D03*
X0009250Y0039128D03*
X0009250Y0039078D03*
X0009250Y0039028D03*
X0009250Y0038978D03*
X0009250Y0038928D03*
X0009250Y0038878D03*
X0009250Y0038828D03*
X0009250Y0038778D03*
X0009250Y0038728D03*
X0009250Y0038678D03*
X0009250Y0038628D03*
X0009250Y0038578D03*
X0009250Y0038528D03*
X0009250Y0038478D03*
X0009250Y0038428D03*
D38*
X0028365Y0067064D03*
X0049615Y0067064D03*
X0051865Y0075564D03*
D39*
X0051840Y0075514D03*
X0049640Y0067114D03*
X0036540Y0071314D03*
X0028340Y0067114D03*
D40*
X0028365Y0067164D03*
D41*
X0049640Y0067164D03*
X0051840Y0075464D03*
D42*
X0049590Y0074114D03*
X0056340Y0069414D03*
X0056390Y0069464D03*
X0060040Y0069114D03*
X0060090Y0068914D03*
X0060090Y0068864D03*
X0060140Y0068764D03*
X0060140Y0068714D03*
X0060140Y0068664D03*
X0060190Y0068564D03*
X0060190Y0068514D03*
X0060190Y0068464D03*
X0060240Y0068364D03*
X0060240Y0068314D03*
X0060240Y0068264D03*
X0060290Y0068214D03*
X0060290Y0068164D03*
X0060290Y0068114D03*
X0060290Y0068064D03*
X0060340Y0068014D03*
X0060340Y0067964D03*
X0060340Y0067914D03*
X0060390Y0067814D03*
X0060390Y0067764D03*
X0060390Y0067714D03*
X0060440Y0067614D03*
X0060440Y0067564D03*
X0060490Y0067364D03*
X0060540Y0067164D03*
X0062240Y0075264D03*
X0062290Y0075314D03*
X0062340Y0075364D03*
X0062490Y0075564D03*
X0062540Y0075614D03*
X0062590Y0075664D03*
X0041640Y0075614D03*
X0041640Y0075564D03*
X0041640Y0075514D03*
X0041640Y0075464D03*
X0041640Y0075414D03*
X0041640Y0075364D03*
X0041640Y0075314D03*
X0041590Y0075264D03*
X0041590Y0075214D03*
X0041590Y0075164D03*
X0041590Y0075114D03*
X0041590Y0075064D03*
X0041540Y0075014D03*
X0041540Y0074964D03*
X0041540Y0074914D03*
X0041540Y0074864D03*
X0041490Y0074814D03*
X0041490Y0074764D03*
X0041490Y0074714D03*
X0041440Y0074614D03*
X0036740Y0075714D03*
X0036790Y0075914D03*
X0036840Y0076114D03*
X0036890Y0076314D03*
X0036690Y0075514D03*
X0036640Y0075314D03*
X0036590Y0075114D03*
X0036540Y0074914D03*
X0036490Y0074714D03*
X0036440Y0074514D03*
X0036390Y0074314D03*
X0036340Y0074114D03*
X0036340Y0074064D03*
X0036290Y0073914D03*
X0036290Y0073864D03*
X0036240Y0073664D03*
X0021840Y0072514D03*
X0010590Y0075264D03*
X0010640Y0075464D03*
X0010690Y0075664D03*
X0010540Y0075064D03*
X0010490Y0074864D03*
X0010440Y0074664D03*
X0010390Y0074464D03*
X0010340Y0074264D03*
X0010290Y0074064D03*
X0009640Y0071464D03*
X0009590Y0071264D03*
X0009540Y0071064D03*
X0009490Y0070864D03*
X0009440Y0070664D03*
X0009390Y0070464D03*
X0009340Y0070264D03*
X0009290Y0070064D03*
X0009240Y0069864D03*
X0009190Y0069664D03*
D43*
X0028365Y0067214D03*
X0030415Y0075164D03*
X0049665Y0067214D03*
X0051815Y0075414D03*
D44*
X0051765Y0075364D03*
X0049665Y0067264D03*
X0030415Y0075114D03*
X0028415Y0067264D03*
D45*
X0028415Y0067314D03*
X0049665Y0067314D03*
X0051765Y0075314D03*
D46*
X0051765Y0075264D03*
X0058115Y0072064D03*
X0058165Y0072114D03*
X0058115Y0071964D03*
X0058115Y0071914D03*
X0030365Y0075014D03*
X0023415Y0074314D03*
X0023415Y0074264D03*
X0023365Y0074064D03*
X0023315Y0073864D03*
X0023265Y0073664D03*
X0023215Y0073464D03*
X0023165Y0073264D03*
X0028415Y0067364D03*
D47*
X0023140Y0073164D03*
X0023140Y0073214D03*
X0023190Y0073314D03*
X0023190Y0073364D03*
X0023190Y0073414D03*
X0023240Y0073514D03*
X0023240Y0073564D03*
X0023240Y0073614D03*
X0023290Y0073714D03*
X0023290Y0073764D03*
X0023290Y0073814D03*
X0023340Y0073914D03*
X0023340Y0073964D03*
X0023340Y0074014D03*
X0023390Y0074114D03*
X0023390Y0074164D03*
X0023390Y0074214D03*
X0023440Y0074364D03*
X0023440Y0074414D03*
X0049690Y0067364D03*
X0058090Y0071864D03*
X0058190Y0072164D03*
D48*
X0058240Y0072264D03*
X0058290Y0072314D03*
X0058090Y0071664D03*
X0049690Y0067414D03*
X0028440Y0067414D03*
D49*
X0028465Y0067464D03*
X0030365Y0074914D03*
X0049715Y0067464D03*
X0051715Y0075164D03*
X0058315Y0072364D03*
X0058115Y0071614D03*
X0058115Y0071564D03*
X0058115Y0071514D03*
D50*
X0058115Y0071464D03*
X0058115Y0071414D03*
X0058115Y0071364D03*
X0058115Y0071314D03*
X0058365Y0072464D03*
X0058415Y0072514D03*
X0051715Y0075114D03*
X0049715Y0067514D03*
X0028465Y0067514D03*
D51*
X0028490Y0067564D03*
X0030340Y0074814D03*
X0036990Y0071464D03*
X0038790Y0078564D03*
X0051690Y0075064D03*
X0058440Y0072564D03*
X0049740Y0067564D03*
D52*
X0037090Y0071514D03*
X0030290Y0074714D03*
X0028490Y0067614D03*
D53*
X0028515Y0067664D03*
X0049765Y0067614D03*
X0058115Y0070964D03*
X0058115Y0071014D03*
X0058115Y0071064D03*
D54*
X0056290Y0069264D03*
X0056240Y0069214D03*
X0051890Y0068564D03*
X0049440Y0074014D03*
X0061540Y0074464D03*
X0061590Y0074514D03*
X0061640Y0074564D03*
X0061690Y0074614D03*
X0061740Y0074664D03*
X0061740Y0074714D03*
X0061790Y0074764D03*
X0061840Y0074814D03*
X0061890Y0074864D03*
X0061940Y0074914D03*
X0061990Y0074964D03*
X0035590Y0071114D03*
X0035540Y0070914D03*
X0035490Y0070714D03*
X0035440Y0070514D03*
X0035090Y0069064D03*
X0035040Y0068864D03*
X0034990Y0068664D03*
X0034940Y0068464D03*
X0034890Y0068264D03*
X0034840Y0068064D03*
X0034790Y0067864D03*
X0034740Y0067664D03*
X0021740Y0072314D03*
X0021740Y0072364D03*
D55*
X0028515Y0067714D03*
X0030265Y0074614D03*
X0049765Y0067714D03*
X0049765Y0067664D03*
X0051615Y0074914D03*
X0058115Y0070814D03*
X0058115Y0070764D03*
D56*
X0058140Y0070714D03*
X0058140Y0070664D03*
X0037190Y0071564D03*
X0028540Y0067764D03*
D57*
X0030265Y0074564D03*
X0038915Y0078464D03*
X0051615Y0074864D03*
X0058115Y0070614D03*
X0049765Y0067764D03*
D58*
X0049790Y0067814D03*
X0051590Y0074764D03*
X0051590Y0074814D03*
X0058140Y0070564D03*
X0058140Y0070514D03*
X0058140Y0070464D03*
X0030240Y0074514D03*
X0028540Y0067814D03*
D59*
X0028565Y0067864D03*
X0030215Y0074464D03*
X0037265Y0071614D03*
X0038965Y0078414D03*
X0049815Y0067864D03*
X0058115Y0070414D03*
D60*
X0058140Y0070364D03*
X0058140Y0070314D03*
X0058140Y0070264D03*
X0051590Y0074714D03*
X0030190Y0074414D03*
X0028590Y0067914D03*
D61*
X0028565Y0067964D03*
X0030215Y0074364D03*
X0037315Y0071664D03*
X0049815Y0067914D03*
X0051565Y0074664D03*
X0058115Y0070214D03*
D62*
X0058140Y0070164D03*
X0058140Y0070114D03*
X0058140Y0070064D03*
X0051540Y0074614D03*
X0049840Y0067964D03*
X0037390Y0071714D03*
X0039040Y0078364D03*
X0030190Y0074314D03*
X0028590Y0068014D03*
D63*
X0028615Y0068064D03*
X0030165Y0074264D03*
X0049865Y0068014D03*
X0051515Y0074564D03*
D64*
X0051490Y0074514D03*
X0058140Y0070014D03*
X0058140Y0069964D03*
X0058140Y0069914D03*
X0058140Y0069864D03*
X0049840Y0068064D03*
X0039040Y0078314D03*
X0030140Y0074214D03*
X0030140Y0074164D03*
X0028640Y0068114D03*
D65*
X0028615Y0068164D03*
X0030115Y0074114D03*
X0037465Y0071764D03*
X0049865Y0068114D03*
D66*
X0049890Y0068164D03*
X0051490Y0074414D03*
X0051490Y0074464D03*
X0058140Y0069814D03*
X0039090Y0078264D03*
X0028640Y0068214D03*
D67*
X0039140Y0078214D03*
X0049890Y0068264D03*
X0049890Y0068214D03*
X0051440Y0074264D03*
X0051440Y0074314D03*
D68*
X0051465Y0074364D03*
X0037515Y0071814D03*
X0028665Y0068264D03*
D69*
X0037565Y0071864D03*
X0037615Y0071914D03*
X0039165Y0078164D03*
X0049915Y0068364D03*
X0049915Y0068314D03*
X0051415Y0074214D03*
D70*
X0053340Y0074014D03*
X0049090Y0073514D03*
X0049040Y0073414D03*
X0048990Y0073314D03*
X0048940Y0073214D03*
X0048890Y0073064D03*
X0048840Y0072964D03*
X0048790Y0072814D03*
X0052090Y0068714D03*
X0060040Y0072764D03*
X0060090Y0072814D03*
X0060140Y0072864D03*
X0060190Y0072914D03*
X0060240Y0072964D03*
X0060290Y0073014D03*
X0031990Y0074014D03*
X0028140Y0073864D03*
X0028090Y0073814D03*
X0028040Y0073764D03*
X0027640Y0072964D03*
X0027590Y0072864D03*
X0027590Y0072814D03*
X0027540Y0072714D03*
X0027540Y0072664D03*
X0027490Y0072614D03*
X0027490Y0072564D03*
X0027490Y0072514D03*
X0027440Y0072414D03*
X0026840Y0070014D03*
X0026790Y0069814D03*
X0026790Y0069764D03*
X0026790Y0069714D03*
X0026790Y0069664D03*
X0026740Y0069564D03*
X0026740Y0069514D03*
X0026740Y0069464D03*
X0026740Y0068514D03*
X0030640Y0068414D03*
D71*
X0049940Y0068414D03*
X0012090Y0073914D03*
X0012090Y0073964D03*
X0012040Y0073764D03*
X0012040Y0073714D03*
X0011990Y0073564D03*
X0011990Y0073514D03*
X0011940Y0073364D03*
X0011940Y0073314D03*
X0011890Y0073164D03*
X0011890Y0073114D03*
X0011840Y0072964D03*
X0011840Y0072914D03*
X0011790Y0072764D03*
X0011790Y0072714D03*
X0011740Y0072564D03*
X0011740Y0072514D03*
X0011690Y0072364D03*
X0011690Y0072314D03*
X0011640Y0072164D03*
X0011640Y0072114D03*
X0011590Y0071964D03*
X0011590Y0071914D03*
X0011540Y0071764D03*
X0011540Y0071714D03*
D72*
X0022165Y0074464D03*
X0022165Y0074514D03*
X0022165Y0074564D03*
X0022165Y0074614D03*
X0022215Y0074664D03*
X0022215Y0074714D03*
X0022215Y0074764D03*
X0022215Y0074814D03*
X0022265Y0074864D03*
X0022265Y0074914D03*
X0022265Y0074964D03*
X0022265Y0075014D03*
X0022315Y0075064D03*
X0022315Y0075114D03*
X0022315Y0075164D03*
X0022315Y0075214D03*
X0022365Y0075264D03*
X0022365Y0075314D03*
X0022365Y0075364D03*
X0022365Y0075414D03*
X0022415Y0075464D03*
X0022415Y0075514D03*
X0022415Y0075564D03*
X0022415Y0075614D03*
X0022465Y0075664D03*
X0027715Y0073214D03*
X0027715Y0073164D03*
X0027715Y0073114D03*
X0027665Y0073064D03*
X0027665Y0073014D03*
X0027615Y0072914D03*
X0027565Y0072764D03*
X0027765Y0073264D03*
X0027765Y0073314D03*
X0027815Y0073364D03*
X0027815Y0073414D03*
X0027865Y0073464D03*
X0027915Y0073564D03*
X0027965Y0073614D03*
X0027965Y0073664D03*
X0028015Y0073714D03*
X0032015Y0073964D03*
X0030665Y0068464D03*
X0026715Y0068564D03*
X0026715Y0068614D03*
X0026715Y0068664D03*
X0026715Y0068714D03*
X0026715Y0068764D03*
X0026715Y0069214D03*
X0026715Y0069264D03*
X0026715Y0069314D03*
X0026715Y0069364D03*
X0026715Y0069414D03*
X0026765Y0069614D03*
X0052115Y0068764D03*
X0052165Y0068814D03*
X0053365Y0073914D03*
X0053365Y0073964D03*
D73*
X0049965Y0068464D03*
X0039165Y0078114D03*
X0037665Y0071964D03*
X0012115Y0074014D03*
X0012065Y0073864D03*
X0012065Y0073814D03*
X0012015Y0073664D03*
X0012015Y0073614D03*
X0011965Y0073464D03*
X0011965Y0073414D03*
X0011915Y0073264D03*
X0011915Y0073214D03*
X0011865Y0073064D03*
X0011865Y0073014D03*
X0011815Y0072864D03*
X0011815Y0072814D03*
X0011765Y0072664D03*
X0011765Y0072614D03*
X0011715Y0072464D03*
X0011715Y0072414D03*
X0011665Y0072264D03*
X0011665Y0072214D03*
X0011615Y0072064D03*
X0011615Y0072014D03*
X0011565Y0071864D03*
X0011565Y0071814D03*
X0011515Y0071664D03*
D74*
X0026690Y0069164D03*
X0026690Y0069114D03*
X0026690Y0069064D03*
X0026690Y0069014D03*
X0026690Y0068964D03*
X0026690Y0068914D03*
X0026690Y0068864D03*
X0026690Y0068814D03*
X0030740Y0068514D03*
X0031240Y0069614D03*
X0031290Y0069814D03*
X0032040Y0073914D03*
X0027890Y0073514D03*
X0052190Y0068864D03*
X0052240Y0068914D03*
X0053390Y0073814D03*
X0053390Y0073864D03*
X0066040Y0078464D03*
X0066040Y0078514D03*
X0066040Y0078564D03*
X0066090Y0078614D03*
X0066090Y0078664D03*
X0066090Y0078714D03*
X0066090Y0078764D03*
X0066140Y0078814D03*
X0066140Y0078864D03*
X0066140Y0078914D03*
X0066140Y0078964D03*
X0066190Y0079014D03*
X0066190Y0079064D03*
X0066190Y0079114D03*
X0066190Y0079164D03*
X0066240Y0079214D03*
X0066240Y0079264D03*
X0066240Y0079314D03*
X0066240Y0079364D03*
D75*
X0053415Y0073764D03*
X0053415Y0073714D03*
X0053415Y0073664D03*
X0053415Y0073614D03*
X0053415Y0073564D03*
X0053415Y0073514D03*
X0053415Y0073464D03*
X0053415Y0073414D03*
X0053415Y0073364D03*
X0053415Y0073314D03*
X0053365Y0073114D03*
X0053365Y0073064D03*
X0053365Y0073014D03*
X0053365Y0072964D03*
X0053315Y0072814D03*
X0053315Y0072764D03*
X0053315Y0072714D03*
X0053265Y0072564D03*
X0053265Y0072514D03*
X0052765Y0070414D03*
X0052715Y0070214D03*
X0052665Y0070014D03*
X0052565Y0069664D03*
X0052515Y0069514D03*
X0052415Y0069264D03*
X0052365Y0069164D03*
X0052315Y0069064D03*
X0052265Y0068964D03*
X0031965Y0072564D03*
X0032065Y0073864D03*
X0031265Y0069764D03*
X0031265Y0069714D03*
X0031265Y0069664D03*
X0031215Y0069564D03*
X0031215Y0069514D03*
X0031215Y0069464D03*
X0031165Y0069414D03*
X0031165Y0069364D03*
X0031165Y0069314D03*
X0031115Y0069214D03*
X0031065Y0069064D03*
X0031015Y0068964D03*
X0030965Y0068864D03*
X0030915Y0068764D03*
X0030865Y0068664D03*
X0030815Y0068614D03*
X0030765Y0068564D03*
D76*
X0031915Y0074064D03*
X0028265Y0074014D03*
X0021715Y0072264D03*
X0021665Y0072214D03*
X0021665Y0072164D03*
X0048015Y0068664D03*
X0048015Y0068614D03*
X0049365Y0073914D03*
X0049415Y0073964D03*
X0053265Y0074114D03*
X0056215Y0069164D03*
X0061065Y0073914D03*
X0061115Y0073964D03*
X0061265Y0074164D03*
X0061315Y0074214D03*
X0061365Y0074264D03*
X0061415Y0074314D03*
X0061465Y0074364D03*
X0061515Y0074414D03*
D77*
X0053390Y0073264D03*
X0053390Y0073214D03*
X0053390Y0073164D03*
X0053340Y0072914D03*
X0053340Y0072864D03*
X0053290Y0072664D03*
X0053290Y0072614D03*
X0053240Y0072464D03*
X0053240Y0072414D03*
X0052790Y0070514D03*
X0052790Y0070464D03*
X0052740Y0070364D03*
X0052740Y0070314D03*
X0052740Y0070264D03*
X0052690Y0070164D03*
X0052690Y0070114D03*
X0052690Y0070064D03*
X0052640Y0069964D03*
X0052640Y0069914D03*
X0052640Y0069864D03*
X0052590Y0069814D03*
X0052590Y0069764D03*
X0052590Y0069714D03*
X0052540Y0069614D03*
X0052540Y0069564D03*
X0052490Y0069464D03*
X0052490Y0069414D03*
X0052440Y0069364D03*
X0052440Y0069314D03*
X0052390Y0069214D03*
X0052340Y0069114D03*
X0052290Y0069014D03*
X0052040Y0075964D03*
X0032090Y0073814D03*
X0032090Y0073764D03*
X0032090Y0073714D03*
X0032090Y0073264D03*
X0032090Y0073214D03*
X0032040Y0073014D03*
X0032040Y0072964D03*
X0032040Y0072914D03*
X0032040Y0072864D03*
X0032040Y0072814D03*
X0031990Y0072764D03*
X0031990Y0072714D03*
X0031990Y0072664D03*
X0031990Y0072614D03*
X0031940Y0072514D03*
X0031940Y0072464D03*
X0031940Y0072414D03*
X0031140Y0069264D03*
X0031090Y0069164D03*
X0031090Y0069114D03*
X0031040Y0069014D03*
X0030990Y0068914D03*
X0030940Y0068814D03*
X0030890Y0068714D03*
D78*
X0021990Y0072764D03*
X0041090Y0073964D03*
X0041140Y0074014D03*
X0041540Y0076164D03*
X0049690Y0074164D03*
X0056540Y0069764D03*
D79*
X0038040Y0072464D03*
X0029540Y0072064D03*
X0029490Y0071914D03*
X0029490Y0071864D03*
X0029490Y0071814D03*
X0029440Y0071714D03*
X0029440Y0071664D03*
X0029440Y0071614D03*
X0029390Y0071564D03*
X0029390Y0071514D03*
X0029390Y0071464D03*
X0029390Y0071414D03*
X0029340Y0071364D03*
X0029340Y0071314D03*
X0029340Y0071264D03*
X0029340Y0071214D03*
X0029290Y0071164D03*
X0029290Y0071114D03*
X0029290Y0071064D03*
X0029290Y0071014D03*
X0029240Y0070964D03*
X0029240Y0070914D03*
X0029240Y0070864D03*
X0029240Y0070814D03*
X0029190Y0070764D03*
D80*
X0030290Y0074664D03*
X0038840Y0078514D03*
X0051640Y0074964D03*
X0058140Y0070914D03*
X0058140Y0070864D03*
D81*
X0058115Y0071114D03*
X0058115Y0071164D03*
X0058115Y0071214D03*
X0058115Y0071264D03*
X0058465Y0072614D03*
X0058465Y0072664D03*
X0058515Y0072714D03*
X0051665Y0075014D03*
X0030315Y0074764D03*
D82*
X0036740Y0071364D03*
D83*
X0036865Y0071414D03*
X0030365Y0074964D03*
X0038665Y0078614D03*
X0051715Y0075214D03*
X0058215Y0072214D03*
X0058115Y0071814D03*
X0058115Y0071764D03*
X0058115Y0071714D03*
D84*
X0039315Y0077564D03*
X0039315Y0077614D03*
X0038015Y0072414D03*
X0029615Y0072364D03*
X0029615Y0072314D03*
X0029565Y0072214D03*
X0029565Y0072164D03*
X0029565Y0072114D03*
X0029515Y0072014D03*
X0029515Y0071964D03*
X0029465Y0071764D03*
D85*
X0037715Y0072014D03*
X0039215Y0078014D03*
D86*
X0030390Y0075064D03*
X0058090Y0072014D03*
D87*
X0039240Y0077964D03*
X0037740Y0072064D03*
D88*
X0037815Y0072114D03*
X0013265Y0078164D03*
X0013315Y0078364D03*
X0013365Y0078564D03*
X0013215Y0077964D03*
X0013165Y0077764D03*
X0013115Y0077564D03*
X0013065Y0077364D03*
X0013015Y0077164D03*
X0013015Y0077114D03*
X0012965Y0076914D03*
X0012915Y0076714D03*
X0012865Y0076514D03*
X0012815Y0076314D03*
D89*
X0012840Y0076364D03*
X0012840Y0076414D03*
X0012840Y0076464D03*
X0012890Y0076564D03*
X0012890Y0076614D03*
X0012890Y0076664D03*
X0012940Y0076764D03*
X0012940Y0076814D03*
X0012940Y0076864D03*
X0012990Y0076964D03*
X0012990Y0077014D03*
X0012990Y0077064D03*
X0013040Y0077214D03*
X0013040Y0077264D03*
X0013040Y0077314D03*
X0013090Y0077414D03*
X0013090Y0077464D03*
X0013090Y0077514D03*
X0013140Y0077614D03*
X0013140Y0077664D03*
X0013140Y0077714D03*
X0013190Y0077814D03*
X0013190Y0077864D03*
X0013190Y0077914D03*
X0013240Y0078014D03*
X0013240Y0078064D03*
X0013240Y0078114D03*
X0013290Y0078214D03*
X0013290Y0078264D03*
X0013290Y0078314D03*
X0013340Y0078414D03*
X0013340Y0078464D03*
X0013340Y0078514D03*
X0013390Y0078614D03*
X0013390Y0078664D03*
X0012790Y0076264D03*
X0012790Y0076214D03*
X0037840Y0072164D03*
X0039240Y0077914D03*
D90*
X0039290Y0077764D03*
X0037890Y0072214D03*
D91*
X0037990Y0072364D03*
X0039290Y0077664D03*
X0039290Y0077714D03*
X0029590Y0072264D03*
D92*
X0037915Y0072264D03*
X0037965Y0072314D03*
D93*
X0030340Y0074864D03*
X0058340Y0072414D03*
D94*
X0039315Y0077464D03*
X0039315Y0077514D03*
X0038115Y0072514D03*
D95*
X0038140Y0072564D03*
X0039340Y0077364D03*
X0039340Y0077414D03*
D96*
X0039315Y0077314D03*
X0038215Y0072714D03*
X0038165Y0072614D03*
D97*
X0038190Y0072664D03*
X0038240Y0072764D03*
X0039340Y0077164D03*
X0039340Y0077214D03*
X0039340Y0077264D03*
D98*
X0022040Y0072814D03*
D99*
X0038265Y0072814D03*
D100*
X0038290Y0072864D03*
X0038340Y0072914D03*
X0039340Y0076964D03*
X0039340Y0077014D03*
X0039340Y0077064D03*
X0039340Y0077114D03*
D101*
X0039315Y0076914D03*
X0038365Y0073014D03*
X0038365Y0072964D03*
D102*
X0051940Y0075714D03*
X0022490Y0073064D03*
D103*
X0032065Y0073064D03*
X0032065Y0073114D03*
X0032065Y0073164D03*
X0032115Y0073314D03*
X0032115Y0073364D03*
X0032115Y0073414D03*
X0032115Y0073464D03*
X0032115Y0073514D03*
X0032115Y0073564D03*
X0032115Y0073614D03*
X0032115Y0073664D03*
D104*
X0038390Y0073064D03*
X0038440Y0073114D03*
X0039340Y0076764D03*
X0039340Y0076814D03*
X0039340Y0076864D03*
D105*
X0025765Y0073114D03*
X0017575Y0036378D03*
X0016825Y0033578D03*
X0016825Y0033528D03*
X0018325Y0033528D03*
X0014825Y0032328D03*
X0013475Y0033528D03*
X0011225Y0036378D03*
X0035125Y0032028D03*
X0035125Y0031978D03*
X0038225Y0035678D03*
D106*
X0038465Y0073164D03*
X0038465Y0073214D03*
X0039315Y0076564D03*
X0039315Y0076614D03*
X0039315Y0076664D03*
X0039315Y0076714D03*
D107*
X0039290Y0076514D03*
X0039290Y0076464D03*
X0039290Y0076414D03*
X0038540Y0073364D03*
X0038540Y0073314D03*
X0038490Y0073264D03*
D108*
X0038565Y0073414D03*
X0038565Y0073464D03*
X0038615Y0073514D03*
D109*
X0038640Y0073564D03*
D110*
X0040840Y0073714D03*
D111*
X0041065Y0073914D03*
X0041515Y0076214D03*
X0051965Y0075864D03*
D112*
X0024990Y0074614D03*
D113*
X0025015Y0074664D03*
X0021525Y0035228D03*
X0021525Y0035178D03*
X0021525Y0035128D03*
X0021525Y0035078D03*
X0021525Y0035028D03*
X0021525Y0034978D03*
X0021525Y0034928D03*
X0021525Y0034878D03*
X0021525Y0034828D03*
X0021525Y0034778D03*
X0021525Y0034728D03*
X0021525Y0034678D03*
X0021525Y0034628D03*
D114*
X0025040Y0074714D03*
X0025090Y0074764D03*
X0025090Y0074814D03*
D115*
X0025115Y0074864D03*
D116*
X0025140Y0074914D03*
X0025190Y0074964D03*
D117*
X0025215Y0075014D03*
X0007875Y0036378D03*
X0007875Y0036328D03*
X0007875Y0036278D03*
X0007875Y0036228D03*
X0007875Y0036178D03*
X0007875Y0036128D03*
X0007875Y0036078D03*
X0007875Y0036028D03*
X0007875Y0035978D03*
X0007875Y0035928D03*
X0007875Y0035878D03*
X0007875Y0035828D03*
D118*
X0034700Y0035828D03*
X0034700Y0035078D03*
X0025240Y0075064D03*
D119*
X0052215Y0076064D03*
X0065215Y0075064D03*
X0065265Y0075264D03*
X0065315Y0075464D03*
X0065365Y0075664D03*
X0065415Y0075864D03*
X0065465Y0076064D03*
X0065515Y0076264D03*
X0065565Y0076464D03*
X0065565Y0076514D03*
X0065615Y0076664D03*
X0065615Y0076714D03*
X0065665Y0076864D03*
X0065665Y0076914D03*
X0065715Y0077064D03*
X0065715Y0077114D03*
X0065765Y0077264D03*
X0065765Y0077314D03*
X0065815Y0077464D03*
X0065815Y0077514D03*
X0065865Y0077664D03*
X0065865Y0077714D03*
X0065915Y0077864D03*
X0065915Y0077914D03*
X0065965Y0078064D03*
X0065965Y0078114D03*
X0066015Y0078264D03*
X0066015Y0078314D03*
X0069065Y0075864D03*
X0069065Y0075814D03*
X0037475Y0036378D03*
X0037975Y0034678D03*
X0026575Y0034078D03*
X0026525Y0034678D03*
X0026025Y0036378D03*
X0018325Y0034528D03*
X0017575Y0035278D03*
X0017575Y0035328D03*
X0016825Y0034528D03*
X0013025Y0034378D03*
D120*
X0013175Y0034128D03*
X0014475Y0032928D03*
X0014475Y0032078D03*
X0016825Y0034178D03*
X0016825Y0034228D03*
X0017575Y0035628D03*
X0017575Y0035678D03*
X0011525Y0035828D03*
X0011125Y0033028D03*
X0011125Y0032978D03*
X0011125Y0032928D03*
X0011125Y0032878D03*
X0011125Y0032578D03*
X0011125Y0032528D03*
X0011125Y0032478D03*
X0011125Y0032428D03*
X0024725Y0032078D03*
X0026725Y0034528D03*
X0026525Y0035828D03*
X0029075Y0035528D03*
X0029125Y0035578D03*
X0029175Y0035628D03*
X0029225Y0035678D03*
X0029275Y0035728D03*
X0029325Y0035778D03*
X0029375Y0035828D03*
X0029575Y0036078D03*
X0029625Y0036128D03*
X0029675Y0036178D03*
X0029725Y0036228D03*
X0029075Y0034478D03*
X0029125Y0034428D03*
X0029175Y0034378D03*
X0029225Y0034328D03*
X0029275Y0034278D03*
X0029325Y0034228D03*
X0029525Y0033978D03*
X0029575Y0033928D03*
X0029625Y0033878D03*
X0029675Y0033828D03*
X0029725Y0033778D03*
X0029925Y0033528D03*
X0031325Y0032078D03*
X0038175Y0034528D03*
X0037975Y0035828D03*
X0068865Y0075064D03*
D121*
X0034675Y0035928D03*
X0034675Y0035878D03*
X0034675Y0035028D03*
X0034675Y0034978D03*
X0025265Y0075114D03*
X0025315Y0075164D03*
D122*
X0029850Y0036378D03*
X0029800Y0036328D03*
X0029750Y0036278D03*
X0029550Y0036028D03*
X0029500Y0035978D03*
X0029450Y0035928D03*
X0029400Y0035878D03*
X0029050Y0035478D03*
X0029000Y0035428D03*
X0028950Y0035378D03*
X0028950Y0034628D03*
X0029000Y0034578D03*
X0029050Y0034528D03*
X0029350Y0034178D03*
X0029400Y0034128D03*
X0029450Y0034078D03*
X0029500Y0034028D03*
X0029750Y0033728D03*
X0029800Y0033678D03*
X0029850Y0033628D03*
X0029900Y0033578D03*
X0031350Y0032928D03*
X0028100Y0032128D03*
X0028100Y0032078D03*
X0028100Y0032028D03*
X0028100Y0031978D03*
X0024750Y0032928D03*
X0026700Y0034128D03*
X0025400Y0035428D03*
X0025450Y0035828D03*
X0018350Y0034278D03*
X0018350Y0034228D03*
X0016800Y0034278D03*
X0013150Y0034178D03*
X0011550Y0035778D03*
X0011150Y0032128D03*
X0011150Y0032078D03*
X0011150Y0032028D03*
X0011150Y0031978D03*
X0034750Y0032928D03*
X0035350Y0035128D03*
X0035350Y0035778D03*
X0036850Y0035428D03*
X0036900Y0035828D03*
X0036950Y0034078D03*
X0038150Y0034128D03*
X0068890Y0075114D03*
X0068890Y0075164D03*
X0068940Y0075264D03*
X0068940Y0075314D03*
D123*
X0069015Y0075564D03*
X0069015Y0075614D03*
X0067565Y0075964D03*
X0067615Y0076164D03*
X0067665Y0076364D03*
X0067715Y0076564D03*
X0067765Y0076764D03*
X0067815Y0076964D03*
X0067815Y0077014D03*
X0067865Y0077164D03*
X0067865Y0077214D03*
X0067915Y0077364D03*
X0067915Y0077414D03*
X0067965Y0077564D03*
X0067965Y0077614D03*
X0068015Y0077764D03*
X0068015Y0077814D03*
X0068065Y0077964D03*
X0068065Y0078014D03*
X0067515Y0075764D03*
X0067465Y0075564D03*
X0067415Y0075364D03*
X0067365Y0075164D03*
X0070465Y0075214D03*
X0070515Y0075414D03*
X0070565Y0075614D03*
X0070915Y0077064D03*
X0070965Y0077264D03*
X0071015Y0077464D03*
X0071065Y0077664D03*
X0071115Y0077864D03*
X0026015Y0075864D03*
X0017575Y0035478D03*
X0017575Y0035428D03*
X0016825Y0034428D03*
X0018325Y0034428D03*
X0017825Y0032578D03*
X0017825Y0032528D03*
X0017825Y0032478D03*
X0017825Y0032428D03*
X0013075Y0034278D03*
X0011625Y0035628D03*
D124*
X0030440Y0075214D03*
D125*
X0068915Y0075214D03*
X0068965Y0075364D03*
X0068965Y0075414D03*
X0038125Y0034578D03*
X0036925Y0035378D03*
X0034775Y0032078D03*
X0026675Y0034578D03*
X0025525Y0034078D03*
X0025475Y0035378D03*
X0018325Y0034328D03*
X0017575Y0035528D03*
X0017575Y0035578D03*
X0016825Y0034328D03*
X0011575Y0035728D03*
D126*
X0026000Y0035928D03*
X0026050Y0036028D03*
X0034600Y0036128D03*
X0034600Y0034778D03*
X0037450Y0035878D03*
X0037450Y0035928D03*
X0037500Y0036028D03*
X0025390Y0075264D03*
D127*
X0030465Y0075264D03*
D128*
X0030465Y0075314D03*
D129*
X0030490Y0075364D03*
D130*
X0025515Y0075414D03*
X0034525Y0036228D03*
X0034525Y0034678D03*
D131*
X0030490Y0075414D03*
D132*
X0025540Y0075464D03*
X0026100Y0036228D03*
X0025950Y0033678D03*
X0034500Y0034628D03*
X0034500Y0036278D03*
X0037550Y0036228D03*
X0037400Y0033678D03*
X0012700Y0034978D03*
X0068490Y0078114D03*
X0068490Y0078164D03*
X0068490Y0078214D03*
X0070790Y0078114D03*
X0070790Y0078064D03*
X0070840Y0078264D03*
D133*
X0070865Y0078314D03*
X0070865Y0078364D03*
X0070915Y0078464D03*
X0070815Y0078214D03*
X0070815Y0078164D03*
X0068515Y0078264D03*
X0068515Y0078314D03*
X0068515Y0078364D03*
X0068515Y0078414D03*
X0025565Y0075514D03*
X0031775Y0035228D03*
X0031775Y0035178D03*
X0031775Y0035128D03*
X0031775Y0035078D03*
X0031775Y0035028D03*
X0031775Y0034978D03*
X0031775Y0034928D03*
X0031775Y0034878D03*
X0031775Y0034828D03*
X0031775Y0034778D03*
X0031775Y0034728D03*
X0031775Y0034678D03*
X0034475Y0034528D03*
X0034475Y0034478D03*
X0012725Y0034928D03*
D134*
X0012750Y0034878D03*
X0011950Y0035028D03*
X0034450Y0034578D03*
X0034450Y0036328D03*
X0025640Y0075564D03*
X0068540Y0078464D03*
X0068540Y0078514D03*
X0068540Y0078564D03*
X0068540Y0078614D03*
X0068590Y0078664D03*
X0068590Y0078714D03*
X0068590Y0078764D03*
X0068590Y0078814D03*
X0070890Y0078414D03*
X0070940Y0078514D03*
X0070940Y0078564D03*
X0070990Y0078664D03*
X0070990Y0078714D03*
D135*
X0071090Y0078964D03*
X0071090Y0079014D03*
X0071140Y0079064D03*
X0071140Y0079114D03*
X0071140Y0079164D03*
X0071190Y0079264D03*
X0068640Y0079214D03*
X0068640Y0079164D03*
X0068640Y0079114D03*
X0068640Y0079064D03*
X0037550Y0036278D03*
X0037450Y0035028D03*
X0037500Y0034978D03*
X0037600Y0034928D03*
X0037650Y0034878D03*
X0037400Y0033628D03*
X0026200Y0034878D03*
X0026050Y0034978D03*
X0026000Y0035028D03*
X0025950Y0033628D03*
X0012800Y0034828D03*
X0011900Y0035128D03*
X0025690Y0075614D03*
D136*
X0036275Y0060878D03*
X0036275Y0060828D03*
X0036275Y0060778D03*
X0036275Y0060728D03*
X0036275Y0060678D03*
X0036275Y0060628D03*
X0036275Y0060578D03*
X0036275Y0060528D03*
X0036275Y0060478D03*
X0036275Y0060428D03*
X0036275Y0060378D03*
X0036275Y0060328D03*
X0036275Y0060278D03*
X0036275Y0060228D03*
X0036275Y0060178D03*
X0036275Y0060128D03*
X0036275Y0060078D03*
X0036275Y0060028D03*
X0036275Y0059978D03*
X0036275Y0059928D03*
X0036275Y0059878D03*
X0036275Y0059828D03*
X0036275Y0059778D03*
X0036275Y0059728D03*
X0036275Y0059678D03*
X0036275Y0059628D03*
X0036275Y0059578D03*
X0036275Y0059528D03*
X0036275Y0059478D03*
X0036275Y0059428D03*
X0036275Y0059378D03*
X0036275Y0059328D03*
X0036275Y0059278D03*
X0036275Y0059228D03*
X0036275Y0059178D03*
X0036275Y0059128D03*
X0036275Y0059078D03*
X0036275Y0059028D03*
X0036275Y0058978D03*
X0036275Y0058928D03*
X0036275Y0058878D03*
X0036275Y0058828D03*
X0036275Y0058778D03*
X0036275Y0058728D03*
X0036275Y0058678D03*
X0036275Y0058628D03*
X0036275Y0058578D03*
X0036275Y0058528D03*
X0036275Y0058478D03*
X0036275Y0058428D03*
X0036275Y0058378D03*
X0036275Y0058328D03*
X0036275Y0058278D03*
X0036275Y0058228D03*
X0036275Y0058178D03*
X0036275Y0058128D03*
X0036275Y0058078D03*
X0036275Y0058028D03*
X0036275Y0057978D03*
X0036275Y0057928D03*
X0036275Y0057878D03*
X0036275Y0057828D03*
X0036275Y0057778D03*
X0036275Y0057728D03*
X0036275Y0057678D03*
X0036275Y0057628D03*
X0036275Y0057578D03*
X0036275Y0057528D03*
X0036275Y0057478D03*
X0036275Y0057428D03*
X0036275Y0057378D03*
X0036275Y0057328D03*
X0036275Y0057278D03*
X0036275Y0057228D03*
X0036275Y0057178D03*
X0036275Y0057128D03*
X0036275Y0057078D03*
X0036275Y0057028D03*
X0036275Y0056978D03*
X0036275Y0056928D03*
X0036275Y0056878D03*
X0036275Y0056828D03*
X0036275Y0056778D03*
X0036275Y0056728D03*
X0036275Y0056678D03*
X0036275Y0056628D03*
X0036275Y0056578D03*
X0036275Y0056528D03*
X0036275Y0056478D03*
X0036275Y0056428D03*
X0036275Y0056378D03*
X0036275Y0056328D03*
X0036275Y0056278D03*
X0036275Y0056228D03*
X0036275Y0056178D03*
X0036275Y0056128D03*
X0036275Y0056078D03*
X0036275Y0056028D03*
X0036275Y0055978D03*
X0036275Y0055928D03*
X0036275Y0055878D03*
X0036275Y0055828D03*
X0036275Y0055778D03*
X0036275Y0055728D03*
X0036275Y0055678D03*
X0036275Y0055628D03*
X0036275Y0055578D03*
X0036275Y0055528D03*
X0036275Y0055478D03*
X0036275Y0055428D03*
X0036275Y0055378D03*
X0036275Y0055328D03*
X0036275Y0055278D03*
X0036275Y0055228D03*
X0036275Y0055178D03*
X0036275Y0055128D03*
X0036275Y0055078D03*
X0036275Y0055028D03*
X0036275Y0054978D03*
X0036275Y0054928D03*
X0036275Y0054878D03*
X0036275Y0054828D03*
X0036275Y0054778D03*
X0036275Y0054728D03*
X0036275Y0054678D03*
X0036275Y0054628D03*
X0036275Y0054578D03*
X0036275Y0054528D03*
X0036275Y0054478D03*
X0036275Y0054428D03*
X0036275Y0054378D03*
X0036275Y0054328D03*
X0036275Y0054278D03*
X0036275Y0054228D03*
X0036275Y0054178D03*
X0036275Y0054128D03*
X0036275Y0054078D03*
X0036275Y0054028D03*
X0036275Y0053978D03*
X0036275Y0053928D03*
X0036275Y0053878D03*
X0036275Y0053828D03*
X0036275Y0053778D03*
X0036275Y0053728D03*
X0036275Y0053678D03*
X0036275Y0053628D03*
X0036275Y0053578D03*
X0036275Y0053528D03*
X0036275Y0053478D03*
X0036275Y0053428D03*
X0036275Y0053378D03*
X0036275Y0053328D03*
X0036275Y0053278D03*
X0036275Y0053228D03*
X0036275Y0053178D03*
X0036275Y0053128D03*
X0036275Y0053078D03*
X0036275Y0053028D03*
X0036275Y0052978D03*
X0036275Y0052928D03*
X0036275Y0052878D03*
X0036275Y0052828D03*
X0036275Y0052778D03*
X0036275Y0052728D03*
X0036275Y0052678D03*
X0036275Y0052628D03*
X0036275Y0052578D03*
X0036275Y0052528D03*
X0036275Y0052478D03*
X0036275Y0052428D03*
X0036275Y0052378D03*
X0036275Y0052328D03*
X0036275Y0052278D03*
X0036275Y0052228D03*
X0036275Y0052178D03*
X0036275Y0052128D03*
X0036275Y0052078D03*
X0036275Y0052028D03*
X0036275Y0051978D03*
X0036275Y0051928D03*
X0036275Y0051878D03*
X0036275Y0051828D03*
X0036275Y0051778D03*
X0036275Y0051728D03*
X0036275Y0051678D03*
X0036275Y0051628D03*
X0036275Y0051578D03*
X0036275Y0051528D03*
X0036275Y0051478D03*
X0036275Y0051428D03*
X0036275Y0051378D03*
X0036275Y0051328D03*
X0036275Y0051278D03*
X0036275Y0051228D03*
X0036275Y0051178D03*
X0036275Y0051128D03*
X0036275Y0051078D03*
X0036275Y0051028D03*
X0036275Y0050978D03*
X0036275Y0050928D03*
X0036275Y0050878D03*
X0036275Y0050828D03*
X0036275Y0050778D03*
X0036275Y0050728D03*
X0036275Y0050678D03*
X0036275Y0050628D03*
X0036275Y0050578D03*
X0036275Y0050528D03*
X0036275Y0050478D03*
X0036275Y0050428D03*
X0036275Y0050378D03*
X0036275Y0050328D03*
X0036275Y0050278D03*
X0036275Y0050228D03*
X0036275Y0050178D03*
X0036275Y0050128D03*
X0036275Y0050078D03*
X0036275Y0050028D03*
X0036275Y0049978D03*
X0036275Y0049928D03*
X0036275Y0049878D03*
X0036275Y0049828D03*
X0036275Y0049778D03*
X0036275Y0049728D03*
X0036275Y0049678D03*
X0036275Y0049628D03*
X0036275Y0049578D03*
X0036275Y0049528D03*
X0036275Y0049478D03*
X0036275Y0049428D03*
X0036275Y0049378D03*
X0036275Y0049328D03*
X0036275Y0049278D03*
X0036275Y0049228D03*
X0036275Y0049178D03*
X0036275Y0049128D03*
X0036275Y0049078D03*
X0036275Y0049028D03*
X0036275Y0048978D03*
X0036275Y0048928D03*
X0036275Y0048878D03*
X0036275Y0048828D03*
X0036275Y0048778D03*
X0036275Y0048728D03*
X0036275Y0048678D03*
X0036275Y0048628D03*
X0036275Y0048578D03*
X0036275Y0048528D03*
X0036275Y0048478D03*
X0036275Y0048428D03*
X0036275Y0048378D03*
X0036275Y0048328D03*
X0036275Y0048278D03*
X0036275Y0048228D03*
X0036275Y0048178D03*
X0036275Y0048128D03*
X0036275Y0048078D03*
X0036275Y0048028D03*
X0036275Y0047978D03*
X0036275Y0047928D03*
X0036275Y0047878D03*
X0036275Y0047828D03*
X0036275Y0047778D03*
X0036275Y0047728D03*
X0036275Y0047678D03*
X0036275Y0047628D03*
X0036275Y0047578D03*
X0036275Y0047528D03*
X0036275Y0047478D03*
X0036275Y0047428D03*
X0036275Y0047378D03*
X0036275Y0047328D03*
X0036275Y0047278D03*
X0036275Y0047228D03*
X0036275Y0047178D03*
X0036275Y0047128D03*
X0036275Y0047078D03*
X0036275Y0047028D03*
X0036275Y0046978D03*
X0036275Y0046928D03*
X0036275Y0046878D03*
X0036275Y0046828D03*
X0036275Y0046778D03*
X0036275Y0046728D03*
X0036275Y0046678D03*
X0036275Y0046628D03*
X0036275Y0046578D03*
X0036275Y0046528D03*
X0036275Y0046478D03*
X0036275Y0046428D03*
X0036275Y0046378D03*
X0036275Y0046328D03*
X0036275Y0046278D03*
X0036275Y0046228D03*
X0036275Y0046178D03*
X0036275Y0046128D03*
X0036275Y0046078D03*
X0036275Y0046028D03*
X0036275Y0045978D03*
X0036275Y0045928D03*
X0036275Y0045878D03*
X0036275Y0045828D03*
X0036275Y0045778D03*
X0036275Y0045728D03*
X0036275Y0045678D03*
X0036275Y0045628D03*
X0036275Y0045578D03*
X0036275Y0045528D03*
X0036275Y0045478D03*
X0036275Y0045428D03*
X0036275Y0045378D03*
X0036275Y0045328D03*
X0036275Y0045278D03*
X0036275Y0045228D03*
X0036275Y0045178D03*
X0036275Y0045128D03*
X0036275Y0045078D03*
X0036275Y0045028D03*
X0036275Y0044978D03*
X0036275Y0044928D03*
X0036275Y0044878D03*
X0036275Y0044828D03*
X0036275Y0044778D03*
X0036275Y0044728D03*
X0036275Y0044678D03*
X0036275Y0044628D03*
X0036275Y0044578D03*
X0036275Y0044528D03*
X0036275Y0044478D03*
X0036275Y0044428D03*
X0036275Y0044378D03*
X0036275Y0044328D03*
X0036275Y0044278D03*
X0036275Y0044228D03*
X0036275Y0044178D03*
X0036275Y0044128D03*
X0036275Y0044078D03*
X0036275Y0044028D03*
X0036275Y0043978D03*
X0036275Y0043928D03*
X0036275Y0043878D03*
X0036275Y0043828D03*
X0036275Y0043778D03*
X0036275Y0043728D03*
X0036275Y0043678D03*
X0036275Y0043628D03*
X0036275Y0043578D03*
X0036275Y0043528D03*
X0036275Y0043478D03*
X0036275Y0043428D03*
X0036275Y0043378D03*
X0036275Y0043328D03*
X0036275Y0043278D03*
X0036275Y0043228D03*
X0036275Y0043178D03*
X0036275Y0043128D03*
X0036275Y0043078D03*
X0036275Y0043028D03*
X0051865Y0075614D03*
D137*
X0068665Y0079264D03*
X0068665Y0079314D03*
X0068665Y0079364D03*
X0071165Y0079214D03*
X0071215Y0079314D03*
X0071215Y0079364D03*
X0069315Y0076814D03*
X0034375Y0036378D03*
X0037375Y0035078D03*
X0028575Y0035328D03*
X0028575Y0034678D03*
X0026125Y0034928D03*
X0025925Y0035078D03*
X0012825Y0034778D03*
X0011875Y0035178D03*
X0025715Y0075664D03*
D138*
X0025765Y0075714D03*
X0026075Y0036328D03*
X0025775Y0035178D03*
X0028525Y0035228D03*
X0028525Y0034778D03*
X0037225Y0035178D03*
X0037525Y0036328D03*
X0018325Y0034878D03*
X0017575Y0034978D03*
X0016825Y0034878D03*
X0012875Y0034678D03*
X0011825Y0035278D03*
X0069265Y0076564D03*
X0069265Y0076614D03*
X0069265Y0076664D03*
D139*
X0069215Y0076414D03*
X0069215Y0076364D03*
X0028475Y0035128D03*
X0028475Y0034878D03*
X0025975Y0033578D03*
X0017575Y0035078D03*
X0017575Y0035128D03*
X0016825Y0034778D03*
X0012925Y0034578D03*
X0011775Y0035378D03*
X0025865Y0075764D03*
D140*
X0025940Y0075814D03*
X0025600Y0035278D03*
X0018350Y0034628D03*
X0018350Y0034578D03*
X0016800Y0034578D03*
X0013000Y0034428D03*
X0011700Y0035528D03*
X0037050Y0035278D03*
X0069090Y0075914D03*
X0069090Y0075964D03*
D141*
X0051965Y0075814D03*
D142*
X0068915Y0076864D03*
X0068915Y0076914D03*
X0068915Y0076964D03*
X0068915Y0077014D03*
X0068965Y0077064D03*
X0068965Y0077114D03*
X0068965Y0077164D03*
X0068965Y0077214D03*
X0068965Y0077264D03*
X0068965Y0077314D03*
X0068965Y0077364D03*
X0068965Y0077414D03*
X0068965Y0077464D03*
X0068965Y0077514D03*
X0068965Y0077564D03*
X0068965Y0077614D03*
X0068965Y0077664D03*
X0068965Y0077714D03*
X0068965Y0077764D03*
X0068965Y0077814D03*
X0069015Y0077914D03*
X0069015Y0077964D03*
X0069015Y0078014D03*
X0069015Y0078064D03*
X0070015Y0077564D03*
X0070015Y0077514D03*
X0070065Y0077614D03*
X0070065Y0077664D03*
X0070115Y0077714D03*
X0070115Y0077764D03*
X0070165Y0077864D03*
X0070215Y0077964D03*
X0070215Y0078014D03*
X0069965Y0077414D03*
X0069965Y0077364D03*
X0069915Y0077314D03*
X0069915Y0077264D03*
X0069865Y0077214D03*
X0069865Y0077164D03*
X0069815Y0077114D03*
X0069815Y0077064D03*
X0069765Y0076964D03*
X0069765Y0076914D03*
X0069715Y0076864D03*
X0036775Y0035728D03*
X0036775Y0035678D03*
X0036775Y0035628D03*
X0036775Y0035578D03*
X0036775Y0035528D03*
X0035475Y0035528D03*
X0035475Y0035578D03*
X0035475Y0035628D03*
X0035475Y0035378D03*
X0035475Y0035328D03*
X0035475Y0035278D03*
X0035075Y0034228D03*
X0035125Y0034128D03*
X0035175Y0034028D03*
X0035225Y0033928D03*
X0035275Y0033828D03*
X0035375Y0033578D03*
X0035425Y0033528D03*
X0033975Y0033578D03*
X0033975Y0033628D03*
X0033975Y0033678D03*
X0033975Y0033728D03*
X0033975Y0033778D03*
X0033975Y0033828D03*
X0033975Y0033878D03*
X0033975Y0033928D03*
X0033975Y0033978D03*
X0033975Y0034028D03*
X0033975Y0034078D03*
X0033975Y0034128D03*
X0033975Y0034178D03*
X0033975Y0034228D03*
X0033975Y0034278D03*
X0033975Y0034328D03*
X0033975Y0034378D03*
X0033975Y0034428D03*
X0033975Y0035128D03*
X0033975Y0035178D03*
X0033975Y0035228D03*
X0033975Y0035678D03*
X0033975Y0035728D03*
X0033975Y0035778D03*
X0038225Y0034428D03*
X0038225Y0034378D03*
X0038225Y0034328D03*
X0038225Y0034278D03*
X0038225Y0034228D03*
X0031325Y0032028D03*
X0026775Y0034228D03*
X0026775Y0034278D03*
X0026775Y0034328D03*
X0026775Y0034378D03*
X0026775Y0034428D03*
X0026025Y0033478D03*
X0024725Y0032028D03*
X0025325Y0035528D03*
X0025325Y0035578D03*
X0025325Y0035628D03*
X0025325Y0035678D03*
X0025325Y0035728D03*
X0019375Y0036378D03*
X0019325Y0036328D03*
X0019325Y0036278D03*
X0019275Y0036178D03*
X0019225Y0036078D03*
X0019175Y0035978D03*
X0019075Y0035728D03*
X0019025Y0035628D03*
X0018975Y0035528D03*
X0018975Y0035478D03*
X0018925Y0035378D03*
X0018875Y0035278D03*
X0018875Y0035228D03*
X0018825Y0035178D03*
X0018825Y0035128D03*
X0018775Y0035078D03*
X0018775Y0035028D03*
X0018725Y0034978D03*
X0018725Y0034928D03*
X0018325Y0034078D03*
X0016825Y0034078D03*
X0016425Y0034928D03*
X0016425Y0034978D03*
X0016375Y0035028D03*
X0016375Y0035078D03*
X0016325Y0035128D03*
X0016325Y0035178D03*
X0016275Y0035278D03*
X0016275Y0035328D03*
X0016225Y0035378D03*
X0016225Y0035428D03*
X0016175Y0035528D03*
X0016125Y0035628D03*
X0015975Y0035978D03*
X0015925Y0036078D03*
X0015825Y0036328D03*
X0017575Y0035828D03*
X0017575Y0035778D03*
X0014475Y0032978D03*
X0014475Y0032028D03*
X0013225Y0034028D03*
X0013225Y0035028D03*
X0013225Y0035078D03*
X0013225Y0035128D03*
X0013225Y0035178D03*
X0013225Y0035228D03*
X0013225Y0035278D03*
X0013225Y0035328D03*
X0013225Y0035378D03*
X0013225Y0035428D03*
X0013225Y0035478D03*
X0013225Y0035528D03*
X0013225Y0035578D03*
X0013225Y0035628D03*
X0013225Y0035678D03*
X0013225Y0035728D03*
X0013225Y0035778D03*
X0013225Y0035828D03*
X0013225Y0035878D03*
X0013225Y0035928D03*
X0013225Y0035978D03*
X0013225Y0036028D03*
X0013225Y0036078D03*
X0013225Y0036128D03*
X0013225Y0036178D03*
X0013225Y0036228D03*
X0011475Y0035928D03*
X0007875Y0035778D03*
X0007875Y0035728D03*
X0007875Y0035678D03*
X0007875Y0035628D03*
X0007875Y0035578D03*
X0007875Y0035528D03*
X0007875Y0035478D03*
X0007875Y0035428D03*
X0007875Y0035378D03*
X0007875Y0035328D03*
X0007875Y0035278D03*
X0007875Y0035228D03*
X0007875Y0035178D03*
X0007875Y0035128D03*
X0007875Y0035078D03*
X0007875Y0035028D03*
X0007875Y0034978D03*
X0007875Y0034928D03*
X0007875Y0034878D03*
X0007875Y0034828D03*
X0007875Y0034778D03*
X0007875Y0034728D03*
X0007875Y0034678D03*
X0007875Y0034628D03*
X0007875Y0034578D03*
X0007875Y0034528D03*
X0007875Y0034478D03*
X0007875Y0034428D03*
X0007875Y0034378D03*
X0007875Y0034328D03*
X0007875Y0034278D03*
X0007875Y0034228D03*
X0007875Y0034178D03*
X0007875Y0034128D03*
X0007875Y0034078D03*
X0007875Y0034028D03*
X0007875Y0033978D03*
X0007875Y0033928D03*
X0007875Y0033878D03*
X0007875Y0033828D03*
X0007875Y0033778D03*
X0007875Y0033728D03*
X0007875Y0033678D03*
X0007875Y0033628D03*
X0007875Y0033578D03*
X0007875Y0033528D03*
X0026165Y0075914D03*
D143*
X0028425Y0035028D03*
X0028425Y0034978D03*
X0017575Y0035178D03*
X0017575Y0035228D03*
X0016825Y0034628D03*
X0012975Y0034478D03*
X0011725Y0035478D03*
X0069115Y0076014D03*
X0069115Y0076064D03*
X0069165Y0076164D03*
X0069165Y0076214D03*
D144*
X0069190Y0076264D03*
X0069190Y0076314D03*
X0069140Y0076114D03*
X0037900Y0034728D03*
X0037150Y0035228D03*
X0028450Y0035078D03*
X0028450Y0034928D03*
X0026450Y0034728D03*
X0025700Y0035228D03*
X0018350Y0034728D03*
X0018350Y0034678D03*
X0016800Y0034678D03*
X0016800Y0034728D03*
X0012950Y0034528D03*
X0011750Y0035428D03*
D145*
X0011800Y0035328D03*
X0012900Y0034628D03*
X0016800Y0034828D03*
X0017600Y0035028D03*
X0018350Y0034828D03*
X0018350Y0034778D03*
X0026350Y0034778D03*
X0028500Y0034828D03*
X0028500Y0035178D03*
X0037450Y0033578D03*
X0037800Y0034778D03*
X0069240Y0076464D03*
X0069240Y0076514D03*
D146*
X0069290Y0076714D03*
X0069290Y0076764D03*
X0037750Y0034828D03*
X0037300Y0035128D03*
X0028550Y0035278D03*
X0028550Y0034728D03*
X0026250Y0034828D03*
X0025850Y0035128D03*
X0012850Y0034728D03*
X0011850Y0035228D03*
D147*
X0011500Y0035878D03*
X0013200Y0034078D03*
X0016100Y0035678D03*
X0016100Y0035728D03*
X0016050Y0035778D03*
X0016050Y0035828D03*
X0016000Y0035878D03*
X0016000Y0035928D03*
X0015950Y0036028D03*
X0015900Y0036128D03*
X0015900Y0036178D03*
X0015850Y0036228D03*
X0015850Y0036278D03*
X0015800Y0036378D03*
X0016150Y0035578D03*
X0016200Y0035478D03*
X0016300Y0035228D03*
X0016800Y0034128D03*
X0018350Y0034128D03*
X0018350Y0034178D03*
X0018900Y0035328D03*
X0018950Y0035428D03*
X0019000Y0035578D03*
X0019050Y0035678D03*
X0019100Y0035778D03*
X0019100Y0035828D03*
X0019150Y0035878D03*
X0019150Y0035928D03*
X0019200Y0036028D03*
X0019250Y0036128D03*
X0019300Y0036228D03*
X0017600Y0035728D03*
X0024750Y0032978D03*
X0026750Y0034178D03*
X0026750Y0034478D03*
X0025350Y0035478D03*
X0025350Y0035778D03*
X0026000Y0036428D03*
X0031350Y0032978D03*
X0034750Y0032978D03*
X0035350Y0033628D03*
X0035350Y0033678D03*
X0035300Y0033728D03*
X0035300Y0033778D03*
X0035250Y0033878D03*
X0035200Y0033978D03*
X0035150Y0034078D03*
X0035100Y0034178D03*
X0035050Y0034278D03*
X0035050Y0034328D03*
X0035000Y0034378D03*
X0035000Y0034428D03*
X0035400Y0035178D03*
X0035450Y0035228D03*
X0035450Y0035678D03*
X0035400Y0035728D03*
X0036800Y0035778D03*
X0036800Y0035478D03*
X0037450Y0036428D03*
X0038200Y0034478D03*
X0038200Y0034178D03*
X0069790Y0077014D03*
X0069990Y0077464D03*
X0070140Y0077814D03*
X0070190Y0077914D03*
X0068990Y0077864D03*
D148*
X0039265Y0077864D03*
X0039265Y0077814D03*
D149*
X0039190Y0078064D03*
D150*
X0068615Y0078864D03*
X0068615Y0078914D03*
X0068615Y0078964D03*
X0068615Y0079014D03*
X0070965Y0078614D03*
X0071015Y0078764D03*
X0071015Y0078814D03*
X0071065Y0078864D03*
X0071065Y0078914D03*
X0026075Y0036278D03*
X0011925Y0035078D03*
D151*
X0038490Y0078664D03*
D152*
X0100874Y0115390D02*
X0100876Y0115437D01*
X0100882Y0115483D01*
X0100891Y0115529D01*
X0100905Y0115573D01*
X0100922Y0115617D01*
X0100943Y0115658D01*
X0100967Y0115698D01*
X0100994Y0115736D01*
X0101025Y0115771D01*
X0101058Y0115804D01*
X0101094Y0115834D01*
X0101133Y0115860D01*
X0101173Y0115884D01*
X0101215Y0115903D01*
X0101259Y0115920D01*
X0101304Y0115932D01*
X0101350Y0115941D01*
X0101396Y0115946D01*
X0101443Y0115947D01*
X0101489Y0115944D01*
X0101535Y0115937D01*
X0101581Y0115926D01*
X0101625Y0115912D01*
X0101668Y0115894D01*
X0101709Y0115872D01*
X0101749Y0115847D01*
X0101786Y0115819D01*
X0101821Y0115788D01*
X0101853Y0115754D01*
X0101882Y0115717D01*
X0101907Y0115679D01*
X0101930Y0115638D01*
X0101949Y0115595D01*
X0101964Y0115551D01*
X0101976Y0115506D01*
X0101984Y0115460D01*
X0101988Y0115413D01*
X0101988Y0115367D01*
X0101984Y0115320D01*
X0101976Y0115274D01*
X0101964Y0115229D01*
X0101949Y0115185D01*
X0101930Y0115142D01*
X0101907Y0115101D01*
X0101882Y0115063D01*
X0101853Y0115026D01*
X0101821Y0114992D01*
X0101786Y0114961D01*
X0101749Y0114933D01*
X0101710Y0114908D01*
X0101668Y0114886D01*
X0101625Y0114868D01*
X0101581Y0114854D01*
X0101535Y0114843D01*
X0101489Y0114836D01*
X0101443Y0114833D01*
X0101396Y0114834D01*
X0101350Y0114839D01*
X0101304Y0114848D01*
X0101259Y0114860D01*
X0101215Y0114877D01*
X0101173Y0114896D01*
X0101133Y0114920D01*
X0101094Y0114946D01*
X0101058Y0114976D01*
X0101025Y0115009D01*
X0100994Y0115044D01*
X0100967Y0115082D01*
X0100943Y0115122D01*
X0100922Y0115163D01*
X0100905Y0115207D01*
X0100891Y0115251D01*
X0100882Y0115297D01*
X0100876Y0115343D01*
X0100874Y0115390D01*
D153*
X0170354Y0164038D02*
X0170356Y0164077D01*
X0170362Y0164116D01*
X0170372Y0164154D01*
X0170385Y0164191D01*
X0170402Y0164226D01*
X0170422Y0164260D01*
X0170446Y0164291D01*
X0170473Y0164320D01*
X0170502Y0164346D01*
X0170534Y0164369D01*
X0170568Y0164389D01*
X0170604Y0164405D01*
X0170641Y0164417D01*
X0170680Y0164426D01*
X0170719Y0164431D01*
X0170758Y0164432D01*
X0170797Y0164429D01*
X0170836Y0164422D01*
X0170873Y0164411D01*
X0170910Y0164397D01*
X0170945Y0164379D01*
X0170978Y0164358D01*
X0171009Y0164333D01*
X0171037Y0164306D01*
X0171062Y0164276D01*
X0171084Y0164243D01*
X0171103Y0164209D01*
X0171118Y0164173D01*
X0171130Y0164135D01*
X0171138Y0164097D01*
X0171142Y0164058D01*
X0171142Y0164018D01*
X0171138Y0163979D01*
X0171130Y0163941D01*
X0171118Y0163903D01*
X0171103Y0163867D01*
X0171084Y0163833D01*
X0171062Y0163800D01*
X0171037Y0163770D01*
X0171009Y0163743D01*
X0170978Y0163718D01*
X0170945Y0163697D01*
X0170910Y0163679D01*
X0170873Y0163665D01*
X0170836Y0163654D01*
X0170797Y0163647D01*
X0170758Y0163644D01*
X0170719Y0163645D01*
X0170680Y0163650D01*
X0170641Y0163659D01*
X0170604Y0163671D01*
X0170568Y0163687D01*
X0170534Y0163707D01*
X0170502Y0163730D01*
X0170473Y0163756D01*
X0170446Y0163785D01*
X0170422Y0163816D01*
X0170402Y0163850D01*
X0170385Y0163885D01*
X0170372Y0163922D01*
X0170362Y0163960D01*
X0170356Y0163999D01*
X0170354Y0164038D01*
D154*
X0163236Y0164531D02*
X0161793Y0164531D01*
X0162514Y0164531D02*
X0162514Y0166696D01*
X0161793Y0165974D01*
X0186990Y0166335D02*
X0187350Y0166696D01*
X0188072Y0166696D01*
X0188432Y0166335D01*
X0188432Y0165974D01*
X0186990Y0164531D01*
X0188432Y0164531D01*
X0189165Y0164892D02*
X0189165Y0165253D01*
X0189526Y0165614D01*
X0190247Y0165614D01*
X0190608Y0165253D01*
X0190608Y0164892D01*
X0190247Y0164531D01*
X0189526Y0164531D01*
X0189165Y0164892D01*
X0189526Y0165614D02*
X0189165Y0165974D01*
X0189165Y0166335D01*
X0189526Y0166696D01*
X0190247Y0166696D01*
X0190608Y0166335D01*
X0190608Y0165974D01*
X0190247Y0165614D01*
X0190608Y0128900D02*
X0189165Y0128900D01*
X0189165Y0127818D01*
X0189886Y0128179D01*
X0190247Y0128179D01*
X0190608Y0127818D01*
X0190608Y0127097D01*
X0190247Y0126736D01*
X0189526Y0126736D01*
X0189165Y0127097D01*
X0188432Y0126736D02*
X0186990Y0126736D01*
X0187711Y0126736D02*
X0187711Y0128900D01*
X0186990Y0128179D01*
X0165411Y0127818D02*
X0163968Y0127818D01*
X0165050Y0128900D01*
X0165050Y0126736D01*
X0163236Y0126736D02*
X0161793Y0126736D01*
X0162514Y0126736D02*
X0162514Y0128900D01*
X0161793Y0128179D01*
D155*
X0038400Y0033028D03*
X0038350Y0032928D03*
X0038300Y0032828D03*
X0038250Y0032778D03*
X0038250Y0032728D03*
X0038200Y0032678D03*
X0038200Y0032628D03*
X0038050Y0032378D03*
X0038050Y0032328D03*
X0038050Y0032278D03*
X0038050Y0032228D03*
X0038050Y0032178D03*
X0038050Y0032128D03*
X0038050Y0032078D03*
X0038050Y0032028D03*
X0038050Y0031978D03*
X0037900Y0032628D03*
X0037900Y0032678D03*
X0037850Y0032728D03*
X0037800Y0032828D03*
X0037750Y0032928D03*
X0037700Y0033028D03*
X0036750Y0034228D03*
X0035100Y0032778D03*
X0035100Y0032728D03*
X0035100Y0032328D03*
X0035100Y0032278D03*
X0035100Y0032228D03*
X0034700Y0031928D03*
X0034350Y0032278D03*
X0034350Y0032328D03*
X0034350Y0032378D03*
X0034350Y0032628D03*
X0034350Y0032678D03*
X0034350Y0032728D03*
X0031750Y0032678D03*
X0031750Y0032628D03*
X0031750Y0032578D03*
X0031750Y0032528D03*
X0031750Y0032478D03*
X0031750Y0032428D03*
X0031750Y0032378D03*
X0031750Y0032328D03*
X0031700Y0032228D03*
X0031350Y0031928D03*
X0030950Y0032228D03*
X0030950Y0032278D03*
X0030900Y0032328D03*
X0030900Y0032378D03*
X0030900Y0032428D03*
X0030900Y0032478D03*
X0030900Y0032528D03*
X0030900Y0032578D03*
X0030900Y0032628D03*
X0030900Y0032678D03*
X0030950Y0032778D03*
X0031700Y0032778D03*
X0027800Y0032778D03*
X0027800Y0032828D03*
X0027800Y0032878D03*
X0027800Y0032928D03*
X0027800Y0032978D03*
X0027800Y0033028D03*
X0027800Y0032728D03*
X0027800Y0032678D03*
X0027800Y0032628D03*
X0027800Y0032578D03*
X0027800Y0032528D03*
X0027800Y0032478D03*
X0027800Y0032428D03*
X0027800Y0032378D03*
X0027800Y0032328D03*
X0027800Y0032278D03*
X0027800Y0032228D03*
X0027800Y0032178D03*
X0025150Y0032328D03*
X0025150Y0032378D03*
X0025150Y0032428D03*
X0025150Y0032478D03*
X0025150Y0032528D03*
X0025150Y0032578D03*
X0025150Y0032628D03*
X0025150Y0032678D03*
X0025150Y0032728D03*
X0025100Y0032778D03*
X0025100Y0032228D03*
X0024750Y0031928D03*
X0024400Y0032178D03*
X0024350Y0032278D03*
X0024300Y0032378D03*
X0024300Y0032428D03*
X0024300Y0032478D03*
X0024300Y0032528D03*
X0024300Y0032578D03*
X0024300Y0032628D03*
X0024350Y0032728D03*
X0024350Y0032778D03*
X0021650Y0032778D03*
X0021650Y0032828D03*
X0021650Y0032878D03*
X0021650Y0032928D03*
X0021650Y0032978D03*
X0021650Y0033028D03*
X0021650Y0032728D03*
X0021650Y0032678D03*
X0021650Y0032628D03*
X0021650Y0032578D03*
X0021650Y0032528D03*
X0021650Y0032478D03*
X0021650Y0032428D03*
X0021650Y0032378D03*
X0021650Y0032328D03*
X0021350Y0032328D03*
X0021350Y0032378D03*
X0021300Y0032428D03*
X0021300Y0032478D03*
X0021250Y0032528D03*
X0021250Y0032578D03*
X0021200Y0032628D03*
X0020900Y0032628D03*
X0020900Y0032578D03*
X0020900Y0032528D03*
X0020900Y0032478D03*
X0020900Y0032428D03*
X0020900Y0032378D03*
X0020900Y0032328D03*
X0020900Y0032278D03*
X0020900Y0032228D03*
X0020900Y0032178D03*
X0020900Y0032128D03*
X0020900Y0032078D03*
X0020900Y0032028D03*
X0020900Y0031978D03*
X0018200Y0031978D03*
X0018200Y0032028D03*
X0018200Y0032078D03*
X0018200Y0032128D03*
X0018200Y0032178D03*
X0018200Y0032228D03*
X0018200Y0032278D03*
X0018200Y0032328D03*
X0018200Y0032378D03*
X0018200Y0032628D03*
X0018200Y0032678D03*
X0018200Y0032728D03*
X0018200Y0032778D03*
X0018200Y0032828D03*
X0018200Y0032878D03*
X0018200Y0032928D03*
X0018200Y0032978D03*
X0018200Y0033028D03*
X0018350Y0033578D03*
X0017450Y0033028D03*
X0017450Y0032978D03*
X0017450Y0032928D03*
X0017450Y0032878D03*
X0017450Y0032828D03*
X0017450Y0032778D03*
X0017450Y0032728D03*
X0017450Y0032678D03*
X0017450Y0032628D03*
X0017450Y0032378D03*
X0017450Y0032328D03*
X0017450Y0032278D03*
X0017450Y0032228D03*
X0017450Y0032178D03*
X0017450Y0032128D03*
X0017450Y0032078D03*
X0017450Y0032028D03*
X0017450Y0031978D03*
X0014800Y0032228D03*
X0014800Y0032278D03*
X0014800Y0032728D03*
X0014800Y0032778D03*
X0014800Y0032828D03*
X0014100Y0032778D03*
X0014100Y0032728D03*
X0014050Y0032628D03*
X0014050Y0032578D03*
X0014050Y0032528D03*
X0014050Y0032478D03*
X0014050Y0032428D03*
X0014050Y0032378D03*
X0014100Y0032278D03*
X0014100Y0032228D03*
X0014450Y0031928D03*
X0013450Y0033578D03*
X0010850Y0032828D03*
X0010850Y0032778D03*
X0010850Y0032728D03*
X0010850Y0032678D03*
X0010850Y0032628D03*
X0010850Y0032378D03*
X0010850Y0032328D03*
X0010850Y0032278D03*
X0010850Y0032228D03*
X0010850Y0032178D03*
X0007950Y0032178D03*
X0007950Y0032228D03*
X0007950Y0032278D03*
X0007950Y0032328D03*
X0007950Y0032378D03*
X0007950Y0032428D03*
X0007950Y0032478D03*
X0007950Y0032528D03*
X0007950Y0032578D03*
X0007950Y0032628D03*
X0007950Y0032678D03*
X0007950Y0032728D03*
X0007950Y0032778D03*
X0007950Y0032828D03*
X0007950Y0032128D03*
X0007950Y0032078D03*
X0007950Y0032028D03*
X0007950Y0031978D03*
X0011250Y0036328D03*
X0017600Y0036328D03*
D156*
X0018350Y0033928D03*
X0016800Y0033928D03*
X0014450Y0031978D03*
X0013300Y0033878D03*
X0011400Y0036078D03*
X0021050Y0032678D03*
X0024750Y0031978D03*
X0031350Y0031978D03*
X0038100Y0035778D03*
D157*
X0038150Y0035728D03*
X0038050Y0032478D03*
X0038050Y0032428D03*
X0035050Y0032128D03*
X0034450Y0032128D03*
X0034750Y0033078D03*
X0031050Y0032128D03*
X0026700Y0035728D03*
X0024750Y0033078D03*
X0024450Y0032128D03*
X0021600Y0032028D03*
X0021600Y0031978D03*
X0020950Y0032978D03*
X0020950Y0033028D03*
X0018350Y0033678D03*
X0018350Y0033728D03*
X0013400Y0033678D03*
X0011300Y0036228D03*
D158*
X0011350Y0036178D03*
X0013350Y0033778D03*
X0016800Y0033828D03*
X0018350Y0033828D03*
X0017600Y0036078D03*
X0021000Y0032828D03*
X0021000Y0032778D03*
X0021550Y0032178D03*
X0021550Y0032128D03*
X0034700Y0031978D03*
X0035000Y0032378D03*
X0035000Y0032428D03*
X0035000Y0032478D03*
X0035000Y0032528D03*
X0036800Y0034178D03*
X0038050Y0032578D03*
X0038050Y0032528D03*
D159*
X0036825Y0034128D03*
X0034775Y0033028D03*
X0034675Y0032028D03*
X0031325Y0033028D03*
X0024725Y0033028D03*
X0022425Y0035278D03*
X0022425Y0035328D03*
X0022425Y0035378D03*
X0022425Y0035428D03*
X0022425Y0035478D03*
X0022425Y0035528D03*
X0022425Y0035578D03*
X0022425Y0035628D03*
X0022425Y0035678D03*
X0022425Y0035728D03*
X0022425Y0035778D03*
X0022425Y0035828D03*
X0022425Y0035878D03*
X0022425Y0035928D03*
X0022425Y0035978D03*
X0022425Y0036028D03*
X0022425Y0036078D03*
X0022425Y0036128D03*
X0022425Y0036178D03*
X0022425Y0036228D03*
X0022425Y0036278D03*
X0022425Y0036328D03*
X0022425Y0036378D03*
X0018325Y0033978D03*
X0016825Y0033978D03*
X0017575Y0035878D03*
X0017575Y0035928D03*
X0014475Y0033028D03*
X0013275Y0033928D03*
X0011425Y0036028D03*
D160*
X0013375Y0033728D03*
X0014475Y0033078D03*
X0016825Y0033728D03*
X0016825Y0033778D03*
X0018325Y0033778D03*
X0020975Y0032928D03*
X0020975Y0032878D03*
X0021575Y0032078D03*
X0025325Y0034178D03*
X0031325Y0033078D03*
X0017575Y0036128D03*
X0017575Y0036178D03*
D161*
X0017575Y0036228D03*
X0017575Y0036278D03*
X0016825Y0033678D03*
X0016825Y0033628D03*
X0018325Y0033628D03*
X0014775Y0032878D03*
X0014175Y0032878D03*
X0014125Y0032828D03*
X0014075Y0032678D03*
X0014075Y0032328D03*
X0014125Y0032178D03*
X0014175Y0032128D03*
X0014725Y0032128D03*
X0014775Y0032178D03*
X0013425Y0033628D03*
X0011275Y0036278D03*
X0024325Y0032678D03*
X0024375Y0032828D03*
X0024425Y0032878D03*
X0024325Y0032328D03*
X0024375Y0032228D03*
X0025025Y0032128D03*
X0025075Y0032178D03*
X0025125Y0032278D03*
X0025075Y0032828D03*
X0025025Y0032878D03*
X0025275Y0034228D03*
X0030925Y0032728D03*
X0030975Y0032828D03*
X0031025Y0032878D03*
X0031625Y0032878D03*
X0031675Y0032828D03*
X0031725Y0032728D03*
X0031725Y0032278D03*
X0031675Y0032178D03*
X0031625Y0032128D03*
X0030975Y0032178D03*
X0034325Y0032428D03*
X0034325Y0032478D03*
X0034325Y0032528D03*
X0034325Y0032578D03*
X0034375Y0032778D03*
X0034425Y0032828D03*
X0034475Y0032878D03*
X0035025Y0032878D03*
X0035075Y0032828D03*
X0035075Y0032178D03*
X0034425Y0032178D03*
X0034375Y0032228D03*
X0037725Y0032978D03*
X0037775Y0032878D03*
X0037825Y0032778D03*
X0038325Y0032878D03*
X0038375Y0032978D03*
D162*
X0026625Y0035778D03*
X0021525Y0032278D03*
X0021525Y0032228D03*
X0021025Y0032728D03*
X0018325Y0033878D03*
X0016825Y0033878D03*
X0017575Y0035978D03*
X0017575Y0036028D03*
X0013325Y0033828D03*
X0011375Y0036128D03*
D163*
X0011200Y0036428D03*
X0013500Y0033478D03*
X0026750Y0035678D03*
D164*
X0025225Y0034278D03*
X0018325Y0033478D03*
X0016825Y0033478D03*
X0036675Y0034278D03*
D165*
X0037500Y0033478D03*
X0035500Y0035428D03*
X0035500Y0035478D03*
X0033950Y0035478D03*
X0033950Y0035528D03*
X0033950Y0035578D03*
X0033950Y0035628D03*
X0033950Y0035428D03*
X0033950Y0035378D03*
X0033950Y0035328D03*
X0033950Y0035278D03*
X0033950Y0033528D03*
X0031250Y0034128D03*
X0031250Y0034178D03*
X0031250Y0034228D03*
X0031250Y0034278D03*
X0031250Y0034328D03*
X0031250Y0034378D03*
X0031250Y0034428D03*
X0031250Y0034478D03*
X0031250Y0034528D03*
X0031250Y0034578D03*
X0031250Y0034628D03*
X0031250Y0035278D03*
X0031250Y0035328D03*
X0031250Y0035378D03*
X0031250Y0035428D03*
X0031250Y0035478D03*
X0031250Y0035528D03*
X0031250Y0035578D03*
X0031250Y0035628D03*
X0031250Y0035678D03*
X0031250Y0035728D03*
X0031250Y0035778D03*
X0028150Y0035778D03*
X0028150Y0035828D03*
X0028150Y0035878D03*
X0028150Y0035928D03*
X0028150Y0035978D03*
X0028150Y0036028D03*
X0028150Y0036078D03*
X0028150Y0036128D03*
X0028150Y0036178D03*
X0028150Y0036228D03*
X0028150Y0036278D03*
X0028150Y0036328D03*
X0028150Y0036378D03*
X0028150Y0035728D03*
X0028150Y0035678D03*
X0028150Y0035628D03*
X0028150Y0035578D03*
X0028150Y0035528D03*
X0028150Y0035478D03*
X0028150Y0035428D03*
X0028150Y0035378D03*
X0028150Y0034628D03*
X0028150Y0034578D03*
X0028150Y0034528D03*
X0028150Y0034478D03*
X0028150Y0034428D03*
X0028150Y0034378D03*
X0028150Y0034328D03*
X0028150Y0034278D03*
X0028150Y0034228D03*
X0028150Y0034178D03*
X0028150Y0034128D03*
X0028150Y0034078D03*
X0028150Y0034028D03*
X0028150Y0033978D03*
X0028150Y0033928D03*
X0028150Y0033878D03*
X0028150Y0033828D03*
X0028150Y0033778D03*
X0028150Y0033728D03*
X0028150Y0033678D03*
X0028150Y0033628D03*
X0028150Y0033578D03*
X0028150Y0033528D03*
X0025400Y0034128D03*
X0023900Y0034128D03*
X0023900Y0034178D03*
X0023900Y0034228D03*
X0023900Y0034278D03*
X0023900Y0034328D03*
X0023900Y0034378D03*
X0023900Y0034428D03*
X0023900Y0034478D03*
X0023900Y0034528D03*
X0023900Y0034578D03*
X0023900Y0034628D03*
X0023900Y0034678D03*
X0023900Y0034728D03*
X0023900Y0034778D03*
X0023900Y0034828D03*
X0023900Y0034878D03*
X0023900Y0034928D03*
X0023900Y0034978D03*
X0023900Y0035028D03*
X0023900Y0035078D03*
X0023900Y0035128D03*
X0023900Y0035178D03*
X0023900Y0035228D03*
X0023900Y0035278D03*
X0023900Y0035328D03*
X0023900Y0035378D03*
X0023900Y0035428D03*
X0023900Y0035478D03*
X0023900Y0035528D03*
X0023900Y0035578D03*
X0023900Y0035628D03*
X0023900Y0035678D03*
X0023900Y0035728D03*
X0023900Y0035778D03*
X0023900Y0035828D03*
X0023900Y0035878D03*
X0023900Y0035928D03*
X0023900Y0035978D03*
X0023900Y0036028D03*
X0023900Y0036078D03*
X0023900Y0036128D03*
X0023900Y0036178D03*
X0023900Y0036228D03*
X0023900Y0036278D03*
X0023900Y0036328D03*
X0023900Y0036378D03*
X0022400Y0034578D03*
X0022400Y0034528D03*
X0022400Y0034478D03*
X0022400Y0034428D03*
X0022400Y0034378D03*
X0022400Y0034328D03*
X0022400Y0034278D03*
X0022400Y0034228D03*
X0022400Y0034178D03*
X0022400Y0034128D03*
X0022400Y0034078D03*
X0022400Y0034028D03*
X0022400Y0033978D03*
X0022400Y0033928D03*
X0022400Y0033878D03*
X0022400Y0033828D03*
X0022400Y0033778D03*
X0022400Y0033728D03*
X0022400Y0033678D03*
X0022400Y0033628D03*
X0022400Y0033578D03*
X0022400Y0033528D03*
X0023900Y0033528D03*
X0023900Y0033578D03*
X0023900Y0033628D03*
X0023900Y0033678D03*
X0023900Y0033728D03*
X0023900Y0033778D03*
X0023900Y0033828D03*
X0023900Y0033878D03*
X0023900Y0033928D03*
X0023900Y0033978D03*
X0023900Y0034028D03*
X0023900Y0034078D03*
X0020650Y0034078D03*
X0020650Y0034128D03*
X0020650Y0034178D03*
X0020650Y0034228D03*
X0020650Y0034278D03*
X0020650Y0034328D03*
X0020650Y0034378D03*
X0020650Y0034428D03*
X0020650Y0034478D03*
X0020650Y0034528D03*
X0020650Y0034578D03*
X0020650Y0034028D03*
X0020650Y0033978D03*
X0020650Y0033928D03*
X0020650Y0033878D03*
X0020650Y0033828D03*
X0020650Y0033778D03*
X0020650Y0033728D03*
X0020650Y0033678D03*
X0020650Y0033628D03*
X0020650Y0033578D03*
X0020650Y0033528D03*
X0020650Y0035278D03*
X0020650Y0035328D03*
X0020650Y0035378D03*
X0020650Y0035428D03*
X0020650Y0035478D03*
X0020650Y0035528D03*
X0020650Y0035578D03*
X0020650Y0035628D03*
X0020650Y0035678D03*
X0020650Y0035728D03*
X0020650Y0035778D03*
X0020650Y0035828D03*
X0020650Y0035878D03*
X0020650Y0035928D03*
X0020650Y0035978D03*
X0020650Y0036028D03*
X0020650Y0036078D03*
X0020650Y0036128D03*
X0020650Y0036178D03*
X0020650Y0036228D03*
X0020650Y0036278D03*
X0020650Y0036328D03*
X0020650Y0036378D03*
X0017950Y0034928D03*
X0017200Y0034928D03*
X0016800Y0034028D03*
X0018350Y0034028D03*
X0013250Y0033978D03*
X0011450Y0033978D03*
X0011450Y0034028D03*
X0011450Y0034078D03*
X0011450Y0034128D03*
X0011450Y0034178D03*
X0011450Y0034228D03*
X0011450Y0034278D03*
X0011450Y0034328D03*
X0011450Y0034378D03*
X0011450Y0034428D03*
X0011450Y0034478D03*
X0011450Y0034528D03*
X0011450Y0034578D03*
X0011450Y0034628D03*
X0011450Y0034678D03*
X0011450Y0034728D03*
X0011450Y0034778D03*
X0011450Y0034828D03*
X0011450Y0034878D03*
X0011450Y0034928D03*
X0011450Y0034978D03*
X0011450Y0035978D03*
X0009950Y0035978D03*
X0009950Y0036028D03*
X0009950Y0036078D03*
X0009950Y0036128D03*
X0009950Y0036178D03*
X0009950Y0036228D03*
X0009950Y0036278D03*
X0009950Y0036328D03*
X0009950Y0036378D03*
X0009950Y0035928D03*
X0009950Y0035878D03*
X0009950Y0035828D03*
X0009950Y0035778D03*
X0009950Y0035728D03*
X0009950Y0035678D03*
X0009950Y0035628D03*
X0009950Y0035578D03*
X0009950Y0035528D03*
X0009950Y0035478D03*
X0009950Y0035428D03*
X0009950Y0035378D03*
X0009950Y0035328D03*
X0009950Y0035278D03*
X0009950Y0035228D03*
X0009950Y0035178D03*
X0009950Y0035128D03*
X0009950Y0035078D03*
X0009950Y0035028D03*
X0009950Y0034978D03*
X0009950Y0034928D03*
X0009950Y0034878D03*
X0009950Y0034828D03*
X0009950Y0034778D03*
X0009950Y0034728D03*
X0009950Y0034678D03*
X0009950Y0034628D03*
X0009950Y0034578D03*
X0009950Y0034528D03*
X0009950Y0034478D03*
X0009950Y0034428D03*
X0009950Y0034378D03*
X0009950Y0034328D03*
X0009950Y0034278D03*
X0009950Y0034228D03*
X0009950Y0034178D03*
X0009950Y0034128D03*
X0009950Y0034078D03*
X0009950Y0034028D03*
X0009950Y0033978D03*
X0009950Y0033928D03*
X0009950Y0033878D03*
X0009950Y0033828D03*
X0009950Y0033778D03*
X0009950Y0033728D03*
X0009950Y0033678D03*
X0009950Y0033628D03*
X0009950Y0033578D03*
X0009950Y0033528D03*
X0011450Y0033528D03*
X0011450Y0033578D03*
X0011450Y0033628D03*
X0011450Y0033678D03*
X0011450Y0033728D03*
X0011450Y0033778D03*
X0011450Y0033828D03*
X0011450Y0033878D03*
X0011450Y0033928D03*
X0013250Y0036278D03*
X0013250Y0036328D03*
X0013250Y0036378D03*
D166*
X0025950Y0033828D03*
X0026000Y0033878D03*
X0026000Y0033928D03*
X0026050Y0033978D03*
X0026050Y0034028D03*
X0031950Y0034028D03*
X0031950Y0034078D03*
X0031950Y0033978D03*
X0031950Y0033928D03*
X0031950Y0033878D03*
X0031950Y0033828D03*
X0031950Y0033778D03*
X0031950Y0033728D03*
X0031950Y0033678D03*
X0031950Y0033628D03*
X0031950Y0033578D03*
X0031950Y0033528D03*
X0031950Y0035828D03*
X0031950Y0035878D03*
X0031950Y0035928D03*
X0031950Y0035978D03*
X0031950Y0036028D03*
X0031950Y0036078D03*
X0031950Y0036128D03*
X0031950Y0036178D03*
X0031950Y0036228D03*
X0031950Y0036278D03*
X0031950Y0036328D03*
X0031950Y0036378D03*
X0034650Y0035978D03*
X0034650Y0034928D03*
X0037400Y0033828D03*
X0037450Y0033878D03*
X0037450Y0033928D03*
X0037500Y0033978D03*
X0037500Y0034028D03*
D167*
X0034550Y0034728D03*
X0037550Y0036128D03*
X0026100Y0036178D03*
D168*
X0027225Y0038428D03*
X0027225Y0038478D03*
X0027225Y0038528D03*
X0027225Y0038578D03*
X0027225Y0038628D03*
X0027225Y0038678D03*
X0027225Y0038728D03*
X0027225Y0038778D03*
X0027225Y0038828D03*
X0027225Y0038878D03*
X0027225Y0038928D03*
X0027225Y0038978D03*
X0027225Y0039028D03*
X0027225Y0039078D03*
X0027225Y0039128D03*
X0027225Y0039178D03*
X0027225Y0039228D03*
X0027225Y0039278D03*
X0027225Y0039328D03*
X0027225Y0039378D03*
X0027225Y0039428D03*
X0027225Y0039478D03*
X0027225Y0039528D03*
X0027225Y0039578D03*
X0027225Y0039628D03*
X0027225Y0039678D03*
X0027225Y0039728D03*
X0027225Y0039778D03*
X0027225Y0039828D03*
X0027225Y0039878D03*
X0027225Y0039928D03*
X0027225Y0039978D03*
X0027225Y0040028D03*
X0027225Y0040078D03*
X0027225Y0040128D03*
X0027225Y0040178D03*
X0027225Y0040228D03*
X0027225Y0040278D03*
X0027225Y0040328D03*
X0027225Y0040378D03*
X0027225Y0040428D03*
X0027225Y0040478D03*
X0027225Y0040528D03*
X0027225Y0040578D03*
X0027225Y0040628D03*
X0027225Y0040678D03*
X0027225Y0040728D03*
X0027225Y0040778D03*
X0027225Y0040828D03*
X0027225Y0040878D03*
X0027225Y0040928D03*
X0027225Y0040978D03*
X0027225Y0041028D03*
X0027225Y0041078D03*
X0027225Y0041128D03*
X0027225Y0041178D03*
X0027225Y0041228D03*
X0027225Y0041278D03*
X0027225Y0041328D03*
X0027225Y0041378D03*
X0027225Y0041428D03*
X0027225Y0041478D03*
X0027225Y0041528D03*
X0027225Y0041578D03*
X0027225Y0041628D03*
X0027225Y0041678D03*
X0027225Y0041728D03*
X0027225Y0041778D03*
X0027225Y0041828D03*
X0027225Y0041878D03*
X0027225Y0041928D03*
X0027225Y0041978D03*
X0027225Y0042028D03*
X0027225Y0042078D03*
X0027225Y0042128D03*
X0027225Y0042178D03*
X0027225Y0042228D03*
X0027225Y0042278D03*
X0027225Y0042328D03*
X0027225Y0042378D03*
X0027225Y0042428D03*
X0027225Y0042478D03*
X0027225Y0042528D03*
X0027225Y0042578D03*
X0027225Y0042628D03*
X0027225Y0042678D03*
X0027225Y0042728D03*
X0027225Y0042778D03*
X0027225Y0042828D03*
X0027225Y0042878D03*
X0027225Y0042928D03*
X0027225Y0042978D03*
D169*
X0027225Y0043028D03*
X0027225Y0043078D03*
X0027225Y0043128D03*
X0027225Y0043178D03*
X0027225Y0043228D03*
X0027225Y0043278D03*
X0027225Y0043328D03*
X0027225Y0043378D03*
X0027225Y0043428D03*
X0027225Y0043478D03*
X0027225Y0043528D03*
X0027225Y0043578D03*
X0027225Y0043628D03*
X0027225Y0043678D03*
X0027225Y0043728D03*
X0027225Y0043778D03*
X0027225Y0043828D03*
X0027225Y0043878D03*
X0027225Y0043928D03*
X0027225Y0043978D03*
X0027225Y0044028D03*
X0027225Y0044078D03*
X0027225Y0044128D03*
X0027225Y0044178D03*
X0027225Y0044228D03*
X0027225Y0044278D03*
X0027225Y0044328D03*
X0027225Y0044378D03*
X0027225Y0044428D03*
X0027225Y0044478D03*
X0027225Y0044528D03*
X0027225Y0044578D03*
X0027225Y0044628D03*
X0027225Y0044678D03*
X0027225Y0044728D03*
X0027225Y0044778D03*
X0027225Y0044828D03*
X0027225Y0044878D03*
X0027225Y0044928D03*
X0027225Y0044978D03*
X0027225Y0045028D03*
X0027225Y0045078D03*
X0027225Y0045128D03*
X0027225Y0045178D03*
X0027225Y0045228D03*
X0027225Y0045278D03*
X0027225Y0045328D03*
X0027225Y0045378D03*
X0027225Y0045428D03*
X0027225Y0045478D03*
X0027225Y0045528D03*
X0027225Y0045578D03*
X0027225Y0045628D03*
X0027225Y0045678D03*
X0027225Y0045728D03*
X0027225Y0045778D03*
X0027225Y0045828D03*
X0027225Y0045878D03*
X0027225Y0045928D03*
X0027225Y0045978D03*
X0027225Y0046028D03*
X0027225Y0046078D03*
X0027225Y0046128D03*
X0027225Y0046178D03*
X0027225Y0046228D03*
X0027225Y0046278D03*
X0027225Y0046328D03*
X0027225Y0046378D03*
X0027225Y0046428D03*
X0027225Y0046478D03*
X0027225Y0046528D03*
X0027225Y0046578D03*
X0027225Y0046628D03*
X0027225Y0046678D03*
X0027225Y0046728D03*
X0027225Y0046778D03*
X0027225Y0046828D03*
X0027225Y0046878D03*
X0027225Y0046928D03*
X0027225Y0046978D03*
X0027225Y0047028D03*
X0027225Y0047078D03*
X0027225Y0047128D03*
X0027225Y0047178D03*
X0027225Y0047228D03*
X0027225Y0047278D03*
X0027225Y0047328D03*
X0027225Y0047378D03*
X0027225Y0047428D03*
X0027225Y0047478D03*
X0027225Y0047528D03*
X0027225Y0047578D03*
X0027225Y0047628D03*
X0027225Y0047678D03*
X0027225Y0047728D03*
X0027225Y0047778D03*
X0027225Y0047828D03*
X0027225Y0047878D03*
X0027225Y0047928D03*
X0027225Y0047978D03*
X0027225Y0048028D03*
X0027225Y0048078D03*
X0027225Y0048128D03*
X0027225Y0048178D03*
X0027225Y0048228D03*
X0027225Y0048278D03*
X0027225Y0048328D03*
X0027225Y0048378D03*
X0027225Y0048428D03*
X0027225Y0048478D03*
X0027225Y0048528D03*
X0027225Y0048578D03*
X0027225Y0048628D03*
X0027225Y0048678D03*
X0027225Y0048728D03*
X0027225Y0048778D03*
X0027225Y0048828D03*
X0027225Y0048878D03*
X0027225Y0048928D03*
X0027225Y0048978D03*
X0027225Y0049028D03*
X0027225Y0049078D03*
X0027225Y0049128D03*
X0027225Y0049178D03*
X0027225Y0049228D03*
X0027225Y0049278D03*
X0027225Y0049328D03*
X0027225Y0049378D03*
X0027225Y0049428D03*
X0027225Y0049478D03*
X0027225Y0049528D03*
X0027225Y0049578D03*
X0027225Y0049628D03*
X0027225Y0049678D03*
X0027225Y0049728D03*
X0027225Y0049778D03*
X0027225Y0049828D03*
X0027225Y0049878D03*
X0027225Y0049928D03*
X0027225Y0049978D03*
X0027225Y0050028D03*
X0027225Y0050078D03*
X0027225Y0050128D03*
X0027225Y0050178D03*
X0027225Y0050228D03*
X0027225Y0050278D03*
X0027225Y0050328D03*
X0027225Y0050378D03*
X0027225Y0050428D03*
X0027225Y0050478D03*
X0027225Y0050528D03*
X0027225Y0050578D03*
X0027225Y0050628D03*
X0027225Y0050678D03*
X0027225Y0050728D03*
X0027225Y0050778D03*
X0027225Y0050828D03*
X0027225Y0050878D03*
X0027225Y0050928D03*
X0027225Y0050978D03*
X0027225Y0051028D03*
X0027225Y0051078D03*
X0027225Y0051128D03*
X0027225Y0051178D03*
X0027225Y0051228D03*
X0027225Y0051278D03*
X0027225Y0051328D03*
X0027225Y0051378D03*
X0027225Y0051428D03*
X0027225Y0051478D03*
X0027225Y0051528D03*
X0027225Y0051578D03*
X0027225Y0051628D03*
X0027225Y0051678D03*
X0027225Y0051728D03*
X0027225Y0051778D03*
X0027225Y0051828D03*
X0027225Y0051878D03*
X0027225Y0051928D03*
X0027225Y0051978D03*
X0027225Y0052028D03*
X0027225Y0052078D03*
X0027225Y0052128D03*
X0027225Y0052178D03*
X0027225Y0052228D03*
X0027225Y0052278D03*
X0027225Y0052328D03*
X0027225Y0052378D03*
X0027225Y0052428D03*
X0027225Y0052478D03*
X0027225Y0052528D03*
X0027225Y0052578D03*
X0027225Y0052628D03*
X0027225Y0052678D03*
X0027225Y0052728D03*
X0027225Y0052778D03*
X0027225Y0052828D03*
X0027225Y0052878D03*
X0027225Y0052928D03*
X0027225Y0052978D03*
X0027225Y0053028D03*
X0027225Y0053078D03*
X0027225Y0053128D03*
X0027225Y0053178D03*
X0027225Y0053228D03*
X0027225Y0053278D03*
X0027225Y0053328D03*
X0027225Y0053378D03*
X0027225Y0053428D03*
X0027225Y0053478D03*
X0027225Y0053528D03*
X0027225Y0053578D03*
X0027225Y0053628D03*
X0027225Y0053678D03*
X0027225Y0053728D03*
X0027225Y0053778D03*
X0027225Y0053828D03*
X0027225Y0053878D03*
X0027225Y0053928D03*
X0027225Y0053978D03*
X0027225Y0054028D03*
X0027225Y0054078D03*
X0027225Y0054128D03*
X0027225Y0054178D03*
X0027225Y0054228D03*
X0027225Y0054278D03*
X0027225Y0054328D03*
X0027225Y0054378D03*
X0027225Y0054428D03*
X0027225Y0054478D03*
X0027225Y0054528D03*
X0027225Y0054578D03*
X0027225Y0054628D03*
X0027225Y0054678D03*
X0027225Y0054728D03*
X0027225Y0054778D03*
X0027225Y0054828D03*
X0027225Y0054878D03*
X0027225Y0054928D03*
X0027225Y0054978D03*
X0027225Y0055028D03*
X0027225Y0055078D03*
X0027225Y0055128D03*
X0027225Y0055178D03*
X0027225Y0055228D03*
X0027225Y0055278D03*
X0027225Y0055328D03*
X0027225Y0055378D03*
X0027225Y0055428D03*
X0027225Y0055478D03*
X0027225Y0055528D03*
X0027225Y0055578D03*
X0027225Y0055628D03*
X0027225Y0055678D03*
X0027225Y0055728D03*
X0027225Y0055778D03*
X0027225Y0055828D03*
X0027225Y0055878D03*
X0027225Y0055928D03*
X0027225Y0055978D03*
X0027225Y0056028D03*
X0027225Y0056078D03*
X0027225Y0056128D03*
X0027225Y0056178D03*
X0027225Y0056228D03*
X0027225Y0056278D03*
X0027225Y0056328D03*
X0027225Y0056378D03*
X0027225Y0056428D03*
X0027225Y0056478D03*
X0027225Y0056528D03*
X0027225Y0056578D03*
X0027225Y0056628D03*
X0027225Y0056678D03*
X0027225Y0056728D03*
X0027225Y0056778D03*
X0027225Y0056828D03*
X0027225Y0056878D03*
X0027225Y0056928D03*
X0027225Y0056978D03*
X0027225Y0057028D03*
X0027225Y0057078D03*
X0027225Y0057128D03*
X0027225Y0057178D03*
X0027225Y0057228D03*
X0027225Y0057278D03*
X0027225Y0057328D03*
X0027225Y0057378D03*
X0027225Y0057428D03*
X0027225Y0057478D03*
X0027225Y0057528D03*
X0027225Y0057578D03*
X0027225Y0057628D03*
X0027225Y0057678D03*
X0027225Y0057728D03*
X0027225Y0057778D03*
X0027225Y0057828D03*
X0027225Y0057878D03*
X0027225Y0057928D03*
X0027225Y0057978D03*
X0027225Y0058028D03*
X0027225Y0058078D03*
X0027225Y0058128D03*
X0027225Y0058178D03*
X0027225Y0058228D03*
X0027225Y0058278D03*
X0027225Y0058328D03*
X0027225Y0058378D03*
X0027225Y0058428D03*
X0027225Y0058478D03*
X0027225Y0058528D03*
X0027225Y0058578D03*
X0027225Y0058628D03*
X0027225Y0058678D03*
X0027225Y0058728D03*
X0027225Y0058778D03*
X0027225Y0058828D03*
X0027225Y0058878D03*
X0027225Y0058928D03*
X0027225Y0058978D03*
X0027225Y0059028D03*
X0027225Y0059078D03*
X0027225Y0059128D03*
X0027225Y0059178D03*
X0027225Y0059228D03*
X0027225Y0059278D03*
X0027225Y0059328D03*
X0027225Y0059378D03*
X0027225Y0059428D03*
X0027225Y0059478D03*
X0027225Y0059528D03*
X0027225Y0059578D03*
X0027225Y0059628D03*
X0027225Y0059678D03*
X0027225Y0059728D03*
X0027225Y0059778D03*
X0027225Y0059828D03*
X0027225Y0059878D03*
X0027225Y0059928D03*
X0027225Y0059978D03*
X0027225Y0060028D03*
X0027225Y0060078D03*
X0027225Y0060128D03*
X0027225Y0060178D03*
X0027225Y0060228D03*
X0027225Y0060278D03*
X0027225Y0060328D03*
X0027225Y0060378D03*
X0027225Y0060428D03*
X0027225Y0060478D03*
X0027225Y0060528D03*
X0027225Y0060578D03*
X0027225Y0060628D03*
X0027225Y0060678D03*
X0027225Y0060728D03*
X0027225Y0060778D03*
X0027225Y0060828D03*
X0027225Y0060878D03*
X0018225Y0051928D03*
X0018225Y0051878D03*
X0018225Y0051828D03*
X0018225Y0051778D03*
X0018225Y0051728D03*
X0018225Y0051678D03*
X0018225Y0051628D03*
X0018225Y0051578D03*
X0018225Y0051528D03*
X0018225Y0051478D03*
X0018225Y0051428D03*
X0018225Y0051378D03*
X0018225Y0051328D03*
X0018225Y0051278D03*
X0018225Y0051228D03*
X0018225Y0051178D03*
X0018225Y0051128D03*
X0018225Y0051078D03*
X0018225Y0051028D03*
X0018225Y0050978D03*
X0018225Y0050928D03*
X0018225Y0050878D03*
X0018225Y0050828D03*
X0018225Y0050778D03*
X0018225Y0050728D03*
X0018225Y0050678D03*
X0018225Y0050628D03*
X0018225Y0050578D03*
X0018225Y0050528D03*
X0018225Y0050478D03*
X0018225Y0050428D03*
X0018225Y0050378D03*
X0018225Y0050328D03*
X0018225Y0050278D03*
X0018225Y0050228D03*
X0018225Y0050178D03*
X0018225Y0050128D03*
X0018225Y0050078D03*
X0018225Y0050028D03*
X0018225Y0049978D03*
X0018225Y0049928D03*
X0018225Y0049878D03*
X0018225Y0049828D03*
X0018225Y0049778D03*
X0018225Y0049728D03*
X0018225Y0049678D03*
X0018225Y0049628D03*
X0018225Y0049578D03*
X0018225Y0049528D03*
X0018225Y0049478D03*
X0018225Y0049428D03*
X0018225Y0049378D03*
X0018225Y0049328D03*
X0018225Y0049278D03*
X0018225Y0049228D03*
X0018225Y0049178D03*
X0018225Y0049128D03*
X0018225Y0049078D03*
X0018225Y0049028D03*
X0018225Y0048978D03*
X0018225Y0048928D03*
X0018225Y0048878D03*
X0018225Y0048828D03*
X0018225Y0048778D03*
X0018225Y0048728D03*
X0018225Y0048678D03*
X0018225Y0048628D03*
X0018225Y0048578D03*
X0018225Y0048528D03*
X0018225Y0048478D03*
X0018225Y0048428D03*
X0018225Y0048378D03*
X0018225Y0048328D03*
X0018225Y0048278D03*
X0018225Y0048228D03*
X0018225Y0048178D03*
X0018225Y0048128D03*
X0018225Y0048078D03*
X0018225Y0048028D03*
X0018225Y0047978D03*
X0018225Y0047928D03*
X0018225Y0047878D03*
X0018225Y0047828D03*
X0018225Y0047778D03*
X0018225Y0047728D03*
X0018225Y0047678D03*
X0018225Y0047628D03*
X0018225Y0047578D03*
X0018225Y0047528D03*
X0018225Y0047478D03*
X0018225Y0047428D03*
X0018225Y0047378D03*
X0018225Y0047328D03*
X0018225Y0047278D03*
X0018225Y0047228D03*
X0018225Y0047178D03*
X0018225Y0047128D03*
X0018225Y0047078D03*
X0018225Y0047028D03*
X0018225Y0046978D03*
X0018225Y0046928D03*
X0018225Y0046878D03*
X0018225Y0046828D03*
X0018225Y0046778D03*
X0018225Y0046728D03*
X0018225Y0046678D03*
X0018225Y0046628D03*
X0018225Y0046578D03*
X0018225Y0046528D03*
X0018225Y0046478D03*
X0018225Y0046428D03*
X0018225Y0046378D03*
X0018225Y0046328D03*
X0018225Y0046278D03*
X0018225Y0046228D03*
X0018225Y0046178D03*
X0018225Y0046128D03*
X0018225Y0046078D03*
X0018225Y0046028D03*
X0018225Y0045978D03*
X0018225Y0045928D03*
X0018225Y0045878D03*
X0018225Y0045828D03*
X0018225Y0045778D03*
X0018225Y0045728D03*
X0018225Y0045678D03*
X0018225Y0045628D03*
X0018225Y0045578D03*
X0018225Y0045528D03*
X0018225Y0045478D03*
X0018225Y0045428D03*
X0018225Y0045378D03*
X0018225Y0045328D03*
X0018225Y0045278D03*
X0018225Y0045228D03*
X0018225Y0045178D03*
X0018225Y0045128D03*
X0018225Y0045078D03*
X0018225Y0045028D03*
X0018225Y0044978D03*
X0018225Y0044928D03*
X0018225Y0044878D03*
X0018225Y0044828D03*
X0018225Y0044778D03*
X0018225Y0044728D03*
X0018225Y0044678D03*
X0018225Y0044628D03*
X0018225Y0044578D03*
X0018225Y0044528D03*
X0018225Y0044478D03*
X0018225Y0044428D03*
X0018225Y0044378D03*
X0018225Y0044328D03*
X0018225Y0044278D03*
X0018225Y0044228D03*
X0018225Y0044178D03*
X0018225Y0044128D03*
X0018225Y0044078D03*
X0018225Y0044028D03*
X0018225Y0043978D03*
X0018225Y0043928D03*
X0018225Y0043878D03*
X0018225Y0043828D03*
X0018225Y0043778D03*
X0018225Y0043728D03*
X0018225Y0043678D03*
X0018225Y0043628D03*
X0018225Y0043578D03*
X0018225Y0043528D03*
X0018225Y0043478D03*
X0018225Y0043428D03*
X0018225Y0043378D03*
X0018225Y0043328D03*
X0018225Y0043278D03*
X0018225Y0043228D03*
X0018225Y0043178D03*
X0018225Y0043128D03*
X0018225Y0043078D03*
X0018225Y0043028D03*
D170*
X0013725Y0056378D03*
D171*
X0013750Y0056428D03*
X0013750Y0056478D03*
X0013750Y0056528D03*
X0013750Y0056578D03*
X0013750Y0056628D03*
X0013750Y0056678D03*
X0013750Y0056728D03*
X0013750Y0056778D03*
X0013750Y0056828D03*
X0013750Y0056878D03*
X0013750Y0056928D03*
X0013750Y0056978D03*
X0013750Y0057028D03*
X0013750Y0057078D03*
X0013750Y0057128D03*
X0013750Y0057178D03*
X0013750Y0057228D03*
X0013750Y0057278D03*
X0013750Y0057328D03*
X0013750Y0057378D03*
X0013750Y0057428D03*
X0013750Y0057478D03*
X0013750Y0057528D03*
X0013750Y0057578D03*
X0013750Y0057628D03*
X0013750Y0057678D03*
X0013750Y0057728D03*
X0013750Y0057778D03*
X0013750Y0057828D03*
X0013750Y0057878D03*
X0013750Y0057928D03*
X0013750Y0057978D03*
X0013750Y0058028D03*
X0013750Y0058078D03*
X0013750Y0058128D03*
X0013750Y0058178D03*
X0013750Y0058228D03*
X0013750Y0058278D03*
X0013750Y0058328D03*
X0013750Y0058378D03*
X0013750Y0058428D03*
X0013750Y0058478D03*
X0013750Y0058528D03*
X0013750Y0058578D03*
X0013750Y0058628D03*
X0013750Y0058678D03*
X0013750Y0058728D03*
X0013750Y0058778D03*
X0013750Y0058828D03*
X0013750Y0058878D03*
X0013750Y0058928D03*
X0013750Y0058978D03*
X0013750Y0059028D03*
X0013750Y0059078D03*
X0013750Y0059128D03*
X0013750Y0059178D03*
X0013750Y0059228D03*
X0013750Y0059278D03*
X0013750Y0059328D03*
X0013750Y0059378D03*
X0013750Y0059428D03*
X0013750Y0059478D03*
X0013750Y0059528D03*
X0013750Y0059578D03*
X0013750Y0059628D03*
X0013750Y0059678D03*
X0013750Y0059728D03*
X0013750Y0059778D03*
X0013750Y0059828D03*
X0013750Y0059878D03*
X0013750Y0059928D03*
X0013750Y0059978D03*
X0013750Y0060028D03*
X0013750Y0060078D03*
X0013750Y0060128D03*
X0013750Y0060178D03*
X0013750Y0060228D03*
X0013750Y0060278D03*
X0013750Y0060328D03*
X0013750Y0060378D03*
X0013750Y0060428D03*
X0013750Y0060478D03*
X0013750Y0060528D03*
X0013750Y0060578D03*
X0013750Y0060628D03*
X0013750Y0060678D03*
X0013750Y0060728D03*
X0013750Y0060778D03*
X0013750Y0060828D03*
X0013750Y0060878D03*
M02*
